<svg xmlns="http://www.w3.org/2000/svg" width="21.253" height="21.922" viewBox="0 0 21.253 21.922">
    <g id="Group_8940" data-name="Group 8940" transform="translate(-917.313 -356.437)">
        <path id="Union_4" data-name="Union 4" d="M6.26,18.771l0,0-.831-1.131,0,0h0l1.142-.823v0l.07-.051a7.791,7.791,0,0,0,10.68-5.113h2.065a9.673,9.673,0,0,1-3.093,5.3A9.835,9.835,0,0,1,8.4,19.305l.768,1.044-1.142.823ZM.2,11.655a9.614,9.614,0,0,1,1.957-8.02l-1.5.242L.431,2.5l2.957-.479v0L4.78,1.79v0h0l.226,1.38h0l.076.459A7.645,7.645,0,0,0,4.32,15.191L3.292,16.957A9.681,9.681,0,0,1,.2,11.655ZM17.822,8.507v0l-.385-.122A7.743,7.743,0,0,0,9.8,2.049a7.822,7.822,0,0,0-2.036.269L6.7.5a9.845,9.845,0,0,1,9.59,1.953,9.735,9.735,0,0,1,2.426,3.267l.441-1.374,1.345.423L19.6,7.6h0L19.17,8.929h0v0Z" transform="translate(917.688 356.812)" fill="none" stroke="#5d43f7" stroke-linejoin="round" stroke-miterlimit="10" stroke-width="0.75"/>
        <path id="Path_2171" data-name="Path 2171" d="M66.135,44.157,63.75,41.794V35.967a.706.706,0,0,0-1.411,0v5.944a.678.678,0,0,0,.008.083.692.692,0,0,0,.2.583l2.592,2.569a.713.713,0,0,0,1,0A.7.7,0,0,0,66.135,44.157Z" transform="translate(864.095 325.906)" fill="#5d43f7"/>
    </g>
</svg>
