<svg xmlns="http://www.w3.org/2000/svg" width="21.139" height="20.933" viewBox="0 0 21.139 20.933">
    <g id="detachment" transform="translate(0.375 0.375)">
        <g id="Path_39" data-name="Path 39" transform="translate(-68.493 -67.935)" fill="none" stroke-miterlimit="10">
            <path d="M89.257,80.336c-.232-.021-.466-.033-.7-.033a7.5,7.5,0,0,0-7.536,7.453c0,.249.013.495.037.737h8.2Z" stroke="none"/>
            <path d="M 88.50742340087891 81.05315399169922 C 84.79120635986328 81.07758331298828 81.77503204345703 84.06822204589844 81.76801300048828 87.74343109130859 L 88.50742340087891 87.74343109130859 L 88.50742340087891 81.05315399169922 M 88.55355834960938 80.30300140380859 C 88.79105377197266 80.30300140380859 89.02555847167969 80.3153076171875 89.25742340087891 80.33641052246094 L 89.25742340087891 88.49343109130859 L 81.05492401123047 88.49343109130859 C 81.03092956542969 88.25084686279297 81.01799774169922 88.005126953125 81.01799774169922 87.75629425048828 C 81.01799774169922 83.63993072509766 84.39177703857422 80.30300140380859 88.55355834960938 80.30300140380859 Z" stroke="none" fill="#5d43f7"/>
        </g>
        <path id="Path_40" data-name="Path 40" d="M12.018,11.8V28.266H20.46c-.024-.243-.037-.488-.037-.737a7.5,7.5,0,0,1,7.536-7.453c.237,0,.472.012.7.033V11.8Zm9.024,8.908-6.3-1.329a.227.227,0,0,1-.176-.268l.233-1.091a.229.229,0,0,1,.271-.175l2.07.433L13.48,14.657l1.713-1.694,3.664,3.624-.438-2.047a.226.226,0,0,1,.177-.268l1.1-.231a.229.229,0,0,1,.271.174l1.344,6.228A.228.228,0,0,1,21.042,20.711Z" transform="translate(-12.018 -11.803)" fill="none" stroke="#5d43f7" stroke-miterlimit="10" stroke-width="0.75"/>
    </g>
</svg>