<svg xmlns="http://www.w3.org/2000/svg" width="23.517" height="20.621" viewBox="0 0 23.517 20.621">
    <g id="Group_8937" data-name="Group 8937" transform="translate(-923.313 -402.625)">
        <path id="Path_2169" data-name="Path 2169" d="M24.746,21.486a6.649,6.649,0,0,1,4.972,2.21c0-.018,0-.035,0-.052a4.344,4.344,0,0,0-4.393-4.292l-.077,0a6.93,6.93,0,0,0-13.761,0,4.289,4.289,0,0,0-.122,8.577v.006h6.779A6.526,6.526,0,0,1,24.746,21.486Z" transform="translate(916.492 389.75)" fill="none" stroke="#5d43f7" stroke-miterlimit="10" stroke-width="0.75"/>
        <path id="Path_2170" data-name="Path 2170" d="M81.995,69.25A5.056,5.056,0,1,0,87.168,74.3,5.115,5.115,0,0,0,81.995,69.25Zm3.24,7.017a.245.245,0,0,1,0,.353l-.9.881a.259.259,0,0,1-.361,0l-1.978-1.932L80.017,77.5a.259.259,0,0,1-.361,0l-.9-.881a.246.246,0,0,1,0-.353l1.978-1.932L78.754,72.4a.246.246,0,0,1,0-.353l.9-.881a.259.259,0,0,1,.361,0L81.995,73.1l1.978-1.933a.259.259,0,0,1,.361,0l.9.881a.245.245,0,0,1,0,.353l-1.978,1.933Z" transform="translate(859.286 343.511)" fill="none" stroke="#5d43f7" stroke-miterlimit="10" stroke-width="0.75"/>
    </g>
</svg>