<svg xmlns="http://www.w3.org/2000/svg" width="26.79" height="23.781" viewBox="0 0 26.79 23.781">
    <g id="Group_8954" data-name="Group 8954" transform="translate(-919.462 -362.674)">
        <path id="Path_2166" data-name="Path 2166" d="M9.11,6.727l-4.3-6.6a.282.282,0,0,0-.471,0l-4.3,6.6a.279.279,0,0,0,.083.386l1.16.751a.282.282,0,0,0,.389-.082L3.092,5.617V22.582a.28.28,0,0,0,.281.279h2.41a.28.28,0,0,0,.281-.279V5.617L7.479,7.783a.282.282,0,0,0,.389.082l1.16-.751A.279.279,0,0,0,9.11,6.727Z" transform="matrix(-1, 0.017, -0.017, -1, 929.397, 385.913)" fill="none" stroke="#5d43f7" stroke-miterlimit="10" stroke-width="0.75"/>
        <path id="Path_2167" data-name="Path 2167" d="M4.451,10.472l-2.8-2.784V.824A.828.828,0,0,0,0,.824v7a.8.8,0,0,0,.01.1.819.819,0,0,0,.232.687l3.04,3.026a.832.832,0,0,0,1.17,0A.824.824,0,0,0,4.451,10.472Z" transform="translate(934.284 368.368)" fill="#5d43f7" stroke="rgba(0,0,0,0)" stroke-miterlimit="10" stroke-width="1"/>
        <g id="Path_2168" data-name="Path 2168" transform="translate(946.252 385.737) rotate(180)" fill="none" stroke-linejoin="round" stroke-miterlimit="10">
            <path d="M11.482,20.364A8.934,8.934,0,1,1,17.06,4.436l1.37-2.1a11.429,11.429,0,1,0,.815,17.519V15.909A8.975,8.975,0,0,1,11.482,20.364Z" stroke="none"/>
            <path d="M 11.48202037811279 22.11149978637695 C 14.06827068328857 22.11149978637695 16.54585266113281 21.19145011901855 18.49552154541016 19.51383399963379 L 18.49552154541016 18.13180351257324 C 16.68145561218262 20.00900077819824 14.15001201629639 21.11423873901367 11.48202037811279 21.11423873901367 C 6.120430946350098 21.11423873901367 1.758460760116577 16.77023887634277 1.758460760116577 11.43074893951416 C 1.758460760116577 6.091259002685547 6.120430946350098 1.747258901596069 11.48202037811279 1.747258901596069 C 13.42411994934082 1.747258901596069 15.26817798614502 2.304277181625366 16.86242485046387 3.365539312362671 L 17.40861320495605 2.526709079742432 C 15.65055847167969 1.362108945846558 13.61580848693848 0.749998927116394 11.48202037811279 0.749998927116394 C 8.614740371704102 0.749998927116394 5.91926097869873 1.861408948898315 3.892130851745605 3.879488945007324 C 1.865900754928589 5.896678924560547 0.7500007748603821 8.578429222106934 0.7500007748603821 11.43074893951416 C 0.7500007748603821 14.28306865692139 1.865900754928589 16.96481895446777 3.892130851745605 18.98200988769531 C 5.91926097869873 21.00008964538574 8.614740371704102 22.11149978637695 11.48202037811279 22.11149978637695 M 11.48202037811279 22.86149978637695 C 5.140630722045898 22.86149978637695 7.727050501671329e-07 17.74381828308105 7.727050501671329e-07 11.43074893951416 C 7.727050501671329e-07 5.117679119110107 5.140630722045898 -1.060485828929814e-06 11.48202037811279 -1.060485828929814e-06 C 14.09392070770264 -1.060485828929814e-06 16.50101089477539 0.8697689175605774 18.43019104003906 2.332278966903687 L 17.06042098999023 4.435958862304688 C 15.52866077423096 3.223469018936157 13.59099102020264 2.497258901596069 11.48202037811279 2.497258901596069 C 6.525920867919922 2.497258901596069 2.508460760116577 6.496988773345947 2.508460760116577 11.43074893951416 C 2.508460760116577 16.36450958251953 6.525920867919922 20.36423873901367 11.48202037811279 20.36423873901367 C 14.79815101623535 20.36423873901367 17.69204139709473 18.57218933105469 19.24552154541016 15.90892887115479 L 19.24552154541016 19.85098838806152 C 17.20151138305664 21.71986961364746 14.47604084014893 22.86149978637695 11.48202037811279 22.86149978637695 Z" stroke="none" fill="#5d43f7"/>
        </g>
    </g>
</svg>