<svg xmlns="http://www.w3.org/2000/svg" width="24.043" height="23.932" viewBox="0 0 24.043 23.932">
    <g id="Group_8943" data-name="Group 8943" transform="translate(-930.335 -371.728)">
        <path id="Path_19" data-name="Path 19" d="M33.3,23.907c-.032-.063-.075-.136-.13-.22a8.279,8.279,0,0,0-1.06-1.118,10.12,10.12,0,0,0-.031-3.668,7.639,7.639,0,0,0,.982-1.049c.055-.085.1-.158.13-.221a.532.532,0,0,0-.021-.524l-1.31-2.135L31.82,14.9l-1.31-2.135a.554.554,0,0,0-.462-.264c-.071,0-.157,0-.259.009a7.388,7.388,0,0,0-1.327.333,10.636,10.636,0,0,0-3.246-1.818A7.83,7.83,0,0,0,24.79,9.6c-.046-.09-.088-.163-.126-.222a.555.555,0,0,0-.469-.252H19.031a.554.554,0,0,0-.469.252c-.038.059-.08.132-.126.222A8.082,8.082,0,0,0,18,11.069a10.637,10.637,0,0,0-3.1,1.751,6.994,6.994,0,0,0-1.253-.307c-.1-.008-.188-.01-.259-.008a.554.554,0,0,0-.462.265l-1.306,2.137-.042.069-1.306,2.137a.532.532,0,0,0-.02.524c.032.062.074.135.13.22a6.887,6.887,0,0,0,.884.955,10.146,10.146,0,0,0-.031,3.845,7.493,7.493,0,0,0-.967,1.036c-.055.085-.1.158-.129.221a.531.531,0,0,0,.021.524l1.31,2.135.042.069,1.31,2.135a.554.554,0,0,0,.462.264c.071,0,.157,0,.259-.009a6.957,6.957,0,0,0,1.247-.307,10.633,10.633,0,0,0,3.255,1.863,6.816,6.816,0,0,0,.384,1.247c.046.09.088.163.126.222a.554.554,0,0,0,.469.252H24.2a.555.555,0,0,0,.469-.252c.038-.059.08-.132.126-.222a6.612,6.612,0,0,0,.375-1.207A10.631,10.631,0,0,0,28.571,28.7a7.457,7.457,0,0,0,1.335.333c.1.008.188.01.259.008a.554.554,0,0,0,.462-.265l1.306-2.137.042-.069,1.306-2.137A.531.531,0,0,0,33.3,23.907ZM26,27.189a7.922,7.922,0,0,1-7.956.4c-.216-.112-.428-.229-.631-.359a7.62,7.62,0,0,1-3.541-6.061c-.006-.118-.009-.235-.009-.354,0-.152.006-.3.015-.452a7.628,7.628,0,0,1,3.662-6.044c.2-.121.4-.229.609-.333a7.889,7.889,0,0,1,7.73.381,7.624,7.624,0,0,1,3.585,6c.009.149.014.3.014.449,0,.125,0,.249-.01.372A7.618,7.618,0,0,1,26,27.189Z" transform="translate(920.633 362.977)" fill="none" stroke="#5d43f7" stroke-miterlimit="10" stroke-width="0.75"/>
        <g id="Group_25" data-name="Group 25" transform="translate(937.774 379.039)">
            <g id="Path_20" data-name="Path 20" transform="translate(-46.936 -46.068)" fill="none" stroke-linejoin="round" stroke-miterlimit="10">
                <path d="M56.1,50.26a4.486,4.486,0,0,0-2.708-4.1.442.442,0,0,0-.62.4V49.82a.227.227,0,0,1-.1.187l-.945.644a.23.23,0,0,1-.258,0l-.956-.647a.219.219,0,0,1-.1-.181V46.511A.45.45,0,0,0,49.8,46.1a4.453,4.453,0,0,0-.476,8.1l-.051,0v1.889l.015,0a.185.185,0,0,0-.009.052c0,.347,1,.628,2.242.628s2.242-.281,2.242-.628a.186.186,0,0,0-.009-.052l.015,0V54.2l-.051,0A4.479,4.479,0,0,0,56.1,50.26Z" stroke="none"/>
                <path d="M 49.66590881347656 46.98768997192383 C 48.45001983642578 47.64047622680664 47.68600082397461 48.88211441040039 47.68600082397461 50.26029586791992 C 47.68600082397461 51.6259765625 48.44849014282227 52.88362503051758 49.67591094970703 53.54245758056641 C 49.98746109008789 53.70967483520508 50.139892578125 54.07178497314453 50.04173278808594 54.41147613525391 C 50.03547286987305 54.43314361572266 50.02830505371094 54.45433044433594 50.02027130126953 54.47502899169922 L 50.02027130126953 55.83111190795898 C 50.27087783813477 55.91666030883789 50.78260040283203 56.02178573608398 51.51800155639648 56.02178573608398 C 52.25331878662109 56.02178573608398 52.7650260925293 55.91670227050781 53.01573181152344 55.83115386962891 L 53.01573181152344 54.47499847412109 C 53.00770950317383 54.45431900024414 53.00053787231445 54.43312072753906 52.99428176879883 54.41147613525391 C 52.89612197875977 54.07178497314453 53.04854965209961 53.70967483520508 53.36009979248047 53.54245758056641 C 54.58752059936523 52.88363647460938 55.35000228881836 51.62598419189453 55.35000228881836 50.26029586791992 C 55.35000228881836 48.95284652709961 54.64599227905273 47.74786376953125 53.52179336547852 47.07344818115234 L 53.52179336547852 49.82004547119141 C 53.52179336547852 50.14318466186523 53.36182022094727 50.44499588012695 53.09429168701172 50.62711715698242 L 52.14981079101562 51.27094650268555 C 51.98652267456055 51.3824462890625 51.7955207824707 51.44137573242188 51.59747314453125 51.44137573242188 C 51.40044021606445 51.44137573242188 51.21025085449219 51.38298416137695 51.04825210571289 51.27304458618164 L 50.09231185913086 50.62609481811523 C 49.82541275024414 50.44528579711914 49.66607284545898 50.14536666870117 49.66607284545898 49.82383728027344 L 49.66590881347656 46.98768997192383 M 49.9654426574707 46.06822967529297 C 50.20330047607422 46.06822967529297 50.4158821105957 46.25804138183594 50.4158821105957 46.51145553588867 L 50.41607284545898 49.82379531860352 C 50.41607284545898 49.89625549316406 50.45225143432617 49.96403503417969 50.5129508972168 50.00515747070312 L 51.46861267089844 50.65192413330078 C 51.54634857177734 50.70468902587891 51.64936447143555 50.70449829101562 51.72690200805664 50.65155410766602 L 52.67184066772461 50.00740432739258 C 52.73445129394531 49.96478652954102 52.77179336547852 49.89475631713867 52.77179336547852 49.82004547119141 L 52.77179336547852 46.561767578125 C 52.77179336547852 46.24916839599609 53.10095977783203 46.03572082519531 53.39178085327148 46.16355514526367 C 54.98773193359375 46.86552429199219 56.10000228881836 48.43412399291992 56.10000228881836 50.26029586791992 C 56.10000228881836 51.96106719970703 55.13594055175781 53.44047546386719 53.71480178833008 54.20327758789062 L 53.76573181152344 54.19970703125 L 53.76573181152344 56.08876419067383 L 53.75080108642578 56.09196472167969 C 53.75577163696289 56.10904693603516 53.76018142700195 56.12612533569336 53.76018142700195 56.14359664916992 C 53.76018142700195 56.49053573608398 52.75628280639648 56.77178573608398 51.51800155639648 56.77178573608398 C 50.27974319458008 56.77178573608398 49.2760124206543 56.49053573608398 49.2760124206543 56.14359664916992 C 49.2760124206543 56.12612533569336 49.28023147583008 56.10904693603516 49.28522109985352 56.09196472167969 L 49.27027130126953 56.08876419067383 L 49.27027130126953 54.19970703125 L 49.32121276855469 54.20327758789062 C 47.90008163452148 53.44047546386719 46.93600082397461 51.96106719970703 46.93600082397461 50.26029586791992 C 46.93600082397461 48.37648773193359 48.12008285522461 46.7673454284668 49.79759979248047 46.10066604614258 C 49.85335922241211 46.07850646972656 49.91006851196289 46.06822967529297 49.9654426574707 46.06822967529297 Z" stroke="none" fill="#5d43f7"/>
            </g>
        </g>
    </g>
</svg>