<svg xmlns="http://www.w3.org/2000/svg" width="21.114" height="20.018" viewBox="0 0 21.114 20.018">
    <g id="Group_8953" data-name="Group 8953" transform="translate(-524.377 -226.382)">
        <g id="refurbishment" transform="translate(524.752 226.757)">
            <path id="Path_38" data-name="Path 38" d="M26.357,10.06a.212.212,0,0,0-.21-.2H22.081a.212.212,0,0,0-.21.2l-.477,7.729a.212.212,0,0,1-.211.2h-.874a.212.212,0,0,1-.211-.213V14.463a.211.211,0,0,0-.311-.188l-3.23,1.757L14.3,17.261v-2.8a.211.211,0,0,0-.311-.188l-3.23,1.757-3.488,1.9a.213.213,0,0,0-.111.188v10.8c0,.118.211.213.211.213H27.311a.212.212,0,0,0,.21-.227Z" transform="translate(-7.158 -9.86)" fill="none" stroke="#5d43f7" stroke-linecap="round" stroke-linejoin="round" stroke-width="0.75"/>
        </g>
        <g id="Path_2172" data-name="Path 2172" transform="translate(17685.967 1040.501)" fill="none" stroke-linecap="round" stroke-linejoin="round">
            <path d="M-17160.926-794.209l4.189-4.648a4.055,4.055,0,0,1,1.311-4.275,4.032,4.032,0,0,1,4.7-.377l-2.486,2.6.207,1.314,1.279.236,2.475-2.566a3.837,3.837,0,0,1-.156,4.346,3.928,3.928,0,0,1-4.471,1.63l-1.545,1.74Z" stroke="none"/>
            <path d="M -17155.763671875 -794.958740234375 L -17154.44140625 -796.4464111328125 C -17154.244140625 -796.669189453125 -17153.93359375 -796.7532958984375 -17153.65625 -796.6638793945312 C -17153.65234375 -796.6625366210938 -17153.224609375 -796.53271484375 -17152.646484375 -796.53271484375 C -17151.5 -796.5327758789062 -17150.626953125 -797.0150756835938 -17150.05078125 -797.9669189453125 C -17149.380859375 -799.0713500976562 -17149.359375 -799.9822998046875 -17149.490234375 -800.5982055664062 L -17151.189453125 -798.8375244140625 C -17151.33203125 -798.6895751953125 -17151.52734375 -798.608154296875 -17151.728515625 -798.608154296875 C -17151.7734375 -798.608154296875 -17151.818359375 -798.6122436523438 -17151.865234375 -798.62060546875 L -17153.14453125 -798.8568115234375 C -17153.45703125 -798.91455078125 -17153.69921875 -799.1633911132812 -17153.748046875 -799.4776000976562 L -17153.955078125 -800.7914428710938 C -17153.9921875 -801.0225830078125 -17153.91796875 -801.2574462890625 -17153.7578125 -801.4265747070312 L -17152.02734375 -803.2346801757812 C -17152.296875 -803.3062133789062 -17152.607421875 -803.3596801757812 -17152.943359375 -803.3596801757812 C -17153.6796875 -803.3596801757812 -17154.345703125 -803.0956420898438 -17154.923828125 -802.5745849609375 C -17156.646484375 -801.0198364257812 -17156.0703125 -799.2266235351562 -17156.03125 -799.1134033203125 C -17155.931640625 -798.8502197265625 -17155.990234375 -798.56396484375 -17156.1796875 -798.3544311523438 L -17159.240234375 -794.958740234375 L -17155.763671875 -794.958740234375 M -17155.42578125 -794.208740234375 L -17160.92578125 -794.208740234375 L -17156.736328125 -798.8565673828125 C -17156.736328125 -798.8565673828125 -17157.591796875 -801.1776123046875 -17155.42578125 -803.1314697265625 C -17153.263671875 -805.0850830078125 -17150.728515625 -803.50830078125 -17150.728515625 -803.50830078125 L -17153.21484375 -800.908203125 L -17153.0078125 -799.5943603515625 L -17151.728515625 -799.358154296875 L -17149.25390625 -801.9241943359375 C -17149.25390625 -801.9241943359375 -17147.85546875 -800.1405029296875 -17149.41015625 -797.577880859375 C -17150.306640625 -796.0951538085938 -17151.6640625 -795.7827758789062 -17152.646484375 -795.78271484375 C -17153.36328125 -795.78271484375 -17153.880859375 -795.9483642578125 -17153.880859375 -795.9483642578125 L -17155.42578125 -794.208740234375 Z" stroke="none" fill="#5d43f7"/>
        </g>
    </g>
</svg>