<svg xmlns="http://www.w3.org/2000/svg" width="18.594" height="24.468" viewBox="0 0 18.594 24.468">
  <g id="Group_8932" data-name="Group 8932" transform="translate(0.297 0.469)">
    <g id="Group_31" data-name="Group 31" transform="translate(0 0)">
      <path id="Path_27" data-name="Path 27" d="M41.331,15.838a8.065,8.065,0,0,0-3.516-3.843,9.276,9.276,0,0,0-9.087,0,8.066,8.066,0,0,0-3.516,3.843c-2.2,5.023,0,8.372,1.1,10.232a50.659,50.659,0,0,0,6.417,8.082.785.785,0,0,0,1.087,0,50.672,50.672,0,0,0,6.417-8.082C41.331,24.209,43.529,20.861,41.331,15.838Zm-8.059,10.79a6.605,6.605,0,1,1,6.5-6.6A6.554,6.554,0,0,1,33.272,26.628Z" transform="translate(-24.272 -10.806)" fill="none" stroke="#5d43f7" stroke-miterlimit="10" stroke-width="0.75"/>
    </g>
    <g id="Group_34" data-name="Group 34" transform="translate(5.319 5.01)">
      <g id="Group_32" data-name="Group 32" transform="translate(0 0)">
        <path id="Path_28" data-name="Path 28" d="M55.5,35.386v.585A3.633,3.633,0,0,0,52.263,34.6a3.694,3.694,0,0,0-3.174,2.79,3.766,3.766,0,0,0-.083,1.383.1.1,0,0,0,.128.078l.5-.185a.1.1,0,0,0,.061-.1c-.008-.087-.012-.175-.012-.264a2.981,2.981,0,0,1,2.958-3A2.937,2.937,0,0,1,55,36.488h-.586a.1.1,0,0,0-.1.1v.279a.1.1,0,0,0,.1.1h1.455a.1.1,0,0,0,.1-.1V35.386a.1.1,0,0,0-.1-.1h-.275A.1.1,0,0,0,55.5,35.386Z" transform="translate(-48.976 -34.58)" fill="#5d43f7"/>
      </g>
      <g id="Group_33" data-name="Group 33" transform="translate(0.513 3.356)">
        <path id="Path_29" data-name="Path 29" d="M58.834,54.334a.1.1,0,0,0-.129-.083l-.575.213c0,.049.007.1.007.147a2.981,2.981,0,0,1-2.958,3,2.929,2.929,0,0,1-2.251-1.061h.649a.1.1,0,0,0,.1-.1v-.279a.1.1,0,0,0-.1-.1H52.122a.1.1,0,0,0-.1.1v1.478a.1.1,0,0,0,.1.1H52.4a.1.1,0,0,0,.1-.1v-.517a3.628,3.628,0,0,0,2.687,1.193,3.694,3.694,0,0,0,3.665-3.723Q58.845,54.471,58.834,54.334Z" transform="translate(-52.027 -54.245)" fill="#5d43f7"/>
      </g>
    </g>
  </g>
</svg>
