<svg xmlns="http://www.w3.org/2000/svg" width="22.988" height="22.077" viewBox="0 0 22.988 22.077">
    <g id="Group_8971" data-name="Group 8971" transform="translate(16531.994 623.043)">
        <path id="Union_397" data-name="Union 397" d="M959.967,208.9v1.48a.283.283,0,0,1-.289.277h-.834a.283.283,0,0,1-.289-.277v-4.232a.283.283,0,0,1,.289-.277h.731a9.663,9.663,0,0,0,8.544,4.993,9.414,9.414,0,0,0,9.61-9.205c0-.216-.011-.429-.026-.643l1.113-.388a.291.291,0,0,1,.391.237q.031.393.032.794a10.9,10.9,0,0,1-11.12,10.659A11.307,11.307,0,0,1,959.967,208.9Zm1.888-7.16a5.93,5.93,0,0,1,4.013-5.539v5.755a.732.732,0,0,0,.747.713h2.592a.946.946,0,0,0,.965-.923V196.2a5.944,5.944,0,0,1,4.014,5.539,6.171,6.171,0,0,1-12.331,0ZM957.089,203a10.209,10.209,0,0,1,.252-3.96,11.019,11.019,0,0,1,9.63-7.988,11.328,11.328,0,0,1,9.813,3.928v-1.674a.283.283,0,0,1,.289-.277h.834a.283.283,0,0,1,.289.277v4.232a.283.283,0,0,1-.289.277h-1.054a9.642,9.642,0,0,0-8.734-5.365,9.413,9.413,0,0,0-9.609,9.2,8.942,8.942,0,0,0,.081,1.18l-1.114.389a.3.3,0,0,1-.1.017A.286.286,0,0,1,957.089,203Zm10.475-1.509a.5.5,0,0,1-.5-.5v-6.1a.5.5,0,0,1,.5-.5h.913a.5.5,0,0,1,.5.5V201a.5.5,0,0,1-.5.5Z" transform="translate(-17488.619 -813.658)" fill="none" stroke="#5d43f7" stroke-miterlimit="10" stroke-width="0.75"/>
    </g>
</svg>