<svg xmlns="http://www.w3.org/2000/svg" width="26.102" height="23.314" viewBox="0 0 26.102 23.314">
    <g id="Group_8955" data-name="Group 8955" transform="translate(945.694 386.069) rotate(180)">
        <path id="Path_2166" data-name="Path 2166" d="M8.931,6.639,4.718.126a.275.275,0,0,0-.462,0L.044,6.639a.276.276,0,0,0,.081.381l1.137.742a.275.275,0,0,0,.381-.081L3.031,5.544V22.289a.276.276,0,0,0,.275.276H5.669a.276.276,0,0,0,.275-.276V5.544L7.332,7.681a.275.275,0,0,0,.381.081L8.85,7.021A.276.276,0,0,0,8.931,6.639Z" transform="translate(928.976 385.694) rotate(180)" fill="none" stroke="#5d43f7" stroke-miterlimit="10" stroke-width="0.75"/>
        <path id="Path_2167" data-name="Path 2167" d="M4.364,10.336,1.622,7.588V.813A.811.811,0,1,0,0,.813V7.725a.8.8,0,0,0,.01.1A.812.812,0,0,0,.237,8.5l2.98,2.987a.812.812,0,1,0,1.147-1.15Z" transform="translate(936.261 380.273) rotate(180)" fill="#5d43f7"/>
        <g id="Path_2168" data-name="Path 2168" transform="translate(945.694 385.44) rotate(180)" fill="none" stroke-linejoin="round" stroke-miterlimit="10">
            <path d="M11.256,20.1A8.817,8.817,0,1,1,16.725,4.378L18.067,2.3a11.271,11.271,0,1,0-6.811,20.262,11.2,11.2,0,0,0,7.611-2.971V15.7A8.788,8.788,0,0,1,11.256,20.1Z" stroke="none"/>
            <path d="M 11.25604438781738 21.81442260742188 C 13.78549003601074 21.81442260742188 16.20891952514648 20.90878105163574 18.11674499511719 19.25731658935547 L 18.11674499511719 17.92932319641113 C 16.33748054504395 19.7679615020752 13.86324501037598 20.84961318969727 11.25604438781738 20.84961318969727 C 5.99183464050293 20.84961318969727 1.709084391593933 16.55769157409668 1.709084391593933 11.28221225738525 C 1.709084391593933 6.00673246383667 5.99183464050293 1.714812278747559 11.25604438781738 1.714812278747559 C 13.15766716003418 1.714812278747559 14.9633617401123 2.262040615081787 16.52565956115723 3.304939031600952 L 17.0488224029541 2.496000289916992 C 15.32986450195312 1.351563930511475 13.34113883972168 0.7500022649765015 11.25604438781738 0.7500022649765015 C 5.462994575500488 0.7500022649765015 0.7500044107437134 5.474732398986816 0.7500044107437134 11.28221225738525 C 0.7500044107437134 17.08969306945801 5.462994575500488 21.81442260742188 11.25604438781738 21.81442260742188 M 11.25604438781738 22.56442260742188 C 5.039464473724365 22.56442260742188 4.404907031130278e-06 17.51324272155762 4.404907031130278e-06 11.28221225738525 C 4.404907031130278e-06 5.051182270050049 5.039464473724365 2.257385176562821e-06 11.25604438781738 2.257385176562821e-06 C 13.81654453277588 2.257385176562821e-06 16.17625427246094 0.8584622740745544 18.06747436523438 2.301982164382935 L 16.72465515136719 4.378312110900879 C 15.22303485870361 3.18158221244812 13.32350444793701 2.464812278747559 11.25604438781738 2.464812278747559 C 6.397484302520752 2.464812278747559 2.459084510803223 6.412562370300293 2.459084510803223 11.28221225738525 C 2.459084510803223 16.15185165405273 6.397484302520752 20.09961318969727 11.25604438781738 20.09961318969727 C 14.50691413879395 20.09961318969727 17.34384346008301 18.33085250854492 18.86674499511719 15.70220184326172 L 18.86674499511719 19.59303283691406 C 16.86297416687012 21.4376220703125 14.19113445281982 22.56442260742188 11.25604438781738 22.56442260742188 Z" stroke="none" fill="#5d43f7"/>
        </g>
    </g>
</svg>