<svg width="17" height="16" viewBox="0 0 17 16" fill="none" xmlns="http://www.w3.org/2000/svg">
<path d="M11.7699 12.2344H5.45326C5.38415 12.2344 5.32812 12.2882 5.32812 12.3545V13.211C5.32812 13.2774 5.38415 13.3312 5.45326 13.3312H11.7699C11.839 13.3312 11.8951 13.2774 11.8951 13.211V12.3545C11.8951 12.2882 11.839 12.2344 11.7699 12.2344Z" fill="#4B4B4B"/>
<path d="M6.99964 8.79688C6.92959 9.08728 6.7628 9.3478 6.52459 9.53892C6.28637 9.73003 5.98973 9.8413 5.67969 9.85583L6.90083 11.8699H10.1997L6.99964 8.79688Z" fill="#4B4B4B"/>
<path d="M5.61085 9.58419C6.24162 9.58419 6.75295 9.09314 6.75295 8.48741C6.75295 7.88167 6.24162 7.39062 5.61085 7.39062C4.98009 7.39062 4.46875 7.88167 4.46875 8.48741C4.46875 9.09314 4.98009 9.58419 5.61085 9.58419Z" fill="#4B4B4B"/>
<path d="M8.02711 5.33594L5.82812 7.13575C6.14128 7.1825 6.42932 7.32805 6.64679 7.54944C6.86426 7.77082 6.99878 8.05544 7.02913 8.35838L8.93979 6.113L8.9276 6.10122C8.71607 6.07207 8.51807 5.98406 8.35804 5.84806C8.19801 5.71206 8.08296 5.53402 8.02711 5.33594Z" fill="#4B4B4B"/>
<path d="M9.02703 5.84519C9.44754 5.84519 9.78843 5.51782 9.78843 5.114C9.78843 4.71018 9.44754 4.38281 9.02703 4.38281C8.60652 4.38281 8.26562 4.71018 8.26562 5.114C8.26562 5.51782 8.60652 5.84519 9.02703 5.84519Z" fill="#4B4B4B"/>
<path d="M9.47558 4.2907L9.4444 3.65798C9.4435 3.63995 9.44653 3.62194 9.4533 3.6051C9.46006 3.58826 9.47042 3.57297 9.4837 3.5602L10.3253 2.75251C10.3328 2.74527 10.338 2.73604 10.34 2.72599C10.3421 2.71593 10.3411 2.70552 10.337 2.69605C10.3329 2.68658 10.326 2.67849 10.3171 2.6728C10.3082 2.6671 10.2978 2.66406 10.2871 2.66406H9.47699C9.44122 2.66406 9.40692 2.6777 9.38161 2.70197L8.59416 3.45817C8.56888 3.48247 8.55469 3.51542 8.55469 3.54976V4.31462C8.69495 4.24004 8.85183 4.19894 9.01209 4.19477C9.17236 4.19061 9.33132 4.22351 9.47558 4.2907Z" fill="#4B4B4B"/>
<path d="M11.5411 3.92139L10.6996 4.72949C10.6863 4.74226 10.6704 4.75222 10.6529 4.75873C10.6354 4.76525 10.6166 4.76817 10.5978 4.76732L9.93888 4.7373C10.0089 4.87588 10.0432 5.0286 10.0389 5.18259C10.0346 5.33657 9.99177 5.4873 9.91406 5.62206H10.711C10.7287 5.62206 10.7462 5.6187 10.7626 5.61218C10.779 5.60566 10.7938 5.59611 10.8063 5.58407L11.5937 4.82795C11.6062 4.81593 11.6162 4.80165 11.623 4.78594C11.6298 4.77022 11.6333 4.75338 11.6333 4.73636V3.95802C11.6332 3.94778 11.6301 3.93777 11.6241 3.92926C11.6182 3.92074 11.6097 3.91411 11.5999 3.91019C11.59 3.90628 11.5792 3.90525 11.5687 3.90724C11.5582 3.90923 11.5486 3.91416 11.5411 3.92139Z" fill="#4B4B4B"/>
</svg>
