<svg width="17" height="16" viewBox="0 0 17 16" fill="none" xmlns="http://www.w3.org/2000/svg">
<path d="M8.56668 3.29868V8.11243C8.5667 8.13002 8.56324 8.14745 8.55651 8.1637C8.54979 8.17996 8.53992 8.19473 8.52748 8.20717C8.51504 8.21961 8.50027 8.22947 8.48402 8.2362C8.46776 8.24293 8.45034 8.24638 8.43274 8.24637H3.61899C3.60114 8.24633 3.58346 8.24985 3.56698 8.25672C3.5505 8.2636 3.53556 8.27369 3.52302 8.28641C3.51049 8.29913 3.50062 8.31421 3.49399 8.33079C3.48735 8.34737 3.48409 8.3651 3.48439 8.38296C3.51108 9.37653 3.82842 10.3405 4.39715 11.1556C4.96588 11.9707 5.76106 12.6013 6.68436 12.9693C7.60765 13.3373 8.61856 13.4266 9.59207 13.2261C10.5656 13.0257 11.459 12.5443 12.1618 11.8415C12.8646 11.1387 13.346 10.2453 13.5465 9.27176C13.7469 8.29825 13.6576 7.28734 13.2896 6.36405C12.9216 5.44075 12.2911 4.64557 11.4759 4.07684C10.6608 3.5081 9.69684 3.19077 8.70327 3.16408C8.68542 3.16378 8.66768 3.16704 8.6511 3.17367C8.63453 3.18031 8.61944 3.19018 8.60672 3.20271C8.594 3.21524 8.58391 3.23019 8.57704 3.24666C8.57016 3.26314 8.56664 3.28083 8.56668 3.29868Z" fill="#4B4B4B"/>
<path d="M7.93038 2.66408C6.62965 2.69901 5.3918 3.23131 4.47171 4.1514C3.55162 5.07149 3.01932 6.30933 2.9844 7.61007C2.98408 7.62791 2.98733 7.64563 2.99396 7.6622C3.00058 7.67876 3.01045 7.69384 3.02297 7.70655C3.0355 7.71925 3.05044 7.72932 3.06691 7.73618C3.08338 7.74303 3.10106 7.74653 3.1189 7.74647H7.93246C7.95011 7.7465 7.96759 7.74305 7.98391 7.73632C8.00022 7.72958 8.01504 7.71969 8.02752 7.70721C8.04 7.69473 8.04989 7.67991 8.05663 7.66359C8.06337 7.64728 8.06682 7.6298 8.06678 7.61215V2.79859C8.06684 2.78075 8.06335 2.76307 8.05649 2.7466C8.04964 2.73013 8.03956 2.71519 8.02686 2.70266C8.01415 2.69013 7.99908 2.68027 7.98251 2.67364C7.96594 2.66702 7.94822 2.66377 7.93038 2.66408Z" fill="#4B4B4B"/>
</svg>
