<svg width="17" height="16" viewBox="0 0 17 16" fill="none" xmlns="http://www.w3.org/2000/svg">
<path d="M11.509 4.52489C11.2383 3.91803 10.7738 3.41818 10.1884 3.10371C9.66584 2.81532 9.07873 2.66406 8.48189 2.66406C7.88505 2.66406 7.29794 2.81532 6.7754 3.10371C6.19001 3.41818 5.72553 3.91803 5.4548 4.52489C4.62925 6.38251 5.4548 7.62083 5.86757 8.30878C6.24789 8.94269 7.44606 10.5196 8.27779 11.2978C8.33307 11.3497 8.40605 11.3786 8.48189 11.3786C8.55773 11.3786 8.63071 11.3497 8.68599 11.2978C9.51772 10.5196 10.7159 8.94269 11.0962 8.30878C11.509 7.62092 12.335 6.38251 11.509 4.52489ZM8.48189 7.17632C8.18299 7.17632 7.89081 7.08769 7.64228 6.92163C7.39375 6.75557 7.20005 6.51954 7.08567 6.2434C6.97128 5.96725 6.94136 5.66339 6.99967 5.37023C7.05798 5.07707 7.20191 4.80779 7.41327 4.59644C7.62462 4.38508 7.8939 4.24115 8.18706 4.18284C8.48022 4.12453 8.78408 4.15445 9.06023 4.26884C9.33637 4.38322 9.5724 4.57692 9.73846 4.82545C9.90452 5.07398 9.99315 5.36616 9.99315 5.66506C9.99317 5.86353 9.95408 6.06005 9.87814 6.24341C9.8022 6.42677 9.69088 6.59338 9.55054 6.73371C9.41021 6.87405 9.2436 6.98537 9.06024 7.06131C8.87688 7.13725 8.68036 7.17634 8.48189 7.17632Z" fill="#4B4B4B"/>
<path d="M8.48103 13.3326C9.7434 13.3326 10.7667 13.0116 10.7667 12.6155C10.7667 12.2195 9.7434 11.8984 8.48103 11.8984C7.21866 11.8984 6.19531 12.2195 6.19531 12.6155C6.19531 13.0116 7.21866 13.3326 8.48103 13.3326Z" fill="#4B4B4B"/>
</svg>
