<svg width="17" height="16" viewBox="0 0 17 16" fill="none" xmlns="http://www.w3.org/2000/svg">
<path d="M13.2496 3.86719H6.99677C6.46353 3.86719 6.03125 4.29946 6.03125 4.8327C6.03125 5.36595 6.46353 5.79822 6.99677 5.79822H13.2496C13.7829 5.79822 14.2152 5.36595 14.2152 4.8327C14.2152 4.29946 13.7829 3.86719 13.2496 3.86719Z" fill="#4B4B4B"/>
<path d="M4.51239 5.79822C5.04563 5.79822 5.47791 5.36595 5.47791 4.8327C5.47791 4.29946 5.04563 3.86719 4.51239 3.86719C3.97915 3.86719 3.54688 4.29946 3.54688 4.8327C3.54688 5.36595 3.97915 5.79822 4.51239 5.79822Z" fill="#4B4B4B"/>
<path d="M13.2496 6.99219H6.99677C6.46353 6.99219 6.03125 7.42446 6.03125 7.95771C6.03125 8.49095 6.46353 8.92322 6.99677 8.92322H13.2496C13.7829 8.92322 14.2152 8.49095 14.2152 7.95771C14.2152 7.42446 13.7829 6.99219 13.2496 6.99219Z" fill="#4B4B4B"/>
<path d="M4.51239 8.92322C5.04563 8.92322 5.47791 8.49095 5.47791 7.9577C5.47791 7.42446 5.04563 6.99219 4.51239 6.99219C3.97915 6.99219 3.54688 7.42446 3.54688 7.9577C3.54688 8.49095 3.97915 8.92322 4.51239 8.92322Z" fill="#4B4B4B"/>
<path d="M13.2496 10.2109H6.99677C6.46353 10.2109 6.03125 10.6432 6.03125 11.1765C6.03125 11.7097 6.46353 12.142 6.99677 12.142H13.2496C13.7829 12.142 14.2152 11.7097 14.2152 11.1765C14.2152 10.6432 13.7829 10.2109 13.2496 10.2109Z" fill="#4B4B4B"/>
<path d="M4.51239 12.142C5.04563 12.142 5.47791 11.7097 5.47791 11.1765C5.47791 10.6432 5.04563 10.2109 4.51239 10.2109C3.97915 10.2109 3.54688 10.6432 3.54688 11.1765C3.54688 11.7097 3.97915 12.142 4.51239 12.142Z" fill="#4B4B4B"/>
</svg>
