<svg width="17" height="16" viewBox="0 0 17 16" fill="none" xmlns="http://www.w3.org/2000/svg">
<path d="M7.33901 0H1.33451C1.01601 0 0.757812 0.260483 0.757812 0.581805V6.63943C0.757812 6.96076 1.01601 7.22124 1.33451 7.22124H7.33901C7.65751 7.22124 7.91571 6.96076 7.91571 6.63943V0.581805C7.91571 0.260483 7.65751 0 7.33901 0Z" fill="#4B4B4B"/>
<path d="M7.33901 8.78125H1.33451C1.01601 8.78125 0.757812 9.04173 0.757812 9.36306V15.4207C0.757812 15.742 1.01601 16.0025 1.33451 16.0025H7.33901C7.65751 16.0025 7.91571 15.742 7.91571 15.4207V9.36306C7.91571 9.04173 7.65751 8.78125 7.33901 8.78125Z" fill="#4B4B4B"/>
<path d="M16.1828 0H10.1783C9.85976 0 9.60156 0.260483 9.60156 0.581805V6.63943C9.60156 6.96076 9.85976 7.22124 10.1783 7.22124H16.1828C16.5013 7.22124 16.7595 6.96076 16.7595 6.63943V0.581805C16.7595 0.260483 16.5013 0 16.1828 0Z" fill="#4B4B4B"/>
<path d="M16.1828 8.78125H10.1783C9.85976 8.78125 9.60156 9.04173 9.60156 9.36306V15.4207C9.60156 15.742 9.85976 16.0025 10.1783 16.0025H16.1828C16.5013 16.0025 16.7595 15.742 16.7595 15.4207V9.36306C16.7595 9.04173 16.5013 8.78125 16.1828 8.78125Z" fill="#4B4B4B"/>
</svg>
