<svg width="15" height="15" viewBox="0 0 15 15" fill="none" xmlns="http://www.w3.org/2000/svg">
<path d="M12.7112 9.22315C12.6143 9.08004 12.4206 9.04066 12.2775 9.13816L11.3637 9.7519C11.2206 9.84814 11.1825 10.0425 11.2787 10.1856C11.3394 10.275 11.4381 10.3238 11.5387 10.3238C11.5981 10.3238 11.6587 10.3069 11.7125 10.2707L12.6262 9.65692C12.7693 9.56065 12.8074 9.3663 12.7112 9.22315Z" fill="#4B4B4B"/>
<path d="M11.8435 9.80277C11.5491 9.18903 10.496 8.33714 9.47849 7.51401C8.91098 7.05525 8.37473 6.62152 8.03287 6.27965C7.94723 6.1934 7.81912 6.16589 7.706 6.20653C7.49539 6.28279 7.36537 6.34153 7.26289 6.38714C7.10665 6.45713 7.05415 6.48089 6.84351 6.50213C6.75037 6.51151 6.66664 6.56152 6.61476 6.63901C6.17287 7.29962 5.71537 7.24337 5.40975 7.14089C5.31225 7.1084 5.29476 7.0665 5.28538 7.02651C5.21976 6.75215 5.54914 6.11339 5.976 5.68651C6.99163 4.67026 7.51537 4.41588 8.62162 4.91026C9.87661 5.4715 11.1341 5.91089 11.1466 5.91526C11.311 5.97212 11.4879 5.88587 11.5447 5.72275C11.601 5.55962 11.5154 5.3815 11.3522 5.32463C11.3397 5.32027 10.1072 4.88963 8.87723 4.339C7.44412 3.69837 6.65785 4.12024 5.53473 5.24401C5.10723 5.67151 4.5266 6.5365 4.6766 7.17089C4.74096 7.44089 4.93098 7.6409 5.21346 7.734C5.92159 7.96776 6.56782 7.74399 7.04908 7.10526C7.24783 7.07465 7.35597 7.02965 7.51845 6.95652C7.57719 6.93027 7.64595 6.89966 7.73721 6.86277C8.09471 7.1984 8.5772 7.58901 9.08533 7.99964C10.0041 8.74275 11.046 9.58527 11.2803 10.0728C11.396 10.3134 11.2716 10.4703 11.1872 10.5421C11.0634 10.6484 10.8941 10.6821 10.8022 10.6177C10.701 10.5484 10.5691 10.544 10.4647 10.6065C10.3597 10.669 10.301 10.7871 10.3141 10.9084C10.3353 11.1071 10.1535 11.2209 10.0747 11.2603C9.8747 11.3615 9.66596 11.344 9.58783 11.2715C9.50032 11.1903 9.37469 11.1665 9.26345 11.2078C9.15221 11.2496 9.07469 11.3521 9.06344 11.4709C9.04469 11.6759 8.89282 11.8727 8.69468 11.9496C8.59906 11.9858 8.46031 12.0077 8.33594 11.894C8.25845 11.824 8.15094 11.7971 8.05033 11.8215C7.94846 11.8465 7.86658 11.9202 7.83096 12.0183C7.81909 12.0496 7.7922 12.1246 7.4997 12.1246C7.29157 12.1246 6.91719 11.984 6.73408 11.8627C6.51471 11.7183 5.13908 10.6921 3.95097 9.69709C3.7841 9.55647 3.49535 9.25521 3.24035 8.98896C3.01409 8.75271 2.80723 8.53835 2.70097 8.44835C2.56784 8.33585 2.37097 8.35272 2.26034 8.48523C2.1491 8.6171 2.16533 8.81462 2.29723 8.92586C2.39411 9.00774 2.58161 9.20584 2.78848 9.42147C3.06724 9.71271 3.35534 10.014 3.54911 10.1765C4.71287 11.1509 6.11161 12.2027 6.39034 12.3858C6.62035 12.5371 7.11597 12.7496 7.49973 12.7496C7.80784 12.7496 8.04473 12.679 8.20909 12.5408C8.42908 12.6265 8.6791 12.6271 8.91971 12.5333C9.2041 12.4233 9.43783 12.2015 9.57034 11.9327C9.81658 11.9852 10.0985 11.9483 10.3547 11.8196C10.6053 11.6934 10.7866 11.5003 10.8766 11.2746C11.1253 11.2877 11.3816 11.1996 11.5934 11.0177C11.9522 10.7109 12.051 10.2334 11.8435 9.80277Z" fill="#4B4B4B"/>
<path d="M6.25 4.625H3.43751C3.26501 4.625 3.125 4.76501 3.125 4.93751C3.125 5.11001 3.26501 5.25002 3.43751 5.25002H6.25C6.4225 5.25002 6.56251 5.11001 6.56251 4.93751C6.56251 4.76501 6.4225 4.625 6.25 4.625Z" fill="#4B4B4B"/>
<path d="M10.8199 10.6293C10.5961 10.453 9.59551 9.42865 8.97676 8.78365C8.85738 8.65864 8.65927 8.65428 8.53488 8.77427C8.40987 8.89366 8.40612 9.09176 8.5255 9.21616C8.68614 9.38365 10.103 10.8605 10.4324 11.1205C10.4892 11.1655 10.558 11.1874 10.6255 11.1874C10.7174 11.1874 10.8092 11.1462 10.8717 11.068C10.9786 10.933 10.9555 10.7361 10.8199 10.6293Z" fill="#4B4B4B"/>
<path d="M9.57046 11.256C9.19608 10.9567 8.25547 9.95729 8.04296 9.72605C7.92545 9.59855 7.72857 9.59105 7.60107 9.7073C7.47419 9.82416 7.46546 10.0223 7.58232 10.1492C7.59357 10.161 8.71608 11.3729 9.17982 11.7442C9.23733 11.7898 9.3067 11.8123 9.37482 11.8123C9.46608 11.8123 9.55731 11.7717 9.61918 11.6954C9.72673 11.5604 9.70485 11.3635 9.57046 11.256Z" fill="#4B4B4B"/>
<path d="M8.32659 11.8852C7.88095 11.5096 6.96909 10.539 6.79096 10.3483C6.67284 10.2221 6.4747 10.2152 6.34908 10.3333C6.22284 10.4515 6.21657 10.649 6.33408 10.7752C6.59034 11.0496 7.46283 11.9746 7.92346 12.3633C7.9822 12.4127 8.05345 12.4371 8.1247 12.4371C8.21344 12.4371 8.30221 12.399 8.36409 12.3258C8.47533 12.1933 8.45845 11.9965 8.32659 11.8852Z" fill="#4B4B4B"/>
<path d="M3.65249 4.08543C3.11686 3.57792 0.974998 3.41354 0.331259 3.37542C0.242519 3.37106 0.160634 3.40042 0.0981443 3.4598C0.0356249 3.51854 0 3.60104 0 3.68729V9.31228C0 9.48478 0.140009 9.62478 0.312509 9.62478H2.1875C2.3225 9.62478 2.4425 9.53792 2.48437 9.40916C2.52998 9.26915 3.60688 5.96418 3.74873 4.33917C3.75688 4.24416 3.72187 4.15041 3.65249 4.08543ZM1.95937 8.9998H0.624989V4.0223C1.62937 4.10166 2.71312 4.27416 3.10687 4.46541C2.94125 5.83416 2.19187 8.26603 1.95937 8.9998Z" fill="#4B4B4B"/>
<path d="M14.6871 4C12.2333 4 10.8721 4.62812 10.8152 4.65437C10.734 4.69249 10.6733 4.76312 10.6484 4.84876C10.6234 4.93439 10.6358 5.02627 10.6827 5.1025C11.069 5.72438 12.2783 9.17812 12.5108 10.0206C12.5483 10.1562 12.6715 10.25 12.8121 10.25H14.6871C14.8596 10.25 14.9996 10.11 14.9996 9.93747V4.31248C14.9996 4.13936 14.8596 4 14.6871 4ZM14.3746 9.62499H13.0459C12.7496 8.65998 11.8746 6.14373 11.3865 5.10376C11.8634 4.94189 12.8877 4.66375 14.3746 4.62877V9.62499Z" fill="#4B4B4B"/>
</svg>
