<svg width="15" height="15" viewBox="0 0 15 15" fill="none" xmlns="http://www.w3.org/2000/svg">
<path d="M11.3441 5.22403L10.71 4.57135C10.697 4.55755 10.6814 4.5466 10.664 4.5392C10.6466 4.5318 10.6278 4.52812 10.6089 4.52838C10.59 4.52782 10.5711 4.53137 10.5537 4.53879C10.5362 4.5462 10.5206 4.55731 10.5079 4.57135L6.10869 9.00306L4.50951 7.40272C4.49649 7.38901 4.48082 7.3781 4.46345 7.37064C4.44608 7.36319 4.42738 7.35934 4.40847 7.35934C4.38957 7.35934 4.37086 7.36319 4.35349 7.37064C4.33613 7.3781 4.32045 7.38901 4.30744 7.40272L3.66521 8.04494C3.65155 8.05835 3.6407 8.07434 3.63329 8.09199C3.62589 8.10964 3.62207 8.12859 3.62207 8.14772C3.62207 8.16686 3.62589 8.18581 3.63329 8.20346C3.6407 8.2211 3.65155 8.2371 3.66521 8.2505L5.6848 10.2701C5.79417 10.3896 5.94486 10.4631 6.10637 10.4756C6.26492 10.4613 6.41316 10.3909 6.52445 10.2771L11.3452 5.43075C11.3706 5.40224 11.3845 5.36534 11.3843 5.32716C11.3841 5.28899 11.3698 5.25225 11.3441 5.22403Z" fill="#4B4B4B"/>
<path d="M7.5 1.00921C9.00072 1.01007 10.4547 1.53121 11.6143 2.48384C12.7739 3.43647 13.5674 4.76167 13.8595 6.23368C14.1516 7.70569 13.9244 9.23345 13.2164 10.5567C12.5085 11.88 11.3637 12.9169 9.97707 13.4907C8.59042 14.0646 7.04768 14.14 5.61169 13.704C4.17569 13.2681 2.93526 12.3477 2.1017 11.0998C1.26815 9.85185 0.893043 8.35352 1.04028 6.86004C1.18752 5.36656 1.84799 3.97032 2.90919 2.90918C3.51068 2.30456 4.22617 1.8253 5.0142 1.49916C5.80224 1.17303 6.64715 1.00649 7.5 1.00921ZM7.5 8.99517e-08C6.01664 8.99517e-08 4.56659 0.439867 3.33323 1.26398C2.09986 2.08809 1.13856 3.25943 0.570907 4.62987C0.00324955 6.00032 -0.145275 7.50832 0.144114 8.96318C0.433503 10.418 1.14781 11.7544 2.1967 12.8033C3.2456 13.8522 4.58197 14.5665 6.03682 14.8559C7.49168 15.1453 8.99968 14.9967 10.3701 14.4291C11.7406 13.8614 12.9119 12.9001 13.736 11.6668C14.5601 10.4334 15 8.98336 15 7.5C15.0002 6.51504 14.8063 5.5397 14.4294 4.62969C14.0526 3.71968 13.5001 2.89283 12.8036 2.19636C12.1072 1.49989 11.2803 0.947449 10.3703 0.570593C9.4603 0.193737 8.48496 -0.000152463 7.5 8.99517e-08Z" fill="#4B4B4B"/>
</svg>
