<svg width="15" height="15" viewBox="0 0 15 15" fill="none" xmlns="http://www.w3.org/2000/svg">
<path d="M0.000873992 14.5544L0.0732881 13.4508L0.176823 11.8713L0.180032 11.8745L9.43713 2.6172L12.3826 5.56288L3.12555 14.8201L3.12863 14.8232L1.549 14.9268L0.445409 14.9991C0.435985 14.9998 0.426635 15.0001 0.417376 15C0.360234 14.9998 0.303743 14.988 0.251356 14.9652C0.19897 14.9423 0.151788 14.909 0.112765 14.8673C0.0737413 14.8256 0.0437045 14.7763 0.024457 14.7224C0.00520952 14.6686 -0.00281715 14.6115 0.000873992 14.5544ZM10.4395 1.615L11.9319 0.12264C11.9708 0.0837591 12.0169 0.0529068 12.0677 0.0318635C12.1185 0.0108201 12.1729 0 12.2279 0C12.2829 0 12.3373 0.0108201 12.3881 0.0318635C12.4389 0.0529068 12.485 0.0837591 12.5239 0.12264L14.8774 2.47633C14.9163 2.51517 14.9471 2.5613 14.9682 2.61206C14.9892 2.66283 15 2.71725 15 2.7722C15 2.82715 14.9892 2.88157 14.9682 2.93233C14.9471 2.9831 14.9163 3.02923 14.8774 3.06807L13.3849 4.56057L10.4395 1.615Z" fill="#4B4B4B"/>
</svg>
