<svg width="15" height="15" viewBox="0 0 15 15" fill="none" xmlns="http://www.w3.org/2000/svg">
<path d="M8.43543 4.94676C8.19512 4.99863 7.97558 5.12228 7.80499 5.30183C7.6344 5.48139 7.52054 5.70865 7.47804 5.95444C7.46562 6.03676 7.46243 6.12025 7.46856 6.20329C7.46669 6.32992 7.48877 6.45575 7.5336 6.57393L7.55594 6.63449L6.39145 7.89509C5.13515 9.25483 5.19999 9.17977 5.16791 9.32208C5.14864 9.41894 5.15719 9.51939 5.1925 9.61148C5.22781 9.70357 5.2884 9.78343 5.36709 9.84155C5.44578 9.89968 5.53922 9.93363 5.63634 9.93936C5.73346 9.9451 5.83016 9.92238 5.91491 9.8739C5.96499 9.84615 6.13138 9.67037 7.13326 8.58832L8.29393 7.33572L8.35771 7.35391C8.48054 7.3886 8.60818 7.40242 8.73543 7.39481C8.86616 7.39374 8.99557 7.36809 9.11711 7.31918C9.30798 7.24687 9.4779 7.12701 9.61126 6.97059C9.74463 6.81417 9.83717 6.62622 9.88038 6.42399C9.89292 6.36433 9.90211 6.30401 9.90794 6.2433L9.9113 6.17029L9.79223 6.05742L9.67234 5.94459L9.39662 6.2437L9.12087 6.54281L8.65121 6.55839L8.47492 6.3911L8.2995 6.22501L8.28376 5.73965L8.55758 5.44393L8.83139 5.14819L8.71528 5.03814C8.60038 4.92804 8.59831 4.92728 8.55516 4.92954C8.5149 4.93251 8.4749 4.93825 8.43543 4.94676ZM5.74896 9.19469C5.79226 9.21306 5.82977 9.24315 5.8574 9.28167C5.88504 9.32019 5.90173 9.36568 5.90567 9.41318C5.90804 9.44458 5.90406 9.47612 5.89394 9.50589C5.88383 9.53565 5.86781 9.56298 5.84687 9.5862C5.81938 9.61946 5.78369 9.64472 5.74344 9.65939C5.7032 9.67406 5.65984 9.67762 5.61779 9.66971C5.57575 9.6618 5.53651 9.64269 5.5041 9.61435C5.47169 9.58601 5.44727 9.54944 5.43331 9.50838C5.41349 9.4615 5.41178 9.40876 5.42852 9.36066C5.44183 9.30978 5.47138 9.26484 5.51256 9.23289C5.55374 9.20094 5.6042 9.18378 5.65603 9.18411C5.68735 9.18265 5.71873 9.18622 5.74896 9.19469Z" fill="#4B4B4B"/>
<path d="M3.25702 7.70683L4.52279 7.65841C4.84099 7.64623 4.9817 7.24265 4.74688 7.02303L2.69717 5.04407C2.55024 4.90221 2.33103 4.91059 2.19511 5.06327L0.299036 7.19319C0.0883611 7.42984 0.258797 7.82153 0.577005 7.80935L1.84277 7.76093C1.96446 11.0156 4.59454 13.5549 7.72006 13.4354C8.45547 13.4072 9.15709 13.2329 9.79039 12.9359C10.2567 12.7189 10.3603 12.0808 9.98567 11.719C9.78731 11.5275 9.49436 11.4576 9.24392 11.5778C8.76398 11.81 8.22362 11.9413 7.66499 11.9627C5.32439 12.0522 3.34816 10.1442 3.25702 7.70683ZM5.01394 3.37C5.21229 3.56152 5.51232 3.63116 5.75568 3.51123C6.24296 3.28612 6.77598 3.14774 7.33461 3.12637C9.67521 3.03683 11.6514 4.94486 11.7426 7.38221L10.4768 7.43063C10.1586 7.4428 10.0179 7.84639 10.2527 8.066L12.3024 10.045C12.4494 10.1868 12.6686 10.1784 12.8045 10.0258L14.7006 7.89585C14.9112 7.65919 14.7408 7.26751 14.4297 7.27941L13.1568 7.32811C13.0351 4.0734 10.4051 1.53409 7.27955 1.65365C6.54413 1.68179 5.84251 1.85611 5.20921 2.15318C4.74286 2.37012 4.63926 3.00826 5.01394 3.37Z" fill="#4B4B4B"/>
</svg>
