<svg width="13" height="13" viewBox="0 0 13 13" fill="none" xmlns="http://www.w3.org/2000/svg">
	<path d="M11.1247 1.18182H10.5247V0.590909C10.5247 0.265909 10.2547 0 9.92471 0C9.59471 0 9.32471 0.265909 9.32471 0.590909V1.18182H3.32471V0.590909C3.32471 0.265909 3.05471 0 2.72471 0C2.39471 0 2.12471 0.265909 2.12471 0.590909V1.18182H1.52471C0.864707 1.18182 0.324707 1.71364 0.324707 2.36364V11.8182C0.324707 12.4682 0.864707 13 1.52471 13H11.1247C11.7847 13 12.3247 12.4682 12.3247 11.8182V2.36364C12.3247 1.71364 11.7847 1.18182 11.1247 1.18182ZM10.5247 11.8182H2.12471C1.79471 11.8182 1.52471 11.5523 1.52471 11.2273V4.13636H11.1247V11.2273C11.1247 11.5523 10.8547 11.8182 10.5247 11.8182Z" fill="white" />
</svg>
