<svg width="15" height="15" viewBox="0 0 15 15" fill="none" xmlns="http://www.w3.org/2000/svg">
<path d="M10.704 5.58585L10.1122 4.97668C10.1001 4.9638 10.0855 4.95359 10.0693 4.94668C10.053 4.93977 10.0355 4.93633 10.0179 4.93658C10.0002 4.93606 9.98262 4.93937 9.96634 4.94629C9.95006 4.95322 9.93547 4.96358 9.92358 4.97668L5.81767 9.11295L4.3251 7.61929C4.31295 7.6065 4.29833 7.59632 4.28211 7.58936C4.2659 7.5824 4.24844 7.57881 4.2308 7.57881C4.21316 7.57881 4.1957 7.5824 4.17949 7.58936C4.16328 7.59632 4.14865 7.6065 4.1365 7.61929L3.53709 8.21871C3.52434 8.23122 3.51421 8.24615 3.5073 8.26262C3.50039 8.27909 3.49683 8.29677 3.49683 8.31463C3.49683 8.3325 3.50039 8.35018 3.5073 8.36665C3.51421 8.38312 3.52434 8.39805 3.53709 8.41056L5.42204 10.2955C5.52412 10.407 5.66476 10.4756 5.8155 10.4874C5.96349 10.474 6.10185 10.4083 6.20572 10.302L10.7051 5.77879C10.7288 5.75218 10.7418 5.71774 10.7416 5.68211C10.7414 5.64648 10.728 5.61219 10.704 5.58585Z" fill="#32B51A"/>
<path d="M7.11621 1.65238C8.51688 1.65318 9.87395 2.13958 10.9562 3.0287C12.0385 3.91782 12.7791 5.15467 13.0517 6.52855C13.3244 7.90243 13.1123 9.32834 12.4516 10.5634C11.7908 11.7984 10.7224 12.7662 9.42814 13.3018C8.13393 13.8374 6.69405 13.9078 5.35378 13.5009C4.01352 13.094 2.85578 12.235 2.0778 11.0703C1.29982 9.90551 0.949718 8.50707 1.08714 7.11315C1.22456 5.71924 1.841 4.41608 2.83145 3.42569C3.39285 2.86137 4.06064 2.41406 4.79613 2.10967C5.53163 1.80527 6.32022 1.64984 7.11621 1.65238ZM7.11621 0.710449C5.73174 0.710449 4.37837 1.12099 3.22722 1.89016C2.07608 2.65933 1.17887 3.75258 0.649057 5.03166C0.119244 6.31075 -0.0193794 7.71821 0.250717 9.07608C0.520814 10.4339 1.1875 11.6812 2.16647 12.6602C3.14543 13.6392 4.39271 14.3058 5.75058 14.5759C7.10845 14.846 8.51591 14.7074 9.795 14.1776C11.0741 13.6478 12.1673 12.7506 12.9365 11.5994C13.7057 10.4483 14.1162 9.09492 14.1162 7.71045C14.1164 6.79115 13.9354 5.88084 13.5837 5.0315C13.2319 4.18215 12.7163 3.41042 12.0663 2.76038C11.4162 2.11035 10.6445 1.59473 9.79517 1.243C8.94582 0.89127 8.03551 0.710307 7.11621 0.710449Z" fill="#32B51A"/>
</svg>
