<svg width="17" height="15" viewBox="0 0 17 15" fill="none" xmlns="http://www.w3.org/2000/svg">
<path d="M7.26697 1.66319L1.3047 11.6324C1.1818 11.8456 1.11682 12.0873 1.11622 12.3334C1.11561 12.5796 1.17941 12.8216 1.30127 13.0354C1.42312 13.2492 1.59879 13.4274 1.81081 13.5522C2.02283 13.677 2.2638 13.7441 2.50978 13.7468H14.443C14.6889 13.7441 14.9299 13.677 15.1419 13.5522C15.3539 13.4274 15.5296 13.2492 15.6515 13.0354C15.7733 12.8216 15.8371 12.5796 15.8365 12.3334C15.8359 12.0873 15.7709 11.8456 15.648 11.6324L9.68206 1.66319C9.55647 1.45591 9.3796 1.28452 9.16851 1.16557C8.95742 1.04662 8.71925 0.984131 8.47699 0.984131C8.23473 0.984131 7.99656 1.04662 7.78547 1.16557C7.57438 1.28452 7.39751 1.45591 7.27192 1.66319H7.26697Z" stroke="#DB3B21" stroke-linecap="round" stroke-linejoin="round"/>
<path d="M8.47705 5.28662V8.10668" stroke="#DB3B21" stroke-linecap="round" stroke-linejoin="round"/>
<rect x="7.87695" y="9.36572" width="1.23724" height="1.23795" rx="0.61862" fill="#E34537"/>
</svg>
