<svg width="23" height="23" viewBox="0 0 23 23" fill="none" xmlns="http://www.w3.org/2000/svg">
<circle cx="11.5" cy="11.5" r="11.5" fill="#3585E5"/>
<path d="M12.8318 10.7781H10.7534C10.596 10.7781 10.4449 10.7137 10.3336 10.5992C10.2222 10.4846 10.1597 10.3291 10.1597 10.1671C10.1597 10.005 10.2222 9.84956 10.3336 9.73496C10.4449 9.62036 10.596 9.55598 10.7534 9.55598H12.8316L12.8318 10.7781ZM13.1287 8.63936V15.3612C13.1287 15.4422 13.16 15.52 13.2157 15.5773C13.2714 15.6346 13.3469 15.6667 13.4256 15.6667H14.0194C14.0981 15.6667 14.1736 15.6346 14.2293 15.5773C14.285 15.52 14.3163 15.4422 14.3163 15.3612V15.0557H14.9098C15.5942 15.0556 16.2575 14.8123 16.7877 14.3669C17.3178 13.9215 17.6822 13.3014 17.8193 12.6114H19.66V11.3892H17.8195C17.6825 10.6991 17.3181 10.0789 16.7879 9.63344C16.2577 9.18801 15.5943 8.9447 14.9098 8.94468H14.3161V8.63914C14.316 8.55818 14.2847 8.48056 14.2291 8.42331C14.1735 8.36607 14.0981 8.33388 14.0194 8.33382H13.4256C13.347 8.33382 13.2715 8.36595 13.2158 8.42315C13.1602 8.48036 13.1288 8.55796 13.1287 8.63892V8.63936ZM12.8318 13.2224H10.7534C10.596 13.2224 10.4449 13.2868 10.3336 13.4014C10.2222 13.516 10.1597 13.6714 10.1597 13.8335C10.1597 13.9956 10.2222 14.151 10.3336 14.2656C10.4449 14.3802 10.596 14.4446 10.7534 14.4446H12.8316L12.8318 13.2224Z" fill="white"/>
<path d="M8.85596 15.3611V8.63879C8.85596 8.55776 8.82468 8.48004 8.769 8.42274C8.71332 8.36544 8.63781 8.33325 8.55907 8.33325H7.9653C7.88656 8.33325 7.81105 8.36544 7.75537 8.42274C7.6997 8.48004 7.66842 8.55776 7.66842 8.63879V8.94433H7.07465C6.39029 8.94439 5.72695 9.18769 5.19681 9.63308C4.66666 10.0785 4.30224 10.6986 4.16517 11.3886H2.32427V12.6108H4.16496C4.30203 13.3008 4.66645 13.921 5.19659 14.3664C5.72674 14.8117 6.39007 15.055 7.07443 15.0551H7.66842V15.3606C7.66842 15.4417 7.6997 15.5194 7.75537 15.5767C7.81105 15.634 7.88656 15.6662 7.9653 15.6662H8.55907C8.63774 15.6662 8.71318 15.634 8.76885 15.5768C8.82451 15.5196 8.85584 15.442 8.85596 15.3611V15.3611Z" fill="white"/>
</svg>
