<svg width="19" height="19" viewBox="0 0 19 19" fill="none" xmlns="http://www.w3.org/2000/svg">
<path d="M19 9.5C19 14.7467 14.7467 19 9.5 19C4.25329 19 0 14.7467 0 9.5C0 4.25329 4.25329 0 9.5 0C14.7467 0 19 4.25329 19 9.5Z" fill="#3491FF"/>
<path d="M10.6917 8.43071H8.83205C8.69115 8.43071 8.55602 8.37438 8.45639 8.2741C8.35675 8.17383 8.30078 8.03783 8.30078 7.89602C8.30078 7.75421 8.35675 7.61821 8.45639 7.51793C8.55602 7.41766 8.69115 7.36133 8.83205 7.36133H10.6915L10.6917 8.43071ZM10.9573 6.55929V12.4409C10.9573 12.5118 10.9853 12.5798 11.0351 12.6299C11.0849 12.6801 11.1525 12.7083 11.2229 12.7083H11.7542C11.8247 12.7083 11.8922 12.6801 11.942 12.6299C11.9919 12.5798 12.0199 12.5118 12.0199 12.4409V12.1736H12.5509C13.1632 12.1735 13.7568 11.9606 14.2311 11.5709C14.7054 11.1812 15.0315 10.6386 15.1541 10.0348H16.8011V8.9654H15.1543C15.0317 8.36156 14.7057 7.81886 14.2313 7.42911C13.7569 7.03935 13.1633 6.82646 12.5509 6.82644H12.0197V6.55909C12.0196 6.48826 11.9916 6.42034 11.9419 6.37025C11.8921 6.32016 11.8246 6.29199 11.7542 6.29194H11.2229C11.1526 6.29194 11.0851 6.32005 11.0353 6.37011C10.9854 6.42016 10.9574 6.48806 10.9573 6.5589V6.55929ZM10.6917 10.5695H8.83205C8.69115 10.5695 8.55602 10.6258 8.45639 10.7261C8.35675 10.8264 8.30078 10.9624 8.30078 11.1042C8.30078 11.246 8.35675 11.382 8.45639 11.4823C8.55602 11.5825 8.69115 11.6389 8.83205 11.6389H10.6915L10.6917 10.5695Z" fill="white"/>
<path d="M7.13428 12.4411V6.55909C7.13428 6.48819 7.10629 6.42019 7.05647 6.37005C7.00666 6.31991 6.93909 6.29175 6.86864 6.29175H6.33738C6.26692 6.29175 6.19936 6.31991 6.14954 6.37005C6.09973 6.42019 6.07174 6.48819 6.07174 6.55909V6.82644H5.54047C4.92815 6.8265 4.33464 7.03938 3.8603 7.42909C3.38596 7.81881 3.0599 8.36143 2.93726 8.96521H1.29014V10.0346H2.93707C3.05971 10.6384 3.38577 11.181 3.86011 11.5707C4.33445 11.9604 4.92796 12.1733 5.54028 12.1734H6.07174V12.4407C6.07174 12.5116 6.09973 12.5796 6.14954 12.6298C6.19936 12.6799 6.26692 12.7081 6.33738 12.7081H6.86864C6.93903 12.7081 7.00653 12.6799 7.05634 12.6299C7.10614 12.5798 7.13417 12.5119 7.13428 12.4411V12.4411Z" fill="white"/>
</svg>
