<svg width="52" height="17" viewBox="0 0 52 17" fill="none" xmlns="http://www.w3.org/2000/svg">
<path d="M35.5559 5.78156H30.7999C30.4395 5.78156 30.0938 5.63838 29.839 5.38352C29.5841 5.12866 29.4409 4.78299 29.4409 4.42256C29.4409 4.06213 29.5841 3.71647 29.839 3.46161C30.0938 3.20674 30.4395 3.06356 30.7999 3.06356H35.5559V5.78156ZM36.2349 1.02556V15.9746C36.2349 16.0638 36.2525 16.1522 36.2867 16.2346C36.3209 16.3171 36.371 16.392 36.4341 16.455C36.4973 16.5181 36.5723 16.5681 36.6548 16.6022C36.7373 16.6362 36.8257 16.6537 36.9149 16.6536H38.2739C38.454 16.6536 38.6267 16.582 38.754 16.4547C38.8814 16.3274 38.9529 16.1546 38.9529 15.9746V15.2956H40.3119C41.8781 15.2949 43.3961 14.7537 44.6093 13.7632C45.8226 12.7728 46.6568 11.3939 46.9709 9.85956H51.1839V7.14056H46.9719C46.6578 5.60621 45.8236 4.22733 44.6103 3.2369C43.3971 2.24647 41.8791 1.70521 40.3129 1.70456H38.9539V1.02556C38.9539 0.845481 38.8824 0.672776 38.755 0.545439C38.6277 0.418102 38.455 0.346565 38.2749 0.346565H36.9149C36.7348 0.346565 36.5621 0.418102 36.4348 0.545439C36.3075 0.672776 36.2359 0.845481 36.2359 1.02556H36.2349ZM35.5559 11.2176H30.7999C30.4395 11.2176 30.0938 11.3607 29.839 11.6156C29.5841 11.8705 29.4409 12.2161 29.4409 12.5766C29.4409 12.937 29.5841 13.2827 29.839 13.5375C30.0938 13.7924 30.4395 13.9356 30.7999 13.9356H35.5559V11.2176Z" fill="#707070"/>
<path d="M14.9492 15.9747L14.9492 1.02568C14.9492 0.845598 14.8777 0.672891 14.7503 0.545554C14.623 0.418217 14.4503 0.34668 14.2702 0.34668L12.9112 0.34668C12.7311 0.34668 12.5584 0.418217 12.4311 0.545554C12.3038 0.672891 12.2322 0.845598 12.2322 1.02568V1.70468H10.8722C9.30603 1.70532 7.78807 2.24658 6.57481 3.23701C5.36156 4.22744 4.52738 5.60632 4.21322 7.14068H0.000218391V9.85968L4.21322 9.85968C4.52738 11.394 5.36156 12.7729 6.57481 13.7633C7.78807 14.7538 9.30603 15.295 10.8722 15.2957H12.2312V15.9747C12.2312 16.1548 12.3028 16.3275 12.4301 16.4548C12.5574 16.5821 12.7301 16.6537 12.9102 16.6537H14.2702C14.4503 16.6537 14.623 16.5821 14.7503 16.4548C14.8777 16.3275 14.9492 16.1548 14.9492 15.9747V15.9747Z" fill="#707070"/>
</svg>
