<svg width="32" height="17" viewBox="0 0 32 17" fill="none" xmlns="http://www.w3.org/2000/svg">
<path d="M15.4148 5.78156H10.6588C10.2984 5.78156 9.95271 5.63838 9.69785 5.38352C9.44298 5.12866 9.2998 4.78299 9.2998 4.42256C9.2998 4.06213 9.44298 3.71647 9.69785 3.46161C9.95271 3.20674 10.2984 3.06356 10.6588 3.06356H15.4148V5.78156ZM16.0938 1.02556V15.9746C16.0938 16.0638 16.1114 16.1522 16.1456 16.2346C16.1798 16.3171 16.2299 16.392 16.293 16.455C16.3562 16.5181 16.4312 16.5681 16.5137 16.6022C16.5962 16.6362 16.6846 16.6537 16.7738 16.6536H18.1328C18.3129 16.6536 18.4856 16.582 18.6129 16.4547C18.7403 16.3274 18.8118 16.1546 18.8118 15.9746V15.2956H20.1708C21.737 15.2949 23.255 14.7537 24.4682 13.7632C25.6815 12.7728 26.5156 11.3939 26.8298 9.85956H31.0428V7.14056H26.8308C26.5166 5.60621 25.6825 4.22733 24.4692 3.2369C23.2559 2.24647 21.738 1.70521 20.1718 1.70456H18.8128V1.02556C18.8128 0.845481 18.7413 0.672776 18.6139 0.545439C18.4866 0.418102 18.3139 0.346565 18.1338 0.346565H16.7738C16.5937 0.346565 16.421 0.418102 16.2937 0.545439C16.1663 0.672776 16.0948 0.845481 16.0948 1.02556H16.0938ZM15.4148 11.2176H10.6588C10.2984 11.2176 9.95271 11.3607 9.69785 11.6156C9.44298 11.8705 9.2998 12.2161 9.2998 12.5766C9.2998 12.937 9.44298 13.2827 9.69785 13.5375C9.95271 13.7924 10.2984 13.9356 10.6588 13.9356H15.4148V11.2176Z" fill="#0075FF"/>
<path d="M15.4492 15.9744L15.4492 1.02544C15.4492 0.845354 15.3777 0.672647 15.2503 0.54531C15.123 0.417973 14.9503 0.346436 14.7702 0.346436L13.4112 0.346436C13.2311 0.346436 13.0584 0.417973 12.9311 0.54531C12.8038 0.672647 12.7322 0.845354 12.7322 1.02544V1.70444H11.3722C9.80603 1.70508 8.28807 2.24634 7.07481 3.23677C5.86156 4.2272 5.02738 5.60608 4.71322 7.14044H0.500218V9.85944L4.71322 9.85944C5.02738 11.3938 5.86156 12.7727 7.07481 13.7631C8.28807 14.7535 9.80603 15.2948 11.3722 15.2954H12.7312V15.9744C12.7312 16.1545 12.8028 16.3272 12.9301 16.4546C13.0574 16.5819 13.2301 16.6534 13.4102 16.6534H14.7702C14.9503 16.6534 15.123 16.5819 15.2503 16.4546C15.3777 16.3272 15.4492 16.1545 15.4492 15.9744V15.9744Z" fill="#0075FF"/>
</svg>
