<svg width="16" height="14" viewBox="0 0 16 14" fill="none" xmlns="http://www.w3.org/2000/svg">
<path d="M13.1602 7.25357V11.8949C13.1602 12.0703 13.1256 12.244 13.0582 12.4059C12.9909 12.5679 12.8922 12.715 12.7679 12.8387C12.6436 12.9624 12.496 13.0604 12.3337 13.1269C12.1714 13.1934 11.9975 13.2272 11.8221 13.2263H2.45429C2.27888 13.2272 2.10503 13.1934 1.94273 13.1269C1.78043 13.0604 1.63286 12.9624 1.50852 12.8387C1.38419 12.715 1.28552 12.5679 1.21819 12.4059C1.15087 12.244 1.11621 12.0703 1.11621 11.8949V2.61757C1.11621 2.44216 1.15087 2.26848 1.21819 2.10651C1.28552 1.94454 1.38419 1.79747 1.50852 1.67375C1.63286 1.55003 1.78043 1.4521 1.94273 1.38558C2.10503 1.31906 2.27888 1.28527 2.45429 1.28615H9.81437" stroke="#9521AA" stroke-linecap="round" stroke-linejoin="round"/>
<path d="M13.8741 0.226318L12.998 1.10239L14.7502 2.85587L15.6262 1.9798L13.8741 0.226318ZM12.1206 1.9798L8.61499 5.48542V7.2389H10.3685L13.8741 3.73194L12.1206 1.9798Z" fill="#9521AA"/>
</svg>
