<svg xmlns="http://www.w3.org/2000/svg" width="23.426" height="8.63" viewBox="0 0 23.426 8.63">
    <g id="Group_3497" data-name="Group 3497" transform="translate(-109.574 -351.685)">
        <path id="Exclusion_5" data-name="Exclusion 5" d="M-2138.741-3624.273a.211.211,0,0,1-.17-.085l-.713-.942a3.175,3.175,0,0,1-.366.021,3.373,3.373,0,0,1-.5-.038l-.748.918a.227.227,0,0,1-.17.078.208.208,0,0,1-.112-.032l-1.513-.907a.222.222,0,0,1-.09-.273l.461-1.089a3.566,3.566,0,0,1-.237-.363,3.561,3.561,0,0,1-.182-.393l-1.167-.185a.218.218,0,0,1-.183-.221l.031-1.763a.215.215,0,0,1,.189-.215l1.175-.147a3.335,3.335,0,0,1,.442-.74l-.42-1.1a.217.217,0,0,1,.1-.267l1.544-.855a.223.223,0,0,1,.109-.028.211.211,0,0,1,.17.085l.714.942a3.168,3.168,0,0,1,.365-.021,3.353,3.353,0,0,1,.5.038l.747-.918a.228.228,0,0,1,.171-.078.205.205,0,0,1,.112.032l1.512.907a.223.223,0,0,1,.091.273l-.461,1.088a3.327,3.327,0,0,1,.236.364,3.522,3.522,0,0,1,.183.393l.7.111h1.7a2.764,2.764,0,0,1,2.519-1.649,2.762,2.762,0,0,1,2.519,1.649h3.212a2.762,2.762,0,0,1,2.519-1.649,2.753,2.753,0,0,1,2.75,2.75,2.753,2.753,0,0,1-2.75,2.75,2.762,2.762,0,0,1-2.519-1.65h-3.212a2.763,2.763,0,0,1-2.519,1.65,2.764,2.764,0,0,1-2.519-1.65h-1.539l-.908.22a3.357,3.357,0,0,1-.443.74l.42,1.1a.217.217,0,0,1-.1.267l-1.545.855A.226.226,0,0,1-2138.741-3624.273Zm-1.259-5.814a1.5,1.5,0,0,0-1.5,1.5,1.5,1.5,0,0,0,1.5,1.5,1.5,1.5,0,0,0,1.5-1.5A1.5,1.5,0,0,0-2140-3630.087Z" transform="translate(2254 3984.587)" fill="#007aff" />
    </g>
</svg>