<svg width="11" height="12" viewBox="0 0 11 12" fill="none" xmlns="http://www.w3.org/2000/svg">
    <path d="M9.84164 0.708002H7.18564L6.97964 0.294002C6.93553 0.205551 6.8676 0.131169 6.7835 0.0792279C6.69941 0.0272869 6.60249 -0.00015108 6.50364 2.28908e-06H3.97564C3.87716 -0.000288472 3.78059 0.0271259 3.69695 0.0791138C3.61331 0.131102 3.54598 0.205567 3.50264 0.294002L3.29364 0.708002H0.639645C0.545758 0.708002 0.455717 0.745299 0.389329 0.811686C0.322941 0.878074 0.285645 0.968116 0.285645 1.062L0.285645 1.77C0.285645 1.86389 0.322941 1.95393 0.389329 2.02032C0.455717 2.08671 0.545758 2.124 0.639645 2.124H9.83964C9.8863 2.12427 9.93255 2.1153 9.97573 2.09763C10.0189 2.07996 10.0582 2.05393 10.0913 2.02103C10.1243 1.98813 10.1506 1.94902 10.1685 1.90594C10.1864 1.86286 10.1956 1.81666 10.1956 1.77V1.062C10.1956 1.01551 10.1865 0.969482 10.1687 0.926532C10.1509 0.883583 10.1248 0.844558 10.092 0.811686C10.0591 0.778814 10.0201 0.752739 9.97711 0.734949C9.93417 0.717159 9.88813 0.708002 9.84164 0.708002ZM1.46264 10.33C1.47846 10.6004 1.59702 10.8546 1.79407 11.0405C1.99111 11.2264 2.25175 11.33 2.52264 11.33H7.95964C8.23054 11.33 8.49117 11.2264 8.68822 11.0405C8.88527 10.8546 9.00383 10.6004 9.01964 10.33L9.48864 2.83H0.993645L1.46264 10.33Z" fill="#595959"/>
</svg>