<svg width="21" height="15" viewBox="0 0 21 15" fill="none" xmlns="http://www.w3.org/2000/svg">
<path d="M16.5813 9.93708C16.1692 9.07784 14.6948 7.88519 13.2703 6.73281C12.4758 6.09055 11.725 5.48331 11.2464 5.0047C11.1265 4.88395 10.9472 4.84544 10.7888 4.90233C10.494 5.00909 10.3119 5.09133 10.1685 5.15519C9.94972 5.25318 9.87622 5.28644 9.58131 5.31618C9.45092 5.3293 9.3337 5.39931 9.26106 5.5078C8.64243 6.43266 8.00192 6.35391 7.57405 6.21044C7.43755 6.16495 7.41306 6.1063 7.39994 6.05031C7.30806 5.6662 7.7692 4.77194 8.3668 4.1743C9.78869 2.75155 10.5219 2.39541 12.0707 3.08755C13.8277 3.87329 15.5882 4.48844 15.6057 4.49455C15.8358 4.57416 16.0834 4.45341 16.1631 4.22504C16.2418 3.99666 16.1219 3.74729 15.8935 3.66768C15.876 3.66156 14.1505 3.05867 12.4285 2.28779C10.4222 1.3909 9.3214 1.98152 7.74902 3.5548C7.15052 4.1533 6.33763 5.36429 6.54763 6.25244C6.63774 6.63044 6.90377 6.91045 7.29925 7.0408C8.29063 7.36806 9.19536 7.05479 9.86912 6.16056C10.1474 6.1177 10.2988 6.0547 10.5262 5.95233C10.6085 5.91558 10.7047 5.87272 10.8325 5.82108C11.333 6.29095 12.0085 6.83781 12.7199 7.41269C14.0061 8.45305 15.4648 9.63258 15.7929 10.3151C15.9548 10.6519 15.7806 10.8716 15.6625 10.9722C15.4892 11.121 15.2521 11.1682 15.1235 11.078C14.9818 10.9809 14.7971 10.9748 14.651 11.0623C14.504 11.1498 14.4218 11.3152 14.4401 11.4849C14.4699 11.7632 14.2153 11.9224 14.105 11.9776C13.825 12.1193 13.5328 12.0948 13.4234 11.9933C13.3009 11.8796 13.125 11.8463 12.9692 11.9041C12.8135 11.9627 12.705 12.1062 12.6892 12.2724C12.663 12.5594 12.4504 12.835 12.173 12.9427C12.0391 12.9934 11.8448 13.024 11.6707 12.8648C11.5622 12.7668 11.4117 12.7291 11.2709 12.7633C11.1283 12.7982 11.0136 12.9015 10.9637 13.0389C10.9471 13.0826 10.9095 13.1876 10.5 13.1876C10.2086 13.1876 9.68447 12.9908 9.42812 12.821C9.121 12.6189 7.19511 11.1821 5.53176 9.78913C5.29813 9.59226 4.89388 9.17049 4.53688 8.79774C4.22012 8.46699 3.93051 8.16688 3.78175 8.04088C3.59537 7.88338 3.31975 7.90701 3.16487 8.09252C3.00913 8.27713 3.03186 8.55366 3.21651 8.7094C3.35215 8.82404 3.61465 9.10138 3.90426 9.40326C4.29452 9.81099 4.69787 10.2328 4.96915 10.4603C6.59841 11.8244 8.55666 13.297 8.94688 13.5534C9.2689 13.7651 9.96276 14.0626 10.5 14.0626C10.9314 14.0626 11.263 13.9637 11.4931 13.7704C11.8011 13.8903 12.1511 13.8911 12.488 13.7599C12.8861 13.6059 13.2134 13.2953 13.3989 12.919C13.7436 12.9925 14.1383 12.9409 14.497 12.7607C14.8479 12.5839 15.1016 12.3136 15.2276 11.9977C15.5759 12.016 15.9346 11.8927 16.2312 11.638C16.7335 11.2084 16.8718 10.54 16.5813 9.93708Z" fill="#4B4B4B"/>
<path d="M8.75001 2.6875H4.81251C4.57101 2.6875 4.375 2.88351 4.375 3.12501C4.375 3.36651 4.57101 3.56253 4.81251 3.56253H8.75001C8.99151 3.56253 9.18753 3.36651 9.18753 3.12501C9.18753 2.88351 8.99151 2.6875 8.75001 2.6875Z" fill="#4B4B4B"/>
<path d="M17.8631 9.0047C17.7275 8.80434 17.4563 8.74922 17.2559 8.88572L15.9767 9.74495C15.7763 9.87969 15.7229 10.1518 15.8577 10.3522C15.9425 10.4773 16.0808 10.5456 16.2217 10.5456C16.3048 10.5456 16.3897 10.522 16.465 10.4712L17.7442 9.61198C17.9445 9.4772 17.9979 9.2051 17.8631 9.0047Z" fill="#4B4B4B"/>
<path d="M15.1471 11.0942C14.8338 10.8474 13.433 9.41329 12.5667 8.51029C12.3996 8.33528 12.1222 8.32917 11.9481 8.49717C11.7731 8.66431 11.7678 8.94166 11.9349 9.11581C12.1598 9.35029 14.1434 11.4179 14.6046 11.7819C14.6842 11.8449 14.7804 11.8756 14.8749 11.8756C15.0036 11.8756 15.1322 11.8178 15.2197 11.7084C15.3694 11.5194 15.337 11.2438 15.1471 11.0942Z" fill="#4B4B4B"/>
<path d="M13.3988 11.971C12.8747 11.5518 11.5578 10.1527 11.2603 9.82897C11.0958 9.65046 10.8202 9.63996 10.6417 9.80271C10.464 9.96633 10.4518 10.2437 10.6154 10.4214C10.6312 10.438 12.2027 12.1346 12.8519 12.6544C12.9324 12.7182 13.0296 12.7497 13.1249 12.7497C13.2527 12.7497 13.3804 12.6928 13.467 12.5861C13.6176 12.3971 13.587 12.1215 13.3988 11.971Z" fill="#4B4B4B"/>
<path d="M11.6577 12.8512C11.0338 12.3254 9.75715 10.9665 9.50778 10.6996C9.3424 10.5229 9.06501 10.5132 8.88914 10.6786C8.7124 10.844 8.70363 11.1205 8.86814 11.2972C9.2269 11.6813 10.4484 12.9764 11.0933 13.5206C11.1755 13.5897 11.2753 13.6238 11.375 13.6238C11.4993 13.6238 11.6235 13.5705 11.7102 13.4681C11.8659 13.2826 11.8423 13.007 11.6577 12.8512Z" fill="#4B4B4B"/>
<path d="M5.1135 1.93211C4.36361 1.22159 1.365 0.991456 0.463764 0.938095C0.339527 0.931983 0.224889 0.973081 0.137402 1.05622C0.049875 1.13846 0 1.25396 0 1.37471V9.24971C0 9.49121 0.196014 9.68722 0.437514 9.68722H3.06251C3.25151 9.68722 3.41951 9.56561 3.47813 9.38535C3.54199 9.18933 5.04964 4.56236 5.24824 2.28734C5.25964 2.15433 5.21063 2.02308 5.1135 1.93211ZM2.74313 8.81223H0.874986V1.84372C2.28113 1.95483 3.79838 2.19633 4.34963 2.46408C4.11776 4.38033 3.06863 7.78496 2.74313 8.81223Z" fill="#4B4B4B"/>
<path d="M20.5625 1.8125C17.1272 1.8125 15.2215 2.69187 15.1419 2.72862C15.0281 2.78199 14.9432 2.88087 14.9082 3.00076C14.8732 3.12065 14.8907 3.24928 14.9563 3.356C15.4971 4.22664 17.1902 9.06189 17.5157 10.2414C17.5682 10.4312 17.7406 10.5625 17.9375 10.5625H20.5625C20.804 10.5625 21 10.3665 21 10.125V2.24997C21 2.00761 20.804 1.8125 20.5625 1.8125ZM20.125 9.6875H18.2647C17.85 8.33649 16.625 4.81374 15.9416 3.35776C16.6092 3.13115 18.0434 2.74175 20.125 2.69278V9.6875Z" fill="#4B4B4B"/>
</svg>
