<svg width="16" height="13" viewBox="0 0 16 13" fill="none" xmlns="http://www.w3.org/2000/svg">
<path d="M3.35323 6.66534L4.65636 6.61606C4.98396 6.60367 5.12882 6.1929 4.88707 5.96937L2.77686 3.95519C2.62559 3.8108 2.3999 3.81934 2.25997 3.97473L0.307924 6.14256C0.0910296 6.38343 0.266496 6.78208 0.594098 6.76969L1.89722 6.72041C2.02251 10.033 4.73023 12.6176 7.94801 12.4959C8.70514 12.4672 9.42747 12.2898 10.0795 11.9874C10.5596 11.7666 10.6662 11.1171 10.2805 10.749C10.0763 10.554 9.77469 10.4829 9.51686 10.6052C9.02276 10.8416 8.46645 10.9752 7.89132 10.9969C5.48163 11.0881 3.44705 9.14607 3.35323 6.66534ZM5.16201 2.25133C5.36622 2.44625 5.6751 2.51713 5.92565 2.39507C6.42732 2.16595 6.97606 2.02511 7.55119 2.00336C9.96088 1.91222 11.9955 3.85422 12.0893 6.33494L10.7861 6.38423C10.4585 6.39662 10.3137 6.80739 10.5554 7.03091L12.6657 9.0451C12.8169 9.18948 13.0426 9.18095 13.1825 9.02555L15.1346 6.85773C15.3515 6.61686 15.176 6.2182 14.8557 6.23032L13.5453 6.27988C13.42 2.96725 10.7123 0.382732 7.4945 0.504428C6.73737 0.533062 6.01504 0.710488 5.36304 1.01284C4.88293 1.23365 4.77627 1.88314 5.16201 2.25133Z" fill="#4B4B4B"/>
<path d="M8.52076 4.28287C8.27335 4.33566 8.04734 4.46152 7.87171 4.64426C7.69608 4.82701 7.57886 5.05832 7.5351 5.30849C7.52232 5.39227 7.51904 5.47724 7.52535 5.56177C7.52342 5.69065 7.54615 5.81871 7.5923 5.939L7.61531 6.00064L6.41644 7.28367C5.12305 8.66761 5.18981 8.59122 5.15678 8.73607C5.13694 8.83464 5.14575 8.93688 5.1821 9.03061C5.21845 9.12434 5.28083 9.20562 5.36184 9.26478C5.44285 9.32395 5.53906 9.3585 5.63904 9.36433C5.73903 9.37017 5.83858 9.34705 5.92584 9.29771C5.97739 9.26946 6.14869 9.09056 7.18014 7.98925L8.37508 6.71435L8.44075 6.73286C8.5672 6.76817 8.6986 6.78223 8.82961 6.77449C8.96421 6.7734 9.09744 6.7473 9.22256 6.69752C9.41907 6.62392 9.594 6.50192 9.7313 6.34272C9.86861 6.18352 9.96388 5.99222 10.0084 5.78639C10.0213 5.72567 10.0307 5.66428 10.0367 5.60249L10.0402 5.52818L9.91761 5.4133L9.79419 5.29846L9.51032 5.60289L9.22644 5.90732L8.74291 5.92318L8.56142 5.75291L8.38082 5.58387L8.36461 5.08987L8.64651 4.78888L8.92841 4.48789L8.80887 4.37587C8.69058 4.26381 8.68844 4.26304 8.64402 4.26534C8.60258 4.26836 8.5614 4.27421 8.52076 4.28287ZM5.75498 8.60641C5.79956 8.6251 5.83818 8.65572 5.86663 8.69493C5.89508 8.73414 5.91226 8.78044 5.91632 8.82878C5.91876 8.86074 5.91466 8.89285 5.90425 8.92314C5.89383 8.95343 5.87734 8.98126 5.85579 9.00489C5.82748 9.03874 5.79074 9.06444 5.7493 9.07937C5.70787 9.09431 5.66323 9.09794 5.61994 9.08988C5.57666 9.08183 5.53626 9.06238 5.50289 9.03354C5.46953 9.00469 5.44439 8.96747 5.43002 8.92568C5.40961 8.87796 5.40785 8.82428 5.42509 8.77533C5.43879 8.72355 5.46921 8.67781 5.5116 8.64529C5.554 8.61276 5.60595 8.5953 5.65931 8.59564C5.69156 8.59415 5.72386 8.59778 5.75498 8.60641Z" fill="#4B4B4B"/>
</svg>
