<svg width="120" height="120" viewBox="0 0 120 120" fill="none" xmlns="http://www.w3.org/2000/svg">
<path d="M58.4622 39.0031H35.7067C35.4866 38.9858 35.2666 39.0406 35.06 39.1642C34.8534 39.2877 34.6646 39.4774 34.505 39.7218C34.3455 39.9662 34.2184 40.2602 34.1316 40.5859C34.0448 40.9117 34 41.2624 34 41.6168C34 41.9712 34.0448 42.3219 34.1316 42.6476C34.2184 42.9734 34.3455 43.2674 34.505 43.5118C34.6646 43.7562 34.8534 43.9459 35.06 44.0695C35.2666 44.193 35.4866 44.2478 35.7067 44.2305H58.466C58.6862 44.2478 58.9062 44.193 59.1128 44.0695C59.3193 43.9459 59.5081 43.7562 59.6677 43.5118C59.8273 43.2674 59.9544 42.9734 60.0412 42.6476C60.128 42.3219 60.1728 41.9712 60.1728 41.6168C60.1728 41.2624 60.128 40.9117 60.0412 40.5859C59.9544 40.2602 59.8273 39.9662 59.6677 39.7218C59.5081 39.4774 59.3193 39.2877 59.1128 39.1642C58.9062 39.0406 58.6862 38.9858 58.466 39.0031H58.4622Z" fill="#1A2281"/>
<path d="M58.0811 47.4111H36.0917C35.5277 47.4486 34.996 47.7801 34.6066 48.3369C34.2172 48.8936 34 49.6329 34 50.4017C34 51.1706 34.2172 51.91 34.6066 52.4667C34.996 53.0235 35.5277 53.3549 36.0917 53.3924H58.0811C58.6451 53.3549 59.1768 53.0235 59.5662 52.4667C59.9556 51.91 60.1728 51.1706 60.1728 50.4017C60.1728 49.6329 59.9556 48.8936 59.5662 48.3369C59.1768 47.7801 58.6451 47.4486 58.0811 47.4111Z" fill="#1A2281"/>
<path d="M57.9038 57.134H36.269C35.9764 57.1167 35.6839 57.1715 35.4092 57.295C35.1346 57.4186 34.8836 57.6083 34.6714 57.8527C34.4593 58.0971 34.2904 58.3912 34.1749 58.7169C34.0595 59.0427 34 59.3933 34 59.7477C34 60.1021 34.0595 60.4529 34.1749 60.7786C34.2904 61.1044 34.4593 61.3982 34.6714 61.6426C34.8836 61.8871 35.1346 62.0768 35.4092 62.2003C35.6839 62.3239 35.9764 62.3787 36.269 62.3614H57.9038C58.1964 62.3787 58.4889 62.3239 58.7635 62.2003C59.0382 62.0768 59.2891 61.8871 59.5013 61.6426C59.7135 61.3982 59.8824 61.1044 59.9978 60.7786C60.1133 60.4529 60.1728 60.1021 60.1728 59.7477C60.1728 59.3933 60.1133 59.0427 59.9978 58.7169C59.8824 58.3912 59.7135 58.0971 59.5013 57.8527C59.2891 57.6083 59.0382 57.4186 58.7635 57.295C58.4889 57.1715 58.1964 57.1167 57.9038 57.134Z" fill="#1A2281"/>
<path d="M57.9038 66.1065H36.269C35.9764 66.0867 35.6839 66.1493 35.4092 66.2905C35.1346 66.4317 34.8836 66.6486 34.6714 66.9279C34.4593 67.2072 34.2904 67.5433 34.1749 67.9155C34.0595 68.2878 34 68.6885 34 69.0936C34 69.4986 34.0595 69.8995 34.1749 70.2718C34.2904 70.6441 34.4593 70.9799 34.6714 71.2592C34.8836 71.5386 35.1346 71.7554 35.4092 71.8966C35.6839 72.0378 35.9764 72.1004 36.269 72.0807H57.9038C58.1964 72.1004 58.4889 72.0378 58.7635 71.8966C59.0382 71.7554 59.2891 71.5386 59.5013 71.2592C59.7135 70.9799 59.8824 70.6441 59.9978 70.2718C60.1133 69.8995 60.1728 69.4986 60.1728 69.0936C60.1728 68.6885 60.1133 68.2878 59.9978 67.9155C59.8824 67.5433 59.7135 67.2072 59.5013 66.9279C59.2891 66.6486 59.0382 66.4317 58.7635 66.2905C58.4889 66.1493 58.1964 66.0867 57.9038 66.1065Z" fill="#1A2281"/>
<path d="M49.6205 75.8257H36.3265C36.0265 75.8085 35.7265 75.8632 35.4449 75.9868C35.1634 76.1103 34.906 76.3001 34.6885 76.5445C34.4709 76.7889 34.2977 77.0829 34.1794 77.4087C34.0611 77.7344 34 78.0851 34 78.4395C34 78.7939 34.0611 79.1447 34.1794 79.4704C34.2977 79.7962 34.4709 80.09 34.6885 80.3344C34.906 80.5788 35.1634 80.7686 35.4449 80.8921C35.7265 81.0157 36.0265 81.0704 36.3265 81.0532H49.6205C49.9206 81.0704 50.2204 81.0157 50.502 80.8921C50.7836 80.7686 51.041 80.5788 51.2585 80.3344C51.4761 80.09 51.6493 79.7962 51.7676 79.4704C51.886 79.1447 51.947 78.7939 51.947 78.4395C51.947 78.0851 51.886 77.7344 51.7676 77.4087C51.6493 77.0829 51.4761 76.7889 51.2585 76.5445C51.041 76.3001 50.7836 76.1103 50.502 75.9868C50.2204 75.8632 49.9206 75.8085 49.6205 75.8257Z" fill="#1A2281"/>
<path d="M97.9535 45.18C96.6334 43.8626 94.8444 43.1227 92.9793 43.1227C91.1142 43.1227 89.3252 43.8626 88.0051 45.18L80.9505 52.24V33.66C80.9558 32.7327 80.7763 31.8135 80.4225 30.9562C80.0688 30.0989 79.5479 29.3206 78.8902 28.6667L72.2624 22.06C71.6107 21.4048 70.8355 20.8854 69.9817 20.5318C69.1278 20.1782 68.2123 19.9975 67.2882 20H27.0345C25.1694 20.0018 23.3812 20.7434 22.0623 22.062C20.7435 23.3806 20.0018 25.1685 20 27.0334V92.9733C20.0035 94.837 20.746 96.6232 22.0647 97.9404C23.3833 99.2576 25.1706 99.9982 27.0345 100H73.8893C75.7545 99.9982 77.5427 99.2567 78.8615 97.938C80.1804 96.6194 80.9221 94.8315 80.9239 92.9667V72.1333L97.9268 55.12C98.5816 54.4692 99.1017 53.6958 99.4574 52.844C99.8131 51.9922 99.9975 51.0786 100 50.1555C100.002 49.2325 99.823 48.3179 99.4718 47.4642C99.1207 46.6105 98.6048 45.8343 97.9535 45.18ZM66.8881 24.6667C67.2594 24.6206 67.6363 24.6563 67.9922 24.7715C68.3482 24.8867 68.6746 25.0785 68.9485 25.3334L75.5763 31.96C75.8312 32.2338 76.023 32.5602 76.1382 32.9161C76.2534 33.272 76.2892 33.6488 76.2431 34.02H66.8881V24.6667ZM76.2631 92.9733C76.2649 93.2849 76.2046 93.5937 76.0858 93.8817C75.9669 94.1697 75.7919 94.4312 75.571 94.6508C75.35 94.8705 75.0875 95.044 74.7988 95.1612C74.5101 95.2784 74.2009 95.3369 73.8893 95.3333H27.0345C26.4121 95.3333 25.8151 95.0861 25.3749 94.646C24.9348 94.2059 24.6875 93.609 24.6875 92.9867V27.0334C24.6848 26.7235 24.7436 26.4162 24.8604 26.1292C24.9771 25.8422 25.1496 25.5811 25.3678 25.3611C25.586 25.141 25.8456 24.9664 26.1317 24.8472C26.4178 24.728 26.7246 24.6667 27.0345 24.6667H62.2006V36.4067C62.2006 37.0291 62.4479 37.6259 62.8881 38.066C63.3282 38.5061 63.9252 38.7534 64.5477 38.7534H76.2631V56.9267L69.3485 63.8533L66.0146 67.1867C65.7576 67.4432 65.5636 67.7558 65.4479 68.1L62.154 78C62.0167 78.4132 61.9972 78.8564 62.0974 79.28C62.1977 79.7037 62.4139 80.0911 62.7218 80.3989C63.0297 80.7068 63.4172 80.9229 63.8409 81.0232C64.2646 81.1235 64.7079 81.1039 65.1211 80.9667L75.0695 77.6333C75.4139 77.5179 75.7266 77.3239 75.983 77.0667L76.2697 76.78V92.9333L76.2631 92.9733ZM71.0088 68.82L74.3427 72.1533L73.0758 73.42L68.1017 75.08L69.7619 70.1067L71.0088 68.82ZM77.6366 68.82L74.3027 65.4867L85.5713 54.2067L88.9053 57.54L77.6366 68.82ZM94.6396 51.8067L92.2258 54.2267L88.8919 50.8933L91.3123 48.4733C91.7544 48.0313 92.3541 47.783 92.9793 47.783C93.6045 47.783 94.2041 48.0313 94.6462 48.4733C95.0883 48.9154 95.3367 49.5149 95.3367 50.14C95.3367 50.7651 95.0883 51.3647 94.6462 51.8067H94.6396Z" fill="#1A2281"/>
</svg>
