<svg width="120" height="120" viewBox="0 0 120 120" fill="none" xmlns="http://www.w3.org/2000/svg">
<path d="M100.164 66.3817C99.219 66.2946 98.2631 66.2467 97.2951 66.2467C89.1488 66.2467 81.3362 69.4828 75.5759 75.2431C69.8157 81.0033 66.5796 88.8159 66.5796 96.9622C66.5796 97.9876 66.6322 99.0002 66.7301 100H100.164V66.3817Z" fill="#1A2281"/>
<path d="M20 20V87.844H54.4101C54.3122 86.8443 54.2596 85.8317 54.2596 84.8063C54.2596 76.66 57.4956 68.8474 63.2559 63.0871C69.0162 57.3269 76.8288 54.0908 84.975 54.0908C85.9431 54.0908 86.8989 54.1414 87.844 54.2258V20H20ZM56.7843 56.7107L31.119 51.2346C30.8773 51.1829 30.6659 51.0375 30.5313 50.8302C30.3966 50.6229 30.3497 50.3707 30.4007 50.1288L31.3519 45.6315C31.377 45.5115 31.4256 45.3976 31.4948 45.2964C31.564 45.1951 31.6524 45.1085 31.7552 45.0415C31.8579 44.9744 31.9728 44.9283 32.0933 44.9057C32.2138 44.8832 32.3377 44.8846 32.4577 44.9099L40.896 46.6941L25.9602 31.7623L32.9417 24.7808L47.8755 39.7119L46.0913 31.2736C46.0659 31.1538 46.0644 31.0301 46.0869 30.9098C46.1093 30.7894 46.1553 30.6746 46.2221 30.572C46.289 30.4693 46.3753 30.3809 46.4764 30.3117C46.5774 30.2424 46.6911 30.1938 46.8109 30.1685L51.3109 29.2221C51.5526 29.1708 51.8047 29.2176 52.0119 29.3522C52.2191 29.4867 52.3644 29.698 52.416 29.9397L57.8941 55.6056C57.9268 55.7581 57.9207 55.9163 57.8764 56.0658C57.8321 56.2153 57.7511 56.3513 57.6407 56.4614C57.5303 56.5716 57.3941 56.6523 57.2445 56.6962C57.0949 56.7401 56.9367 56.7458 56.7843 56.7127V56.7107Z" fill="#1A2281"/>
</svg>
