<svg width="120" height="120" viewBox="0 0 120 120" fill="none" xmlns="http://www.w3.org/2000/svg">
<path d="M32.9329 41.3888C32.9329 41.3888 20.6785 39.8041 20 48.395V93.2533C20 93.2533 20.0369 93.4893 20.1355 93.8682C20.5953 95.5241 21.5887 96.9819 22.9618 98.0153C24.3348 99.0488 26.0106 99.6002 27.729 99.5838H91.0662C92.8417 99.6261 94.5853 99.1074 96.049 98.1014C97.5126 97.0954 98.6216 95.6534 99.2183 93.9807C99.3391 93.598 99.4373 93.2086 99.5124 92.8145C100.533 87.4418 99.6553 52.1 99.5253 47.1818C99.5161 46.7408 99.415 46.3066 99.2285 45.9069C98.7315 44.7216 97.9485 43.6781 96.9494 42.8697C95.9504 42.0613 94.7664 41.5132 93.5036 41.2745H86.4246" stroke="#1A2281" stroke-width="3" stroke-miterlimit="10"/>
<path d="M21.5967 97.7326L52.9505 66.6268" stroke="#1A2281" stroke-width="3"/>
<path d="M66.6697 66.7397L97.1836 97.2556" stroke="#1A2281" stroke-width="3" stroke-miterlimit="10"/>
<path d="M96.9082 43.9247L59.7559 72.3792" stroke="#1A2281" stroke-width="3" stroke-linecap="round" stroke-linejoin="round"/>
<path d="M22.5767 43.6002L59.7558 72.3774" stroke="#1A2281" stroke-width="3" stroke-linecap="round" stroke-linejoin="round"/>
<path d="M85.7839 51.8505L85.8236 24.8507C85.8236 23.8294 85.4179 22.85 84.6957 22.1278C83.9736 21.4057 82.9942 21 81.9729 21H37.6465C36.6668 21.001 35.7266 21.3859 35.0274 22.0722C34.3282 22.7584 33.9258 23.6914 33.9065 24.6709L33.3469 51.9583" stroke="#1A2281" stroke-width="3" stroke-linecap="round" stroke-linejoin="round"/>
<path d="M67.9161 37.895C67.9159 39.495 67.4412 41.0591 66.5522 42.3894C65.6632 43.7197 64.3996 44.7565 62.9213 45.3687C61.443 45.981 59.8164 46.1411 58.2471 45.8289C56.6778 45.5167 55.2364 44.7462 54.105 43.6148C52.9736 42.4834 52.2031 41.0419 51.8909 39.4726C51.5787 37.9033 51.7388 36.2767 52.351 34.7984C52.9632 33.3202 54.0001 32.0566 55.3304 31.1676C56.6607 30.2785 58.2247 29.8039 59.8248 29.8037C61.9706 29.804 64.0286 30.6565 65.5459 32.1739C67.0633 33.6912 67.9158 35.7491 67.9161 37.895V37.895Z" stroke="#1A2281" stroke-width="3" stroke-miterlimit="10"/>
<path d="M49.1543 55.3167C49.1543 55.3167 51.7355 46.7055 60.0176 46.3137C60.0176 46.3137 67.5208 46.1892 70.881 55.3167" stroke="#1A2281" stroke-width="3" stroke-linecap="round" stroke-linejoin="round"/>
</svg>
