<svg width="120" height="120" viewBox="0 0 120 120" fill="none" xmlns="http://www.w3.org/2000/svg">
<path d="M62.0662 32.7167H57.2065C56.6488 32.7167 56.1968 33.1687 56.1968 33.7264V58.3657C56.1968 58.9233 56.6488 59.3754 57.2065 59.3754H62.0662C62.6239 59.3754 63.0759 58.9233 63.0759 58.3657V33.7264C63.0759 33.1687 62.6239 32.7167 62.0662 32.7167Z" fill="#1A2281"/>
<path d="M66.0595 37.2451C65.9203 37.2065 65.7741 37.1999 65.632 37.2258V60.3131C65.632 60.772 65.4497 61.212 65.1253 61.5365C64.8008 61.861 64.3607 62.0433 63.9019 62.0433H54.5829C54.3323 62.0433 54.0919 61.9437 53.9147 61.7665C53.7375 61.5893 53.638 61.349 53.638 61.0984V37.2572L53.5176 37.1638C47.9152 38.6454 43.0413 42.1108 39.8018 46.9158C36.5624 51.7209 35.1778 57.5387 35.9054 63.2878C36.633 69.037 39.4233 74.3264 43.7577 78.1729C48.092 82.0194 53.6756 84.1613 59.4705 84.2005C65.2653 84.2397 70.8773 82.1735 75.2633 78.3859C79.6493 74.5984 82.5109 69.3472 83.3162 63.6084C84.1214 57.8696 82.8156 52.0336 79.6415 47.1852C76.4673 42.3368 71.6407 38.8058 66.0588 37.2486L66.0595 37.2451Z" fill="#1A2281"/>
<path d="M59.9905 25.4285C66.6042 25.4288 73.0789 27.3269 78.646 30.8974C84.2131 34.4678 88.6388 39.5607 91.3978 45.5715H95.1886C95.4644 45.5713 95.7289 45.4616 95.9238 45.2665C96.1188 45.0714 96.2283 44.8069 96.2283 44.5311V28.6351C96.2283 28.3593 96.1188 28.0948 95.9238 27.8997C95.7289 27.7046 95.4644 27.5949 95.1886 27.5947H92.1887C91.9129 27.5949 91.6485 27.7046 91.4535 27.8997C91.2586 28.0948 91.1491 28.3593 91.1491 28.6351V34.9221C85.6894 28.1363 78.1638 23.3184 69.7158 21.2005C61.2678 19.0825 52.3593 19.7804 44.3442 23.1881C36.3291 26.5957 29.6455 32.5268 25.3092 40.08C20.9729 47.6332 19.2209 56.3955 20.3195 65.0354C20.3412 65.1898 20.3971 65.3374 20.4833 65.4674C20.5695 65.5973 20.6836 65.7064 20.8174 65.7864C20.9512 65.8665 21.1013 65.9157 21.2565 65.9302C21.4118 65.9447 21.5683 65.9243 21.7147 65.8705L25.7208 64.4119C25.0835 59.5393 25.4943 54.5868 26.9256 49.8858C28.3569 45.1848 30.7756 40.8437 34.0201 37.153C37.2646 33.4623 41.2599 30.5071 45.7386 28.4851C50.2174 26.4631 55.0764 25.421 59.9905 25.4285Z" fill="#1A2281"/>
<path d="M99.8661 57.0026C99.8517 56.8425 99.8007 56.6879 99.7169 56.5507C99.6332 56.4136 99.519 56.2975 99.3832 56.2116C99.2474 56.1257 99.0936 56.0722 98.9338 56.0553C98.774 56.0383 98.6124 56.0584 98.4616 56.114L94.4569 57.5726C94.5118 58.3707 94.5503 59.1731 94.5503 59.9854C94.549 67.7353 91.943 75.2598 87.1508 81.3503C82.3585 87.4409 75.6583 91.744 68.1262 93.5683C60.5942 95.3927 52.6675 94.6325 45.6194 91.4099C38.5714 88.1872 32.8111 82.6891 29.2638 75.7988H26.6351C26.3594 75.7988 26.0949 75.9083 25.9 76.1033C25.705 76.2983 25.5955 76.5627 25.5955 76.8384V92.7288C25.5955 93.0046 25.705 93.2691 25.8999 93.4642C26.0949 93.6592 26.3593 93.7689 26.6351 93.7691H29.635C29.9108 93.7689 30.1753 93.6592 30.3702 93.4642C30.5652 93.2691 30.6747 93.0046 30.6747 92.7288V87.1707C36.1345 93.0741 43.2481 97.1933 51.086 98.9898C58.9239 100.786 67.1214 100.177 74.6073 97.2406C82.0933 94.3045 88.5194 89.1785 93.0459 82.5324C97.5725 75.8864 99.9889 68.0294 99.9794 59.9882C99.9794 58.9821 99.9416 57.9869 99.8661 57.0026Z" fill="#1A2281"/>
</svg>
