<svg width="120" height="120" viewBox="0 0 120 120" fill="none" xmlns="http://www.w3.org/2000/svg">
<path d="M52.906 20H22.8835C21.291 20 20 21.3024 20 22.909V53.1972C20 54.8038 21.291 56.1062 22.8835 56.1062H52.906C54.4985 56.1062 55.7895 54.8038 55.7895 53.1972V22.909C55.7895 21.3024 54.4985 20 52.906 20Z" fill="#1A2281"/>
<path d="M52.906 63.8939H22.8835C21.291 63.8939 20 65.1963 20 66.8029V97.0911C20 98.6977 21.291 100 22.8835 100H52.906C54.4985 100 55.7895 98.6977 55.7895 97.0911V66.8029C55.7895 65.1963 54.4985 63.8939 52.906 63.8939Z" fill="#1A2281"/>
<path d="M97.1164 20H67.094C65.5014 20 64.2104 21.3024 64.2104 22.909V53.1972C64.2104 54.8038 65.5014 56.1062 67.094 56.1062H97.1164C98.7089 56.1062 99.9999 54.8038 99.9999 53.1972V22.909C99.9999 21.3024 98.7089 20 97.1164 20Z" fill="#1A2281"/>
<path d="M97.1164 63.8939H67.094C65.5014 63.8939 64.2104 65.1963 64.2104 66.8029V97.0911C64.2104 98.6977 65.5014 100 67.094 100H97.1164C98.7089 100 99.9999 98.6977 99.9999 97.0911V66.8029C99.9999 65.1963 98.7089 63.8939 97.1164 63.8939Z" fill="#1A2281"/>
</svg>
