<svg width="120" height="120" viewBox="0 0 120 120" fill="none" xmlns="http://www.w3.org/2000/svg">
<path d="M58.3029 75.2548C59.6295 73.9226 61.7826 73.9226 63.1091 75.2548C64.4373 76.5885 64.4373 78.7492 63.1091 80.0814L53.9638 89.267C50.7842 92.4586 46.5967 94.0544 42.4107 94.0544C38.2248 94.0544 34.0358 92.4586 30.8576 89.267C27.6795 86.0738 26.0889 81.8686 26.0889 77.6649C26.0889 73.4628 27.6795 69.2544 30.8576 66.0628L40.0029 56.8788C41.3311 55.545 43.4826 55.545 44.8107 56.8788C46.1373 58.211 46.1373 60.3732 44.8107 61.7054L35.6639 70.8895C33.8139 72.7489 32.8873 75.2061 32.8873 77.6649C32.8873 80.1237 33.8139 82.581 35.6639 84.4388C37.5154 86.2982 39.9623 87.2287 42.4107 87.2287C44.8592 87.2287 47.306 86.2982 49.156 84.4404L58.3029 75.2548ZM65.506 60.7121C66.8294 62.0428 66.8294 64.2019 65.506 65.5309C64.181 66.86 62.0326 66.86 60.7076 65.5309L54.492 59.2889C53.1685 57.9583 53.1685 55.8008 54.492 54.4702C55.817 53.1411 57.9654 53.1411 59.2904 54.4702L65.506 60.7121ZM72.581 99.1666L68.6638 99.981C68.1576 100.085 67.6591 99.755 67.556 99.2466L65.0279 86.9934C65.0026 86.8721 65.0014 86.747 65.0244 86.6253C65.0473 86.5035 65.0939 86.3875 65.1616 86.2839C65.2292 86.1803 65.3165 86.0911 65.4185 86.0214C65.5205 85.9517 65.6352 85.9029 65.756 85.8777L69.6701 85.0476C70.181 84.9456 70.6779 85.2736 70.781 85.7836L73.3138 98.0541C73.4169 98.5641 73.0888 99.063 72.581 99.1666ZM47.9404 20.982L51.7795 20.028C52.2826 19.9024 52.792 20.2115 52.917 20.7152L55.9576 32.843C56.0826 33.3498 55.7763 33.8629 55.2717 33.99L51.3967 34.9754C50.892 35.1009 50.381 34.7934 50.2545 34.2881L47.2139 22.1384C47.0873 21.6316 47.3951 21.1185 47.8982 20.9914L47.9404 20.982ZM89.2169 86.827L86.4263 89.7189C86.2496 89.896 86.0102 89.9954 85.7606 89.9954C85.5111 89.9954 85.2717 89.896 85.095 89.7189L76.1544 81.0087C75.9762 80.8341 75.8742 80.5955 75.871 80.3454C75.8678 80.0953 75.9635 79.8542 76.1372 79.675L78.9185 76.7894C79.281 76.4159 79.8763 76.4065 80.2482 76.7705L89.1981 85.4917C89.3766 85.6665 89.4788 85.9052 89.4823 86.1555C89.4858 86.4058 89.3904 86.6473 89.2169 86.827ZM99.9684 69.2356L98.9341 73.1098C98.8012 73.6135 98.2856 73.9132 97.7825 73.7782L85.7388 70.5427C85.2357 70.4077 84.9388 69.8899 85.0716 69.3847L86.1091 65.5058C86.2435 65.0021 86.7591 64.7024 87.2622 64.8358L99.3012 68.0792C99.8028 68.2125 100.101 68.7319 99.9684 69.2356ZM20.0592 51.641L21.1483 47.8516C21.2178 47.6123 21.3787 47.4103 21.5958 47.2896C21.8129 47.1688 22.0688 47.139 22.3077 47.2067L34.2858 50.6258C34.7858 50.7686 35.0748 51.2927 34.9342 51.7948L33.8467 55.6564C33.7788 55.8972 33.6187 56.1012 33.4015 56.2239C33.1842 56.3465 32.9274 56.3777 32.6873 56.3108L20.6842 52.8807C20.444 52.8118 20.2408 52.65 20.1192 52.4309C19.9976 52.2117 19.9676 51.953 20.0358 51.7117L20.0592 51.641ZM30.1779 33.6777L32.9654 30.8831C33.3326 30.516 33.9295 30.5175 34.2951 30.8863L43.1045 39.7377C43.4685 40.1064 43.4685 40.7027 43.1045 41.0699L40.2826 43.9116C40.1068 44.0887 39.8682 44.1885 39.6192 44.1891C39.3702 44.1897 39.1311 44.091 38.9545 43.9147L30.1326 35.0586C29.9563 34.8812 29.8573 34.6408 29.8573 34.3901C29.8573 34.1395 29.9563 33.8991 30.1326 33.7217L30.1779 33.6777ZM61.581 44.8624C60.2544 46.1962 58.1013 46.1962 56.7748 44.8624C55.4466 43.5303 55.4466 41.3696 56.7748 40.0358L66.0341 30.7372L66.2498 30.5379C69.4107 27.4766 73.5044 25.9467 77.5872 25.9467C81.7716 25.9467 85.9591 27.5441 89.1388 30.7372C92.3184 33.9304 93.9091 38.1372 93.9091 42.3393C93.9091 46.543 92.3184 50.7482 89.1403 53.9414L79.881 63.24C78.5528 64.5722 76.4013 64.5722 75.0732 63.24C73.7466 61.9078 73.7466 59.7456 75.0732 58.4134L84.3341 49.1132C86.1841 47.2554 87.1106 44.7981 87.1106 42.3393C87.1106 39.8805 86.1841 37.4232 84.3341 35.5654C82.481 33.7044 80.0341 32.7739 77.5872 32.7739C75.1966 32.7739 72.8138 33.6511 70.9904 35.4038L61.581 44.8624Z" fill="#1A2281"/>
</svg>
