<svg width="18" height="18" viewBox="0 0 12 12" fill="none" xmlns="http://www.w3.org/2000/svg">
	<path d="M0.794117 1.32354V5.02942C0.794117 5.32139 1.03156 5.55883 1.32353 5.55883H5.02941C5.32138 5.55883 5.55882 5.32139 5.55882 5.02942V1.32354C5.55882 1.03157 5.32138 0.794128 5.02941 0.794128H1.32353C1.03156 0.794128 0.794117 1.03157 0.794117 1.32354ZM5.02968 5.02942H1.32353V1.32354H5.02941L5.02968 5.02942Z" fill="#4B4B4B" />
	<path d="M2.91176 1.85297H3.44118V4.50003H2.91176V1.85297ZM3.97059 2.64708H4.5V4.50003H3.97059V2.64708ZM1.85294 3.1765H2.38235V4.50003H1.85294V3.1765Z" fill="#4B4B4B" />
	<path d="M0.794117 6.97057V10.6765C0.794117 10.9684 1.03156 11.2059 1.32353 11.2059H5.02941C5.32138 11.2059 5.55882 10.9684 5.55882 10.6765V6.97057C5.55882 6.6786 5.32138 6.44116 5.02941 6.44116H1.32353C1.03156 6.44116 0.794117 6.6786 0.794117 6.97057ZM5.02968 10.6765H1.32353V6.97057H5.02941L5.02968 10.6765Z" fill="#4B4B4B" />
	<path d="M2.91176 7.5H3.44118V10.1471H2.91176V7.5ZM3.97059 8.29412H4.5V10.1471H3.97059V8.29412ZM1.85294 8.82353H2.38235V10.1471H1.85294V8.82353Z" fill="#4B4B4B" />
	<path d="M6.44118 1.32354V5.02942C6.44118 5.32139 6.67862 5.55883 6.97059 5.55883H10.6765C10.9684 5.55883 11.2059 5.32139 11.2059 5.02942V1.32354C11.2059 1.03157 10.9684 0.794128 10.6765 0.794128H6.97059C6.67862 0.794128 6.44118 1.03157 6.44118 1.32354ZM10.6767 5.02942H6.97059V1.32354H10.6765L10.6767 5.02942Z" fill="#4B4B4B" />
	<path d="M8.55882 1.85297H9.08824V4.50003H8.55882V1.85297ZM9.61765 2.64708H10.1471V4.50003H9.61765V2.64708ZM7.5 3.1765H8.02941V4.50003H7.5V3.1765Z" fill="#4B4B4B" />
	<path d="M6.44118 6.97057V10.6765C6.44118 10.9684 6.67862 11.2059 6.97059 11.2059H10.6765C10.9684 11.2059 11.2059 10.9684 11.2059 10.6765V6.97057C11.2059 6.6786 10.9684 6.44116 10.6765 6.44116H6.97059C6.67862 6.44116 6.44118 6.6786 6.44118 6.97057ZM10.6767 10.6765H6.97059V6.97057H10.6765L10.6767 10.6765Z" fill="#4B4B4B" />
	<path d="M8.55882 7.5H9.08824V10.1471H8.55882V7.5ZM9.61765 8.29412H10.1471V10.1471H9.61765V8.29412ZM7.5 8.82353H8.02941V10.1471H7.5V8.82353Z" fill="#4B4B4B" />
</svg>
