<svg width="23" height="23" viewBox="0 0 23 23" fill="none" xmlns="http://www.w3.org/2000/svg">
<circle cx="11.5" cy="11.5" r="11.5" fill="#3491FF"/>
<g clip-path="url(#clip0_7841_15933)">
<path d="M7.31325 4.53162L7.14148 7.26157C7.98253 6.26343 9.14905 5.5808 10.4441 5.32888C11.7391 5.07695 13.0832 5.27167 14.249 5.87941L14.3284 5.9193C14.8854 6.22298 15.3947 6.60388 15.8406 7.05044C16.5807 7.89392 17.0735 8.91881 17.2665 10.0155C17.4595 11.1121 17.3454 12.2395 16.9363 13.2775" stroke="white" stroke-width="0.8" stroke-linecap="round" stroke-linejoin="round"/>
<path d="M15.6868 17.467L15.8585 14.7357C15.0174 15.7341 13.8506 16.417 12.5553 16.669C11.26 16.9209 9.91572 16.7264 8.74979 16.1183L8.67161 16.0781C8.1148 15.7741 7.6055 15.3931 7.15939 14.9468C6.41911 14.1032 5.92621 13.0782 5.73324 11.9814C5.54026 10.8845 5.65447 9.75682 6.06367 8.71861" stroke="white" stroke-width="0.8" stroke-linecap="round" stroke-linejoin="round"/>
<path d="M11.5386 11.0707V7.44159C10.96 7.49899 10.3991 7.67054 9.88957 7.94548C9.38002 8.22041 8.93216 8.59303 8.57298 9.04163C8.2709 9.48505 8.07692 9.9908 8.00604 10.5195C7.93517 11.0483 7.98941 11.5858 8.16436 12.0907C8.33931 12.5957 8.63025 13.0543 9.01492 13.4312C9.39958 13.8081 9.86752 14.0929 10.3825 14.264C10.8579 14.4219 11.3618 14.4809 11.8618 14.4371C12.3617 14.3933 12.8469 14.2479 13.2863 14.0099C13.7257 13.772 14.1097 13.4472 14.4138 13.0556C14.7179 12.6639 14.9355 12.2141 15.0525 11.7354C15.1751 11.0767 15.1128 10.3974 14.8721 9.77077C14.6315 9.14416 14.2215 8.59376 13.6863 8.17809" stroke="white" stroke-width="0.8" stroke-linecap="round" stroke-linejoin="round"/>
</g>
<defs>
<clipPath id="clip0_7841_15933">
<rect width="13" height="14" fill="white" transform="translate(5 4)"/>
</clipPath>
</defs>
</svg>
