<svg width="120" height="120" viewBox="0 0 120 120" fill="none" xmlns="http://www.w3.org/2000/svg">
<path d="M60 27.3774C57.8394 27.3774 55.7148 27.9184 53.8557 28.942C51.8669 30.037 50.2578 31.6178 49.073 33.6406L25.1375 74.5062C23.9402 76.5503 23.3482 78.7485 23.3779 81.0399C23.4057 83.1803 23.9935 85.3117 25.078 87.2036C26.1624 89.0955 27.7044 90.68 29.5374 91.7857C31.4995 92.9694 33.6955 93.5696 36.0644 93.5696H83.9356C86.3045 93.5696 88.5005 92.9694 90.4626 91.7857C92.2956 90.68 93.8376 89.0955 94.922 87.2036C96.0065 85.3117 96.5943 83.1803 96.6221 81.0399C96.6518 78.7485 96.0598 76.5503 94.8625 74.5062L70.927 33.6406C69.7422 31.6178 68.1331 30.037 66.1443 28.942C64.2852 27.9184 62.1605 27.3774 60 27.3774ZM60 24.0005C65.3715 24.0005 70.743 26.645 73.8408 31.9339L97.7764 72.7995C104.04 83.4926 96.3279 96.9465 83.9356 96.9465H36.0644C23.6721 96.9465 15.9605 83.4926 22.2236 72.7995L46.1592 31.9339C49.257 26.645 54.6285 24.0005 60 24.0005Z" fill="#1A2281"/>
<path d="M60.076 67.7067C58.8222 67.7067 57.6197 67.2086 56.7331 66.322C55.8465 65.4354 55.3484 64.2329 55.3484 62.9791V44.0888C55.3946 42.8667 55.9126 41.7101 56.7935 40.8619C57.6744 40.0137 58.8497 39.5398 60.0727 39.5398C61.2956 39.5398 62.4709 40.0137 63.3518 40.8619C64.2327 41.7101 64.7507 42.8667 64.7969 44.0888V62.9824C64.796 64.2345 64.2985 65.4351 63.4134 66.3208C62.5284 67.2065 61.3281 67.7049 60.076 67.7067Z" stroke="#1A2281" stroke-width="4" stroke-linecap="round" stroke-linejoin="round"/>
<path d="M59.8456 86.8157C62.41 86.8157 64.4888 84.7369 64.4888 82.1725C64.4888 79.6081 62.41 77.5293 59.8456 77.5293C57.2812 77.5293 55.2024 79.6081 55.2024 82.1725C55.2024 84.7369 57.2812 86.8157 59.8456 86.8157Z" stroke="#1A2281" stroke-width="4" stroke-linecap="round" stroke-linejoin="round"/>
</svg>
