<svg width="120" height="120" viewBox="0 0 120 120" fill="none" xmlns="http://www.w3.org/2000/svg">
<path d="M80.2316 49.0268L76.9765 45.7749C76.9102 45.7062 76.8298 45.6516 76.7405 45.6148C76.6512 45.5779 76.5549 45.5595 76.4579 45.5608C76.3606 45.558 76.2639 45.5757 76.1744 45.6127C76.0848 45.6497 76.0046 45.705 75.9392 45.7749L53.3567 67.8553L45.1476 59.8818C45.0807 59.8135 45.0003 59.7592 44.9111 59.722C44.822 59.6849 44.7259 59.6657 44.6289 59.6657C44.5319 59.6657 44.4359 59.6849 44.3467 59.722C44.2575 59.7592 44.1771 59.8135 44.1102 59.8818L40.8135 63.0816C40.7434 63.1484 40.6877 63.2281 40.6496 63.316C40.6116 63.4039 40.592 63.4983 40.592 63.5937C40.592 63.689 40.6116 63.7835 40.6496 63.8714C40.6877 63.9593 40.7434 64.039 40.8135 64.1058L51.1807 74.1681C51.7421 74.7635 52.5157 75.1295 53.3448 75.1922C54.1587 75.1208 54.9196 74.77 55.4909 74.2028L80.2375 50.0567C80.3678 49.9147 80.4393 49.7309 80.4382 49.5407C80.4371 49.3505 80.3635 49.1674 80.2316 49.0268Z" fill="#1A2281"/>
<path d="M60.5 28.0283C68.2037 28.0325 75.6676 30.629 81.6201 35.3754C87.5727 40.1217 91.6457 46.7243 93.1453 54.0584C94.645 61.3925 93.4784 69.0043 89.8444 75.5973C86.2104 82.1902 80.3338 87.3563 73.2156 90.2156C66.0975 93.0749 58.1781 93.4505 50.8066 91.2784C43.4352 89.1062 37.0676 84.5207 32.7887 78.3031C28.5098 72.0854 26.5843 64.6202 27.3401 57.1791C28.0959 49.7381 31.4863 42.7816 36.9338 37.4946C40.0215 34.4821 43.6943 32.0943 47.7396 30.4694C51.7848 28.8444 56.122 28.0147 60.5 28.0283ZM60.5 23C52.8854 23 45.4418 25.1916 39.1106 29.2976C32.7793 33.4036 27.8446 39.2396 24.9307 46.0677C22.0167 52.8957 21.2543 60.4091 22.7398 67.6577C24.2253 74.9063 27.8921 81.5646 33.2764 86.7906C38.6607 92.0165 45.5208 95.5754 52.989 97.0173C60.4573 98.4591 68.1984 97.7191 75.2333 94.8908C82.2683 92.0626 88.2812 87.2731 92.5116 81.128C96.742 74.9829 99 67.7583 99 60.3676C99.0008 55.4602 98.0055 50.6008 96.071 46.0668C94.1364 41.5328 91.3006 37.4131 87.7254 33.943C84.1502 30.473 79.9056 27.7205 75.2342 25.8429C70.5629 23.9653 65.5561 22.9992 60.5 23Z" fill="#1A2281"/>
</svg>
