<svg width="120" height="120" viewBox="0 0 120 120" fill="none" xmlns="http://www.w3.org/2000/svg">
<path d="M83.9946 53.1602C87.7008 53.157 91.3645 53.9495 94.7381 55.484C98.1116 57.0186 101.116 59.2595 103.549 62.0552C103.549 61.985 103.555 61.9149 103.555 61.8447C103.555 59.5754 103.108 57.3283 102.24 55.2318C101.372 53.1352 100.099 51.2302 98.4942 49.6255C96.8896 48.0209 94.9846 46.748 92.8881 45.8795C90.7916 45.0111 88.5445 44.5641 86.2752 44.5641C86.1735 44.5641 86.0724 44.5697 85.9714 44.5718C85.3207 37.8453 82.1884 31.6021 77.1851 27.0594C72.1818 22.5167 65.666 20 58.9081 20C52.1502 20 45.6344 22.5167 40.6311 27.0594C35.6277 31.6021 32.4954 37.8453 31.8448 44.5718C27.3804 44.6836 23.1326 46.5197 19.9925 49.695C16.8523 52.8704 15.0637 57.1383 15.0017 61.6037C14.9397 66.0691 16.6092 70.385 19.66 73.6463C22.7108 76.9076 26.9059 78.8609 31.3655 79.0965V79.1239H58.0309C58.0309 72.2379 60.7664 65.6339 65.6355 60.7648C70.5047 55.8957 77.1086 53.1602 83.9946 53.1602Z" fill="#1A2281"/>
<path d="M84.17 59.3002C80.1452 59.3002 76.2107 60.4937 72.8642 62.7298C69.5177 64.9658 66.9094 68.1441 65.3691 71.8625C63.8289 75.581 63.4259 79.6727 64.2111 83.6202C64.9963 87.5677 66.9344 91.1937 69.7804 94.0396C72.6264 96.8856 76.2524 98.8238 80.1999 99.609C84.1474 100.394 88.2391 99.9912 91.9576 98.451C95.676 96.9107 98.8543 94.3024 101.09 90.9559C103.326 87.6094 104.52 83.6749 104.52 79.6501C104.52 74.253 102.376 69.0769 98.5596 65.2605C94.7432 61.4442 89.5671 59.3002 84.17 59.3002ZM96.9147 87.5445C97.0079 87.6376 97.0819 87.7483 97.1323 87.8701C97.1828 87.9919 97.2088 88.1224 97.2088 88.2542C97.2088 88.3861 97.1828 88.5166 97.1323 88.6384C97.0819 88.7602 97.0079 88.8708 96.9147 88.964L93.3689 92.5098C93.2757 92.6031 93.165 92.6771 93.0432 92.7275C92.9214 92.778 92.7909 92.804 92.6591 92.804C92.5272 92.804 92.3967 92.778 92.2749 92.7275C92.1531 92.6771 92.0425 92.6031 91.9493 92.5098L84.17 84.7376L76.39 92.5133C76.2969 92.6066 76.1863 92.6805 76.0646 92.731C75.9428 92.7815 75.8123 92.8074 75.6806 92.8074C75.5488 92.8074 75.4183 92.7815 75.2966 92.731C75.1748 92.6805 75.0643 92.6066 74.9711 92.5133L71.4246 88.9675C71.2366 88.7792 71.1311 88.5239 71.1311 88.2578C71.1311 87.9916 71.2366 87.7363 71.4246 87.548L79.2046 79.7687L71.4246 71.9887C71.2366 71.8003 71.1311 71.545 71.1311 71.2789C71.1311 71.0128 71.2366 70.7575 71.4246 70.5691L74.9711 67.0233C75.0643 66.9301 75.1748 66.8561 75.2966 66.8057C75.4183 66.7552 75.5488 66.7292 75.6806 66.7292C75.8123 66.7292 75.9428 66.7552 76.0646 66.8057C76.1863 66.8561 76.2969 66.9301 76.39 67.0233L84.17 74.8033L91.9493 67.0233C92.0425 66.9301 92.1531 66.8561 92.2749 66.8056C92.3967 66.7551 92.5272 66.7292 92.6591 66.7292C92.7909 66.7292 92.9214 66.7551 93.0432 66.8056C93.165 66.8561 93.2757 66.9301 93.3689 67.0233L96.9147 70.5691C97.0079 70.6623 97.0819 70.773 97.1323 70.8947C97.1828 71.0165 97.2088 71.1471 97.2088 71.2789C97.2088 71.4107 97.1828 71.5413 97.1323 71.6631C97.0819 71.7849 97.0079 71.8955 96.9147 71.9887L89.1375 79.7687L96.9147 87.5445Z" fill="#1A2281"/>
</svg>
