<svg width="120" height="120" viewBox="0 0 120 120" fill="none" xmlns="http://www.w3.org/2000/svg">
<path d="M33 86.7514V57.3405C33 54.3974 35.386 52.0117 38.3294 52.0117H81.0039C83.9473 52.0117 86.3333 54.3974 86.3333 57.3405V94.6712C86.3333 97.6143 83.9473 100 81.0039 100H38.3294C35.386 100 33 97.6143 33 94.6712V86.6732" stroke="#1A2281" stroke-width="4" stroke-linecap="round" stroke-linejoin="round"/>
<path d="M40.999 52.002V38.6654C40.999 28.3598 49.3599 20 59.6667 20C69.9735 20 78.3343 28.3598 78.3343 38.6654V52.002" stroke="#1A2281" stroke-width="4" stroke-linecap="round" stroke-linejoin="round"/>
<path d="M51.6677 52.0021V38.6656C51.7166 34.2461 55.3348 30.7066 59.7548 30.7555C64.1063 30.8044 67.6169 34.3145 67.6658 38.6656V52.0021" stroke="#1A2281" stroke-width="4" stroke-linecap="round" stroke-linejoin="round"/>
<path d="M59.6666 84.0039C56.7232 84.0039 54.3372 81.6182 54.3372 78.6751V73.3366C54.3372 70.3935 56.7232 68.0078 59.6666 68.0078C62.61 68.0078 64.996 70.3935 64.996 73.3366V78.6654C64.996 81.6084 62.61 83.9941 59.6666 83.9941V84.0039Z" stroke="#1A2281" stroke-width="4" stroke-linecap="round" stroke-linejoin="round"/>
</svg>
