<svg width="120" height="120" viewBox="0 0 120 120" fill="none" xmlns="http://www.w3.org/2000/svg">
<path d="M68.2553 88.4376H26.7124C26.2579 88.4376 25.8894 88.8228 25.8894 89.298V95.4298C25.8894 95.905 26.2579 96.2901 26.7124 96.2901H68.2553C68.7098 96.2901 69.0783 95.905 69.0783 95.4298V89.298C69.0783 88.8228 68.7098 88.4376 68.2553 88.4376Z" fill="#1A2281"/>
<path d="M36.915 64.8802C36.4688 66.8591 35.4063 68.6343 33.8889 69.9366C32.3714 71.2388 30.4818 71.997 28.5068 72.096L36.2855 85.8203H57.2994L36.915 64.8802Z" fill="#1A2281"/>
<path d="M27.1981 70.1152C31.1736 70.1152 34.3963 66.8925 34.3963 62.917C34.3963 58.9416 31.1736 55.7189 27.1981 55.7189C23.2227 55.7189 20 58.9416 20 62.917C20 66.8925 23.2227 70.1152 27.1981 70.1152Z" fill="#1A2281"/>
<path d="M43.9596 41.9771L29.1614 54.0568C31.2688 54.3706 33.2071 55.3475 34.6706 56.8334C36.1341 58.3192 37.0393 60.2295 37.2436 62.2627L50.1014 47.1925L50.0194 47.1134C48.5959 46.9177 47.2635 46.327 46.1865 45.4142C45.1096 44.5014 44.3354 43.3065 43.9596 41.9771Z" fill="#1A2281"/>
<path d="M50.0306 44.7916C52.799 44.7916 55.0433 42.5473 55.0433 39.7789C55.0433 37.0104 52.799 34.7661 50.0306 34.7661C47.2621 34.7661 45.0178 37.0104 45.0178 39.7789C45.0178 42.5473 47.2621 44.7916 50.0306 44.7916Z" fill="#1A2281"/>
<path d="M52.9822 34.1516L52.7769 29.8139C52.771 29.6903 52.7909 29.5668 52.8355 29.4514C52.88 29.336 52.9482 29.2311 53.0357 29.1435L58.5763 23.6064C58.626 23.5567 58.6598 23.4934 58.6735 23.4245C58.6872 23.3556 58.6802 23.2842 58.6533 23.2193C58.6264 23.1544 58.5809 23.0989 58.5225 23.0599C58.4641 23.0208 58.3954 23 58.3251 23H52.9915C52.756 23 52.5302 23.0935 52.3636 23.2599L47.1793 28.4441C47.0129 28.6107 46.9194 28.8366 46.9194 29.072V34.3156C47.8429 33.8043 48.8757 33.5225 49.9308 33.494C50.9859 33.4655 52.0325 33.691 52.9822 34.1516Z" fill="#1A2281"/>
<path d="M66.5704 31.5983L61.0304 37.1384C60.943 37.2259 60.8382 37.2941 60.7229 37.3388C60.6075 37.3835 60.4841 37.4035 60.3606 37.3977L56.0223 37.1918C56.4834 38.1419 56.7092 39.1889 56.6808 40.2446C56.6524 41.3003 56.3705 42.3336 55.8589 43.2575H61.1053C61.222 43.2574 61.3375 43.2344 61.4452 43.1897C61.553 43.145 61.6508 43.0796 61.7333 42.997L66.9169 37.8133C66.9995 37.7309 67.0649 37.633 67.1096 37.5253C67.1543 37.4176 67.1773 37.3021 67.1774 37.1854V31.8494C67.1772 31.7792 67.1563 31.7106 67.1171 31.6522C67.078 31.5939 67.0225 31.5484 66.9576 31.5215C66.8927 31.4947 66.8213 31.4876 66.7524 31.5013C66.6835 31.515 66.6202 31.5487 66.5704 31.5983Z" fill="#1A2281"/>
<path d="M71.1851 74.2646L84.7758 95.2309C84.8565 95.3551 84.9669 95.4572 85.0971 95.5279C85.2273 95.5986 85.3731 95.6356 85.5212 95.6356C85.6693 95.6356 85.8151 95.5986 85.9452 95.5279C86.0754 95.4572 86.1859 95.3551 86.2665 95.2309L99.8573 74.2646C99.9852 74.0671 100.03 73.8268 99.9805 73.5967C99.9314 73.3665 99.7929 73.1652 99.5955 73.037L95.9277 70.6499C95.7301 70.5216 95.4895 70.4772 95.2591 70.5263C95.0286 70.5754 94.8271 70.714 94.6988 70.9116L90.2222 77.7898L90.2222 23.8881C90.2221 23.6526 90.1284 23.4268 89.9619 23.2603C89.7955 23.0939 89.5697 23.0002 89.3342 23.0001H81.7107C81.4752 23.0001 81.2494 23.0936 81.0828 23.2602C80.9163 23.4267 80.8228 23.6525 80.8228 23.8881V77.7898L76.3442 70.909C76.2159 70.7114 76.0144 70.5728 75.7839 70.5237C75.5535 70.4746 75.313 70.519 75.1153 70.6472L71.4468 73.0344C71.3488 73.0979 71.2642 73.1802 71.198 73.2764C71.1318 73.3726 71.0852 73.481 71.0609 73.5952C71.0366 73.7095 71.035 73.8274 71.0563 73.9423C71.0777 74.0572 71.1214 74.1667 71.1851 74.2646Z" fill="#1A2281"/>
</svg>
