<svg width="120" height="120" viewBox="0 0 120 120" fill="none" xmlns="http://www.w3.org/2000/svg">
<path fill-rule="evenodd" clip-rule="evenodd" d="M74.3694 86.5545C75.47 83.9081 76.0337 81.0694 76.0277 78.2033V78.2022C76.0329 72.5775 73.8534 67.1708 69.9488 63.1222V33.1555C69.9488 29.4 68.0422 25.8433 64.7899 23.3911C61.8744 21.1933 58.1011 20 54.1522 20C50.2044 20 46.4311 21.1933 43.5155 23.3911C40.2633 25.8433 38.3566 29.4 38.3566 33.1555V63.1233C34.46 67.17 32.2778 72.5477 32.2778 78.2033C32.2717 81.0693 32.8353 83.908 33.9357 86.5543C35.0361 89.2007 36.6514 91.602 38.6878 93.6188C40.7179 95.6489 43.1292 97.2577 45.7831 98.3528C48.437 99.4478 51.2812 100.008 54.1522 99.9999C57.0231 100.008 59.8673 99.4478 62.5212 98.3528C65.1752 97.2577 67.5865 95.6489 69.6166 93.6188C71.6532 91.6022 73.2688 89.2009 74.3694 86.5545ZM61.78 27.3833C63.82 28.9222 64.9488 31.0278 64.9488 33.1555V65.2488L65.7377 65.99C69.1222 69.1677 71.0277 73.5588 71.0277 78.2033C71.0338 80.4111 70.6002 82.598 69.7522 84.6366C68.9043 86.6751 67.6589 88.5244 66.0888 90.0766C64.5226 91.6444 62.6614 92.8867 60.6127 93.7317C58.564 94.5767 56.3683 95.0077 54.1522 94.9999C51.9362 95.0076 49.7407 94.5766 47.6922 93.7316C45.6437 92.8866 43.7827 91.6444 42.2166 90.0766C39.0278 86.901 37.2778 82.6922 37.2778 78.2033C37.2753 75.9136 37.7436 73.6479 38.6536 71.5469C39.5637 69.4459 40.8959 67.5544 42.5677 65.99L43.3566 65.2488V33.1555C43.3566 31.0278 44.4855 28.9211 46.5255 27.3833C48.5489 25.8578 51.2622 25 54.1522 25C57.0433 25 59.7555 25.8578 61.78 27.3833ZM58.3829 34.2423V68.2881C61.963 69.8861 64.4616 73.5006 64.4616 77.706C64.4616 83.391 59.8929 88 54.2586 88C48.6231 88 44.0555 83.391 44.0555 77.706C44.0555 73.5017 46.553 69.8861 50.1331 68.2881V34.2423C50.1331 32.5028 51.9799 31.0922 54.2574 31.0922C56.535 31.0922 58.3829 32.5028 58.3829 34.2423ZM77.1304 28.8228C75.1895 31.6061 74.0264 34.0273 74.0264 36.007C74.0264 40.3975 77.1224 44.0258 81.0415 44.0258C84.9595 44.0258 88.0555 40.3975 88.0555 36.007C88.0555 34.7355 87.5703 33.2857 86.7042 31.6532C86.2224 30.745 85.6306 29.7965 84.9516 28.8228C84.109 27.6183 83.2061 26.4583 82.2466 25.3474L81.9825 25.0462L81.0404 24L80.0994 25.0462C79.0412 26.248 78.05 27.5089 77.1304 28.8228ZM76.5771 36.007C76.5771 34.7366 77.5657 32.6787 79.2129 30.3162C79.7945 29.4838 80.4169 28.6676 81.0415 27.9019C81.6807 28.6832 82.2906 29.4885 82.8701 30.3162C83.4495 31.1369 83.9795 31.9922 84.4573 32.8776C85.142 34.1675 85.5048 35.2528 85.5048 36.007C85.5048 39.0455 83.4619 41.4391 81.0415 41.4391C78.62 41.4391 76.5771 39.0455 76.5771 36.007Z" fill="#1A2281"/>
</svg>
