<svg width="120" height="120" viewBox="0 0 120 120" fill="none" xmlns="http://www.w3.org/2000/svg">
<path d="M51.01 20.1878C50.7537 20.2704 50.5054 20.3756 50.2677 20.502C49.8085 20.766 49.17 21.4605 49.17 21.69C49.17 21.7937 49.5191 23.8521 49.9469 26.2562C50.3746 28.6604 50.7237 30.8005 50.7237 30.9702C50.7242 31.2007 50.6621 31.4269 50.5442 31.6249C50.4263 31.823 50.2569 31.9854 50.054 32.0949C49.8511 32.2045 49.6223 32.2572 49.3919 32.2473C49.1615 32.2374 48.9381 32.1653 48.7454 32.0387C48.2704 31.7433 48.2485 31.671 47.4873 27.3845C47.1036 25.1846 46.7702 23.3367 46.7544 23.299C46.7167 23.1953 46.2355 23.4404 45.2353 24.0815C42.0151 26.1463 39.5793 29.2284 38.3157 32.837C37.7924 34.3243 37.4852 35.879 37.4036 37.4535L37.3533 38.3178L36.7242 38.3618C36.2497 38.3709 35.7868 38.51 35.3858 38.7638C34.9849 39.0175 34.6612 39.3763 34.4502 39.8011C34.2861 40.122 34.2142 40.4821 34.2426 40.8413C34.209 41.1991 34.2754 41.5592 34.4345 41.8815C34.7007 42.4252 35.1445 42.8619 35.6926 43.1197L36.1077 43.3114H72.8506L73.2721 43.104C73.8517 42.8034 74.3079 42.3099 74.5617 41.7087C74.6547 41.4108 74.6993 41.0999 74.6937 40.7879C74.7107 40.4341 74.6256 40.0828 74.4484 39.776C74.2399 39.3462 73.9133 38.9847 73.5067 38.7337C73.1001 38.4827 72.6303 38.3526 72.1524 38.3586L71.5673 38.3083L71.517 37.6012C71.4018 35.2629 70.8066 32.9732 69.7682 30.8745C68.7299 28.7758 67.2707 26.9128 65.4813 25.4014C64.4903 24.522 63.3647 23.8069 62.1473 23.2833C62.1473 23.5724 60.7099 31.3819 60.6376 31.5359C60.5443 31.7188 60.4092 31.8771 60.2433 31.9981C60.0774 32.1192 59.8853 32.1994 59.6826 32.2325C59.4798 32.2655 59.2721 32.2504 59.0763 32.1884C58.8805 32.1263 58.7021 32.0191 58.5554 31.8753C58.0522 31.3725 58.0459 31.5422 58.9549 26.3819C59.4078 23.8364 59.7758 21.6994 59.7758 21.6397C59.5225 21.1998 59.1664 20.8278 58.7379 20.5555C57.961 20.0526 57.7943 20.0401 54.4571 20.0463C53.3066 19.9531 52.149 20.0006 51.01 20.1878V20.1878Z" fill="#1A2281"/>
<path d="M37.5449 46.0166C37.5449 46.092 37.5984 46.5697 37.6644 47.0725C38.2579 52.9627 40.73 58.5065 44.7161 62.8864C46.7308 65.0255 49.3476 66.5038 52.2207 67.1259C52.9611 67.2779 53.7178 67.3349 54.4726 67.2955C55.2296 67.3343 55.9884 67.2774 56.731 67.1259C59.6941 66.4745 62.3795 64.9142 64.4117 62.6632C68.3124 58.2589 70.719 52.7346 71.2872 46.8808C71.347 46.3937 71.3973 45.9663 71.3973 45.938C71.0576 45.8816 70.7128 45.8615 70.3688 45.8783H69.3403L69.2899 46.3371C68.8949 50.2483 67.6566 54.0277 65.6603 57.4151C64.2941 59.698 62.4179 61.634 60.1782 63.0718C58.9463 63.8013 57.5951 64.3078 56.1869 64.5678C55.1155 64.7092 54.031 64.7219 52.9567 64.6054C51.0272 64.2224 49.2005 63.4366 47.5961 62.2993C45.9918 61.162 44.646 59.6989 43.6467 58.0058C41.5159 54.6466 40.171 50.8503 39.712 46.8997L39.5799 45.9129L38.564 45.8909C37.5953 45.8626 37.5449 45.8626 37.5449 46.0166Z" fill="#1A2281"/>
<path d="M88.9223 56.5993C87.0558 56.9323 85.3315 57.8152 83.9708 59.1345C82.61 60.4538 81.675 62.1493 81.2857 64.0034C81.1693 64.6248 81.1238 65.2574 81.1503 65.8891C81.1042 66.8493 81.243 67.8095 81.5592 68.7174L81.7165 69.1825L72.4191 78.4534C62.3889 88.4533 62.9078 87.9001 62.6247 88.9718C62.4519 89.7018 62.4927 90.466 62.742 91.1736C62.9913 91.8812 63.4387 92.5023 64.0311 92.9631C64.6235 93.4239 65.3358 93.705 66.0835 93.773C66.8311 93.8409 67.5826 93.6929 68.2485 93.3465C68.6417 93.1485 69.9691 91.8568 77.9675 83.8996L87.2333 74.6885L87.7207 74.8425C88.6595 75.1366 89.6405 75.2736 90.6239 75.2479C91.6326 75.2726 92.6371 75.1107 93.5868 74.7702C95.0772 74.2696 96.4177 73.403 97.4855 72.2498C98.5534 71.0967 99.3142 69.694 99.698 68.1706C99.8097 67.7212 99.8957 67.2658 99.9558 66.8067L100 66.2536L99.1098 65.3673L98.2133 64.4811L96.0118 66.681L93.8101 68.8809H90.1835L88.8657 67.5672L87.5541 66.263V62.5766L89.7401 60.402L91.9261 58.2272L91.058 57.363C90.1993 56.4988 90.1835 56.4925 89.8501 56.4988C89.5389 56.5111 89.2289 56.5447 88.9223 56.5993V56.5993ZM67.1384 88.1516C67.4678 88.3018 67.7495 88.5395 67.9531 88.8388C68.1566 89.138 68.2739 89.4873 68.2925 89.8487C68.3029 90.0875 68.2643 90.3258 68.1788 90.5491C68.0934 90.7723 67.9629 90.9757 67.7957 91.1466C67.5753 91.392 67.2937 91.5746 66.9796 91.6758C66.6655 91.7769 66.3302 91.7931 66.0078 91.7225C65.6855 91.6519 65.3876 91.497 65.1447 91.2738C64.9018 91.0506 64.7226 90.767 64.6253 90.452C64.4841 90.0913 64.4841 89.6908 64.6253 89.3301C64.7406 88.9474 64.9798 88.6139 65.3054 88.3819C65.631 88.1498 66.0246 88.0323 66.4242 88.0479C66.6662 88.0447 66.9073 88.0797 67.1384 88.1516V88.1516Z" fill="#1A2281"/>
<path d="M40.0301 65.0409C37.7987 65.3171 35.6186 65.9131 33.5572 66.8104C30.3161 68.2382 27.4532 70.402 25.1965 73.1299C22.9397 75.8578 21.3514 79.0745 20.5579 82.5237C19.9016 85.3184 19.8234 88.2175 20.3283 91.0434C20.6485 92.962 21.551 94.736 22.9136 96.1251C25.3198 98.523 28.9431 99.6072 35.5513 99.9246C37.6838 100.022 71.1682 100.028 73.329 99.9246C81.4563 99.5412 85.4539 97.9038 87.5361 94.0981C88.5 91.4714 88.9246 88.6778 88.7847 85.8837C88.6447 83.0896 87.943 80.3522 86.7215 77.8348C86.6837 77.7908 83.3372 81.0718 78.2293 86.1409C71.9042 92.4262 69.7025 94.5694 69.3848 94.7548C68.3585 95.3788 67.1612 95.6629 65.9637 95.5664C64.7662 95.4698 63.6299 94.9975 62.717 94.2172C61.8042 93.4368 61.1615 92.3882 60.8807 91.2211C60.6 90.0539 60.6955 88.828 61.1537 87.7184C61.6129 86.6342 61.6129 86.6342 70.6366 77.643L79.2672 69.0352L78.6161 68.6016C75.6128 66.6289 72.1817 65.4009 68.6079 65.0191C68.2934 64.9814 68.2934 64.9814 68.2525 65.2485C67.9921 66.4714 67.5421 67.6462 66.9189 68.7305C64.3783 73.3863 61.5483 77.8788 58.4456 82.1811C57.8166 83.0956 57.502 83.4633 57.502 83.3596C57.4643 83.0265 56.895 74.7455 56.895 74.4501C56.895 74.1547 56.917 74.1358 57.1466 74.0007C58.0415 73.4379 58.7666 72.6428 59.2445 71.7003C59.4989 71.1441 59.6523 70.5472 59.6974 69.9373C59.5195 69.9614 59.3465 70.0134 59.1847 70.0914C58.1688 70.4439 57.1221 70.7005 56.0584 70.858C55.3812 70.9257 54.7 70.9437 54.0202 70.9116C52.6944 70.9013 51.3799 70.6665 50.1327 70.217L49.2646 69.9216V70.1132C49.3247 70.6579 49.4746 71.1888 49.7081 71.6846C50.0292 72.3209 50.4604 72.8956 50.9819 73.3817C51.2998 73.6606 51.6479 73.903 52.0199 74.1045C52.0859 74.1265 51.5323 83.0862 51.4411 83.3754C51.3814 83.5671 47.3145 77.5928 45.2104 74.2364C43.3409 71.5732 41.8436 68.6678 40.7598 65.6005C40.7411 65.3715 40.6724 65.1494 40.5585 64.9498L40.0301 65.0409Z" fill="#1A2281"/>
</svg>
