<svg width="12" height="12" viewBox="0 0 12 12" fill="none" xmlns="http://www.w3.org/2000/svg">
    <path d="M4.54112 2.61073L3.49972 0.456055C2.07614 1.00145 1.20403 2.03354 0.534561 3.33955L3.02006 4.01702C3.3577 3.40621 3.89042 2.91369 4.54112 2.61073Z" fill="#4B4B4B"/>
    <path d="M9.1965 6.66308H11.9642C11.9926 6.22665 11.9788 5.78865 11.9231 5.35462C11.9 5.16875 11.8692 4.86548 11.8308 4.66982C11.6675 3.87315 11.335 3.11674 10.8538 2.44714C10.3725 1.77755 9.75266 1.20892 9.03234 0.776242C8.24589 0.309645 7.34654 0.0443023 6.42115 0.0058409C5.94478 -0.0134921 5.46761 0.0152003 4.99756 0.091441C4.99756 0.091441 5.25406 2.29259 5.26945 2.37085C5.52152 2.31348 5.77981 2.28475 6.03896 2.28525C6.78316 2.28588 7.50654 2.51957 8.09788 2.9504C8.68921 3.38123 9.11576 3.98533 9.31192 4.66982H0.175325C0.0504276 5.20355 -0.00811605 5.74944 0.000903414 6.29622C0.000903414 6.41851 0.000903399 6.5408 0.0162935 6.67042C0.24458 9.89632 2.90194 11.9825 6.04665 11.9996C8.72453 12.0265 10.7304 10.5591 11.5614 8.45335H8.67836C8.39883 8.87706 8.01027 9.22555 7.54965 9.4657C7.08902 9.70585 6.57162 9.82967 6.04665 9.82539C5.50414 9.84818 4.96495 9.73371 4.48383 9.4936C4.0027 9.25349 3.59676 8.89628 3.30721 8.45824C2.9466 7.91623 2.71623 7.30487 2.63261 6.66797H9.1965V6.66308Z" fill="#4B4B4B"/>
</svg>
