<svg xmlns="http://www.w3.org/2000/svg" width="10.437" height="10.437" viewBox="0 0 10.437 10.437">
  <path id="Icon_metro-cross" data-name="Icon metro-cross" d="M12.913,10.313h0L9.746,7.147,12.913,3.98h0a.327.327,0,0,0,0-.461l-1.5-1.5a.327.327,0,0,0-.461,0h0L7.789,5.19,4.623,2.023h0a.327.327,0,0,0-.461,0l-1.5,1.5a.327.327,0,0,0,0,.461h0L5.832,7.147,2.666,10.313h0a.327.327,0,0,0,0,.461l1.5,1.5a.327.327,0,0,0,.461,0h0L7.789,9.1l3.166,3.166h0a.327.327,0,0,0,.461,0l1.5-1.5a.327.327,0,0,0,0-.461Z" transform="translate(-2.571 -1.928)" fill="#585959"/>
</svg>
