<svg width="41" height="50" viewBox="0 0 41 50" fill="none" xmlns="http://www.w3.org/2000/svg">
<path d="M34.1195 26.6271C34.0631 20.4994 39.248 17.5183 39.4851 17.3795C36.5487 13.1911 31.9973 12.6188 30.398 12.5732C26.5754 12.1796 22.8674 14.8109 20.9202 14.8109C18.934 14.8109 15.9354 12.6112 12.7036 12.6759C8.54482 12.7386 4.6542 15.0942 2.52038 18.7522C-1.88328 26.2107 1.40101 37.1714 5.62005 43.2002C7.73055 46.1528 10.1967 49.4495 13.4246 49.3336C16.5826 49.2062 17.7622 47.3639 21.5731 47.3639C25.3491 47.3639 26.4568 49.3336 29.7489 49.2594C33.1381 49.2062 35.2719 46.2935 37.3086 43.3143C39.7475 39.9301 40.7269 36.5972 40.7658 36.4261C40.6861 36.3995 34.1836 33.9716 34.1195 26.6271Z" fill="black"/>
<path d="M27.9007 8.60722C29.5992 6.52917 30.7614 3.70203 30.4388 0.833069C27.9804 0.939538 24.906 2.49665 23.1356 4.52907C21.5693 6.32003 20.17 9.25554 20.5315 12.0161C23.293 12.2177 26.1284 10.6529 27.9007 8.60722Z" fill="black"/>
</svg>
