<svg width="125" height="125" viewBox="0 0 125 125" fill="none" xmlns="http://www.w3.org/2000/svg">
<path d="M3 125C2.20435 125 1.44127 124.684 0.878662 124.121C0.316053 123.559 0 122.796 0 122V3C0 2.20435 0.316053 1.44127 0.878662 0.878662C1.44127 0.316053 2.20435 0 3 0H122C122.796 0 123.559 0.316053 124.121 0.878662C124.684 1.44127 125 2.20435 125 3V81.207L124.823 81.384H84.083C83.4465 81.384 82.8361 81.6369 82.386 82.0869C81.9359 82.537 81.6831 83.1475 81.6831 83.784V124.522L81.21 124.995L3 125ZM83.886 85.885C83.886 85.2811 84.126 84.702 84.553 84.2749C84.98 83.8479 85.5592 83.608 86.1631 83.608H122.6L83.887 122.322L83.886 85.885Z" fill="#D6DADE"/>
<path d="M79.9017 118.764L79.4727 119.193H79.9017V118.764Z" fill="#D6DADE"/>
<path d="M119.192 79.6337V79.4727L119.031 79.6337H119.192Z" fill="#D6DADE"/>
</svg>
