<svg width="109" height="109" viewBox="0 0 109 109" fill="none" xmlns="http://www.w3.org/2000/svg">
<g clip-path="url(#clip0_1083_31669)">
<mask id="mask0_1083_31669" style="mask-type:alpha" maskUnits="userSpaceOnUse" x="0" y="0" width="109" height="109">
<path d="M109 0H0V109H109V0Z" fill="white"/>
</mask>
<g mask="url(#mask0_1083_31669)">
<path d="M103.305 97.6245L77.6482 71.968C84.5924 63.9875 88.2255 53.6556 87.8046 43.0852C87.3836 32.5147 82.9403 22.5044 75.3834 15.1014C67.8265 7.69845 57.7269 3.46207 47.15 3.25865C36.5732 3.05524 26.3182 6.90016 18.4822 14.0071C10.6463 21.1141 5.82137 30.9461 4.99426 41.4925C4.16715 52.039 7.40032 62.5029 14.0326 70.7446C20.6648 78.9862 30.195 84.3828 40.6743 85.8307C51.1535 87.2786 61.7901 84.6685 70.4086 78.5341L96.4011 104.527C97.3189 105.429 98.5563 105.933 99.8438 105.928C101.131 105.923 102.365 105.409 103.275 104.499C104.185 103.588 104.699 102.355 104.705 101.067C104.71 99.7798 104.206 98.5423 103.303 97.6245H103.305ZM15.4539 44.7392C15.4539 38.6257 17.2668 32.6495 20.6633 27.5663C24.0598 22.4831 28.8873 18.5212 34.5355 16.1817C40.1836 13.8421 46.3987 13.23 52.3947 14.4227C58.3908 15.6154 63.8985 18.5593 68.2214 22.8822C72.5443 27.2051 75.4882 32.7128 76.6809 38.7089C77.8736 44.7049 77.2615 50.92 74.9219 56.5681C72.5824 62.2163 68.6205 67.0438 63.5373 70.4403C58.4541 73.8368 52.4779 75.6496 46.3644 75.6496C38.1664 75.6496 30.3042 72.393 24.5074 66.5962C18.7106 60.7993 15.4539 52.9372 15.4539 44.7392Z" fill="#D6DADE"/>
</g>
</g>
<defs>
<clipPath id="clip0_1083_31669">
<rect width="109" height="109" fill="white"/>
</clipPath>
</defs>
</svg>
