<svg id="svg" version="1.1" xmlns="http://www.w3.org/2000/svg" xmlns:xlink="http://www.w3.org/1999/xlink" width="400" height="255.93625498007967" viewBox="0, 0, 400,255.93625498007967"><g id="svgg"><path id="path0" d="M199.360 9.679 C 198.796 9.904,198.265 10.191,198.179 10.316 C 198.093 10.441,197.950 10.537,197.862 10.529 C 197.774 10.521,197.172 10.742,196.525 11.019 C 195.878 11.297,195.242 11.524,195.113 11.524 C 194.984 11.524,194.878 11.634,194.878 11.770 C 194.878 11.905,194.417 12.140,193.854 12.292 C 193.291 12.444,192.830 12.675,192.830 12.806 C 192.830 12.937,192.657 12.978,192.446 12.897 C 192.234 12.816,192.061 12.854,192.061 12.982 C 192.061 13.110,191.485 13.422,190.781 13.676 C 190.077 13.929,189.501 14.214,189.501 14.310 C 189.501 14.406,188.976 14.640,188.334 14.829 C 187.693 15.019,187.030 15.311,186.861 15.480 C 186.693 15.648,185.979 16.002,185.275 16.267 C 184.571 16.531,183.937 16.821,183.867 16.912 C 183.796 17.002,183.191 17.283,182.522 17.536 C 181.853 17.789,181.306 18.079,181.306 18.182 C 181.306 18.284,180.672 18.567,179.898 18.811 C 179.123 19.054,178.489 19.334,178.489 19.433 C 178.489 19.532,177.855 19.828,177.081 20.091 C 176.306 20.354,175.672 20.656,175.672 20.760 C 175.672 20.865,175.038 21.150,174.264 21.394 C 173.489 21.638,172.855 21.921,172.855 22.023 C 172.855 22.126,172.308 22.416,171.639 22.669 C 170.970 22.922,170.365 23.203,170.294 23.293 C 170.224 23.384,169.590 23.674,168.886 23.938 C 168.182 24.203,167.468 24.557,167.300 24.725 C 167.131 24.893,166.469 25.186,165.827 25.376 C 165.186 25.565,164.661 25.810,164.661 25.920 C 164.661 26.030,164.517 26.122,164.341 26.124 C 164.165 26.125,163.362 26.461,162.558 26.869 C 161.753 27.277,160.687 27.745,160.189 27.910 C 159.691 28.074,159.283 28.315,159.283 28.445 C 159.283 28.575,159.197 28.665,159.091 28.646 C 158.745 28.584,156.722 29.522,156.722 29.744 C 156.722 29.864,156.565 29.962,156.372 29.962 C 155.904 29.962,153.286 31.045,153.185 31.281 C 153.141 31.384,152.507 31.664,151.776 31.905 C 151.046 32.145,150.391 32.414,150.320 32.503 C 150.250 32.592,149.673 32.889,149.040 33.163 C 148.406 33.437,147.830 33.733,147.759 33.822 C 147.689 33.911,147.026 34.182,146.287 34.426 C 145.547 34.669,144.942 34.952,144.942 35.053 C 144.942 35.155,144.366 35.445,143.662 35.699 C 142.958 35.952,142.382 36.237,142.382 36.333 C 142.382 36.429,141.857 36.663,141.215 36.852 C 140.573 37.042,139.911 37.331,139.743 37.495 C 139.574 37.659,139.033 37.952,138.540 38.145 C 138.047 38.338,136.929 38.822,136.054 39.222 C 135.180 39.622,134.344 39.949,134.198 39.949 C 134.051 39.949,133.931 40.058,133.931 40.192 C 133.931 40.325,133.297 40.635,132.522 40.879 C 131.748 41.123,131.114 41.405,131.114 41.506 C 131.114 41.607,130.538 41.897,129.834 42.150 C 129.129 42.404,128.553 42.693,128.553 42.792 C 128.553 42.892,127.919 43.173,127.145 43.417 C 126.370 43.661,125.736 43.937,125.736 44.032 C 125.736 44.126,125.246 44.408,124.648 44.657 C 121.723 45.877,120.475 46.443,120.359 46.605 C 120.288 46.702,119.654 46.995,118.950 47.257 C 118.246 47.518,116.748 48.205,115.621 48.785 C 114.494 49.365,113.083 49.995,112.484 50.185 C 111.885 50.375,111.396 50.611,111.396 50.710 C 111.396 50.810,110.848 51.097,110.179 51.350 C 109.510 51.603,108.905 51.883,108.835 51.972 C 108.764 52.061,108.202 52.297,107.585 52.496 C 106.967 52.695,106.333 52.986,106.176 53.144 C 106.018 53.301,105.313 53.646,104.609 53.911 C 103.905 54.175,103.271 54.465,103.201 54.556 C 103.131 54.646,102.526 54.927,101.857 55.180 C 101.188 55.433,100.640 55.723,100.640 55.826 C 100.640 55.928,100.006 56.211,99.232 56.455 C 98.457 56.699,97.823 56.980,97.823 57.080 C 97.823 57.179,97.247 57.468,96.543 57.722 C 95.839 57.975,95.262 58.264,95.262 58.364 C 95.262 58.464,94.577 58.751,93.739 59.002 C 92.902 59.253,92.182 59.561,92.139 59.688 C 92.096 59.814,91.467 60.126,90.740 60.382 C 90.013 60.638,89.264 60.969,89.075 61.117 C 88.887 61.266,88.185 61.592,87.516 61.843 C 86.847 62.093,86.300 62.397,86.300 62.519 C 86.300 62.640,86.181 62.740,86.035 62.740 C 85.890 62.740,85.343 62.931,84.819 63.165 C 84.295 63.399,83.809 63.608,83.739 63.630 C 83.219 63.793,81.545 64.698,81.476 64.854 C 81.429 64.961,81.285 64.983,81.156 64.903 C 81.027 64.824,80.922 64.881,80.922 65.030 C 80.922 65.179,80.721 65.301,80.476 65.301 C 80.231 65.301,79.222 65.691,78.235 66.167 C 72.054 69.150,70.993 69.638,70.359 69.793 C 69.971 69.888,69.654 70.043,69.654 70.138 C 69.654 70.232,69.078 70.533,68.374 70.807 C 67.670 71.080,67.093 71.385,67.093 71.485 C 67.093 71.585,66.460 71.851,65.685 72.076 C 64.910 72.301,64.277 72.575,64.277 72.684 C 64.277 72.793,63.700 73.089,62.996 73.343 C 62.292 73.596,61.716 73.882,61.716 73.977 C 61.716 74.073,61.191 74.307,60.549 74.496 C 59.908 74.686,59.196 75.028,58.967 75.257 C 58.738 75.485,58.485 75.677,58.405 75.683 C 57.897 75.721,56.097 76.463,55.506 76.878 C 55.118 77.149,54.802 77.295,54.802 77.202 C 54.802 77.108,54.197 77.373,53.457 77.790 C 52.718 78.207,51.738 78.631,51.280 78.731 C 50.823 78.832,50.448 79.004,50.448 79.115 C 50.448 79.225,49.901 79.520,49.232 79.770 C 48.563 80.019,47.843 80.357,47.631 80.520 C 47.420 80.683,46.786 80.969,46.223 81.156 C 45.659 81.344,45.026 81.637,44.814 81.807 C 44.603 81.978,44.027 82.271,43.534 82.458 C 42.010 83.036,39.315 84.305,39.181 84.509 C 39.110 84.616,38.534 84.880,37.900 85.097 C 37.266 85.314,35.883 85.936,34.827 86.479 C 33.771 87.022,32.417 87.625,31.818 87.820 C 31.220 88.015,30.730 88.259,30.730 88.364 C 30.730 88.468,30.154 88.760,29.449 89.013 C 28.745 89.267,28.169 89.566,28.169 89.679 C 28.169 89.792,28.000 89.885,27.794 89.885 C 27.330 89.885,25.594 90.674,25.163 91.080 C 24.988 91.245,24.470 91.459,24.010 91.557 C 23.551 91.654,23.003 91.879,22.791 92.055 C 22.580 92.231,21.860 92.580,21.191 92.829 C 20.522 93.079,19.974 93.362,19.974 93.458 C 19.974 93.554,19.341 93.832,18.566 94.076 C 17.791 94.321,17.157 94.630,17.157 94.763 C 17.157 94.897,17.052 95.006,16.923 95.006 C 16.793 95.006,16.131 95.256,15.450 95.562 C 14.769 95.867,14.155 96.135,14.085 96.157 C 13.230 96.421,11.780 97.160,11.780 97.331 C 11.780 97.452,11.607 97.485,11.396 97.404 C 11.184 97.323,11.012 97.379,11.012 97.530 C 11.012 97.680,10.522 97.942,9.923 98.113 C 9.325 98.284,8.662 98.555,8.451 98.714 C 8.239 98.874,7.750 99.140,7.362 99.305 C 6.507 99.669,6.545 97.190,7.053 119.590 C 7.514 139.886,7.405 138.937,9.374 139.689 C 9.993 139.926,10.499 140.217,10.499 140.337 C 10.499 140.457,10.759 140.635,11.076 140.733 C 11.392 140.832,11.940 141.111,12.292 141.355 C 12.838 141.732,13.920 142.349,16.517 143.767 C 16.799 143.920,17.087 144.113,17.157 144.195 C 17.228 144.277,17.862 144.622,18.566 144.963 C 19.270 145.303,19.904 145.641,19.974 145.713 C 20.045 145.785,20.560 146.073,21.120 146.353 C 21.679 146.634,22.364 147.065,22.641 147.311 C 22.917 147.558,23.287 147.759,23.461 147.759 C 23.636 147.759,23.931 147.911,24.117 148.097 C 24.304 148.283,24.946 148.651,25.544 148.915 C 26.143 149.178,26.633 149.476,26.633 149.576 C 26.633 149.676,27.151 149.970,27.784 150.231 C 28.417 150.491,28.936 150.792,28.936 150.898 C 28.937 151.005,29.398 151.277,29.962 151.502 C 30.525 151.728,30.986 152.005,30.986 152.119 C 30.986 152.233,31.497 152.522,32.122 152.760 C 32.747 152.999,33.311 153.332,33.375 153.500 C 33.440 153.668,33.966 153.961,34.544 154.152 C 35.122 154.343,35.595 154.591,35.595 154.703 C 35.595 154.814,36.085 155.148,36.684 155.445 C 38.696 156.442,39.819 157.075,40.144 157.396 C 40.321 157.572,40.868 157.861,41.360 158.038 C 41.851 158.216,42.254 158.452,42.254 158.563 C 42.254 158.673,42.628 158.937,43.086 159.149 C 43.544 159.361,44.494 159.883,45.198 160.308 C 45.903 160.734,46.964 161.314,47.556 161.598 C 48.148 161.882,48.782 162.257,48.964 162.431 C 49.147 162.606,49.786 162.966,50.384 163.232 C 50.983 163.497,51.474 163.783,51.475 163.867 C 51.476 163.952,51.995 164.248,52.627 164.526 C 53.260 164.804,53.777 165.104,53.777 165.192 C 53.777 165.280,54.296 165.566,54.930 165.827 C 55.563 166.088,56.082 166.376,56.082 166.467 C 56.082 166.557,56.543 166.839,57.106 167.093 C 57.670 167.348,58.132 167.624,58.133 167.709 C 58.134 167.793,58.653 168.089,59.285 168.367 C 59.918 168.645,60.435 168.945,60.435 169.033 C 60.435 169.120,60.925 169.410,61.524 169.676 C 62.122 169.942,62.835 170.363,63.108 170.611 C 63.382 170.860,63.748 171.063,63.922 171.063 C 64.097 171.063,64.392 171.211,64.578 171.393 C 64.764 171.574,65.378 171.937,65.941 172.199 C 66.504 172.461,67.023 172.745,67.093 172.832 C 67.164 172.918,67.679 173.218,68.239 173.498 C 68.798 173.778,69.375 174.098,69.519 174.208 C 70.089 174.643,72.801 176.184,72.996 176.184 C 73.110 176.184,73.355 176.329,73.541 176.505 C 73.727 176.681,74.341 177.056,74.904 177.337 C 75.467 177.619,76.044 177.975,76.184 178.129 C 76.325 178.284,76.844 178.561,77.337 178.745 C 77.830 178.930,78.352 179.223,78.498 179.398 C 78.644 179.573,79.188 179.894,79.709 180.112 C 80.229 180.329,80.801 180.635,80.980 180.792 C 81.335 181.103,82.487 181.747,84.187 182.586 C 84.786 182.881,85.275 183.217,85.275 183.332 C 85.275 183.447,85.794 183.739,86.428 183.981 C 87.061 184.223,87.580 184.511,87.580 184.621 C 87.580 184.732,88.099 185.020,88.732 185.262 C 89.366 185.504,89.885 185.793,89.885 185.906 C 89.885 186.018,90.259 186.263,90.717 186.452 C 91.175 186.640,92.027 187.115,92.611 187.507 C 93.195 187.899,93.800 188.220,93.955 188.220 C 94.111 188.220,94.238 188.313,94.238 188.427 C 94.238 188.541,94.728 188.847,95.327 189.108 C 95.925 189.370,96.472 189.659,96.543 189.752 C 96.613 189.845,97.593 190.424,98.720 191.037 C 99.846 191.651,100.826 192.230,100.896 192.325 C 100.967 192.420,101.485 192.711,102.049 192.971 C 102.612 193.231,103.131 193.516,103.201 193.605 C 103.271 193.693,103.675 193.942,104.097 194.157 C 104.520 194.372,105.615 194.987,106.530 195.525 C 107.446 196.062,108.656 196.735,109.219 197.020 C 109.782 197.305,110.305 197.627,110.380 197.735 C 110.456 197.843,110.970 198.121,111.524 198.352 C 112.077 198.583,112.650 198.916,112.795 199.091 C 112.941 199.266,113.464 199.564,113.956 199.753 C 114.449 199.943,114.940 200.240,115.047 200.414 C 115.154 200.588,115.643 200.863,116.135 201.025 C 116.627 201.187,117.029 201.417,117.029 201.535 C 117.029 201.653,117.548 201.948,118.182 202.190 C 118.816 202.432,119.334 202.712,119.334 202.813 C 119.334 202.913,119.824 203.211,120.423 203.475 C 121.021 203.739,121.592 204.082,121.690 204.237 C 121.789 204.392,122.337 204.673,122.907 204.861 C 123.477 205.050,123.944 205.300,123.944 205.417 C 123.944 205.624,124.738 206.088,126.953 207.173 C 127.551 207.466,128.041 207.799,128.041 207.912 C 128.041 208.025,128.473 208.312,129.001 208.550 C 129.529 208.788,130.538 209.324,131.242 209.740 C 131.946 210.157,133.007 210.731,133.599 211.017 C 134.192 211.304,134.826 211.679,135.008 211.851 C 135.190 212.023,135.743 212.368,136.236 212.618 C 138.213 213.621,139.710 214.476,140.031 214.784 C 140.217 214.963,140.485 215.109,140.625 215.109 C 140.766 215.109,141.363 215.439,141.951 215.842 C 142.540 216.245,143.281 216.656,143.598 216.756 C 143.915 216.855,144.174 217.018,144.174 217.117 C 144.174 217.217,144.692 217.526,145.324 217.804 C 145.957 218.082,146.475 218.379,146.476 218.463 C 146.478 218.547,146.969 218.834,147.567 219.100 C 148.166 219.366,148.879 219.787,149.152 220.035 C 149.425 220.283,149.791 220.487,149.966 220.487 C 150.141 220.487,150.436 220.639,150.622 220.824 C 150.808 221.010,151.450 221.378,152.049 221.642 C 152.647 221.906,153.137 222.189,153.137 222.271 C 153.137 222.353,153.654 222.648,154.287 222.926 C 154.919 223.204,155.438 223.500,155.439 223.585 C 155.441 223.669,155.931 223.954,156.530 224.218 C 157.129 224.481,157.706 224.836,157.812 225.005 C 157.919 225.175,158.409 225.447,158.901 225.609 C 159.393 225.771,159.795 225.993,159.795 226.101 C 159.795 226.210,160.285 226.515,160.883 226.778 C 161.482 227.042,162.053 227.385,162.151 227.540 C 162.250 227.696,162.797 227.977,163.368 228.165 C 163.938 228.353,164.405 228.608,164.405 228.731 C 164.405 228.855,164.894 229.188,165.493 229.472 C 166.092 229.756,167.157 230.323,167.862 230.733 C 168.566 231.142,169.632 231.718,170.230 232.012 C 170.829 232.306,171.319 232.627,171.320 232.726 C 171.320 232.825,171.839 233.120,172.472 233.380 C 173.105 233.640,173.624 233.950,173.624 234.067 C 173.624 234.184,173.852 234.353,174.131 234.441 C 174.602 234.591,177.264 236.095,177.856 236.547 C 178.001 236.657,178.577 236.977,179.136 237.257 C 179.696 237.538,180.211 237.838,180.282 237.924 C 180.352 238.010,180.871 238.295,181.434 238.557 C 181.997 238.819,182.611 239.181,182.797 239.363 C 182.983 239.544,183.228 239.693,183.342 239.693 C 183.560 239.693,186.363 241.305,186.828 241.698 C 186.977 241.824,187.553 242.139,188.108 242.397 C 188.663 242.656,189.174 242.937,189.245 243.024 C 189.375 243.183,190.954 244.088,194.867 246.247 C 195.353 246.515,195.898 246.869,196.078 247.032 C 196.258 247.196,196.926 247.528,197.563 247.771 C 198.199 248.014,198.720 248.315,198.720 248.441 C 198.720 249.236,200.958 249.129,201.644 248.301 C 201.796 248.117,202.324 247.816,202.817 247.631 C 203.310 247.447,203.828 247.168,203.969 247.011 C 204.110 246.854,204.715 246.508,205.314 246.243 C 205.912 245.978,206.402 245.681,206.402 245.583 C 206.402 245.484,206.834 245.213,207.362 244.979 C 208.311 244.560,210.130 243.516,210.627 243.105 C 210.768 242.989,211.287 242.689,211.780 242.439 C 213.873 241.378,215.269 240.567,215.733 240.145 C 216.006 239.896,216.373 239.693,216.547 239.693 C 216.722 239.693,217.017 239.544,217.203 239.363 C 217.389 239.181,218.003 238.819,218.566 238.557 C 219.129 238.295,219.648 238.010,219.718 237.924 C 219.789 237.838,220.304 237.538,220.864 237.257 C 221.423 236.977,221.999 236.653,222.144 236.536 C 222.601 236.169,224.422 235.110,225.325 234.685 C 225.804 234.461,226.352 234.120,226.544 233.927 C 226.737 233.735,227.296 233.433,227.788 233.255 C 228.279 233.077,228.681 232.841,228.681 232.730 C 228.681 232.620,229.085 232.361,229.577 232.155 C 230.070 231.949,230.474 231.678,230.474 231.552 C 230.474 231.427,230.940 231.170,231.511 230.982 C 232.081 230.794,232.649 230.458,232.773 230.237 C 232.897 230.015,233.062 229.857,233.140 229.886 C 233.370 229.973,235.004 229.235,235.378 228.876 C 235.568 228.693,236.213 228.327,236.812 228.062 C 237.410 227.796,237.900 227.481,237.900 227.362 C 237.900 227.242,238.006 227.145,238.135 227.145 C 238.265 227.145,239.524 226.464,240.934 225.631 C 242.344 224.799,243.736 224.042,244.028 223.949 C 244.320 223.857,244.558 223.679,244.558 223.554 C 244.558 223.430,245.048 223.091,245.647 222.802 C 246.245 222.513,247.311 221.936,248.015 221.520 C 248.720 221.104,249.728 220.568,250.256 220.330 C 250.784 220.092,251.216 219.816,251.216 219.718 C 251.216 219.620,251.677 219.332,252.241 219.078 C 252.804 218.824,253.265 218.534,253.265 218.434 C 253.265 218.333,253.784 218.053,254.417 217.811 C 255.051 217.569,255.570 217.274,255.570 217.156 C 255.570 217.038,255.972 216.808,256.464 216.646 C 256.956 216.484,257.446 216.215,257.552 216.050 C 257.659 215.884,258.207 215.520,258.771 215.239 C 259.334 214.959,259.853 214.657,259.923 214.568 C 259.994 214.479,260.570 214.157,261.204 213.853 C 261.837 213.549,262.702 213.087,263.124 212.827 C 264.039 212.265,268.071 209.917,270.423 208.577 C 271.056 208.216,272.036 207.640,272.599 207.297 C 273.163 206.954,274.113 206.435,274.712 206.142 C 275.310 205.849,275.800 205.518,275.800 205.407 C 275.800 205.295,276.273 205.047,276.852 204.857 C 277.430 204.666,277.959 204.365,278.027 204.188 C 278.095 204.011,278.532 203.740,278.998 203.586 C 279.464 203.433,280.105 203.081,280.423 202.806 C 280.740 202.530,281.134 202.305,281.297 202.305 C 281.460 202.305,281.817 202.102,282.090 201.853 C 282.363 201.605,283.076 201.184,283.675 200.918 C 284.273 200.652,284.764 200.365,284.766 200.281 C 284.767 200.197,285.285 199.901,285.918 199.623 C 286.550 199.344,287.068 199.042,287.068 198.949 C 287.068 198.857,287.423 198.634,287.858 198.454 C 288.292 198.274,288.782 197.997,288.946 197.837 C 289.110 197.677,289.763 197.290,290.397 196.976 C 291.031 196.663,292.125 196.065,292.830 195.648 C 293.534 195.231,294.558 194.646,295.107 194.348 C 295.655 194.050,296.231 193.696,296.387 193.561 C 296.722 193.271,298.028 192.556,299.552 191.830 C 300.150 191.545,300.640 191.215,300.640 191.098 C 300.640 190.980,301.042 190.739,301.534 190.561 C 302.025 190.383,302.574 190.101,302.754 189.933 C 302.934 189.766,303.540 189.398,304.101 189.117 C 304.662 188.836,305.274 188.461,305.460 188.285 C 305.646 188.108,305.941 187.964,306.116 187.964 C 306.291 187.964,306.657 187.761,306.930 187.513 C 307.203 187.264,307.916 186.844,308.515 186.577 C 309.113 186.311,309.604 186.025,309.606 185.941 C 309.608 185.856,310.097 185.557,310.694 185.276 C 311.291 184.995,311.895 184.674,312.036 184.563 C 312.582 184.134,315.273 182.610,315.754 182.457 C 316.033 182.368,316.261 182.198,316.261 182.078 C 316.261 181.958,316.780 181.662,317.414 181.420 C 318.047 181.178,318.566 180.886,318.566 180.771 C 318.566 180.656,319.056 180.320,319.654 180.025 C 321.303 179.211,322.502 178.545,322.831 178.260 C 322.993 178.118,323.656 177.754,324.303 177.449 C 324.951 177.145,325.480 176.817,325.480 176.720 C 325.480 176.623,325.882 176.398,326.374 176.220 C 326.865 176.042,327.414 175.760,327.594 175.593 C 327.774 175.425,328.380 175.058,328.941 174.776 C 329.502 174.494,330.077 174.173,330.218 174.063 C 330.746 173.649,333.489 172.087,333.688 172.087 C 333.801 172.087,334.047 171.943,334.233 171.766 C 334.419 171.590,335.029 171.215,335.588 170.934 C 336.148 170.653,336.724 170.327,336.869 170.211 C 337.398 169.786,339.206 168.750,340.141 168.337 C 340.669 168.103,341.101 167.824,341.101 167.716 C 341.101 167.608,341.620 167.322,342.254 167.080 C 342.887 166.838,343.406 166.539,343.406 166.416 C 343.406 166.294,343.867 166.009,344.430 165.783 C 344.994 165.558,345.455 165.280,345.455 165.165 C 345.455 165.050,345.857 164.824,346.349 164.661 C 346.841 164.499,347.330 164.224,347.437 164.050 C 347.544 163.876,348.035 163.579,348.528 163.390 C 349.020 163.200,349.539 162.908,349.680 162.740 C 349.821 162.573,350.508 162.183,351.207 161.874 C 351.907 161.565,352.541 161.230,352.616 161.130 C 352.691 161.029,353.041 160.782,353.393 160.579 C 355.027 159.638,357.692 158.153,358.387 157.797 C 358.809 157.580,359.213 157.323,359.283 157.225 C 359.353 157.127,359.920 156.772,360.542 156.436 C 361.164 156.101,362.201 155.514,362.847 155.132 C 363.492 154.750,364.453 154.243,364.981 154.005 C 365.509 153.766,365.941 153.486,365.941 153.382 C 365.941 153.278,366.402 153.008,366.965 152.783 C 367.529 152.557,367.990 152.272,367.990 152.150 C 367.990 152.027,368.508 151.728,369.142 151.486 C 369.776 151.244,370.294 150.949,370.294 150.831 C 370.294 150.713,370.697 150.483,371.189 150.321 C 371.681 150.158,372.170 149.883,372.277 149.710 C 372.384 149.536,372.856 149.238,373.325 149.049 C 373.795 148.859,374.315 148.577,374.482 148.423 C 374.648 148.269,375.243 147.913,375.804 147.632 C 376.365 147.351,376.977 146.976,377.163 146.800 C 377.349 146.623,377.644 146.479,377.819 146.479 C 377.994 146.479,378.360 146.277,378.633 146.031 C 378.906 145.784,379.648 145.323,380.282 145.005 C 380.915 144.687,382.010 144.083,382.714 143.662 C 383.419 143.241,384.398 142.699,384.891 142.457 C 385.384 142.215,385.981 141.858,386.218 141.664 C 386.731 141.242,387.943 140.558,389.437 139.845 C 390.035 139.560,390.525 139.231,390.525 139.113 C 390.525 138.995,390.957 138.746,391.485 138.559 C 392.013 138.371,392.652 138.003,392.904 137.739 C 393.156 137.476,393.514 137.260,393.700 137.260 C 394.065 137.260,393.975 125.235,393.609 124.968 C 393.386 124.806,392.776 99.164,392.978 98.435 C 393.117 97.932,392.436 97.439,391.741 97.540 C 391.636 97.555,391.549 97.461,391.549 97.332 C 391.549 97.202,390.973 96.905,390.269 96.671 C 389.565 96.437,388.988 96.165,388.988 96.066 C 388.988 95.967,388.475 95.735,387.847 95.549 C 387.219 95.364,386.583 95.066,386.435 94.887 C 386.287 94.709,385.533 94.364,384.760 94.120 C 383.987 93.877,383.355 93.574,383.355 93.446 C 383.355 93.318,383.235 93.214,383.088 93.214 C 382.941 93.214,382.106 92.883,381.231 92.478 C 380.357 92.074,379.209 91.589,378.681 91.402 C 378.153 91.215,377.721 90.976,377.721 90.871 C 377.721 90.765,377.087 90.479,376.312 90.235 C 375.538 89.991,374.904 89.709,374.904 89.608 C 374.904 89.507,374.328 89.217,373.624 88.964 C 372.919 88.710,372.343 88.423,372.343 88.325 C 372.343 88.228,372.026 88.069,371.639 87.973 C 371.252 87.877,370.301 87.480,369.526 87.090 C 368.752 86.700,367.801 86.302,367.414 86.207 C 367.026 86.112,366.709 85.921,366.709 85.783 C 366.709 85.644,366.589 85.531,366.443 85.531 C 366.188 85.531,364.572 84.823,361.204 83.235 C 359.372 82.372,358.168 81.882,358.031 81.944 C 357.977 81.969,357.861 81.878,357.775 81.741 C 357.651 81.544,356.078 80.738,355.442 80.545 C 355.371 80.524,354.867 80.312,354.322 80.074 C 353.777 79.836,353.229 79.641,353.106 79.641 C 352.982 79.641,352.881 79.519,352.881 79.370 C 352.881 79.221,352.766 79.170,352.625 79.257 C 352.484 79.344,352.369 79.312,352.369 79.185 C 352.369 79.058,351.879 78.809,351.280 78.632 C 350.682 78.455,350.019 78.165,349.808 77.987 C 349.597 77.809,348.857 77.451,348.164 77.192 C 347.471 76.933,346.088 76.308,345.091 75.803 C 344.094 75.298,342.788 74.727,342.190 74.533 C 341.591 74.340,341.101 74.091,341.101 73.980 C 341.101 73.869,340.467 73.578,339.693 73.334 C 338.918 73.090,338.284 72.807,338.284 72.706 C 338.284 72.605,337.708 72.315,337.004 72.062 C 336.300 71.809,335.723 71.509,335.723 71.396 C 335.723 71.283,335.522 71.190,335.275 71.190 C 335.029 71.189,334.078 70.805,333.163 70.336 C 332.247 69.867,331.181 69.404,330.794 69.308 C 330.407 69.211,330.090 69.019,330.090 68.881 C 330.090 68.743,329.970 68.630,329.823 68.630 C 329.523 68.630,326.849 67.435,324.708 66.344 C 323.932 65.948,322.923 65.542,322.468 65.442 C 322.012 65.342,321.639 65.147,321.639 65.009 C 321.639 64.871,321.524 64.830,321.383 64.917 C 321.242 65.004,321.127 64.953,321.127 64.804 C 321.127 64.655,321.026 64.533,320.902 64.533 C 320.778 64.533,320.231 64.338,319.686 64.101 C 319.140 63.864,318.608 63.691,318.502 63.717 C 318.396 63.743,318.310 63.668,318.310 63.549 C 318.310 63.431,317.849 63.182,317.286 62.996 C 316.722 62.810,316.261 62.555,316.261 62.428 C 316.261 62.301,316.146 62.269,316.005 62.356 C 315.864 62.443,315.749 62.407,315.749 62.276 C 315.749 62.145,315.230 61.893,314.597 61.716 C 313.963 61.538,313.444 61.286,313.444 61.155 C 313.444 61.024,313.329 60.988,313.188 61.076 C 313.047 61.163,312.932 61.125,312.932 60.993 C 312.932 60.860,312.242 60.537,311.398 60.273 C 310.554 60.010,309.863 59.720,309.861 59.629 C 309.860 59.537,309.283 59.255,308.579 59.002 C 307.875 58.749,307.298 58.462,307.298 58.366 C 307.298 58.269,306.706 57.996,305.983 57.759 C 305.260 57.523,304.517 57.178,304.333 56.994 C 304.148 56.810,303.473 56.504,302.831 56.315 C 302.189 56.125,301.665 55.892,301.665 55.796 C 301.665 55.700,301.088 55.414,300.384 55.161 C 299.680 54.908,299.104 54.626,299.104 54.535 C 299.104 54.445,298.650 54.234,298.094 54.068 C 297.539 53.902,296.433 53.423,295.636 53.003 C 294.838 52.584,294.025 52.241,293.828 52.241 C 293.631 52.241,293.470 52.125,293.470 51.985 C 293.470 51.844,293.326 51.725,293.150 51.721 C 292.974 51.716,292.254 51.423,291.549 51.070 C 290.845 50.716,289.760 50.248,289.137 50.029 C 288.515 49.810,287.859 49.483,287.679 49.303 C 287.499 49.124,286.827 48.822,286.186 48.632 C 285.544 48.443,285.019 48.209,285.019 48.113 C 285.019 48.017,284.443 47.732,283.739 47.478 C 283.035 47.225,282.458 46.936,282.458 46.836 C 282.458 46.736,281.825 46.455,281.050 46.212 C 280.275 45.968,279.641 45.685,279.641 45.582 C 279.641 45.480,279.094 45.198,278.425 44.956 C 277.756 44.714,276.172 44.019,274.904 43.412 C 273.636 42.805,272.167 42.158,271.639 41.974 C 271.111 41.789,270.679 41.552,270.679 41.447 C 270.679 41.342,270.045 41.056,269.270 40.811 C 268.496 40.567,267.862 40.289,267.862 40.193 C 267.862 40.097,267.314 39.812,266.645 39.559 C 265.976 39.306,265.371 39.026,265.301 38.937 C 265.230 38.848,264.668 38.612,264.051 38.413 C 263.433 38.215,262.787 37.910,262.613 37.737 C 262.440 37.563,261.706 37.228,260.982 36.991 C 260.259 36.754,259.667 36.459,259.667 36.334 C 259.667 36.210,259.547 36.108,259.400 36.108 C 259.101 36.108,256.427 34.912,254.286 33.821 C 253.509 33.426,252.501 33.020,252.045 32.920 C 251.589 32.820,251.216 32.647,251.216 32.537 C 251.216 32.426,250.669 32.129,250.000 31.876 C 249.331 31.624,248.726 31.343,248.656 31.252 C 248.585 31.162,247.951 30.874,247.247 30.612 C 246.543 30.351,245.898 30.032,245.813 29.904 C 245.729 29.776,245.498 29.639,245.301 29.600 C 245.104 29.560,244.618 29.395,244.221 29.233 C 243.825 29.070,243.393 28.937,243.261 28.937 C 243.130 28.937,243.022 28.809,243.022 28.651 C 243.022 28.491,242.796 28.424,242.509 28.499 C 242.227 28.573,242.051 28.545,242.118 28.437 C 242.214 28.282,241.280 27.784,239.949 27.279 C 239.878 27.253,239.264 26.981,238.583 26.676 C 237.902 26.370,237.240 26.120,237.111 26.120 C 236.981 26.120,236.876 26.018,236.876 25.894 C 236.876 25.769,236.284 25.474,235.560 25.237 C 234.837 25.000,234.103 24.665,233.930 24.491 C 233.756 24.318,233.109 24.013,232.492 23.815 C 231.875 23.616,231.312 23.387,231.242 23.307 C 231.172 23.227,230.595 22.937,229.962 22.663 C 229.328 22.389,228.752 22.093,228.681 22.004 C 228.611 21.915,227.948 21.643,227.209 21.400 C 226.469 21.157,225.864 20.870,225.864 20.764 C 225.864 20.657,225.230 20.354,224.456 20.091 C 223.681 19.828,223.047 19.521,223.047 19.409 C 223.047 19.298,222.920 19.206,222.764 19.206 C 222.608 19.206,221.772 18.878,220.907 18.476 C 220.042 18.074,218.931 17.589,218.438 17.398 C 217.945 17.207,217.404 16.917,217.236 16.753 C 217.067 16.588,216.405 16.299,215.763 16.110 C 215.122 15.920,214.597 15.687,214.597 15.591 C 214.597 15.495,214.020 15.209,213.316 14.956 C 212.612 14.703,212.036 14.414,212.036 14.314 C 212.036 14.214,211.391 13.929,210.603 13.681 C 209.815 13.434,209.021 13.082,208.839 12.900 C 208.657 12.717,208.034 12.420,207.455 12.240 C 206.876 12.059,206.402 11.812,206.402 11.690 C 206.402 11.568,206.229 11.535,206.018 11.616 C 205.807 11.697,205.634 11.670,205.634 11.554 C 205.634 11.370,203.613 10.449,203.358 10.517 C 203.303 10.531,203.188 10.441,203.102 10.316 C 202.952 10.099,200.753 9.192,200.504 9.244 C 200.438 9.258,199.923 9.453,199.360 9.679 M393.523 127.081 C 393.462 127.398,393.412 127.138,393.412 126.504 C 393.412 125.871,393.462 125.611,393.523 125.928 C 393.584 126.245,393.584 126.764,393.523 127.081 M7.863 137.068 C 7.802 137.385,7.752 137.125,7.752 136.492 C 7.752 135.858,7.802 135.599,7.863 135.915 C 7.924 136.232,7.924 136.751,7.863 137.068 " stroke="none" fill="#6c14d4" fill-rule="evenodd"></path><path id="path1" d="M393.412 126.504 C 393.412 127.138,393.462 127.398,393.523 127.081 C 393.584 126.764,393.584 126.245,393.523 125.928 C 393.462 125.611,393.412 125.871,393.412 126.504 M7.752 136.492 C 7.752 137.125,7.802 137.385,7.863 137.068 C 7.924 136.751,7.924 136.232,7.863 135.915 C 7.802 135.599,7.752 135.858,7.752 136.492 " stroke="none" fill="#6c1cd4" fill-rule="evenodd"></path><path id="path2" d="" stroke="none" fill="#7014d4" fill-rule="evenodd"></path><path id="path3" d="" stroke="none" fill="#7014d4" fill-rule="evenodd"></path><path id="path4" d="" stroke="none" fill="#7014d4" fill-rule="evenodd"></path></g></svg>