<svg id="svg" version="1.1" xmlns="http://www.w3.org/2000/svg" xmlns:xlink="http://www.w3.org/1999/xlink" width="400" height="255.93625498007967" viewBox="0, 0, 400,255.93625498007967"><g id="svgg"><path id="path0" d="M199.609 9.685 C 199.049 9.906,198.439 10.238,198.253 10.422 C 198.067 10.605,197.808 10.770,197.677 10.787 C 197.345 10.832,196.939 10.938,196.863 10.999 C 196.828 11.027,196.580 11.092,196.312 11.142 C 196.045 11.192,195.730 11.385,195.612 11.571 C 195.495 11.756,195.397 11.820,195.394 11.713 C 195.392 11.605,194.925 11.811,194.357 12.170 C 193.786 12.530,193.184 12.739,193.012 12.636 C 192.800 12.509,192.808 12.580,193.036 12.863 C 193.323 13.217,193.305 13.259,192.908 13.155 C 192.341 13.007,190.525 13.731,190.525 14.105 C 190.525 14.259,190.304 14.305,190.013 14.213 C 189.652 14.098,189.501 14.167,189.501 14.443 C 189.501 14.667,189.353 14.780,189.158 14.705 C 188.969 14.633,188.668 14.750,188.488 14.966 C 188.309 15.182,188.059 15.295,187.933 15.217 C 187.807 15.140,187.178 15.430,186.537 15.863 C 185.895 16.296,185.441 16.535,185.528 16.395 C 185.619 16.247,185.519 16.203,185.290 16.291 C 185.072 16.375,184.969 16.564,185.060 16.712 C 185.159 16.872,185.103 16.904,184.919 16.791 C 184.751 16.687,184.301 16.808,183.920 17.061 C 183.538 17.314,183.001 17.557,182.726 17.602 C 182.450 17.646,182.149 17.805,182.057 17.954 C 181.964 18.103,181.787 18.233,181.662 18.243 C 181.078 18.288,180.038 18.879,180.213 19.066 C 180.321 19.182,180.090 19.218,179.699 19.147 C 179.292 19.074,178.909 19.149,178.803 19.324 C 178.625 19.616,177.989 19.942,177.721 19.879 C 177.650 19.862,177.214 20.118,176.751 20.448 C 176.289 20.777,175.712 21.085,175.471 21.131 C 175.230 21.178,174.974 21.238,174.904 21.266 C 174.834 21.293,174.690 21.302,174.584 21.285 C 174.478 21.268,174.392 21.380,174.392 21.532 C 174.392 21.685,174.248 21.758,174.072 21.695 C 173.627 21.535,172.807 21.994,172.995 22.298 C 173.080 22.436,173.054 22.531,172.938 22.511 C 172.244 22.391,171.509 22.601,171.063 23.047 C 170.753 23.357,170.549 23.433,170.547 23.239 C 170.544 23.027,170.461 23.048,170.300 23.303 C 170.166 23.515,169.938 23.702,169.792 23.720 C 169.646 23.737,169.497 23.775,169.462 23.803 C 169.427 23.832,169.186 23.895,168.928 23.944 C 168.669 23.993,168.265 24.195,168.031 24.393 C 167.797 24.591,167.029 24.964,166.325 25.221 C 165.621 25.479,164.987 25.763,164.917 25.854 C 164.846 25.945,164.213 26.232,163.508 26.493 C 162.804 26.754,162.136 27.123,162.023 27.312 C 161.910 27.502,161.631 27.657,161.401 27.657 C 160.814 27.657,159.283 28.235,159.283 28.456 C 159.283 28.557,158.707 28.831,158.003 29.065 C 157.298 29.299,156.722 29.587,156.722 29.706 C 156.722 29.824,156.376 29.997,155.954 30.090 C 155.531 30.182,155.186 30.361,155.186 30.486 C 155.186 30.611,155.013 30.647,154.802 30.566 C 154.590 30.485,154.417 30.547,154.417 30.702 C 154.417 30.858,154.238 30.986,154.018 30.986 C 153.782 30.986,153.693 31.106,153.802 31.282 C 153.905 31.448,153.873 31.508,153.729 31.419 C 153.399 31.216,151.010 32.118,150.885 32.493 C 150.832 32.650,150.578 32.778,150.320 32.778 C 149.640 32.778,149.022 33.055,149.170 33.294 C 149.239 33.407,149.087 33.444,148.830 33.377 C 148.574 33.310,148.214 33.436,148.030 33.657 C 147.847 33.878,147.538 34.059,147.344 34.059 C 147.150 34.059,146.991 34.179,146.991 34.326 C 146.991 34.473,146.847 34.575,146.671 34.552 C 145.848 34.445,145.563 34.565,145.967 34.848 C 146.263 35.055,146.212 35.077,145.743 34.945 C 145.349 34.833,145.059 34.895,144.920 35.120 C 144.802 35.311,144.614 35.477,144.504 35.489 C 144.178 35.525,143.309 35.869,142.894 36.127 C 142.682 36.258,142.250 36.477,141.933 36.614 C 141.617 36.751,141.355 37.010,141.353 37.190 C 141.350 37.438,141.303 37.442,141.154 37.208 C 141.004 36.973,140.809 36.987,140.325 37.268 C 139.977 37.470,139.492 37.708,139.247 37.797 C 139.003 37.886,138.876 38.078,138.967 38.225 C 139.061 38.376,139.008 38.415,138.846 38.315 C 138.688 38.217,138.008 38.414,137.334 38.752 C 136.659 39.090,135.674 39.507,135.145 39.678 C 134.615 39.850,134.248 40.096,134.328 40.226 C 134.408 40.355,134.229 40.461,133.931 40.461 C 133.586 40.461,133.455 40.569,133.571 40.757 C 133.687 40.944,133.641 40.983,133.447 40.863 C 133.278 40.758,132.977 40.808,132.778 40.973 C 132.580 41.138,132.301 41.202,132.159 41.114 C 132.017 41.026,131.666 41.189,131.379 41.476 C 131.093 41.763,130.829 41.989,130.794 41.979 C 130.759 41.970,130.405 42.085,130.009 42.236 C 129.612 42.386,129.236 42.510,129.172 42.510 C 129.108 42.510,128.568 42.819,127.972 43.197 C 127.376 43.575,126.687 43.870,126.440 43.853 C 126.194 43.836,125.992 43.921,125.992 44.042 C 125.992 44.163,125.655 44.336,125.242 44.426 C 124.829 44.517,124.355 44.755,124.188 44.956 C 124.022 45.157,123.764 45.246,123.615 45.154 C 123.440 45.045,123.410 45.159,123.531 45.477 C 123.681 45.870,123.654 45.903,123.395 45.647 C 123.011 45.265,122.566 45.218,122.791 45.583 C 122.878 45.724,122.697 45.839,122.386 45.839 C 122.077 45.839,121.670 46.040,121.483 46.287 C 121.255 46.588,121.140 46.624,121.135 46.397 C 121.129 46.160,120.905 46.218,120.383 46.589 C 119.974 46.881,119.542 47.120,119.423 47.120 C 119.304 47.121,118.653 47.402,117.978 47.744 C 117.302 48.087,116.344 48.502,115.848 48.665 C 115.352 48.829,115.013 49.029,115.094 49.110 C 115.220 49.236,113.864 49.841,113.056 50.019 C 112.913 50.051,112.380 50.333,111.873 50.646 C 111.366 50.960,110.763 51.216,110.533 51.216 C 110.303 51.216,110.115 51.332,110.115 51.472 C 110.115 51.613,109.899 51.729,109.634 51.729 C 109.370 51.729,109.011 51.900,108.837 52.110 C 108.663 52.320,108.418 52.428,108.292 52.350 C 108.166 52.272,108.000 52.371,107.924 52.571 C 107.837 52.798,107.551 52.888,107.157 52.813 C 106.812 52.747,106.530 52.808,106.530 52.948 C 106.530 53.210,103.996 54.429,103.642 54.337 C 103.532 54.308,103.376 54.458,103.295 54.670 C 103.214 54.881,103.056 54.998,102.945 54.930 C 102.660 54.754,101.049 55.462,100.655 55.936 C 100.474 56.154,100.224 56.269,100.099 56.192 C 99.974 56.115,99.872 56.174,99.872 56.323 C 99.872 56.472,99.786 56.580,99.680 56.564 C 99.574 56.547,99.430 56.556,99.360 56.583 C 99.289 56.610,98.949 56.684,98.603 56.748 C 98.257 56.811,97.911 56.957,97.834 57.072 C 97.758 57.187,97.148 57.488,96.479 57.741 C 95.810 57.993,95.262 58.281,95.262 58.380 C 95.262 58.606,94.082 59.155,93.597 59.155 C 93.399 59.155,92.655 59.498,91.945 59.917 C 91.234 60.335,90.653 60.609,90.653 60.525 C 90.653 60.441,90.480 60.516,90.269 60.691 C 90.058 60.867,89.885 60.916,89.885 60.802 C 89.885 60.687,89.716 60.817,89.509 61.091 C 89.302 61.364,89.129 61.487,89.125 61.364 C 89.120 61.241,88.944 61.284,88.732 61.460 C 88.521 61.635,88.348 61.700,88.348 61.604 C 88.348 61.508,87.801 61.722,87.132 62.079 C 86.463 62.436,85.224 63.039,84.379 63.417 C 83.534 63.796,82.758 64.231,82.654 64.383 C 82.551 64.536,82.464 64.570,82.462 64.460 C 82.460 64.349,82.199 64.402,81.882 64.578 C 81.565 64.754,81.220 64.873,81.114 64.843 C 81.008 64.813,80.922 64.891,80.922 65.015 C 80.922 65.216,80.719 65.308,79.770 65.537 C 79.629 65.572,78.995 65.874,78.361 66.211 C 76.563 67.164,73.139 68.744,72.855 68.751 C 72.714 68.755,72.441 68.908,72.248 69.091 C 72.055 69.274,71.556 69.492,71.139 69.575 C 70.629 69.677,70.488 69.793,70.709 69.929 C 70.930 70.066,70.793 70.185,70.281 70.298 C 68.893 70.605,67.093 71.290,67.093 71.511 C 67.093 71.631,66.748 71.850,66.325 71.997 C 65.903 72.145,65.557 72.376,65.557 72.511 C 65.557 72.647,65.443 72.687,65.303 72.601 C 65.022 72.427,62.484 73.512,62.484 73.806 C 62.484 73.908,62.326 73.931,62.133 73.857 C 61.940 73.783,61.714 73.900,61.630 74.117 C 61.543 74.345,61.313 74.447,61.085 74.360 C 60.869 74.277,60.691 74.337,60.691 74.492 C 60.691 74.648,60.605 74.757,60.499 74.734 C 60.135 74.654,58.899 75.088,58.899 75.295 C 58.899 75.410,58.323 75.694,57.618 75.928 C 56.914 76.162,56.338 76.434,56.338 76.533 C 56.338 76.632,55.819 76.866,55.186 77.053 C 54.552 77.240,54.033 77.503,54.033 77.636 C 54.033 77.770,53.928 77.814,53.799 77.734 C 53.670 77.655,53.526 77.677,53.479 77.783 C 53.320 78.142,50.930 79.141,50.648 78.967 C 50.481 78.863,50.442 78.913,50.552 79.090 C 50.658 79.261,50.578 79.385,50.363 79.385 C 50.158 79.385,49.922 79.566,49.837 79.786 C 49.753 80.006,49.566 80.114,49.423 80.025 C 49.029 79.781,48.111 80.149,48.310 80.472 C 48.421 80.652,48.331 80.694,48.057 80.589 C 47.823 80.499,47.631 80.537,47.631 80.674 C 47.631 80.810,47.409 80.922,47.137 80.922 C 46.866 80.922,46.490 81.075,46.303 81.263 C 46.115 81.450,45.819 81.556,45.644 81.497 C 45.470 81.439,45.327 81.529,45.327 81.696 C 45.327 81.864,45.154 81.935,44.942 81.854 C 44.731 81.773,44.558 81.816,44.558 81.949 C 44.558 82.083,44.271 82.265,43.920 82.353 C 43.569 82.441,43.338 82.604,43.406 82.715 C 43.475 82.826,43.353 82.985,43.135 83.069 C 42.908 83.156,42.806 83.113,42.896 82.968 C 42.982 82.828,42.930 82.714,42.781 82.714 C 42.632 82.714,42.510 82.830,42.510 82.971 C 42.510 83.111,42.423 83.208,42.318 83.185 C 42.212 83.163,41.801 83.278,41.405 83.441 C 41.008 83.605,40.582 83.739,40.457 83.739 C 40.332 83.739,40.138 83.892,40.026 84.078 C 39.837 84.391,39.439 84.611,38.796 84.756 C 38.656 84.788,38.310 84.941,38.028 85.096 C 37.746 85.252,37.352 85.406,37.151 85.439 C 36.775 85.501,35.055 86.327,34.827 86.556 C 34.263 87.120,33.717 87.430,33.926 87.068 C 34.054 86.846,33.901 86.900,33.563 87.196 C 33.242 87.478,32.772 87.674,32.517 87.632 C 32.263 87.590,31.981 87.676,31.890 87.824 C 31.799 87.971,31.488 88.092,31.199 88.092 C 30.847 88.092,30.722 88.214,30.817 88.463 C 30.913 88.711,30.837 88.787,30.589 88.692 C 30.385 88.614,30.218 88.674,30.218 88.825 C 30.218 88.976,30.046 89.034,29.836 88.954 C 29.618 88.870,29.386 88.983,29.297 89.217 C 29.210 89.442,29.031 89.559,28.899 89.477 C 28.767 89.395,28.520 89.437,28.350 89.569 C 28.180 89.701,27.436 90.022,26.697 90.282 C 25.957 90.541,25.352 90.837,25.352 90.938 C 25.352 91.040,24.808 91.331,24.144 91.584 C 23.479 91.838,22.533 92.251,22.041 92.502 C 21.549 92.753,20.998 92.958,20.817 92.958 C 20.635 92.958,20.487 93.080,20.487 93.229 C 20.487 93.378,20.383 93.436,20.257 93.358 C 20.131 93.281,19.959 93.396,19.875 93.616 C 19.791 93.835,19.606 93.943,19.464 93.855 C 19.322 93.767,19.206 93.825,19.206 93.982 C 19.206 94.140,19.094 94.199,18.958 94.115 C 18.641 93.919,16.342 95.130,16.580 95.368 C 16.678 95.466,16.560 95.470,16.317 95.377 C 16.069 95.281,15.877 95.328,15.877 95.483 C 15.877 95.635,15.705 95.693,15.495 95.612 C 15.277 95.528,15.046 95.641,14.956 95.875 C 14.870 96.100,14.696 96.220,14.570 96.142 C 14.444 96.064,14.341 96.129,14.341 96.287 C 14.341 96.444,14.225 96.502,14.085 96.415 C 13.944 96.328,13.828 96.366,13.828 96.499 C 13.828 96.633,13.684 96.737,13.508 96.730 C 12.674 96.699,12.297 96.826,12.356 97.119 C 12.391 97.295,12.272 97.409,12.092 97.373 C 11.912 97.336,11.393 97.504,10.940 97.746 C 10.486 97.988,10.058 98.193,9.987 98.201 C 9.917 98.209,9.715 98.307,9.539 98.419 C 9.363 98.530,9.219 98.535,9.219 98.430 C 9.219 98.324,9.050 98.461,8.843 98.735 C 8.636 99.008,8.463 99.131,8.459 99.008 C 8.454 98.885,8.278 98.928,8.067 99.104 C 7.855 99.279,7.682 99.347,7.682 99.254 C 7.682 99.161,7.443 99.214,7.150 99.370 C 6.632 99.648,6.622 99.785,6.754 104.693 C 6.829 107.464,6.898 111.546,6.906 113.764 C 6.915 115.983,7.021 117.798,7.142 117.798 C 7.263 117.798,7.302 120.102,7.229 122.919 C 7.154 125.851,7.195 128.041,7.326 128.041 C 7.452 128.041,7.565 130.202,7.578 132.843 C 7.605 138.464,7.703 138.827,9.405 139.629 C 10.077 139.946,10.721 140.351,10.835 140.530 C 10.949 140.709,11.138 140.797,11.254 140.725 C 11.371 140.653,11.607 140.765,11.780 140.973 C 11.953 141.181,12.196 141.288,12.321 141.211 C 12.446 141.134,12.548 141.196,12.548 141.348 C 12.548 141.598,13.895 142.277,14.000 142.079 C 14.024 142.034,14.326 142.263,14.671 142.587 C 15.016 142.911,15.544 143.195,15.844 143.218 C 16.144 143.240,16.389 143.407,16.389 143.588 C 16.389 143.770,16.548 143.918,16.742 143.918 C 16.936 143.918,17.241 144.095,17.421 144.311 C 17.600 144.527,17.873 144.661,18.028 144.608 C 18.183 144.556,18.435 144.683,18.588 144.891 C 18.741 145.098,19.220 145.281,19.654 145.297 C 20.238 145.319,20.375 145.406,20.185 145.636 C 19.996 145.865,20.069 145.919,20.464 145.843 C 20.815 145.776,20.999 145.872,20.999 146.125 C 20.999 146.336,21.114 146.438,21.255 146.351 C 21.396 146.264,21.511 146.315,21.511 146.464 C 21.511 146.613,21.684 146.735,21.895 146.735 C 22.106 146.735,22.279 146.831,22.279 146.949 C 22.279 147.067,22.942 147.494,23.752 147.898 C 24.561 148.303,25.282 148.709,25.352 148.802 C 25.423 148.895,25.739 149.052,26.056 149.150 C 26.373 149.249,26.633 149.424,26.633 149.539 C 26.633 149.746,27.605 150.145,27.977 150.092 C 28.083 150.076,28.169 150.179,28.169 150.320 C 28.169 150.461,28.336 150.576,28.540 150.576 C 28.745 150.576,29.031 150.778,29.176 151.024 C 29.406 151.415,29.473 151.423,29.697 151.088 C 29.924 150.748,29.954 150.749,29.958 151.094 C 29.962 151.499,31.488 152.454,32.132 152.454 C 32.334 152.454,32.559 152.608,32.631 152.796 C 32.703 152.983,32.997 153.137,33.283 153.137 C 33.571 153.137,33.803 153.306,33.803 153.516 C 33.803 153.725,34.111 153.973,34.488 154.067 C 34.865 154.162,35.660 154.568,36.254 154.969 C 36.848 155.370,37.515 155.698,37.736 155.698 C 37.957 155.698,38.262 155.928,38.412 156.210 C 38.563 156.492,38.895 156.722,39.150 156.722 C 39.405 156.722,39.948 157.010,40.357 157.363 C 40.766 157.715,41.476 158.127,41.933 158.279 C 42.391 158.430,42.766 158.633,42.766 158.728 C 42.766 158.824,43.140 159.066,43.598 159.266 C 44.056 159.466,44.736 159.853,45.110 160.127 C 45.503 160.414,45.925 160.540,46.110 160.426 C 46.317 160.298,46.365 160.333,46.247 160.524 C 46.147 160.686,46.187 160.819,46.336 160.819 C 46.485 160.819,46.665 160.819,46.735 160.819 C 46.805 160.819,47.076 161.033,47.337 161.293 C 47.597 161.554,48.173 161.927,48.617 162.124 C 49.061 162.320,49.424 162.575,49.424 162.690 C 49.424 162.804,49.526 162.835,49.651 162.758 C 49.776 162.681,50.019 162.788,50.192 162.996 C 50.365 163.204,50.608 163.311,50.733 163.234 C 50.858 163.157,50.960 163.216,50.960 163.365 C 50.960 163.514,51.119 163.636,51.313 163.636 C 51.507 163.636,51.814 163.814,51.994 164.032 C 52.175 164.250,52.483 164.366,52.679 164.291 C 52.875 164.216,52.967 164.265,52.884 164.400 C 52.800 164.535,53.030 164.721,53.395 164.812 C 53.759 164.903,53.995 165.040,53.919 165.116 C 53.843 165.192,54.414 165.541,55.188 165.891 C 55.961 166.241,56.594 166.632,56.594 166.761 C 56.594 166.890,56.696 166.933,56.821 166.855 C 56.946 166.778,57.191 166.887,57.365 167.096 C 57.539 167.306,57.904 167.478,58.177 167.478 C 58.450 167.478,58.612 167.577,58.537 167.698 C 58.406 167.909,59.674 168.553,60.878 168.887 C 61.192 168.974,61.423 169.182,61.390 169.350 C 61.358 169.517,61.532 169.638,61.777 169.619 C 62.022 169.600,62.159 169.686,62.082 169.811 C 62.005 169.936,62.161 170.038,62.429 170.038 C 62.697 170.038,63.126 170.270,63.382 170.552 C 63.637 170.835,63.900 171.013,63.965 170.947 C 64.030 170.882,64.473 171.126,64.948 171.488 C 65.424 171.851,65.813 172.068,65.813 171.971 C 65.813 171.874,65.994 171.975,66.215 172.197 C 66.437 172.418,66.789 172.599,66.999 172.599 C 67.212 172.599,67.303 172.724,67.205 172.883 C 67.087 173.074,67.207 173.110,67.574 172.994 C 67.970 172.868,68.118 172.929,68.118 173.222 C 68.118 173.443,68.204 173.603,68.310 173.579 C 68.598 173.512,69.910 174.190,69.910 174.405 C 69.910 174.612,71.973 175.531,72.279 175.460 C 72.385 175.436,72.471 175.585,72.471 175.792 C 72.471 176.009,72.623 176.110,72.829 176.031 C 73.026 175.955,73.370 176.157,73.597 176.480 C 73.823 176.803,74.008 176.974,74.008 176.861 C 74.008 176.747,74.409 176.903,74.899 177.206 C 75.390 177.509,75.907 177.685,76.049 177.598 C 76.199 177.505,76.243 177.603,76.155 177.834 C 75.990 178.264,76.958 178.773,77.529 178.556 C 77.705 178.489,77.849 178.562,77.849 178.718 C 77.849 178.874,78.009 179.001,78.206 179.001 C 78.402 179.001,78.631 179.181,78.716 179.402 C 78.800 179.622,78.986 179.730,79.128 179.643 C 79.269 179.555,79.385 179.612,79.385 179.770 C 79.385 179.927,79.501 179.985,79.641 179.898 C 79.782 179.811,79.898 179.861,79.898 180.010 C 79.898 180.160,80.070 180.282,80.282 180.282 C 80.493 180.282,80.896 180.512,81.178 180.794 C 81.460 181.076,81.823 181.306,81.986 181.306 C 82.149 181.306,82.653 181.589,83.107 181.935 C 83.560 182.281,84.004 182.492,84.091 182.405 C 84.179 182.317,84.251 182.379,84.251 182.544 C 84.251 182.708,84.418 182.843,84.622 182.843 C 84.827 182.843,85.086 182.990,85.199 183.171 C 85.311 183.352,86.161 183.868,87.088 184.318 C 88.014 184.768,89.201 185.427,89.724 185.782 C 90.247 186.137,90.763 186.428,90.870 186.428 C 90.977 186.428,91.606 186.771,92.267 187.190 C 92.929 187.610,93.470 187.893,93.470 187.820 C 93.470 187.747,93.787 187.984,94.174 188.347 C 94.569 188.717,95.075 188.957,95.327 188.894 C 95.595 188.826,95.775 188.925,95.775 189.140 C 95.775 189.339,95.948 189.501,96.159 189.501 C 96.370 189.501,96.543 189.623,96.543 189.772 C 96.543 189.921,96.658 189.972,96.799 189.885 C 96.940 189.798,97.055 189.839,97.055 189.977 C 97.055 190.115,97.401 190.304,97.823 190.397 C 98.246 190.490,98.592 190.663,98.592 190.782 C 98.592 190.900,98.995 191.131,99.488 191.293 C 99.981 191.456,100.384 191.715,100.384 191.868 C 100.384 192.021,100.462 192.069,100.557 191.974 C 100.652 191.879,100.998 192.052,101.325 192.360 C 101.653 192.667,101.921 192.823,101.921 192.707 C 101.921 192.590,102.151 192.703,102.433 192.958 C 102.714 193.213,102.945 193.320,102.945 193.197 C 102.945 193.073,103.124 193.228,103.344 193.541 C 103.563 193.854,103.857 194.110,103.997 194.110 C 104.138 194.110,104.669 194.393,105.178 194.739 C 105.687 195.085,106.199 195.309,106.317 195.236 C 106.434 195.164,106.530 195.223,106.530 195.367 C 106.530 195.512,106.722 195.557,106.956 195.467 C 107.243 195.357,107.322 195.402,107.197 195.603 C 107.034 195.867,107.338 196.015,107.678 195.839 C 107.745 195.803,107.984 196.036,108.207 196.355 C 108.431 196.674,108.721 196.869,108.852 196.788 C 108.984 196.707,109.091 196.750,109.091 196.884 C 109.091 197.086,109.992 197.463,110.670 197.546 C 110.764 197.558,110.937 197.672,111.054 197.800 C 111.181 197.938,111.121 197.948,110.908 197.825 C 110.669 197.686,110.608 197.713,110.727 197.905 C 110.825 198.064,111.361 198.316,111.919 198.466 C 112.476 198.617,112.932 198.851,112.932 198.988 C 112.932 199.124,113.384 199.417,113.937 199.638 C 114.489 199.859,115.000 200.193,115.072 200.380 C 115.144 200.567,115.564 200.799,116.005 200.896 C 116.447 200.993,116.870 201.235,116.946 201.433 C 117.022 201.631,117.242 201.793,117.435 201.793 C 117.628 201.793,118.154 202.017,118.606 202.291 C 119.057 202.566,119.538 202.721,119.676 202.636 C 119.813 202.551,119.847 202.609,119.751 202.764 C 119.655 202.920,119.824 203.180,120.126 203.342 C 120.571 203.580,120.642 203.570,120.498 203.291 C 120.401 203.100,120.486 203.147,120.688 203.393 C 120.890 203.640,121.251 203.841,121.490 203.841 C 121.729 203.841,121.854 203.956,121.767 204.097 C 121.680 204.238,121.846 204.353,122.136 204.353 C 122.426 204.353,122.663 204.466,122.663 204.605 C 122.663 204.743,122.951 204.928,123.303 205.016 C 123.656 205.105,123.944 205.280,123.944 205.405 C 123.944 205.531,124.030 205.616,124.136 205.593 C 124.472 205.522,125.345 205.967,125.557 206.319 C 125.670 206.505,125.879 206.658,126.023 206.658 C 126.167 206.658,126.458 206.831,126.669 207.042 C 126.880 207.254,127.275 207.426,127.547 207.426 C 127.824 207.426,128.041 207.602,128.041 207.826 C 128.041 208.045,128.156 208.154,128.297 208.067 C 128.438 207.980,128.553 208.005,128.553 208.123 C 128.553 208.500,130.048 208.951,130.185 208.616 C 130.251 208.455,130.314 208.557,130.325 208.842 C 130.340 209.223,130.694 209.497,131.644 209.866 C 132.357 210.143,133.124 210.572,133.348 210.819 C 133.571 211.066,133.967 211.268,134.227 211.268 C 134.486 211.268,134.699 211.357,134.699 211.465 C 134.699 211.709,136.513 212.700,136.798 212.612 C 136.911 212.577,137.004 212.663,137.004 212.804 C 137.004 212.945,137.177 213.060,137.388 213.060 C 137.599 213.060,137.772 213.182,137.772 213.331 C 137.772 213.481,137.887 213.531,138.028 213.444 C 138.169 213.357,138.284 213.408,138.284 213.557 C 138.284 213.706,138.457 213.828,138.668 213.828 C 138.880 213.828,139.295 214.071,139.591 214.367 C 139.888 214.663,140.262 214.934,140.423 214.968 C 141.168 215.126,142.125 215.634,142.125 215.871 C 142.125 216.015,142.248 216.133,142.397 216.133 C 142.546 216.133,142.593 215.989,142.502 215.813 C 142.412 215.637,142.549 215.745,142.807 216.054 C 143.066 216.362,143.437 216.650,143.633 216.694 C 143.828 216.738,144.274 217.030,144.625 217.345 C 144.976 217.659,145.359 217.856,145.477 217.784 C 145.595 217.711,145.901 217.857,146.156 218.108 C 146.411 218.360,147.077 218.796,147.637 219.078 C 148.197 219.360,148.729 219.691,148.819 219.815 C 148.909 219.939,149.103 219.965,149.251 219.874 C 149.399 219.782,149.624 219.893,149.751 220.120 C 149.878 220.347,150.087 220.538,150.215 220.544 C 150.609 220.564,151.601 221.071,151.601 221.252 C 151.601 221.346,152.177 221.693,152.881 222.023 C 153.585 222.353,154.161 222.715,154.161 222.827 C 154.161 222.939,154.334 222.965,154.545 222.884 C 154.757 222.803,154.930 222.864,154.930 223.020 C 154.930 223.176,155.090 223.303,155.286 223.303 C 155.483 223.303,155.707 223.470,155.785 223.673 C 155.863 223.877,156.394 224.183,156.965 224.354 C 157.536 224.525,158.003 224.768,158.003 224.895 C 158.003 225.021,158.541 225.363,159.200 225.654 C 159.858 225.946,160.629 226.400,160.913 226.664 C 161.196 226.929,161.579 227.145,161.764 227.145 C 161.949 227.145,162.100 227.272,162.100 227.428 C 162.100 227.584,162.270 227.646,162.477 227.567 C 162.686 227.487,162.964 227.617,163.099 227.860 C 163.234 228.100,163.381 228.260,163.426 228.215 C 163.604 228.037,164.917 228.686,164.917 228.952 C 164.917 229.108,165.059 229.189,165.232 229.131 C 165.405 229.073,165.829 229.288,166.175 229.608 C 166.520 229.928,166.885 230.139,166.985 230.077 C 167.086 230.015,167.234 230.137,167.315 230.347 C 167.395 230.558,167.673 230.730,167.931 230.730 C 168.188 230.730,168.538 230.868,168.707 231.037 C 168.876 231.206,169.014 231.246,169.014 231.126 C 169.014 231.006,169.227 231.154,169.488 231.454 C 169.749 231.755,170.037 231.926,170.128 231.835 C 170.220 231.744,170.294 231.813,170.294 231.989 C 170.294 232.165,170.439 232.260,170.615 232.200 C 170.791 232.140,171.108 232.284,171.319 232.520 C 171.530 232.756,172.187 233.161,172.779 233.420 C 173.371 233.679,173.806 233.970,173.747 234.067 C 173.687 234.164,174.153 234.456,174.783 234.716 C 175.413 234.976,175.928 235.272,175.928 235.375 C 175.928 235.544,176.987 235.985,177.150 235.884 C 177.188 235.860,177.464 236.070,177.765 236.349 C 178.065 236.629,178.408 236.798,178.528 236.724 C 178.647 236.650,178.745 236.724,178.745 236.888 C 178.745 237.053,178.923 237.118,179.143 237.034 C 179.361 236.950,179.475 236.987,179.395 237.116 C 179.315 237.245,179.482 237.425,179.766 237.515 C 180.050 237.605,180.282 237.805,180.282 237.960 C 180.282 238.115,180.355 238.168,180.445 238.078 C 180.535 237.989,180.910 238.114,181.278 238.356 C 182.394 239.089,182.929 239.402,183.867 239.868 C 184.360 240.113,184.915 240.462,185.102 240.643 C 185.288 240.825,185.565 240.973,185.718 240.973 C 185.870 240.973,186.352 241.244,186.788 241.574 C 187.223 241.905,188.012 242.317,188.540 242.491 C 189.069 242.664,189.501 242.919,189.501 243.057 C 189.501 243.195,189.616 243.237,189.757 243.150 C 189.898 243.063,190.013 243.111,190.013 243.256 C 190.013 243.537,191.545 244.444,191.869 244.355 C 191.975 244.326,192.061 244.424,192.061 244.573 C 192.061 244.723,192.167 244.779,192.297 244.699 C 192.426 244.619,192.725 244.746,192.960 244.982 C 193.324 245.345,193.427 245.355,193.645 245.048 C 193.850 244.760,193.873 244.777,193.760 245.131 C 193.669 245.412,193.801 245.673,194.120 245.844 C 194.396 245.992,194.626 246.022,194.630 245.912 C 194.634 245.801,194.753 245.908,194.893 246.148 C 195.034 246.389,195.549 246.661,196.038 246.753 C 196.566 246.852,196.927 247.070,196.927 247.291 C 196.927 247.495,197.042 247.590,197.183 247.503 C 197.324 247.416,197.439 247.458,197.439 247.596 C 197.439 247.734,197.784 247.922,198.204 248.015 C 198.625 248.107,199.047 248.307,199.140 248.459 C 199.250 248.636,199.182 248.661,198.951 248.530 C 198.706 248.390,198.673 248.409,198.848 248.589 C 199.237 248.992,200.256 249.244,200.256 248.937 C 200.256 248.791,200.448 248.745,200.682 248.835 C 200.967 248.944,201.047 248.900,200.925 248.702 C 200.805 248.508,200.879 248.458,201.139 248.558 C 201.358 248.642,201.536 248.577,201.536 248.414 C 201.536 248.250,201.882 247.996,202.305 247.849 C 202.737 247.698,203.075 247.396,203.077 247.158 C 203.080 246.827,203.128 246.810,203.298 247.078 C 203.469 247.347,203.656 247.281,204.164 246.774 C 204.520 246.417,204.882 246.197,204.969 246.284 C 205.056 246.370,205.307 246.219,205.527 245.948 C 205.748 245.677,205.854 245.601,205.763 245.779 C 205.672 245.957,206.026 245.813,206.548 245.459 C 207.070 245.104,207.604 244.814,207.733 244.814 C 207.863 244.814,207.898 244.699,207.810 244.558 C 207.723 244.417,207.745 244.293,207.859 244.283 C 208.590 244.213,209.063 244.042,209.219 243.790 C 209.318 243.630,209.560 243.472,209.757 243.437 C 209.954 243.403,210.519 243.123,211.012 242.815 C 211.504 242.507,212.001 242.255,212.115 242.254 C 212.229 242.254,212.251 242.138,212.164 241.997 C 212.077 241.857,212.243 241.741,212.533 241.741 C 212.823 241.741,213.060 241.619,213.060 241.470 C 213.060 241.321,213.167 241.265,213.299 241.346 C 213.430 241.427,213.610 241.375,213.700 241.229 C 213.790 241.084,213.951 241.019,214.058 241.085 C 214.165 241.151,214.625 240.865,215.081 240.449 C 215.536 240.033,216.118 239.693,216.374 239.693 C 216.629 239.693,216.967 239.538,217.125 239.348 C 217.282 239.159,217.901 238.787,218.500 238.523 C 219.100 238.259,219.763 237.867,219.974 237.652 C 220.186 237.436,220.531 237.222,220.743 237.177 C 220.954 237.131,221.165 236.986,221.213 236.855 C 221.260 236.724,221.404 236.682,221.533 236.761 C 221.662 236.841,221.767 236.807,221.767 236.686 C 221.767 236.565,222.155 236.326,222.629 236.155 C 223.450 235.858,224.117 235.399,225.199 234.387 C 225.468 234.136,225.605 234.075,225.504 234.251 C 225.270 234.663,225.543 234.663,226.002 234.251 C 226.655 233.665,227.033 233.419,227.411 233.335 C 227.617 233.290,227.821 233.152,227.865 233.030 C 227.910 232.907,228.130 232.878,228.356 232.964 C 228.609 233.062,228.701 233.018,228.597 232.849 C 228.437 232.591,229.102 232.139,229.513 232.226 C 229.619 232.248,229.706 232.144,229.706 231.995 C 229.706 231.846,229.822 231.796,229.963 231.883 C 230.105 231.971,230.284 231.879,230.361 231.679 C 230.438 231.479,230.955 231.165,231.511 230.982 C 232.067 230.798,232.522 230.551,232.522 230.433 C 232.522 230.314,232.695 230.218,232.907 230.218 C 233.118 230.218,233.291 230.102,233.291 229.962 C 233.291 229.821,233.422 229.706,233.583 229.706 C 233.743 229.706,234.040 229.504,234.242 229.257 C 234.444 229.011,234.536 228.953,234.447 229.129 C 234.214 229.589,234.702 229.525,235.101 229.043 C 235.287 228.820,235.934 228.404,236.540 228.120 C 237.206 227.806,237.574 227.487,237.473 227.309 C 237.381 227.148,237.397 227.098,237.507 227.198 C 237.761 227.427,239.181 226.712,239.181 226.355 C 239.181 226.209,239.297 226.162,239.438 226.249 C 239.580 226.337,240.013 226.200,240.400 225.944 C 241.835 224.997,242.136 224.822,242.574 224.675 C 242.820 224.592,243.022 224.436,243.022 224.328 C 243.022 224.131,244.006 223.736,244.366 223.788 C 244.472 223.803,244.558 223.643,244.558 223.431 C 244.558 223.218,244.786 223.047,245.070 223.047 C 245.352 223.047,245.583 222.925,245.583 222.776 C 245.583 222.627,245.683 222.567,245.806 222.643 C 245.928 222.719,246.292 222.553,246.613 222.274 C 246.934 221.995,247.352 221.767,247.540 221.767 C 247.729 221.767,248.020 221.548,248.187 221.280 C 248.354 221.013,248.643 220.852,248.829 220.924 C 249.015 220.995,249.168 220.938,249.168 220.798 C 249.168 220.657,249.483 220.463,249.869 220.366 C 250.255 220.269,250.630 220.112,250.702 220.016 C 250.900 219.751,253.797 218.048,254.719 217.653 C 255.167 217.462,255.476 217.213,255.406 217.100 C 255.337 216.988,255.631 216.825,256.061 216.739 C 256.506 216.650,256.772 216.469,256.678 216.318 C 256.580 216.160,256.641 216.132,256.831 216.249 C 257.024 216.368,257.296 216.232,257.528 215.901 C 257.738 215.601,258.003 215.414,258.118 215.485 C 258.233 215.556,258.613 215.389,258.962 215.114 C 259.312 214.839,259.672 214.686,259.761 214.776 C 259.850 214.865,259.923 214.815,259.923 214.665 C 259.923 214.514,260.441 214.178,261.075 213.918 C 261.708 213.657,262.226 213.372,262.227 213.283 C 262.227 213.195,262.572 212.980,262.993 212.805 C 263.414 212.631,263.696 212.388,263.620 212.265 C 263.544 212.142,263.661 212.110,263.879 212.194 C 264.098 212.278,264.277 212.242,264.277 212.115 C 264.277 211.987,264.680 211.737,265.173 211.559 C 265.666 211.380,266.069 211.107,266.069 210.952 C 266.069 210.797,266.141 210.742,266.229 210.830 C 266.317 210.918,266.760 210.706,267.213 210.360 C 267.667 210.014,268.223 209.731,268.449 209.731 C 268.676 209.731,268.953 209.584,269.065 209.405 C 269.318 209.002,270.679 208.118,270.679 208.356 C 270.679 208.452,270.918 208.314,271.210 208.049 C 271.503 207.784,272.108 207.444,272.555 207.292 C 273.002 207.141,273.339 206.879,273.303 206.710 C 273.268 206.540,273.458 206.402,273.724 206.402 C 273.991 206.402,274.275 206.229,274.356 206.018 C 274.437 205.807,274.795 205.634,275.152 205.634 C 275.509 205.634,275.800 205.531,275.800 205.405 C 275.800 205.280,276.091 205.104,276.447 205.015 C 276.803 204.926,277.295 204.654,277.540 204.411 C 277.786 204.168,278.464 203.740,279.047 203.459 C 279.630 203.179,280.054 202.862,279.987 202.755 C 279.921 202.648,280.038 202.561,280.246 202.561 C 280.625 202.561,282.218 201.802,282.458 201.507 C 282.529 201.420,282.846 201.269,283.163 201.170 C 283.480 201.071,283.739 200.876,283.739 200.736 C 283.739 200.596,283.839 200.544,283.961 200.620 C 284.084 200.695,284.516 200.471,284.922 200.121 C 285.327 199.771,285.890 199.411,286.172 199.321 C 286.453 199.232,287.029 198.915,287.452 198.619 C 287.875 198.322,288.393 198.041,288.604 197.995 C 288.816 197.948,289.076 197.755,289.182 197.567 C 289.289 197.378,289.721 197.147,290.142 197.055 C 290.564 196.962,290.909 196.780,290.909 196.651 C 290.909 196.521,290.996 196.436,291.101 196.461 C 291.341 196.519,292.892 195.649,293.467 195.134 C 293.703 194.923,294.059 194.712,294.257 194.666 C 294.455 194.619,294.688 194.468,294.774 194.329 C 294.859 194.190,295.108 194.050,295.326 194.018 C 295.544 193.986,295.882 193.827,296.077 193.666 C 296.272 193.504,296.752 193.250,297.143 193.101 C 297.586 192.933,297.784 192.718,297.669 192.531 C 297.544 192.329,297.622 192.284,297.909 192.394 C 298.144 192.484,298.335 192.448,298.335 192.314 C 298.335 192.181,298.623 191.999,298.974 191.911 C 299.325 191.823,299.555 191.659,299.486 191.546 C 299.416 191.433,299.590 191.401,299.872 191.475 C 300.163 191.551,300.384 191.483,300.384 191.317 C 300.384 191.156,300.668 190.917,301.015 190.785 C 301.707 190.521,303.644 189.305,304.182 188.795 C 304.369 188.617,304.629 188.537,304.758 188.617 C 304.888 188.697,304.994 188.655,304.994 188.522 C 304.994 188.390,305.338 188.140,305.759 187.965 C 306.179 187.791,306.453 187.534,306.367 187.395 C 306.271 187.239,306.420 187.208,306.754 187.314 C 307.077 187.416,307.298 187.375,307.298 187.213 C 307.298 187.063,307.471 186.940,307.682 186.940 C 307.894 186.940,308.067 186.850,308.067 186.740 C 308.067 186.630,308.383 186.408,308.771 186.246 C 309.693 185.860,310.989 185.070,311.097 184.827 C 311.144 184.722,311.329 184.635,311.509 184.635 C 311.689 184.635,312.246 184.357,312.748 184.017 C 313.249 183.677,313.735 183.475,313.829 183.569 C 313.923 183.662,313.961 183.566,313.914 183.355 C 313.861 183.117,313.988 182.997,314.247 183.039 C 314.478 183.077,314.736 182.925,314.822 182.703 C 314.907 182.480,315.093 182.370,315.235 182.457 C 315.377 182.545,315.493 182.498,315.493 182.353 C 315.493 182.209,315.685 182.164,315.919 182.254 C 316.206 182.364,316.285 182.319,316.160 182.118 C 316.049 181.938,316.135 181.818,316.374 181.818 C 316.594 181.818,316.773 181.703,316.773 181.562 C 316.773 181.421,317.033 181.304,317.350 181.302 C 318.011 181.298,318.620 180.970,318.587 180.637 C 318.574 180.512,318.905 180.321,319.322 180.213 C 319.738 180.105,320.258 179.763,320.475 179.452 C 320.693 179.141,320.871 178.975,320.871 179.081 C 320.871 179.188,321.130 179.131,321.447 178.955 C 321.764 178.779,322.119 178.631,322.236 178.626 C 322.353 178.621,322.602 178.408,322.789 178.152 C 322.976 177.896,323.197 177.694,323.280 177.704 C 323.793 177.762,323.955 177.690,323.817 177.468 C 323.728 177.323,323.831 177.280,324.058 177.367 C 324.278 177.451,324.456 177.386,324.456 177.221 C 324.456 177.057,324.571 176.994,324.712 177.081 C 324.853 177.168,324.968 177.135,324.968 177.009 C 324.968 176.818,326.048 176.157,326.504 176.068 C 326.816 176.007,329.202 174.519,329.279 174.337 C 329.326 174.226,329.527 174.136,329.727 174.136 C 329.926 174.136,330.090 174.014,330.090 173.865 C 330.090 173.715,330.191 173.656,330.316 173.733 C 330.440 173.810,330.828 173.648,331.178 173.372 C 331.527 173.097,331.905 172.955,332.017 173.056 C 332.128 173.157,332.153 173.051,332.070 172.820 C 331.954 172.496,332.041 172.433,332.454 172.541 C 332.788 172.628,332.925 172.580,332.821 172.412 C 332.724 172.254,333.000 172.078,333.490 171.987 C 334.006 171.890,334.503 171.561,334.789 171.126 C 335.046 170.736,335.184 170.638,335.098 170.907 C 334.928 171.439,335.323 171.221,336.315 170.232 C 336.570 169.979,336.887 169.838,337.019 169.920 C 337.152 170.002,337.260 169.940,337.260 169.782 C 337.260 169.625,337.375 169.567,337.516 169.654 C 337.657 169.741,337.772 169.684,337.772 169.526 C 337.772 169.369,337.887 169.311,338.028 169.398 C 338.169 169.485,338.284 169.446,338.284 169.311 C 338.284 169.175,338.802 168.852,339.436 168.591 C 340.069 168.331,340.588 167.974,340.588 167.798 C 340.589 167.622,340.819 167.478,341.101 167.478 C 341.383 167.478,341.613 167.356,341.613 167.206 C 341.613 167.057,341.709 166.995,341.827 167.067 C 342.009 167.180,343.792 166.145,344.174 165.704 C 344.245 165.623,344.467 165.521,344.668 165.478 C 344.870 165.434,345.348 165.175,345.732 164.901 C 346.116 164.628,346.556 164.405,346.710 164.405 C 346.865 164.405,346.991 164.283,346.991 164.133 C 346.991 163.984,347.094 163.926,347.220 164.004 C 347.346 164.082,347.518 163.966,347.603 163.747 C 347.687 163.527,347.868 163.417,348.004 163.501 C 348.141 163.586,348.487 163.420,348.774 163.134 C 349.061 162.847,349.296 162.749,349.296 162.916 C 349.296 163.084,349.531 162.969,349.818 162.660 C 350.105 162.352,350.528 162.100,350.757 162.100 C 350.986 162.100,351.098 162.024,351.005 161.931 C 350.766 161.692,351.803 161.012,352.113 161.204 C 352.254 161.291,352.369 161.248,352.369 161.108 C 352.369 160.968,352.628 160.773,352.945 160.674 C 353.262 160.575,353.603 160.366,353.704 160.209 C 353.804 160.052,354.006 159.909,354.152 159.891 C 354.298 159.874,354.539 159.845,354.689 159.827 C 354.838 159.810,354.889 159.681,354.803 159.542 C 354.714 159.397,354.816 159.354,355.044 159.441 C 355.311 159.544,355.442 159.445,355.442 159.140 C 355.442 158.890,355.518 158.761,355.610 158.854 C 355.703 158.947,355.956 158.879,356.172 158.705 C 356.496 158.442,356.530 158.453,356.368 158.771 C 356.259 158.982,356.400 158.896,356.680 158.579 C 356.959 158.262,357.345 158.003,357.536 158.003 C 357.727 158.003,358.308 157.714,358.826 157.362 C 359.344 157.010,359.896 156.722,360.053 156.722 C 360.209 156.722,360.254 156.587,360.152 156.423 C 360.029 156.223,360.105 156.176,360.377 156.280 C 360.605 156.368,361.068 156.216,361.420 155.940 C 361.768 155.666,362.185 155.442,362.347 155.442 C 362.510 155.442,362.572 155.328,362.486 155.189 C 362.396 155.043,362.499 155.000,362.727 155.088 C 362.987 155.188,363.124 155.095,363.124 154.818 C 363.124 154.585,363.268 154.418,363.444 154.445 C 363.953 154.526,365.609 153.705,365.766 153.294 C 365.845 153.089,366.176 152.880,366.502 152.831 C 366.827 152.781,367.066 152.604,367.033 152.436 C 366.995 152.249,367.137 152.194,367.397 152.294 C 367.722 152.419,367.783 152.353,367.653 152.016 C 367.545 151.733,367.583 151.635,367.759 151.744 C 368.361 152.116,371.059 150.542,371.067 149.815 C 371.070 149.477,371.102 149.474,371.307 149.798 C 371.514 150.125,371.602 150.123,372.007 149.787 C 372.262 149.575,372.792 149.241,373.184 149.045 C 373.605 148.834,373.843 148.545,373.765 148.341 C 373.666 148.084,373.741 148.056,374.058 148.233 C 374.336 148.389,374.598 148.370,374.813 148.179 C 375.682 147.408,375.929 147.243,375.932 147.429 C 375.934 147.540,376.021 147.508,376.124 147.357 C 376.228 147.206,376.773 146.898,377.337 146.672 C 377.900 146.446,378.334 146.141,378.300 145.995 C 378.267 145.849,378.411 145.795,378.620 145.875 C 378.830 145.956,379.001 145.894,379.001 145.738 C 379.001 145.582,379.186 145.455,379.413 145.455 C 379.652 145.455,379.769 145.311,379.692 145.110 C 379.596 144.860,379.739 144.800,380.215 144.891 C 380.661 144.977,380.813 144.924,380.691 144.726 C 380.575 144.540,380.653 144.491,380.909 144.589 C 381.127 144.672,381.306 144.614,381.306 144.458 C 381.306 144.302,381.479 144.174,381.690 144.174 C 381.901 144.174,382.074 144.086,382.074 143.978 C 382.074 143.871,382.552 143.554,383.136 143.274 C 384.846 142.456,385.147 142.272,385.147 142.050 C 385.147 141.934,385.246 141.900,385.366 141.974 C 385.486 142.049,385.964 141.771,386.428 141.357 C 386.891 140.943,387.360 140.660,387.469 140.727 C 387.578 140.795,387.820 140.700,388.008 140.517 C 388.195 140.333,388.723 140.030,389.181 139.843 C 389.638 139.656,390.013 139.417,390.013 139.312 C 390.013 139.208,390.560 138.914,391.229 138.660 C 393.306 137.871,394.922 135.744,393.918 135.123 C 393.812 135.057,393.726 132.746,393.726 129.986 C 393.726 127.226,393.640 124.968,393.534 124.968 C 393.428 124.968,393.342 123.290,393.342 121.240 C 393.342 118.331,393.271 117.551,393.022 117.692 C 392.784 117.826,392.775 117.794,392.986 117.564 C 393.313 117.208,393.159 105.295,392.821 104.866 C 392.605 104.591,392.726 99.704,392.978 98.520 C 393.062 98.129,393.033 97.835,392.916 97.867 C 392.530 97.971,391.549 97.539,391.549 97.264 C 391.549 97.116,391.263 97.050,390.909 97.118 C 390.528 97.190,390.269 97.122,390.269 96.948 C 390.269 96.478,388.677 95.964,388.429 96.354 C 388.287 96.578,388.227 96.541,388.224 96.226 C 388.220 95.760,386.556 94.897,386.147 95.149 C 386.023 95.226,385.998 95.090,386.091 94.847 C 386.221 94.509,386.160 94.444,385.832 94.570 C 385.596 94.660,385.403 94.623,385.403 94.486 C 385.403 94.350,385.317 94.257,385.211 94.280 C 385.106 94.302,384.695 94.187,384.298 94.023 C 383.902 93.860,383.412 93.726,383.210 93.726 C 383.008 93.726,382.843 93.608,382.843 93.464 C 382.843 93.224,381.851 92.721,381.140 92.601 C 380.978 92.574,380.690 92.427,380.500 92.275 C 380.309 92.123,379.951 92.032,379.704 92.072 C 379.457 92.112,379.320 92.039,379.399 91.911 C 379.479 91.782,379.422 91.663,379.272 91.645 C 379.123 91.628,378.915 91.583,378.809 91.547 C 378.704 91.510,378.358 91.396,378.041 91.293 C 377.724 91.190,377.465 91.011,377.465 90.896 C 377.465 90.660,376.455 90.270,376.041 90.347 C 375.891 90.375,375.527 90.171,375.230 89.895 C 374.934 89.619,374.393 89.318,374.027 89.227 C 373.662 89.135,373.299 88.957,373.222 88.832 C 373.144 88.707,372.857 88.604,372.584 88.604 C 372.311 88.604,372.087 88.500,372.087 88.372 C 372.087 88.082,369.798 87.284,369.497 87.470 C 369.376 87.545,369.335 87.452,369.408 87.263 C 369.539 86.922,368.264 86.300,367.435 86.300 C 367.220 86.300,366.784 86.074,366.466 85.799 C 366.148 85.523,365.468 85.162,364.955 84.997 C 364.441 84.832,363.854 84.567,363.651 84.410 C 363.358 84.182,363.322 84.202,363.478 84.507 C 363.641 84.826,363.617 84.824,363.335 84.495 C 363.149 84.277,362.593 83.938,362.100 83.741 C 361.607 83.545,361.146 83.312,361.076 83.224 C 360.699 82.753,358.827 82.248,358.532 82.539 C 358.361 82.706,358.244 82.727,358.271 82.586 C 358.375 82.036,358.247 81.667,358.003 81.818 C 357.862 81.905,357.746 81.848,357.746 81.690 C 357.746 81.533,357.626 81.478,357.479 81.569 C 357.332 81.660,357.033 81.586,356.814 81.404 C 356.595 81.222,356.173 81.037,355.876 80.991 C 355.579 80.946,355.254 80.776,355.154 80.614 C 355.054 80.452,354.708 80.279,354.386 80.230 C 354.063 80.181,353.720 80.012,353.622 79.854 C 353.525 79.696,353.266 79.635,353.048 79.719 C 352.773 79.825,352.695 79.757,352.794 79.497 C 352.893 79.242,352.816 79.170,352.551 79.272 C 352.339 79.354,352.087 79.295,351.993 79.143 C 351.898 78.990,351.714 78.931,351.583 79.012 C 351.452 79.093,351.344 79.031,351.344 78.873 C 351.344 78.716,351.239 78.652,351.110 78.732 C 350.981 78.811,350.837 78.789,350.790 78.683 C 350.637 78.339,348.022 77.046,347.781 77.195 C 347.652 77.275,347.508 77.227,347.461 77.090 C 347.414 76.952,347.106 76.799,346.778 76.749 C 346.449 76.699,346.091 76.513,345.981 76.336 C 345.871 76.158,345.704 76.031,345.609 76.053 C 345.448 76.091,343.571 75.289,342.577 74.758 C 342.333 74.627,341.972 74.520,341.776 74.520 C 341.580 74.520,341.278 74.348,341.103 74.139 C 340.929 73.929,340.695 73.814,340.582 73.884 C 340.469 73.954,340.336 73.890,340.287 73.742 C 340.238 73.594,339.940 73.453,339.625 73.430 C 339.310 73.406,339.052 73.289,339.052 73.170 C 339.052 73.051,338.947 73.019,338.817 73.099 C 338.688 73.179,338.426 73.088,338.236 72.898 C 337.733 72.396,336.728 71.894,336.560 72.062 C 336.480 72.141,336.202 71.960,335.941 71.659 C 335.622 71.290,335.466 71.229,335.463 71.472 C 335.460 71.769,335.422 71.771,335.241 71.486 C 335.121 71.296,334.730 71.123,334.373 71.102 C 334.016 71.080,333.775 70.980,333.838 70.878 C 333.901 70.777,333.659 70.620,333.301 70.530 C 332.943 70.441,332.650 70.257,332.650 70.124 C 332.650 69.990,332.535 69.951,332.394 70.038 C 332.254 70.125,332.138 70.075,332.138 69.925 C 332.138 69.776,331.913 69.654,331.638 69.654 C 331.005 69.654,329.834 69.129,329.834 68.845 C 329.834 68.727,329.690 68.630,329.513 68.629 C 329.337 68.629,328.416 68.237,327.465 67.758 C 326.515 67.279,325.816 67.020,325.914 67.182 C 326.029 67.375,325.953 67.367,325.698 67.160 C 325.482 66.985,325.229 66.898,325.136 66.968 C 325.044 67.037,325.025 67.017,325.095 66.924 C 325.287 66.668,323.734 65.799,322.351 65.388 C 321.678 65.189,321.127 64.937,321.127 64.830 C 321.127 64.723,320.695 64.484,320.166 64.299 C 318.591 63.747,316.261 62.647,316.261 62.455 C 316.261 62.356,316.013 62.341,315.709 62.420 C 315.338 62.517,315.215 62.470,315.335 62.276 C 315.518 61.979,314.764 61.695,313.609 61.625 C 313.272 61.604,313.041 61.472,313.094 61.332 C 313.192 61.071,311.477 60.264,310.374 60.052 C 310.041 59.988,309.703 59.833,309.622 59.709 C 309.475 59.482,307.931 58.628,307.685 58.638 C 307.143 58.659,307.028 58.617,307.139 58.438 C 307.208 58.325,306.725 58.078,306.066 57.890 C 305.406 57.702,304.606 57.313,304.289 57.026 C 303.972 56.739,303.713 56.597,303.713 56.709 C 303.713 56.821,303.523 56.755,303.290 56.561 C 303.057 56.368,302.829 56.229,302.783 56.252 C 302.549 56.369,301.665 55.988,301.665 55.769 C 301.665 55.629,301.492 55.581,301.280 55.662 C 301.069 55.743,300.896 55.703,300.896 55.572 C 300.896 55.441,300.435 55.196,299.872 55.027 C 299.309 54.859,298.848 54.611,298.848 54.478 C 298.848 54.344,298.675 54.301,298.464 54.382 C 298.252 54.463,298.079 54.405,298.079 54.254 C 298.079 54.102,297.901 54.047,297.682 54.131 C 297.454 54.218,297.351 54.176,297.441 54.030 C 297.584 53.799,297.175 53.678,296.354 53.708 C 296.179 53.714,296.092 53.629,296.160 53.519 C 296.285 53.316,295.629 52.926,295.105 52.892 C 294.948 52.882,294.631 52.717,294.401 52.526 C 294.171 52.334,293.982 52.268,293.982 52.377 C 293.982 52.487,293.759 52.374,293.486 52.127 C 293.213 51.880,292.868 51.754,292.718 51.847 C 292.568 51.939,292.446 51.901,292.446 51.761 C 292.446 51.621,292.186 51.426,291.869 51.328 C 291.552 51.230,290.956 50.911,290.543 50.620 C 290.092 50.302,289.881 50.239,290.016 50.462 C 290.205 50.776,290.175 50.780,289.817 50.490 C 289.585 50.302,289.275 50.222,289.128 50.313 C 288.981 50.404,288.860 50.358,288.860 50.211 C 288.860 49.956,287.228 49.090,286.684 49.056 C 286.543 49.047,286.336 48.896,286.223 48.720 C 286.110 48.544,285.748 48.399,285.418 48.399 C 285.088 48.399,284.749 48.219,284.664 47.999 C 284.580 47.779,284.394 47.671,284.251 47.759 C 284.108 47.848,283.818 47.747,283.606 47.535 C 283.394 47.323,282.988 47.194,282.705 47.249 C 282.421 47.304,282.251 47.247,282.327 47.124 C 282.454 46.918,281.927 46.643,281.306 46.592 C 281.165 46.580,280.877 46.424,280.666 46.244 C 280.251 45.892,278.054 44.812,277.529 44.702 C 276.934 44.578,276.186 44.205,275.831 43.854 C 275.637 43.662,275.320 43.565,275.127 43.639 C 274.934 43.713,274.776 43.650,274.776 43.498 C 274.776 43.347,274.606 43.288,274.399 43.368 C 274.191 43.447,273.932 43.367,273.822 43.188 C 273.609 42.841,271.390 41.741,270.902 41.741 C 270.740 41.741,270.452 41.540,270.264 41.293 C 269.963 40.901,269.888 40.893,269.663 41.229 C 269.440 41.562,269.406 41.556,269.402 41.186 C 269.400 40.920,269.107 40.694,268.630 40.589 C 268.207 40.496,267.862 40.337,267.862 40.235 C 267.862 40.133,267.257 39.835,266.517 39.572 C 265.778 39.310,265.105 38.993,265.022 38.869 C 264.939 38.744,264.622 38.624,264.318 38.601 C 264.013 38.578,263.764 38.487,263.764 38.399 C 263.764 38.310,263.303 38.086,262.740 37.900 C 262.177 37.714,261.716 37.458,261.716 37.332 C 261.716 37.205,261.601 37.173,261.460 37.260 C 261.319 37.347,261.204 37.283,261.204 37.117 C 261.204 36.933,260.952 36.864,260.555 36.940 C 260.198 37.008,259.962 37.008,260.030 36.940 C 260.222 36.748,259.494 36.108,259.083 36.108 C 258.883 36.108,258.166 35.814,257.491 35.454 C 256.815 35.095,256.107 34.861,255.916 34.934 C 255.722 35.009,255.570 34.902,255.570 34.691 C 255.570 34.357,255.082 34.210,254.097 34.246 C 253.921 34.253,253.777 34.094,253.777 33.894 C 253.777 33.485,252.795 33.037,252.305 33.224 C 252.129 33.291,251.985 33.218,251.985 33.062 C 251.985 32.906,251.812 32.778,251.601 32.778 C 251.389 32.778,251.216 32.658,251.216 32.511 C 251.216 32.364,251.072 32.263,250.896 32.285 C 250.198 32.376,249.657 32.254,249.791 32.037 C 249.953 31.775,249.359 31.498,248.635 31.498 C 248.364 31.498,248.143 31.383,248.143 31.242 C 248.143 31.101,247.927 30.986,247.663 30.986 C 247.398 30.986,247.038 30.813,246.863 30.602 C 246.688 30.391,246.396 30.218,246.215 30.218 C 246.034 30.218,245.000 29.757,243.918 29.193 C 242.835 28.630,241.845 28.233,241.717 28.312 C 241.590 28.391,241.485 28.346,241.485 28.212 C 241.485 27.942,240.919 27.674,239.967 27.493 C 239.625 27.428,239.197 27.179,239.015 26.939 C 238.833 26.700,238.681 26.604,238.677 26.726 C 238.672 26.848,238.409 26.780,238.092 26.574 C 237.775 26.369,237.194 26.122,236.801 26.025 C 236.408 25.928,236.147 25.751,236.221 25.632 C 236.330 25.456,235.524 25.154,234.520 24.996 C 234.421 24.981,234.197 24.824,234.020 24.648 C 233.844 24.472,233.493 24.328,233.239 24.328 C 232.986 24.328,232.778 24.206,232.778 24.057 C 232.778 23.907,232.666 23.855,232.528 23.940 C 232.391 24.025,231.959 23.921,231.568 23.709 C 231.178 23.497,230.973 23.315,231.114 23.304 C 231.255 23.293,230.984 23.116,230.511 22.911 C 230.039 22.705,229.549 22.602,229.423 22.680 C 229.297 22.758,229.193 22.728,229.192 22.614 C 229.190 22.348,227.725 21.511,227.261 21.511 C 227.066 21.511,226.367 21.169,225.708 20.751 C 225.048 20.333,224.419 20.046,224.308 20.115 C 224.198 20.183,224.034 20.120,223.944 19.974 C 223.854 19.829,223.686 19.768,223.571 19.839 C 223.456 19.911,223.219 19.797,223.045 19.587 C 222.871 19.378,222.461 19.206,222.135 19.206 C 221.808 19.206,221.469 19.089,221.381 18.946 C 221.107 18.504,219.176 17.626,218.797 17.772 C 218.600 17.848,218.438 17.800,218.438 17.667 C 218.438 17.421,215.355 15.877,214.863 15.877 C 214.717 15.877,214.597 15.755,214.597 15.606 C 214.597 15.457,214.481 15.406,214.341 15.493 C 214.200 15.580,214.085 15.552,214.085 15.431 C 214.085 15.311,213.652 15.059,213.124 14.873 C 211.782 14.399,209.932 13.603,209.475 13.302 C 208.936 12.948,207.349 12.188,207.042 12.137 C 206.901 12.114,206.700 12.067,206.594 12.033 C 206.488 12.000,206.283 11.957,206.137 11.940 C 205.991 11.922,205.789 11.777,205.688 11.616 C 205.545 11.388,204.208 10.683,203.329 10.372 C 203.259 10.347,203.005 10.240,202.765 10.134 C 202.525 10.028,202.209 10.016,202.061 10.108 C 201.913 10.199,201.793 10.170,201.793 10.043 C 201.793 9.474,200.624 9.282,199.609 9.685 " stroke="none" fill="#ecbc6c" fill-rule="evenodd"></path><path id="path1" d="M197.660 10.504 L 197.055 11.020 197.759 10.718 C 198.147 10.553,198.464 10.320,198.464 10.202 C 198.464 9.883,198.326 9.934,197.660 10.504 M193.201 12.523 C 193.067 12.650,192.727 12.800,192.446 12.856 C 192.029 12.939,192.067 12.985,192.647 13.103 C 193.039 13.183,193.300 13.189,193.227 13.116 C 193.154 13.043,193.294 12.831,193.538 12.646 C 193.782 12.460,193.861 12.305,193.713 12.300 C 193.565 12.296,193.335 12.396,193.201 12.523 M176.386 20.304 C 176.004 20.455,175.632 20.733,175.560 20.923 C 175.413 21.304,175.902 21.097,176.825 20.385 C 177.411 19.933,177.351 19.922,176.386 20.304 M239.181 27.139 C 239.181 27.250,239.411 27.401,239.693 27.475 C 239.974 27.549,240.205 27.518,240.205 27.407 C 240.205 27.295,239.974 27.144,239.693 27.070 C 239.411 26.997,239.181 27.028,239.181 27.139 M244.558 29.558 C 244.910 29.770,245.371 29.944,245.583 29.945 C 246.096 29.946,245.488 29.588,244.558 29.342 L 243.918 29.172 244.558 29.558 M126.768 43.524 C 126.561 43.655,126.454 43.825,126.531 43.901 C 126.607 43.978,126.892 43.873,127.163 43.667 C 127.703 43.259,127.375 43.140,126.768 43.524 M69.654 70.166 C 69.654 70.490,70.178 70.490,70.679 70.166 C 70.978 69.973,70.907 69.917,70.359 69.914 C 69.971 69.912,69.654 70.026,69.654 70.166 M65.192 72.188 C 64.810 72.338,64.781 72.414,65.065 72.522 C 65.267 72.600,65.580 72.505,65.760 72.311 C 66.120 71.926,65.953 71.890,65.192 72.188 M50.704 79.001 C 50.352 79.203,50.179 79.367,50.320 79.367 C 50.461 79.367,50.864 79.203,51.216 79.001 C 51.569 78.800,51.741 78.635,51.601 78.635 C 51.460 78.635,51.056 78.800,50.704 79.001 M39.145 84.501 L 38.540 85.007 39.243 84.693 C 39.629 84.520,39.946 84.293,39.947 84.187 C 39.950 83.893,39.802 83.951,39.145 84.501 M388.224 96.223 C 388.227 96.577,388.275 96.597,388.452 96.318 C 388.582 96.112,388.811 96.049,388.999 96.166 C 389.211 96.296,389.260 96.263,389.141 96.070 C 388.859 95.614,388.220 95.721,388.224 96.223 M392.574 103.826 C 392.574 104.311,392.662 104.762,392.770 104.829 C 392.879 104.896,392.924 104.499,392.872 103.948 C 392.753 102.709,392.574 102.636,392.574 103.826 M7.240 118.822 C 7.240 119.456,7.290 119.715,7.351 119.398 C 7.412 119.081,7.412 118.563,7.351 118.246 C 7.290 117.929,7.240 118.188,7.240 118.822 M393.671 126.633 C 393.673 127.337,393.723 127.594,393.782 127.205 C 393.841 126.816,393.839 126.240,393.778 125.925 C 393.717 125.610,393.669 125.928,393.671 126.633 M7.491 128.937 C 7.494 129.501,7.546 129.701,7.607 129.382 C 7.669 129.064,7.666 128.603,7.602 128.358 C 7.538 128.113,7.488 128.374,7.491 128.937 M393.663 131.242 C 393.665 131.805,393.718 132.006,393.779 131.687 C 393.840 131.369,393.838 130.908,393.774 130.663 C 393.710 130.418,393.660 130.679,393.663 131.242 M7.451 136.620 C 7.442 137.324,7.532 138.054,7.651 138.242 C 7.778 138.442,7.821 138.017,7.755 137.218 C 7.600 135.341,7.470 135.086,7.451 136.620 M20.147 145.367 C 19.953 145.561,20.438 146.223,20.774 146.223 C 20.898 146.223,20.999 146.108,20.999 145.967 C 20.999 145.826,20.855 145.739,20.679 145.775 C 20.503 145.810,20.387 145.695,20.423 145.519 C 20.494 145.163,20.402 145.113,20.147 145.367 M367.635 151.965 C 367.791 152.375,367.740 152.426,367.330 152.270 C 366.935 152.119,366.901 152.146,367.157 152.405 C 367.406 152.656,367.546 152.659,367.785 152.420 C 368.024 152.181,368.021 152.042,367.770 151.793 C 367.511 151.536,367.484 151.570,367.635 151.965 M351.231 161.468 C 350.958 161.675,350.862 161.844,351.018 161.844 C 351.504 161.844,352.113 161.544,352.113 161.304 C 352.113 160.977,351.804 161.034,351.231 161.468 M124.200 205.641 C 124.200 205.863,125.194 206.262,125.353 206.103 C 125.402 206.053,125.163 205.881,124.821 205.719 C 124.479 205.558,124.200 205.523,124.200 205.641 M196.159 247.119 C 196.655 247.440,196.927 247.440,196.927 247.119 C 196.927 246.978,196.668 246.865,196.351 246.867 C 195.885 246.870,195.848 246.918,196.159 247.119 " stroke="none" fill="#f0bc6c" fill-rule="evenodd"></path><path id="path2" d="M197.660 10.504 L 197.055 11.020 197.759 10.718 C 198.147 10.553,198.464 10.320,198.464 10.202 C 198.464 9.883,198.326 9.934,197.660 10.504 M193.201 12.523 C 193.067 12.650,192.727 12.800,192.446 12.856 C 192.029 12.939,192.067 12.985,192.647 13.103 C 193.039 13.183,193.300 13.189,193.227 13.116 C 193.154 13.043,193.294 12.831,193.538 12.646 C 193.782 12.460,193.861 12.305,193.713 12.300 C 193.565 12.296,193.335 12.396,193.201 12.523 M176.386 20.304 C 176.004 20.455,175.632 20.733,175.560 20.923 C 175.413 21.304,175.902 21.097,176.825 20.385 C 177.411 19.933,177.351 19.922,176.386 20.304 M239.181 27.139 C 239.181 27.250,239.411 27.401,239.693 27.475 C 239.974 27.549,240.205 27.518,240.205 27.407 C 240.205 27.295,239.974 27.144,239.693 27.070 C 239.411 26.997,239.181 27.028,239.181 27.139 M244.558 29.558 C 244.910 29.770,245.371 29.944,245.583 29.945 C 246.096 29.946,245.488 29.588,244.558 29.342 L 243.918 29.172 244.558 29.558 M126.768 43.524 C 126.561 43.655,126.454 43.825,126.531 43.901 C 126.607 43.978,126.892 43.873,127.163 43.667 C 127.703 43.259,127.375 43.140,126.768 43.524 M69.654 70.166 C 69.654 70.490,70.178 70.490,70.679 70.166 C 70.978 69.973,70.907 69.917,70.359 69.914 C 69.971 69.912,69.654 70.026,69.654 70.166 M65.192 72.188 C 64.810 72.338,64.781 72.414,65.065 72.522 C 65.267 72.600,65.580 72.505,65.760 72.311 C 66.120 71.926,65.953 71.890,65.192 72.188 M50.704 79.001 C 50.352 79.203,50.179 79.367,50.320 79.367 C 50.461 79.367,50.864 79.203,51.216 79.001 C 51.569 78.800,51.741 78.635,51.601 78.635 C 51.460 78.635,51.056 78.800,50.704 79.001 M39.145 84.501 L 38.540 85.007 39.243 84.693 C 39.629 84.520,39.946 84.293,39.947 84.187 C 39.950 83.893,39.802 83.951,39.145 84.501 M388.224 96.223 C 388.227 96.577,388.275 96.597,388.452 96.318 C 388.582 96.112,388.811 96.049,388.999 96.166 C 389.211 96.296,389.260 96.263,389.141 96.070 C 388.859 95.614,388.220 95.721,388.224 96.223 M392.574 103.826 C 392.574 104.311,392.662 104.762,392.770 104.829 C 392.879 104.896,392.924 104.499,392.872 103.948 C 392.753 102.709,392.574 102.636,392.574 103.826 M7.240 118.822 C 7.240 119.456,7.290 119.715,7.351 119.398 C 7.412 119.081,7.412 118.563,7.351 118.246 C 7.290 117.929,7.240 118.188,7.240 118.822 M393.671 126.633 C 393.673 127.337,393.723 127.594,393.782 127.205 C 393.841 126.816,393.839 126.240,393.778 125.925 C 393.717 125.610,393.669 125.928,393.671 126.633 M7.491 128.937 C 7.494 129.501,7.546 129.701,7.607 129.382 C 7.669 129.064,7.666 128.603,7.602 128.358 C 7.538 128.113,7.488 128.374,7.491 128.937 M393.663 131.242 C 393.665 131.805,393.718 132.006,393.779 131.687 C 393.840 131.369,393.838 130.908,393.774 130.663 C 393.710 130.418,393.660 130.679,393.663 131.242 M7.451 136.620 C 7.442 137.324,7.532 138.054,7.651 138.242 C 7.778 138.442,7.821 138.017,7.755 137.218 C 7.600 135.341,7.470 135.086,7.451 136.620 M20.147 145.367 C 19.953 145.561,20.438 146.223,20.774 146.223 C 20.898 146.223,20.999 146.108,20.999 145.967 C 20.999 145.826,20.855 145.739,20.679 145.775 C 20.503 145.810,20.387 145.695,20.423 145.519 C 20.494 145.163,20.402 145.113,20.147 145.367 M367.635 151.965 C 367.791 152.375,367.740 152.426,367.330 152.270 C 366.935 152.119,366.901 152.146,367.157 152.405 C 367.406 152.656,367.546 152.659,367.785 152.420 C 368.024 152.181,368.021 152.042,367.770 151.793 C 367.511 151.536,367.484 151.570,367.635 151.965 M351.231 161.468 C 350.958 161.675,350.862 161.844,351.018 161.844 C 351.504 161.844,352.113 161.544,352.113 161.304 C 352.113 160.977,351.804 161.034,351.231 161.468 M124.200 205.641 C 124.200 205.863,125.194 206.262,125.353 206.103 C 125.402 206.053,125.163 205.881,124.821 205.719 C 124.479 205.558,124.200 205.523,124.200 205.641 M196.159 247.119 C 196.655 247.440,196.927 247.440,196.927 247.119 C 196.927 246.978,196.668 246.865,196.351 246.867 C 195.885 246.870,195.848 246.918,196.159 247.119 " stroke="none" fill="#f0bc6c" fill-rule="evenodd"></path><path id="path3" d="M197.660 10.504 L 197.055 11.020 197.759 10.718 C 198.147 10.553,198.464 10.320,198.464 10.202 C 198.464 9.883,198.326 9.934,197.660 10.504 M193.201 12.523 C 193.067 12.650,192.727 12.800,192.446 12.856 C 192.029 12.939,192.067 12.985,192.647 13.103 C 193.039 13.183,193.300 13.189,193.227 13.116 C 193.154 13.043,193.294 12.831,193.538 12.646 C 193.782 12.460,193.861 12.305,193.713 12.300 C 193.565 12.296,193.335 12.396,193.201 12.523 M176.386 20.304 C 176.004 20.455,175.632 20.733,175.560 20.923 C 175.413 21.304,175.902 21.097,176.825 20.385 C 177.411 19.933,177.351 19.922,176.386 20.304 M239.181 27.139 C 239.181 27.250,239.411 27.401,239.693 27.475 C 239.974 27.549,240.205 27.518,240.205 27.407 C 240.205 27.295,239.974 27.144,239.693 27.070 C 239.411 26.997,239.181 27.028,239.181 27.139 M244.558 29.558 C 244.910 29.770,245.371 29.944,245.583 29.945 C 246.096 29.946,245.488 29.588,244.558 29.342 L 243.918 29.172 244.558 29.558 M126.768 43.524 C 126.561 43.655,126.454 43.825,126.531 43.901 C 126.607 43.978,126.892 43.873,127.163 43.667 C 127.703 43.259,127.375 43.140,126.768 43.524 M69.654 70.166 C 69.654 70.490,70.178 70.490,70.679 70.166 C 70.978 69.973,70.907 69.917,70.359 69.914 C 69.971 69.912,69.654 70.026,69.654 70.166 M65.192 72.188 C 64.810 72.338,64.781 72.414,65.065 72.522 C 65.267 72.600,65.580 72.505,65.760 72.311 C 66.120 71.926,65.953 71.890,65.192 72.188 M50.704 79.001 C 50.352 79.203,50.179 79.367,50.320 79.367 C 50.461 79.367,50.864 79.203,51.216 79.001 C 51.569 78.800,51.741 78.635,51.601 78.635 C 51.460 78.635,51.056 78.800,50.704 79.001 M39.145 84.501 L 38.540 85.007 39.243 84.693 C 39.629 84.520,39.946 84.293,39.947 84.187 C 39.950 83.893,39.802 83.951,39.145 84.501 M388.224 96.223 C 388.227 96.577,388.275 96.597,388.452 96.318 C 388.582 96.112,388.811 96.049,388.999 96.166 C 389.211 96.296,389.260 96.263,389.141 96.070 C 388.859 95.614,388.220 95.721,388.224 96.223 M392.574 103.826 C 392.574 104.311,392.662 104.762,392.770 104.829 C 392.879 104.896,392.924 104.499,392.872 103.948 C 392.753 102.709,392.574 102.636,392.574 103.826 M7.240 118.822 C 7.240 119.456,7.290 119.715,7.351 119.398 C 7.412 119.081,7.412 118.563,7.351 118.246 C 7.290 117.929,7.240 118.188,7.240 118.822 M393.671 126.633 C 393.673 127.337,393.723 127.594,393.782 127.205 C 393.841 126.816,393.839 126.240,393.778 125.925 C 393.717 125.610,393.669 125.928,393.671 126.633 M7.491 128.937 C 7.494 129.501,7.546 129.701,7.607 129.382 C 7.669 129.064,7.666 128.603,7.602 128.358 C 7.538 128.113,7.488 128.374,7.491 128.937 M393.663 131.242 C 393.665 131.805,393.718 132.006,393.779 131.687 C 393.840 131.369,393.838 130.908,393.774 130.663 C 393.710 130.418,393.660 130.679,393.663 131.242 M7.451 136.620 C 7.442 137.324,7.532 138.054,7.651 138.242 C 7.778 138.442,7.821 138.017,7.755 137.218 C 7.600 135.341,7.470 135.086,7.451 136.620 M20.147 145.367 C 19.953 145.561,20.438 146.223,20.774 146.223 C 20.898 146.223,20.999 146.108,20.999 145.967 C 20.999 145.826,20.855 145.739,20.679 145.775 C 20.503 145.810,20.387 145.695,20.423 145.519 C 20.494 145.163,20.402 145.113,20.147 145.367 M367.635 151.965 C 367.791 152.375,367.740 152.426,367.330 152.270 C 366.935 152.119,366.901 152.146,367.157 152.405 C 367.406 152.656,367.546 152.659,367.785 152.420 C 368.024 152.181,368.021 152.042,367.770 151.793 C 367.511 151.536,367.484 151.570,367.635 151.965 M351.231 161.468 C 350.958 161.675,350.862 161.844,351.018 161.844 C 351.504 161.844,352.113 161.544,352.113 161.304 C 352.113 160.977,351.804 161.034,351.231 161.468 M124.200 205.641 C 124.200 205.863,125.194 206.262,125.353 206.103 C 125.402 206.053,125.163 205.881,124.821 205.719 C 124.479 205.558,124.200 205.523,124.200 205.641 M196.159 247.119 C 196.655 247.440,196.927 247.440,196.927 247.119 C 196.927 246.978,196.668 246.865,196.351 246.867 C 195.885 246.870,195.848 246.918,196.159 247.119 " stroke="none" fill="#f0bc6c" fill-rule="evenodd"></path><path id="path4" d="M197.660 10.504 L 197.055 11.020 197.759 10.718 C 198.147 10.553,198.464 10.320,198.464 10.202 C 198.464 9.883,198.326 9.934,197.660 10.504 M193.201 12.523 C 193.067 12.650,192.727 12.800,192.446 12.856 C 192.029 12.939,192.067 12.985,192.647 13.103 C 193.039 13.183,193.300 13.189,193.227 13.116 C 193.154 13.043,193.294 12.831,193.538 12.646 C 193.782 12.460,193.861 12.305,193.713 12.300 C 193.565 12.296,193.335 12.396,193.201 12.523 M176.386 20.304 C 176.004 20.455,175.632 20.733,175.560 20.923 C 175.413 21.304,175.902 21.097,176.825 20.385 C 177.411 19.933,177.351 19.922,176.386 20.304 M239.181 27.139 C 239.181 27.250,239.411 27.401,239.693 27.475 C 239.974 27.549,240.205 27.518,240.205 27.407 C 240.205 27.295,239.974 27.144,239.693 27.070 C 239.411 26.997,239.181 27.028,239.181 27.139 M244.558 29.558 C 244.910 29.770,245.371 29.944,245.583 29.945 C 246.096 29.946,245.488 29.588,244.558 29.342 L 243.918 29.172 244.558 29.558 M126.768 43.524 C 126.561 43.655,126.454 43.825,126.531 43.901 C 126.607 43.978,126.892 43.873,127.163 43.667 C 127.703 43.259,127.375 43.140,126.768 43.524 M69.654 70.166 C 69.654 70.490,70.178 70.490,70.679 70.166 C 70.978 69.973,70.907 69.917,70.359 69.914 C 69.971 69.912,69.654 70.026,69.654 70.166 M65.192 72.188 C 64.810 72.338,64.781 72.414,65.065 72.522 C 65.267 72.600,65.580 72.505,65.760 72.311 C 66.120 71.926,65.953 71.890,65.192 72.188 M50.704 79.001 C 50.352 79.203,50.179 79.367,50.320 79.367 C 50.461 79.367,50.864 79.203,51.216 79.001 C 51.569 78.800,51.741 78.635,51.601 78.635 C 51.460 78.635,51.056 78.800,50.704 79.001 M39.145 84.501 L 38.540 85.007 39.243 84.693 C 39.629 84.520,39.946 84.293,39.947 84.187 C 39.950 83.893,39.802 83.951,39.145 84.501 M388.224 96.223 C 388.227 96.577,388.275 96.597,388.452 96.318 C 388.582 96.112,388.811 96.049,388.999 96.166 C 389.211 96.296,389.260 96.263,389.141 96.070 C 388.859 95.614,388.220 95.721,388.224 96.223 M392.574 103.826 C 392.574 104.311,392.662 104.762,392.770 104.829 C 392.879 104.896,392.924 104.499,392.872 103.948 C 392.753 102.709,392.574 102.636,392.574 103.826 M7.240 118.822 C 7.240 119.456,7.290 119.715,7.351 119.398 C 7.412 119.081,7.412 118.563,7.351 118.246 C 7.290 117.929,7.240 118.188,7.240 118.822 M393.671 126.633 C 393.673 127.337,393.723 127.594,393.782 127.205 C 393.841 126.816,393.839 126.240,393.778 125.925 C 393.717 125.610,393.669 125.928,393.671 126.633 M7.491 128.937 C 7.494 129.501,7.546 129.701,7.607 129.382 C 7.669 129.064,7.666 128.603,7.602 128.358 C 7.538 128.113,7.488 128.374,7.491 128.937 M393.663 131.242 C 393.665 131.805,393.718 132.006,393.779 131.687 C 393.840 131.369,393.838 130.908,393.774 130.663 C 393.710 130.418,393.660 130.679,393.663 131.242 M7.451 136.620 C 7.442 137.324,7.532 138.054,7.651 138.242 C 7.778 138.442,7.821 138.017,7.755 137.218 C 7.600 135.341,7.470 135.086,7.451 136.620 M20.147 145.367 C 19.953 145.561,20.438 146.223,20.774 146.223 C 20.898 146.223,20.999 146.108,20.999 145.967 C 20.999 145.826,20.855 145.739,20.679 145.775 C 20.503 145.810,20.387 145.695,20.423 145.519 C 20.494 145.163,20.402 145.113,20.147 145.367 M367.635 151.965 C 367.791 152.375,367.740 152.426,367.330 152.270 C 366.935 152.119,366.901 152.146,367.157 152.405 C 367.406 152.656,367.546 152.659,367.785 152.420 C 368.024 152.181,368.021 152.042,367.770 151.793 C 367.511 151.536,367.484 151.570,367.635 151.965 M351.231 161.468 C 350.958 161.675,350.862 161.844,351.018 161.844 C 351.504 161.844,352.113 161.544,352.113 161.304 C 352.113 160.977,351.804 161.034,351.231 161.468 M124.200 205.641 C 124.200 205.863,125.194 206.262,125.353 206.103 C 125.402 206.053,125.163 205.881,124.821 205.719 C 124.479 205.558,124.200 205.523,124.200 205.641 M196.159 247.119 C 196.655 247.440,196.927 247.440,196.927 247.119 C 196.927 246.978,196.668 246.865,196.351 246.867 C 195.885 246.870,195.848 246.918,196.159 247.119 " stroke="none" fill="#f0bc6c" fill-rule="evenodd"></path></g></svg>