<svg width="24" height="24" viewBox="0 0 24 24" fill="none" xmlns="http://www.w3.org/2000/svg">
<path d="M12 23C18.0751 23 23 18.0751 23 12C23 5.92487 18.0751 1 12 1C5.92487 1 1 5.92487 1 12C1 18.0751 5.92487 23 12 23Z" fill="#3491FF"/>
<path d="M6.86621 14.8778V16.9858H8.97421L15.1912 10.7698L13.0832 8.66075L6.86621 14.8778ZM16.8212 9.13875C16.8734 9.08673 16.9147 9.02493 16.943 8.95689C16.9712 8.88886 16.9858 8.81592 16.9858 8.74225C16.9858 8.66859 16.9712 8.59565 16.943 8.52761C16.9147 8.45957 16.8734 8.39777 16.8212 8.34575L15.5062 7.03075C15.4542 6.97859 15.3924 6.93721 15.3244 6.90898C15.2563 6.88074 15.1834 6.86621 15.1097 6.86621C15.036 6.86621 14.9631 6.88074 14.8951 6.90898C14.827 6.93721 14.7652 6.97859 14.7132 7.03075L13.6852 8.05875L15.7932 10.1698L16.8212 9.13875Z" fill="white"/>
</svg>
