<svg width="12" height="12" viewBox="0 0 12 12" fill="none" xmlns="http://www.w3.org/2000/svg">
<path d="M0.271972 0.0337238C0.153526 0.0857382 0.0321915 0.233113 0.0119691 0.348701C0.00330232 0.400715 -0.00247552 1.1058 0.00330232 1.9207C0.0119691 3.36265 0.014858 3.40022 0.0726363 3.47824C0.185304 3.63139 0.277749 3.67763 0.459751 3.67763C0.641753 3.67763 0.734198 3.63139 0.846866 3.47824C0.904644 3.40311 0.907533 3.35687 0.9162 2.48419L0.924867 1.57104L2.43288 3.07657C4.06801 4.70925 3.99867 4.65435 4.26445 4.60233C4.40601 4.57633 4.57935 4.40294 4.60535 4.26135C4.65735 3.9955 4.71224 4.06485 3.08 2.42928L1.57487 0.92086L2.48777 0.912191C3.36022 0.903522 3.40645 0.900632 3.48156 0.842839C3.63467 0.73014 3.68089 0.63767 3.68089 0.455619C3.68089 0.273569 3.63467 0.181098 3.48156 0.0684004C3.40356 0.00771666 3.366 0.00771666 1.8811 0.00193739C0.659086 -0.00384235 0.341306 0.00193739 0.271972 0.0337238Z" fill="#3491FF"/>
<path d="M8.59213 0.0337238C8.32057 0.152201 8.2339 0.522082 8.42457 0.747479C8.56324 0.912191 8.60657 0.917971 9.56569 0.917971H10.441L8.93302 2.42639C7.30078 4.06485 7.35567 3.9955 7.40767 4.26135C7.43367 4.40294 7.60701 4.57633 7.74856 4.60233C8.01434 4.65435 7.94501 4.70925 9.58014 3.07657L11.0882 1.57104L11.0968 2.48419C11.1055 3.35687 11.1084 3.40311 11.1662 3.47824C11.2788 3.63139 11.3713 3.67763 11.5533 3.67763C11.7353 3.67763 11.8277 3.63139 11.9404 3.47824C12.001 3.40022 12.001 3.36843 12.001 1.84267C12.001 0.316914 12.001 0.285127 11.9404 0.207106C11.9086 0.16376 11.845 0.100187 11.8017 0.0684004C11.7237 0.00771666 11.6862 0.00771666 10.2013 0.00193739C8.97924 -0.00384235 8.66146 0.00193739 8.59213 0.0337238Z" fill="#3491FF"/>
<path d="M3.96978 7.43139C3.92356 7.45451 3.22155 8.13648 2.40976 8.94848L0.936416 10.4251L0.921971 9.51775C0.907527 8.65662 0.904638 8.60461 0.84686 8.52948C0.734192 8.37632 0.641747 8.33009 0.459745 8.33009C0.277743 8.33009 0.185298 8.37632 0.0726301 8.52948C0.0119629 8.6075 0.0119629 8.63928 0.0119629 10.165C0.0119629 11.6908 0.0119629 11.7226 0.0726301 11.8006C0.104408 11.844 0.167964 11.9075 0.211298 11.9393C0.289299 12 0.321077 12 1.84642 12C3.37177 12 3.40355 12 3.48155 11.9393C3.63466 11.8266 3.68089 11.7341 3.68089 11.5521C3.68089 11.37 3.63466 11.2776 3.48155 11.1649C3.40644 11.1071 3.36022 11.1042 2.48776 11.0955L1.57487 11.0869L3.07999 9.57844C4.406 8.25206 4.58801 8.05846 4.60534 7.96021C4.67756 7.57588 4.31356 7.27535 3.96978 7.43139Z" fill="#3491FF"/>
<path d="M7.66757 7.43139C7.54913 7.48341 7.42779 7.63078 7.40468 7.75215C7.35846 8.01222 7.30357 7.94865 8.93292 9.57843L10.438 11.0869L9.52514 11.0955C8.65269 11.1042 8.60647 11.1071 8.53136 11.1649C8.37824 11.2776 8.33202 11.37 8.33202 11.5521C8.33202 11.7341 8.37824 11.8266 8.53136 11.9393C8.60936 12 8.64114 12 10.1665 12C11.6918 12 11.7236 12 11.8016 11.9393C11.8449 11.9075 11.9085 11.844 11.9403 11.8006C12.0009 11.7226 12.0009 11.6908 12.0009 10.165C12.0009 8.63928 12.0009 8.6075 11.9403 8.52948C11.8276 8.37632 11.7352 8.33009 11.5532 8.33009C11.3712 8.33009 11.2787 8.37632 11.166 8.52948C11.1083 8.60461 11.1054 8.65662 11.0909 9.51775L11.0765 10.4251L9.60315 8.94848C8.76536 8.11047 8.08935 7.45451 8.03735 7.43139C7.9218 7.38227 7.78024 7.38227 7.66757 7.43139Z" fill="#3491FF"/>
</svg>
