<svg width="14" height="11" viewBox="0 0 14 11" fill="none" xmlns="http://www.w3.org/2000/svg">
<path d="M0.3436 10.0832C0.25247 10.0832 0.165067 10.0541 0.100628 10.0025C0.0361896 9.95084 0 9.88079 0 9.80775V1.19217C-4.68737e-09 1.11911 0.0361927 1.04906 0.100628 0.997394C0.165064 0.94573 0.25246 0.916695 0.3436 0.916672H11.0924C11.1375 0.916672 11.1822 0.923793 11.2239 0.93764C11.2656 0.951486 11.3035 0.971788 11.3354 0.997372C11.3673 1.02296 11.3926 1.05332 11.4099 1.08674C11.4271 1.12017 11.436 1.15599 11.436 1.19217V2.70125C11.436 2.70802 11.4335 2.71463 11.4288 2.72026C11.4241 2.72588 11.4174 2.73027 11.4096 2.73286C11.4018 2.73545 11.3932 2.73613 11.3849 2.73482C11.3766 2.7335 11.369 2.73024 11.3631 2.72545L10.6544 2.15757C10.6464 2.15111 10.6419 2.14238 10.6419 2.13327V1.82871C10.6419 1.79253 10.633 1.75671 10.6157 1.72329C10.5984 1.68987 10.5731 1.6595 10.5412 1.63393C10.5093 1.60835 10.4714 1.58807 10.4297 1.57424C10.388 1.5604 10.3433 1.55328 10.2982 1.55329H1.13754C1.04641 1.55329 0.959005 1.58231 0.894566 1.63396C0.830127 1.68561 0.793911 1.75567 0.793911 1.82871V9.1713C0.793896 9.20747 0.802782 9.2433 0.820043 9.27672C0.837305 9.31015 0.862604 9.34052 0.894512 9.3661C0.92642 9.39169 0.964318 9.41198 1.00601 9.42583C1.04771 9.43967 1.09241 9.44679 1.13754 9.44679H10.2982C10.3433 9.44681 10.388 9.43969 10.4297 9.42585C10.4714 9.41201 10.5093 9.39172 10.5412 9.36614C10.5732 9.34055 10.5985 9.31017 10.6157 9.27674C10.633 9.24331 10.6419 9.20748 10.6419 9.1713V8.86673C10.6419 8.85762 10.6464 8.84889 10.6544 8.84242L11.3631 8.27454C11.369 8.26976 11.3767 8.26651 11.385 8.26519C11.3933 8.26388 11.4019 8.26456 11.4097 8.26716C11.4175 8.26976 11.4241 8.27416 11.4288 8.2798C11.4335 8.28544 11.436 8.29207 11.436 8.29885V9.80792C11.436 9.88096 11.3998 9.95102 11.3354 10.0027C11.2709 10.0543 11.1835 10.0833 11.0924 10.0833L0.3436 10.0832ZM10.1546 8.41372L9.20131 7.64959C9.17253 7.62649 9.15639 7.59519 9.15639 7.56255C9.15639 7.52992 9.17253 7.49862 9.20131 7.47552L10.6832 6.28763H7.09325C7.07309 6.28764 7.05313 6.28447 7.0345 6.27829C7.01587 6.27212 6.99895 6.26306 6.98469 6.25164C6.97043 6.24022 6.95911 6.22665 6.9514 6.21172C6.94368 6.19679 6.93969 6.18079 6.93969 6.16463V4.83537C6.93967 4.8192 6.94366 4.80319 6.95137 4.78825C6.95908 4.7733 6.97037 4.75972 6.98463 4.74828C6.99889 4.73684 7.01584 4.72777 7.03448 4.72158C7.05311 4.71539 7.07308 4.71219 7.09325 4.71219H10.6833L9.20131 3.52439C9.17254 3.50131 9.15639 3.47002 9.15639 3.4374C9.15639 3.40478 9.17254 3.37349 9.20131 3.35041L10.1546 2.58647C10.1689 2.57501 10.1858 2.56591 10.2044 2.55971C10.223 2.5535 10.243 2.55031 10.2632 2.55031C10.2834 2.55031 10.3034 2.5535 10.322 2.55971C10.3406 2.56591 10.3575 2.57501 10.3718 2.58647L13.9939 5.48967L13.9809 5.50009L13.9939 5.51052L10.3718 8.41389C10.3575 8.42531 10.3406 8.43437 10.322 8.44054C10.3033 8.44671 10.2834 8.44987 10.2632 8.44985C10.2226 8.44975 10.1837 8.43676 10.1551 8.41372H10.1546Z" fill="#3491FF"/>
</svg>
