<svg width="12" height="12" viewBox="0 0 12 12" fill="none" xmlns="http://www.w3.org/2000/svg">
<g clip-path="url(#clip0_18296_887)">
<path d="M6 0C2.69147 0 0 2.69147 0 6C0 9.30853 2.69147 12 6 12C9.30853 12 12 9.30853 12 6C12 2.69147 9.30853 0 6 0Z" fill="#E34537"/>
<path d="M8.20952 7.50241C8.40499 7.69797 8.40499 8.01393 8.20952 8.20947C8.16314 8.25597 8.10803 8.29285 8.04735 8.31799C7.98667 8.34313 7.92162 8.35603 7.85595 8.35596C7.72798 8.35596 7.59998 8.30697 7.50246 8.20947L6 6.70692L4.49754 8.20949C4.45116 8.25599 4.39606 8.29286 4.3354 8.318C4.27473 8.34314 4.2097 8.35605 4.14403 8.35598C4.07836 8.35605 4.01331 8.34314 3.95264 8.31801C3.89197 8.29287 3.83686 8.25599 3.79048 8.20949C3.59501 8.01393 3.59501 7.69797 3.79048 7.50241L5.29303 5.99995L3.79045 4.49749C3.59498 4.30192 3.59498 3.98596 3.79045 3.79042C3.98602 3.59496 4.30198 3.59496 4.49754 3.79042L6 5.29298L7.50246 3.7904C7.69802 3.59493 8.01398 3.59493 8.20952 3.7904C8.40499 3.98596 8.40499 4.30192 8.20952 4.49749L6.70697 5.99995L8.20952 7.50241Z" fill="#FAFAFA"/>
</g>
<defs>
<clipPath id="clip0_18296_887">
<rect width="12" height="12" fill="white"/>
</clipPath>
</defs>
</svg>
