<svg width="17" height="17" viewBox="0 0 17 17" fill="none" xmlns="http://www.w3.org/2000/svg">
<path d="M12.0173 10.8919C11.8471 10.7214 11.616 10.6256 11.3751 10.6256H11.1185C11.0485 10.6256 10.9812 10.5985 10.9308 10.55C10.8273 10.4504 10.8201 10.2878 10.909 10.175C11.8306 9.00564 12.2953 7.53696 12.2101 6.04463C12.1199 4.46698 11.422 2.98561 10.2629 1.91154C9.10384 0.837472 7.57369 0.254245 5.99375 0.28431C4.41381 0.314375 2.90697 0.955394 1.78958 2.07278C0.67219 3.19017 0.0311722 4.69702 0.0011072 6.27696C-0.0289578 7.8569 0.554269 9.38704 1.62834 10.5461C2.70241 11.7052 4.18377 12.4031 5.76143 12.4933C7.25376 12.5785 8.72244 12.1138 9.89182 11.1922C10.0046 11.1033 10.1672 11.1105 10.2668 11.214C10.3153 11.2644 10.3424 11.3317 10.3424 11.4017V11.6577C10.3424 11.8984 10.4382 12.1292 10.6085 12.2991L14.3348 16.0175C14.7219 16.4037 15.3486 16.4034 15.7353 16.0167C16.1221 15.63 16.1223 15.003 15.7358 14.616L12.0173 10.8919ZM6.12042 10.6256C5.28495 10.6258 4.46818 10.3783 3.77342 9.91423C3.07865 9.45021 2.53709 8.79059 2.21724 8.01877C1.89738 7.24695 1.81359 6.39761 1.97646 5.57817C2.13933 4.75873 2.54155 4.00599 3.13224 3.41515C3.72294 2.82432 4.47558 2.42192 5.29499 2.25886C6.11439 2.09579 6.96375 2.17938 7.73564 2.49906C8.50753 2.81873 9.16729 3.36013 9.63147 4.05479C10.0957 4.74944 10.3434 5.56615 10.3434 6.40162C10.3442 6.95655 10.2355 7.50617 10.0235 8.01901C9.8115 8.53185 9.50039 8.99781 9.108 9.3902C8.71561 9.78259 8.24964 10.0937 7.73681 10.3057C7.22397 10.5177 6.67434 10.6264 6.11942 10.6256H6.12042Z" fill="#9D9D9D"/>
</svg>
