<svg width="11" height="11" viewBox="0 0 11 11" fill="none" xmlns="http://www.w3.org/2000/svg">
<path d="M0.866211 8.87775V10.9858H2.97421L9.19121 4.76975L7.08321 2.66075L0.866211 8.87775ZM10.8212 3.13875C10.8734 3.08673 10.9147 3.02493 10.943 2.95689C10.9712 2.88886 10.9858 2.81592 10.9858 2.74225C10.9858 2.66859 10.9712 2.59565 10.943 2.52761C10.9147 2.45957 10.8734 2.39777 10.8212 2.34575L9.50621 1.03075C9.45419 0.978595 9.39239 0.937214 9.32435 0.908979C9.25632 0.880745 9.18337 0.866211 9.10971 0.866211C9.03605 0.866211 8.96311 0.880745 8.89507 0.908979C8.82703 0.937214 8.76523 0.978595 8.71321 1.03075L7.68521 2.05875L9.79321 4.16975L10.8212 3.13875Z" fill="white"/>
</svg>
