<svg width="162" height="47" viewBox="0 0 162 47" fill="none" xmlns="http://www.w3.org/2000/svg">
<path fill-rule="evenodd" clip-rule="evenodd" d="M56.9116 12.7745L57.0815 12.1064C57.6358 12.1064 58.19 11.1585 58.5208 10.5987L62.1147 4.28811L61.8375 3.34017L64.1619 3.16863L64.9397 12.0432L65.4403 12.0974L65.2704 12.7654H62.07L62.1772 12.0974L62.8388 11.989L62.6689 9.75911H59.8529C59.6294 10.2015 59.0751 11.0953 59.0751 11.5467C59.0751 11.9349 59.5757 12.1064 59.8529 12.1064L59.683 12.7745H56.9116ZM60.282 9.09103H62.5438L62.3203 5.46176H62.2666L60.282 9.09103Z" fill="white"/>
<path fill-rule="evenodd" clip-rule="evenodd" d="M64.9215 12.7746L65.0914 12.1065C65.5294 12.1065 65.9228 11.7725 66.1999 11.0502L68.3545 3.96323L67.6929 3.90906L67.8002 3.29515H71.0007L71.1079 7.92654L73.8167 3.29515H76.749L76.6418 3.90906L76.0338 3.96323L74.1565 12.0614L74.7107 12.1156L74.5409 12.7836H71.2242L71.3315 12.1156L71.9394 12.0614L73.7631 4.857H73.7095L70.1156 11.0502H69.1233L68.8998 4.79381L67.076 10.9329C67.0224 11.1044 66.9062 11.3211 66.9062 11.5468C66.9062 11.8808 67.3442 12.1065 67.7912 12.1065L67.6214 12.7746H64.9126H64.9215Z" fill="white"/>
<path fill-rule="evenodd" clip-rule="evenodd" d="M84.4824 6.13898L83.7672 6.19315C83.3828 4.7938 83.052 4.01739 81.4428 4.01739C81.112 4.01739 80.7813 4.01739 80.4505 4.07156L79.5118 7.24944C79.6817 7.3036 79.8426 7.3036 79.9499 7.3036C80.9422 7.3036 81.4428 6.74386 81.8272 5.85009H82.5424L81.4339 9.70507H80.7187V9.03699C80.7187 8.36891 80.4416 7.98071 79.5565 7.98071C79.5029 7.98071 79.3866 7.9807 79.2794 8.03487L78.2334 11.8899C78.5105 11.9982 78.8413 12.0614 79.2257 12.0614C80.9422 12.0614 82.158 10.7252 83.1504 9.49742L83.7046 9.77728L82.158 12.9552C80.9958 12.7836 79.8962 12.7836 78.734 12.7836H75.31L75.4173 12.1156L76.0252 12.0614L78.287 3.96323L77.6791 3.90906L77.9026 3.29515H80.9958C82.2653 3.29515 83.0967 3.29515 84.3125 3.06945L84.4824 6.13898Z" fill="white"/>
<path fill-rule="evenodd" clip-rule="evenodd" d="M83.7043 12.7744L83.8116 12.1063L84.4195 12.0521L86.7439 3.95396L86.136 3.8998L86.3058 3.28589H89.4527C90.9993 3.28589 93.0465 3.56576 93.0465 5.63318C93.0465 7.14086 91.8843 8.08881 90.4539 8.19714L91.339 12.0521L91.8933 12.1063L91.7234 12.7744H89.3454L88.3531 8.30548H87.6379L86.5919 12.0431L87.3071 12.0973L87.0836 12.7653H83.7132L83.7043 12.7744ZM87.8524 7.52907C88.1296 7.52907 88.4603 7.58324 88.7375 7.58324C90.0606 7.58324 90.9456 6.74363 90.9456 5.35331C90.9456 4.45953 90.3377 4.01716 89.4527 4.01716C89.2828 4.01716 89.1219 4.01716 88.8984 4.07133L87.8524 7.52907Z" fill="white"/>
<path fill-rule="evenodd" clip-rule="evenodd" d="M92.2688 12.7744L92.4387 12.1063L93.1002 12.0521L95.4246 4.01716L94.7541 3.8998L94.8703 3.28589H98.4552L98.2943 3.8998L97.6328 4.01716L95.362 12.0521L95.9699 12.1063L95.8627 12.7744H92.2688Z" fill="white"/>
<path fill-rule="evenodd" clip-rule="evenodd" d="M105.643 6.80682H104.865C104.695 5.75054 104.427 3.79146 102.988 3.79146C101.218 3.79146 100.118 8.19715 100.118 9.76803C100.118 10.8243 100.502 11.8896 101.718 11.8896C102.827 11.8896 103.703 10.9417 104.257 10.1562L104.758 10.5986C104.15 11.6007 102.827 12.9459 100.949 12.9459C98.7949 12.9459 97.8026 11.6097 97.8026 9.37079C97.8026 6.63529 99.9035 3.06019 102.889 3.06019C103.39 3.06019 103.721 3.16853 104.052 3.28589C104.382 3.45742 104.767 3.6741 104.937 3.6741C105.16 3.6741 105.437 3.44839 105.652 3.16852V6.7978L105.643 6.80682Z" fill="white"/>
<path fill-rule="evenodd" clip-rule="evenodd" d="M104.096 12.7745L104.266 12.1064C104.874 12.1064 105.375 11.1585 105.705 10.5987L109.299 4.28811L109.022 3.34017L111.347 3.16863L112.124 12.0432L112.625 12.0974L112.455 12.7654H109.255L109.362 12.0974L110.023 11.989L109.854 9.75911H107.038C106.814 10.2015 106.26 11.0953 106.26 11.5467C106.26 11.9349 106.76 12.1064 107.038 12.1064L106.868 12.7745H104.096ZM107.467 9.09103H109.791L109.514 5.46176H109.46L107.476 9.09103H107.467Z" fill="white"/>
<path fill-rule="evenodd" clip-rule="evenodd" d="M112.053 12.7746L112.223 12.1065C112.938 11.8808 113.161 11.601 113.546 10.4363L115.146 4.857C115.146 4.74867 115.2 4.6313 115.2 4.4688C115.2 4.08059 114.646 3.90906 114.368 3.90906L114.476 3.29515H117.569L119.5 10.1655L120.769 5.36257C120.823 5.13687 120.939 4.9202 120.939 4.6945C120.939 4.18893 120.662 4.02642 120.224 3.90906L120.394 3.29515H122.933L122.826 3.90906C122.048 4.08059 121.78 4.74867 121.61 5.41674L119.509 12.7836H118.123L115.915 5.02854H115.861L114.422 10.2738C114.315 10.662 114.199 11.0593 114.199 11.2759C114.199 11.7815 114.637 12.1156 115.084 12.1156L114.914 12.7836H112.044L112.053 12.7746Z" fill="white"/>
<path fill-rule="evenodd" clip-rule="evenodd" d="M56.7955 28.1314L56.9028 27.4633C57.5107 27.4633 58.065 26.5696 58.3958 25.9557L61.9896 19.6992L61.7125 18.7513L64.0368 18.5256L64.8146 27.4543H65.3153L65.1454 28.1224H61.9449L62.0522 27.4543L62.7137 27.4001L62.5439 25.107H59.7278C59.5043 25.5494 58.95 26.4432 58.95 26.8946C58.95 27.346 59.4507 27.4543 59.7278 27.4543L59.558 28.1224H56.7955V28.1314ZM60.1659 24.448H62.4277L62.2042 20.8729H62.1505L60.1659 24.448Z" fill="white"/>
<path fill-rule="evenodd" clip-rule="evenodd" d="M64.5911 28.1313L64.7609 27.4632C65.3689 27.4632 66.3075 26.4611 66.9155 25.784L68.9091 23.4999L67.6396 19.3651L67.0853 19.3109L67.2552 18.6428H70.6255L70.4557 19.3109L69.8478 19.3651L70.7328 22.1547L72.3867 20.2588C72.5565 20.0873 72.6102 19.8706 72.6102 19.7533C72.6102 19.4734 72.2794 19.3109 71.895 19.3109L72.1185 18.6428H75.0508L74.8809 19.3109C74.1032 19.3109 73.3343 20.313 72.7264 20.9811L71.0099 22.9311L72.4493 27.4L73.0035 27.4542L72.7801 28.1223H69.517L69.6243 27.4542L70.2858 27.4L69.1773 24.2763L67.2462 26.5063C67.139 26.6778 67.0764 26.7861 67.0764 27.0118C67.0764 27.3459 67.5144 27.4542 67.7916 27.4542L67.6217 28.1223H64.5821L64.5911 28.1313Z" fill="white"/>
<path fill-rule="evenodd" clip-rule="evenodd" d="M75.9176 19.3651L75.3097 19.3109L75.417 18.6428H79.0108L78.841 19.3109L78.1794 19.3651L75.8551 27.3459C76.0249 27.4 76.2395 27.4 76.4093 27.4C77.9559 27.4 79.1718 26.2264 80.0568 25.0527L80.7184 25.3326L79.2791 28.348C78.7784 28.1764 78.2867 28.1223 77.5089 28.1223H72.9764L73.1463 27.4542L73.7005 27.4L75.9087 19.3651H75.9176Z" fill="white"/>
<path fill-rule="evenodd" clip-rule="evenodd" d="M89.3993 21.5406L88.6216 21.5948C88.2908 20.1413 87.96 19.3648 86.3598 19.3648C86.029 19.3648 85.6982 19.419 85.3674 19.4732L84.4288 22.651H84.8668C85.8591 22.651 86.3598 22.0913 86.7442 21.2517H87.4594L86.3508 25.0435H85.6356V24.3754C85.6356 23.7615 85.3049 23.3191 84.4734 23.3191C84.4198 23.3191 84.3036 23.3191 84.1963 23.3733L83.1504 27.2824C83.4275 27.3366 83.7583 27.3908 84.1427 27.3908C85.7966 27.3908 87.075 26.1088 88.0673 24.8268L88.6216 25.1608L87.075 28.3387C85.9128 28.113 84.8132 28.113 83.651 28.113H80.227L80.3343 27.4449L80.9422 27.3908L83.204 19.3558L82.5961 19.3016L82.7659 18.6336H85.9128C87.1822 18.6336 88.0137 18.6336 89.1758 18.4079L89.3993 21.5316V21.5406Z" fill="white"/>
<path fill-rule="evenodd" clip-rule="evenodd" d="M101.003 27.1202C100.502 27.6799 99.6799 28.348 98.9022 28.348C98.187 28.348 97.6863 28.1223 97.3556 27.5084C96.8013 27.9507 95.9699 28.348 95.2547 28.348C93.6008 28.348 92.6621 27.1743 92.6621 25.5583C92.6621 23.7708 94.1014 22.6513 95.7017 22.2089C95.648 21.929 95.648 21.7033 95.648 21.4867C95.648 19.6991 96.5331 18.4171 98.4105 18.4171C99.2955 18.4171 100.181 19.1394 100.181 20.0963C100.181 21.604 98.9111 22.0464 97.7489 22.4436C97.9188 23.3374 98.1333 24.2312 98.4105 25.125C98.9648 24.2312 99.6799 22.4436 100.949 22.4436C101.611 22.4436 101.995 22.886 101.995 23.5631C101.995 24.1229 101.611 24.6826 101.057 24.6826C100.502 24.6826 100.279 24.4027 99.9482 24.0145L98.7323 25.9104C98.9022 26.3528 99.1704 27.0299 99.7246 27.0299C100.109 27.0299 100.44 26.5875 100.717 26.3618L100.994 27.1472L101.003 27.1202ZM94.8166 24.7729C94.8166 25.6666 95.0938 27.1202 96.2023 27.1202C96.4258 27.1202 96.7566 27.0118 96.9175 26.8403C96.3632 25.6125 95.9788 24.2131 95.809 22.877C95.1474 23.1568 94.8166 24.159 94.8166 24.7729ZM99.1257 20.0241C99.1257 19.4644 99.0184 19.1845 98.4105 19.1845C97.6327 19.1845 97.4718 20.2408 97.4718 20.8005C97.4718 21.0804 97.5254 21.4686 97.6416 21.7485C98.4194 21.5228 99.1346 20.9089 99.1346 20.0151L99.1257 20.0241Z" fill="white"/>
<path fill-rule="evenodd" clip-rule="evenodd" d="M57.0723 43.533L57.2421 42.8649C57.6802 42.8649 58.0735 42.5309 58.3507 41.8086L60.5052 34.7758L59.8436 34.7216L59.9509 34.0535H63.1514L63.2587 38.6849L65.9675 34.0535H68.8998L68.7925 34.7216H68.1846L66.2536 42.8198L66.8615 42.8739L66.6916 43.542H63.3213L63.4911 42.8739L64.099 42.8198L65.9228 35.6154H65.8691L62.2753 41.8086H61.283L61.0595 35.5522L59.2357 41.6913C59.1821 41.8628 59.0659 42.0795 59.0659 42.3052C59.0659 42.6392 59.5039 42.8649 59.9509 42.8649L59.7811 43.533H57.0723Z" fill="white"/>
<path fill-rule="evenodd" clip-rule="evenodd" d="M66.7455 43.5333L66.9154 42.8652C67.5233 42.8652 68.0239 41.9173 68.3547 41.3575L71.9486 35.0469L71.7251 34.1532L73.9869 33.9275L74.8183 42.802L75.2563 42.8562L75.149 43.5243H71.886L72.0558 42.8562L72.7174 42.7479L72.4939 40.5179H69.6778C69.508 40.9603 68.9626 41.8541 68.9626 42.3055C68.9626 42.6937 69.4007 42.8652 69.6778 42.8652L69.5705 43.5333H66.7455ZM70.1159 39.8499H72.4403L72.1631 36.2206L70.1159 39.8499Z" fill="white"/>
<path fill-rule="evenodd" clip-rule="evenodd" d="M74.7556 43.5332L74.9255 42.8651C75.6407 42.6394 75.8642 42.3595 76.195 41.1859L77.7952 35.6066C77.8489 35.4982 77.8489 35.3809 77.8489 35.2725C77.8489 34.8302 77.2946 34.7128 77.0174 34.7128L77.1873 34.0447H80.2269L82.1579 40.9151H82.2115L83.481 36.1121C83.5346 35.8864 83.5883 35.7239 83.5883 35.4441C83.5883 34.9385 83.3111 34.8302 82.8731 34.7218L83.0429 34.0537H85.6355L85.4657 34.7218C84.6879 34.8302 84.4733 35.5073 84.2498 36.1753L82.2026 43.5422H80.7633L78.5551 35.7871L77.0621 41.0866C77.0085 41.4206 76.8386 41.8088 76.8386 42.0887C76.8386 42.5311 77.3393 42.8741 77.7237 42.8741L77.5538 43.5422H74.7378L74.7556 43.5332Z" fill="white"/>
<path fill-rule="evenodd" clip-rule="evenodd" d="M85.7517 34.7128L85.859 34.0447H89.283L89.1131 34.7128L88.4516 34.767L86.905 40.4095C86.8513 40.6894 86.7351 41.0776 86.7351 41.3574C86.7351 42.4137 87.3967 42.9735 88.3354 42.9735C89.7747 42.9735 90.3826 41.7456 90.7134 40.4637L91.9829 35.9406C92.0365 35.7691 92.0901 35.4982 92.0901 35.3267C92.0901 34.8843 91.6521 34.767 91.2587 34.7128L91.4286 34.0447H94.191L93.9675 34.7128C93.4132 34.7128 93.1361 34.9927 92.859 35.8864L91.3124 41.1859C90.7581 43.0818 89.3188 43.6957 87.7722 43.6957C85.9484 43.6957 84.5717 42.9103 84.5717 41.3484C84.5717 40.906 84.6253 40.6803 84.7415 40.1748L86.2881 34.7579L85.7339 34.7038L85.7517 34.7128Z" fill="white"/>
<path fill-rule="evenodd" clip-rule="evenodd" d="M92.2151 43.533L92.385 42.8649L93.0465 42.8107L95.4245 34.7758L94.7094 34.7216L94.8792 34.0535H97.8115C98.9737 34.0535 100.136 33.9994 101.289 33.8278L101.513 37.0689L100.735 37.1231C100.458 35.9494 100.127 34.7758 98.6876 34.7758C98.3032 34.7758 97.9099 34.7758 97.5254 34.8841L96.4795 38.2877C96.6493 38.3419 96.7566 38.3419 96.8639 38.3419C97.9098 38.3419 98.5178 37.9537 98.9648 37.0057H99.7425L98.634 40.7433H97.8562C97.8562 40.4635 97.9099 40.2378 97.9099 40.0211C97.9099 39.4072 97.5254 39.019 96.5867 39.019H96.256L95.21 42.8107L95.9252 42.8649L95.7017 43.533H92.2151Z" fill="white"/>
<path fill-rule="evenodd" clip-rule="evenodd" d="M98.6787 43.5333L98.8485 42.8652C99.4564 42.8652 99.9571 41.9173 100.288 41.3575L103.882 35.0469L103.658 34.1532L105.92 33.9275L106.698 42.802L107.198 42.8562L107.091 43.5243H103.828L103.998 42.8562L104.659 42.7479L104.436 40.5179H101.62C101.45 40.9603 100.842 41.8541 100.842 42.3055C100.842 42.6937 101.343 42.8652 101.62 42.8652L101.513 43.5333H98.6787ZM102.049 39.8499H104.373L104.096 36.2206L102.049 39.8499Z" fill="white"/>
<path fill-rule="evenodd" clip-rule="evenodd" d="M115.754 37.5657H114.976C114.753 36.5094 114.476 34.5503 113.099 34.5503C111.275 34.5503 110.167 38.956 110.167 40.5269C110.167 41.5831 110.551 42.6484 111.821 42.6484C112.929 42.6484 113.805 41.7005 114.306 40.9151L114.86 41.3574C114.199 42.3596 112.929 43.7047 111.052 43.7047C108.897 43.7047 107.905 42.3686 107.905 40.1296C107.905 37.3941 109.952 33.819 112.992 33.819C113.43 33.819 113.823 33.9274 114.154 34.0447C114.485 34.2163 114.869 34.4329 114.985 34.4329C115.262 34.4329 115.54 34.2072 115.763 33.9274V37.5566L115.754 37.5657Z" fill="white"/>
<path fill-rule="evenodd" clip-rule="evenodd" d="M123.934 37.0602H123.273C123.103 36.1123 122.942 34.7671 121.726 34.7671L119.402 42.802L120.063 42.8562L119.956 43.5243H116.416L116.585 42.8562L117.247 42.802L119.509 34.7671C118.123 34.7671 117.301 36.0491 116.639 37.1144L116.031 36.8887L117.301 33.9275C117.739 33.9816 118.463 34.0358 119.017 34.0358H122.003C122.611 34.0358 123.326 33.9816 123.934 33.9275V37.0602Z" fill="white"/>
<path fill-rule="evenodd" clip-rule="evenodd" d="M124.649 34.7128L124.819 34.0447H128.243L128.073 34.7128L127.358 34.767L125.812 40.4095C125.758 40.6894 125.642 41.0776 125.642 41.3574C125.642 42.4137 126.357 42.9735 127.242 42.9735C128.681 42.9735 129.289 41.7456 129.62 40.4637L130.889 35.9406C130.943 35.7691 130.997 35.4982 130.997 35.3267C130.997 34.8843 130.559 34.767 130.165 34.7128L130.335 34.0447H133.098L132.874 34.7128C132.32 34.7128 132.043 34.9927 131.765 35.8864L130.219 41.1859C129.665 43.0818 128.234 43.6957 126.741 43.6957C124.864 43.6957 123.478 42.9103 123.478 41.3484C123.478 40.906 123.532 40.6803 123.648 40.1748L125.195 34.7579L124.64 34.7038L124.649 34.7128Z" fill="white"/>
<path fill-rule="evenodd" clip-rule="evenodd" d="M131.006 43.5332L131.113 42.8651L131.721 42.811L134.045 34.7128H133.437L133.544 34.0447H136.745C138.292 34.0447 140.339 34.3788 140.339 36.392C140.339 37.8997 139.177 38.8476 137.746 38.956L138.631 42.811L139.186 42.8651L139.016 43.5332H136.638L135.645 39.0643H134.93L133.884 42.8019L134.546 42.8561L134.376 43.5242H131.006V43.5332ZM135.154 38.2879C135.431 38.2879 135.762 38.3421 136.039 38.3421C137.362 38.3421 138.247 37.5025 138.247 36.1663C138.247 35.2184 137.639 34.767 136.754 34.767C136.584 34.767 136.423 34.767 136.2 34.8211L135.154 38.2789V38.2879Z" fill="white"/>
<path fill-rule="evenodd" clip-rule="evenodd" d="M139.57 43.5332L139.731 42.8651L140.401 42.811L142.717 34.776L142.055 34.7128L142.163 34.0447H145.703L145.587 34.7128L144.925 34.776L142.663 42.811L143.271 42.8651L143.164 43.5332H139.57Z" fill="white"/>
<path fill-rule="evenodd" clip-rule="evenodd" d="M143.879 43.5332L144.049 42.8651C144.764 42.6394 144.987 42.3595 145.372 41.1859L146.972 35.6066C146.972 35.4982 147.026 35.3809 147.026 35.2725C147.026 34.8302 146.471 34.7128 146.194 34.7128L146.302 34.0447H149.395L151.272 40.9151H151.326L152.595 36.1121C152.649 35.8864 152.703 35.7239 152.703 35.4441C152.703 34.9385 152.479 34.8302 152.041 34.7218L152.211 34.0537H154.75L154.58 34.7218C153.865 34.8302 153.588 35.5073 153.418 36.1753L151.317 43.5422H149.931L147.669 35.7871L146.23 41.0866C146.123 41.4206 146.007 41.8088 146.007 42.0887C146.007 42.5311 146.445 42.8741 146.838 42.8741L146.731 43.5422H143.861L143.879 43.5332Z" fill="white"/>
<path fill-rule="evenodd" clip-rule="evenodd" d="M162 37.5115H161.169C160.891 36.4552 160.391 34.5503 159.068 34.5503C156.913 34.5503 155.751 38.956 155.751 41.0234C155.751 42.1429 156.252 42.9735 157.298 42.9735C157.575 42.9735 157.906 42.9735 158.013 42.6936L158.728 40.572H158.013L158.236 39.8498H161.714L161.544 40.572H160.936C160.605 41.5199 160.221 42.5221 160.158 43.3617C159.273 43.4158 158.335 43.6957 157.289 43.6957C155.027 43.6957 153.588 42.2964 153.588 40.0123C153.588 37.2226 155.635 33.819 158.728 33.819C159.39 33.819 159.944 33.9274 160.275 34.1531C160.605 34.3788 160.829 34.4871 161.052 34.4871C161.276 34.4871 161.714 34.2614 161.991 34.0447V37.5025L162 37.5115Z" fill="white"/>
<path fill-rule="evenodd" clip-rule="evenodd" d="M42.3216 37.006C38.1198 43.0367 31.1645 47 23.2617 47C10.3882 47 0 36.5094 0 23.5C0 10.4906 10.3882 0 23.2617 0C34.9193 0 44.5387 8.59469 46.2462 19.8707H43.3765C41.66 10.2107 33.3191 2.898 23.2617 2.898C11.9884 2.898 2.81607 12.1066 2.81607 23.5C2.81607 34.8934 11.9884 44.1562 23.2617 44.1562C29.4481 44.1562 34.9729 41.3665 38.6741 37.015H42.3216V37.006Z" fill="white"/>
<path fill-rule="evenodd" clip-rule="evenodd" d="M27.0701 12.278L28.7865 24.1138C28.8402 24.6193 28.7865 25.2874 29.5017 25.3958L30.5477 25.4499L30.2169 27.2916H23.0918L23.4762 25.4499H23.7533C24.7993 25.4499 25.1927 25.5041 25.139 25.0617C25.0854 24.7818 24.8083 22.886 24.8083 22.886H20.6601L20.383 23.3283C19.9986 23.8881 19.498 24.6645 19.337 24.9985C19.1135 25.3867 19.8913 25.3867 20.83 25.4409L20.3919 27.2826H14.9744L15.3588 25.4409H15.9667C16.5746 25.4409 16.8517 25.3326 17.7368 23.879L25.1927 12.269H27.0701V12.278ZM21.876 20.9269H24.5311L24.0931 17.4691L23.9232 17.6948L21.876 20.9359V20.9269Z" fill="white"/>
<path fill-rule="evenodd" clip-rule="evenodd" d="M16.9591 7.86339L18.613 19.6992C18.6666 20.2047 18.613 20.8728 19.3282 20.9811L20.3742 21.0353L20.0434 22.877H12.9183L13.3027 21.0353H13.5798C14.6884 20.9811 15.0192 21.0895 14.9655 20.6471C14.9119 20.3672 14.6884 18.4713 14.6884 18.4713H10.4866L10.2095 18.9137C9.82507 19.4735 9.32443 20.2499 9.16352 20.5929C8.94002 20.9811 9.71779 20.9811 10.6565 21.0353L10.2184 22.877H4.80084L5.23889 21.0353H5.79317C6.40108 21.0353 6.73186 20.927 7.56327 19.4735L15.0192 7.86339H16.9591ZM11.7114 16.5123H14.3665L13.9285 13.0545L13.7586 13.2802L11.7114 16.5213V16.5123Z" fill="white"/>
<path fill-rule="evenodd" clip-rule="evenodd" d="M36.4124 20.8725L37.0203 28.4651L37.2438 28.6366L42.5451 20.8815H48.9014L48.517 22.8948H46.9704C46.4698 22.8948 46.3088 23.3372 46.139 23.8969L43.8146 33.277C43.7073 33.8909 43.7073 34.1708 44.199 34.1708H45.692L45.2539 35.841H37.0739L37.512 34.1708H38.8351C39.3893 34.1708 39.7201 33.8368 39.8274 33.2229L41.2667 26.6956L40.8823 27.2012L35.2502 35.85H34.1416L32.5414 27.2012L30.8249 33.0604C30.7176 33.6743 30.9322 34.0083 31.4328 34.0083H32.3179L31.9871 35.85H26.0152L26.346 34.1798H27.3383C27.839 34.1798 28.1698 33.8458 28.3307 33.2319L31.0395 23.8518C31.1467 23.292 30.9322 22.9038 30.4316 22.9038H27.6691L28.1072 20.8906H36.3945L36.4124 20.8725Z" fill="white"/>
</svg>
