<svg width="83" height="32" viewBox="0 0 83 32" fill="none" xmlns="http://www.w3.org/2000/svg">
<path d="M45.2549 31.775H47.1806C52.9579 31.4861 57.002 26.9606 57.002 21.5685C57.002 19.739 56.6168 17.9095 55.7502 16.4652H45.2549V31.775Z" fill="white"/>
<path d="M44.2928 16.3689H34.6641V31.7749H44.2928V16.3689Z" fill="white"/>
<path d="M55.1725 15.406C54.2096 14.058 52.8616 12.9988 51.4173 12.2285C53.1505 10.9768 54.3059 8.95476 54.3059 6.74014C54.3059 2.98492 51.321 0 47.5658 0H45.2549V15.406H55.1725Z" fill="white"/>
<path d="M44.2928 0H34.6641V15.406H44.2928V0Z" fill="white"/>
<path d="M71.2529 31.775H73.1787C78.9559 31.4861 83 26.9606 83 21.5685C83 19.739 82.6149 17.9095 81.7483 16.4652H71.2529V31.775Z" fill="white"/>
<path d="M70.2899 16.3689H60.6611V31.7749H70.2899V16.3689Z" fill="white"/>
<path d="M81.1706 15.406C80.2077 14.058 78.8597 12.9988 77.4153 12.2285C79.1485 10.9768 80.304 8.95476 80.304 6.74014C80.304 2.98492 77.3191 0 73.5638 0H71.2529V15.406H81.1706Z" fill="white"/>
<path d="M70.2899 0H60.6611V15.406H70.2899V0Z" fill="white"/>
<path d="M5.4884 16.3689L0 31.7749H7.99188L10.3028 25.0348H15.406V16.3689H5.4884Z" fill="white"/>
<path d="M15.4061 0H11.2657L5.77734 15.406H15.4061V0Z" fill="white"/>
<path d="M16.3691 25.0348H21.4724L23.7833 31.7749H31.7752L26.2868 16.3689H16.3691V25.0348Z" fill="white"/>
<path d="M25.9979 15.406L20.5095 0H16.3691V15.406H25.9979Z" fill="white"/>
</svg>
