<svg width="102" height="41" viewBox="0 0 102 41" fill="none" xmlns="http://www.w3.org/2000/svg">
<path d="M38.3696 13.4409H34.314C33.5454 13.4409 32.8422 13.5881 32.8422 14.7001V26.2618C32.8422 27.3738 33.5618 27.521 34.314 27.521H38.3696C42.2944 27.521 45.3687 24.2994 45.3687 20.4728C45.3687 16.6461 42.2944 13.4409 38.3696 13.4409ZM38.2715 24.8391H35.8349V16.1555H38.2715C40.659 16.1555 42.4252 18.216 42.4252 20.4891C42.4252 22.7622 40.659 24.8391 38.2715 24.8391ZM26.7098 13.4409H26.35C25.6305 13.4736 25.1562 13.6044 24.1587 14.5039L13.1694 25.4932C12.597 26.0656 12.6461 26.4744 12.7442 26.7687C12.7605 26.8178 12.9731 27.4556 14.0361 27.5373C14.5921 27.5701 15.1154 27.4065 15.7204 26.8015L17.552 24.9863H25.1726V26.2782C25.1726 27.3902 25.8921 27.5373 26.6444 27.5373H26.6934C27.462 27.5373 28.1652 27.3902 28.1652 26.2782V14.7165C28.1979 13.5881 27.4784 13.4409 26.7098 13.4409V13.4409ZM19.9723 22.5496L25.1726 17.3493V22.5496H19.9723ZM51.9754 26.2618C51.9754 27.3738 51.2559 27.521 50.5036 27.521H50.4546C49.686 27.521 48.9828 27.3738 48.9828 26.2618V14.7001C48.9828 13.5881 49.7023 13.4409 50.4546 13.4409H50.5036C51.2722 13.4409 51.9754 13.5881 51.9754 14.7001V26.2618V26.2618ZM59.4488 24.79H66.775C67.7726 24.79 68.0015 25.3787 68.0342 26.0492V26.2454C68.0015 26.9159 67.7726 27.5046 66.775 27.5046H57.928C57.1594 27.5046 56.4562 27.3575 56.4562 26.2454V14.6838C56.4562 13.5717 57.1757 13.4246 57.928 13.4246H66.775C67.7726 13.4246 68.0015 14.0133 68.0342 14.6838V14.88C68.0015 15.5505 67.7726 16.1392 66.775 16.1392H59.4488V18.9356H65.058C66.0555 18.9356 66.2845 19.5243 66.3172 20.1948V20.391C66.2845 21.0615 66.0555 21.6502 65.058 21.6502H59.4488V24.79V24.79ZM102 14.7001V14.8963C101.967 15.5668 101.738 16.1555 100.741 16.1555H96.4888V26.2454C96.4888 27.3575 95.7692 27.5046 95.017 27.5046H94.9679C94.1993 27.5046 93.4961 27.3575 93.4961 26.2454V16.1555H89.2443C88.2468 16.1555 88.0178 15.5668 87.9851 14.8963V14.7001C88.0178 14.0296 88.2468 13.4409 89.2443 13.4409H100.757C101.738 13.4409 101.967 14.0296 102 14.7001ZM74.6573 18.3796V26.2618C74.6573 27.3738 73.9377 27.521 73.1855 27.521H73.1364C72.3678 27.521 71.6647 27.3738 71.6647 26.2618V14.7001C71.6647 13.5881 72.3842 13.4409 73.1364 13.4409H73.1855C73.8069 13.4409 74.2812 13.9969 74.2812 13.9969L82.3923 22.5823V14.7001C82.3923 13.5881 83.1119 13.4409 83.8641 13.4409H83.9132C84.6818 13.4409 85.385 13.5881 85.385 14.7001V26.2618C85.385 27.3738 84.6654 27.521 83.9132 27.521H83.8641C83.2427 27.521 82.7685 26.965 82.7685 26.965L74.6573 18.3796V18.3796ZM102 14.7001V14.8963C101.967 15.5668 101.738 16.1555 100.741 16.1555H96.4888V26.2454C96.4888 27.3575 95.7692 27.5046 95.017 27.5046H94.9679C94.1993 27.5046 93.4961 27.3575 93.4961 26.2454V16.1555H89.2443C88.2468 16.1555 88.0178 15.5668 87.9851 14.8963V14.7001C88.0178 14.0296 88.2468 13.4409 89.2443 13.4409H100.757C101.738 13.4409 101.967 14.0296 102 14.7001ZM74.6573 18.3796V26.2618C74.6573 27.3738 73.9377 27.521 73.1855 27.521H73.1364C72.3678 27.521 71.6647 27.3738 71.6647 26.2618V14.7001C71.6647 13.5881 72.3842 13.4409 73.1364 13.4409H73.1855C73.8069 13.4409 74.2812 13.9969 74.2812 13.9969L82.3923 22.5823V14.7001C82.3923 13.5881 83.1119 13.4409 83.8641 13.4409H83.9132C84.6818 13.4409 85.385 13.5881 85.385 14.7001V26.2618C85.385 27.3738 84.6654 27.521 83.9132 27.521H83.8641C83.2427 27.521 82.7685 26.965 82.7685 26.965L74.6573 18.3796V18.3796Z" fill="white"/>
<path d="M2.37653 40.1457C1.67335 40.8488 1.10099 40.6035 0.594038 40.1457L0.446859 39.9985C-0.0110297 39.4915 -0.27268 38.9192 0.446859 38.216L9.88264 28.7802C10.5858 28.077 11.1582 28.3223 11.6651 28.7802L11.8123 28.9274C12.2702 29.4343 12.5319 30.0067 11.8123 30.7099L2.37653 40.1457ZM30.7166 11.8056C30.0134 12.5088 29.441 12.2635 28.9341 11.8056L28.7869 11.6584C28.329 11.1515 28.0674 10.5791 28.7869 9.87594L38.2227 0.440158C38.9259 -0.263028 39.4982 -0.0177305 40.0052 0.440158L40.1524 0.587337C40.6102 1.09429 40.8719 1.66665 40.1524 2.36983L30.7166 11.8056V11.8056Z" fill="white"/>
</svg>
