<svg width="152" height="24" viewBox="0 0 152 24" fill="none" xmlns="http://www.w3.org/2000/svg">
<g clip-path="url(#clip0_310_6757)">
<path d="M0.0372216 1.0369C1.51154 1.0369 2.93848 1.0369 4.36541 1.0369C6.45842 1.0369 8.55143 1.01889 10.6444 1.04719C11.9661 1.0652 13.2614 1.27875 14.4882 1.78818C17.3579 2.98201 18.669 5.74273 17.6738 8.50345C17.1736 9.88767 16.16 10.7882 14.7568 11.3568C15.2385 11.6552 15.7072 11.9228 16.1521 12.2239C18.282 13.6595 18.9086 15.7024 18.4715 18.0721C17.9186 21.054 15.615 23.0378 12.4321 23.2384C10.3469 23.3722 8.2513 23.3208 6.15829 23.3439C5.22368 23.3542 4.28643 23.3491 3.35181 23.3439C1.38254 23.3336 0.0135271 22.0395 0.00826171 20.1175C-0.00490189 13.8962 0.000363552 7.6724 0.00562899 1.44599C0.00562899 1.31477 0.0266907 1.18355 0.0398543 1.03433L0.0372216 1.0369ZM5.11574 13.7239C5.11574 15.3422 5.09994 16.9426 5.12627 18.5429C5.13417 18.9726 5.45799 19.1964 5.90292 19.1913C7.54837 19.1733 9.19382 19.1913 10.8366 19.1064C12.3426 19.0292 13.3219 17.9383 13.3272 16.4717C13.3325 14.9254 12.382 13.801 10.8445 13.7419C8.96477 13.6698 7.07974 13.7239 5.11837 13.7239H5.11574ZM5.14733 5.19213V9.64582C7.11397 9.64582 9.04112 9.6947 10.9683 9.62523C11.8529 9.59436 12.4795 9.03089 12.7585 8.18184C13.2508 6.67926 12.3899 5.4134 10.7155 5.2899C9.40707 5.1947 8.09071 5.21786 6.77698 5.1947C6.24254 5.18441 5.7081 5.1947 5.14996 5.1947L5.14733 5.19213Z" fill="white"/>
<path d="M105.216 21.5815C103.929 23.6527 101.981 23.9923 99.864 23.856C96.8969 23.6681 94.9356 22.0446 93.9088 19.4434C92.6109 16.1527 92.8188 12.8825 94.7302 9.84138C96.423 7.15013 99.8008 6.04893 102.876 7.05236C103.681 7.31479 104.427 7.675 105 8.38769C105.008 8.23074 105.024 8.0738 105.024 7.91685C105.024 6.65098 105.022 5.38255 105.024 4.11668C105.032 2.13555 106.148 1.04464 108.17 1.03435C108.742 1.03177 109.31 1.03435 109.918 1.03435V23.3131H105.214V21.5841L105.216 21.5815ZM105.235 15.4657C105.156 14.645 105.135 14.0738 105.04 13.5129C104.75 11.7994 103.655 10.7162 102.036 10.5052C100.617 10.3199 99.1032 11.151 98.5055 12.5764C97.7368 14.4057 97.721 16.2813 98.5319 18.1055C98.9373 19.0189 99.5928 19.7599 100.641 20.0352C102.476 20.5189 104.147 19.6827 104.745 17.892C105.029 17.0403 105.108 16.1218 105.237 15.4657H105.235Z" fill="white"/>
<path d="M25.1007 16.6569C24.9454 18.3062 26.4776 20.0274 28.2205 20.2178C29.579 20.3645 30.7689 20.066 31.6456 18.952C31.7273 18.849 31.8957 18.8053 32.03 18.7487C32.0827 18.7255 32.1564 18.7435 32.2196 18.7435C33.6939 18.7435 35.1656 18.7435 36.6926 18.7435C36.6557 18.8799 36.6373 18.9957 36.5951 19.096C35.3762 21.9262 33.1647 23.4803 30.0765 23.8996C28.5443 24.108 27.0305 23.9845 25.5746 23.5008C23.1367 22.6904 21.4939 21.054 20.6672 18.6921C19.7405 16.0446 19.8932 13.4099 21.1859 10.9168C22.7392 7.91936 25.3929 6.62519 28.7628 6.66636C32.9225 6.71781 35.6895 8.98196 36.5899 13.0652C36.811 14.0686 36.8584 15.1106 36.9822 16.1346C37.0295 16.5309 36.8716 16.6646 36.4451 16.6621C32.862 16.6466 29.2815 16.6544 25.6983 16.6544H25.1033L25.1007 16.6569ZM31.8563 13.3379C31.9668 12.0309 30.948 10.5231 29.0419 10.2967C27.0305 10.0549 25.2903 11.3799 25.0454 13.3379H31.8563Z" fill="white"/>
<path d="M51.1169 16.6569C51.1617 18.2007 52.1595 19.5849 53.5206 20.0377C54.8659 20.4854 56.7193 20.3053 57.6882 18.97C57.7672 18.8619 57.9357 18.7564 58.0647 18.7564C59.6153 18.741 61.1634 18.7461 62.772 18.7461C62.1533 20.4262 61.1844 21.7821 59.6627 22.7084C57.6908 23.9048 55.5267 24.1929 53.2626 23.8713C48.0814 23.1329 45.7725 18.8079 46.2043 14.47C46.3649 12.8439 46.8493 11.3259 47.826 9.98282C49.5347 7.63633 51.9252 6.61746 54.8238 6.66635C59.0335 6.73582 61.8505 9.07973 62.6666 13.2092C62.8588 14.1895 62.8983 15.1981 63.0063 16.1938C63.0431 16.5437 62.901 16.6672 62.5192 16.6646C58.9045 16.6492 55.2898 16.6569 51.6751 16.6569C51.4908 16.6569 51.3065 16.6569 51.1222 16.6569H51.1169ZM57.9778 13.3482C58.0594 11.7967 56.7457 10.4408 55.0844 10.289C53.0441 10.1037 51.3644 11.3928 51.1248 13.3482H57.9778Z" fill="white"/>
<path d="M130.037 15.175C129.908 18.5583 128.645 21.3319 125.454 22.9914C123.516 24 121.41 24.0258 119.288 23.7582C117.34 23.5112 115.708 22.6621 114.415 21.2213C113.301 19.9786 112.669 18.512 112.419 16.8911C112.048 14.5009 112.467 12.2573 113.796 10.1938C114.752 8.71186 116.158 7.80362 117.816 7.25045C120.181 6.458 122.566 6.50174 124.888 7.36623C127.944 8.50088 129.458 10.8319 129.948 13.8834C129.987 14.1278 130.014 14.3722 130.032 14.6192C130.045 14.8045 130.032 14.9897 130.032 15.175H130.037ZM125.283 15.1827L125.188 15.1595C125.156 14.7582 125.154 14.3542 125.085 13.9606C125.017 13.5669 124.914 13.1758 124.777 12.8002C124.217 11.2745 123.013 10.4306 121.363 10.3842C119.67 10.3354 118.272 11.1613 117.669 12.6432C116.982 14.3311 116.971 16.0601 117.601 17.7582C118.169 19.2968 119.493 20.1407 121.149 20.1407C122.866 20.1407 124.151 19.3328 124.719 17.7427C125.012 16.9246 125.104 16.0369 125.285 15.1827H125.283Z" fill="white"/>
<path d="M76.1465 18.1672C77.6076 18.1672 79.0319 18.1621 80.4562 18.1775C80.5537 18.1775 80.7222 18.3087 80.7379 18.3962C80.9407 19.5617 81.7647 20.1097 82.8441 20.3104C83.5155 20.4339 84.2263 20.4339 84.9108 20.385C85.282 20.3593 85.6611 20.1509 85.9955 19.9579C86.4641 19.6826 86.6747 19.2401 86.6326 18.6998C86.5905 18.1543 86.2614 17.7993 85.7585 17.6552C84.8502 17.3928 83.9235 17.1946 83.0047 16.9579C81.9042 16.6749 80.788 16.4382 79.7112 16.0883C76.6256 15.0849 76.1728 12.4785 76.9337 10.2967C77.4576 8.79155 78.5528 7.78298 80.064 7.27611C82.5571 6.43992 85.0846 6.42963 87.5488 7.37646C89.3259 8.05828 90.5475 9.30356 90.9792 11.1741C91.0345 11.4108 91.0345 11.6578 91.0635 11.9459C90.8897 11.9665 90.7528 11.9974 90.6185 11.9974C89.4128 12 88.2096 11.9922 87.0038 12.0051C86.7037 12.0077 86.5641 11.9099 86.4588 11.6295C86.1982 10.9373 85.6954 10.4151 84.9503 10.2787C84.2131 10.1449 83.447 10.1346 82.6941 10.1295C82.4466 10.1295 82.1807 10.2864 81.9569 10.4228C81.5041 10.6955 81.175 11.0711 81.2329 11.632C81.2882 12.1826 81.7226 12.4219 82.1912 12.5377C83.2785 12.8078 84.379 13.0214 85.4716 13.271C86.4115 13.4845 87.3619 13.6646 88.2807 13.9451C90.4711 14.6192 91.4821 16.0986 91.4373 18.4502C91.3899 20.8276 89.8656 22.7495 87.4672 23.4236C85.0372 24.108 82.5808 24.0926 80.1666 23.3362C77.7893 22.59 76.2465 20.5832 76.1465 18.1698V18.1672Z" fill="white"/>
<path d="M152 7.24534V10.9117H148.807C148.807 11.1433 148.807 11.3234 148.807 11.5009C148.807 14.3723 148.807 17.2462 148.807 20.1175C148.807 20.8766 148.622 21.5841 148.209 22.2299C147.777 22.9066 147.14 23.2874 146.332 23.3311C145.574 23.3723 144.813 23.3388 144.02 23.3388C144.004 23.205 143.981 23.0867 143.981 22.9683C143.981 17.2539 143.976 11.5421 143.986 5.82767C143.986 5.33882 144.044 4.83453 144.168 4.36112C144.586 2.77106 145.576 1.70846 147.245 1.28393C148.807 0.887703 150.389 1.09096 151.99 1.01892V4.60811C151.587 4.60811 151.181 4.61583 150.776 4.60811C149.133 4.57209 148.68 5.65786 148.822 7.01377C148.83 7.10125 149.057 7.22218 149.188 7.2299C149.646 7.25563 150.107 7.24019 150.568 7.24019C151.026 7.24019 151.484 7.24019 151.995 7.24019L152 7.24534Z" fill="white"/>
<path d="M136.996 23.331H132.307C132.297 23.1792 132.278 23.0454 132.278 22.9116C132.278 20.3027 132.268 17.6938 132.281 15.0849C132.289 13.8473 132.439 12.6226 132.887 11.4519C133.837 8.96136 135.704 7.54884 138.365 7.17577C139.471 7.02139 140.608 7.08057 141.73 7.03683C141.988 7.02654 142.101 7.11145 142.101 7.37903C142.093 8.50596 142.093 9.63289 142.101 10.7598C142.101 11.0223 141.998 11.1123 141.732 11.1046C141.259 11.0917 140.782 11.0943 140.306 11.1046C138.36 11.138 137.291 12.0926 137.086 13.9862C137.03 14.506 136.999 15.0334 136.996 15.5557C136.986 17.9485 136.991 20.3413 136.991 22.7341C136.991 22.9168 136.991 23.102 136.991 23.3361L136.996 23.331Z" fill="white"/>
<path d="M74.8455 6.98022V11.0634C74.7007 11.0737 74.5638 11.0917 74.4269 11.0943C73.9504 11.0994 73.4765 11.0891 72.9999 11.102C71.2071 11.1457 70.1724 12.0257 69.917 13.7572C69.8328 14.3207 69.8065 14.8945 69.8038 15.4631C69.7933 17.9022 69.7986 20.3439 69.7986 22.7855C69.7986 22.9528 69.7986 23.12 69.7986 23.3181H65.1149C65.1044 23.2023 65.0834 23.0711 65.0834 22.9399C65.0834 20.174 65.036 17.4082 65.1097 14.6475C65.1386 13.6157 65.3361 12.5531 65.6626 11.5677C66.5077 9.01796 68.4111 7.57971 71.0886 7.18348C72.3023 7.00338 73.5502 7.04455 74.8428 6.9828L74.8455 6.98022Z" fill="white"/>
<path d="M38.9463 7.20154H43.7115V23.3233H38.9463V7.20154Z" fill="white"/>
<path d="M41.0261 5.01974C40.1309 4.98115 39.2358 4.50002 38.7488 3.45799C38.3223 2.54461 38.4829 1.65696 39.1753 0.918541C40.0177 0.0180263 41.0919 -0.18266 42.2634 0.15439C43.5403 0.522314 44.3064 1.68012 44.1142 2.87909C43.9168 4.11408 42.711 5.02746 41.0261 5.01974Z" fill="white"/>
</g>
<defs>
<clipPath id="clip0_310_6757">
<rect width="152" height="24" fill="white"/>
</clipPath>
</defs>
</svg>
