<svg width="97" height="34" viewBox="0 0 97 34" fill="none" xmlns="http://www.w3.org/2000/svg">
<path fill-rule="evenodd" clip-rule="evenodd" d="M17.9044 8.32353H19.0714C21.6107 8.32353 22.9834 9.97041 22.9834 11.9609C22.9834 14.226 21.6112 15.804 19.2771 15.804H17.9044V8.32353ZM15.3651 15.804H13.1689V16.4217H20.5126C22.9145 16.4217 25.66 15.1178 25.66 11.9603C25.66 9.49002 23.4638 8.1862 21.2676 8.04887V7.97994C23.1202 7.84314 24.9739 6.60772 24.9739 4.20579C24.9739 2.07853 23.1208 0.636841 19.8265 0.636841H13.1689V1.25402H15.3651V15.804ZM17.9044 1.25402H18.5221C21.0614 1.25402 22.3652 2.62678 22.3652 4.34259C22.3652 6.81344 20.6494 7.70528 18.591 7.70528H17.9044V1.25402ZM33.9639 12.235C33.9639 14.2255 33.7582 16.147 31.6309 16.147C29.4347 16.147 29.2284 14.2255 29.2284 12.235V11.0685C29.2284 9.14697 29.3658 7.22543 31.6309 7.22543C33.896 7.22543 33.9639 9.14697 33.9639 11.0685V12.235ZM26.8265 11.6862C26.8265 14.5001 28.817 16.7647 31.6309 16.7647C34.4448 16.7647 36.3663 14.4317 36.3663 11.6862C36.3663 8.87231 34.4448 6.53932 31.6309 6.53932C28.817 6.53932 26.8265 8.87231 26.8265 11.6862ZM58.6019 12.235C58.6019 14.2255 58.3962 16.147 56.2684 16.147C54.0727 16.147 53.867 14.2255 53.867 12.235V11.1374C53.867 9.14697 54.0727 7.22543 56.2684 7.22543C58.533 7.22543 58.6019 9.14697 58.6019 11.1374V12.235ZM51.4645 11.6862C51.4645 14.5001 53.455 16.8331 56.2684 16.8331C59.0817 16.8331 61.0722 14.4312 61.0722 11.6862C61.0722 8.87231 59.0817 6.53932 56.2684 6.53932C53.455 6.53932 51.4645 8.87231 51.4645 11.6862ZM68.1412 15.804H69.5145V9.07803C69.5145 7.97994 68.7589 7.49955 68.0044 7.49955C66.9742 7.49955 65.8766 8.52872 65.3962 9.55842V15.8034H67.112V16.4211H61.279V15.8034H63.1316V7.56849H61.3469V6.95077H63.0627C64.0929 6.95077 64.9842 6.95077 65.3273 6.47039V8.32353H65.3962C66.2886 7.22543 67.524 6.47039 68.8968 6.47039C71.0924 6.47039 71.8469 7.97994 71.8469 9.2843V15.804H73.6317V16.4217H68.1412V15.804ZM41.2386 12.5781C42.5424 12.7154 43.0917 13.5388 43.0917 14.3623C43.0917 15.5288 42.131 16.1465 41.0329 16.1465C39.0424 16.1465 38.2873 14.3623 38.15 13.1952H37.6696L37.7386 16.6269H38.2189C38.2873 16.2838 38.3563 16.1465 38.6309 16.1465C39.1113 16.1465 39.6601 16.7637 41.1012 16.7637C43.229 16.7637 44.5329 15.4598 44.5329 13.4694C44.5329 12.0282 43.7094 10.7244 41.8563 10.5187L40.7582 10.3124C39.386 10.0383 38.8367 9.55789 38.8367 8.73391C38.8367 7.91047 39.5233 7.22383 40.7582 7.22383C42.1994 7.22383 43.0233 8.0478 43.229 9.42002H43.7094V6.67505H43.229C43.229 6.88077 43.1607 7.08703 42.886 7.08703C42.474 7.08703 41.9252 6.53772 40.7582 6.53772C39.0429 6.53772 37.7386 7.70421 37.7386 9.42002C37.7386 11.4794 39.1113 12.3029 40.5525 12.4397L41.2386 12.5781Z" fill="white"/>
<path fill-rule="evenodd" clip-rule="evenodd" d="M51.3275 14.9116C51.0517 15.3235 50.5719 15.8723 49.8853 15.8723C49.2675 15.8723 48.7193 15.5977 48.7193 14.7053V7.56846H51.3275V6.95075H48.7193V3.72485H48.3073C47.9637 5.98945 46.6604 6.95075 44.8073 6.95075V7.56846H46.4542V14.6374C46.4542 16.2159 47.5528 16.8331 49.0618 16.8331C50.503 16.8331 51.2585 16.0781 51.67 15.4609L51.3275 14.9116ZM67.2486 32.0002H65.1218V32.6869H71.5047V32.0002H69.7889V20.5399C69.2401 21.0887 68.4156 21.1576 67.5243 21.1576H65.3965V21.8432H67.2491V32.0002H67.2486ZM26.8263 32.0002H24.699V32.6869H31.1503V32.0002H29.366V20.5399C28.8857 21.0887 27.9933 21.1576 27.1698 21.1576H25.0415V21.8432H26.8257V32.0002H26.8263ZM74.6606 32.0002H72.6022V32.6869H79.1219V32.0002H77.2004V21.7743H81.798V32.0002H80.0832V32.6869H86.3961V32.0002H84.3367V20.5399C83.8568 21.0887 82.8955 21.1576 82.0721 21.1576H77.2004V17.314C77.2004 14.7064 78.1606 12.647 80.974 12.647C82.141 12.647 82.9644 13.1274 82.9644 13.6077C82.9644 13.9508 82.6898 14.0881 82.4157 14.2254C82.0721 14.3628 81.798 14.7742 81.798 15.2546C81.798 16.0097 82.4846 16.49 83.0334 16.49C83.9258 16.49 84.5435 15.8039 84.5435 14.7748C84.5435 13.5393 83.308 11.9609 80.7688 11.9609C76.2391 11.9609 74.66 15.7355 74.66 19.2356V21.1582H72.3276V21.7748H74.66V32.0002H74.6606ZM6.58011 24.2457C9.39402 24.8634 10.6294 26.5792 10.6294 28.4318C10.6294 30.6275 8.98257 32.4122 6.37438 32.4122C3.76674 32.4122 1.22748 30.2165 0.815497 25.7547H0.129386V32.892H0.815497C0.883895 32.4122 1.09016 32.0686 1.63947 32.0686C2.66864 32.0686 3.76674 33.1667 6.44332 33.1667C10.2864 33.1667 12.4142 30.7653 12.4142 27.059C12.4142 24.1762 11.0414 22.0484 7.33569 21.0882L5.89454 20.7446C2.60024 19.9901 1.63947 18.411 1.63947 16.8326C1.63947 14.6369 3.28689 13.1952 5.27682 13.1952C8.36539 13.1952 10.1496 15.8029 10.5616 18.9598H11.3166V13.0584H10.63C10.5616 13.4015 10.3553 13.8135 9.80654 13.8135C8.84577 13.8135 8.09073 12.3723 5.20842 12.3723C2.32612 12.3723 0.0615234 14.5685 0.0615234 17.7939C0.0615234 21.2255 1.70894 23.0792 5.20842 23.9026L6.58011 24.2457ZM58.6706 30.4907C58.6706 32.4811 59.9739 33.1667 61.6897 33.1667C63.7491 33.1667 64.4346 31.9997 64.7088 31.3141L64.2289 30.9021C63.8853 31.5198 63.3366 32.2065 62.4452 32.2065C61.7586 32.2065 61.2098 31.8629 61.2098 30.7653V21.7743H64.2289V21.1576H61.2098V17.5881H60.7289C60.3174 20.3342 59.0142 21.1576 56.5428 21.1576V21.7743H58.6706V30.4907ZM50.5719 32.0002H52.4256V23.4222C52.4256 22.0489 51.7389 21.4996 50.7776 21.4996C49.1307 21.4996 47.8958 23.1465 47.2781 23.971V31.9997H49.2675V32.6863H42.7484V31.9997H44.7389V21.7737H42.7484V21.1571H44.8757C46.1111 21.1571 46.7288 21.1571 47.2092 20.5394V22.804H47.2781C47.8269 22.1173 49.1307 20.5394 51.3953 20.5394C53.7978 20.5394 55.0327 22.1173 55.0327 24.0389V31.9997H57.0232V32.6863H50.5724V32.0002H50.5719ZM23.2573 28.9116C22.9827 30.3528 21.8162 32.2065 19.8257 32.2065C17.9036 32.2065 16.9434 31.0394 16.9434 28.4318V25.7547C16.9434 23.2154 17.9036 21.3628 19.963 21.3628C21.1984 21.3628 21.9535 21.9805 21.9535 22.4609C21.9535 22.7356 21.7472 22.8729 21.6104 23.0786C21.4047 23.2844 21.2674 23.5585 21.2674 23.971C21.2674 24.5198 21.6794 25.138 22.5028 25.138C23.2578 25.138 23.8756 24.5203 23.8756 23.559C23.8756 22.1868 22.2287 20.6762 19.7578 20.6762C16.6009 20.6762 14.13 23.1465 14.13 26.9217C14.13 30.3533 15.8458 33.1672 19.5516 33.1672C22.0229 33.1672 23.6698 31.1089 23.944 28.9122H23.2573V28.9116ZM95.7302 28.8438C95.4555 30.3528 94.289 32.2065 92.3675 32.2065C90.377 32.2065 89.4846 31.0394 89.4846 28.3629V25.7547C89.4846 23.1465 90.377 21.2939 92.5048 21.2939C93.7397 21.2939 94.4263 21.9805 94.4263 22.4609C94.4263 22.7356 94.2885 22.8729 94.0828 23.0786C93.946 23.2844 93.7392 23.4901 93.7392 23.9021C93.7392 24.5198 94.2201 25.0691 94.9746 25.0691C95.7291 25.0691 96.3468 24.4514 96.3468 23.4901C96.3468 22.1179 94.7689 20.6762 92.2296 20.6762C89.0727 20.6762 86.6702 23.1465 86.6702 26.9217C86.6702 30.3533 88.386 33.1672 92.0234 33.1672C94.5626 33.1672 96.1416 31.1089 96.4852 28.8443H95.7302V28.8438ZM39.3852 24.9312C39.3852 25.0691 39.3168 25.138 39.1789 25.138H34.7865V24.3135C34.7865 22.4609 35.7473 21.2944 37.1201 21.2944C38.5612 21.2944 39.3852 22.3925 39.3852 24.3135V24.9312ZM41.101 28.8438C40.7579 30.4907 39.5914 32.2065 37.6694 32.2065C35.8168 32.2065 34.7871 31.0394 34.7871 28.637V25.892H41.7876C41.925 25.892 41.9934 25.8231 41.9934 25.6173V25.2054C41.9934 23.4217 40.4833 20.6756 37.1206 20.6756C34.1699 20.6756 31.9737 23.6269 31.9737 26.9212C31.9737 30.8326 34.1699 33.1667 37.1895 33.1667C39.592 33.1667 41.3762 31.4509 41.7876 28.8438H41.101Z" fill="white"/>
</svg>
