<svg width="162" height="20" viewBox="0 0 162 20" fill="none" xmlns="http://www.w3.org/2000/svg">
<g clip-path="url(#clip0_310_7514)">
<path d="M21.2695 19.9925C21.2848 13.7285 21.2925 7.45689 21.3078 1.19282V0.0825422C21.6446 0.0600366 21.9048 0.0300291 22.165 0.0300291C24.974 0.0300291 27.7906 -0.0524916 30.5918 0.0600366C31.9695 0.11255 33.3931 0.35261 34.6943 0.79522C36.5618 1.42538 37.6563 2.82073 37.84 4.80122C38.016 6.7067 37.1894 8.13205 35.6051 9.18982C35.429 9.30985 35.253 9.42238 35.031 9.57241C35.4903 9.82748 35.9189 10.045 36.3169 10.3001C39.4702 12.3106 39.5391 16.5867 36.3551 18.5672C35.3601 19.1823 34.1049 19.4149 32.9645 19.805C32.6813 19.9025 32.3752 19.9325 32.0843 20H21.2695V19.9925ZM24.8132 18.2071C27.2931 18.2071 29.6657 18.2596 32.0461 18.1846C33.1865 18.1471 34.1508 17.6219 34.6943 16.5417C36.1561 13.6009 34.4723 10.6902 31.1276 10.5252C29.1759 10.4276 27.2242 10.4951 25.2648 10.4876C25.127 10.4876 24.9816 10.5402 24.8132 10.5702V18.2071ZM24.8285 8.68719C27.2471 8.68719 29.6275 8.79972 31.9848 8.64218C33.3855 8.55216 34.1662 7.53941 34.3116 6.15906C34.3652 5.63393 34.3728 5.08629 34.3269 4.56116C34.1891 3.03078 33.3472 1.93551 31.8088 1.83048C29.5127 1.67294 27.2012 1.78547 24.8362 1.78547V8.7022H24.8285V8.68719Z" fill="white"/>
<path d="M7.32427 19.9925C7.12528 19.925 6.93393 19.8425 6.73493 19.7975C2.67843 18.8672 -0.0769357 15.3263 -0.000397884 11.1403C0.07614 7.15681 2.98458 3.73595 6.9722 2.94825C12.6054 1.83798 17.8559 6.89424 16.9604 12.5657C16.3634 16.3541 13.8759 18.9573 10.0261 19.835C9.91125 19.8575 9.81175 19.9325 9.7046 19.985H7.32427V19.9925ZM13.9984 11.3804C13.608 9.91749 13.3784 8.43212 12.812 7.08179C12.0849 5.34135 10.5848 4.46363 8.61776 4.43362C6.61247 4.40362 5.08171 5.25883 4.25511 6.99926C2.89273 9.87248 2.89273 12.8357 4.21684 15.7164C5.03579 17.5094 6.58951 18.3946 8.61776 18.3646C10.6154 18.3346 12.1232 17.4119 12.8503 15.6264C13.3937 14.2986 13.608 12.8432 13.9907 11.3729L13.9984 11.3804Z" fill="white"/>
<path d="M48.9769 19.9925C48.5712 19.8725 48.1656 19.7599 47.7676 19.6249C44.3387 18.4621 42.2875 16.1215 41.767 12.6407C41.2542 9.2048 42.4788 6.33909 45.3873 4.32108C48.135 2.41561 51.1352 2.27307 54.1279 3.79595C57.2965 5.40135 59.1181 9.01725 58.636 12.4831C58.1155 16.1815 55.5056 19.0098 51.8624 19.8125C51.6863 19.85 51.5256 19.9325 51.3572 19.9925H48.9769ZM55.4061 11.3503C55.3754 9.68492 55.1611 8.03451 54.2197 6.57915C52.3522 3.68342 47.9053 3.6084 46.1832 6.57164C44.3616 9.70743 44.3463 13.0608 46.1679 16.1965C47.9589 19.2798 52.5282 19.0998 54.3345 16.0165C55.1764 14.5761 55.3831 12.9932 55.3984 11.3578H55.4061V11.3503Z" fill="white"/>
<path d="M152.272 19.9925C152.042 19.9175 151.82 19.835 151.591 19.7825C147.595 18.8372 144.855 15.2813 144.939 11.1628C145.024 7.1268 147.955 3.69844 151.973 2.94075C156.359 2.10804 160.691 4.98126 161.762 9.42987C161.824 9.68493 161.915 9.9325 161.992 10.1876V12.6857L161.648 13.766C160.706 16.7817 158.732 18.8072 155.593 19.7149C155.28 19.805 154.966 19.9025 154.652 20H152.272V19.9925ZM147.993 11.3353C148.361 12.8057 148.56 14.2311 149.088 15.5364C149.815 17.3519 151.33 18.3196 153.366 18.3571C155.44 18.3946 156.994 17.4794 157.813 15.6414C159.076 12.8057 159.076 9.90249 157.782 7.08178C156.979 5.32634 155.486 4.43362 153.481 4.43362C151.476 4.43362 149.945 5.29634 149.187 7.07428C148.613 8.41712 148.384 9.90249 148.001 11.3428L147.993 11.3353Z" fill="white"/>
<path d="M92.0902 19.9925C91.9218 19.9325 91.7611 19.8499 91.585 19.8124C87.4826 18.9272 84.8726 15.5889 84.9186 11.2678C84.9568 7.11926 87.7658 3.72091 91.7917 2.94071C95.6951 2.18302 98.9862 4.05849 100.18 7.80193L98.7566 8.54461C98.6112 8.19953 98.4734 7.88445 98.3433 7.57687C97.4861 5.56637 95.7563 4.46359 93.4602 4.4711C91.3401 4.4711 89.6945 5.53636 88.8985 7.57687C87.9189 10.0825 87.9189 12.6481 88.8679 15.1613C89.6486 17.2318 91.3477 18.3346 93.4832 18.3346C95.8252 18.3346 97.5703 17.2168 98.4275 15.1688C98.5423 14.8987 98.6571 14.6211 98.7719 14.3511C100.417 14.9737 100.433 15.0037 99.6598 16.4591C98.749 18.1695 97.31 19.2273 95.4196 19.7449C95.1593 19.8124 94.9144 19.91 94.6618 19.9925H92.0902Z" fill="white"/>
<path d="M123.594 12.6481V19.7224H120.532V2.91071C123.548 3.03824 126.556 2.93321 129.495 3.35332C132.602 3.78842 134.164 6.14401 133.59 8.75467C133.322 9.96247 132.572 10.8252 131.531 11.4778C131.286 11.6354 131.026 11.7704 130.628 12.003C132.158 12.8357 132.648 14.2085 133.069 15.6114C133.559 17.2168 134.263 18.6646 135.855 19.5649L135.748 19.7599C134.462 19.7599 133.176 19.7899 131.89 19.7299C131.684 19.7224 131.408 19.3698 131.301 19.1148C130.758 17.8619 130.23 16.5941 129.74 15.3113C128.867 13.0157 128.339 12.6331 125.844 12.6331H123.578L123.594 12.6481ZM123.663 4.56862V11.0352C124.719 11.0352 125.721 11.0502 126.716 11.0352C127.199 11.0277 127.696 10.9752 128.171 10.8852C129.694 10.5851 130.444 9.58737 130.452 7.89945C130.452 6.12151 129.778 5.05624 128.194 4.83119C126.732 4.62113 125.232 4.65114 123.655 4.57612L123.663 4.56862Z" fill="white"/>
<path d="M101.198 19.7299C101.887 18.177 102.538 16.7142 103.196 15.2513C105.224 10.7352 107.252 6.21903 109.281 1.7029C109.709 0.75016 110.498 0.322554 111.653 0.420078C111.294 1.25279 110.972 2.07799 110.582 2.86569C110.337 3.36081 110.329 3.75841 110.582 4.27604C112.878 9.12976 115.143 13.9985 117.409 18.8672C117.531 19.1298 117.639 19.3998 117.799 19.7749C116.758 19.7749 115.825 19.8124 114.891 19.7449C114.654 19.7299 114.347 19.4223 114.225 19.1748C113.49 17.6744 112.817 16.144 112.067 14.6511C111.929 14.3886 111.508 14.111 111.209 14.096C109.533 14.0435 107.849 14.0435 106.173 14.096C105.882 14.1035 105.461 14.3961 105.331 14.6586C104.719 15.8889 104.191 17.1493 103.632 18.4021C103.211 19.3473 102.4 19.7899 101.214 19.7224H101.198V19.7299ZM108.615 7.23928C107.796 9.07724 107.069 10.7127 106.319 12.4081H111.018C110.222 10.6976 109.472 9.08474 108.615 7.23928Z" fill="white"/>
<path d="M68.8231 19.7299H65.7157V4.65866H59.4932V3.09827H74.9997V4.62115H68.8231V19.7299Z" fill="white"/>
<path d="M78.3438 19.7149V3.09076H81.3746V19.7149H78.3438Z" fill="white"/>
<path d="M138.373 3.07574H141.396V19.7074H138.373V3.07574Z" fill="white"/>
</g>
<defs>
<clipPath id="clip0_310_7514">
<rect width="162" height="20" fill="white"/>
</clipPath>
</defs>
</svg>
