<svg width="128" height="28" viewBox="0 0 128 28" fill="none" xmlns="http://www.w3.org/2000/svg">
<path d="M31.3176 6.24065C25.5985 6.24065 21.6417 11.5392 21.6417 16.3892C21.6417 20.6288 24.6198 23.4175 29.0506 23.4175C31.4705 23.4476 33.8063 22.5696 35.5993 20.9717L35.7063 20.8888L34.2345 19.0875L34.116 19.1704C32.7627 20.3952 30.9888 21.0697 29.15 21.0584C26.6689 21.228 24.5166 19.3814 24.3445 16.9357C24.3293 16.7284 24.3293 16.5249 24.3445 16.3214V15.9069H37.1591V15.8089C37.5567 14.7952 37.7631 13.7174 37.7707 12.6283C37.9734 9.30444 35.4043 6.44791 32.0325 6.24818H32.0287C31.7916 6.23311 31.5508 6.22934 31.3138 6.24065H31.3176ZM35.0259 13.6608H24.8109C25.8852 10.5782 28.3281 8.57335 31.1876 8.57335C33.2444 8.44522 35.0182 9.99031 35.1444 12.0178C35.1558 12.21 35.152 12.4022 35.1367 12.5906C35.1367 12.5906 35.0526 13.4611 35.0297 13.6382V13.6571L35.0259 13.6608ZM21.9208 5.29852C20.2616 2.24226 16.9777 0.384388 13.4606 0.516285C6.29257 0.516285 0 6.87752 0 14.2412C0 19.6603 3.94528 23.4439 9.59178 23.4439C12.9177 23.4891 16.1137 22.1475 18.3884 19.7545L18.4878 19.649L16.6107 17.825L16.5037 17.923C14.7642 19.7922 12.3023 20.8511 9.72941 20.8398C6.17024 21.0358 3.12717 18.3526 2.92456 14.8441V14.8366C2.91309 14.6067 2.91309 14.3769 2.92456 14.1507C2.92456 8.2681 7.74147 3.09394 13.2351 3.09394C15.8882 2.95074 18.3731 4.38277 19.5506 6.73055L19.627 6.86999L22.0355 5.40781L21.9208 5.30229V5.29852ZM125.282 0C125.282 0 122.755 9.30444 122.571 10.028C121.509 7.6576 119.077 6.17658 116.451 6.29717C111.378 6.29717 107.108 10.9626 107.108 16.4608C107.108 20.5082 109.902 23.4439 113.752 23.4439C116.038 23.3873 118.19 22.3661 119.666 20.6476C119.482 21.3147 119.02 23.0633 119.02 23.0633H121.761L128 0H125.278H125.282ZM114.432 20.9981C111.756 20.9981 109.948 19.0799 109.948 16.2159C109.948 12.063 112.961 8.67887 116.646 8.67887C119.272 8.59219 121.478 10.6196 121.57 13.2086V13.5214C121.57 17.2937 118.045 20.9943 114.429 20.9943L114.432 20.9981ZM51.5869 6.24065C49.3008 6.31225 47.1484 7.32598 45.6613 9.04065L46.3265 6.57981H43.5702L37.7555 28H40.5118C40.5118 28 42.6603 20.2218 42.7903 19.6075C43.8645 21.9892 46.2997 23.4816 48.9414 23.3798C53.9953 23.3798 58.2732 18.7257 58.2732 13.2162C58.2312 9.10471 55.5016 6.24065 51.5869 6.24065ZM48.6738 20.9755C46.0283 21.0546 43.8186 19.0046 43.7384 16.393V16.0878C43.7384 12.3343 47.2861 8.66756 50.8873 8.66756C53.6054 8.66756 55.3716 10.5443 55.3716 13.4611C55.3907 17.5952 52.3706 20.9755 48.67 20.9755H48.6738ZM89.8737 6.24065C84.1737 6.24065 80.1978 11.5392 80.1978 16.3892C80.1978 20.6288 83.1759 23.4175 87.6182 23.4175C90.0152 23.4288 92.3242 22.5545 94.1019 20.968L94.2013 20.8851L92.7944 19.0837L92.6874 19.1666C91.3341 20.3914 89.5602 21.0659 87.7214 21.0546C85.2403 21.2242 83.088 19.3777 82.916 16.9319C82.9007 16.7246 82.9007 16.5211 82.916 16.3176V15.9031H95.6999V15.8051C96.0937 14.7914 96.3001 13.7136 96.3154 12.6245C96.5104 9.29314 93.9299 6.43661 90.5504 6.24441C90.3287 6.22934 90.1069 6.22934 89.8852 6.23688L89.8737 6.24065ZM93.582 13.6646H83.3479C84.4222 10.582 86.8651 8.57712 89.7361 8.57712C91.8005 8.45653 93.5705 10.0092 93.6928 12.0441C93.7043 12.225 93.7043 12.4059 93.6928 12.5868C93.6928 12.5868 93.6164 13.4573 93.5935 13.6345L93.582 13.6646ZM97.8866 23.067H100.658L105.208 6.64011H102.432L97.8866 23.067ZM103.973 0.455989L103.155 3.40296H106.282L107.1 0.455989H103.977H103.973ZM71.8753 6.28587C69.7841 6.3537 67.8229 7.30713 66.5002 8.90498L68.9087 0.00376851H66.1523L59.8368 23.0746H62.5932L65.0742 13.7777C65.9038 10.8194 68.3008 8.66756 70.8698 8.66756C73.0757 8.66756 74.4061 9.87725 74.4061 11.9009C74.4022 12.5001 74.3181 13.0956 74.1576 13.6721L71.6306 22.9992H74.387L76.9025 13.9472C77.1471 13.1219 77.2886 12.2703 77.323 11.411C77.4721 8.70525 75.3656 6.39139 72.6208 6.24818C72.3761 6.23688 72.1276 6.24065 71.8867 6.26326L71.8753 6.28964V6.28587Z" fill="white"/>
</svg>
