<svg width="157" height="33" viewBox="0 0 157 33" fill="none" xmlns="http://www.w3.org/2000/svg">
<path d="M22.8787 0C22.8787 0 27.0188 4.0436 28.9238 6.13362V7.71509C27.1458 5.87935 23.4692 4.34749 20.0466 4.34749C12.2998 4.34749 7.43573 10.0532 7.43573 17.1171C7.43573 24.181 12.0394 29.8619 20.0466 29.8619C24.0344 29.8619 27.2284 28.0261 29 26.1408V27.6478C26.5807 30.8914 22.1548 33 16.6494 33C6.79439 33 0 26.0105 0 17.1171C0 8.22364 7.53733 1.25277 16.6494 1.25277C18.9672 1.25277 21.0499 1.63108 22.8787 2.25747V0Z" fill="white"/>
<path d="M18.272 16.4488C18.272 11.151 18.7526 8.81288 20.5 8.81288C22.2474 8.81288 22.728 11.151 22.728 16.4488C22.728 21.7465 22.2474 24.0782 20.5 24.0782C18.7526 24.0782 18.272 21.7465 18.272 16.4488ZM12 16.5C12 21.7465 15.1329 26 20.5 26C25.8671 26 29 21.7465 29 16.5C29 11.2535 25.8609 7 20.5 7C15.1391 7 12 11.2599 12 16.5Z" fill="white"/>
<path d="M41.2026 13.5681C41.2026 12.0714 40.6925 10.8949 39.2946 10.8949C37.8968 10.8949 37.3337 12.0714 37.3337 13.5681V23.4293H38.97V25H30V23.4293H31.6628V9.84783H30V8.32645H37.0621V10.8703H37.1416C37.8107 9.4721 39.3675 8 41.8651 8C44.4951 8 46.105 9.49674 46.6151 11.4678C46.8006 12.2438 46.8536 13.5127 46.8536 14.1656V23.4293H49V25H41.1893V13.5681H41.2026Z" fill="white"/>
<path d="M55.9811 9.91003V22.0329C55.9811 22.8685 56.5223 23.0623 57.0392 23.0623C57.5561 23.0623 58 22.8927 58 22.8927V24.3884C58 24.3884 57.0149 25 54.8196 25C52.2534 25 50.7513 23.7465 50.7513 21.1003V9.91003H49V8.80796C50.9459 7.26384 53.2142 5.49567 55.0142 4H55.975V8.41436H57.9939V9.91003H55.9811Z" fill="white"/>
<path d="M60.0569 4.3958C60.0569 7.59021 67.0096 7.59021 67.0096 4.3958C67.0096 1.2014 60.0569 1.2014 60.0569 4.3958ZM60.6484 10.2011H59.0066V8.71516H66.3316V23.466H68V25H59V23.466H60.6418V10.1951H60.6484V10.2011Z" fill="white"/>
<path d="M80.2026 13.5681C80.2026 12.0714 79.6925 10.8949 78.2946 10.8949C76.8968 10.8949 76.3337 12.0714 76.3337 13.5681V23.4293H77.97V25H69V23.4293H70.6628V9.84783H69V8.32645H76.0621V10.8703H76.1416C76.8107 9.4721 78.3675 8 80.8651 8C83.4951 8 85.1049 9.49674 85.6151 11.4678C85.8006 12.2438 85.8536 13.5127 85.8536 14.1656V23.4293H88V25H80.1893V13.5681H80.2026Z" fill="white"/>
<path d="M101.635 21.0705C100.86 21.9808 99.6533 22.6795 97.8497 22.6795C96.2811 22.6795 93.8616 21.7949 93.7599 17.7692H102.949C102.975 17.4551 103 16.8333 103 16.5192C103 11.6346 101.019 8 95.8493 8C90.6799 8 88 12.0256 88 17.0385C88 22.0513 90.6482 26 95.8493 26C99.196 26 101.304 24.4167 102.543 21.9231L101.641 21.0641L101.635 21.0705ZM93.7599 16.0897C93.7599 11.5192 94.1219 9.80128 95.6651 9.80128C97.2083 9.80128 97.5449 11.4615 97.5957 16.0897H93.7599Z" fill="white"/>
<path d="M114.613 13.5681C114.613 12.0714 114.13 10.8949 112.805 10.8949C111.481 10.8949 110.948 12.0714 110.948 13.5681V23.4293H112.498V25H104V23.4293H105.575V9.84783H104V8.32645H110.69V10.8703H110.766C111.4 9.4721 112.874 8 115.241 8C117.732 8 119.257 9.49674 119.741 11.4678C119.916 12.2438 119.967 13.5127 119.967 14.1656V23.4293H122V25H114.6V13.5681H114.613Z" fill="white"/>
<path d="M128.981 9.91003V22.0329C128.981 22.8685 129.522 23.0623 130.039 23.0623C130.556 23.0623 131 22.8927 131 22.8927V24.3884C131 24.3884 130.015 25 127.82 25C125.253 25 123.751 23.7465 123.751 21.1003V9.91003H122V8.80796C123.946 7.26384 126.214 5.49567 128.014 4H128.975V8.41436H130.994V9.91003H128.981Z" fill="white"/>
<path d="M140.804 17.0897C140.652 16.9359 140.315 16.7244 139.622 16.7244C138.001 16.7244 137.638 18.3333 137.638 20C137.638 21.6667 138.128 22.9615 139.52 22.9615C140.188 22.9615 140.601 22.6731 140.804 22.4423V17.0897ZM141.039 23.609H140.963C139.959 25.0385 138.617 26 136.558 26C133.748 26 132 23.5833 132 20.6987C132 17.2179 134.447 15.0128 138.363 15.0128C139.959 15.0128 140.81 15.3782 140.81 15.3782V14.2885C140.81 12.1859 139.526 11.0641 137.645 11.0641C135.045 11.0641 133.704 13.0897 133.704 13.0897L132.75 11.9231C134.473 9.21795 137.13 8 139.603 8C143.779 8 146.252 10.4936 146.252 14.2885V24.0577H148V25.6923H141.046V23.6154H141.039V23.609Z" fill="white"/>
<path d="M149.796 4.46548H148V3H154.985V23.4871H157V25H149.796V4.46548Z" fill="white"/>
</svg>
