<svg width="48" height="44" viewBox="0 0 48 44" fill="none" xmlns="http://www.w3.org/2000/svg">
<path fill-rule="evenodd" clip-rule="evenodd" d="M46.3929 41.4606C45.7092 41.4606 45.1232 41.9978 45.1232 42.7303C45.1232 43.414 45.6604 44 46.3929 44C47.0766 44 47.6626 43.4628 47.6626 42.7303C47.6138 41.9978 47.0766 41.4606 46.3929 41.4606ZM46.3929 41.6071C46.9789 41.6071 47.4673 42.0954 47.4673 42.6815C47.4673 43.2675 47.0277 43.7558 46.3929 43.7558C45.8069 43.7558 45.3185 43.2675 45.3185 42.6815C45.3185 42.0954 45.758 41.6071 46.3929 41.6071ZM46.0999 42.7791H46.3929L46.7836 43.414H46.9789L46.5394 42.7791C46.7347 42.7303 46.8812 42.6326 46.8812 42.3885C46.8812 42.1443 46.7347 41.9978 46.3929 41.9978H45.9046V43.4628H46.0999V42.7791ZM46.0999 42.6326V42.1443H46.4417C46.6371 42.1443 46.7836 42.1931 46.7836 42.3885C46.7836 42.6326 46.5882 42.6326 46.3441 42.6326H46.0999ZM4.24861 19.2897L2.14872 20.7547C0.63485 21.7802 -0.0976693 23.8313 1.2697 25.7847C2.58824 27.7381 4.73696 27.7869 6.29967 26.7125L8.39956 25.2475L7.22753 23.5383L5.27414 24.9057C4.54162 25.4428 3.61376 25.1498 3.17425 24.4661C2.6859 23.7825 2.73474 22.8546 3.51609 22.3174L5.46948 20.9501L4.24861 19.2897ZM35.6493 0C35.5028 0 35.3563 0.0976693 35.2586 0.146504C34.4284 0.732519 33.7936 1.61154 34.5261 2.63707C35.6004 4.15094 37.798 2.00222 38.2864 2.73474C38.4817 2.97891 38.3352 3.27192 37.9933 3.51609C37.8468 3.61376 37.6515 3.61376 37.4562 3.56493C37.3097 3.51609 37.1632 3.41842 37.0655 3.27192L35.6493 4.29745C36.5283 5.56715 37.7003 5.0788 38.7259 4.39512C39.7026 3.71143 40.5327 2.6859 39.7514 1.61154C39.263 0.927858 38.7259 0.830189 38.091 1.02553C36.8701 1.4162 36.2353 1.85572 36.04 1.56271C35.8935 1.31853 35.9423 1.07436 36.1376 0.927858C36.333 0.781354 36.5283 0.732519 36.6748 0.781354C36.8213 0.830189 36.8701 0.879023 36.9678 1.02553L38.5794 0H44.0488V16.0666H25.0033C22.3174 16.0666 18.4107 17.2875 18.4107 21.9267C18.4107 26.3707 22.4151 27.5916 25.0033 27.5916H44V43.9023H23.0988C11.5738 43.9023 0 36.1865 0 21.9267C0 7.66704 12.0133 0 23.0988 0H35.4539H35.6493ZM11.6226 23.0011L13.2342 21.8779C12.8923 21.4384 12.697 21.1942 12.4528 20.8524L10.2553 17.6781L8.64373 18.8013L10.3041 21.2431C10.3529 21.2919 11.0366 22.0733 10.2553 22.6593C9.76693 23.0011 9.32741 22.6104 9.03441 22.2198L7.32519 19.7292L5.71365 20.8524L7.66704 23.6848C8.30189 24.6127 9.37625 24.7592 10.3041 24.1243C10.8413 23.7336 11.1343 23.2941 11.232 22.6104L11.6226 23.0011ZM12.2087 16.3108L10.6459 17.3851C10.9878 17.8246 11.1831 18.0688 11.4273 18.4107L13.6249 21.5361L15.2364 20.4129L13.576 17.9711C13.5272 17.9223 12.8435 17.141 13.6249 16.5549C14.1132 16.2131 14.5527 16.6038 14.8457 16.9945L16.5549 19.485L18.1665 18.3618L16.5061 15.9201C16.4573 15.8713 15.7736 15.0899 16.5549 14.5039C17.0433 14.162 17.4828 14.5527 17.7758 14.9434L19.485 17.434L21.0966 16.3108L19.0455 13.6737C18.4107 12.7458 17.3363 12.5993 16.4084 13.2342C15.7736 13.6737 15.4317 14.3574 15.4806 15.0899C14.9434 14.6992 14.162 14.8457 13.6737 15.1876C13.0388 15.6271 12.6482 16.2131 12.7458 16.9945L12.2087 16.3108ZM20.1687 10.7925L18.606 11.8668C18.9478 12.3063 19.1432 12.5505 19.3873 12.8923L21.5849 16.0178L23.1964 14.8946L21.5361 12.4528C21.4872 12.404 20.8036 11.6226 21.5849 11.0366C22.0733 10.6948 22.5128 11.0855 22.8058 11.4761L24.515 13.9667L26.1265 12.8435L24.4661 10.4018C24.4173 10.3529 23.7336 9.57159 24.515 8.98557C25.0033 8.64373 25.4428 9.03441 25.7359 9.42508L27.4451 11.9156L29.0566 10.7925L27.1032 7.96004C26.4684 7.03219 25.394 6.88568 24.4661 7.52053C23.8313 7.96004 23.4895 8.64373 23.5383 9.37625C23.0011 8.98557 22.2198 9.13208 21.7314 9.47392C21.0966 9.91343 20.7059 10.4994 20.8036 11.2808L20.1687 10.7925ZM31.1077 9.47392L28.1776 5.27414L26.566 6.3485L29.4961 10.5483L31.1077 9.47392ZM27.6892 4.54162L26.9079 3.41842L25.2963 4.54162L26.0777 5.66482L27.6892 4.54162ZM30.3751 3.76027L28.7636 4.88346C29.1054 5.32297 29.3008 5.56715 29.545 5.90899L31.7425 9.03441L33.3541 7.91121L31.6937 5.46948C31.6448 5.42064 30.9612 4.63929 31.7425 4.05327C32.2309 3.71143 32.6704 4.10211 32.9634 4.49279L34.6726 6.98335L36.2841 5.86016L34.3307 3.02775C33.6959 2.09989 32.6215 1.95339 31.6937 2.58824C31.1565 2.97891 30.8635 3.41842 30.7658 4.10211L30.3751 3.76027Z" fill="white"/>
</svg>
