<svg width="142" height="21" viewBox="0 0 142 21" fill="none" xmlns="http://www.w3.org/2000/svg">
<path d="M65.4577 21L70.7077 0H61.4369L56.1943 21" fill="white"/>
<path d="M40.2452 12.1735H38.1275L41.5485 6.11636L42.6666 12.1735H40.2452V17.4975H43.6292L44.2734 21H53.3295L49.4716 0H38.9198L26.998 21H33.1366L35.1063 17.4975H40.2452" fill="white"/>
<path d="M107.851 21L113.087 0H103.808L98.5732 21" fill="white"/>
<path d="M80.4898 13.7507L78.6608 21H69.8047L75.0399 0H83.9404L82.2003 6.87165L90.1605 0H99.6608L88.0057 10.0039L95.951 21H85.2215" fill="white"/>
<path d="M11.5293 16.357H10.0187L12.914 5.03506H15.8981C16.957 5.04246 20.0522 5.32385 19.7116 9.54458C19.7116 9.54458 19.1192 16.357 13.3064 16.357H11.5293V20.985H16.0832C22.518 20.985 28.8269 16.2163 28.8269 8.89296C28.8269 0.288584 19.2525 0.0220117 19.2525 0.0220117L16.8459 0.00720215H5.23519L0 20.9924H11.5293" fill="white"/>
<path d="M112.456 21L117.706 0H128.021L132.153 12.3586L135.241 0H141.661L136.411 21H126.133L122.001 8.53032L118.876 21" fill="white"/>
</svg>
