<svg width="127" height="30" viewBox="0 0 127 30" fill="none" xmlns="http://www.w3.org/2000/svg">
<path fill-rule="evenodd" clip-rule="evenodd" d="M7.70494 5.79324H8.24053C9.72514 5.79324 10.1856 6.319 10.1856 7.87785V15.9949C10.1856 17.5537 9.72514 18.0795 8.24053 18.0795H7.70494V5.79324ZM0 1.09827V4.91697C0.789287 5.24903 0.845664 5.87626 0.873853 6.62339V17.111C0.845664 17.8397 0.770494 18.4946 0 18.8174V22.6361H9.67816C11.7547 22.6361 13.6998 22.507 15.2595 21.0496C16.9227 19.5184 17.026 17.8858 17.026 15.7735V7.71181C17.026 5.65488 16.8475 3.69019 15.0528 2.3066C13.493 1.12594 11.3413 1.09827 9.47144 1.09827H0Z" fill="white"/>
<path fill-rule="evenodd" clip-rule="evenodd" d="M27.1462 12.3884H24.7877V11.7889C24.7877 11.1616 24.8911 10.1747 25.9623 10.1747C27.0335 10.1747 27.1368 11.1524 27.1368 11.7889V12.3884H27.1462ZM18.7459 16.862C18.7459 18.7714 18.8211 20.5331 20.5124 21.7599C21.8467 22.7376 24.3273 23.1435 26.7892 22.9682C29.2698 22.793 31.7598 22.0643 33.0847 20.9298V16.9542H27.0429V17.5354C27.0429 18.3378 26.9677 19.2695 25.9153 19.2695C24.8629 19.2695 24.7596 18.2364 24.7877 17.4616V16.0042H33.0847V12.2593C33.188 8.38523 31.7222 6.44821 25.7838 6.47588C20.1272 6.50355 18.6426 8.23765 18.7366 12.5637V16.862H18.7459Z" fill="white"/>
<path fill-rule="evenodd" clip-rule="evenodd" d="M34.4746 22.6453V18.8266C35.2921 18.3285 35.2169 17.5168 35.2169 16.7144V7.02925C35.2169 6.22676 35.2921 5.42428 34.4746 4.91697V1.09827H42.7997V4.91697C41.9822 5.42428 42.0574 6.22676 42.0574 7.02925V18.0703H42.7245C44.4628 18.0703 44.4441 17.0372 44.4441 15.6813V12.1854H50.4671V22.6453H34.4746Z" fill="white"/>
<path fill-rule="evenodd" clip-rule="evenodd" d="M58.06 12.5359C58.06 11.6597 57.9096 10.1746 59.2157 10.1746C60.5218 10.1746 60.3433 11.6873 60.3433 12.5359V17.111C60.3433 17.9688 60.4185 19.2694 59.1875 19.2694C57.9566 19.2694 58.06 17.9596 58.06 17.111V12.5359ZM66.3851 12.4806C66.3851 10.4698 66.2535 8.56044 64.3085 7.40745C62.8991 6.60496 60.4372 6.47583 58.8023 6.47583C56.9888 6.47583 55.0156 6.62341 53.5498 7.75795C52.037 8.91094 52.0088 10.7742 52.0088 12.4806V16.6037C52.0088 18.6883 52.0088 20.6253 53.982 21.9074C55.3914 22.8391 57.7499 22.9682 59.4131 22.9682C61.2547 22.9682 63.4065 22.8206 64.8723 21.5846C66.3287 20.3486 66.3851 18.3655 66.3851 16.6037V12.4806Z" fill="white"/>
<path fill-rule="evenodd" clip-rule="evenodd" d="M74.4747 7.78564C76.1097 6.70645 77.5473 6.42973 78.8252 6.47585C80.0843 6.52197 81.1837 6.92782 81.7944 7.52737C82.8938 8.56045 83.0254 9.71344 83.0254 11.0694V17.0003C83.0254 17.7844 82.9502 18.6606 83.7489 19.0849V22.6269H77.3218C76.9648 21.022 76.9836 19.334 76.9836 17.7014V13.0709C76.9836 12.9695 77.0587 12.2408 76.805 11.6597C76.3916 11.0601 75.7338 10.6082 74.7284 11.0601V16.9911C74.7284 17.7751 74.6533 18.6514 75.4708 19.0757V22.6177H67.9443V19.0757C68.743 18.6237 68.6866 17.8951 68.6866 17.0926V12.2869C68.6866 11.4291 68.7148 10.8757 67.9443 10.3222V6.78024H74.4747V7.75797V7.78564Z" fill="white"/>
<path fill-rule="evenodd" clip-rule="evenodd" d="M93.7371 18.1902C93.427 18.3655 92.9948 18.4669 92.6565 18.4669C91.4256 18.4669 91.4256 17.0833 91.4256 16.2255V12.7296C91.4256 11.8257 91.4256 10.765 92.6283 10.765C93.0136 10.765 93.4176 10.8941 93.7277 11.0878V18.181H93.7371V18.1902ZM100.521 6.80789H93.8874V7.71183C92.7317 6.85401 91.3222 6.47583 89.894 6.47583C86.2858 6.47583 85.3838 8.63423 85.3838 12.084V18.0426C85.3838 21.5108 87.1221 22.9682 90.1759 22.9682C91.3316 22.9682 92.6565 22.6177 93.7371 21.8152V22.8206C93.7371 23.7246 93.8874 25.2834 92.5625 25.2834C92.0739 25.2834 91.792 25.0344 91.6135 24.6838C91.4632 24.3333 91.435 23.8814 91.435 23.5309H85.8254V27.3311C88.1839 28.6132 90.2041 29.0191 92.8914 29.0191C94.7331 29.0191 97.0633 28.7885 98.4446 27.4602C99.854 26.132 99.7789 23.7153 99.7789 21.9259V12.3053C99.7789 11.5029 99.7225 10.8203 100.521 10.3407V6.79867V6.80789Z" fill="white"/>
<path fill-rule="evenodd" clip-rule="evenodd" d="M108.969 7.50889C110.35 6.70641 111.788 6.42969 113.066 6.47581C114.325 6.52193 115.424 6.92778 116.035 7.52734C117.135 8.56042 117.266 9.7134 117.266 11.0693V17.0003C117.266 17.7843 117.191 18.6606 117.98 19.0849V22.6269H111.553C111.196 21.0219 111.215 19.334 111.215 17.7013V13.0709C111.215 12.9694 111.29 12.2408 111.036 11.6597C110.623 11.0601 109.956 10.6081 108.96 11.0601V16.9911C108.96 17.7751 108.885 18.6514 109.702 19.0757V22.6177H102.176V19.0757C102.974 18.6237 102.918 17.895 102.918 17.0925V6.72486C102.946 5.92238 102.993 5.06455 102.147 4.64025V1.09827H108.96V7.50889H108.969Z" fill="white"/>
<path fill-rule="evenodd" clip-rule="evenodd" d="M126.229 17.0095C126.229 17.812 126.154 18.6145 127 19.0941V22.6361H119.445V19.0941C120.244 18.6145 120.188 17.9135 120.188 17.111V12.4345C120.188 11.632 120.263 10.8295 119.445 10.3498V6.80786H126.229V17.0187V17.0095ZM119.699 3.30277C119.699 1.59635 121.494 0.886108 122.978 0.886108C124.463 0.886108 126.229 1.68859 126.229 3.40424C126.229 5.11989 124.51 5.83935 123.025 5.83935C121.437 5.83935 119.699 5.08299 119.699 3.30277Z" fill="white"/>
</svg>
