<svg width="109" height="21" viewBox="0 0 109 21" fill="none" xmlns="http://www.w3.org/2000/svg">
<path d="M5.72811 2.3952C5.63179 2.07045 4.79973 0.407227 4.79973 0.407227L13.4359 0.4109C16.3284 0.4109 19.8722 0.666853 21.6263 2.66398C23.0381 4.27123 23.1638 6.80136 22.0061 10.3975C19.0172 19.6988 12.4993 20.4685 5.70518 20.4685H0L5.72811 2.3952V2.3952ZM7.3748 18.0136C9.78291 18.0016 11.8525 17.6117 13.1084 16.7879C14.7101 15.732 15.8174 13.8973 16.9265 10.4534C17.91 7.38939 18.3292 5.16751 17.2742 3.97033C16.5733 3.16762 14.8872 2.78049 12.7194 2.78049C12.6213 2.78049 12.524 2.7805 12.4332 2.78123C12.4332 2.78123 11.5103 2.76382 10.5893 2.87662L6.04002 17.0987C6.04002 17.0987 5.79783 18.0134 6.88951 18.0134" fill="white"/>
<path d="M30.7718 18.0145L39.9043 18.0237L39.1181 20.4694H23.9126L29.6398 2.39616C29.5444 2.0705 28.7288 0.404541 28.7288 0.404541H44.893L44.1059 2.85026H34.5019L32.5993 8.79212H39.3025L38.5154 11.2443H31.8167L29.9655 17.0485C29.9655 17.0485 29.7132 17.9907 30.7718 18.0145Z" fill="white"/>
<path d="M46.4171 20.4686L51.0132 5.7043L56.5643 20.4686H60.8695L67.3178 0.403687H63.8418L59.4411 14.4506L59.3733 14.2873L54.2038 0.403687H47.618C47.618 0.403687 48.4344 2.06964 48.5299 2.39531L42.8018 20.4686" fill="white"/>
<path d="M84.3051 3.75856C83.5116 3.39528 81.6301 2.57698 78.9422 2.54579C78.1697 2.53992 76.3065 2.75861 75.68 4.71446C75.1497 6.36115 76.9248 7.24734 78.9834 8.27021C81.62 9.5839 84.6061 11.0746 83.4483 14.6763C82.2016 18.5559 78.1505 20.8658 72.338 20.7787C68.1024 20.7163 66.0347 19.9264 66.0347 19.9264L67.2172 16.2321L68.074 16.722C68.9198 17.2046 71.1591 18.3311 73.6654 18.3311C74.5039 18.3311 75.6882 18.1788 76.6414 17.588C77.323 17.166 77.8083 16.4743 78.0881 15.6028C78.6614 13.8167 76.8368 12.892 74.7213 11.8186C72.1462 10.5141 69.2253 9.03532 70.3564 5.53186C70.8169 4.08607 71.8004 2.84026 73.193 1.92564C75.0094 0.731214 77.068 0.121167 80.3687 0.100067C82.6869 0.0881779 84.9391 0.394537 85.884 0.642229L86.2353 0.741313L86.1041 1.16972L85.4335 3.25216L85.1473 4.14661" fill="white"/>
<path d="M87.8144 10.5141C89.1336 6.41156 90.9298 3.72273 93.4764 2.05127C95.5781 0.67153 98.144 0 101.323 0C104.356 0 106.412 0.661428 107.608 2.01731C109.097 3.7163 109.179 6.4134 107.861 10.5141C106.431 14.9624 103.5 20.8832 94.6066 20.8832C91.4518 20.8832 89.3244 20.2071 88.1024 18.8145C86.6245 17.1348 86.5346 14.4927 87.8144 10.5141V10.5141ZM95.402 18.409C96.6588 18.409 97.7285 18.132 98.6403 17.5045C100.727 16.0853 101.9 13.1469 102.748 10.5141C103.671 7.63534 104.356 4.77769 103.116 3.3631C102.588 2.76497 101.74 2.47049 100.525 2.47049C96.1194 2.47049 94.27 6.33542 92.9297 10.5141C92.2059 12.7662 91.394 15.9422 92.738 17.4714C93.292 18.1017 94.1626 18.409 95.402 18.409" fill="white"/>
</svg>
