<svg width="92" height="35" viewBox="0 0 92 35" fill="none" xmlns="http://www.w3.org/2000/svg">
<path d="M12.8961 17.2478C12.8961 19.5435 11.0352 21.4044 8.73947 21.4044C6.44083 21.4044 4.57995 19.5435 4.57995 17.2478C4.57995 14.9506 6.44083 13.0883 8.73947 13.0883L12.8932 13.0868L12.8961 17.2478ZM17.5021 0H12.8975V8.50831C11.3386 8.50975 9.70459 8.50397 8.74092 8.50397C3.91246 8.50397 0 12.4164 0 17.2449C0 22.0705 3.91246 25.9829 8.74092 25.9829C13.5665 25.9829 17.5021 22.0705 17.5021 17.2449C17.5021 14.8307 17.505 8.50108 17.505 8.50108L17.5021 0Z" fill="white"/>
<path d="M63.9424 21.4174C66.2468 21.4174 68.1192 19.5493 68.1192 17.2449C68.1192 14.9376 66.2468 13.0695 63.9424 13.0695C61.638 13.0695 59.7699 14.9376 59.7699 17.2449C59.7699 19.5493 61.638 21.4174 63.9424 21.4174ZM55.2231 17.2449C55.2231 12.4179 59.1327 8.50684 63.9583 8.50684C68.7867 8.50684 72.6978 12.4179 72.6978 17.2449C72.6978 22.0675 68.7867 25.98 63.9583 25.98C59.1327 25.98 55.2231 22.0675 55.2231 17.2449Z" fill="white"/>
<path d="M87.3956 17.2546C87.3956 14.9733 85.5477 13.1255 83.2693 13.1255C80.9851 13.1255 79.1372 14.9733 79.1372 17.2546C79.1372 18.3758 79.1386 25.6271 79.1386 25.6271C76.7938 25.6286 74.5312 25.6329 74.5312 25.6329C74.5312 25.6329 74.5312 19.666 74.5312 17.2546C74.5312 12.4291 78.4423 8.51807 83.2693 8.51807C88.092 8.51807 91.9972 12.4291 91.9972 17.2546C91.9972 19.7166 92.0001 25.6214 92.0001 25.6214C92.0001 25.6214 89.7361 25.6228 87.3956 25.6228C87.3956 25.6228 87.3956 18.4004 87.3956 17.2546Z" fill="white"/>
<path d="M44.4661 14.208C43.7957 13.7717 44.0153 12.9655 45.0946 12.6694C46.522 12.2764 48.877 12.5942 50.9864 13.5247L53.1622 10.5556C52.2159 9.76679 50.1874 8.76122 47.1794 8.56618C47.1794 8.56618 42.153 7.93914 40.1202 11.7563C40.1202 11.7563 38.3185 15.322 41.8713 17.5411C44.0312 18.8891 47.7847 19.3674 48.9232 20.0103C49.8941 20.5564 49.5734 21.5851 48.1358 21.9102C45.7563 22.4476 42.5532 21.091 41.4797 20.2862L39.2808 23.3203C40.7559 24.4588 42.6514 25.4311 45.6493 25.9238C45.6493 25.9238 50.3738 26.7386 52.9787 23.4908C53.4613 22.8897 55.5981 18.8819 51.3013 16.5948C49.1703 15.4578 45.6002 14.9449 44.4661 14.208Z" fill="white"/>
<path d="M22.9977 29.0359C23.1884 29.153 25.3368 30.6252 27.4173 30.6685C32.4191 30.774 32.7384 25.567 32.7384 24.3332C31.7776 25.3431 29.8228 25.9773 28.6078 25.9773C23.7807 25.9773 19.9116 22.1978 19.9116 17.3708C19.9116 14.9826 19.9131 8.83936 19.9131 8.83936C19.9131 8.83936 22.1611 8.84369 24.5118 8.84802C24.5118 8.84802 24.519 16.332 24.519 17.3708C24.519 19.6506 26.3669 21.4985 28.6453 21.4985C30.9281 21.4985 32.7716 19.6506 32.7716 17.3708C32.7716 16.4375 32.773 8.84802 32.773 8.84802C35.1266 8.84369 37.3833 8.83936 37.3833 8.83936L37.3805 17.3708C37.3805 24.9299 37.7503 32.697 30.3877 34.4524C24.8398 35.7773 20.9201 32.304 20.725 32.1451L22.9977 29.0359Z" fill="white"/>
</svg>
