<svg width="139" height="23" viewBox="0 0 139 23" fill="none" xmlns="http://www.w3.org/2000/svg">
<path fill-rule="evenodd" clip-rule="evenodd" d="M3.81158 15.4994V12.6348H13.1227V8.98135H3.81158V3.65343H13.7217V0H0V15.3333C0 19.2082 1.61992 21.8514 5.4315 22.4049C5.51317 22.4188 5.58124 22.4326 5.6493 22.4326H5.71736C6.11213 22.4741 6.5069 22.5018 6.9289 22.5018H13.9803V18.8622H6.95613C5.74459 18.8622 3.81158 18.2533 3.81158 15.4994Z" fill="white"/>
<path fill-rule="evenodd" clip-rule="evenodd" d="M16.6895 10.642V22.5156H20.501V10.559V0H16.6895V10.642Z" fill="white"/>
<path fill-rule="evenodd" clip-rule="evenodd" d="M26.8991 12.5933C27.0625 10.6144 29.0363 9.02292 31.4322 9.02292C33.6647 9.02292 35.4888 10.642 35.4888 12.5933H26.8991ZM31.4322 5.71545C26.6132 5.71545 23.0059 9.09211 23.0059 14.3508V14.4754C23.0059 19.5957 26.4907 22.917 31.5275 22.917C33.9505 22.917 36.2239 22.2389 38.293 19.997L35.9924 17.7275C34.7809 18.9591 33.5966 19.6096 31.65 19.6096C28.8049 19.6096 26.9263 17.9212 26.8038 15.3195H39.314C39.382 14.6691 39.382 13.9633 39.382 13.9633C39.382 9.38272 36.2239 5.71545 31.4322 5.71545Z" fill="white"/>
<path fill-rule="evenodd" clip-rule="evenodd" d="M50.0949 9.18896C51.8237 9.18896 53.0897 9.83938 54.1787 10.9742L56.5473 8.46934C54.696 6.46273 52.4907 5.64624 50.0949 5.64624C45.2487 5.64624 41.3555 9.31351 41.3555 14.3093C41.3555 19.3051 45.2487 22.9724 50.0949 22.9724C52.4907 22.9724 54.696 22.1559 56.5473 20.1492L54.1787 17.6444C53.0897 18.7792 51.8237 19.4296 50.0949 19.4296C47.2906 19.4296 45.1534 17.2569 45.1534 14.3093C45.1534 11.3616 47.2906 9.18896 50.0949 9.18896Z" fill="white"/>
<path fill-rule="evenodd" clip-rule="evenodd" d="M62.7276 15.4994V9.75632H66.1989V6.24128H62.7413V0H58.9297V15.7347C59.0386 19.3881 60.6721 21.8791 64.3476 22.4049C64.4292 22.4188 64.4973 22.4326 64.5654 22.4464H64.6334C65.0282 22.488 65.423 22.5156 65.845 22.5156H66.2533V18.8761H65.8858C64.6743 18.8761 62.7413 18.2671 62.7413 15.5132" fill="white"/>
<path fill-rule="evenodd" clip-rule="evenodd" d="M73.1818 8.64917V6.22739H69.3975V22.5018H73.1818V13.9356C73.1818 11.2509 74.8698 9.57637 77.4971 9.57637C78.096 9.57637 78.6405 9.64556 79.0898 9.74244V5.99213C78.9264 5.96446 78.3547 5.89526 77.9463 5.89526C75.6593 5.89526 73.9441 6.96085 73.1818 8.63534" fill="white"/>
<path fill-rule="evenodd" clip-rule="evenodd" d="M88.4152 19.485C85.5837 19.485 83.4601 17.257 83.4601 14.3785C83.4601 11.5 85.5837 9.272 88.4152 9.272C91.2466 9.272 93.3702 11.5 93.3702 14.3785C93.3702 17.257 91.2058 19.485 88.4152 19.485ZM88.4152 5.75696C83.5554 5.75696 79.6758 9.50726 79.6758 14.3785C79.6758 19.2497 83.5554 23 88.4152 23C93.2749 23 97.1546 19.2497 97.1546 14.3785C97.1546 9.50726 93.2477 5.75696 88.4152 5.75696Z" fill="white"/>
<path fill-rule="evenodd" clip-rule="evenodd" d="M99.4961 10.2545V22.5156H103.308V10.4067V0H99.4961V10.2545Z" fill="white"/>
<path fill-rule="evenodd" clip-rule="evenodd" d="M117.07 15.6932C117.07 18.281 115.573 19.3743 113.572 19.3743C111.571 19.3743 110.073 18.281 110.073 15.7209V6.24133H106.234V16.0668C106.234 20.7167 109.57 22.9447 113.544 22.9447C117.519 22.9447 120.909 20.689 120.909 15.97V6.24133H117.07V15.707V15.6932Z" fill="white"/>
<path fill-rule="evenodd" clip-rule="evenodd" d="M135.339 17.3123L132.929 13.8942L135.91 9.77021L138.456 6.24133H134.29L130.833 11.1126L127.334 6.24133H123.21L125.578 9.53495L128.736 13.9218L125.428 18.6132L122.665 22.5157H126.762L130.833 16.7588L134.903 22.5157H139L135.339 17.3123Z" fill="white"/>
</svg>
