<svg width="92" height="16" viewBox="0 0 92 16" fill="none" xmlns="http://www.w3.org/2000/svg">
<path d="M24.1178 14.1626V4.9742L20.554 11.1488L16.9445 4.87027V14.1626H14.5391V1.79565H18.3411L20.5768 6.29732L22.8124 1.79565H26.5384V14.1626H24.1178Z" fill="#010101"/>
<path d="M33.8842 14.1626C30.7944 14.1449 28.1786 11.9929 27.958 8.66732C27.6995 4.83736 30.3964 1.62333 34.2543 1.79569C37.2351 1.92749 39.3389 4.39631 39.6735 7.30871C40.1019 11.055 37.6812 14.1854 33.8842 14.1626ZM33.8842 11.9143C36.0184 11.9143 37.2123 9.94736 37.2123 7.93225C37.2123 5.91715 35.988 4.13017 33.8842 4.13017C31.8868 4.13017 30.5206 5.99319 30.5206 7.93225C30.5206 10.0766 31.603 11.9143 33.8842 11.9143Z" fill="#010101"/>
<path d="M84.7458 14.1626C81.6535 14.1449 79.0376 11.9929 78.8171 8.66732C78.5611 4.83736 81.2555 1.62333 85.1133 1.79569C88.0942 1.92749 90.198 4.39631 90.5326 7.30871C90.9609 11.055 88.5428 14.1854 84.7458 14.1626ZM84.7458 11.9143C86.8826 11.9143 88.0739 9.94736 88.0739 7.93225C88.0739 5.91715 86.8496 4.13017 84.7458 4.13017C82.7484 4.13017 81.3822 5.99319 81.3822 7.93225C81.3797 10.0766 82.4646 11.9143 84.7433 11.9143H84.7458Z" fill="#010101"/>
<path d="M41.0625 14.1626V1.79565H43.653V11.9092H49.3586V14.1626H41.0625Z" fill="#010101"/>
<path d="M50.9048 14.1626V1.79565H53.6727C55.7765 1.79565 57.6826 1.79565 59.2491 3.41788C59.7681 3.96499 60.1708 4.61171 60.4328 5.31892C60.7303 6.13026 60.8756 6.98957 60.8611 7.85364C60.8719 8.72866 60.7427 9.59978 60.4784 10.434C60.2512 11.1647 59.8807 11.8429 59.3885 12.4288C58.925 12.9736 58.3479 13.4105 57.6978 13.7088C57.0134 14.0186 56.2692 14.1744 55.518 14.1651L50.9048 14.1626ZM55.5661 12.0942C57.6674 11.8991 58.22 9.60513 58.22 7.84604C58.2293 7.24431 58.1672 6.6436 58.0349 6.05652C57.9332 5.60634 57.7245 5.18729 57.4266 4.83479C57.1557 4.55415 56.8318 4.32993 56.4738 4.17506C56.1157 4.02018 55.7306 3.93772 55.3405 3.93243H53.4192V12.0562C53.4446 12.117 54.4686 12.0968 54.6055 12.1018C54.9255 12.1208 55.2464 12.1183 55.5661 12.0942Z" fill="#010101"/>
<path d="M75.048 14.1626L69.7556 5.85121V14.1626H67.3501V1.79565H70.0901L75.01 9.75468V1.79565H77.4332V14.1626H75.048Z" fill="#010101"/>
<path d="M63.8472 1.79565H63.8016C63.3982 1.79565 63.0114 1.95588 62.7262 2.2411C62.441 2.52631 62.2808 2.91314 62.2808 3.31649C62.2808 3.71984 62.441 4.10667 62.7262 4.39188C63.0114 4.67709 63.3982 4.83732 63.8016 4.83732H63.8472C64.2506 4.83732 64.6374 4.67709 64.9226 4.39188C65.2078 4.10667 65.3681 3.71984 65.3681 3.31649C65.3681 2.91314 65.2078 2.52631 64.9226 2.2411C64.6374 1.95588 64.2506 1.79565 63.8472 1.79565Z" fill="#EE3028"/>
<path d="M65.0916 5.67383H62.5569V14.1778H65.0916V5.67383Z" fill="#010101"/>
<path d="M5.12272 4.44195L4.09362 2.20886C2.68685 2.77664 1.82758 3.84376 1.16602 5.1973L3.62216 5.89942C3.95558 5.26709 4.48095 4.75681 5.12272 4.44195Z" fill="#FAA819"/>
<path d="M9.72327 8.63943H12.4582C12.4871 8.18719 12.4744 7.73326 12.4202 7.28335C12.3999 7.09071 12.367 6.77641 12.329 6.57617C12.169 5.74867 11.8408 4.96284 11.3647 4.2674C10.8886 3.57196 10.2747 2.98172 9.56105 2.53328C8.78253 2.05411 7.89409 1.78269 6.98071 1.74499C6.51089 1.72288 6.04006 1.75177 5.57647 1.83117C5.57647 1.83117 5.82994 4.11242 5.84261 4.19353C6.09202 4.13618 6.34712 4.10727 6.60303 4.10735C7.338 4.10713 8.05262 4.34874 8.63667 4.79491C9.22072 5.24107 9.64174 5.86701 9.8348 6.57617H0.811191C0.687781 7.12846 0.629928 7.69338 0.63883 8.25922C0.63883 8.38849 0.63883 8.51269 0.654038 8.64957C0.879629 11.9903 3.5056 14.1524 6.61064 14.1702C9.25689 14.1879 11.2365 12.6772 12.0578 10.4948H9.21126C8.93442 10.933 8.55019 11.2932 8.09504 11.5412C7.63989 11.7892 7.12893 11.9167 6.61064 11.9118C6.07495 11.9349 5.54265 11.8161 5.0677 11.5672C4.59274 11.3184 4.192 10.9484 3.90609 10.4948C3.54922 9.93315 3.32073 9.2996 3.23692 8.63943H9.72327Z" fill="#EE3028"/>
</svg>
