<svg width="92" height="16" viewBox="0 0 92 16" fill="none" xmlns="http://www.w3.org/2000/svg">
<path d="M24.1178 14.1626V4.9742L20.554 11.1488L16.9445 4.87027V14.1626H14.5391V1.79565H18.3411L20.5768 6.29732L22.8124 1.79565H26.5384V14.1626H24.1178Z" fill="#010101"/>
<path d="M33.8837 14.1626C30.7939 14.1449 28.1781 11.9929 27.9575 8.66732C27.699 4.83736 30.3959 1.62333 34.2538 1.79569C37.2346 1.92749 39.3384 4.39631 39.673 7.30871C40.1014 11.055 37.6807 14.1854 33.8837 14.1626ZM33.8837 11.9143C36.018 11.9143 37.2118 9.94736 37.2118 7.93225C37.2118 5.91715 35.9875 4.13017 33.8837 4.13017C31.8864 4.13017 30.5201 5.99319 30.5201 7.93225C30.5201 10.0766 31.6025 11.9143 33.8837 11.9143Z" fill="#010101"/>
<path d="M84.7463 14.1626C81.6539 14.1449 79.0381 11.9929 78.8176 8.66732C78.5616 4.83736 81.256 1.62333 85.1138 1.79569C88.0947 1.92749 90.1985 4.39631 90.5331 7.30871C90.9614 11.055 88.5433 14.1854 84.7463 14.1626ZM84.7463 11.9143C86.8831 11.9143 88.0744 9.94736 88.0744 7.93225C88.0744 5.91715 86.8501 4.13017 84.7463 4.13017C82.7489 4.13017 81.3827 5.99319 81.3827 7.93225C81.3802 10.0766 82.465 11.9143 84.7438 11.9143H84.7463Z" fill="#010101"/>
<path d="M41.0625 14.1626V1.79565H43.653V11.9092H49.3586V14.1626H41.0625Z" fill="#010101"/>
<path d="M50.9053 14.1626V1.79565H53.6732C55.777 1.79565 57.6831 1.79565 59.2496 3.41788C59.7686 3.96499 60.1713 4.61171 60.4333 5.31892C60.7308 6.13026 60.8761 6.98957 60.8616 7.85364C60.8724 8.72866 60.7432 9.59978 60.4789 10.434C60.2517 11.1647 59.8811 11.8429 59.389 12.4288C58.9254 12.9736 58.3484 13.4105 57.6983 13.7088C57.0138 14.0186 56.2697 14.1744 55.5185 14.1651L50.9053 14.1626ZM55.5666 12.0942C57.6679 11.8991 58.2205 9.60513 58.2205 7.84604C58.2298 7.24431 58.1677 6.6436 58.0354 6.05652C57.9337 5.60634 57.725 5.18729 57.4271 4.83479C57.1561 4.55415 56.8323 4.32993 56.4743 4.17506C56.1162 4.02018 55.7311 3.93772 55.341 3.93243H53.4197V12.0562C53.4451 12.117 54.4691 12.0968 54.606 12.1018C54.926 12.1208 55.2469 12.1183 55.5666 12.0942Z" fill="#010101"/>
<path d="M75.0476 14.1626L69.7551 5.85121V14.1626H67.3496V1.79565H70.0896L75.0095 9.75468V1.79565H77.4327V14.1626H75.0476Z" fill="#010101"/>
<path d="M63.8467 1.79565H63.8011C63.3978 1.79565 63.0109 1.95588 62.7257 2.2411C62.4405 2.52631 62.2803 2.91314 62.2803 3.31649C62.2803 3.71984 62.4405 4.10667 62.7257 4.39188C63.0109 4.67709 63.3978 4.83732 63.8011 4.83732H63.8467C64.2501 4.83732 64.6369 4.67709 64.9221 4.39188C65.2073 4.10667 65.3676 3.71984 65.3676 3.31649C65.3676 2.91314 65.2073 2.52631 64.9221 2.2411C64.6369 1.95588 64.2501 1.79565 63.8467 1.79565Z" fill="#EE3028"/>
<path d="M65.0914 5.67383H62.5566V14.1778H65.0914V5.67383Z" fill="#010101"/>
<path d="M5.12272 4.44195L4.09362 2.20886C2.68685 2.77664 1.82758 3.84376 1.16602 5.1973L3.62216 5.89942C3.95558 5.26709 4.48095 4.75681 5.12272 4.44195Z" fill="#FAA819"/>
<path d="M9.72303 8.63943H12.458C12.4868 8.18719 12.4741 7.73326 12.42 7.28335C12.3997 7.09071 12.3667 6.77641 12.3287 6.57617C12.1688 5.74867 11.8406 4.96284 11.3644 4.2674C10.8883 3.57196 10.2744 2.98172 9.56081 2.53328C8.78229 2.05411 7.89385 1.78269 6.98046 1.74499C6.51064 1.72288 6.03981 1.75177 5.57622 1.83117C5.57622 1.83117 5.8297 4.11242 5.84237 4.19353C6.09178 4.13618 6.34687 4.10727 6.60279 4.10735C7.33775 4.10713 8.05238 4.34874 8.63642 4.79491C9.22047 5.24107 9.6415 5.86701 9.83456 6.57617H0.810947C0.687537 7.12846 0.629684 7.69338 0.638586 8.25922C0.638586 8.38849 0.638586 8.51269 0.653794 8.64957C0.879385 11.9903 3.50536 14.1524 6.61039 14.1702C9.25664 14.1879 11.2363 12.6772 12.0575 10.4948H9.21102C8.93417 10.933 8.54994 11.2932 8.0948 11.5412C7.63965 11.7892 7.12868 11.9167 6.61039 11.9118C6.0747 11.9349 5.54241 11.8161 5.06745 11.5672C4.5925 11.3184 4.19176 10.9484 3.90584 10.4948C3.54898 9.93315 3.32049 9.2996 3.23668 8.63943H9.72303Z" fill="#EE3028"/>
</svg>
