<svg width="125" height="20" viewBox="0 0 125 20" fill="none" xmlns="http://www.w3.org/2000/svg">
<path d="M33.0486 18.3542V5.76389L28.1632 14.2361L23.2187 5.62152V18.3542H19.9236V1.38889H25.1319L28.1979 7.55555L31.25 1.38889H36.3576V18.3542H33.0486Z" fill="white"/>
<path d="M46.4341 18.3542C42.1945 18.3299 38.6146 15.3819 38.3091 10.8229C37.9584 5.55556 41.6667 1.17014 46.9375 1.40625C51.0243 1.59028 53.9063 4.97222 54.3646 8.96181C54.9514 14.0938 51.6355 18.4028 46.4341 18.3542ZM46.4341 15.2743C49.3577 15.2743 50.9931 12.5799 50.9931 9.81945C50.9931 7.05903 49.3125 4.61111 46.4306 4.61111C43.6945 4.61111 41.823 7.1632 41.823 9.81945C41.823 12.7569 43.3056 15.2778 46.4341 15.2778V15.2743Z" fill="white"/>
<path d="M116.128 18.3542C111.889 18.3299 108.309 15.3819 108.003 10.8229C107.639 5.55556 111.347 1.17014 116.632 1.40625C120.715 1.59028 123.601 4.97222 124.059 8.96181C124.653 14.0938 121.33 18.4028 116.128 18.3542ZM116.128 15.2743C119.052 15.2743 120.684 12.5799 120.684 9.81945C120.684 7.05903 119.007 4.61111 116.125 4.61111C113.389 4.61111 111.517 7.1632 111.517 9.81945C111.517 12.7569 113 15.2778 116.128 15.2778V15.2743Z" fill="white"/>
<path d="M56.4375 18.3542V1.38889H59.9861V15.2778H67.8055V18.3646L56.4375 18.3542Z" fill="white"/>
<path d="M69.7534 18.3542V1.38889H73.5486C76.4305 1.38889 79.0451 1.38889 81.1875 3.61111C81.8975 4.36135 82.449 5.24705 82.809 6.21527C83.2166 7.3267 83.4155 8.50384 83.3958 9.6875C83.4106 10.8873 83.2336 12.0817 82.8715 13.2257C82.5627 14.2298 82.0589 15.1631 81.3888 15.9722C80.7526 16.7218 79.9597 17.3228 79.0659 17.7326C78.127 18.157 77.1066 18.3703 76.0763 18.3576L69.7534 18.3542ZM76.1423 15.5208C79.0208 15.2535 79.7812 12.1076 79.7812 9.69791C79.7946 8.87341 79.7084 8.05032 79.5243 7.24652C79.386 6.63012 79.1014 6.05606 78.6944 5.57291C78.3228 5.18807 77.8786 4.88068 77.3875 4.66851C76.8965 4.45634 76.3682 4.3436 75.8333 4.3368H73.2013V15.4687C73.2361 15.5521 74.6388 15.5208 74.8263 15.5312C75.2647 15.5573 75.7044 15.5538 76.1423 15.5208Z" fill="white"/>
<path d="M102.84 18.3542L95.5869 6.96527V18.3542H92.2917V1.38889H96.0452L102.778 12.3021V1.38889H106.097V18.3542H102.84Z" fill="white"/>
<path d="M87.4999 1.38889H87.4339C86.8814 1.38889 86.3515 1.60838 85.9608 1.99908C85.5701 2.38978 85.3506 2.91968 85.3506 3.47222C85.3506 4.02475 85.5701 4.55466 85.9608 4.94536C86.3515 5.33606 86.8814 5.55555 87.4339 5.55555H87.4999C88.0524 5.55555 88.5823 5.33606 88.973 4.94536C89.3637 4.55466 89.5832 4.02475 89.5832 3.47222C89.5832 2.91968 89.3637 2.38978 88.973 1.99908C88.5823 1.60838 88.0524 1.38889 87.4999 1.38889Z" fill="white"/>
<path d="M89.1979 6.72223H85.7222V18.375H89.1979V6.72223Z" fill="white"/>
<path d="M7.02078 5.03472L5.61106 1.97569C3.68397 2.75 2.50342 4.21528 1.59717 6.06944L4.96175 7.03125C5.4188 6.16408 6.13994 5.46483 7.02078 5.03472Z" fill="white"/>
<path d="M13.3229 10.7882H17.0694C17.1079 10.1686 17.0893 9.54675 17.0139 8.93055C16.9826 8.66666 16.941 8.23611 16.8889 7.95833C16.6679 6.82727 16.2178 5.75339 15.5663 4.80276C14.9149 3.85212 14.0758 3.04483 13.1007 2.43055C12.0361 1.76811 10.8187 1.3914 9.56597 1.3368C8.92113 1.30935 8.27518 1.35009 7.63889 1.45833C7.63889 1.45833 7.98611 4.58333 8.00695 4.69444C8.34816 4.61299 8.69781 4.5722 9.04861 4.57291C10.056 4.5738 11.0353 4.90558 11.8357 5.51724C12.6362 6.12889 13.2136 6.98654 13.4792 7.95833H1.11111C0.942042 8.71607 0.862793 9.49108 0.875002 10.2674C0.875002 10.441 0.875002 10.6146 0.895836 10.7986C1.20486 15.3785 4.80209 18.3403 9.05903 18.3646C12.684 18.4028 15.3993 16.3194 16.5243 13.3299H12.6215C12.2431 13.9314 11.7171 14.4262 11.0936 14.7671C10.4701 15.1081 9.76967 15.2838 9.05903 15.2778C8.32463 15.3101 7.59475 15.1476 6.94346 14.8067C6.29217 14.4658 5.74265 13.9587 5.3507 13.3368C4.86255 12.5673 4.5507 11.6993 4.4375 10.7951H13.3229V10.7882Z" fill="white"/>
</svg>
