<?xml version="1.0" encoding="UTF-8" standalone="no"?>
<!-- Created with Inkscape (http://www.inkscape.org/) -->

<svg
   xmlns:dc="http://purl.org/dc/elements/1.1/"
   xmlns:cc="http://creativecommons.org/ns#"
   xmlns:rdf="http://www.w3.org/1999/02/22-rdf-syntax-ns#"
   xmlns:svg="http://www.w3.org/2000/svg"
   xmlns="http://www.w3.org/2000/svg"
   xmlns:sodipodi="http://sodipodi.sourceforge.net/DTD/sodipodi-0.dtd"
   xmlns:inkscape="http://www.inkscape.org/namespaces/inkscape"
   width="162.52437"
   height="66.739143"
   viewBox="0 0 43.001239 17.658065"
   version="1.1"
   id="svg17988"
   inkscape:version="0.92.0 r15299"
   sodipodi:docname="flex.svg">
  <defs
     id="defs17982" />
  <sodipodi:namedview
     id="base"
     pagecolor="#ffffff"
     bordercolor="#666666"
     borderopacity="1.0"
     inkscape:pageopacity="0.0"
     inkscape:pageshadow="2"
     inkscape:zoom="5.5533416"
     inkscape:cx="80.762185"
     inkscape:cy="32.869569"
     inkscape:document-units="mm"
     inkscape:current-layer="layer1"
     showgrid="false"
     fit-margin-top="0"
     fit-margin-left="0"
     fit-margin-right="0"
     fit-margin-bottom="0"
     units="px"
     inkscape:window-width="1280"
     inkscape:window-height="744"
     inkscape:window-x="-4"
     inkscape:window-y="-4"
     inkscape:window-maximized="1" />
  <metadata
     id="metadata17985">
    <rdf:RDF>
      <cc:Work
         rdf:about="">
        <dc:format>image/svg+xml</dc:format>
        <dc:type
           rdf:resource="http://purl.org/dc/dcmitype/StillImage" />
        <dc:title></dc:title>
      </cc:Work>
    </rdf:RDF>
  </metadata>
  <g
     inkscape:label="Layer 1"
     inkscape:groupmode="layer"
     id="layer1"
     transform="translate(-35.328119,-204.12797)">
    <g
       id="g18036"
       transform="translate(0.13229155,-0.13228571)">
      <path
         d="m 62.679315,209.37536 v 0 c -0.557036,0.57009 -0.557036,1.49401 0,2.0641 l 1.955094,1.99884 c 0.126295,0.14393 0.65652,0.81386 0.461787,1.71979 -0.0099,0.0466 -0.0011,0.0974 0.03422,0.13371 0.05256,0.0536 0.137936,0.0536 0.190147,0 l 0.563386,-0.57609 0.720372,-0.73695 c 0.717198,-0.73272 0.717198,-1.92088 0,-2.65395 l -1.906411,-1.94945 c -0.557388,-0.56938 -1.461205,-0.56938 -2.018594,0"
         style="fill:#0099de;fill-opacity:1;fill-rule:nonzero;stroke:none;stroke-width:0.35277778"
         id="path15234"
         inkscape:connector-curvature="0" />
      <path
         d="m 74.389932,221.35524 v 0 c 0.557389,-0.56938 0.557389,-1.49366 0,-2.0634 L 72.434485,217.293 c -0.125942,-0.14428 -0.656167,-0.81385 -0.461786,-1.72014 0.01023,-0.0466 0.0011,-0.0974 -0.03422,-0.1337 -0.05256,-0.0533 -0.137936,-0.0533 -0.190147,0 l -0.563033,0.57608 -0.720725,0.73731 c -0.716845,0.73237 -0.716845,1.92052 0,2.65359 l 1.906764,1.9491 c 0.557036,0.57009 1.460852,0.57009 2.018594,0"
         style="fill:#0099de;fill-opacity:1;fill-rule:nonzero;stroke:none;stroke-width:0.35277778"
         id="path15238"
         inkscape:connector-curvature="0" />
      <path
         d="m 62.673627,219.29774 9.707386,-9.91905 c 0.281517,-0.28716 0.653697,-0.42898 1.024114,-0.42439 0.360186,0.005 0.717903,0.14605 0.9906,0.42545 0.276578,0.28222 0.414866,0.6551 0.415219,1.02764 7.06e-4,0.37429 -0.137936,0.74824 -0.415572,1.03187 l -9.707386,9.91905 c -0.277283,0.28329 -0.642408,0.4251 -1.007533,0.4244 -0.365125,0 -0.730603,-0.14182 -1.007534,-0.42475 -0.269522,-0.27693 -0.408516,-0.63923 -0.415219,-1.0033 -0.0064,-0.38241 0.132292,-0.76658 0.415925,-1.05692"
         style="fill:#0099de;fill-opacity:1;fill-rule:nonzero;stroke:none;stroke-width:0.35277778"
         id="path15242"
         inkscape:connector-curvature="0" />
      <path
         d="m 37.459602,211.76561 h -0.963789 c -0.644878,0 -1.167694,-0.53446 -1.167694,-1.19345 0,-0.65899 0.522816,-1.19309 1.167694,-1.19309 h 0.963789 v -0.89853 c 0,-1.39417 0.346428,-2.43346 0.994128,-3.09527 0.646994,-0.66181 1.548694,-0.99272 2.750608,-0.99272 0.503414,0 0.926747,0.0377 1.304219,0.10125 0.556684,0.0931 0.96132,0.59196 0.96132,1.16946 -7.06e-4,0.69427 -0.580672,1.24037 -1.257653,1.18004 -0.123472,-0.0106 -0.250472,-0.0169 -0.383469,-0.0169 -1.063625,0 -1.618545,0.5909 -1.618545,1.89089 v 0.68509 h 2.080331 c 0.638175,0 1.1557,0.52917 1.1557,1.18181 0,0.65264 -0.517525,1.18145 -1.1557,1.18145 h -2.034117 v 8.59049 c 0,0.78917 -0.62618,1.42946 -1.398058,1.42946 -0.772583,0 -1.398764,-0.64029 -1.398764,-1.42946 z"
         style="fill:#0099de;fill-opacity:1;fill-rule:nonzero;stroke:none;stroke-width:0.35277778"
         id="path15246"
         inkscape:connector-curvature="0" />
      <path
         d="m 46.398656,204.53431 v 0 c 0.772231,0 1.398411,0.64029 1.398411,1.42946 v 14.39227 c 0,0.78952 -0.62618,1.42981 -1.398411,1.42981 -0.772231,0 -1.398411,-0.64029 -1.398411,-1.42981 v -14.39227 c 0,-0.78917 0.62618,-1.42946 1.398411,-1.42946"
         style="fill:#0099de;fill-opacity:1;fill-rule:nonzero;stroke:none;stroke-width:0.35277778"
         id="path15250"
         inkscape:connector-curvature="0" />
      <path
         d="m 58.841772,214.38898 c 0.07232,0 0.129822,-0.0653 0.12065,-0.13899 -0.223308,-1.77624 -1.279172,-3.14608 -3.081867,-3.14608 -1.667933,0 -2.852208,1.28094 -3.146072,3.14184 -0.01129,0.0741 0.04657,0.14323 0.119945,0.14323 z m -8.901641,0.92146 v -0.17075 c 0,-3.90031 3.426883,-6.97583 7.178322,-6.26498 3.077986,0.5835 4.633383,3.40536 4.633383,6.60118 -3.53e-4,0.44415 -0.352425,0.80327 -0.786695,0.80327 l -8.084608,3.6e-4 c -0.07479,0 -0.132997,0.0713 -0.119591,0.1464 0.345016,1.94028 1.730375,3.02048 3.489325,3.02048 1.035402,0 1.844322,-0.30021 2.598561,-0.86748 0.439208,-0.33126 1.03893,-0.32032 1.446741,0.0494 0.51682,0.46884 0.517172,1.30739 -0.01729,1.75401 -1.046692,0.87418 -2.374194,1.4037 -4.073878,1.4037 -3.536597,0 -6.264274,-2.6236 -6.264274,-6.47558"
         style="fill:#0099de;fill-opacity:1;fill-rule:nonzero;stroke:none;stroke-width:0.35277778"
         id="path15254"
         inkscape:connector-curvature="0" />
      <path
         d="m 77.393403,220.32689 c 0,-0.12382 -0.08925,-0.18591 -0.267053,-0.18591 h -0.317147 v 0.39581 h 0.3048 c 0.0889,0 0.157692,-0.0173 0.206022,-0.0522 0.04868,-0.0349 0.07338,-0.0871 0.07338,-0.15769 m -0.01799,0.63429 c 0,-0.0818 -0.0085,-0.14322 -0.0254,-0.18485 -0.01729,-0.0413 -0.04586,-0.0688 -0.08643,-0.085 -0.03986,-0.0159 -0.09878,-0.0233 -0.175331,-0.0233 h -0.279047 v 0.48436 h -0.141111 v -1.14512 h 0.489303 c 0.114652,0 0.206022,0.0265 0.274461,0.0801 0.06809,0.0529 0.102305,0.13018 0.102305,0.23178 0,0.0737 -0.01693,0.1337 -0.05256,0.18097 -0.03528,0.0473 -0.08678,0.0794 -0.155222,0.0974 v 0.005 c 0.06844,0.0208 0.11677,0.0543 0.145345,0.0998 0.02787,0.0455 0.04198,0.12171 0.04198,0.2279 0,0.1083 0.01235,0.18238 0.03634,0.2226 h -0.141111 c -0.01058,-0.0148 -0.0187,-0.0413 -0.02469,-0.0773 -0.006,-0.036 -0.0088,-0.0737 -0.0088,-0.11395 m 0.54857,-0.39052 c 0,-0.15558 -0.03704,-0.29951 -0.111831,-0.43215 -0.07373,-0.13265 -0.17533,-0.23919 -0.303389,-0.31715 -0.128411,-0.0787 -0.27058,-0.11783 -0.42545,-0.11783 -0.150636,0 -0.28963,0.0385 -0.417689,0.11642 -0.128411,0.0776 -0.230011,0.18274 -0.305152,0.31609 -0.07514,0.13229 -0.112889,0.27763 -0.112889,0.43462 0,0.15557 0.03704,0.29986 0.111125,0.43286 0.07514,0.13299 0.176036,0.23812 0.304094,0.31714 0.127706,0.078 0.268817,0.11748 0.422981,0.11748 0.153458,0 0.294569,-0.0395 0.42298,-0.11748 0.128059,-0.079 0.229659,-0.18415 0.303389,-0.31714 0.07479,-0.133 0.111831,-0.27729 0.111831,-0.43286 m -1.817511,0 c 0,-0.18345 0.04515,-0.35207 0.134761,-0.50518 0.08961,-0.15416 0.209197,-0.27481 0.359833,-0.36301 0.150636,-0.0882 0.313267,-0.13264 0.487186,-0.13264 0.176036,0 0.33902,0.0448 0.488245,0.13511 0.14993,0.0893 0.268464,0.21096 0.356305,0.36407 0.08819,0.15311 0.131939,0.31997 0.131939,0.50165 0,0.17462 -0.04269,0.33902 -0.128058,0.49318 -0.08502,0.15346 -0.202142,0.27658 -0.350661,0.36971 -0.149225,0.0921 -0.315031,0.13829 -0.49777,0.13829 -0.179564,0 -0.343958,-0.0452 -0.493536,-0.13511 -0.149578,-0.0896 -0.268111,-0.21132 -0.355953,-0.36513 -0.08819,-0.15381 -0.132291,-0.32067 -0.132291,-0.50094"
         style="fill:#0099de;fill-opacity:1;fill-rule:nonzero;stroke:none;stroke-width:0.35277778"
         id="path15258"
         inkscape:connector-curvature="0" />
    </g>
  </g>
</svg>
