<svg width="204" height="27" viewBox="0 0 204 27" fill="none" xmlns="http://www.w3.org/2000/svg">
<g clip-path="url(#clip0_15792_21251)">
<path d="M60.7962 15.636H55.0622V9.08936H50.3828V26.6524H55.0622V20.0039H60.7962V26.6524H65.4755V9.08936H60.7962V15.636Z" fill="white"/>
<path d="M80.4965 13.1722C83.0767 13.1722 85.0324 15.1881 85.0324 17.8658V17.9167C85.0324 20.5639 83.1075 22.5697 80.5476 22.5697C77.9878 22.5697 76.0219 20.5538 76.0219 17.8251C76.0219 15.0965 77.9469 13.1824 80.5067 13.1824M80.5579 8.8145C75.2949 8.8145 71.1787 12.7955 71.1787 17.876V17.9269C71.1787 23.0686 75.1925 26.9477 80.5067 26.9477C85.8209 26.9477 89.8859 22.9668 89.8859 17.8353C89.8859 12.7038 85.8618 8.80432 80.5374 8.80432" fill="white"/>
<path d="M95.6709 26.6524H100.36V20.2483H108.296V15.9211H100.36V13.4063H109.371V9.08936H95.6709V26.6524Z" fill="white"/>
<path d="M125.744 15.636L121.648 9.08936H116.907V26.6524H121.515V17.1022L125.365 22.9158H126.01L129.911 17.0309V26.6524H134.57V9.08936H129.829L125.744 15.636Z" fill="white"/>
<path d="M151.25 18.711H148.342L149.796 15.1882L151.25 18.711ZM147.82 8.96729L140.253 26.6525H145.096L146.622 22.9363H152.98L154.506 26.6525H159.441L151.875 8.96729H147.82Z" fill="white"/>
<path d="M176.295 18.2832L169.261 9.08936H165.124V26.6524H169.762V17.1225L177.053 26.6524H180.933V9.08936H176.295V18.2832Z" fill="white"/>
<path d="M198.535 9.08936V18.2832L191.49 9.08936H187.354V26.6524H191.992V17.1225L199.282 26.6524H203.163V9.08936H198.535Z" fill="white"/>
<path d="M36.16 22.7937C36.4774 21.2054 38.0236 19.5764 39.6311 19.5764C40.1943 19.5764 40.8803 19.892 40.9111 20.6047C40.9827 22.1625 37.3068 22.7937 36.16 22.7937ZM42.2626 20.5029C42.2626 19.7596 41.6585 18.8331 39.7438 18.8331C37.2147 18.8331 34.7061 21.1851 34.7061 23.7406C34.7061 25.6445 36.0269 26.907 37.9212 26.907C38.9861 26.907 40.0919 26.51 40.952 25.9093C41.2182 25.726 41.9043 25.2576 41.9043 24.8606C41.9043 24.7078 41.7712 24.5958 41.6073 24.5958C41.1875 24.5958 40.3069 25.8889 38.4946 25.8889C36.9587 25.8889 35.9757 25.1762 36.1088 23.5472C40.6244 23.3639 42.2626 21.7756 42.2626 20.4927" fill="white"/>
<path d="M45.0371 25.0132C44.433 25.0132 44.0029 25.4917 44.0029 26.0721C44.0029 26.4997 44.2896 26.856 44.7402 26.856C45.3238 26.856 45.7436 26.3571 45.7436 25.7972C45.7436 25.4001 45.4569 25.0132 45.0473 25.0132" fill="white"/>
</g>
<g clip-path="url(#clip1_15792_21251)">
<path d="M23.7131 6.72986C22.6845 6.13678 21.2087 6.07358 20.8761 6.059C20.2092 6.03145 19.4115 6.00552 18.5396 6.39443C17.9357 6.66342 17.4787 7.04746 16.87 7.73452C16.1902 8.50261 15.2311 9.75034 14.3656 11.5879H13.0303C13.8635 9.77789 14.1993 9.41005 14.1993 9.41005C14.4964 9.08434 14.997 8.67275 15.8689 8.40538C15.7769 8.21255 14.8743 6.38308 13.1982 6.22752C12.0485 6.12057 11.1685 6.86111 10.5275 7.40072C9.58614 8.19311 9.46504 8.75054 7.8568 11.421C6.75236 13.2553 7.13827 12.4451 6.0209 14.2681C5.065 15.8286 4.55153 16.7976 3.51652 17.1152C3.31952 17.1752 2.74631 17.3518 2.18117 17.1152C1.62087 16.8802 1.44164 16.399 1.34637 16.4443C1.1736 16.5302 1.33184 18.3597 2.68172 19.46C4.09942 20.6153 5.8562 20.1746 6.0209 20.1308C6.65063 19.9623 7.08498 19.6544 7.35625 19.46C8.01343 18.9884 8.40742 18.4537 9.02584 17.449C9.5054 16.6696 10.0867 15.6584 10.6954 14.4334H12.365C10.957 17.4782 10.0043 18.1733 9.36008 18.1183C9.21637 18.1069 9.06459 18.0551 9.02584 18.1183C8.85468 18.4002 10.9764 20.8487 13.0319 20.463C13.6794 20.3415 14.1121 19.9785 14.5336 19.6253C15.3764 18.9187 15.5637 18.2625 16.5374 16.6096C16.7957 16.1721 17.1865 15.5304 17.7064 14.7672C17.9341 15.1075 18.848 16.3909 20.5434 16.7782C22.2889 17.1752 23.9504 16.4152 24.8837 15.4381C27.2056 13.0074 26.1093 8.10722 23.7147 6.72662L23.7131 6.72986ZM17.7032 14.435C17.9066 14.0801 19.3243 11.6187 20.7081 9.57696C21.0068 9.1362 21.5235 8.39404 22.3777 8.23686C22.649 8.18663 22.8847 8.20931 23.0462 8.23686C22.297 8.86234 21.8303 9.47163 21.5445 9.91238C20.3723 11.7127 20.4675 13.3283 19.0402 14.2681C18.7721 14.4447 18.5267 14.5468 18.3717 14.6035C18.1488 14.5484 17.926 14.4917 17.7032 14.4366V14.435Z" fill="white"/>
<path fill-rule="evenodd" clip-rule="evenodd" d="M13.4533 1.19861C6.68616 1.19861 1.19727 6.70446 1.19727 13.5C1.19727 20.2956 6.68616 25.8014 13.4533 25.8014C20.2205 25.8014 25.7094 20.2956 25.7094 13.5C25.7094 6.70446 20.2205 1.19861 13.4533 1.19861ZM0.197266 13.5C0.197266 6.15553 6.13053 0.198608 13.4533 0.198608C20.7761 0.198608 26.7094 6.15553 26.7094 13.5C26.7094 20.8445 20.7761 26.8014 13.4533 26.8014C6.13053 26.8014 0.197266 20.8445 0.197266 13.5Z" fill="white"/>
</g>
<defs>
<clipPath id="clip0_15792_21251">
<rect width="168.457" height="18.1957" fill="white" transform="translate(34.7061 8.80432)"/>
</clipPath>
<clipPath id="clip1_15792_21251">
<rect width="26.7065" height="27" fill="white"/>
</clipPath>
</defs>
</svg>
