<svg width="161" height="29" viewBox="0 0 161 29" fill="none" xmlns="http://www.w3.org/2000/svg">
<path fill-rule="evenodd" clip-rule="evenodd" d="M145.89 21.7672H152.006V0H145.89V21.7672Z" fill="white"/>
<path fill-rule="evenodd" clip-rule="evenodd" d="M161 0V21.7672H154.885V0H161Z" fill="white"/>
<path fill-rule="evenodd" clip-rule="evenodd" d="M13.0414 8.45441H8.09467V0H0V21.7672H8.09467V10.974H13.0414V21.7672H21.1368V0H13.0414V8.45441Z" fill="white"/>
<path fill-rule="evenodd" clip-rule="evenodd" d="M51.0436 8.09468L50.5485 6.65596H43.8926V21.7673H50.5485V12.6824C50.5485 10.7033 51.8083 9.62432 52.8874 9.62432C53.7866 9.62432 54.9556 9.80407 54.9556 11.7832V21.7673H61.6116V11.9632C61.6116 6.47621 55.4515 4.31802 51.0436 8.09468Z" fill="white"/>
<path fill-rule="evenodd" clip-rule="evenodd" d="M119.402 15.4256L116.299 6.65594H111.756L108.653 15.7853L105.415 6.65594H99.074H99.0286H96.5109L93.3173 14.3457L88.8203 6.65594H81.2197L90.1692 21.947L89.0002 24.8244C88.595 25.7246 87.626 25.7691 87.4363 24.9144C87.4363 23.369 86.1831 22.1168 84.6377 22.1168C83.0921 22.1168 81.8391 23.369 81.8391 24.9144C81.85 26.5338 83.4687 28.6475 86.6614 28.5123C89.8549 28.3777 91.2037 25.7246 91.6534 24.6001L99.0497 6.71486L104.381 21.7672H109.238L112.206 13.0867L115.264 21.7672H119.851L125.023 6.65594H122.37L119.402 15.4256Z" fill="white"/>
<path fill-rule="evenodd" clip-rule="evenodd" d="M32.6035 5.88776C27.5107 5.88776 23.3828 9.67462 23.3828 14.3456C23.3828 19.0183 27.5107 22.8052 32.6035 22.8052C37.6973 22.8052 41.8261 19.0183 41.8261 14.3456C41.8261 9.67462 37.6973 5.88776 32.6035 5.88776ZM34.8979 18.303C34.8979 19.5703 33.8709 20.5973 32.6035 20.5973C31.338 20.5973 30.3109 19.5703 30.3109 18.303V10.389C30.3109 9.12261 31.338 8.09651 32.6035 8.09651C33.8709 8.09651 34.8979 9.12261 34.8979 10.389V18.303Z" fill="white"/>
<path fill-rule="evenodd" clip-rule="evenodd" d="M81.9583 15.5601C82.007 15.2061 82.032 14.7121 82.032 14.3456C82.032 9.67462 77.9033 5.88776 72.8105 5.88776C67.7168 5.88776 63.5879 9.67462 63.5879 14.3456C63.5879 19.0183 67.7168 22.8052 72.8105 22.8052C76.3099 22.8052 79.3538 21.0167 80.9169 18.3821L78.8797 17.6283C77.6486 19.5098 75.3913 20.7697 72.8105 20.7697C71.5432 20.7697 70.5161 19.5703 70.5161 18.303V15.5608L81.9583 15.5601ZM70.5161 10.389C70.5161 9.12261 71.5432 8.09651 72.8105 8.09651C74.0769 8.09651 75.1039 9.12261 75.1039 10.389V13.4019H70.5161V10.389Z" fill="white"/>
<path fill-rule="evenodd" clip-rule="evenodd" d="M143.57 15.5601C143.619 15.2061 143.644 14.7121 143.644 14.3456C143.644 9.67462 139.515 5.88776 134.422 5.88776C129.329 5.88776 125.2 9.67462 125.2 14.3456C125.2 19.0183 129.329 22.8052 134.422 22.8052C137.922 22.8052 140.966 21.0167 142.529 18.3821L140.492 17.6283C139.261 19.5098 137.004 20.7697 134.422 20.7697C133.155 20.7697 132.128 19.5703 132.128 18.303V15.5608L143.57 15.5601ZM132.128 10.389C132.128 9.12261 133.155 8.09651 134.422 8.09651C135.689 8.09651 136.716 9.12261 136.716 10.389V13.4019H132.128V10.389Z" fill="white"/>
</svg>
