<svg width="101" height="24" viewBox="0 0 101 24" fill="none" xmlns="http://www.w3.org/2000/svg">
<g clip-path="url(#clip0_15730_21047)">
<path fill-rule="evenodd" clip-rule="evenodd" d="M89.28 5.7285C90.9284 5.82717 92.1182 7.11114 92.3017 8.79041C92.3932 9.67906 92.3932 11.0617 92.3932 11.9503C92.3932 13.037 92.3932 13.9256 92.3017 14.8143C92.0267 16.8889 90.6534 18.0742 89.28 18.0742H88.1811H86.8987C85.6168 18.0742 84.1514 16.8889 83.877 14.8143C83.7855 13.9256 83.7855 13.0363 83.7855 12.049C83.7855 11.0617 83.7855 9.67906 83.877 8.78977C84.0599 7.11049 85.3418 5.82653 86.9901 5.72786C87.356 5.62919 87.6311 5.62919 88.089 5.62919L89.28 5.7285ZM88.3635 0C90.1033 0 91.7517 0.0986672 93.1256 0.296002C96.9712 0.789983 100.085 4.04923 100.725 8.0991C100.817 8.79041 101 10.3704 101 11.951C101 13.6303 100.817 15.2102 100.725 15.8029C100.085 19.9514 96.9712 23.112 93.1256 23.7046C91.7517 23.8033 90.1033 24.0006 88.3635 24.0006H87.814C85.9827 24.0006 84.4264 23.8033 82.961 23.7046C79.1154 23.112 76.0937 19.9514 75.4522 15.8029C75.3607 15.2102 75.1777 13.6303 75.1777 11.951C75.1777 10.371 75.3607 8.79106 75.4522 8.0991C76.0931 4.04923 79.1154 0.790628 82.961 0.296002C84.4264 0.0986672 85.9833 0 87.7225 0H88.3635Z" fill="#F5F8FF"/>
<path fill-rule="evenodd" clip-rule="evenodd" d="M55.3076 11.9503C55.3076 10.6664 55.3991 9.38306 55.6735 8.09845C56.3145 4.04858 59.3362 0.789983 63.1824 0.295357C64.5563 0.0986672 66.2047 0 67.9439 0C69.8673 0 71.6071 0.0986672 73.072 0.296002C73.6214 0.394669 73.9873 0.88865 73.9873 1.4813V5.03654C73.9873 5.72786 73.5293 6.22184 72.9799 6.22184C72.9799 6.22184 71.24 6.12253 70.3247 6.12253C69.2258 6.12253 68.3104 6.12253 67.3024 6.22184C65.6546 6.32051 64.4642 7.60447 64.2807 9.28375C64.1892 10.1724 64.0971 11.0617 64.0971 11.9503V12.049C64.0971 12.9383 64.1886 13.827 64.2807 14.7156C64.4642 16.3949 65.5631 17.6788 67.3024 17.8762C68.2183 17.9748 69.3172 18.0742 70.3247 18.0742C71.24 18.0742 72.9799 17.9755 72.9799 17.9755C73.5293 17.9755 73.9873 18.4695 73.9873 19.1608V22.7167C73.9873 23.3093 73.6214 23.8033 73.072 23.902C71.6071 23.902 69.8673 24 67.9439 24C66.2047 24 64.5563 23.8027 63.1824 23.704C59.3362 23.1114 56.3151 19.9508 55.6735 15.8022C55.3991 14.6176 55.3076 13.3336 55.3076 12.0497C55.3076 7.99978 55.3076 16.0009 55.3076 11.9503Z" fill="#F5F8FF"/>
<path fill-rule="evenodd" clip-rule="evenodd" d="M52.8359 17.7775C53.4763 17.7775 53.9342 18.3701 53.9342 18.9628V22.5187C53.9342 23.21 53.4763 23.7039 52.8359 23.7039H39.7411C37.3603 23.7039 35.4375 21.63 35.4375 19.0621V5.03714C35.4375 2.46986 37.3603 0.395264 39.7411 0.395264H52.8353C53.4757 0.395264 53.9337 0.889245 53.9337 1.48189V4.93847C53.9337 5.63043 53.4757 6.12377 52.8353 6.12377H44.7776C44.1367 6.12377 43.6787 6.51908 43.6787 7.2104V9.38366L50.5466 9.28499C51.0955 9.28499 51.6449 9.87764 51.6449 10.4703V13.4335C51.6449 14.1248 51.0955 14.6188 50.5466 14.6188H43.6787V16.5941C43.6787 17.2854 44.1367 17.7794 44.7776 17.7794H52.8359V17.7775Z" fill="#F5F8FF"/>
<path fill-rule="evenodd" clip-rule="evenodd" d="M19.5046 23.7039C17.5818 23.7039 15.9334 22.3207 15.384 20.4441L10.8975 1.77789C10.8975 1.67923 10.8975 1.58056 10.8975 1.48189C10.8975 0.889245 11.3554 0.395264 11.9964 0.395264H18.6807C19.2302 0.395264 19.6882 0.790578 19.779 1.28391L23.2587 16.8895C23.2587 17.0874 23.4423 17.2841 23.7167 17.2841C23.8997 17.2841 24.0826 17.0868 24.0826 16.8895L27.6538 1.28391C27.7452 0.789933 28.2032 0.395264 28.6612 0.395264H32.4153C33.0562 0.395264 33.5142 0.889245 33.5142 1.48189C33.5142 1.58056 33.5142 1.67923 33.5142 1.77789L29.2107 20.05C28.7527 22.124 27.1958 23.7039 24.9986 23.7039H19.5046Z" fill="#F5F8FF"/>
<path fill-rule="evenodd" clip-rule="evenodd" d="M1.09891 0.394653H7.60031C8.24124 0.394653 8.69922 0.888634 8.69922 1.48128V22.5187C8.69922 23.21 8.24124 23.704 7.60031 23.704H1.09891C0.549456 23.704 0 23.21 0 22.5187V1.48128C0 0.888634 0.549456 0.394653 1.09891 0.394653Z" fill="#F5F8FF"/>
</g>
<defs>
<clipPath id="clip0_15730_21047">
<rect width="101" height="24" fill="white"/>
</clipPath>
</defs>
</svg>
