<svg width="123" height="20" viewBox="0 0 123 20" fill="none" xmlns="http://www.w3.org/2000/svg">
<path d="M4.95413 19.9959C3.01325 19.9959 1.70031 19.6656 1.01937 19.0051C0.342508 18.3445 0 17.1009 0 15.2701V11.1233L4.69317 10.2345V16.2365H13.8267V0H18.4913V15.2701C18.4913 17.0968 18.1448 18.3405 17.4597 19.0051C16.7706 19.6656 15.4618 19.9959 13.525 19.9959H4.95413Z" fill="white"/>
<path d="M57.0439 19.9959V0H74.1653C75.7473 0 76.889 0.309888 77.5985 0.929664C78.308 1.54944 78.6627 2.53619 78.6627 3.88583V6.316C78.6627 7.27421 78.365 8.0367 77.7779 8.60754C77.1867 9.17839 76.3385 9.53721 75.2295 9.67584C76.3793 9.82671 77.2641 10.2385 77.8921 10.9072C78.5159 11.5759 78.8299 12.4485 78.8299 13.5209V16.0815C78.8299 17.4067 78.3406 18.3894 77.3661 19.0336C76.3916 19.6779 74.9114 20 72.9216 20H57.0439V19.9959ZM72.2162 3.26198H61.623V8.00816H72.2162C73.0236 8.00816 73.5781 7.90214 73.888 7.68604C74.1979 7.47401 74.3487 7.10296 74.3487 6.57696V4.69725C74.3487 4.18349 74.1938 3.81651 73.888 3.59633C73.5781 3.37207 73.0236 3.26198 72.2162 3.26198ZM72.2162 11.3028H61.623V16.4037H72.2162C73.1051 16.4037 73.7086 16.2732 74.0185 16.0041C74.3284 15.739 74.4874 15.2701 74.4874 14.6014V13.0846C74.4874 12.4159 74.3324 11.9511 74.0185 11.6901C73.7086 11.4292 73.1092 11.3028 72.2162 11.3028Z" fill="white"/>
<path d="M92.4566 0H87.792V19.9959H92.4566V0Z" fill="white"/>
<path d="M102.654 19.9959V0H107.319V16.2365H122.324V19.9959H102.654Z" fill="white"/>
<path d="M41.9404 13.5862L45.39 19.996H50.6091L46.2911 12.4608L41.9404 13.5862Z" fill="white"/>
<path d="M36.7545 3.87768L39.5557 9.17023L44.4079 9.17431L39.1521 0H34.675L23.3682 19.9959H28.0002L36.7545 3.87768Z" fill="white"/>
<path d="M33.8593 9.16626L29.7451 16.7504L58.9439 9.17849L33.8593 9.16626Z" fill="#54C0E8"/>
</svg>
