<svg width="80" height="35" viewBox="0 0 80 35" fill="none" xmlns="http://www.w3.org/2000/svg">
<path d="M17.47 0.00367928C17.1442 0.00779087 16.8186 0.0186108 16.4933 0.0361336C16.4933 0.0361336 11.16 0.26981 9.49333 2.62605C9.49333 2.62605 9.21 2.94411 9.37 3.28489C9.37 3.28489 9.40333 3.38225 9.33667 3.44716C9.33667 3.44716 8.43667 4.22609 7.98333 4.92387C7.82333 5.17702 7.64333 5.60218 7.98333 5.89752C7.98333 5.89752 8.13333 6.01111 8.19333 6.10848C8.32333 6.31619 8.44333 6.62452 8.60333 6.80626C8.83667 7.07889 9.30667 7.54624 9.97 7.43265C10.2133 7.39046 10.27 7.30283 10.27 7.30283C10.6033 7.62413 11.1367 7.6144 11.1367 7.6144C11.07 7.40669 10.8367 7.00424 10.8033 6.76083C10.7847 6.58407 10.8017 6.40548 10.8533 6.23506C10.9456 5.91068 11.1107 5.61028 11.3367 5.35552C11.5167 5.18027 11.9767 4.98229 12.3467 5.23219C12.64 5.43666 12.9933 6.10199 12.7 7.04968C12.7 7.12108 12.3667 7.79614 12.0167 7.89351C12.0167 7.89351 11.9833 7.90649 11.9167 7.90649C11.6833 7.90649 11.25 7.66957 11.25 7.66957C11.25 7.66957 11.25 7.72799 11.3 7.97465C11.34 8.1142 11.39 8.26675 11.4333 8.38683C11.4333 8.38683 11.35 8.53612 11.2933 8.6205C11.21 8.76655 11.14 9.04567 11.3267 9.17224C11.3267 9.17224 12.0933 9.68178 12.8433 9.72722C13.3567 9.75968 13.55 9.4189 13.55 9.4189C13.93 8.9126 14.2167 8.4777 14.6167 8.12394C15.7067 7.15029 17.2367 6.89065 17.2367 6.89065C17.3367 6.87767 19.0133 6.4233 21.8567 8.63998C21.0433 8.70489 20.0767 8.89313 19.3367 9.0197C17.23 9.38644 15.88 11.324 15.4867 12.1094C14.4633 14.1638 16.5533 14.8714 16.5533 14.8714C16.5867 14.8519 18.5533 14.7026 19.5067 12.6547C19.5067 12.6547 19.8533 11.7492 20.7833 12.0445C21.39 12.236 26.75 14.0567 27.9567 14.3683C27.9567 14.3683 31.5467 15.277 32.8967 13.6705C35.06 14.3618 37.0867 14.6961 42.3967 14.0275C43.32 13.9107 44.0467 13.9399 44.0467 13.9399C45.2867 14.0275 46.42 14.8421 46.7633 15.3744C48.1633 17.5521 49.93 21.8752 56.0833 21.3494L58.8667 21.1027C60.5667 21.0054 61.9467 20.9405 63.35 21.661C63.96 21.9725 64.3 22.0861 65.3367 23.05C66.7533 24.3612 68.0567 25.7828 69.79 25.0071C70.4067 24.7312 71.1 23.6602 71.1 23.6602C71.0659 23.3884 70.9731 23.1268 70.8278 22.8924C70.6824 22.658 70.4878 22.4563 70.2567 22.3003C71.8333 22.6671 75.39 22.9007 76.7633 20.5607C77.12 20.0155 77.1567 19.5287 77.0233 19.2366C76.6467 18.4154 75.6033 18.6848 75.6033 18.6848C75.11 18.7822 74.5467 19.3339 73.71 19.5741C71.9167 20.0934 70.4833 19.4897 70.4833 19.4897C67.72 18.3246 58.84 13.3752 54.3233 11.2137C54.3233 11.2137 49.14 8.68217 41.5267 5.74823C41.5267 5.74823 27.7 -0.168333 17.4867 0.00367928H17.47ZM17.47 0.445067C27.47 0.279546 41.18 6.08901 41.3167 6.15067V6.15392C42.5433 6.62776 43.7033 7.09187 44.7933 7.53326L43.21 6.9231C41.1952 6.18106 39.1636 5.4831 37.1167 4.82975C31.97 3.09989 29.7167 2.79482 29.56 2.77534C29.2766 2.72777 28.9921 2.68665 28.7067 2.65201L27.78 2.54816L28.2933 3.35629C24.66 0.854003 20.31 0.727427 20.0967 0.720936C19.22 0.720936 18.4567 0.964348 17.8633 1.24022L18.16 0.704708L17.44 0.672254C16.4387 0.622262 15.4351 0.641785 14.4367 0.730673C15.4348 0.547632 16.4477 0.452047 17.4633 0.445067H17.47ZM16.4067 1.08768C16.7233 1.08768 17.0633 1.09742 17.43 1.11364L17.31 1.33109C17.0533 1.80494 16.0267 2.78508 14.3367 2.42158C14.3367 2.42158 14.3367 3.15507 16.1867 3.41795C16.1867 3.41795 17.8433 3.70356 20.6567 5.90726C20.6567 5.90726 19.3133 3.30436 17.03 2.6293C17.03 2.6293 16.7433 2.57088 16.8833 2.39562C16.8833 2.39562 18.23 1.16233 20.1067 1.16233C20.1067 1.16233 25.9533 1.28565 29.67 5.06992C29.67 5.06992 29.5033 4.41108 28.92 3.47962L28.6767 3.09016C28.6767 3.09016 28.9 3.11612 29.51 3.21349C29.51 3.21349 31.7433 3.48286 36.9867 5.24518C36.9867 5.24518 40.9167 6.50443 43.0667 7.33204C46.3 8.58805 54.3933 11.6388 59.5567 14.3813C60.4767 14.8681 69.8133 19.6066 69.8133 19.6066C72.3967 20.7392 74.1867 20.0512 74.1867 20.0512C74.77 19.837 75.8267 19.0451 76.2867 19.493C76.5233 19.7234 76.5567 20.035 76.4433 20.3368C76.31 20.7912 75.6433 21.4013 74.8333 21.7486C73.9833 22.1186 72.21 22.2159 71.1867 22.0537C71.1867 22.0537 69.2 21.8589 67.4633 20.0901C66.9133 19.5319 66.24 18.899 65.6167 18.2759C65.0781 17.6923 64.3471 17.3101 63.55 17.1951C62.3833 17.0426 59.5333 16.968 58.4633 16.6207C57.7467 16.387 56.8833 15.9164 55.7333 14.258C55.18 13.466 54.79 13.2486 54.0367 12.7812C54.0367 12.7812 54.6133 13.2291 54.94 13.7938C55.4133 14.6117 55.65 15.2056 55.9067 15.6438C56.1633 16.0819 56.4533 16.4681 56.89 16.8122C57.4367 17.2373 57.7767 17.3185 58.3667 17.4126C58.9333 17.5035 60.84 17.4872 62.4733 17.4645C64.0833 17.4386 64.8033 17.9448 65.33 18.3797C65.82 18.7822 66.6633 19.9279 67.1767 20.4309C67.79 21.0281 68.2433 21.6382 69.4567 22.2354C69.88 22.4431 70.57 22.9559 70.5333 23.4492C69.9867 23.9815 69.31 24.1211 67.6833 23.6959C67.8 23.8062 68.65 24.6793 70.1067 24.2671C69.7495 24.5919 69.2753 24.7668 68.7867 24.7539C67.26 24.6695 65.7667 22.8391 64.9267 22.164C64.2933 21.6512 64.2167 21.5246 63.1367 20.7944C61.4933 19.6877 57.81 19.9993 57.81 19.9993L55.1033 20.1356C49.8367 20.525 47.6233 15.9813 47.04 15.0336C46.8708 14.7521 46.6838 14.4811 46.48 14.2223C46.2133 13.8717 44.7733 12.0543 43.3167 11.4571C43.3167 11.4571 44.75 12.6579 44.6633 13.4498C44.6633 13.4498 44.07 13.1804 42.4567 13.4044C35.52 14.3683 33.1567 12.6774 33.1567 12.6774C33.48 11.324 32.51 9.93493 32.51 9.93493C33.0433 10.0972 36.4567 11.2202 39.6933 10.584C39.6933 10.584 34.4233 10.61 30.7267 7.73772C30.7267 7.73772 33.0267 10.5451 32.48 12.382C32.48 12.382 32.1033 14.3391 28.0933 13.5504C27.6633 13.4693 27.16 13.3297 21.16 11.707C19.7467 11.2948 19.26 11.9504 19.0033 12.3463C19.0033 12.924 18.2933 13.5991 17.9433 13.8068C16.0833 13.4823 16.8233 11.8043 16.8233 11.8043C15.6567 13.4336 16.88 14.1541 17.2667 14.206C17.0333 14.3131 16.8167 14.3943 16.6333 14.4592C16.6333 14.4592 15.11 13.5796 15.96 12.1386C17.1433 10.1264 18.35 9.48057 20.56 9.28259C21.5267 9.19496 22.33 9.1268 22.9433 9.21119C24.5433 9.42539 25.55 10.3082 27.95 10.5321C22.8567 9.07163 22.8433 6.19936 22.8267 6.14418V6.14094C22.5433 7.08862 22.7 7.88702 22.95 8.56209C22.8833 8.53612 21.7667 7.82211 21.34 7.5722C19.5133 6.48496 18.0667 6.29347 18.0667 6.29347C17.46 6.21883 17.18 5.50157 17.18 5.50157C17.1467 5.46587 17.1367 5.43017 17.1133 5.39771C16.2733 3.99565 15.44 3.96969 15.44 3.96969C15.6883 4.33097 15.8437 4.74503 15.8933 5.17702C15.9267 5.35552 15.94 5.68657 15.94 5.78393C15.94 7.28336 14.14 7.75395 14.14 7.75395C12.9 9.28908 12.9633 9.32153 12.6867 9.36048C12.41 9.39943 11.8033 9.10084 11.8033 9.10084C11.7567 9.07487 11.7433 9.00672 11.75 8.96453C11.75 8.87041 11.8433 8.81199 11.8433 8.81199C12.0767 8.63349 12.2667 8.45498 12.2667 8.45498C13.58 7.14704 13.7367 6.50768 13.5767 5.6606C13.2433 3.95995 11.9967 4.15793 11.9967 4.15793C11.39 4.21635 11.1433 4.70318 11.1433 4.70318C10.9059 5.11691 10.689 5.54148 10.4933 5.97542C10.2267 6.54663 9.94667 6.6732 9.80333 6.69916C9.73151 6.70819 9.65904 6.71145 9.58667 6.7089C9.16333 6.69267 8.84333 6.31619 8.84333 6.31619C8.81 6.29672 8.81 6.274 8.79 6.25777C8.40333 5.85533 8.68333 5.32631 8.68333 5.32631C9.20333 4.14819 10.2167 3.97618 10.35 3.95995L10.9567 3.87557C12.24 3.66461 12.8467 2.36316 12.8467 2.36316C12.4172 2.35129 11.9874 2.36647 11.56 2.4086C10.7067 2.55465 10.4167 3.53155 10.4167 3.5283C9.69667 3.69058 9.71667 3.08691 9.84333 2.90192C9.95667 2.73315 10.3767 2.0094 13.1467 1.38626C13.1467 1.38626 14.1933 1.07794 16.4067 1.08768V1.08768ZM15.8767 1.47714C15.21 1.47714 14.86 1.84064 14.86 1.87634C14.86 1.89581 14.95 1.90555 15.0933 1.90879L15.3267 1.91853C15.6978 1.90299 16.0613 1.81118 16.3933 1.64915C16.5024 1.60563 16.6054 1.54893 16.7 1.48039L15.8833 1.47389L15.8767 1.47714ZM16.4233 2.65526V2.66824C16.5233 2.93113 16.7833 3.02525 16.9 3.0577V3.05446C17.4433 3.21673 17.93 3.50234 18.3567 3.83662C17.0567 3.1291 16.3133 2.98955 16.2633 2.97981C16.0872 2.95368 15.9126 2.91901 15.74 2.87595C15.9788 2.82764 16.2113 2.75362 16.4333 2.65526H16.4233ZM11.8767 2.81753C11.8767 2.81753 11.71 3.33682 11.0533 3.44716C11.0533 3.44716 10.7967 3.50558 10.6933 3.50883L10.7633 3.3141C10.7633 3.27515 10.9333 2.86622 11.3133 2.82727C11.3133 2.82727 11.5333 2.81429 11.8767 2.81429V2.81753ZM9.6 3.57374C9.65273 3.63468 9.71588 3.68629 9.78667 3.72628C9.33667 3.91127 8.17 5.12834 8.17 5.12834C8.76 4.27801 9.53 3.64189 9.53667 3.6354C9.53667 3.62567 9.57 3.61593 9.57 3.60619C9.57 3.59646 9.60333 3.58348 9.60333 3.57374H9.6ZM12.0567 4.59607C12.1833 4.57985 12.78 4.55713 13.0567 5.47236C12.9601 5.23462 12.7988 5.02703 12.59 4.87194C12.4679 4.78943 12.3302 4.73119 12.1849 4.70056C12.0396 4.66993 11.8896 4.66751 11.7433 4.69344C11.8378 4.63601 11.9455 4.60254 12.0567 4.59607V4.59607ZM7.78333 28.6063V31.4397C7.78333 32.2673 7.59667 32.8223 7.18333 33.2247C6.63333 33.7505 5.72667 33.9647 4.38333 33.9647H0V34.7955H4.76C7.01667 34.7955 8.61333 34.4969 9.44333 33.6693C9.92 33.1955 10.15 32.6016 10.15 31.6247V28.6063H7.78333ZM16.7433 28.6063L11.2333 34.7988H12.6067L13.7667 33.4811H20.78L21.9467 34.7988H24.6L19.08 28.6096L16.7433 28.6063ZM30.3633 28.6063C28.7533 28.6063 27.79 28.7881 26.93 29.2554C26.4835 29.4932 26.1129 29.8462 25.8588 30.2756C25.6048 30.705 25.4772 31.1942 25.49 31.6896C25.49 32.9391 26.0733 33.8511 27.3467 34.3509C28.11 34.6527 29.12 34.7955 30.4033 34.7955H37.2533V31.9557H34.8967V33.9679H31.12C29.9 33.9679 29.1867 33.7959 28.6633 33.4065C28.1633 33.0332 27.9 32.4685 27.9 31.7026C27.9 30.9593 28.15 30.4044 28.6167 30.0376C29.1433 29.6222 29.8333 29.434 31.1 29.434H37.0133V28.6063H30.3633ZM49.2167 28.6063V31.6052C49.2167 32.3841 49.1167 32.8807 48.81 33.2929C48.2967 33.9971 47.4867 34.2503 45.8233 34.2503H45.6233C44.0367 34.2503 43.1533 33.9971 42.64 33.2961C42.3367 32.8807 42.2333 32.4101 42.2333 31.6052V28.6096H39.8667V31.6928C39.8667 32.4912 39.9567 33.1208 40.3667 33.6499C41.04 34.5067 42.28 35 45.7 35H45.7367C49.1767 35 50.41 34.5067 51.0833 33.6499C51.4967 33.1208 51.5833 32.4912 51.5833 31.6928V28.6096L49.2167 28.6063ZM58.14 28.6063L52.6267 34.7955H54L55.1633 33.4779H62.1733L63.34 34.7955H65.9933L60.4733 28.6063H58.14ZM68.0933 28.6063V34.7988H70.46V32.6535H73.57L77.1167 34.7955H80L76.2767 32.6113C77.1633 32.5821 77.92 32.449 78.5 32.1472C78.7787 31.9963 79.0093 31.7734 79.1663 31.5032C79.3234 31.2329 79.4007 30.9257 79.39 30.6153C79.39 29.7877 79.01 29.2587 78.32 28.9601C77.7033 28.7005 76.9433 28.6096 75.4333 28.6096L68.0933 28.6063ZM70.46 29.3853H75.1233C76.01 29.3853 76.4033 29.4697 76.6733 29.6644C76.93 29.8526 77.0233 30.1382 77.0233 30.5829V30.6997C77.0233 31.0989 76.9233 31.4235 76.6233 31.6279C76.3233 31.8291 75.91 31.8713 75.1533 31.8713H70.46V29.3853ZM17.2667 29.5086L20.0667 32.6795H14.4733L17.2667 29.5086ZM58.6633 29.5086L61.4633 32.6795H55.8633L58.6633 29.5086Z" fill="white"/>
</svg>
