<svg width="111" height="20" viewBox="0 0 111 20" fill="none" xmlns="http://www.w3.org/2000/svg">
<path d="M60.3882 18.6544H74.7122V16.912H62.8438V11.3368H71.7583V9.57391H62.8438V4.4374H74.7122V2.70142H60.3882V18.6544Z" fill="white"/>
<path d="M67.8319 0.122559L65.8926 2.29212L71.9805 0.122559H67.8319Z" fill="white"/>
<path d="M98.7584 16.912V2.70142H96.5195V18.6544H111V16.912H98.7584Z" fill="white"/>
<path d="M83.9937 2.70142L75.8481 18.6544H78.6015L80.6854 14.5253H90.4548L92.5564 18.6544H95.2813L87.1292 2.70142H83.9937ZM81.7164 12.5257L85.5548 4.9058L89.4382 12.5257H81.7164Z" fill="white"/>
<path d="M52.6153 11.9836C56.2854 11.0084 56.642 8.28906 56.6234 7.31688C56.4043 4.46697 54.4761 2.70142 51.0114 2.70142H40.9146V18.6544H43.2163V11.9623H49.7896L54.6254 18.6544H57.5265C57.5264 18.6544 54.0464 14.1506 52.6153 11.9836ZM50.6971 10.0774H43.2163V4.58966H50.9578C52.7402 4.58966 53.7428 5.41828 54.104 6.47086C54.3429 7.19239 54.1897 8.13956 53.7944 8.7844C53.1474 9.85053 51.9184 10.0774 50.6971 10.0774Z" fill="white"/>
<path d="M27.0821 0C20.5847 0 16.1562 4.562 16.1562 10.0836C16.1562 15.8965 21.0482 20 27.0821 20C33.1121 20 38.002 15.955 38.002 10.0836C38.002 4.562 33.5187 0 27.0821 0ZM27.0041 18.0197C22.5089 18.0197 18.8051 14.4224 18.8051 10.089C18.8051 5.76146 22.3341 1.99188 27.1784 1.99188C31.9027 1.99188 35.3755 5.76146 35.3755 10.089C35.3755 14.4223 31.4974 18.0197 27.0041 18.0197Z" fill="white"/>
<path d="M10.3594 8.34502H12.0202L15.0348 2.70142H12.6089L10.3594 8.34502Z" fill="white"/>
<path d="M2.24012 16.912V2.70142H0V18.6544H14.4798V16.912H2.24012Z" fill="white"/>
</svg>
