<svg width="100" height="30" viewBox="0 0 100 30" fill="none" xmlns="http://www.w3.org/2000/svg">
<path fill-rule="evenodd" clip-rule="evenodd" d="M63.2494 0H56.887V29.0871H63.2494V27.0612C64.625 28.6785 66.5625 29.6693 68.9348 29.6693C73.889 29.6693 77.9053 25.3499 77.9053 20.0218C77.9053 14.6936 73.889 10.3742 68.9348 10.3742C66.5625 10.3742 64.625 11.3651 63.2494 12.9824V0ZM67.1791 15.9049C64.894 15.9049 63.0415 17.7574 63.0415 20.0425C63.0415 22.3277 64.894 24.1802 67.1791 24.1802C69.4642 24.1802 71.3167 22.3277 71.3167 20.0425C71.3167 17.7574 69.4642 15.9049 67.1791 15.9049ZM100 21.245H86.5206C86.5206 21.245 86.3106 23.6607 88.0611 24.7111C89.8117 25.7614 92.6826 25.3413 93.5579 23.6257H99.6849C99.6849 23.6257 98.1794 29.8227 90.687 29.8227C83.1945 29.8227 80.1135 24.9561 80.1135 19.9495C80.1135 14.9429 83.3346 10.5665 90.2668 10.5665C97.1991 10.5665 99.965 15.188 100 21.245ZM94.0481 17.5337H86.6607C86.6607 17.5337 87.0108 14.6628 90.3019 14.6628C93.5929 14.6628 94.0481 17.5337 94.0481 17.5337ZM0 11.2564H6.347V13.6196C7.0128 12.6067 8.7339 10.6641 12.144 10.6641C16.7562 10.6641 18.2372 14.1761 18.2372 14.1761C18.2372 14.1761 19.7182 10.7487 24.2458 10.7487C28.7733 10.7487 30.3813 13.4568 30.3813 17.0535V29.4091H24.0765V19.8885C24.0765 19.8885 24.5419 15.784 21.2838 15.784C18.0257 15.784 18.3642 20.3116 18.3642 20.3116V29.3668H12.0594V20.2693C12.0594 20.2693 12.4825 15.6148 9.0551 15.6148C7.2819 15.6148 6.5961 17.189 6.347 18.7086V29.3668H0V11.2564ZM47.7151 10.9435H54.0775V29.2405H47.7151V27.2146C46.3395 28.8319 44.402 29.8227 42.0298 29.8227C37.0755 29.8227 33.0593 25.5034 33.0593 20.1752C33.0593 14.847 37.0755 10.5277 42.0298 10.5277C44.402 10.5277 46.3395 11.5185 47.7151 13.1358V10.9435ZM43.7854 16.0583C46.0705 16.0583 47.923 17.9108 47.923 20.196C47.923 22.4811 46.0705 24.3336 43.7854 24.3336C41.5003 24.3336 39.6478 22.4811 39.6478 20.196C39.6478 17.9108 41.5003 16.0583 43.7854 16.0583Z" fill="white"/>
</svg>
