<svg width="110" height="32" viewBox="0 0 110 32" fill="none" xmlns="http://www.w3.org/2000/svg">
<path d="M58.5794 8.11034C58.4257 8.2966 58.3388 8.5046 58.3388 8.86627V18.8106H58.2837C58.2837 18.8106 52.8408 9.10686 52.5777 8.65827C52.3915 8.34007 52.1835 8.1212 51.9095 7.95667C51.6355 7.80377 51.3507 7.70521 50.8035 7.70521H49.0076C48.5908 7.70521 48.3285 7.84724 48.1422 8.06688C47.9886 8.25237 47.9009 8.46114 47.9009 8.82203V22.9177C47.9009 23.2794 47.9886 23.4874 48.1422 23.6737C48.3285 23.8925 48.5908 24.0346 49.0076 24.0346H50.0259C50.4419 24.0346 50.705 23.8925 50.8912 23.6737C51.0441 23.4874 51.1318 23.2794 51.1318 22.9177V12.7321H51.1869C51.1869 12.7321 56.8378 22.7423 57.0683 23.1149C57.3857 23.6403 57.922 24.0346 58.6888 24.0346H60.4304C60.8464 24.0346 61.1095 23.8925 61.2958 23.6737C61.4487 23.4874 61.5364 23.2794 61.5364 22.9177V10.202H84.4153C84.6458 10.202 84.8205 10.1368 84.9524 10.0273C85.0944 9.89539 85.1604 9.71999 85.1604 9.45766V8.49374C85.1604 8.23063 85.0944 8.05523 84.9524 7.92407C84.8205 7.81464 84.6458 7.74867 84.4153 7.74867H59.4447C59.0288 7.74867 58.7656 7.89147 58.5794 8.11034ZM68.5679 11.8776C64.7673 11.8776 62.6315 14.8462 62.6315 17.9786C62.6315 21.319 64.921 24.2542 68.5897 24.2542C70.4189 24.2542 72.2149 23.5642 73.244 22.3481C73.6934 21.8227 74.055 21.0885 74.055 20.6399C74.055 20.4862 74.0217 20.355 73.9347 20.2565C73.847 20.147 73.7151 20.0811 73.4854 20.0811H71.722C71.3712 20.0811 71.1306 20.2122 70.9552 20.4753C70.4407 21.2313 69.6956 21.6255 68.6005 21.6255C66.9575 21.6255 65.8958 20.3768 65.8189 19.0077H73.4419C73.7811 19.0077 74.0217 18.9309 74.1862 18.7671C74.3725 18.5917 74.4602 18.3395 74.4602 17.8684C74.4602 16.4341 74.0108 14.9448 73.0694 13.8054C72.1054 12.6552 70.6378 11.8776 68.5679 11.8776ZM80.319 11.8776C77.3186 11.8776 75.3472 13.3017 75.3472 15.5796C75.3472 16.3899 75.643 17.0472 76.1249 17.5618C76.6837 18.1648 77.4831 18.5808 78.6442 18.8765L81.1518 19.5114C81.8417 19.6868 82.4549 19.8948 82.4549 20.4971C82.4549 21.4284 81.4692 21.7458 80.4184 21.7458C79.903 21.7458 79.3667 21.6473 78.9282 21.4284C78.6217 21.2747 78.3593 21.0559 78.1731 20.7602C78.0085 20.5079 77.9542 20.3217 77.702 20.1796C77.5483 20.0919 77.362 20.0811 77.1106 20.0811H75.7524C75.4567 20.0811 75.3147 20.1688 75.2161 20.2891C75.1175 20.4094 75.0842 20.5848 75.0842 20.7602C75.0842 21.1979 75.2378 21.7458 75.5995 22.2387C76.4315 23.3555 78.1731 24.2542 80.3959 24.2542C82.5868 24.2542 85.6206 23.3446 85.6206 20.4094C85.6206 19.6542 85.401 19.0077 84.9959 18.4823C84.4813 17.814 83.7479 17.3538 82.4991 17.0364L80.0132 16.4007C78.9833 16.1384 78.5014 15.9522 78.5014 15.3165C78.5014 14.7034 79.0493 14.2106 80.319 14.2106C81.0641 14.2106 81.7432 14.3751 82.1817 14.8353C82.5426 15.2187 82.4774 15.4159 82.7622 15.5688C82.9368 15.6565 83.134 15.6565 83.4413 15.6565H84.6784C84.8756 15.6565 85.0184 15.6239 85.127 15.5028C85.2155 15.4042 85.2698 15.2513 85.2698 14.9991C85.2698 14.4294 84.8973 13.696 84.2407 13.1372C83.3645 12.3813 81.9846 11.8776 80.319 11.8776ZM87.1426 12.2943H86.5295C86.2997 12.2943 86.1243 12.3595 85.9932 12.469C85.8504 12.6009 85.7844 12.7763 85.7844 13.0386V13.7946C85.7844 14.0577 85.8504 14.2323 85.9932 14.3642C86.1243 14.4737 86.2997 14.5396 86.5295 14.5396H87.1426V20.0042C87.1426 21.4059 87.526 22.2821 88.2377 22.9837C88.895 23.6294 89.7495 24.0346 91.2389 24.0346H92.1694C92.4 24.0346 92.5746 23.9694 92.7065 23.8599C92.8485 23.728 92.9362 23.5526 92.9362 23.2903V22.3372C92.9362 22.0741 92.8485 21.8995 92.7065 21.7676C92.5746 21.6581 92.4 21.5922 92.1694 21.5922H92.0383C91.4469 21.5922 91.0418 21.4393 90.7678 21.1762C90.4395 20.8696 90.275 20.3985 90.275 19.7854V14.5396H92.2688C92.4985 14.5396 92.6739 14.4737 92.8051 14.3642C92.9471 14.2323 93.0131 14.0577 93.0131 13.7946V13.0386C93.0131 12.7763 92.9471 12.6009 92.8051 12.469C92.6739 12.3595 92.4985 12.2943 92.2688 12.2943H90.2858V8.72346C90.2858 8.43863 90.1981 8.23063 90.067 8.06688C89.9024 7.86974 89.6727 7.74867 89.3335 7.74867H88.0956C87.7557 7.74867 87.526 7.86974 87.3614 8.06688C87.2303 8.23063 87.1426 8.43863 87.1426 8.72346V12.2943ZM93.8458 23.0598C93.8458 23.3446 93.9328 23.5526 94.0647 23.7171C94.2285 23.9143 94.459 24.0346 94.7981 24.0346H96.1012C96.4412 24.0346 96.6709 23.9143 96.8354 23.7171C96.9666 23.5526 97.0543 23.3446 97.0543 23.0598V8.72424C97.0543 8.43941 96.9666 8.23141 96.8354 8.06688C96.6709 7.86974 96.4412 7.74867 96.1012 7.74867H94.7981C94.459 7.74867 94.2285 7.86974 94.0647 8.06688C93.9328 8.23141 93.8458 8.43941 93.8458 8.72424V23.0598ZM65.8407 16.6747C65.9827 15.3274 67.0126 14.32 68.5788 14.32C70.1124 14.32 71.1741 15.3274 71.3169 16.6747H65.8407ZM108.916 10.202C109.145 10.202 109.321 10.1368 109.452 10.0273C109.595 9.89539 109.661 9.71999 109.661 9.45766V8.43863C109.661 8.04437 109.584 7.84724 109.452 7.70521C109.332 7.57327 109.134 7.49721 108.916 7.49721C108.74 7.49721 108.566 7.51894 108.27 7.55154L99.5293 8.4169C99.2778 8.43863 99.1575 8.51547 99.0698 8.61403C98.9713 8.72346 98.927 8.86627 98.927 9.0634V9.63229C98.927 9.85193 98.9713 9.95049 99.0481 10.0382C99.1459 10.1476 99.2887 10.202 99.4858 10.202H108.916ZM104.086 11.8776C100.285 11.8776 98.1494 14.8462 98.1494 17.9786C98.1494 21.319 100.439 24.2542 104.108 24.2542C105.937 24.2542 107.733 23.5642 108.762 22.3481C109.211 21.8227 109.573 21.0885 109.573 20.6399C109.573 20.4862 109.54 20.355 109.452 20.2565C109.365 20.147 109.233 20.0811 109.003 20.0811H107.24C106.889 20.0811 106.649 20.2122 106.473 20.4753C105.959 21.2313 105.214 21.6255 104.118 21.6255C102.475 21.6255 101.413 20.3768 101.337 19.0077H108.982C109.321 19.0077 109.562 18.9309 109.726 18.7671C109.912 18.5917 110 18.3395 110 17.8684C110 16.4341 109.55 14.9448 108.609 13.8054C107.645 12.6552 106.156 11.8776 104.086 11.8776ZM101.359 16.6747C101.501 15.3274 102.531 14.32 104.097 14.32C105.63 14.32 106.692 15.3274 106.835 16.6747H101.359Z" fill="white"/>
<path d="M35.5492 10.3333C32.7141 6.10423 30.2228 4.67929 29.5219 4.00873C28.752 3.2691 28.1653 2.4309 27.792 2.02733C26.9616 1.12005 25.8866 0.000123978 24.1187 0.000123978C22.412 0.000123978 21.2843 1.11229 20.918 2.07312C20.8117 2.34708 20.7278 2.68236 20.6518 2.80421C20.4841 3.07896 19.7298 4.36652 19.417 4.8772H20.8272L20.1411 6.17253C20.9413 5.99713 21.5125 5.86752 22.2746 5.86752C22.953 5.86752 23.4403 6.02818 23.6538 6.45426C24.0504 7.24744 24.0504 9.64718 24.7209 11.454C25.3457 13.1521 26.87 14.8137 28.5844 16.0866C28.6069 16.1013 28.6302 16.1091 28.6605 16.1091C28.7443 16.1091 28.7978 16.0485 28.7978 15.9872C28.7978 15.9414 28.7823 15.9112 28.7443 15.8731C27.3116 14.4404 26.1459 12.8556 25.5211 11.1187C24.9033 9.42676 25.0027 7.04876 24.4617 5.98937C24.1031 5.28854 23.3418 5.10616 22.6402 5.10616C22.0767 5.10616 21.5505 5.22024 21.3068 5.27302L21.9238 4.22915H20.88C21.1012 3.84109 21.3293 3.48253 21.4442 3.2691C21.5428 3.08594 21.5816 2.85776 21.7034 2.54577C22.0992 1.54691 22.9755 0.914383 24.1187 0.914383C25.5514 0.914383 26.3896 1.8364 27.22 2.75842C27.6011 3.18528 28.2258 4.07703 28.95 4.73983C29.4451 5.19696 30.3904 5.70764 31.8456 7.20941C32.6838 8.07788 33.6594 9.20557 34.6877 10.7143C38.3688 16.1013 40.7841 20.8488 42.133 24.5524L42.1105 24.5679C38.247 21.9462 34.9012 19.4696 32.2042 16.4141C30.2911 14.2425 28.6302 11.7279 27.182 8.51949C27.0826 8.30606 26.9996 8.10815 26.908 7.90248C26.87 7.81866 26.832 7.79538 26.7706 7.79538C26.6946 7.79538 26.641 7.84893 26.641 7.92499C26.641 8.00881 26.6791 8.19197 26.7629 8.55752C27.5328 11.88 29.6663 14.8595 31.945 17.3361C34.2159 19.7979 36.7832 21.9159 38.8943 23.4557L40.5404 28.1644C40.5784 28.2793 40.6242 28.4011 40.6242 28.5152C40.6242 28.599 40.6009 28.6673 40.5482 28.7131C40.5024 28.7589 40.4418 28.7822 40.3045 28.7822H39.8093C39.5959 28.7822 39.5113 28.7511 39.4352 28.6906C39.3591 28.6293 39.3064 28.5377 39.2676 28.4314C39.1232 27.989 38.254 25.5124 38.0871 25.0095C38.0561 24.9187 38.0025 24.8877 37.942 24.8877C37.8659 24.8877 37.8124 24.949 37.8124 25.0173C37.8124 25.0786 37.8349 25.1469 37.8737 25.3603C38.0941 26.488 38.3533 27.7531 38.4596 28.2335C38.5062 28.4539 38.559 28.6603 38.559 28.8124C38.559 28.949 38.5287 29.0259 38.4146 29.14L37.9039 29.6584C37.7821 29.7803 37.713 29.8105 37.6145 29.8105C37.4926 29.8105 37.3933 29.7267 37.3475 29.5133C36.7685 26.8078 35.8923 23.4557 35.6633 22.5252C35.6098 22.3203 35.5717 22.2054 35.4499 22.2054C35.3436 22.2054 35.3055 22.2815 35.3055 22.3731C35.3055 22.4414 35.3203 22.5252 35.328 22.5865C35.4654 23.5465 36.0219 27.0445 36.6234 30.2374C36.7305 30.7861 36.9361 31.0903 37.4088 31.0903C37.6222 31.0903 37.8271 31.0065 38.018 30.8241C38.3308 30.5114 38.4216 30.4275 38.7957 30.062C39.0619 29.8028 39.2451 29.6964 39.7022 29.6964H40.8299C41.0969 29.6964 41.2412 29.6281 41.3708 29.5055C41.4927 29.3914 41.5687 29.2315 41.5687 29.0026C41.5687 28.7667 41.5082 28.5765 41.4244 28.3398C41.1349 27.5629 40.2051 24.9334 39.9304 24.1946L39.9536 24.1791C40.9059 24.9032 42.2928 25.8252 42.9029 25.8252C43.093 25.8252 43.2079 25.7414 43.2079 25.4441C43.2079 24.0425 40.8757 18.2736 35.5492 10.3333Z" fill="white"/>
<path d="M9.38861 1.47847C9.54849 1.12767 9.89929 0.883972 10.3184 0.883972C10.8896 0.883972 11.3467 1.32635 11.3467 1.91309C11.3467 2.25536 11.1869 2.55339 10.9354 2.73577C10.9889 2.93446 11.027 3.10908 11.027 3.27672C11.027 3.91701 10.6459 4.36638 9.94508 4.60309C9.8535 4.99115 9.68586 5.34195 9.41112 5.60117C8.95399 6.04278 8.4891 6.04278 8.4891 6.22594C8.4891 6.32528 8.55817 6.38582 8.74832 6.38582C9.59428 6.38582 10.4247 5.91394 10.5241 5.12852C11.332 4.85455 11.8194 4.03886 11.8194 3.39159C11.8194 3.22317 11.8039 3.07881 11.7356 2.94222C11.9568 2.72801 12.216 2.36246 12.216 1.82151C12.216 1.34886 12.0095 0.869226 11.644 0.518424C11.3242 0.205651 10.8741 -1.71661e-05 10.3487 -1.71661e-05C9.58652 -1.71661e-05 9.09136 0.412097 8.80963 0.815674C7.97842 0.815674 6.90428 1.73769 6.90428 3.0563H6.79019C6.71336 2.59918 6.24148 2.29339 5.84489 2.27088C5.52513 1.31083 4.80102 0.488155 3.61202 0.488155C3.47542 0.488155 3.30778 0.495916 3.16265 0.518424C2.81262 0.19789 2.42379 -1.71661e-05 1.88284 -1.71661e-05C0.845961 -1.71661e-05 0 0.831196 0 1.88205C0 2.53786 0.29725 2.98723 0.861482 3.38382C0.861482 3.38382 0.853722 3.46764 0.853722 3.50567C0.853722 4.34387 1.76798 5.65472 3.12462 5.65472C3.12462 5.86738 3.3916 6.15764 3.68885 6.21042V6.31752H3.57399C1.70744 6.31752 0.915034 7.21703 0.915034 7.81852C0.358563 8.04747 0 8.66448 0 9.2357C0 10.3711 0.831214 11.1791 1.92863 11.1791C2.29418 11.1791 2.66749 11.0347 2.92671 10.836C3.11686 10.9043 3.36056 10.9424 3.61202 10.9424C4.13822 10.9424 4.72496 10.76 5.1363 10.1577C5.19761 10.1655 5.25039 10.1655 5.3117 10.1655C5.98226 10.1655 6.56124 9.72309 6.86625 9.14412C6.94231 8.99976 6.97258 8.88567 6.97258 8.80108C6.97258 8.71803 6.93455 8.64896 6.85073 8.64896C6.7444 8.64896 6.72888 8.7483 6.53873 8.9237C6.11187 9.31253 5.45606 9.45689 4.7855 9.45689C4.45798 9.9373 4.0544 10.1888 3.58951 10.1888C3.24647 10.1888 2.98026 10.0972 2.70552 9.91402C2.48433 10.1577 2.21036 10.2571 1.94338 10.2571C1.34189 10.2571 0.915034 9.83796 0.915034 9.22794C0.915034 8.80107 1.189 8.42078 1.57007 8.27565C1.63837 7.52127 2.4463 7.01059 3.45214 7.01059C3.58175 7.01059 3.71136 7.01835 3.84873 7.03387C4.00085 6.79017 4.3664 6.53095 4.88484 6.46188C4.99194 6.44713 5.07499 6.43937 5.1363 6.4091C5.19761 6.37806 5.22788 6.31752 5.22788 6.24845C5.22788 6.18791 5.2046 6.13436 5.14406 6.09633C5.09051 6.06606 4.99893 6.05132 4.8926 6.02803C4.41219 5.93645 3.84097 5.6392 3.55148 4.91509C2.40051 4.91509 1.55455 3.99307 1.55455 2.95696V2.88867C1.17348 2.73577 0.915034 2.37022 0.915034 1.9356C0.915034 1.36438 1.3644 0.907255 1.93562 0.907255C2.27866 0.907255 2.57591 1.07489 2.76683 1.32635C2.92671 1.28056 3.1091 1.26504 3.2845 1.26504C4.13822 1.26504 5.05248 1.80599 5.22788 2.85762C6.3253 2.95696 6.58452 3.88674 6.65282 4.27557C6.69085 4.47348 6.72112 4.64112 6.85073 4.64112C6.9881 4.64112 7.01837 4.48823 7.06416 4.28256C7.14798 3.8945 7.29311 3.58173 7.5826 3.33803C7.5826 2.33918 8.32922 1.47847 9.38861 1.47847Z" fill="white"/>
<path d="M11.6063 7.45255C11.2477 7.96323 10.9893 8.21469 10.1736 9.17474C9.09943 10.4476 8.5352 11.4767 7.59766 13.7623C7.75055 13.7468 7.97174 13.7321 8.21544 13.7321C8.33729 13.7321 8.43586 13.7321 8.59651 13.739L8.7106 13.4953C9.2368 12.3677 9.94461 10.8434 10.9357 9.6699L11.2787 9.26632C12.2993 8.07033 12.9319 7.36097 13.3285 5.73036C13.4658 5.15138 13.5799 4.63372 13.9687 4.25963C14.3188 3.92435 14.7612 3.78 15.2105 3.78C15.5916 3.78 15.8741 3.87158 16.2854 4.0462C16.6587 4.20608 16.7953 4.23712 17.1919 4.23712C17.3293 4.23712 17.4279 4.22936 17.5195 4.2216L16.9863 4.93795L17.7104 5.44863C16.8031 5.71484 16.3235 6.59184 16.1628 6.99542C16.1325 7.07924 16.1178 7.13279 16.1178 7.18634C16.1178 7.24766 16.1481 7.30819 16.2396 7.30819C16.3382 7.30819 16.4143 7.23214 16.5439 7.07924C16.9863 6.54605 17.3371 6.17973 18.9669 5.66983L17.8167 4.80058L18.6852 3.52854H17.8703C17.3518 3.52854 17.0088 3.52077 16.5594 3.31511C15.9494 3.03338 15.6374 2.91153 15.0964 2.91153C14.4336 2.91153 13.8314 3.14747 13.3362 3.6046C12.7642 4.13002 12.5888 4.83163 12.3839 5.60153C12.2233 6.19525 12.0331 6.85107 11.6063 7.45255Z" fill="white"/>
<path d="M13.3588 12.6421C12.9242 13.2288 12.3297 13.9979 11.8726 14.8136C12.0177 14.8827 12.4981 15.1419 12.6657 15.2327C13.1912 14.4403 13.923 13.4655 14.4027 12.7259C14.8373 12.0553 15.0127 11.7658 15.043 10.8663C15.0507 10.7142 15.0507 10.5691 15.0655 10.4247C15.1035 9.95983 15.2261 9.48718 15.6677 9.05334C15.9953 8.72504 16.4679 8.55818 16.9406 8.55818C17.3977 8.55818 17.6639 8.68701 18.0605 8.68701C18.3422 8.68701 18.5479 8.61871 18.731 8.55042L18.8762 8.49687L18.5254 9.33584L19.3481 9.67034C18.8226 9.99786 17.6717 11.4081 17.6717 13.0767C17.6717 13.679 17.7632 14.2346 17.8928 14.7298C17.9084 14.7834 17.9386 14.8369 18.0225 14.8369C18.0985 14.8369 18.1521 14.7911 18.1598 14.7073L18.1676 14.5319C18.1901 14.0212 18.2281 13.2141 18.4338 12.49C18.7768 11.2707 19.6989 10.1275 20.6209 9.57876L19.31 9.00755L19.8743 7.6284L19.2572 7.75801C18.8839 7.83407 18.6092 7.90237 18.2817 7.90237C18.0682 7.90237 17.8245 7.8721 17.5351 7.80302C17.3139 7.75025 17.0772 7.70446 16.7427 7.70446C16.1404 7.70446 15.4923 7.93263 15.0507 8.35949C14.2428 9.1294 14.197 9.95983 14.1435 10.6995C14.0752 11.682 13.892 11.9257 13.3588 12.6421Z" fill="white"/>
<path d="M32.912 13.1068C32.8584 13.0385 32.8127 13.0074 32.7521 13.0074C32.6605 13.0074 32.6147 13.0687 32.6147 13.137C32.6147 13.2441 32.6908 13.3738 32.8817 13.6943C33.4607 14.6768 34.1771 15.6672 35.061 16.5977C36.0133 17.6105 37.1333 18.5551 38.33 19.401L38.7033 19.6602C38.7569 19.6991 38.7949 19.7216 38.8407 19.7216C38.9168 19.7216 38.9703 19.6455 38.9703 19.5842C38.9703 19.5462 38.9548 19.5074 38.909 19.4693C37.7968 18.4565 36.6001 17.2217 35.4801 16.0335C34.6031 15.0959 33.7044 14.1056 32.912 13.1068Z" fill="white"/>
<path d="M8.39016 9.65497C8.50425 9.46482 8.84729 8.99993 8.98466 8.8548C8.39792 7.66657 7.43787 6.53112 7.01877 6.08098L6.66797 6.42402C7.07232 7.01076 7.74987 8.14621 8.39016 9.65497Z" fill="white"/>
<path d="M2.80452 2.7741C2.73545 2.71279 2.7207 2.67476 2.7207 2.62897C2.7207 2.57619 2.75873 2.51488 2.84255 2.51488C2.87282 2.51488 2.90309 2.52264 2.94189 2.53817C3.50535 2.76634 3.98576 3.03332 4.41262 3.36084C4.77041 3.63481 5.12121 3.97086 5.46348 4.37444L5.14372 4.73999C4.7479 4.4117 3.46732 3.33833 2.80452 2.7741Z" fill="white"/>
<path d="M8.20724 5.32678L7.7959 5.07532C8.0621 4.44279 8.3904 3.86381 8.77845 3.42919C9.0532 3.1172 9.31242 2.86496 9.60191 2.61428C9.67021 2.56072 9.70823 2.51493 9.77653 2.51493C9.85337 2.51493 9.90692 2.57625 9.90692 2.63678C9.90692 2.66705 9.8914 2.70508 9.86113 2.75087C9.39624 3.47498 8.48897 4.90768 8.20724 5.32678Z" fill="white"/>
<path d="M3.04124 8.86239C2.94189 8.90042 2.8961 8.92371 2.84333 8.92371C2.75951 8.92371 2.7207 8.85463 2.7207 8.80108C2.7207 8.74831 2.74399 8.71804 2.79754 8.67147C3.7343 7.94037 4.55776 7.65088 5.69321 7.45996L5.8298 7.91787L3.04124 8.86239Z" fill="white"/>
<path d="M22.5869 2.94954C22.5869 2.68256 22.7243 2.20214 23.2194 2.20214C23.3871 2.20214 23.547 2.24017 23.6766 2.30149C23.8597 2.38531 23.9816 2.50716 23.9816 2.63677C23.9816 2.77414 23.8442 2.91151 23.6385 3.07915C23.4251 3.25377 23.1511 3.41443 22.93 3.41443C22.6637 3.41443 22.5869 3.16219 22.5869 2.94954Z" fill="white"/>
<path d="M14.8516 5.17439C14.8516 4.84687 15.0495 4.48831 15.4305 4.48831C15.5982 4.48831 15.7961 4.55661 15.9412 4.69476C16.025 4.77081 16.0631 4.85386 16.0631 4.93845C16.0631 5.12162 15.8877 5.29624 15.682 5.41809C15.5221 5.50967 15.3545 5.57098 15.2101 5.57098C14.9734 5.57098 14.8516 5.42508 14.8516 5.17439Z" fill="white"/>
<path d="M16.6426 9.87611C16.6426 9.80005 16.6503 9.70847 16.6806 9.61689C16.7419 9.41898 16.8708 9.22806 17.1913 9.22806C17.3364 9.22806 17.4955 9.26609 17.6251 9.35845C17.74 9.43451 17.7858 9.53307 17.7858 9.63241C17.7858 9.95993 17.2371 10.341 16.9623 10.341C16.7644 10.341 16.6426 10.1501 16.6426 9.87611Z" fill="white"/>
<path d="M13.6405 19.4926C12.6122 19.4926 12.1543 19.0052 12.1543 18.3882C12.1543 17.3055 14.0519 16.2469 15.7586 15.5911L16.2009 16.1631C15.1493 16.5814 13.0313 17.4817 13.0313 18.2586C13.0313 18.5326 13.1912 18.7313 13.8307 18.7313C14.9436 18.7313 16.1404 18.1895 17.2448 17.6486C17.3286 17.6105 17.428 17.5725 17.5195 17.5725C17.6639 17.5725 17.7555 17.6183 17.8618 17.7704L18.045 18.0219C16.7574 18.7313 15.1493 19.4926 13.6405 19.4926Z" fill="white"/>
<path d="M16.4756 19.7825C15.4697 20.3459 14.4258 20.72 13.5038 20.72C12.4747 20.72 11.5605 20.2776 10.7983 19.1266C10.4786 18.6392 10.2271 18.03 9.92208 17.4891C9.55653 16.8488 9.15994 16.5057 8.46687 16.5057C7.83434 16.5057 7.21656 16.7649 6.56152 17.0467L6.59179 17.1918C6.64534 17.4277 6.73692 17.5954 6.95734 17.5954C7.05668 17.5954 7.15602 17.5504 7.20958 17.5348C7.57512 17.42 7.84133 17.3206 8.21542 17.3206C8.78663 17.3206 9.0606 17.6567 9.44943 18.4794L9.59456 18.7844C9.19797 18.9218 8.26819 18.99 7.57512 18.99H7.2476L7.30116 19.3176C7.32366 19.4549 7.37722 19.569 7.4913 19.6226C7.6279 19.6909 7.82658 19.6986 8.16962 19.6986C9.03809 19.6986 9.67062 19.5923 10.0362 19.5C10.9737 20.8954 12.2613 21.4286 13.5038 21.4286C14.5624 21.4286 15.6374 21.0398 16.6665 20.4763L16.4756 19.7825Z" fill="white"/>
<path d="M17.512 20.1254L17.3296 19.4238C18.8989 18.5786 20.3316 17.9003 22.618 17.6791C22.6638 18.5553 22.6025 19.6605 23.2505 19.6605C23.8443 19.6605 25.1396 18.1284 26.6336 16.2083C26.771 16.338 26.9914 16.4753 27.1901 16.6274L26.809 17.1226C25.353 18.9977 24.1112 20.598 23.0899 20.598C22.1376 20.598 21.779 19.4773 21.7643 18.6391C20.3091 18.7843 18.9369 19.2716 17.512 20.1254Z" fill="white"/>
<path d="M37.6754 4.8314C37.0809 4.8314 36.9133 4.50311 36.9133 4.03899C36.9133 3.07894 37.5156 1.6998 37.8966 0.914372H36.9738C36.4942 1.84415 34.6044 4.82364 33.583 6.05843L34.1697 6.69019C34.7185 6.08094 35.3207 5.04483 35.9758 4.02347H36.0976C36.0976 4.07702 36.0906 4.13756 36.0906 4.19111C36.0906 5.05259 36.5322 5.69211 37.6219 5.69211C38.2924 5.69211 39.3441 5.35683 40.3352 5.02155C41.1578 4.73982 41.9122 4.45033 42.2855 4.344V3.42975C41.8587 3.55858 40.9902 3.89386 40.0907 4.20663C39.1462 4.53415 38.2164 4.8314 37.6754 4.8314Z" fill="white"/>
<path d="M39.7093 7.59744C40.6236 7.20938 42.262 6.55357 43.2073 6.21053V5.28075C41.3097 5.98235 37.9794 7.3615 35.7085 8.59629C35.7698 8.67157 36.1664 9.22805 36.2114 9.29712C37.1715 8.90053 38.0329 8.64131 38.8098 8.64131C39.9003 8.64131 40.7912 8.64131 42.2853 8.2905V7.58968C41.4471 7.74257 40.5553 7.92496 39.9763 7.92496C39.6333 7.92496 39.5339 7.87917 39.5339 7.76508C39.5339 7.69678 39.5797 7.65099 39.7093 7.59744Z" fill="white"/>
</svg>
