<svg width="82" height="30" viewBox="0 0 82 30" fill="none" xmlns="http://www.w3.org/2000/svg">
<g clip-path="url(#clip0_369_7116)">
<path d="M0 0.0272217H6.5374L19.0305 19.7368H19.1136V0.0272217H25.2632V29.4011H18.6981L6.23269 9.71869H6.14958V29.4011H0V0.0272217Z" fill="white"/>
<path d="M28.9473 8.13975H34.9029V29.4283H28.9473V8.13975ZM34.9029 4.81851H28.9473V0H34.9029V4.81851Z" fill="white"/>
<path d="M52.5762 15.6261C52.1884 13.2305 50.6371 11.951 48.1718 11.951C44.3491 11.951 43.1025 15.735 43.1025 18.8657C43.1025 21.9964 44.3214 25.5898 48.0333 25.5898C50.8034 25.5898 52.3823 23.8475 52.7701 21.2613H58.5042C57.7563 26.8966 53.7673 30 48.061 30C41.5236 30 37.1191 25.4809 37.1191 19.0835C37.1191 12.686 41.1358 7.56805 48.1718 7.56805C53.2964 7.56805 57.9779 10.2087 58.3657 15.6261H52.5762Z" fill="white"/>
<path d="M66.3434 16.4973C66.4265 14.8639 67.5068 11.9782 71.2741 11.9782C74.155 11.9782 75.4569 13.5299 76.011 16.4973H66.3434ZM81.9666 20.1996C82.3822 13.6661 78.8364 7.56805 71.4403 7.56805C64.8752 7.56805 60.3877 12.4138 60.3877 18.8112C60.3877 25.2087 64.6259 30 71.4403 30C76.3434 30 79.9168 27.8494 81.5788 22.8403H76.3434C75.9556 24.147 74.0442 25.5898 71.6619 25.5898C68.3378 25.5898 66.5096 23.902 66.3434 20.1996H81.9666Z" fill="white"/>
</g>
<defs>
<clipPath id="clip0_369_7116">
<rect width="82" height="30" fill="white"/>
</clipPath>
</defs>
</svg>
