<svg width="47" height="40" viewBox="0 0 47 40" fill="none" xmlns="http://www.w3.org/2000/svg">
<path d="M6.7381 13.8132C9.17822 6.68148 15.9219 1.89012 23.5088 1.89012C31.0958 1.89012 37.8404 6.68148 40.2805 13.8132L40.3002 13.8724H45.6396V13.2335L43.4187 12.9758C42.05 12.8158 41.7569 12.2124 41.3854 11.4472L41.2906 11.2585C38.0813 4.42008 31.0997 0.0010376 23.5039 0.0010376C15.908 0.0010376 8.92642 4.42008 5.71804 11.2585L5.62719 11.4442C5.25687 12.2095 4.96061 12.8129 3.59491 12.9728L1.37402 13.2335V13.8754H6.71342L6.7381 13.8132Z" fill="white"/>
<path d="M40.2943 25.4458L40.2746 25.5051C37.8335 32.6368 31.0948 37.4271 23.5039 37.4271C15.911 37.4271 9.1723 32.6338 6.7381 25.5011L6.71738 25.4419H1.37402V26.0828L3.59392 26.3415C4.96061 26.5015 5.25687 27.1058 5.62621 27.8701L5.71604 28.0538C8.92442 34.8952 15.906 39.3163 23.5019 39.3172C31.0958 39.3172 38.0774 34.8972 41.2869 28.0598L41.3777 27.8731C41.748 27.1098 42.0402 26.5054 43.4097 26.3464L45.6318 26.0877V25.4468L40.2943 25.4458Z" fill="white"/>
<path d="M10.6891 16.9217H9.47949V22.3925H10.6891V16.9217Z" fill="white"/>
<path d="M6.80188 22.3914V16.9217H5.5912V20.9981L1.55827 16.9217H0V22.3914H1.21068V18.2874L5.27226 22.3914H6.80188Z" fill="white"/>
<path d="M33.8894 16.9217L30.4736 22.3914H31.942L32.5493 21.4148H36.5329L37.1402 22.3914H38.6077L35.1939 16.9217H33.8894ZM35.9078 20.3779H33.1734L34.5421 18.1798L35.9078 20.3779Z" fill="white"/>
<path d="M27.4065 21.253C27.3719 21.2589 27.2178 21.2639 27.1566 21.2639H22.2873V22.3916H27.2327C27.2742 22.3916 27.5585 22.3916 27.6277 22.3837C28.6369 22.2938 29.0961 21.4535 29.0961 20.7119C29.0961 19.9702 28.6142 19.1496 27.6988 19.0598C27.5675 19.0467 27.4357 19.0408 27.3038 19.042H24.0707C23.9503 19.0442 23.8299 19.0349 23.7112 19.0144C23.6076 18.9864 23.5167 18.9238 23.4535 18.8371C23.3903 18.7503 23.3586 18.6446 23.3636 18.5374C23.3633 18.4301 23.3979 18.3256 23.4622 18.2397C23.5265 18.1538 23.6171 18.0912 23.7201 18.0614C23.8313 18.0371 23.9453 18.0288 24.0588 18.0367H28.7258V16.9208H23.9858C23.8274 16.9182 23.669 16.9264 23.5118 16.9455C23.1246 16.992 22.7685 17.181 22.5129 17.4757C22.2574 17.7702 22.1206 18.1494 22.1293 18.5394C22.1293 19.2168 22.5549 20.0068 23.49 20.1421C23.6589 20.1606 23.8288 20.1682 23.9986 20.1648H27.1487C27.208 20.1648 27.3462 20.1648 27.3768 20.1717C27.5071 20.1872 27.6274 20.2491 27.7158 20.346C27.8041 20.4429 27.8547 20.5684 27.8581 20.6995C27.8616 20.8306 27.8178 20.9586 27.7347 21.06C27.6516 21.1615 27.5347 21.2296 27.4055 21.252" fill="white"/>
<path d="M18.3274 21.253C18.2918 21.2589 18.1378 21.2639 18.0775 21.2639H13.2072V22.3916H18.1536C18.1941 22.3916 18.4795 22.3916 18.5486 22.3837C19.5578 22.2938 20.018 21.4535 20.018 20.7118C20.018 19.9702 19.539 19.1496 18.6246 19.0607C18.4934 19.0477 18.3615 19.0417 18.2296 19.043H14.9916C14.8712 19.0452 14.7508 19.036 14.6322 19.0153C14.5285 18.9873 14.4374 18.9249 14.374 18.8381C14.3106 18.7514 14.2788 18.6457 14.2836 18.5384C14.2833 18.4309 14.318 18.3264 14.3825 18.2405C14.447 18.1545 14.5378 18.0921 14.6411 18.0624C14.7522 18.0381 14.8663 18.0298 14.9798 18.0377H19.6457V16.9218H14.9057C14.7473 16.9191 14.5889 16.9273 14.4317 16.9465C14.0446 16.9932 13.6886 17.1823 13.4331 17.4768C13.1776 17.7714 13.0407 18.1505 13.0492 18.5404C13.0492 19.2178 13.4748 20.0078 14.41 20.1431C14.5792 20.1616 14.7494 20.1692 14.9195 20.1658H18.0687C18.1289 20.1658 18.2662 20.1658 18.2977 20.1727C18.428 20.1882 18.5483 20.2501 18.6367 20.347C18.725 20.4439 18.7756 20.5694 18.7791 20.7005C18.7825 20.8316 18.7387 20.9595 18.6556 21.061C18.5725 21.1625 18.4556 21.2306 18.3264 21.253" fill="white"/>
<path d="M47.0012 22.3914V16.9217H45.7906V20.9981L41.7576 16.9217H40.1992V22.3914H41.4098V18.2874L45.4714 22.3914H47.0012Z" fill="white"/>
<path d="M44.2334 35.9399C44.4361 35.9432 44.6339 36.0065 44.8011 36.1219C44.9678 36.2372 45.0974 36.3994 45.1726 36.588C45.2473 36.7766 45.2653 36.9833 45.2232 37.1819C45.1811 37.3805 45.081 37.5623 44.9359 37.7043C44.7908 37.8463 44.6069 37.9422 44.4075 37.9798C44.208 38.0175 44.0016 37.9953 43.8149 37.9161C43.6277 37.8368 43.4687 37.704 43.3571 37.5344C43.2451 37.3648 43.1863 37.166 43.1875 36.963C43.1875 36.8266 43.2145 36.6917 43.2672 36.566C43.3199 36.4403 43.3972 36.3264 43.4949 36.2311C43.5921 36.1358 43.7078 36.0609 43.8345 36.0109C43.9616 35.9609 44.0969 35.9367 44.2334 35.9399ZM44.2334 37.7954C44.3405 37.7955 44.4467 37.7739 44.5452 37.732C44.6441 37.6902 44.7332 37.6288 44.808 37.5517C44.8824 37.4745 44.9404 37.3831 44.9788 37.283C45.0173 37.1829 45.0348 37.076 45.0311 36.9689C45.0262 36.8113 44.9752 36.6586 44.884 36.5299C44.7929 36.4012 44.6658 36.3023 44.5186 36.2455C44.3715 36.1887 44.2109 36.1766 44.0568 36.2106C43.9027 36.2446 43.7621 36.3232 43.6526 36.4366C43.5431 36.5501 43.4695 36.6933 43.4409 36.8484C43.4127 37.0035 43.4303 37.1636 43.4924 37.3086C43.5541 37.4536 43.6575 37.5771 43.7895 37.6637C43.9211 37.7503 44.0756 37.7961 44.2334 37.7954ZM43.8382 37.4992V36.4633C43.9645 36.4398 44.0924 36.4282 44.2203 36.4287C44.4062 36.4287 44.6756 36.4633 44.6756 36.7329C44.6719 36.7912 44.649 36.8466 44.6106 36.8904C44.5718 36.9342 44.5199 36.9639 44.4622 36.9748V36.9916C44.5611 37.0252 44.6143 37.1091 44.6421 37.2444C44.6556 37.3341 44.6821 37.4212 44.7209 37.5031H44.4851C44.4455 37.4214 44.4189 37.3342 44.4063 37.2444C44.3666 37.0814 44.2767 37.0814 44.0634 37.0814V37.5031L43.8382 37.4992ZM44.0683 36.9146C44.2432 36.9146 44.4349 36.9146 44.4349 36.7566C44.4349 36.6578 44.3666 36.5936 44.2035 36.5936C44.1582 36.5924 44.1128 36.5964 44.0683 36.6055V36.9146Z" fill="white"/>
</svg>
