<svg width="72" height="31" viewBox="0 0 72 31" fill="none" xmlns="http://www.w3.org/2000/svg">
<path d="M28.5234 30.9843C26.0668 30.8536 24.2336 29.8533 23.1616 28.0586C22.4423 26.8538 22.2234 25.2692 22.5524 23.6501C22.9171 21.8561 24.1552 20.2395 26.0552 19.0768C27.1471 18.4081 28.0817 17.9931 29.9846 17.3312C30.4631 17.1649 30.876 17.0117 30.9026 16.9903C30.9408 16.9604 30.9462 16.8542 30.9271 16.5097C30.8724 15.5297 31.0376 14.0029 31.3174 12.9011C31.7879 11.0469 32.6933 9.55103 33.895 8.6437C34.7575 7.99179 35.8883 7.50161 37.014 7.29143C37.6357 7.17565 38.6768 7.17601 39.2618 7.2925C41.7685 7.79194 43.1754 9.70386 42.6214 11.858C42.5047 12.3122 42.1361 13.0568 41.824 13.4686C41.0244 14.5237 39.8216 15.4621 38.1232 16.3548C37.9097 16.4674 37.2106 16.8072 36.5701 17.1107C35.9297 17.4139 35.3857 17.6821 35.3605 17.7071C35.3249 17.7423 35.3339 17.8453 35.403 18.1915C35.7216 19.7925 36.2573 21.1451 37.172 22.6577C37.5356 23.2597 38.0386 24.0188 38.0958 24.0541C38.1786 24.1047 38.517 23.5636 38.7377 23.0281C39.0106 22.3655 39.1668 21.4892 39.0898 21.0539C39.0343 20.7422 38.8622 20.413 38.6426 20.2003C38.5418 20.102 38.4583 20.0091 38.458 19.9937C38.4576 19.9788 39.3101 19.9702 40.353 19.9756L42.2491 19.9852L42.2383 20.2231C42.2236 20.5484 42.1015 21.242 41.973 21.7357C41.6105 23.124 40.9272 24.3113 39.746 25.608C39.6067 25.7608 39.4926 25.9108 39.4926 25.9414C39.4926 25.9721 39.6884 26.1848 39.9275 26.4142C41.4204 27.8462 44.065 29.4977 46.2181 30.3424C46.4273 30.4247 46.5979 30.5084 46.5972 30.5283C46.5965 30.5526 45.3534 30.5682 42.9644 30.5746L39.3328 30.5839L39.1261 30.4688C38.7042 30.2341 37.77 29.4871 36.8725 28.6663C36.6824 28.4925 36.5024 28.3503 36.4726 28.3503C36.4427 28.3503 36.2314 28.4718 36.0038 28.6203C34.8378 29.3813 33.4442 30.0649 32.2656 30.4539C30.925 30.8967 29.8183 31.0534 28.5234 30.9847V30.9843ZM31.5812 27.8708C32.1248 27.775 32.7926 27.5798 33.4068 27.3372C34.0242 27.0935 34.7896 26.7209 34.8169 26.6504C34.8277 26.6226 34.6862 26.3885 34.503 26.1299C33.6581 24.9386 32.7556 23.2633 32.149 21.7607C31.9254 21.2067 31.5078 19.9798 31.4279 19.6436C31.4027 19.5363 31.357 19.4391 31.3264 19.4273C31.2418 19.3953 30.548 19.7611 29.9486 20.1544C27.8182 21.5519 26.7968 23.2579 27.0236 25.0405C27.1244 25.8328 27.3779 26.4102 27.839 26.8979C28.6915 27.7992 30.0242 28.1458 31.5812 27.8708ZM35.1974 15.4752C35.9858 15.0185 37.2365 13.9096 37.936 13.0475C38.8313 11.9442 39.3072 10.9147 39.3076 10.0797C39.3076 9.60233 39.2392 9.38859 39.016 9.16772C38.7938 8.94828 38.5433 8.85744 38.1606 8.85709C37.0252 8.85709 35.7972 10.1908 35.2622 12.0055C34.9922 12.9203 34.9267 13.4126 34.9249 14.5301C34.9235 15.3837 34.9375 15.5736 35.0023 15.5736C35.0164 15.5736 35.1042 15.5294 35.1974 15.4752ZM53.9761 30.9629C52.1052 30.7766 50.8722 30.4998 49.4812 29.9548C47.5883 29.2124 46.4064 28.293 45.4081 26.7864C45.1093 26.3354 44.6298 25.3886 44.4361 24.8653C43.5703 22.5337 43.3802 19.5983 43.8961 16.5361C44.4185 13.4369 45.6083 10.4498 47.2499 8.11505C48.3148 6.60105 49.8991 5.00653 51.5346 3.80246C54.2353 1.81466 57.3439 0.592772 60.7974 0.163152C61.845 0.0327695 62.4318 -0.000716668 63.6691 -4.19629e-06C65.5408 0.00106451 66.9664 0.142134 68.8488 0.512263C70.0498 0.748803 71.9628 1.25965 71.9995 1.35405C72.0182 1.40178 70.8061 5.24592 70.7561 5.29758C70.7406 5.31361 70.5545 5.19071 70.3432 5.02328C68.6407 3.68027 66.8764 2.86271 65.0922 2.5909C64.5223 2.50398 63.4513 2.50291 62.8926 2.58876C60.3913 2.97207 58.0722 4.5534 56.0134 7.27967C55.3445 8.16528 54.6076 9.35225 54.0344 10.4666C53.2579 11.977 52.724 13.3122 52.184 15.0976C50.464 20.7782 50.3768 24.747 51.9248 26.8954C52.5624 27.7807 53.4944 28.3446 54.677 28.5601C55.356 28.6841 57.0041 28.6089 57.1682 28.4468C57.1945 28.4212 57.9991 25.93 58.956 22.9109C60.5285 17.9518 60.6984 17.3925 60.7164 17.1114C60.7402 16.7338 60.6692 16.3965 60.4975 16.0716C60.3416 15.7763 59.9298 15.3755 59.5903 15.1892C59.4438 15.1087 59.3236 15.0303 59.3232 15.0153C59.3228 15.0004 61.9609 14.9879 65.1862 14.9879C68.411 14.9879 71.0498 15.0004 71.0495 15.0153C71.0495 15.0303 70.9066 15.1076 70.732 15.1863C69.819 15.5996 69.1573 16.2187 68.7638 17.0288C68.6785 17.204 67.9405 19.4726 66.8321 22.9658L65.0382 28.6193L64.5198 28.8651C62.4084 29.8679 59.8254 30.59 57.2489 30.8981C56.7755 30.9551 54.3725 31.0025 53.9765 30.9629H53.9761ZM0.00168262 30.5497C-0.0101974 30.5312 0.0679226 30.466 0.174843 30.4051C0.812043 30.0421 1.52736 29.289 1.83048 28.6613C1.91832 28.4796 9.9618 3.12988 10.1393 2.47477C10.1706 2.36006 10.1969 2.11782 10.1972 1.93685C10.1998 1.38397 10.0262 0.985344 9.61764 0.602747C9.50604 0.49837 9.41496 0.397555 9.41496 0.378674C9.41496 0.328445 23.4604 0.33272 24.1044 0.383306C25.499 0.49267 26.8951 0.859593 27.9629 1.3968C29.7859 2.3141 30.8774 3.70627 31.213 5.54196C31.3066 6.0528 31.3246 7.18919 31.2479 7.73922C30.9354 9.98137 29.9087 12.3596 28.5108 14.0802C26.2464 16.8674 22.5431 18.6497 17.9981 19.1398C16.5574 19.2952 14.7419 19.3343 13.4563 19.2374C13.0848 19.2093 12.773 19.194 12.7637 19.2032C12.718 19.2488 9.81816 28.4558 9.78504 28.6613C9.6828 29.295 10.0126 30.0075 10.581 30.3809C10.6933 30.4546 10.7754 30.5305 10.7639 30.549C10.7351 30.595 0.0301226 30.5953 0.00132262 30.5494L0.00168262 30.5497ZM15.9446 16.8749C17.0005 16.6896 17.9322 16.3028 18.8311 15.6769C19.2678 15.373 20.1649 14.4863 20.535 13.9929C21.4609 12.7593 22.142 11.3037 22.6914 9.38645C23.0413 8.16457 23.1904 7.23372 23.19 6.27438C23.19 5.53483 23.1223 5.0931 22.9344 4.59758C22.6554 3.8623 22.0873 3.28128 21.3655 2.99273C20.7456 2.74479 20.2164 2.6796 18.9434 2.69421L17.9837 2.70489L15.7528 9.73414C14.5262 13.6004 13.529 16.7823 13.5373 16.8051C13.546 16.8279 13.7 16.8663 13.8793 16.8906C14.0593 16.9148 14.231 16.9404 14.2616 16.9479C14.4013 16.9818 15.6448 16.928 15.9446 16.8752V16.8749Z" fill="white"/>
</svg>
