<svg width="137" height="27" viewBox="0 0 137 27" fill="none" xmlns="http://www.w3.org/2000/svg">
<path fill-rule="evenodd" clip-rule="evenodd" d="M8.39909 13.5794V7.11847H11.4581C12.3127 7.13119 13.1279 7.47714 13.7277 8.08159C14.3275 8.68604 14.6637 9.50047 14.6637 10.349C14.6637 11.1974 14.3275 12.0119 13.7277 12.6163C13.1279 13.2208 12.3127 13.5667 11.4581 13.5794H8.39909ZM0 0.90889V25.9913H8.40056V19.914L13.808 19.9096C19.0924 19.9096 23.378 15.6566 23.378 10.4089C23.378 5.16122 19.0924 0.908164 13.808 0.908164H0V0.90889ZM31.0613 0.90889L17.1231 25.9913H26.568L29.9804 19.85H37.898V25.9913H46.1683V0.90889H31.0613ZM37.898 13.5794H33.4654L37.898 5.60077V13.5794ZM95.1263 0.90889L86.7872 15.9181C86.3557 16.7223 85.7169 17.3985 84.936 17.8775C84.1552 18.3565 83.2603 18.6211 82.3427 18.6445C81.4252 18.6679 80.5178 18.4491 79.7132 18.0104C78.9087 17.5718 78.2358 16.9291 77.7633 16.1478C77.2908 15.3666 77.0356 14.4749 77.0238 13.5637C77.012 12.6526 77.2439 11.7546 77.6959 10.9616C78.148 10.1685 78.8039 9.50876 79.5968 9.04968C80.3897 8.59059 81.2911 8.34862 82.2089 8.34847C83.263 8.34884 84.292 8.66793 85.1589 9.26327C86.0258 9.8586 86.6895 10.7019 87.0616 11.681L91.5096 3.65514C88.9927 1.30338 85.6654 -0.00423492 82.2089 1.09763e-05C77.8524 1.09763e-05 73.9774 2.03427 71.4893 5.19755C71.0407 5.76712 70.6386 6.37132 70.2869 7.00441L65.3449 15.9181C64.8008 16.9313 63.9312 17.7349 62.8743 18.201C61.8174 18.6672 60.6338 18.7693 59.5117 18.4909C58.3897 18.2126 57.3936 17.5699 56.6817 16.6649C55.9699 15.76 55.5832 14.6448 55.5832 13.4966C55.5839 12.2919 56.0103 11.1256 56.788 10.2007C57.5656 9.2759 58.6454 8.65112 59.8393 8.43517C61.0331 8.21921 62.2655 8.42575 63.3217 9.01884C64.378 9.61193 65.1913 10.554 65.6201 11.681L70.0695 3.65587C67.5526 1.30354 64.2249 -0.00437118 60.7681 1.09763e-05C53.2596 1.09763e-05 47.1731 6.04249 47.1731 13.4966C47.1731 20.95 53.2596 26.9932 60.7681 26.9932C65.1239 26.9932 69.0011 24.9597 71.4893 21.7971C73.976 24.9604 77.8524 26.9932 82.2089 26.9932C87.4034 26.9932 91.9158 24.1002 94.2057 19.85H101.964V25.9913H110.235V0.90889H95.1263ZM102.046 13.5794H97.613L102.046 5.60077V13.5794ZM121.312 13.5794V7.11847H124.371C125.234 7.11866 126.061 7.45907 126.671 8.06481C127.282 8.67055 127.624 9.49203 127.624 10.3486C127.624 10.7728 127.54 11.1929 127.377 11.5849C127.214 11.9768 126.974 12.333 126.672 12.6331C126.37 12.9331 126.011 13.1711 125.616 13.3335C125.222 13.4959 124.799 13.5794 124.371 13.5794H121.312ZM136.915 25.9913L131.998 17.1554C133.161 16.3256 134.109 15.2327 134.762 13.967C135.415 12.7012 135.755 11.2993 135.754 9.87708C135.754 4.92365 131.711 0.90889 126.72 0.90889H112.913V25.9913H121.314V19.914L124.084 19.9125L127.465 25.9913H136.915Z" fill="white"/>
</svg>
