<svg width="160" height="63" viewBox="0 0 160 63" fill="none" xmlns="http://www.w3.org/2000/svg">
<g clip-path="url(#clip0_16807_22281)">
<path d="M121.854 0.136963C121.918 1.16132 121.918 2.18568 121.918 3.26419C120.737 3.26419 119.585 3.26419 118.381 3.26419C118.381 7.57326 118.381 11.8286 118.381 16.16C116.788 16.16 115.237 16.2611 113.706 16.1275C112.512 16.0233 111.783 14.8273 111.782 13.3718C111.779 9.9955 111.781 6.61922 111.781 3.19681C110.021 3.19681 108.276 3.19681 106.478 3.19681C106.478 7.46678 106.478 11.7677 106.478 16.1476C104.956 16.1476 103.462 16.3093 102.02 16.1036C100.483 15.8842 100.042 14.9271 100.016 13.4116C99.9628 10.2404 100 7.06773 100 3.89567C100 3.67093 100 3.4462 100 3.1685C98.8134 3.1685 97.6616 3.1685 96.4385 3.1685C96.4385 2.1653 96.4385 1.21532 96.4385 0.201156C104.889 0.136963 113.339 0.136963 121.854 0.136963Z" fill="white"/>
<path d="M55.0043 0.136963C55.135 0.227779 55.1959 0.393116 55.2688 0.398526C57.1566 0.538772 58.4856 2.46346 58.4854 4.1127C58.4852 4.94029 58.4947 5.78528 58.3406 6.59199C57.9584 8.59322 55.9825 9.72238 54.3046 9.7649C55.6812 11.8915 57.0246 13.9669 58.4578 16.181C56.0914 16.181 53.8406 16.181 51.5345 16.181C50.6145 14.7617 49.6208 13.2545 48.6549 11.7296C48.0096 10.7108 47.328 9.70306 46.8116 8.61935C46.5389 8.04708 46.5851 7.32285 46.4736 6.57532C47.4861 6.57532 48.3675 6.59041 49.2481 6.57097C50.0881 6.55244 50.9678 6.64742 51.6809 6.0623C52.2127 5.62594 52.2738 5.02346 52.0416 4.42523C51.8486 3.92816 51.5164 3.44791 50.9251 3.43708C49.0836 3.40333 47.2411 3.42471 45.3476 3.42471C45.3476 7.68486 45.3476 11.8938 45.3476 16.2239C43.9004 16.1595 42.4868 16.2265 41.1223 15.999C39.7667 15.773 39.3636 14.7954 39.3465 13.7633C39.2732 9.33838 39.3152 4.91155 39.32 0.485434C39.32 0.404227 39.3788 0.323082 39.3626 0.189435C44.5234 0.136963 49.7318 0.136963 55.0043 0.136963Z" fill="white"/>
<path d="M15.552 0.136963C15.6826 0.227923 15.7395 0.388835 15.8169 0.399441C17.1628 0.583769 18.1624 1.32429 18.8928 2.40848C19.6249 3.49518 19.756 4.77575 19.5581 6.01407C19.3206 7.49963 18.4953 8.68319 17.0506 9.27323C16.4491 9.51888 15.7755 9.68838 15.1296 9.70598C13.1222 9.76068 11.1124 9.7302 9.10364 9.72042C8.86621 9.71927 8.63032 9.6328 8.3917 9.60106C7.85739 9.52998 7.70264 9.13773 7.6795 8.69628C7.64627 8.06216 7.67102 7.42501 7.67102 6.71231C8.65009 6.71231 9.60009 6.72867 10.5491 6.70574C11.0616 6.69336 11.5805 6.65436 12.0823 6.55542C12.9121 6.39182 13.3837 5.76927 13.2768 4.93173C13.1529 3.96113 12.8569 3.49683 11.8969 3.44869C10.1943 3.3633 8.48431 3.42473 6.7246 3.42473C6.7246 7.72261 6.7246 11.9781 6.7246 16.3631C5.32061 16.2943 3.95815 16.3314 2.63148 16.1312C1.45871 15.9543 0.678446 15.1618 0.405871 13.9516C0.379135 13.8329 0.288744 13.7285 0.182309 13.6581C0.136719 9.18741 0.136719 4.6762 0.136719 0.136963C5.2537 0.136963 10.3707 0.136963 15.552 0.136963Z" fill="white"/>
<path d="M37.1965 0.136963C37.2607 1.16142 37.2607 2.18588 37.2607 3.34443C33.9701 3.34443 30.7106 3.34443 27.3982 3.34443C27.3982 6.0737 27.3495 8.67055 27.4361 11.2629C27.4552 11.8328 27.2828 12.6761 28.1302 12.9879C28.3512 13.0692 28.5914 13.1429 28.823 13.1438C31.56 13.1545 34.297 13.1507 37.0788 13.1507C37.0788 14.1822 37.0788 15.1968 37.0788 16.3013C36.8658 16.3013 36.6256 16.3013 36.3854 16.3013C32.4374 16.3013 28.4894 16.2969 24.5415 16.3032C22.525 16.3064 21.2644 15.185 21.246 13.2198C21.2061 8.9526 21.236 4.68473 21.2416 0.417144C21.2417 0.358694 21.2982 0.30032 21.2808 0.189437C26.5329 0.136963 31.8326 0.136963 37.1965 0.136963Z" fill="white"/>
<path d="M94.5933 0.136963C94.6575 1.16093 94.6575 2.1849 94.6575 3.26205C91.4231 3.26205 88.2176 3.26205 84.9718 3.26205C84.9557 3.4625 84.9331 3.61344 84.933 3.76439C84.9309 6.52567 84.9476 9.28711 84.9189 12.0481C84.9126 12.6565 85.2016 12.9204 85.7151 13.0053C86.2185 13.0885 86.7327 13.1415 87.2425 13.1444C89.6375 13.1584 92.0326 13.1507 94.4741 13.1507C94.4741 14.179 94.4741 15.1936 94.4741 16.271C94.3134 16.2799 94.1185 16.2999 93.9235 16.3C89.9071 16.3018 85.8901 16.3396 81.8745 16.2849C79.9219 16.2583 78.6007 15.2433 78.6193 13.0675C78.656 8.80042 78.6301 4.53278 78.6301 0.201162C83.9298 0.136963 89.2294 0.136963 94.5933 0.136963Z" fill="white"/>
<path d="M76.5114 0.136963C76.5756 1.11576 76.5756 2.09455 76.5756 3.12688C73.2939 3.12688 70.0424 3.12688 66.7379 3.12688C66.7379 7.52699 66.7379 11.874 66.7379 16.3595C65.5167 16.2945 64.3525 16.2377 63.1891 16.1674C62.8364 16.1461 62.4688 16.1415 62.1374 16.0366C60.8286 15.6223 60.4367 14.5414 60.4262 13.343C60.3882 8.98405 60.4112 4.6246 60.4112 0.201162C65.7565 0.136963 71.1019 0.136963 76.5114 0.136963Z" fill="white"/>
<path d="M129.935 0.136963C130 5.4991 130 10.8612 130 16.4213C128.466 16.2866 126.965 16.2322 125.491 15.9994C124.422 15.8304 123.833 14.7685 123.834 13.7584C123.837 9.26074 123.835 4.76305 123.835 0.201162C125.847 0.136963 127.859 0.136963 129.935 0.136963Z" fill="white"/>
<path d="M113.76 31.6719C113.063 32.5903 112.38 33.5195 111.666 34.4249C109.834 36.7503 108.263 39.2679 106.211 41.4362C104.431 43.3165 102.427 44.8511 100.17 46.1266C103.587 41.6055 106.006 36.5736 108.002 31.3222C107.946 31.2851 107.89 31.2479 107.834 31.2107C107.1 32.1546 106.366 33.0985 105.632 34.0424C104.376 35.6574 103.179 37.3221 101.848 38.8726C100.651 40.2667 99.3573 41.587 98.0189 42.8472C95.9762 44.7706 93.6947 46.3901 91.2301 47.735C89.073 48.9121 86.7676 49.7628 84.346 50.0917C82.6867 50.317 80.9724 50.1381 79.2827 50.14C77.4797 50.1421 75.7688 49.6103 74.1262 48.9945C72.892 48.5318 71.7638 47.7322 70.6674 46.969C69.0258 45.8263 67.6936 44.376 67.1353 42.3997C66.3374 39.5755 66.9066 36.9809 68.6938 34.6707C70.4536 32.396 72.7465 30.8294 75.4285 29.8404C76.8669 29.31 78.3083 28.7068 79.8026 28.4333C81.0957 28.1966 83.0126 28.025 83.8009 28.1885C84.5891 28.3521 86.5231 28.4125 87.8607 28.6559C88.9093 28.8467 89.951 29.1868 90.9322 29.6085C92.1003 30.1104 93.253 30.6899 94.3161 31.3833C95.5214 32.1696 96.6268 33.1108 97.7611 34.003C98.1102 34.2775 98.4118 34.6125 98.7686 34.9516C98.5683 35.1879 98.3417 35.4551 98.1423 35.6904C96.8663 34.7916 95.5873 33.8423 94.2595 32.9669C92.4535 31.7763 90.4441 31.0475 88.3207 30.7015C86.6917 30.4361 85.0368 30.1564 83.3962 30.1722C80.3221 30.2019 77.2938 30.6549 74.4943 32.06C72.3488 33.1369 70.416 34.5478 69.08 36.5358C68.0735 38.0334 67.7797 39.8182 68.281 41.6403C68.8549 43.7263 70.2315 45.2039 72.0149 46.2804C74.2745 47.6443 76.7026 48.4873 79.4083 48.5132C82.7812 48.5455 85.9618 47.8205 89.046 46.5121C91.2285 45.5862 93.3325 44.5114 95.1398 42.9787C96.9822 41.4163 98.8238 39.8231 100.455 38.0496C102.247 36.1019 103.827 33.9548 105.447 31.8546C107.214 29.5644 108.779 27.1273 110.779 25.0067C112.593 23.0835 114.462 21.2292 116.652 19.7587C118.087 18.7951 119.674 18.0576 121.198 17.2265C121.32 17.1599 121.474 17.1533 121.651 17.1717C117.069 21.2985 113.592 26.1537 111.563 32.012C111.8 31.748 112.05 31.4948 112.269 31.2173C112.502 30.9228 112.687 30.5899 112.925 30.3003C114.047 28.9359 115.154 27.5577 116.316 26.2282C117.652 24.7002 118.95 23.1215 120.429 21.7405C122.274 20.0173 124.366 18.595 126.716 17.6031C126.795 17.5696 126.883 17.5511 126.969 17.5404C127.009 17.5353 127.053 17.5655 127.159 17.6009C126.895 17.9425 126.681 18.3048 126.388 18.586C124.227 20.6643 122.55 23.1085 121 25.6508C120.427 26.5903 119.761 27.4846 119.287 28.4716C118.142 30.8613 117.007 33.2623 116.021 35.7204C115.454 37.1341 115.117 38.6662 115.23 40.2192C115.267 40.7357 115.566 41.2398 115.778 41.7351C115.995 42.2403 116.477 42.1251 116.806 41.9908C117.193 41.8325 117.718 41.825 117.702 41.0669C117.667 39.3686 118.353 37.9137 119.462 36.6091C120.645 35.217 122.061 34.2243 123.789 33.6778C124.758 33.3718 125.727 33.3582 126.652 33.8637C127.289 34.2122 127.691 35.0364 127.349 35.6759C126.905 36.5075 126.381 37.3406 125.72 38.0009C124.792 38.9275 123.718 39.711 122.682 40.5258C122.079 41.0007 121.43 41.4173 120.801 41.8602C121.407 42.6784 122.013 42.8604 122.942 42.2813C124.142 41.5337 125.256 40.6489 126.408 39.8244C127.068 39.352 126.992 38.5567 127.19 37.9077C127.842 35.7673 128.754 33.7439 129.906 31.8449C131.696 28.8952 133.792 26.1645 136.304 23.7877C137.328 22.8194 138.468 21.9631 139.868 21.5679C140.901 21.2765 141.682 21.8341 141.625 22.8925C141.596 23.4266 141.438 23.9779 141.226 24.474C140.104 27.1093 138.43 29.3945 136.585 31.5569C135.228 33.1475 133.798 34.6762 132.444 36.2696C131.521 37.3561 130.321 38.2824 130.103 39.8289C130.025 40.3819 129.959 40.9568 130.03 41.5033C130.075 41.8521 130.388 42.1967 130.853 42.0496C132.235 41.6127 133.357 40.7525 134.198 39.6189C134.609 39.0658 134.711 38.2756 134.919 37.5827C135.878 34.3927 137.469 31.5154 139.272 28.7424C140.544 26.7854 142.131 25.0928 143.835 23.521C144.768 22.6605 145.794 21.8699 147.116 21.6426C148.477 21.4089 148.966 22.1874 148.714 23.4251C148.272 25.5965 147.147 27.4427 145.903 29.1967C144.604 31.0292 143.18 32.7814 141.714 34.4857C140.687 35.6804 139.511 36.75 138.376 37.849C137.434 38.761 136.971 40.8479 137.516 41.766C137.817 42.274 138.205 42.5286 138.74 42.45C139.3 42.3676 139.856 42.199 140.388 41.9996C141.214 41.6903 141.289 40.9134 141.361 40.1926C141.492 38.8638 142.093 37.7681 142.904 36.7479C144.098 35.248 145.616 34.2031 147.423 33.6294C148.273 33.3593 149.199 33.1923 150.042 33.8045C150.735 34.3078 150.78 35.2341 150.406 35.9376C150.004 36.6921 149.57 37.4925 148.952 38.0559C147.637 39.2554 146.189 40.3089 144.808 41.4379C144.629 41.5847 144.366 41.9101 144.417 42.0034C144.549 42.2474 144.804 42.4997 145.064 42.5858C145.863 42.8502 146.541 42.4669 147.192 42.0512C147.211 42.0391 147.225 42.02 147.243 42.0057C148.104 41.305 148.104 41.305 148.946 42.2106C147.808 43.3039 146.605 44.1901 144.923 44.2622C143.827 44.3092 142.805 44.1825 142.004 43.4025C141.501 42.9129 141.139 43.3919 140.744 43.4732C139.476 43.7344 138.239 44.192 136.962 44.3468C135.906 44.4748 135.006 43.9542 134.494 42.9327C134.346 42.6387 134.161 42.3635 134.03 42.1421C132.944 42.7673 131.931 43.4214 130.856 43.9472C129.927 44.4012 128.926 44.4429 127.956 43.9743C127.244 43.6304 126.972 42.9602 126.713 42.2821C126.675 42.1824 126.639 42.0816 126.596 41.9626C125.658 42.53 124.785 43.1549 123.831 43.612C122.438 44.2793 120.967 44.5572 119.45 43.9691C119.327 43.9213 119.171 43.8899 119.096 43.7974C118.557 43.1329 117.983 43.2354 117.265 43.5413C116.403 43.9087 115.478 44.1484 114.562 44.3659C113.295 44.6668 111.61 43.3937 111.358 42.1112C110.889 39.7219 111.625 37.5341 112.401 35.3557C112.82 34.1809 113.354 33.0472 113.88 31.8296C113.929 31.6904 113.935 31.6165 113.94 31.5425C113.88 31.5857 113.82 31.6288 113.76 31.6719ZM142.187 28.9626C141.371 30.5493 140.556 32.136 139.74 33.7227C139.801 33.7551 139.862 33.7875 139.923 33.82C140.121 33.5844 140.322 33.3517 140.516 33.1127C141.272 32.1792 142.078 31.2803 142.769 30.3007C143.912 28.6811 145.011 27.028 146.062 25.3476C146.384 24.8334 146.881 24.2979 146.632 23.4951C145.468 23.9611 144.741 24.8243 144.114 25.776C143.449 26.7866 142.833 27.8301 142.187 28.9626ZM137.601 27.1252C138.278 26.0029 139.217 25.0012 139.362 23.4821C139.035 23.601 138.805 23.6188 138.677 23.7427C138.053 24.3467 137.342 24.9032 136.872 25.6154C135.358 27.9099 133.934 30.2637 132.884 32.8193C132.827 32.9593 132.803 33.1132 132.764 33.2607C134.698 31.4846 136.126 29.3516 137.601 27.1252ZM148.176 35.2269C147.657 34.625 147.128 35.0441 146.804 35.367C146.125 36.0425 145.488 36.7915 144.987 37.6051C144.59 38.2516 144.422 39.0391 144.152 39.764C144.24 39.8253 144.328 39.8866 144.417 39.948C145.411 38.9969 146.459 38.0936 147.376 37.0731C147.79 36.6125 147.944 35.9185 148.176 35.2269ZM121.566 39.4582C122.322 38.7939 123.132 38.18 123.819 37.4503C124.454 36.7753 125.223 36.086 124.87 34.963C123.305 34.8617 121.635 36.9244 121.01 39.8065C121.215 39.6919 121.357 39.6132 121.566 39.4582Z" fill="white"/>
<path d="M76.9108 39.6171C76.5387 40.2135 76.1396 40.7949 75.8005 41.4095C75.2169 42.4669 74.3565 43.2744 73.2793 43.7047C72.7351 43.922 71.837 43.8738 71.3864 43.548C70.8232 43.1407 70.655 42.2894 70.8824 41.5248C71.1571 40.6013 71.4898 39.6951 71.7715 38.7734C71.873 38.4414 71.8994 38.0864 71.9601 37.7419C71.91 37.6956 71.8599 37.6493 71.8098 37.603C71.5363 37.7801 71.1457 37.8947 71.0113 38.1461C70.6147 38.8882 70.2022 38.6652 69.7246 38.302C70.3054 36.8227 71.7567 35.6849 73.3949 35.8787C74.1572 35.9689 74.6153 36.4022 74.6637 37.1847C74.7481 38.5477 74.0755 39.7066 73.7066 40.9483C73.6208 41.237 73.6082 41.5475 73.6583 41.8747C74.7816 40.9839 75.354 39.7579 75.9787 38.5737C76.0486 38.4413 75.9684 38.173 75.8733 38.0206C75.5358 37.4797 75.5987 36.9496 75.7181 36.3521C75.8026 35.9298 75.9698 35.6928 76.3272 35.7776C76.6487 35.8539 77.0252 36.0713 77.1889 36.341C77.3702 36.6397 77.3574 37.0664 77.393 37.4407C77.4471 38.0084 77.7587 38.2411 78.2202 37.9305C78.8838 37.4838 79.4513 36.8936 80.1176 36.4519C81.1518 35.7664 82.2368 35.5982 83.1571 36.3436C83.4835 36.206 83.6926 36.0484 83.9078 36.0397C84.6823 36.0084 85.4588 36.0274 86.2459 36.0274C85.6648 37.6968 85.0866 39.3505 84.5175 41.0073C84.4755 41.1296 84.4986 41.2742 84.4915 41.4084C84.652 41.406 84.8406 41.4581 84.9685 41.3922C85.7809 40.9737 86.4237 40.4018 86.7207 39.4873C87.0593 38.4449 87.4318 37.4124 87.8314 36.392C87.896 36.2269 88.1717 36.0567 88.3603 36.0439C88.9964 36.0007 89.6385 36.0047 90.2756 36.0392C90.5134 36.052 90.744 36.1985 90.8936 36.2532C91.5988 36.2532 92.2693 36.1549 92.8978 36.2755C93.9154 36.4708 94.2272 37.0503 93.9231 38.0428C93.6093 39.0671 93.2223 40.0689 92.8806 41.085C92.8328 41.2273 92.8605 41.395 92.8532 41.5509C93.0341 41.5377 93.2665 41.5915 93.3864 41.4992C93.7883 41.1898 94.15 40.8283 94.5654 40.452C94.7652 40.6001 95.0675 40.7873 95.3178 41.0283C95.4144 41.1214 95.4778 41.4011 95.4128 41.4867C94.5752 42.5902 93.621 43.5086 92.1075 43.5688C91.0144 43.6123 90.2393 43.3083 90.0175 42.6422C89.7793 41.927 90.0826 41.2716 90.3037 40.6217C90.5649 39.8539 90.8881 39.1074 91.1642 38.3444C91.2087 38.2213 91.197 37.9781 91.1248 37.9349C91.0048 37.863 90.8035 37.8687 90.656 37.9106C89.8546 38.1382 89.7078 38.8712 89.4533 39.5162C88.9944 40.6796 88.5302 41.8412 88.0878 43.0109C87.9682 43.3272 87.8021 43.449 87.4549 43.4336C86.7734 43.4033 86.0897 43.4247 85.3809 43.4247C85.3542 43.2299 85.3314 43.0633 85.3022 42.8501C84.0169 43.5038 82.7659 43.8779 81.5305 42.8104C80.4202 43.3356 79.2593 43.7604 77.9622 43.1621C77.3456 42.8777 76.6434 41.8004 76.7423 41.1423C76.8074 40.709 76.9047 40.2806 77.0312 39.7798C77.0804 39.6356 77.0859 39.5616 77.0915 39.4877C77.0313 39.5309 76.971 39.574 76.9108 39.6171ZM79.5922 41.231C79.9776 41.9107 80.6086 42.0675 81.063 41.4294C81.7191 40.5081 82.2483 39.4804 82.7089 38.4436C82.8936 38.0279 82.8541 37.4307 82.2354 37.1639C80.7595 37.6964 79.589 39.4293 79.5922 41.231Z" fill="white"/>
<path d="M93.8164 6.71227C94.2392 6.65885 94.4118 6.75026 94.3936 7.17187C94.3581 7.99038 94.3832 8.81152 94.3832 9.68361C94.2015 9.69825 94.0296 9.72396 93.8576 9.72417C91.6229 9.72688 89.3882 9.72744 87.1536 9.72526C86.2365 9.72436 85.7839 9.28751 85.7559 8.3625C85.7401 7.84074 85.753 7.3181 85.753 6.71227C88.4343 6.71227 91.0921 6.71227 93.8164 6.71227Z" fill="white"/>
<path d="M75.3351 6.71228C75.7195 6.71228 76.0365 6.71228 76.3957 6.71228C76.3957 7.70282 76.3957 8.67108 76.3957 9.72598C75.8579 9.72598 75.2979 9.72598 74.7379 9.72598C73.0278 9.72598 71.3177 9.72619 69.6076 9.7259C68.5506 9.72572 67.87 9.0833 67.8116 8.00949C67.7895 7.6034 67.808 7.19511 67.808 6.71228C70.3146 6.71228 72.7912 6.71228 75.3351 6.71228Z" fill="white"/>
<path d="M34.931 9.72608C33.2418 9.72608 31.6209 9.7294 30 9.72488C28.968 9.72199 28.6309 9.3807 28.6301 8.35958C28.6297 7.83723 28.63 7.31487 28.63 6.75256C31.4528 6.75256 34.248 6.75256 37.0833 6.75256C37.0833 7.70898 37.0833 8.67791 37.0833 9.72608C36.3965 9.72608 35.698 9.72608 34.931 9.72608Z" fill="white"/>
</g>
<defs>
<clipPath id="clip0_16807_22281">
<rect width="160" height="62.8767" fill="white"/>
</clipPath>
</defs>
</svg>
