<svg width="113" height="21" viewBox="0 0 113 21" fill="none" xmlns="http://www.w3.org/2000/svg">
<path d="M86.4123 15.7502H83.7534L83.7182 21H77.7717V0C77.7737 0.0282179 82.6646 0 85.0829 0C91.3351 0 95.0535 2.18918 95.0535 7.87541C95.0535 13.0517 92.0809 15.7502 86.4123 15.7502ZM85.0829 3.93803C84.7704 3.93803 84.1084 3.91638 83.7534 3.93803V11.8121H85.0829C88.2495 11.8121 89.1702 10.6309 89.1702 8.00009C89.1702 5.45392 88.0847 3.93803 85.0829 3.93803ZM31.9061 21V12.4684H25.923V21H19.9413V0H25.923V8.53164H31.9061V0H37.8891V21H31.9061ZM42.5414 21V0H48.5232V21H42.5414ZM64.4297 21H53.1761V0H59.1592V17.062H65.1416L64.4297 21ZM67.1357 21V0H73.1174V21H67.1357ZM103.031 5.24984V5.90672C103.031 9.13012 113 7.64967 113 14.437C113 19.5281 109.443 21 104.359 21C102.359 21 99.1302 20.6332 97.0476 20.3438V15.7502C98.8829 16.682 102.359 17.062 104.359 17.062C106.61 17.062 107.018 16.3657 107.018 15.0933C107.018 11.4775 97.0476 13.0321 97.0476 5.90672C97.0476 1.76985 101.145 0 106.062 0C109.547 0 110.087 0.317615 111.671 0.656886V4.59361C110.253 4.00103 108.272 3.93803 106.354 3.93803C104.604 3.93803 103.031 4.14671 103.031 5.24984ZM8.64123 15.7502H5.98172L5.94716 21H0V0C0.00265884 0.0282179 4.89359 0 7.31181 0C13.5641 0 17.2825 2.18918 17.2825 7.87541C17.2825 13.0517 14.3099 15.7502 8.64123 15.7502ZM7.31181 3.93803C6.99939 3.93803 6.33734 3.91638 5.98172 3.93803V11.8121H7.31181C10.4785 11.8121 11.3991 10.6309 11.3991 8.00009C11.3991 5.45392 10.313 3.93803 7.31181 3.93803Z" fill="white"/>
</svg>
