<svg width="55" height="44" viewBox="0 0 55 44" fill="none" xmlns="http://www.w3.org/2000/svg">
<g clip-path="url(#clip0_20573_37023)">
<path d="M21.8029 44C21.7952 43.9891 21.8266 43.9926 21.809 43.9609C21.7805 43.9105 21.7263 43.9189 21.6831 43.9057C20.9687 43.6883 20.5248 43.2093 20.3361 42.4948C20.1752 41.8862 20.1957 41.2792 20.4393 40.695C20.7344 39.9869 21.2889 39.6201 22.0388 39.5252C22.515 39.4649 22.9618 39.5432 23.3749 39.7939C23.8556 40.0857 24.1261 40.5125 24.1941 41.0698C24.2031 41.1439 24.1822 41.1885 24.0979 41.1881C23.8794 41.1869 23.6608 41.1862 23.4419 41.1888C23.364 41.1897 23.3419 41.1583 23.3323 41.0807C23.2906 40.7376 23.1301 40.4673 22.833 40.2781C22.4144 40.0116 21.5363 40.1345 21.2751 40.7235C21.185 40.9262 21.1299 41.1339 21.1065 41.3517C21.0613 41.7769 21.0732 42.1966 21.2597 42.593C21.4324 42.9601 21.7077 43.2128 22.1112 43.2939C22.6724 43.4065 23.141 43.1381 23.2583 42.5083C23.2781 42.4022 23.2618 42.2588 23.3249 42.1992C23.4009 42.1274 23.5467 42.1771 23.6618 42.1742C23.7915 42.171 23.9213 42.1761 24.0511 42.1729C24.1374 42.1706 24.1729 42.2001 24.1672 42.2925C24.1191 43.0611 23.68 43.7348 22.8887 43.925C22.8496 43.9343 22.8134 43.9551 22.7714 43.9856C22.4519 44.0003 22.1366 44.0003 21.802 44.0003L21.8029 44Z" fill="white"/>
<path d="M45.3908 44C45.4261 43.966 45.387 43.9455 45.3575 43.9362C45.2799 43.9108 45.1992 43.8958 45.1219 43.8695C44.5781 43.686 44.2768 43.2746 44.264 42.7189C44.2409 41.7352 44.2588 40.7504 44.255 39.766C44.2547 39.6547 44.2957 39.6236 44.3986 39.6275C44.5556 39.6332 44.713 39.6335 44.87 39.6275C44.9758 39.6233 45.0136 39.6592 45.0117 39.7682C45.0056 40.0825 45.0094 40.397 45.0094 40.7116C45.0094 41.2516 45.0094 41.7916 45.0094 42.3316C45.0094 42.5176 45.0431 42.6975 45.1062 42.8716C45.2226 43.1929 45.4879 43.3663 45.8529 43.3638C46.2087 43.3612 46.4648 43.1893 46.5808 42.8741C46.6474 42.693 46.6772 42.5051 46.6776 42.313C46.6785 41.4995 46.6779 40.686 46.6779 39.8728C46.6779 39.825 46.6801 39.7769 46.6779 39.7291C46.675 39.6602 46.7058 39.6294 46.7743 39.6297C46.9589 39.6307 47.1432 39.6316 47.3278 39.6291C47.4105 39.6281 47.4326 39.6704 47.4304 39.7439C47.4275 39.8394 47.4301 39.9353 47.4301 40.0308C47.4301 40.8921 47.4304 41.7534 47.4301 42.6147C47.4297 43.2814 47.0961 43.7226 46.4555 43.9083C46.4061 43.9227 46.3411 43.9115 46.3398 43.991C46.0414 44 45.726 44 45.3914 44H45.3908Z" fill="white"/>
<path d="M35.6537 41.994C35.4713 42.5824 35.2886 43.1538 35.1169 43.7284C35.0838 43.8387 35.0419 43.891 34.9233 43.8785C34.7749 43.8631 34.5906 43.9359 34.4858 43.8471C34.3913 43.7669 34.3775 43.5892 34.3329 43.4533C34.0714 42.6571 33.8112 41.8606 33.5494 41.0644C33.5375 41.0285 33.5372 40.9836 33.4692 40.9528V41.1545C33.4692 41.9818 33.4692 42.8091 33.4692 43.6364C33.4692 43.6912 33.4683 43.7457 33.4683 43.8006C33.4683 43.8506 33.442 43.8759 33.3933 43.8762C33.1747 43.8769 32.9558 43.8769 32.7372 43.8762C32.6882 43.8762 32.6626 43.8499 32.6626 43.7999C32.6626 43.7589 32.6616 43.7178 32.6616 43.6768C32.6616 42.3983 32.6616 41.1198 32.6616 39.8414C32.6616 39.8071 32.6638 39.7728 32.6616 39.7388C32.6565 39.6599 32.6933 39.6288 32.7702 39.6291C33.0571 39.6304 33.3442 39.6313 33.6311 39.6281C33.7218 39.6272 33.7416 39.6855 33.7644 39.7535C33.8464 39.9991 33.9323 40.2432 34.0153 40.4885C34.2448 41.1667 34.474 41.8452 34.7021 42.524C34.7153 42.5628 34.7169 42.6058 34.7704 42.6253C34.9255 42.1703 35.0819 41.7159 35.2354 41.2603C35.3992 40.7745 35.5598 40.2877 35.7226 39.8016C35.7803 39.6297 35.7819 39.6291 35.9652 39.6285C36.2043 39.6275 36.4437 39.6262 36.6828 39.6291C36.8286 39.6307 36.8311 39.6342 36.8324 39.7782C36.8347 39.9902 36.8331 40.2021 36.8331 40.4141C36.8331 41.4873 36.8331 42.5609 36.8331 43.6341C36.8331 43.6819 36.8305 43.73 36.8331 43.7778C36.8366 43.8464 36.8087 43.8775 36.7382 43.8769C36.5331 43.8749 36.3283 43.8753 36.1232 43.8769C36.0552 43.8775 36.0219 43.8512 36.0254 43.7804C36.028 43.7326 36.0254 43.6848 36.0254 43.6367C36.0254 42.8094 36.0254 41.9821 36.0254 41.1548V40.9307C36.0136 40.9281 36.0017 40.9255 35.9902 40.923C35.8793 41.2744 35.7684 41.6258 35.654 41.9933L35.6537 41.994Z" fill="white"/>
<path d="M49.3912 39.7292C49.7197 40.7052 50.0427 41.6656 50.3824 42.6754C50.4299 42.5487 50.4613 42.4714 50.4879 42.3922C50.7779 41.5316 51.0683 40.6713 51.3558 39.81C51.4295 39.5893 51.4234 39.6317 51.6115 39.6294C51.8439 39.6265 52.0765 39.6269 52.3089 39.6294C52.457 39.6314 52.4589 39.6342 52.4611 39.7763C52.4637 39.9334 52.4618 40.0909 52.4618 40.2483C52.4618 41.37 52.4618 42.4916 52.4618 43.6136C52.4618 43.6685 52.4592 43.7233 52.4618 43.7778C52.465 43.8461 52.4377 43.8778 52.3669 43.8772C52.1685 43.8753 51.9705 43.875 51.7721 43.8772C51.6977 43.8782 51.6791 43.8397 51.6817 43.7752C51.6836 43.7207 51.6817 43.6659 51.6817 43.6111C51.6817 42.6946 51.6817 41.7782 51.6817 40.8611C51.6202 40.864 51.6214 40.9079 51.6093 40.9464C51.3247 41.8647 51.0391 42.7831 50.7526 43.7008C50.6978 43.8762 50.6952 43.8788 50.5212 43.8756C50.3853 43.8734 50.2206 43.9288 50.1206 43.8528C50.0139 43.772 50.011 43.5966 49.9664 43.4613C49.7379 42.7684 49.5123 42.0745 49.2841 41.3815C49.2341 41.2295 49.2037 41.0698 49.0979 40.9291V41.1436C49.0979 41.9712 49.0979 42.7988 49.0979 43.6265C49.0979 43.6742 49.095 43.7223 49.0979 43.7701C49.1034 43.85 49.0675 43.8788 48.9896 43.8775C48.7983 43.8746 48.6066 43.8746 48.4153 43.8775C48.3464 43.8785 48.3134 43.8538 48.3179 43.7826C48.3204 43.7419 48.3179 43.7005 48.3179 43.6595C48.3179 42.3942 48.3179 41.1288 48.3179 39.8632C48.3179 39.8221 48.3201 39.7811 48.3179 39.7401C48.3131 39.6637 48.3438 39.6278 48.4236 39.6285C48.7037 39.6304 48.9842 39.6301 49.2646 39.6281C49.3287 39.6278 49.3687 39.6519 49.3912 39.7288V39.7292Z" fill="white"/>
<path d="M38.542 43.856C38.3661 43.856 38.209 43.858 38.052 43.8557C37.9039 43.8535 37.902 43.8516 37.8994 43.7105C37.8969 43.5806 37.8988 43.4507 37.8988 43.3209C37.8988 42.1793 37.8978 41.0378 37.8994 39.8962C37.8998 39.5954 37.8549 39.6317 38.1763 39.6288C38.3334 39.6272 38.4911 39.6362 38.6475 39.6259C38.7609 39.6185 38.8199 39.6685 38.8747 39.759C39.3836 40.5988 39.8957 41.4367 40.4082 42.2745C40.4454 42.3355 40.4707 42.4079 40.5652 42.4702C40.5652 42.3804 40.5652 42.3156 40.5652 42.2505C40.5652 41.4575 40.5652 40.6648 40.5652 39.8718C40.5652 39.8241 40.5672 39.776 40.5652 39.7282C40.5624 39.6592 40.5941 39.6288 40.6624 39.6291C40.8604 39.6301 41.0585 39.6307 41.2565 39.6285C41.3392 39.6275 41.3626 39.6702 41.3584 39.7436C41.3562 39.7843 41.3584 39.8257 41.3584 39.8667C41.3584 41.1176 41.3584 42.3685 41.3584 43.6194C41.3584 43.6332 41.3584 43.6467 41.3584 43.6604C41.3568 43.8538 41.3568 43.8548 41.1729 43.856C40.9883 43.8573 40.8037 43.85 40.6197 43.8586C40.496 43.8644 40.4242 43.824 40.3617 43.7108C40.1082 43.251 39.8422 42.7985 39.5813 42.3428C39.3272 41.8987 39.074 41.4543 38.8199 41.0102C38.7878 40.9544 38.751 40.9012 38.6785 40.855C38.6785 40.9265 38.6785 40.998 38.6785 41.0695C38.6785 41.9375 38.6789 42.8056 38.6779 43.6739C38.6779 43.7573 38.708 43.8653 38.542 43.8564V43.856Z" fill="white"/>
<path d="M14.0506 41.3523C14.3343 41.4395 14.5984 41.5325 14.8275 41.7002C15.1076 41.9048 15.2589 42.1668 15.2739 42.5298C15.3057 43.2853 14.8397 43.7294 14.2221 43.8538C13.8157 43.9356 13.4106 43.9426 13.0059 43.8384C12.2181 43.6351 11.7694 43.0149 11.7281 42.2303C11.7233 42.1408 11.7499 42.1078 11.8399 42.1107C12.0175 42.1161 12.1966 42.1017 12.3726 42.1193C12.528 42.1347 12.5444 42.1232 12.5511 42.2973C12.5626 42.5945 12.6799 42.8514 12.9027 43.0563C13.2389 43.3661 13.8939 43.3908 14.2526 43.1047C14.5865 42.8383 14.5631 42.3662 14.2038 42.1402C14.0164 42.0222 13.8048 41.9657 13.5946 41.9074C13.2728 41.8182 12.944 41.7531 12.6357 41.6191C12.5732 41.5918 12.5107 41.5643 12.4517 41.5303C11.8169 41.1663 11.7685 40.3159 12.3511 39.8696C12.6341 39.6528 12.96 39.5698 13.3026 39.5351C13.7568 39.489 14.1897 39.5515 14.5657 39.8359C14.8394 40.0427 15.0461 40.2996 15.1217 40.6437C15.1374 40.7152 15.1602 40.7886 15.124 40.8803C14.898 40.8803 14.6666 40.8784 14.4356 40.8813C14.3497 40.8822 14.3362 40.8248 14.3256 40.7629C14.3025 40.627 14.2586 40.5003 14.184 40.3833C14.0779 40.2175 13.9263 40.1191 13.7359 40.0918C13.5321 40.0626 13.327 40.071 13.1286 40.137C12.9104 40.2101 12.7719 40.3563 12.7242 40.5847C12.6828 40.7819 12.7302 40.8967 12.9046 40.997C13.0357 41.0724 13.1808 41.1153 13.3244 41.157C13.56 41.2257 13.7991 41.2831 14.0513 41.3523H14.0506Z" fill="white"/>
<path d="M17.2245 43.342C17.2245 43.4854 17.221 43.6085 17.2255 43.7313C17.2284 43.8156 17.2011 43.8583 17.1108 43.857C16.9265 43.8541 16.7419 43.8554 16.5573 43.8557C16.4916 43.8557 16.4554 43.8285 16.4582 43.7579C16.4602 43.7034 16.4582 43.6486 16.4582 43.5937C16.4582 42.5477 16.4582 41.5018 16.4582 40.4558C16.4582 40.4147 16.4589 40.3737 16.4582 40.3326C16.4547 40.1867 16.4547 40.1842 16.3137 40.1835C16.0336 40.1816 15.7532 40.1784 15.4734 40.1851C15.3641 40.1877 15.3269 40.1502 15.3362 40.045C15.3474 39.9164 15.2862 39.7567 15.3612 39.6657C15.4413 39.5682 15.6057 39.6307 15.732 39.6301C16.4973 39.6259 17.2627 39.6281 18.028 39.6281C18.069 39.6281 18.11 39.6272 18.1511 39.6281C18.3004 39.6326 18.3052 39.6329 18.3039 39.7728C18.303 39.9013 18.3574 40.063 18.2805 40.1498C18.2001 40.2406 18.0354 40.1768 17.9081 40.181C17.7171 40.1874 17.5255 40.1848 17.3341 40.1819C17.2579 40.1806 17.2188 40.2044 17.2245 40.2861C17.228 40.3336 17.2245 40.3817 17.2245 40.4298C17.2245 41.3937 17.2245 42.3576 17.2245 43.342Z" fill="white"/>
<path d="M18.9057 40.7985C18.9057 40.4499 18.9047 40.1219 18.9063 39.7936C18.907 39.6332 18.9092 39.6313 19.0605 39.6291C19.2175 39.6265 19.3749 39.6262 19.5319 39.6291C19.6829 39.6319 19.6835 39.6342 19.6858 39.7952C19.687 39.8907 19.6858 39.9866 19.6858 40.0822C19.6858 41.2647 19.6864 42.4473 19.6851 43.6296C19.6851 43.8432 19.731 43.8579 19.4685 43.8566C19.3454 43.856 19.2227 43.8573 19.0996 43.8566C18.9076 43.8554 18.9063 43.8547 18.9057 43.6694C18.9047 43.2249 18.9057 42.7808 18.9057 42.3364C18.9057 41.8307 18.9057 41.3247 18.9057 40.7985Z" fill="white"/>
<path d="M43.2867 41.2089C43.2867 42.0228 43.2867 42.8164 43.2867 43.6097C43.2867 43.6575 43.2848 43.7056 43.2867 43.7534C43.2892 43.8194 43.2649 43.8557 43.1931 43.855C42.9947 43.8537 42.7966 43.8531 42.5983 43.8557C42.5172 43.8566 42.489 43.8185 42.4938 43.7431C42.496 43.7091 42.4938 43.6748 42.4938 43.6405C42.4938 42.3752 42.4938 41.1099 42.4938 39.8442C42.4938 39.817 42.4964 39.7894 42.4938 39.7621C42.4842 39.6685 42.5169 39.6242 42.6188 39.6278C42.7963 39.6335 42.9745 39.6342 43.1517 39.6275C43.2623 39.6233 43.2892 39.6701 43.2886 39.7724C43.2847 40.2444 43.287 40.7164 43.287 41.2086L43.2867 41.2089Z" fill="white"/>
<path d="M31.9572 41.0288C31.7802 40.3092 31.3338 39.8308 30.6239 39.6086C30.2669 39.4967 29.8993 39.4736 29.5311 39.5278C28.8016 39.6358 28.2446 39.9911 27.9347 40.6828C27.7065 41.1923 27.6668 41.7259 27.7796 42.2646C27.9511 43.0861 28.436 43.6409 29.242 43.9025C29.2926 43.9189 29.3522 43.9125 29.3923 43.9574C29.4157 43.9833 29.3856 43.9875 29.3936 43.9994C29.7554 43.9994 30.0983 43.9994 30.4239 43.9901C30.4368 43.8958 30.5204 43.916 30.5803 43.8971C31.1063 43.731 31.5126 43.4177 31.7569 42.9191C32.0523 42.3156 32.1177 41.6797 31.9575 41.0285L31.9572 41.0288ZM31.1697 42.3172C30.9995 42.9624 30.723 43.3068 29.9631 43.343C29.3173 43.3738 28.8013 42.9887 28.6324 42.3326C28.5001 41.8179 28.5206 41.3078 28.7565 40.8034C29.1603 40.1297 29.9051 39.9155 30.5614 40.2784C30.9306 40.4827 31.095 40.8281 31.1736 41.2231C31.246 41.5874 31.2643 41.96 31.17 42.3169L31.1697 42.3172Z" fill="white"/>
<path d="M54.5319 13.8188C54.497 13.2952 54.4461 12.7747 54.364 12.2569C54.0877 10.5173 53.5442 8.86751 52.718 7.3107C51.8735 5.71959 50.7919 4.31766 49.4189 3.14661C47.8802 1.83447 46.1278 0.947845 44.1562 0.487377C43.0034 0.218022 41.833 0.172168 40.659 0.168961C40.2305 0.167679 39.8004 0.195576 39.3739 0.250088C37.9365 0.434147 36.5847 0.884033 35.313 1.57409C33.9038 2.33887 32.6683 3.32907 31.5466 4.47094C30.7842 5.24725 30.0903 6.07905 29.4407 6.94996C28.8234 7.77726 28.2748 8.64946 27.7383 9.52999C27.6828 9.62074 27.6428 9.72399 27.5514 9.79036C27.4377 9.36068 27.3075 8.9451 27.1585 8.5353C26.4627 6.62064 25.4285 4.92403 23.9559 3.50254C23.1393 2.71436 22.2317 2.05444 21.2311 1.52471C19.2938 0.500203 17.2157 0.0355669 15.0339 0.000614994C14.6858 -0.00483623 14.3387 0.0211372 13.9913 0.0394148C13.1032 0.0859105 12.2299 0.227642 11.3665 0.435109C10.0323 0.755769 8.76578 1.25247 7.56524 1.9172C6.07017 2.74514 4.74912 3.79274 3.62581 5.08179C2.09581 6.83676 1.06224 8.85404 0.487284 11.1089C0.332489 11.7166 0.218075 12.3319 0.133787 12.9527C0.0687286 13.4315 0.0293087 13.9134 0.0062337 14.3966C-0.0107521 14.7523 0.0100795 15.105 0.0315522 15.4593C0.0680877 16.0589 0.139236 16.6534 0.240189 17.2451C0.524781 18.9144 1.05903 20.4966 1.86986 21.9854C2.72236 23.5508 3.83028 24.9076 5.19107 26.0546C6.76754 27.3834 8.55105 28.3316 10.5272 28.9177C11.7694 29.2862 13.0395 29.4901 14.3333 29.5286C15.2415 29.5555 16.146 29.4946 17.0452 29.3513C18.4297 29.1303 19.7524 28.7167 21.0093 28.0981C22.4823 27.3734 23.7771 26.4038 24.9068 25.2141C25.2308 24.8729 25.5484 24.524 25.8179 24.1367C26.6762 22.9044 27.5303 21.6692 28.3869 20.4356C29.692 18.5575 31.0047 16.6849 32.2841 14.7891C33.3305 13.2384 34.4147 11.7153 35.6771 10.3288C35.9806 9.99527 36.2927 9.66915 36.667 9.41166C37.1007 9.11313 37.5525 8.84538 38.0307 8.62444C38.9467 8.20085 39.9011 7.96068 40.9196 8.00204C41.6609 8.03219 42.3631 8.20534 43.0261 8.53177C44.2985 9.15738 45.2199 10.1402 45.8592 11.3895C46.4259 12.4961 46.7037 13.67 46.6114 14.9232C46.5428 15.855 46.2682 16.7131 45.7583 17.4965C45.575 17.778 45.342 18.0188 45.134 18.2802C44.5084 19.0658 43.7389 19.6584 42.8114 20.0428C42.1804 20.3045 41.5231 20.4417 40.8385 20.4417C36.8116 20.4414 32.7847 20.4411 28.7577 20.442C28.4703 20.442 28.5052 20.4007 28.5052 20.688C28.5042 23.91 28.5046 27.1317 28.5046 30.3742C28.5046 32.3305 28.5039 34.2663 28.5052 36.2022C28.5052 36.4978 28.4639 36.4683 28.7626 36.4683C31.1419 36.4693 33.5211 36.469 35.9001 36.4686C36.2196 36.4686 36.1748 36.4863 36.1751 36.1948C36.1761 33.4724 36.1754 30.7497 36.1757 28.0273C36.1757 27.8066 36.1607 27.831 36.3748 27.8294C36.409 27.8294 36.443 27.8294 36.4773 27.8294C38.0705 27.8294 39.6633 27.8294 41.2564 27.8294C41.4202 27.8294 41.5833 27.8252 41.7471 27.8111C42.8983 27.7114 44.0312 27.511 45.1442 27.2009C46.1797 26.9126 47.1742 26.5179 48.1187 26.0055C49.4019 25.3093 50.5377 24.4237 51.4992 23.3196C52.244 22.4644 52.8523 21.5207 53.3298 20.4927C53.7509 19.5862 54.0547 18.6406 54.2621 17.6632C54.4249 16.8959 54.5207 16.1183 54.5476 15.3355C54.5653 14.8315 54.565 14.3255 54.531 13.8198L54.5319 13.8188ZM21.3119 16.7942C21.0039 17.7726 20.5043 18.639 19.8136 19.398C18.9964 20.2961 18.0112 20.9349 16.8632 21.3203C16.0998 21.5765 15.312 21.7016 14.5067 21.6686C13.6125 21.632 12.7542 21.4278 11.9357 21.0596C11.0576 20.6646 10.2942 20.1086 9.64968 19.3973C8.69912 18.3481 8.11744 17.12 7.90976 15.7149C7.8415 15.2534 7.8197 14.7904 7.84855 14.3287C7.89982 13.5052 8.10718 12.717 8.45138 11.9654C8.81642 11.1682 9.30516 10.4535 9.92626 9.8391C10.955 8.82197 12.1681 8.13672 13.6048 7.8757C13.8468 7.83177 14.0897 7.80323 14.3528 7.77758C15.1778 7.72596 15.9626 7.84011 16.7321 8.07612C17.6449 8.35605 18.4627 8.80978 19.1874 9.4293C19.9014 10.0398 20.4751 10.7648 20.8952 11.6056C21.2638 12.3435 21.4971 13.1233 21.5865 13.9455C21.6923 14.9145 21.6045 15.864 21.3119 16.7939V16.7942Z" fill="white"/>
<path d="M11.3363 43.6963C10.9924 42.7337 10.6472 41.7714 10.3024 40.8091C10.1758 40.4564 10.0454 40.1049 9.92423 39.7503C9.89154 39.6547 9.84154 39.6239 9.7454 39.6268C9.55406 39.6326 9.36241 39.6342 9.1714 39.6262C9.0618 39.6217 9.00731 39.6647 8.98552 39.7676C8.97559 39.8141 8.95636 39.8587 8.94097 39.9039C8.57626 40.9755 8.20962 42.0468 7.85004 43.1201C7.81126 43.2355 7.76511 43.2859 7.6382 43.2839C7.21451 43.2769 6.79083 43.2827 6.36714 43.2804C6.2069 43.2798 6.2069 43.2762 6.20241 43.1223C6.20113 43.0813 6.20241 43.0402 6.20241 42.9992C6.20241 41.9599 6.20241 40.9207 6.20241 39.8814C6.20241 39.8336 6.19985 39.7855 6.20241 39.7378C6.2069 39.6595 6.17261 39.6271 6.09441 39.6284C5.9441 39.631 5.79379 39.6281 5.64348 39.6284C5.38069 39.6294 5.40953 39.6114 5.40921 39.857C5.40857 41.122 5.40889 42.3871 5.40889 43.6517C5.40889 43.6928 5.41209 43.7341 5.40889 43.7749C5.40216 43.8586 5.44542 43.8826 5.5201 43.8765C5.54734 43.8743 5.57458 43.8765 5.60214 43.8765C6.46265 43.8704 7.32316 43.8897 8.18366 43.8602C8.30224 43.856 8.35384 43.8153 8.3907 43.713C8.47627 43.476 8.56825 43.2413 8.65959 43.0062C8.72785 42.8305 8.72913 42.8308 8.92367 42.8302C9.10122 42.8296 9.27909 42.8302 9.47715 42.8302C9.70277 42.8302 9.90788 42.8334 10.1127 42.8292C10.2159 42.827 10.2707 42.861 10.304 42.9671C10.3832 43.2208 10.4822 43.468 10.5658 43.7204C10.5985 43.8194 10.6488 43.864 10.7569 43.8586C10.9136 43.8505 11.0712 43.8586 11.2283 43.856C11.3892 43.8534 11.3911 43.8509 11.336 43.6966L11.3363 43.6963ZM9.9316 42.2969C9.63835 42.3002 9.34543 42.3002 9.05218 42.2969C8.93392 42.2957 8.92495 42.28 8.96052 42.161C9.0211 41.959 9.08551 41.7582 9.15218 41.5408C9.26435 41.1894 9.37267 40.8537 9.49542 40.4737C9.57426 40.7276 9.64028 40.9386 9.70566 41.1496C9.81045 41.4876 9.91589 41.8249 10.0188 42.1632C10.0566 42.287 10.0521 42.2957 9.9316 42.2969Z" fill="white"/>
<path d="M4.89075 40.5086C4.76992 39.9908 4.47828 39.7249 3.95653 39.6451C3.79244 39.6201 3.62931 39.6355 3.44567 39.6284C2.91975 39.6284 2.41402 39.6291 1.9083 39.6284C1.64486 39.6281 1.69068 39.6419 1.69036 39.8545C1.6894 41.1128 1.68972 42.371 1.68972 43.629C1.68972 43.6428 1.68972 43.6562 1.68972 43.67C1.69079 43.8071 1.75681 43.8761 1.88778 43.8772C2.02431 43.8778 2.16116 43.8781 2.29801 43.8772C2.52716 43.8752 2.51017 43.9041 2.51049 43.6726C2.51113 43.2009 2.50985 42.7289 2.51145 42.2572C2.51209 42.0981 2.51498 42.0943 2.66945 42.093C2.97007 42.0904 3.27101 42.0953 3.57162 42.0911C3.83955 42.0876 4.10331 42.0565 4.33887 41.9134C4.8071 41.6297 5.02343 41.0772 4.89075 40.5093V40.5086ZM3.90108 41.3629C3.85237 41.3988 3.79532 41.4235 3.7261 41.4565C3.54887 41.5216 3.38157 41.5412 3.20947 41.538C3.01173 41.5344 2.81399 41.5351 2.61625 41.538C2.53709 41.5392 2.50889 41.5069 2.50953 41.4293C2.51177 41.0473 2.51145 40.6651 2.51017 40.2832C2.51017 40.2165 2.53164 40.1816 2.60375 40.1828C2.94379 40.1893 3.28543 40.1591 3.62322 40.2245C3.63668 40.2271 3.65014 40.2293 3.66328 40.2325C3.89628 40.2896 4.08312 40.4067 4.13824 40.6552C4.19978 40.9335 4.14626 41.1836 3.9014 41.3632L3.90108 41.3629Z" fill="white"/>
</g>
<defs>
<clipPath id="clip0_20573_37023">
<rect width="54.56" height="44" fill="white"/>
</clipPath>
</defs>
</svg>
