<svg width="161" height="19" viewBox="0 0 161 19" fill="none" xmlns="http://www.w3.org/2000/svg">
<path d="M0.655762 18.0001V0.864054H8.38376C10.3838 0.864054 11.9038 1.43205 12.9438 2.56805C13.8558 3.54405 14.3118 4.80805 14.3118 6.36005C14.3118 7.91205 13.8558 9.17605 12.9438 10.1521C11.9038 11.2881 10.3838 11.8561 8.38376 11.8561H4.42376V18.0001H0.655762ZM4.42376 3.79205V8.92805H7.35176C8.37576 8.92805 9.14376 8.77605 9.65576 8.47205C10.3278 8.05605 10.6638 7.35205 10.6638 6.36005C10.6638 5.36805 10.3278 4.66405 9.65576 4.24805C9.14376 3.94405 8.37576 3.79205 7.35176 3.79205H4.42376Z" fill="white"/>
<path d="M16.6636 18.0001V0.864054H25.9036C27.4076 0.864054 28.6316 1.32805 29.5756 2.25605C30.4716 3.15205 30.9196 4.26405 30.9196 5.59205C30.9196 7.72005 30.0156 9.15205 28.2076 9.88805V9.93605C29.7116 10.3201 30.5436 11.6561 30.7036 13.9441C30.7516 14.6321 30.7996 15.3201 30.8476 16.0081C30.9436 16.9361 31.1356 17.6001 31.4236 18.0001H27.6556C27.4796 17.5681 27.3436 16.9201 27.2476 16.0561C27.1836 15.3361 27.1196 14.6161 27.0556 13.8961C26.9276 12.9681 26.6476 12.3041 26.2156 11.9041C25.7996 11.5041 25.1276 11.3041 24.1996 11.3041H20.4316V18.0001H16.6636ZM20.4316 3.79205V8.61605H24.5596C26.2876 8.61605 27.1516 7.80005 27.1516 6.16805C27.1516 4.58405 26.2876 3.79205 24.5596 3.79205H20.4316Z" fill="white"/>
<path d="M33.2399 9.50406C33.2399 6.88005 33.9839 4.73605 35.4719 3.07205C37.0079 1.32805 39.0719 0.456055 41.6639 0.456055C44.2559 0.456055 46.3199 1.32805 47.8559 3.07205C49.3439 4.73605 50.0879 6.88005 50.0879 9.50406C50.0879 12.0641 49.3439 14.1681 47.8559 15.8161C46.3039 17.5441 44.2399 18.4081 41.6639 18.4081C39.0879 18.4081 37.0239 17.5441 35.4719 15.8161C33.9839 14.1681 33.2399 12.0641 33.2399 9.50406ZM37.0079 9.50406C37.0079 11.1041 37.3599 12.4161 38.0639 13.4401C38.8959 14.6401 40.0959 15.2401 41.6639 15.2401C43.2319 15.2401 44.4319 14.6401 45.2639 13.4401C45.9679 12.4161 46.3199 11.1041 46.3199 9.50406C46.3199 7.84005 45.9679 6.48805 45.2639 5.44805C44.4479 4.23205 43.2479 3.62405 41.6639 3.62405C40.0799 3.62405 38.8799 4.23205 38.0639 5.44805C37.3599 6.48805 37.0079 7.84005 37.0079 9.50406Z" fill="white"/>
<path d="M52.6636 18.0001V0.864054H60.0556C62.3756 0.864054 64.2236 1.56805 65.5996 2.97605C67.0876 4.46405 67.8316 6.58405 67.8316 9.33605C67.8316 11.9281 67.1916 13.9921 65.9116 15.5281C64.5356 17.1761 62.5836 18.0001 60.0556 18.0001H52.6636ZM56.4316 4.03205V14.8321H59.7916C61.0076 14.8321 61.9916 14.4481 62.7436 13.6801C63.6236 12.7841 64.0636 11.4561 64.0636 9.69605C64.0636 7.85605 63.7116 6.48005 63.0076 5.56805C62.2076 4.54405 60.9116 4.03205 59.1196 4.03205H56.4316Z" fill="white"/>
<path d="M84.9966 0.864054V11.5201C84.9966 13.7921 84.3566 15.5121 83.0766 16.6801C81.8126 17.8321 80.0126 18.4081 77.6766 18.4081C72.8126 18.4081 70.3806 16.1121 70.3806 11.5201V0.864054H74.1486V11.5201C74.1486 12.6561 74.3566 13.5121 74.7726 14.0881C75.3326 14.8561 76.3006 15.2401 77.6766 15.2401C78.9886 15.2401 79.9166 14.9361 80.4606 14.3281C80.9726 13.7681 81.2286 12.8321 81.2286 11.5201V0.864054H84.9966Z" fill="white"/>
<path d="M103.314 6.62405H99.6657C99.5537 5.77605 99.1377 5.06405 98.4177 4.48805C97.6977 3.91205 96.8657 3.62405 95.9217 3.62405C94.3377 3.62405 93.1377 4.23205 92.3217 5.44805C91.6177 6.48805 91.2657 7.84005 91.2657 9.50406C91.2657 11.1041 91.6177 12.4161 92.3217 13.4401C93.1537 14.6401 94.3537 15.2401 95.9217 15.2401C97.0417 15.2401 97.9457 14.8801 98.6337 14.1601C99.2737 13.4881 99.6657 12.5681 99.8097 11.4001H103.458C103.266 13.5281 102.482 15.2321 101.106 16.5121C99.7457 17.7761 98.0177 18.4081 95.9217 18.4081C93.3457 18.4081 91.2817 17.5441 89.7297 15.8161C88.2417 14.1681 87.4977 12.0641 87.4977 9.50406C87.4977 6.88005 88.2417 4.73605 89.7297 3.07205C91.2657 1.32805 93.3297 0.456055 95.9217 0.456055C97.8737 0.456055 99.5217 0.992054 100.866 2.06405C102.274 3.18405 103.09 4.70405 103.314 6.62405Z" fill="white"/>
<path d="M109.823 18.0001V4.03205H104.687V0.864054H118.727V4.03205H113.591V18.0001H109.823Z" fill="white"/>
<path d="M120.703 18.0001V0.864054H124.471V18.0001H120.703Z" fill="white"/>
<path d="M127.037 9.50406C127.037 6.88005 127.781 4.73605 129.269 3.07205C130.805 1.32805 132.869 0.456055 135.461 0.456055C138.053 0.456055 140.117 1.32805 141.653 3.07205C143.141 4.73605 143.885 6.88005 143.885 9.50406C143.885 12.0641 143.141 14.1681 141.653 15.8161C140.101 17.5441 138.037 18.4081 135.461 18.4081C132.885 18.4081 130.821 17.5441 129.269 15.8161C127.781 14.1681 127.037 12.0641 127.037 9.50406ZM130.805 9.50406C130.805 11.1041 131.157 12.4161 131.861 13.4401C132.693 14.6401 133.893 15.2401 135.461 15.2401C137.029 15.2401 138.229 14.6401 139.061 13.4401C139.765 12.4161 140.117 11.1041 140.117 9.50406C140.117 7.84005 139.765 6.48805 139.061 5.44805C138.245 4.23205 137.045 3.62405 135.461 3.62405C133.877 3.62405 132.677 4.23205 131.861 5.44805C131.157 6.48805 130.805 7.84005 130.805 9.50406Z" fill="white"/>
<path d="M146.46 18.0001V0.864054H150.204L157.356 12.3601H157.404V0.864054H160.932V18.0001H157.164L150.036 6.52805H149.988V18.0001H146.46Z" fill="white"/>
</svg>
