<svg width="138" height="47" viewBox="0 0 138 47" fill="none" xmlns="http://www.w3.org/2000/svg">
<path fill-rule="evenodd" clip-rule="evenodd" d="M35.4871 23.4803L23.0199 0H19.5025L7.07398 23.4803L15.0858 38.5833L16.8444 35.2402L10.6305 23.4803L21.261 3.38248L31.9306 23.4803L19.5025 47H23.0199L35.4871 23.4803ZM28.3741 23.4803L20.4013 8.41668L18.6037 11.7598L24.857 23.4803L14.1874 43.6175L3.51745 23.4803L15.9847 0H12.4281L0 23.4803L12.4281 47H15.9456L28.3741 23.4803Z" fill="white"/>
<path d="M45.7531 24.1728V19.2813L45.66 19.0678C45.6079 18.9554 45.5112 18.7682 45.4442 18.6558C45.3139 18.4311 45.3065 18.3674 45.3697 18.0041L45.4107 17.7682L49.058 17.7607C53.178 17.7494 53.5837 17.7607 54.395 17.9479C55.4595 18.1989 56.2671 18.7532 56.669 19.5135C56.9553 20.0796 57.0912 20.7105 57.0635 21.345C57.0673 22.2439 56.8886 22.8582 56.4048 23.6147C56.2075 23.9219 55.653 24.4762 55.3255 24.6859C55.2352 24.7398 55.1504 24.8025 55.0724 24.8732C55.0724 24.8957 55.2808 25.2702 55.7795 26.1317C56.274 26.9768 56.764 27.8245 57.2496 28.6748L57.3799 28.8883C57.4171 28.9557 57.4506 29.0194 57.4506 29.0306C57.4506 29.0456 56.736 29.0531 55.8614 29.0493L54.2722 29.0381L54.1643 28.8396C53.6403 27.8711 53.1193 26.9011 52.6011 25.9294L52.3406 25.45L50.5021 25.4388L48.6635 25.4313V29.0568H45.7568L45.7531 24.1728ZM52.9659 23.3451C53.4869 23.2589 53.8628 22.8694 54.0452 22.2439C54.1531 21.8619 54.1457 21.2701 54.0266 20.8581C53.9617 20.6657 53.8533 20.4912 53.7099 20.3482C53.5665 20.2052 53.3921 20.0977 53.2003 20.0341C52.7984 19.8955 52.59 19.8843 50.5877 19.8843H48.6635V23.375H50.7179C51.8493 23.375 52.8617 23.36 52.9659 23.3451ZM60.3573 23.4087V17.7532H69.9372V19.8169L66.5913 19.8244L63.2454 19.8356V22.3263L66.2973 22.3376L69.3417 22.345V24.3376L66.2935 24.3488L63.2454 24.3563V26.9819L66.6732 26.9893L70.1009 27.0006V29.0606H60.3536L60.3573 23.4087ZM73.2086 24.1878C73.2086 18.7008 73.2347 19.2513 72.9257 18.7008C72.8565 18.593 72.8003 18.4773 72.7583 18.3562C72.7694 18.3449 72.7918 18.2288 72.8104 18.1015L72.8625 17.8131C72.8811 17.7607 72.9741 17.7569 74.2879 17.7569C75.6166 17.7569 75.6947 17.7569 75.7469 17.8168L76.1786 18.2925C77.0993 19.284 78.0149 20.2803 78.9253 21.2813C79.7297 22.1666 80.5275 23.058 81.3183 23.9556L81.5491 24.2252L81.9287 24.6859C82.0669 24.8576 82.2058 25.0287 82.3456 25.199L82.42 25.2852V17.7569H85.029V29.0568H82.4982L81.5454 28.0044C80.3767 26.7197 80.4809 26.832 79.2155 25.4313C78.8051 24.9755 78.3932 24.5211 77.9799 24.0679C77.3137 23.3444 76.6731 22.5974 76.0595 21.8282L75.8287 21.536L75.8213 25.2964L75.8138 29.0568H73.2049L73.2086 24.1878ZM87.3141 29.0456C87.8726 27.6044 88.4445 26.1686 89.0299 24.7384C89.2261 24.2801 89.4197 23.8206 89.6105 23.3601C89.9993 22.4794 90.3863 21.598 90.7717 20.7158L91.0136 20.1839C91.1777 19.8105 91.3477 19.4397 91.5235 19.0716L91.8882 18.2963L92.1487 17.7569H95.8035L95.9152 17.9966C96.1057 18.41 96.2992 18.822 96.4957 19.2326L96.6595 19.5884C96.9101 20.1218 97.1533 20.6587 97.389 21.1989C97.8508 22.2222 98.2974 23.2523 98.7288 24.2889L99.0079 24.9556C99.0452 25.0305 99.1047 25.1878 99.1494 25.3039C99.6596 26.5427 100.152 27.7888 100.627 29.0418C100.627 29.0531 99.9756 29.0606 99.1754 29.0606H97.7277L97.6718 28.9033C97.4597 28.3251 97.2438 27.7483 97.0242 27.1729L96.9945 27.098H90.9503L90.7977 27.5062L90.299 28.8171L90.2097 29.0606H88.7582C87.9654 29.0606 87.3141 29.0531 87.3141 29.0456ZM96.1347 24.9556C95.823 24.1099 95.4879 23.2731 95.1299 22.4462L94.9252 21.9593C94.7004 21.4466 94.4796 20.9322 94.2627 20.4162L94.1064 20.0491C94.0468 19.9143 93.9836 19.8094 93.9687 19.8169C93.9352 19.8319 93.8942 19.9293 93.4699 20.9143C93.0156 21.9547 92.5776 23.0023 92.1562 24.0567C92.0445 24.2927 91.8063 24.9219 91.8063 24.9593C91.8063 24.9968 92.2232 25.0043 93.9687 25.0043C95.8258 25.0043 96.1347 24.9968 96.1347 24.9556ZM107.036 29.1916C106.72 29.166 106.405 29.1222 106.094 29.0606C105.562 28.9595 105.046 28.7896 104.557 28.5549C104.005 28.3051 103.523 27.921 103.154 27.4372C102.786 26.9534 102.543 26.3851 102.447 25.7833L102.391 25.4687C102.38 25.405 102.361 23.9631 102.346 22.2626L102.328 19.1689L102.119 18.7869L101.911 18.4049L101.944 18.2064L102 17.8805L102.023 17.7569H105.253V21.3712C105.253 25.1429 105.253 25.259 105.391 25.656C105.493 25.9108 105.653 26.1386 105.857 26.3217C106.061 26.5048 106.304 26.6384 106.567 26.7122C106.958 26.8433 107.334 26.8995 107.925 26.9219C109.075 26.9594 109.849 26.8133 110.411 26.4425C110.655 26.2948 110.848 26.0768 110.966 25.817C111.167 25.3863 111.163 25.4575 111.163 21.4274V17.7569H114.007V21.4649C114.007 25.7084 114.007 25.6859 113.746 26.4875C113.468 27.2988 112.91 27.9822 112.172 28.4126C111.816 28.6146 111.439 28.7766 111.048 28.8958C110.503 29.0511 109.945 29.1515 109.381 29.1954C108.938 29.2328 107.494 29.2291 107.036 29.1916ZM117.308 23.4087V17.7532H120.215V27.0006H126.597V29.0606H117.312L117.308 23.4087ZM129.757 24.45L129.746 19.8356L127.576 19.8244L125.403 19.8169V17.7569H137V19.8169H132.638V29.0606H129.761L129.757 24.45Z" fill="white" stroke="white" stroke-width="0.9"/>
</svg>
