<svg width="80" height="43" viewBox="0 0 80 43" fill="none" xmlns="http://www.w3.org/2000/svg">
<g clip-path="url(#clip0_15635_21076)">
<path fill-rule="evenodd" clip-rule="evenodd" d="M44.8762 23.571C43.941 24.2311 42.7118 24.3303 41.7595 23.9013C41.7595 23.9013 41.5 23.8023 41.2577 23.5383C41.0493 23.29 35.7856 17.6289 35.7856 17.6289L35.7685 17.6121C37.3964 17.8929 39.1799 17.1503 40.0976 15.7967C41.0146 14.5091 40.9808 12.677 40.1149 11.3894C39.0763 9.98657 37.0499 9.52455 35.353 9.7388C32.4096 10.1351 30.2972 12.6275 29.6397 15.236C28.9638 18.2064 29.4491 21.0126 30.5059 23.6535C30.7476 24.2151 31.0768 24.7926 31.4752 25.2871C28.3753 24.0003 25.6395 21.6234 24.2028 18.4374C22.6098 15.0042 22.6444 10.6634 24.5319 7.18063C26.0207 4.49019 28.6523 1.99776 31.9078 0.941176C35.3184 -0.39566 39.907 -0.115145 43.2318 1.66748C47.2658 3.58211 50.3131 8.35299 50.3305 12.6113C50.4691 17.0183 48.4251 21.0126 44.8762 23.571Z" fill="white"/>
<path fill-rule="evenodd" clip-rule="evenodd" d="M33.5522 25.2384C32.0461 23.6862 30.8337 21.6728 31.7519 19.5767C32.565 17.9756 33.2924 16.3412 33.6388 14.4923C33.7774 16.424 35.0071 18.1406 35.5951 19.9895C35.8203 20.8805 35.8379 21.8051 35.4743 22.7292C35.0762 23.736 34.4352 24.594 33.6732 25.3698L33.5522 25.2384Z" fill="white"/>
<path fill-rule="evenodd" clip-rule="evenodd" d="M14.5541 42.6806H10.5444C9.65605 41.3521 8.85357 40.2042 8.13264 39.2373C7.37836 38.222 6.60054 37.2244 5.79982 36.2453H4.27721V40.7511C4.27721 40.9835 4.31665 41.1881 4.39208 41.3659C4.46723 41.5397 4.63194 41.677 4.88647 41.7688C5.01173 41.8167 5.23081 41.8609 5.54583 41.8987C5.86112 41.9397 6.12657 41.9637 6.34511 41.9703V42.6809H0.0449219V41.9703C0.21336 41.9562 0.45749 41.933 0.776244 41.8987C1.095 41.8681 1.31727 41.8234 1.44254 41.7688C1.65095 41.6831 1.80447 41.557 1.89775 41.3899C1.99396 41.2222 2.04113 41.0106 2.04113 40.7511V30.4817C2.04113 30.2459 2.00542 30.0413 1.93319 29.8603C1.86576 29.679 1.70052 29.5422 1.4428 29.4499C1.26717 29.3887 1.03823 29.3344 0.758387 29.2859C0.522479 29.2411 0.284306 29.2091 0.0449219 29.1901L0.0449219 28.4798H6.92185C7.55243 28.4798 8.1433 28.5418 8.69552 28.6645C9.24668 28.7875 9.74906 28.9855 10.1973 29.2585C10.6236 29.5178 10.9801 29.8768 11.2362 30.3045C11.4947 30.7348 11.6267 31.2538 11.6267 31.8622C11.6267 32.4089 11.5374 32.894 11.3615 33.3135C11.1882 33.7299 10.9237 34.1023 10.5875 34.4033C10.2722 34.69 9.89192 34.9401 9.45163 35.1483C9.01108 35.3601 8.52335 35.5379 7.99352 35.6843C8.60922 36.4614 9.21956 37.2427 9.82449 38.0282C10.3117 38.6598 10.906 39.4318 11.6155 40.337C11.9238 40.7402 12.1997 41.0338 12.4513 41.2251C12.6983 41.413 12.9451 41.5708 13.1893 41.6898C13.3718 41.7755 13.5973 41.8439 13.8731 41.8913C14.1455 41.936 14.3715 41.9634 14.5541 41.97V42.6806ZM9.0324 32.0908C9.0324 31.2301 8.77388 30.5504 8.25497 30.045C7.73873 29.5425 7.00394 29.2902 6.06154 29.2902H4.27721V35.3841H5.6535C6.61723 35.3841 7.42397 35.0905 8.06441 34.4991C8.71018 33.9086 9.03267 33.1054 9.03267 32.0906L9.0324 32.0908ZM24.0538 40.358C23.6205 41.1474 23.0395 41.7726 22.3129 42.2404C21.5848 42.7081 20.7466 42.9404 19.8039 42.9404C18.9687 42.9404 18.2416 42.8001 17.6148 42.5202C16.9874 42.2404 16.4712 41.8609 16.0668 41.3795C15.6617 40.9007 15.3568 40.3373 15.1567 39.6985C14.9589 39.0563 14.8595 38.38 14.8595 37.666C14.8595 37.0272 14.9667 36.3989 15.1777 35.7801C15.3869 35.1714 15.7066 34.6063 16.1207 34.1132C16.5183 33.6416 17.0124 33.2589 17.6038 32.9688C18.195 32.6782 18.8583 32.5323 19.5931 32.5323C20.3487 32.5323 20.9971 32.6444 21.535 32.8735C22.076 33.0984 22.5136 33.4096 22.847 33.8024C23.1687 34.1784 23.4086 34.6189 23.5666 35.1246C23.7244 35.6334 23.8033 36.1838 23.8033 36.7747V37.4374H16.9485C16.9485 38.0828 17.0124 38.6707 17.1412 39.196C17.2699 39.7257 17.4749 40.1869 17.7576 40.5906C18.0303 40.9763 18.385 41.2802 18.8261 41.5059C19.2666 41.7276 19.7935 41.8407 20.4028 41.8407C21.0257 41.8407 21.5638 41.7002 22.0144 41.4239C22.4632 41.1471 22.8998 40.6484 23.3193 39.9271L24.0538 40.358ZM21.7357 36.5966C21.7357 36.2214 21.7037 35.8216 21.6352 35.3942C21.567 34.9676 21.4627 34.6123 21.3164 34.3254C21.1597 34.0246 20.9319 33.7665 20.6528 33.5735C20.3743 33.3792 20.0118 33.2834 19.5713 33.2834C18.8365 33.2834 18.2275 33.5735 17.7398 34.1577C17.2528 34.7419 16.9909 35.5549 16.9482 36.5966H21.7357ZM29.9057 42.6806H25.0311V42.0446C25.1868 42.031 25.3528 42.0148 25.5295 41.9983C25.6769 41.9887 25.823 41.9645 25.9655 41.9259C26.1556 41.8697 26.2971 41.767 26.3906 41.6225C26.4839 41.4771 26.5359 41.2887 26.5327 41.0582L26.3736 30.5198C26.3722 30.4005 26.3176 30.0567 26.2518 29.8198C26.2219 29.7123 26.1897 29.6261 26.159 29.5928C26.1268 29.5574 26.1159 29.5215 26.0706 29.4829C25.8955 29.3336 26.1129 29.5409 25.9493 29.4022C25.8413 29.3104 25.9938 29.3676 25.67 29.3038C25.3488 29.2407 24.811 29.3823 24.6138 29.3692L24.5962 28.6746L28.2315 28.4856L28.4042 28.6267L28.4183 40.9427C28.4183 41.1671 28.4615 41.351 28.5497 41.4966C28.6374 41.6408 28.7784 41.7542 28.9753 41.8298C29.1165 41.8926 29.2635 41.9412 29.4143 41.9748C29.5601 42.0081 29.7256 42.0307 29.9057 42.0446V42.6806ZM36.1699 42.6806H31.2066V42.0267L31.6999 41.9863C31.871 41.973 32.0163 41.9464 32.1407 41.9048C32.3366 41.8476 32.4824 41.7425 32.5744 41.5935C32.6666 41.4444 32.7169 41.2512 32.7169 41.0141V34.971C32.7169 34.7581 32.6634 34.5646 32.5637 34.3882C32.464 34.2125 32.322 34.0667 32.1407 33.9482C32.0096 33.8671 31.8209 33.7992 31.5691 33.7452C31.3436 33.6916 31.1142 33.6563 30.883 33.6398V32.9965L34.5077 32.7761L34.6529 32.9153V40.8956C34.6529 41.1264 34.699 41.3188 34.7915 41.4716C34.884 41.6206 35.0335 41.735 35.2358 41.8069C35.3882 41.8681 35.538 41.9152 35.6835 41.9522C35.8434 41.9901 36.0061 42.015 36.1699 42.0267V42.6806ZM34.8589 28.9184C34.8589 29.2942 34.731 29.6226 34.4682 29.9039C34.2086 30.1847 33.8891 30.3271 33.505 30.3271C33.1532 30.3271 32.8441 30.1919 32.5848 29.9241C32.3257 29.6567 32.1938 29.3479 32.1938 29.006C32.1938 28.6403 32.3257 28.3252 32.5848 28.0542C32.8443 27.7833 33.1535 27.6478 33.505 27.6478C33.9035 27.6478 34.2265 27.7729 34.4786 28.0276C34.731 28.2844 34.8589 28.5793 34.8589 28.9184ZM47.2421 42.4997C46.9124 42.6122 46.6257 42.7046 46.3786 42.7765C46.1281 42.8449 45.8482 42.8821 45.5332 42.8821C44.9847 42.8821 44.5514 42.7592 44.2249 42.517C43.8989 42.271 43.6913 41.9155 43.6012 41.4511H43.5373C43.0821 41.9291 42.5946 42.2979 42.0714 42.551C41.5514 42.8036 40.9243 42.9303 40.1901 42.9303C39.4126 42.9303 38.7746 42.7043 38.273 42.2506C37.7712 41.796 37.5204 41.202 37.5204 40.4706C37.5204 40.0881 37.5779 39.7499 37.6888 39.4494C37.8025 39.148 37.9742 38.8718 38.1941 38.6363C38.3698 38.4381 38.5987 38.2605 38.8857 38.103C39.1462 37.9582 39.4169 37.8326 39.6957 37.7272C40.0107 37.6151 40.6488 37.403 41.6093 37.0954C42.5735 36.7877 43.2217 36.5492 43.5586 36.3749V35.3841C43.5586 35.2986 43.5407 35.1312 43.501 34.8856C43.4619 34.639 43.3782 34.4017 43.254 34.1851C43.114 33.936 42.9165 33.7207 42.6588 33.5397C42.4048 33.3545 42.0426 33.2629 41.5733 33.2629C41.2508 33.2629 40.9534 33.3137 40.6773 33.4199C40.4014 33.5227 40.2045 33.6313 40.0936 33.7446C40.0936 33.8777 40.1256 34.072 40.1943 34.3352C40.2612 34.5947 40.294 34.834 40.294 35.0564C40.294 35.2883 40.1829 35.5004 39.9643 35.6949C39.7423 35.89 39.4377 35.9856 39.0433 35.9856C38.6957 35.9856 38.438 35.8658 38.273 35.6303C38.1078 35.3942 38.026 35.1278 38.026 34.834C38.026 34.5263 38.1406 34.233 38.3663 33.9528C38.5958 33.673 38.8892 33.4231 39.2554 33.2046C39.5702 33.0167 39.9497 32.8597 40.3977 32.7264C40.8454 32.5965 41.2831 32.5321 41.7098 32.5321C42.2972 32.5321 42.8097 32.5731 43.2508 32.6476C43.6796 32.7211 44.0861 32.8906 44.44 33.1434C44.7984 33.3891 45.0671 33.7236 45.2536 34.147C45.4397 34.5715 45.5335 35.1179 45.5335 35.7838C45.5335 36.7401 45.5223 37.5845 45.5004 38.3218C45.4794 39.06 45.4687 39.8659 45.4687 40.7405C45.4687 41.0002 45.5148 41.2051 45.6118 41.3584C45.7051 41.5128 45.8517 41.6424 46.0455 41.7515C46.1529 41.8096 46.3181 41.8442 46.5433 41.8508C46.7725 41.8572 47.0057 41.8609 47.2421 41.8609V42.4997ZM43.5802 37.2151C42.985 37.3823 42.4619 37.5462 42.0139 37.7067C41.5661 37.8677 41.1503 38.0655 40.7671 38.3082C40.4156 38.5341 40.1397 38.8037 39.9353 39.1141C39.7346 39.422 39.6307 39.7909 39.6307 40.2178C39.6307 40.7713 39.7852 41.1809 40.0896 41.4404C40.3948 41.7002 40.7815 41.8303 41.2468 41.8303C41.7452 41.8303 42.1823 41.714 42.5621 41.4854C42.9389 41.2565 43.2574 40.9835 43.5151 40.6689L43.5802 37.2151ZM59.7018 42.6806H54.6316V42.0217C54.7925 42.0084 54.9714 41.9945 55.1614 41.981C55.3554 41.9671 55.5124 41.94 55.6419 41.899C55.8351 41.841 55.982 41.7348 56.0755 41.5849C56.1718 41.4343 56.2189 41.2397 56.2189 41.0005V35.9243C56.2189 35.2239 56.0433 34.6844 55.6987 34.3049C55.3514 33.9256 54.9285 33.7345 54.4341 33.7345C54.0617 33.7345 53.7214 33.7891 53.4125 33.8982C53.1084 34.0076 52.8323 34.1441 52.5959 34.3049C52.3664 34.4584 52.1801 34.6226 52.0437 34.8004C51.9078 34.9779 51.8078 35.1182 51.7468 35.2236V40.9009C51.7468 41.1266 51.7929 41.3148 51.8939 41.4617C51.9909 41.6081 52.137 41.7212 52.3344 41.7997C52.4866 41.8688 52.6465 41.9194 52.8107 41.9503C52.9829 41.9839 53.1585 42.0084 53.3413 42.0217V42.6809H48.2706V42.0217C48.4316 42.0084 48.5968 41.9945 48.7685 41.981C48.9203 41.9707 49.0706 41.9432 49.2162 41.899C49.4102 41.841 49.5568 41.7348 49.6506 41.5849C49.7476 41.4343 49.794 41.2397 49.794 41.0005V34.9058C49.794 34.6769 49.7434 34.4685 49.6394 34.2809C49.5403 34.0918 49.3948 33.9308 49.2165 33.813C49.084 33.7345 48.926 33.6765 48.7434 33.6387C48.5494 33.6004 48.3531 33.5754 48.1557 33.5637V32.9148L51.5991 32.6928L51.7468 32.8326V34.2229H51.7966C51.9651 34.0659 52.1767 33.871 52.4269 33.6491C52.6783 33.4269 52.9186 33.2424 53.1407 33.103C53.4024 32.9422 53.7105 32.8086 54.0649 32.7024C54.4237 32.5968 54.8248 32.5422 55.2731 32.5422C56.2653 32.5422 57.0033 32.8392 57.4836 33.4269C57.9638 34.0182 58.1997 34.8039 58.1997 35.7838V40.9185C58.1997 41.1538 58.2437 41.3422 58.3297 41.4857C58.4118 41.6294 58.5549 41.7417 58.7594 41.8205C58.9273 41.8886 59.0709 41.9333 59.193 41.9599C59.3151 41.9871 59.487 42.0084 59.702 42.0217L59.7018 42.6806ZM65.7613 42.9404C64.2635 42.9404 63.0916 42.4656 62.2427 41.5192C61.3966 40.5733 60.9741 39.3022 60.9741 37.7067C60.9741 37.0137 61.0887 36.3648 61.3145 35.7599C61.5436 35.1559 61.8799 34.5981 62.3072 34.1132C62.719 33.6416 63.2384 33.2589 63.8621 32.9688C64.4823 32.6782 65.1627 32.5323 65.8972 32.5323C66.9116 32.5323 67.7397 32.7642 68.3737 33.2286C69.012 33.693 69.3305 34.3251 69.3305 35.1246C69.3305 35.4591 69.2479 35.7527 69.0794 36.0095C68.9113 36.2685 68.6346 36.3954 68.2479 36.3954C67.8359 36.3954 67.5171 36.2959 67.2879 36.0944C67.0619 35.8967 66.9476 35.6712 66.9476 35.4248C66.9476 35.1246 66.9905 34.8169 67.0728 34.4991C67.1589 34.1819 67.2053 33.9498 67.2194 33.8024C67.0944 33.5975 66.9081 33.4577 66.6576 33.3891C66.4103 33.3172 66.1413 33.2831 65.854 33.2831C65.5232 33.2826 65.196 33.3524 64.8943 33.4881C64.5897 33.6249 64.2957 33.878 64.0089 34.2431C63.7478 34.5782 63.5399 35.029 63.3781 35.5957C63.2177 36.1631 63.1345 36.8391 63.1345 37.6253C63.1345 38.8681 63.4247 39.8795 64.002 40.6651C64.5785 41.4479 65.3389 41.8407 66.2738 41.8407C66.9545 41.8407 67.524 41.6831 67.9835 41.3694C68.4385 41.0548 68.8641 40.5864 69.2556 39.958L69.9288 40.3785C69.4667 41.1674 68.8574 41.7896 68.1016 42.2506C67.3449 42.7118 66.564 42.9404 65.7616 42.9404H65.7613ZM79.9333 40.358C79.5002 41.1474 78.9198 41.7726 78.1924 42.2404C77.4648 42.7081 76.6264 42.9404 75.6843 42.9404C74.849 42.9404 74.1217 42.8001 73.4945 42.5202C72.8672 42.2404 72.3512 41.8609 71.9461 41.3795C71.5418 40.9007 71.2372 40.3373 71.0362 39.6985C70.8392 39.0563 70.7382 38.38 70.7382 37.666C70.7382 37.0272 70.8459 36.3989 71.0578 35.7801C71.2669 35.1715 71.5863 34.6065 71.9999 34.1132C72.3981 33.6416 72.8919 33.2589 73.4836 32.9688C74.075 32.6782 74.7381 32.5323 75.4724 32.5323C76.2287 32.5323 76.8769 32.6444 77.4142 32.8735C77.9558 33.0984 78.3931 33.4096 78.726 33.8024C79.0485 34.1784 79.2884 34.6189 79.4461 35.1246C79.6042 35.6334 79.6828 36.1838 79.6828 36.7747V37.4374H72.8275C72.8275 38.0828 72.892 38.6707 73.0212 39.196C73.1499 39.7257 73.3549 40.1869 73.6379 40.5906C73.9106 40.9763 74.265 41.2802 74.7051 41.5059C75.1459 41.7276 75.6731 41.8407 76.282 41.8407C76.9062 41.8407 77.4433 41.7002 77.895 41.4239C78.3425 41.1471 78.7801 40.6484 79.1993 39.9271L79.9333 40.358ZM77.6152 36.5966C77.6152 36.2214 77.5832 35.8216 77.515 35.3942C77.4465 34.9676 77.3428 34.6123 77.1965 34.3254C77.0397 34.0248 76.8123 33.7668 76.5336 33.5735C76.2535 33.3792 75.8921 33.2834 75.451 33.2834C74.716 33.2834 74.1073 33.5735 73.6198 34.1577C73.1321 34.7419 72.8709 35.5549 72.8275 36.5966H77.6152Z" fill="white"/>
</g>
<defs>
<clipPath id="clip0_15635_21076">
<rect width="80" height="43" fill="white"/>
</clipPath>
</defs>
</svg>
