<svg width="169" height="19" viewBox="0 0 169 19" fill="none" xmlns="http://www.w3.org/2000/svg">
<path d="M5.62453 0C1.39999 0 0 3.32747 0 5.00977C0 9.71647 4.11401 10.236 4.86313 10.4525C7.85961 11.3617 9.72626 11.2998 9.72626 13.7738C9.72626 15.2829 8.47364 16.4395 7.02452 16.4395C4.57454 16.4395 2.99648 14.7572 2.70174 12.3574H0.159648V18.5671H2.757V17.4229C4.05261 18.5114 5.63067 19 7.30084 19C10.5982 19 12.9806 16.7363 12.9806 13.3346C12.9806 9.40723 10.6166 8.51042 8.17276 7.7806C5.72278 7.05697 3.25437 6.68587 3.25437 4.94792C3.25437 3.38932 4.32278 2.4987 5.79646 2.4987C6.79733 2.4987 7.60171 2.88216 8.22803 3.47591C8.82364 4.05729 9.27188 4.86133 9.46837 5.8138H11.9552V0.383464H9.30872V1.52767C8.33241 0.59375 7.03066 0 5.63067 0H5.62453ZM23.5727 0C19.2499 0 14.4359 2.96875 14.4359 9.36393C14.4359 14.7943 18.4271 19 23.6279 19C27.5516 19 30.6893 16.8724 31.7393 12.5182H28.7674C27.7665 14.5283 26.3358 15.9508 23.6341 15.9508C19.8087 15.9508 17.6841 12.9512 17.6841 9.46908C17.6841 5.98698 19.8578 2.9873 23.6341 2.9873C24.6595 2.9873 25.7034 3.33984 26.5569 3.91504C27.4042 4.47786 28.092 5.23242 28.3437 6.25293H30.9411V0.383464H28.3437V1.58333C26.8885 0.204102 24.156 0.0061849 23.585 0.0061849L23.5727 0ZM33.5753 0.383464V2.88835H35.5217V16.1178H33.5753V18.5671H40.7103V16.1178H38.7638V10.3473H45.1989V16.1178H43.3077V18.5671H50.3875V16.1178H48.441V2.88835H50.3875V0.383464H43.3077V2.88835H45.1989V7.46517H38.7638V2.88835H40.7103V0.383464H33.5753ZM56.4418 0.383464V2.88835H58.4436L53.955 16.1178H52.4383V18.5671H58.9225V16.1178H56.976L58.2225 12.5739H63.6812L64.9216 16.1178H62.9198V18.5671H69.5698V16.1178H68.2189L63.8409 2.88835H65.7874V0.383464H56.4357H56.4418ZM72.2286 0.383464V2.88835H74.175V16.1178H72.2286V18.5671H86.118V13.1243H83.2504V16.1178H77.411V10.3473H82.4399V7.45899H77.411V2.88835H83.2504V5.22624H86.118V0.383464H72.2286ZM89.4767 0.383464V2.88835H91.4232V16.1178H89.4767V18.5671H96.7714V16.1178H94.6591V10.3473H100.063V7.45899H94.6591V2.88835H100.714V5.22624H103.581V0.383464H89.4706H89.4767ZM105.749 0.383464V2.88835H107.695V16.1178H105.749V18.5671H113.043V16.1178H110.931V10.3473H116.334V7.45899H110.931V2.88835H116.985V5.22624H119.853V0.383464H105.742H105.749ZM122.671 0.383464V2.88835H124.722V16.1178H122.671V18.5671H135.105V13.1738H132.238V16.1178H127.964V2.88835H130.181V0.383464H122.665H122.671ZM136.941 0.383464V2.88835H138.833V16.1178H136.941V18.5671H150.831V13.1243H147.963V16.1178H142.075V10.3473H147.104V7.45899H142.075V2.88835H147.963V5.22624H150.831V0.383464H136.941ZM153.698 0.383464V2.88835H155.645V16.1178H153.698V18.5671H160.889V16.1178H158.887V10.3473H160.833C162.16 10.3473 163.971 10.4896 163.971 12.1966V18.5671H169V16.1178H167.213V11.9801C167.213 10.873 167.041 9.59277 164.996 9.0918V9.03613C166.894 8.2321 167.809 7.06934 167.809 4.9541C167.809 4.67578 167.876 3.50684 167.053 2.44922C165.359 0.179362 162.718 0.383464 161.484 0.383464H153.704H153.698ZM158.887 2.89453H160.612C162.307 2.89453 164.616 2.89453 164.616 5.12728C164.616 7.5765 162.792 7.84863 160.993 7.84863H158.881V2.88835L158.887 2.89453ZM60.9856 3.98307H61.0409L63.0426 10.0814H58.9348L60.9856 3.98307Z" fill="white"/>
</svg>
