<svg width="159" height="17" viewBox="0 0 159 17" fill="none" xmlns="http://www.w3.org/2000/svg">
<path d="M9.43341 3.32947C8.66972 2.75259 7.83462 2.49986 6.81821 2.49986C5.74685 2.49986 4.84582 3.17564 4.84582 3.99426C4.84582 4.47225 5.13151 4.86233 5.93365 5.13154L7.2907 5.59305C8.81807 6.09851 9.61471 6.91713 9.61471 8.2577C9.61471 10.8289 7.42256 12.9332 3.88984 12.9332C2.22512 12.9332 0.983448 12.4937 0 11.8618L1.25266 10.0433C2.2416 10.6257 3.12066 10.9608 4.30739 10.9608C5.80729 10.9608 6.77425 10.1806 6.77425 9.0049C6.77425 8.41153 6.36769 8.01596 5.5161 7.73026L4.27443 7.30722C2.93386 6.8512 2.11524 6.2029 2.11524 4.82387C2.12623 2.44492 4.36783 0.510986 7.16983 0.510986C8.61478 0.510986 9.99381 0.950516 10.8619 1.69772L9.43341 3.32947Z" fill="white"/>
<path d="M15.7902 5.53821H14.2793L13.3618 9.90603C13.2958 10.1917 13.2739 10.4719 13.2739 10.6697C13.2739 11.1422 13.5266 11.3015 14.043 11.3015C14.2463 11.3015 14.6364 11.2301 14.8891 11.1312V12.5102C14.2298 12.763 13.5486 12.8838 12.9552 12.8838C11.6476 12.8838 10.9004 12.241 10.9004 11.3894C10.9004 11.0818 10.9334 10.6752 11.0213 10.2686L12.0212 5.5437H11.1531L11.4883 3.97788H12.3563C12.5267 3.12629 12.642 2.56589 12.8838 1.92307L15.2792 1.34619C15.021 2.14284 14.7683 3.09882 14.5815 3.97788H16.6033L15.7847 5.5437L15.7902 5.53821Z" fill="white"/>
<path d="M21.3125 5.57099C20.7466 5.57099 20.3291 5.60395 19.7137 6.31819C18.9995 7.16428 18.6424 8.88394 18.6424 10.0377C18.6424 10.8234 18.8457 11.1585 19.3401 11.1585C20.0544 11.1585 20.7851 10.4278 21.0213 9.80146L21.9224 5.70285C21.818 5.63692 21.5158 5.56549 21.3125 5.56549V5.57099ZM23.9497 6.53795L23.2519 9.83442C23.0981 10.5816 23.164 11.0871 23.5706 11.5376L21.6861 12.9441C21.2796 12.6749 21.0928 12.2189 21.0268 11.8727C20.3785 12.554 19.6643 12.9111 18.7138 12.9111C17.1315 12.9111 16.3184 11.9442 16.3184 10.1421C16.3184 8.05433 17.115 6.20281 18.1534 5.16442C19.1039 4.21394 20.1752 3.80737 21.6202 3.80737C22.6421 3.80737 23.7794 3.97769 24.5101 4.40074C24.3233 4.92817 24.0816 5.88415 23.9497 6.54345" fill="white"/>
<path d="M28.4383 3.68665C28.5922 3.97234 28.6911 4.72504 28.6581 5.09864C29.3833 4.31847 30.3228 3.79103 31.592 3.79103C32.6963 3.79103 33.3446 4.45033 33.3446 5.5052C33.3446 5.8788 33.2896 6.35679 33.2072 6.73039L31.9491 12.675H29.7075L30.9162 7.01608C30.9821 6.67545 31.0316 6.42272 31.0316 6.23592C31.0316 5.80738 30.8448 5.692 30.4382 5.692C29.8943 5.692 29.2515 6.03264 28.5372 6.9996L27.3285 12.675H25.0869L26.3286 6.8128C26.5319 5.86232 26.5154 5.11512 26.3286 4.51626L28.4383 3.68115V3.68665Z" fill="white"/>
<path d="M38.4083 2.70299L37.0293 9.1421C36.8095 10.164 36.7436 10.5871 36.7436 10.8288C36.7436 11.1475 36.8809 11.3233 37.1831 11.3233C37.271 11.3233 37.3534 11.3233 37.4358 11.2903L37.5402 12.6528C37.1337 12.8067 36.6227 12.8891 36.1282 12.8891C34.9085 12.8891 34.3262 12.2243 34.3262 11.3288C34.3262 11.0211 34.447 10.3728 34.5789 9.74645L35.9524 3.2524C36.1942 2.11511 36.326 1.31297 36.1612 0.736089L38.5731 0.00537109C38.6445 0.395454 38.6446 1.60416 38.4028 2.70848" fill="white"/>
<path d="M42.387 7.55986C43.3759 7.55986 44.5132 7.21923 44.5132 6.35665C44.5132 5.82921 44.2769 5.45561 43.5957 5.45561C42.7276 5.45561 42.0793 5.96657 41.7387 7.47745C41.7387 7.47745 42.0793 7.55986 42.387 7.55986ZM45.7329 11.7244C44.5626 12.5375 43.4254 12.9111 42.2002 12.9111C40.1289 12.9111 38.9092 11.8233 38.9092 9.71905C38.9092 7.91698 39.7058 6.06546 40.8651 4.93917C41.7277 4.10955 42.6946 3.7854 43.8539 3.7854C45.5681 3.7854 46.8042 4.46118 46.8042 6.16436C46.8042 7.86753 45.2933 9.15316 42.4034 9.15316C41.8101 9.15316 41.3651 9.03229 41.3651 9.03229C41.3651 9.03229 41.2826 9.59269 41.2826 9.81245C41.2826 10.8014 41.7936 11.2025 42.7441 11.2025C43.5242 11.2025 44.3374 10.8618 45.156 10.2849L45.7329 11.7134V11.7244Z" fill="white"/>
<path d="M50.271 3.84058L50.6996 8.92264C50.7325 9.44458 50.7655 10.7247 50.7655 10.7247C50.7655 10.7247 51.3589 9.21383 51.9358 8.12599L54.1279 3.97793H56.5728L51.5292 12.818C50.5787 14.4992 49.9798 15.2299 49.2491 15.6859C48.5843 16.109 47.7932 16.3837 46.9746 16.4826L46.5186 14.9552C47.046 14.8343 47.6558 14.6475 48.0459 14.4113C48.7437 13.9882 49.0129 13.5981 49.5568 12.6806H48.9305C48.8975 12.0323 48.8096 10.9829 48.7107 10.2357L47.9305 4.12078L50.2765 3.85156L50.271 3.84058Z" fill="white"/>
<path d="M60.0009 5.59286H61.3964C62.0447 5.59286 62.3524 5.45551 62.6381 5.25223C63.0117 4.98302 63.3523 4.50503 63.3523 3.92815C63.3523 3.19743 63.0282 2.88976 62.0447 2.88976H60.5668L60.0009 5.59286ZM58.9186 10.7409H60.4624C60.9569 10.7409 61.3799 10.6035 61.6821 10.4002C62.2096 10.0431 62.5832 9.31239 62.5832 8.6476C62.5832 7.81798 62.1271 7.54328 61.0723 7.54328H59.5944L58.9186 10.7409ZM62.8359 0.86792C64.6215 0.86792 65.9071 1.71951 65.9071 3.41719C65.9071 4.57096 65.1819 5.89504 63.4293 6.41149C64.5171 6.64774 65.1984 7.59822 65.1984 8.70254C65.1984 9.44974 64.8907 10.609 64.094 11.4221C63.226 12.3067 62.2425 12.6748 60.4075 12.6748H56.1221L58.6439 0.86792H62.8414H62.8359Z" fill="white"/>
<path d="M70.605 2.70299L69.2259 9.1421C69.0062 10.164 68.9347 10.5871 68.9347 10.8288C68.9347 11.1475 69.0721 11.3233 69.3798 11.3233C69.4622 11.3233 69.5501 11.3233 69.6325 11.2903L69.7369 12.6528C69.3303 12.8067 68.8194 12.8891 68.3249 12.8891C67.1052 12.8891 66.5283 12.2243 66.5283 11.3288C66.5283 11.0211 66.6492 10.3728 66.781 9.74645L68.1601 3.2524C68.3963 2.11511 68.5392 1.31297 68.3634 0.736089L70.7753 0.00537109C70.8412 0.395454 70.8412 1.60416 70.605 2.70848" fill="white"/>
<path d="M76.3519 5.57099C75.7915 5.57099 75.363 5.60395 74.7532 6.31819C74.0444 7.16428 73.6873 8.88394 73.6873 10.0377C73.6873 10.8234 73.8906 11.1585 74.385 11.1585C75.0993 11.1585 75.83 10.4278 76.0662 9.80146L76.9673 5.70285C76.8629 5.63692 76.5607 5.56549 76.3574 5.56549L76.3519 5.57099ZM78.9891 6.53795L78.2914 9.83442C78.1375 10.5816 78.209 11.0871 78.6155 11.5376L76.7255 12.9441C76.319 12.6749 76.1322 12.2189 76.0662 11.8727C75.4234 12.554 74.7092 12.9111 73.7587 12.9111C72.1764 12.9111 71.3633 11.9442 71.3633 10.1421C71.3633 8.05433 72.1654 6.20281 73.2038 5.16442C74.1543 4.21394 75.2202 3.80737 76.6651 3.80737C77.687 3.80737 78.8243 3.97769 79.555 4.40074C79.3682 4.92817 79.1265 5.88415 78.9946 6.54345" fill="white"/>
<path d="M86.2574 6.18659C85.8838 5.76354 85.3948 5.53828 84.9663 5.53828C84.5377 5.53828 84.2026 5.7086 83.8949 6.04923C83.2686 6.76347 82.6917 8.56005 82.6917 9.90611C82.6917 10.8071 83.1148 11.1972 83.7301 11.1972C84.3454 11.1972 84.9883 10.8401 85.6311 10.3292L86.3948 11.7411C85.4443 12.4719 84.4773 12.8949 83.1972 12.8949C81.2632 12.8949 80.2139 11.7741 80.2139 9.90611C80.2139 7.74692 81.2193 5.77453 82.4225 4.75812C83.2027 4.09333 84.0707 3.71973 85.2794 3.71973C86.0761 3.71973 86.9606 4.04388 87.587 4.75812L86.2629 6.18659H86.2574Z" fill="white"/>
<path d="M96.668 3.97774L93.1188 7.75221L95.4648 12.6804H92.7781L90.9101 7.75221L93.8495 3.97774H96.668ZM92.0969 0C92.2122 0.423047 92.1958 1.46144 91.8112 3.27999L89.8058 12.6749H87.5312L89.5751 3.12616C89.8278 1.91745 89.8608 1.22519 89.7454 0.730718L92.0969 0Z" fill="white"/>
<path d="M102.976 3.77447C102.976 3.28 102.635 2.93936 102.129 2.93936C101.382 2.93936 100.756 3.56569 100.756 4.33487C100.756 4.69199 100.91 5.08207 101.432 5.69192C102.399 5.30183 102.976 4.53815 102.976 3.77447ZM98.9373 10.0103C98.9373 10.7905 99.5142 11.252 100.531 11.252C101.344 11.252 102.009 11.0322 102.465 10.6421L100.256 7.98846C99.4098 8.44447 98.9373 9.14223 98.9373 10.0103ZM106.514 6.90062C106.316 8.05439 105.832 9.37847 105.223 10.2301L107.173 12.6749H104.168L103.591 11.9277C102.761 12.5101 101.756 12.9167 100.108 12.9167C97.7506 12.9167 96.4375 11.7464 96.4375 10.1971C96.4375 8.77412 97.4209 7.51047 99.2944 6.7358C98.5912 6.08749 98.4044 5.52709 98.4044 4.77989C98.4044 2.89541 100.157 1.36255 102.448 1.36255C104.201 1.36255 105.305 2.23062 105.305 3.47229C105.305 4.77989 104.827 5.76883 102.684 6.75228L102.465 6.85667L104.03 8.74115C104.338 8.26317 104.574 7.23027 104.607 6.90612H106.508L106.514 6.90062Z" fill="white"/>
<path d="M111.134 10.7409H112.305C113.321 10.7409 114.09 10.1805 114.513 9.51567C115.568 7.86743 115.788 5.48848 115.788 4.86215C115.788 3.77431 115.48 2.73592 113.903 2.73592H112.827L111.129 10.7409H111.134ZM113.53 0.86792C115.497 0.86792 116.705 1.08768 117.453 2.02169C117.997 2.71944 118.354 3.4996 118.354 4.89511C118.354 6.83454 117.656 9.36183 116.2 10.9112C114.958 12.2243 113.772 12.6803 111.167 12.6803H108.294L110.81 0.86792H113.535H113.53Z" fill="white"/>
<path d="M122.437 7.55986C123.426 7.55986 124.563 7.21923 124.563 6.35665C124.563 5.82921 124.327 5.45561 123.651 5.45561C122.783 5.45561 122.14 5.96657 121.794 7.47745C121.794 7.47745 122.14 7.55986 122.442 7.55986H122.437ZM125.788 11.7244C124.618 12.5375 123.481 12.9111 122.255 12.9111C120.184 12.9111 118.959 11.8233 118.959 9.71905C118.959 7.91698 119.761 6.06546 120.915 4.93917C121.777 4.10955 122.75 3.7854 123.904 3.7854C125.618 3.7854 126.86 4.46118 126.86 6.16436C126.86 7.86753 125.349 9.15316 122.459 9.15316C121.865 9.15316 121.426 9.03229 121.426 9.03229C121.426 9.03229 121.343 9.59269 121.343 9.81245C121.343 10.8014 121.849 11.2025 122.805 11.2025C123.585 11.2025 124.404 10.8618 125.217 10.2849L125.794 11.7134L125.788 11.7244Z" fill="white"/>
<path d="M133.667 6.18659C133.293 5.76354 132.799 5.53828 132.376 5.53828C131.953 5.53828 131.607 5.7086 131.304 6.04923C130.673 6.76347 130.096 8.56005 130.096 9.90611C130.096 10.8071 130.519 11.1972 131.129 11.1972C131.738 11.1972 132.387 10.8401 133.035 10.3292L133.799 11.7411C132.848 12.4719 131.881 12.8949 130.607 12.8949C128.667 12.8949 127.612 11.7741 127.612 9.90611C127.612 7.74692 128.618 5.77453 129.826 4.75812C130.607 4.09333 131.475 3.71973 132.678 3.71973C133.475 3.71973 134.359 4.04388 134.991 4.75812L133.667 6.18659Z" fill="white"/>
<path d="M144.083 3.97774L140.533 7.75221L142.879 12.6804H140.193L138.319 7.75221L141.264 3.97774H144.083ZM139.512 0C139.632 0.423047 139.616 1.46144 139.22 3.27999L137.215 12.6749H134.94L136.979 3.12616C137.231 1.91745 137.27 1.22519 137.149 0.730718L139.512 0Z" fill="white"/>
<path d="M147.313 7.55986C148.296 7.55986 149.439 7.21923 149.439 6.35665C149.439 5.82921 149.203 5.45561 148.516 5.45561C147.654 5.45561 147.005 5.96657 146.665 7.47745C146.665 7.47745 147.005 7.55986 147.313 7.55986ZM150.659 11.7244C149.489 12.5375 148.351 12.9111 147.126 12.9111C145.049 12.9111 143.824 11.8233 143.824 9.71905C143.824 7.91698 144.626 6.06546 145.78 4.93917C146.648 4.10955 147.615 3.7854 148.774 3.7854C150.489 3.7854 151.725 4.46118 151.725 6.16436C151.725 7.86753 150.214 9.15316 147.324 9.15316C146.731 9.15316 146.286 9.03229 146.286 9.03229C146.286 9.03229 146.203 9.59269 146.203 9.81245C146.203 10.8014 146.714 11.2025 147.665 11.2025C148.45 11.2025 149.263 10.8618 150.077 10.2849L150.653 11.7134L150.659 11.7244Z" fill="white"/>
<path d="M155.588 3.68652C155.726 3.97222 155.863 4.60404 155.792 5.09851C156.555 4.31835 157.368 3.77443 158.22 3.77443C158.544 3.77443 158.698 3.80739 159 3.96123L158.017 5.96658C157.813 5.84571 157.605 5.79627 157.352 5.79627C156.912 5.79627 156.418 6.049 155.704 6.983L154.495 12.6749H152.215L153.44 6.93355C153.676 5.84571 153.643 5.08203 153.473 4.52163L155.577 3.68652H155.588Z" fill="white"/>
</svg>
