<svg width="156" height="20" viewBox="0 0 156 20" fill="none" xmlns="http://www.w3.org/2000/svg">
<g clip-path="url(#clip0_317_7411)">
<path d="M0 0.0495114C0.45344 1.79415 1.9873 3.5718 4.09775 4.01759H10.4627L10.7874 4.14417V19.9339H14.762V4.14417L15.1258 4.01759H21.4964C23.6236 3.47824 25.1295 1.78864 25.5718 0.0495114V0.0109863H0V0.0495114Z" fill="white"/>
<path d="M39.3377 19.978H54.458C56.5628 19.5652 58.1247 17.7435 58.5613 15.9824H35.2344C35.671 17.749 37.2553 19.5707 39.3377 19.978Z" fill="white"/>
<path d="M39.3377 11.8822H54.458C56.5628 11.4749 58.1247 9.65325 58.5613 7.8866H35.2344C35.671 9.65325 37.2553 11.4749 39.3377 11.8822Z" fill="white"/>
<path d="M39.3377 4.0011H54.458C56.5628 3.58833 58.1247 1.76665 58.5613 0H35.2344C35.671 1.76665 37.2553 3.58833 39.3377 4.0011Z" fill="white"/>
<path d="M73.8215 3.96257H87.7886C89.8935 3.36268 91.6624 1.78316 92.0935 0.03302H69.9029V11.8217H88.0629V15.9604L73.8159 15.9714C71.5823 16.5823 69.6902 18.0572 68.7441 20.0055L69.8973 19.9835H91.9591V7.90313H73.8103V3.96257" fill="white"/>
<path d="M121.365 19.9835C123.347 19.158 124.416 17.727 124.825 16.0539H107.18L107.191 0.0275269L103.233 0.038534V19.9835H121.36" fill="white"/>
<path d="M136.77 4.01214H151.896C153.995 3.59937 155.557 1.77769 156 0.0165405H132.667C133.104 1.77769 134.688 3.60487 136.77 4.01214Z" fill="white"/>
<path d="M133.277 7.91412V19.9725H137.213V11.9427H151.532V19.9725H155.462V7.93614L133.283 7.91412" fill="white"/>
</g>
<defs>
<clipPath id="clip0_317_7411">
<rect width="156" height="20" fill="white"/>
</clipPath>
</defs>
</svg>
