<svg width="136" height="24" viewBox="0 0 136 24" fill="none" xmlns="http://www.w3.org/2000/svg">
<path d="M12.5389 21.1125L0.161125 3.84826C-0.196552 3.34804 0.0689961 2.94574 0.684093 2.94574H4.68629C5.27158 2.94574 5.66177 3.16277 5.9788 3.60741L17.5546 19.8183C17.8851 20.2814 18.3024 20.2814 18.633 19.8183L30.1464 3.61006C30.4635 3.16542 30.8537 2.94839 31.4389 2.94839H35.3192C35.9343 2.94839 36.1998 3.35068 35.8422 3.8509L23.4671 21.1151C22.0309 23.116 20.8495 24.0026 18.0477 24.0026C15.5846 24.0026 13.948 23.0843 12.5362 21.1151L12.5389 21.1125ZM43.1122 6.28584C48.9624 6.28584 52.7506 8.75254 52.7506 14.2867C52.7506 14.7975 52.7207 15.3983 52.6584 15.9118C52.5961 16.3617 52.2899 16.5734 51.8591 16.5734H37.5547C38.308 19.8156 41.4783 20.0935 44.44 20.0935C47.0277 20.0935 48.9651 19.8818 50.8755 19.4027C51.3984 19.2519 51.6748 19.4319 51.6748 19.9744V22.0203C51.6748 22.5311 51.4282 22.8937 50.8755 23.0419C48.6264 23.7036 46.6267 24.0053 44.2259 24.0053C37.2377 24.0053 32.8642 21.4195 32.8642 15.2845C32.8642 9.75033 36.5277 6.29113 43.1177 6.29113L43.1122 6.28584ZM48.2417 13.2625C47.8108 10.8699 46.0793 9.89325 43.1447 9.89325C40.2102 9.89325 38.2158 10.9096 37.5926 13.2625H48.2444H48.2417ZM55.1513 13.3816C55.1513 8.41906 58.5086 6.25408 62.8793 6.25408C63.7112 6.25408 64.4807 6.31495 65.0958 6.40494C65.5267 6.49493 65.7435 6.76489 65.7435 7.18571V9.83238C65.7435 10.2823 65.4969 10.494 65.0362 10.4332C64.6352 10.4041 64.2667 10.3723 63.8982 10.3723C60.9717 10.3723 59.7713 11.5448 59.7713 13.6515V22.8249C59.7713 23.2748 59.4949 23.5474 59.0316 23.5474H55.8911C55.4304 23.5474 55.1513 23.2775 55.1513 22.8249V13.3842V13.3816ZM76.1811 6.25408C78.7066 6.25408 81.3539 6.64579 82.9255 7.03485C83.3266 7.12484 83.5108 7.3948 83.5108 7.7865V10.3723C83.5108 10.8222 83.2642 11.0049 82.8036 10.8831C80.7415 10.4623 78.2161 10.1023 75.7828 10.0706C73.382 10.0415 72.1817 10.4014 72.1817 11.2748C72.1817 12.3282 73.168 12.5082 76.4602 12.9581C81.5707 13.6489 84.6814 14.3105 84.6814 18.2805C84.6814 21.9197 82.2183 23.9947 75.4739 23.9947C72.794 23.9947 70.1169 23.603 68.2987 23.0922C67.9302 23.0022 67.7432 22.7322 67.7432 22.3405V19.6939C67.7432 19.2122 67.9898 19.0613 68.4829 19.2122C70.6371 19.813 73.4389 20.1438 75.8099 20.1438C78.8881 20.1438 80.121 19.4821 80.121 18.6405C80.121 17.558 79.0128 17.2272 74.3928 16.6555C69.5289 16.0547 67.5887 14.7314 67.5887 11.603C67.5887 8.17556 70.144 6.24879 76.1784 6.24879L76.1811 6.25408ZM86.8654 7.42656C86.8654 6.97662 87.1418 6.70401 87.6051 6.70401H90.7457C91.2063 6.70401 91.4854 6.97397 91.4854 7.42656V16.1209C91.4854 19.85 94.103 20.1809 96.3493 20.1809C98.937 20.1809 101.367 19.7309 101.367 16.1209V7.4292C101.367 6.97927 101.644 6.70666 102.107 6.70666H105.248C105.708 6.70666 105.987 6.97662 105.987 7.4292V16.8725C105.987 22.4358 101.522 24 96.4414 24C90.9597 24 86.8654 22.015 86.8654 16.8725V7.4292V7.42656ZM108.635 13.3816C108.635 7.81826 113.13 6.25408 118.241 6.25408C123.752 6.25408 127.879 8.23908 127.879 13.3816V22.8249C127.879 23.2748 127.602 23.5474 127.139 23.5474H123.999C123.538 23.5474 123.259 23.2775 123.259 22.8249V14.1359C123.259 10.4067 120.612 10.0759 118.333 10.0759C115.715 10.0759 113.252 10.5258 113.252 14.1359V22.8275C113.252 23.2775 112.976 23.5501 112.512 23.5501H109.372C108.911 23.5501 108.632 23.2801 108.632 22.8275V13.3842L108.635 13.3816ZM130.312 2.07499C130.312 0.751654 131.144 0 132.561 0H133.209C134.656 0 135.488 0.751654 135.488 2.07499V2.70754C135.488 3.94089 134.656 4.63167 133.209 4.63167H132.561C131.144 4.63167 130.312 3.94089 130.312 2.70754V2.07499ZM130.589 7.4292C130.589 6.97927 130.865 6.70666 131.328 6.70666H134.469C134.929 6.70666 135.209 6.97662 135.209 7.4292V17.3939C135.209 17.9259 135.1 18.307 134.789 18.7437L131.58 23.2192C131.388 23.4865 131.269 23.6109 131.022 23.6109C130.776 23.6109 130.591 23.3992 130.591 22.9493V7.4292H130.589Z" fill="white"/>
</svg>
