<svg width="108" height="24" viewBox="0 0 108 24" fill="none" xmlns="http://www.w3.org/2000/svg">
<g clip-path="url(#clip0_18301_3389)">
<path d="M91.9277 0.169312H99.6054V20.5454H108V23.8349H91.9277V0.169312Z" fill="white"/>
<path d="M74.9395 0.169312H90.2083V2.96134H82.2938V10.8506H89.4916V13.6447H82.2938V20.5454H90.6922V23.8349H74.9395V0.169312Z" fill="white"/>
<path d="M55.1504 0.169312H73.6155V3.21323H68.1785V23.8349H60.8263V3.21323H55.1504V0.169312Z" fill="white"/>
<path d="M54.2276 0H47.9854C47.9854 0 40.5714 0.273064 40.0009 7.35368C39.4304 14.4343 47.1184 14.2882 48.5538 17.3131C49.4682 19.2478 47.2255 20.7253 45.3246 20.7253H40.1759V24H48.9039C48.9039 24 58.0458 23.492 56.7607 15.4292C55.937 10.2261 50.3455 11.0348 48.4714 7.53784C46.5973 4.04092 49.8657 3.05239 50.2137 3.05239H54.1844L54.2276 0Z" fill="white"/>
<path d="M22.6914 0.169312H38.2032V2.96134H30.0478V10.8506H37.2456V13.6447H30.0478V20.5454H38.6831V23.8349H22.6914V0.169312Z" fill="white"/>
<path d="M17.9605 0.1651L13.0117 16.6781L7.9042 0.1651H0L8.10602 23.8264H14.0125L21.9147 0.1651H17.9605Z" fill="white"/>
</g>
<defs>
<clipPath id="clip0_18301_3389">
<rect width="108" height="24" fill="white"/>
</clipPath>
</defs>
</svg>
