<svg width="181" height="28" viewBox="0 0 181 28" fill="none" xmlns="http://www.w3.org/2000/svg">
<path d="M0.821619 2.0328H9.50722L8.79882 0.808499C8.64563 0.574404 8.43983 0.379376 8.19783 0.238995C7.95584 0.0986135 7.68438 0.0167699 7.40512 0H0.575219C0.0593191 0 -0.14858 0.361899 0.11322 0.808499L0.821619 2.0328ZM31.8603 4.0656H23.1516L21.1727 7.4844H29.8891L31.8603 4.0656ZM20.0177 9.5172L17.9233 13.1516C17.8517 13.3591 17.7171 13.539 17.5384 13.6664C17.3597 13.7938 17.1457 13.8623 16.9262 13.8623C16.7067 13.8623 16.4927 13.7938 16.3139 13.6664C16.1352 13.539 16.0006 13.3591 15.929 13.1516L13.8269 9.5172H5.13362L15.0204 26.642C15.1786 26.87 15.3874 27.0582 15.6306 27.1918C15.8738 27.3254 16.1446 27.4008 16.4218 27.412H18.3622L28.711 9.5172H20.0177ZM10.6776 4.0656H1.99202L3.96322 7.4844H12.6565L10.6776 4.0656Z" fill="white"/>
<path d="M55.4926 2.0328L56.201 0.808499C56.4551 0.361899 56.2472 0 55.739 0H47.9697L46.7993 2.0328H55.4926ZM41.1167 7.4844L43.0956 4.0656H34.3946L32.3926 7.4844H41.1167ZM31.2453 9.5172L20.8965 27.4505H29.5898L39.9386 9.5172H31.2453ZM44.2583 2.0328L45.4287 0H36.7431L35.5727 2.0328H44.2583ZM33.0317 2.0328L34.2021 0H26.4482C26.1676 0.015592 25.8946 0.0968786 25.6512 0.237312C25.4078 0.377745 25.2007 0.573396 25.0468 0.808499L24.3461 2.0328H33.0317Z" fill="white"/>
<path d="M177.776 27.6596C173.972 27.6596 172.648 25.3496 172.648 21.0607C172.648 16.7718 173.972 14.2924 177.776 14.2924C178.608 14.2612 179.44 14.3758 180.232 14.6312C180.302 14.6312 180.325 14.6774 180.325 14.8006L180.232 16.2405C180.232 16.3175 180.186 16.3868 180.086 16.3406C179.416 16.1291 178.717 16.0226 178.015 16.0249C175.705 16.0249 175.05 17.3262 175.05 21.0838C175.05 24.6258 175.751 25.8732 178.015 25.8732C178.678 25.8647 179.339 25.7846 179.986 25.6345C180.086 25.6345 180.201 25.5883 180.225 25.7038L180.371 27.1283C180.371 27.2515 180.371 27.2977 180.271 27.3208C179.457 27.5503 178.614 27.6643 177.768 27.6596M162.715 27.6596C160.905 27.6596 160.066 26.7202 160.066 25.1802V16.4638C160.069 16.444 160.066 16.4239 160.06 16.405C160.054 16.3861 160.043 16.3689 160.029 16.3548C160.015 16.3407 159.997 16.33 159.979 16.3235C159.96 16.317 159.94 16.315 159.92 16.3175H157.995C157.963 16.3186 157.932 16.3131 157.902 16.3015C157.873 16.2899 157.846 16.2723 157.824 16.25C157.801 16.2276 157.784 16.2008 157.772 16.1714C157.76 16.1419 157.755 16.1104 157.756 16.0788V14.7775C157.755 14.7459 157.76 14.7143 157.772 14.6849C157.784 14.6554 157.801 14.6287 157.824 14.6063C157.846 14.5839 157.873 14.5664 157.902 14.5548C157.932 14.5432 157.963 14.5377 157.995 14.5388H159.92C159.94 14.5413 159.96 14.5392 159.979 14.5328C159.997 14.5263 160.015 14.5156 160.029 14.5015C160.043 14.4874 160.054 14.4702 160.06 14.4513C160.066 14.4324 160.069 14.4123 160.066 14.3925V9.77249C160.065 9.74085 160.07 9.70933 160.082 9.67989C160.094 9.65044 160.111 9.6237 160.134 9.60131C160.156 9.57893 160.183 9.56139 160.212 9.54977C160.242 9.53816 160.273 9.53271 160.305 9.53379H162.137C162.169 9.53271 162.2 9.53816 162.23 9.54977C162.259 9.56139 162.286 9.57893 162.308 9.60131C162.331 9.6237 162.348 9.65044 162.36 9.67989C162.372 9.70933 162.377 9.74085 162.376 9.77249V14.3925C162.373 14.4123 162.376 14.4324 162.382 14.4513C162.388 14.4702 162.399 14.4874 162.413 14.5015C162.427 14.5156 162.445 14.5263 162.463 14.5328C162.482 14.5392 162.503 14.5413 162.522 14.5388H164.832C164.864 14.5365 164.896 14.5411 164.926 14.5523C164.956 14.5635 164.984 14.581 165.006 14.6036C165.029 14.6263 165.046 14.6535 165.058 14.6835C165.069 14.7135 165.073 14.7456 165.071 14.7775V16.0788C165.073 16.1107 165.069 16.1428 165.058 16.1728C165.046 16.2028 165.029 16.23 165.006 16.2527C164.984 16.2753 164.956 16.2928 164.926 16.304C164.896 16.3152 164.864 16.3198 164.832 16.3175H162.522C162.502 16.3132 162.481 16.314 162.462 16.3198C162.442 16.3256 162.424 16.3363 162.409 16.3508C162.395 16.3654 162.384 16.3833 162.378 16.4031C162.372 16.4228 162.372 16.4437 162.376 16.4638V24.8953C162.376 25.6191 162.661 25.904 163.431 25.904H164.417C164.449 25.9001 164.483 25.9038 164.514 25.9149C164.546 25.926 164.574 25.9442 164.597 25.9681C164.62 25.9919 164.637 26.0208 164.647 26.0524C164.658 26.084 164.66 26.1176 164.655 26.1504L164.609 27.1591C164.611 27.2278 164.592 27.2954 164.553 27.3522C164.514 27.409 164.458 27.4519 164.393 27.4748C163.838 27.5897 163.274 27.6541 162.707 27.6673M148.909 27.4286C148.832 27.4286 148.762 27.3824 148.762 27.2592L148.855 25.7192C148.855 25.6499 148.955 25.596 149.047 25.6268C149.913 25.788 150.792 25.8679 151.673 25.8655C153.744 25.8655 154.083 25.6499 154.083 24.133C154.083 23.2398 153.575 22.7855 151.604 21.361C149.633 19.9365 148.878 19.3359 148.878 17.7728C148.878 15.2934 149.987 14.3078 153.144 14.3078C154.064 14.2936 154.983 14.358 155.893 14.5003C155.962 14.5003 156.039 14.5465 156.039 14.6697L155.947 16.2097C155.947 16.279 155.846 16.3329 155.754 16.3021C154.99 16.1767 154.218 16.1047 153.444 16.0865C151.665 16.0865 151.065 16.2097 151.065 17.5341C151.065 18.5967 151.596 18.9586 153.567 20.2522C155.538 21.5458 156.316 22.5622 156.316 24.0098C156.316 26.8511 155.038 27.675 152.097 27.675C151.039 27.6822 149.984 27.6024 148.94 27.4363M138.391 14.5542C138.422 14.5531 138.454 14.5586 138.483 14.5702C138.513 14.5818 138.539 14.5993 138.562 14.6217C138.584 14.6441 138.602 14.6708 138.613 14.7003C138.625 14.7297 138.63 14.7613 138.629 14.7929V22.8933C138.629 25.1571 139.207 25.8116 141.64 25.8116C142.31 25.8157 142.978 25.7512 143.634 25.6191C143.804 25.5729 143.873 25.519 143.873 25.3496V14.7775C143.872 14.7459 143.877 14.7143 143.889 14.6849C143.901 14.6554 143.918 14.6287 143.94 14.6063C143.963 14.5839 143.99 14.5664 144.019 14.5548C144.048 14.5432 144.08 14.5377 144.112 14.5388H145.944C145.976 14.5366 146.009 14.5412 146.039 14.5524C146.07 14.5635 146.097 14.5809 146.12 14.6034C146.144 14.6259 146.162 14.653 146.174 14.683C146.186 14.713 146.192 14.7452 146.191 14.7775V26.9127C146.191 27.059 146.091 27.1283 145.944 27.1514C144.532 27.444 143.097 27.614 141.655 27.6596C137.42 27.6596 136.312 26.6509 136.312 23.132V14.7775C136.31 14.7459 136.316 14.7143 136.327 14.6849C136.339 14.6554 136.357 14.6287 136.379 14.6063C136.401 14.5839 136.428 14.5664 136.458 14.5548C136.487 14.5432 136.519 14.5377 136.55 14.5388H138.383L138.391 14.5542ZM126.178 25.3342C126.563 25.7423 127.072 25.9117 128.319 25.9117C129.566 25.9117 130.128 25.7423 130.483 25.3342C131.083 24.6874 131.376 22.901 131.376 20.9298C131.376 18.9586 131.083 17.3647 130.483 16.7179C130.121 16.3098 129.643 16.1404 128.365 16.1404C127.087 16.1404 126.556 16.3098 126.171 16.7179C125.57 17.3647 125.277 18.9355 125.277 20.9298C125.277 22.9241 125.57 24.6874 126.171 25.3342M132.261 26.4199C131.445 27.3362 130.213 27.7212 128.311 27.7212C126.409 27.7212 125.231 27.3362 124.461 26.4199C123.691 25.5036 122.921 23.3399 122.921 20.9298C122.921 18.5197 123.545 16.5947 124.461 15.6091C125.378 14.6235 126.509 14.354 128.388 14.354C130.267 14.354 131.468 14.6928 132.292 15.6091C133.116 16.5254 133.763 18.4966 133.763 20.9298C133.763 23.363 133.162 25.4112 132.292 26.4199M118.301 27.7212C114.497 27.7212 113.173 25.4112 113.173 21.1223C113.173 16.8334 114.497 14.354 118.301 14.354C119.133 14.3229 119.965 14.4376 120.758 14.6928C120.827 14.6928 120.85 14.739 120.85 14.8622L120.758 16.3098C120.758 16.3868 120.711 16.4561 120.611 16.4099C119.941 16.1985 119.243 16.092 118.54 16.0942C116.23 16.0942 115.575 17.3955 115.575 21.1531C115.575 24.6951 116.276 25.9425 118.54 25.9425C119.204 25.934 119.865 25.8539 120.511 25.7038C120.611 25.7038 120.727 25.6576 120.758 25.7731L120.904 27.1976C120.904 27.3208 120.904 27.367 120.804 27.3901C119.989 27.6194 119.147 27.7334 118.301 27.7289M108.453 21.7537C108.455 21.7339 108.453 21.7138 108.447 21.6949C108.44 21.676 108.43 21.6588 108.416 21.6447C108.401 21.6306 108.384 21.6199 108.365 21.6134C108.347 21.6069 108.326 21.6049 108.307 21.6074H106.081C104.056 21.6074 103.525 22.0386 103.525 23.9713C103.525 25.904 103.933 26.1119 106.343 26.1119C106.965 26.1238 107.587 26.0748 108.199 25.9656C108.391 25.9194 108.414 25.8732 108.414 25.7962L108.453 21.7537ZM102.817 16.433C102.67 16.433 102.478 16.433 102.455 16.3098L102.285 15.1317C102.285 14.9854 102.285 14.8391 102.432 14.7929C103.65 14.4773 104.907 14.3322 106.166 14.3617C109.154 14.3617 110.694 15.4705 110.694 18.2887V26.8896C110.694 27.0359 110.647 27.1514 110.378 27.2515C109.14 27.5493 107.87 27.6864 106.597 27.6596C102.408 27.6596 101.207 26.8203 101.207 24.1946C101.207 21.8846 101.762 20.6295 105.304 20.1983L108.314 19.8364C108.407 19.8364 108.461 19.7902 108.461 19.6901V18.4581C108.461 16.6024 107.691 16.1481 105.619 16.1481C104.684 16.1565 103.75 16.2285 102.824 16.3637M93.9384 14.8237C95.199 14.5122 96.4902 14.3418 97.7884 14.3155C98.5296 14.3025 99.2708 14.3437 100.006 14.4387C100.122 14.4387 100.152 14.508 100.152 14.6312L100.029 16.1712C100.029 16.2482 99.9829 16.2944 99.8597 16.2713C99.182 16.1673 98.4971 16.1184 97.8115 16.125C97.2624 16.1039 96.7141 16.1848 96.1945 16.3637C96.138 16.3869 96.0907 16.4283 96.06 16.4812C96.0294 16.5341 96.0171 16.5957 96.0251 16.6563V27.2053C96.0273 27.2414 96.0211 27.2775 96.0068 27.3107C95.9925 27.3439 95.9706 27.3733 95.9429 27.3965C95.9152 27.4198 95.8824 27.4361 95.8472 27.4444C95.812 27.4526 95.7754 27.4525 95.7402 27.444H93.9538C93.9219 27.4463 93.8898 27.4417 93.8598 27.4305C93.8298 27.4193 93.8026 27.4018 93.7799 27.3792C93.7573 27.3565 93.7398 27.3293 93.7286 27.2993C93.7174 27.2693 93.7128 27.2372 93.7151 27.2053V15.0393C93.7151 14.893 93.8075 14.8237 93.9538 14.8006M83.1738 25.4728C83.1738 25.6191 83.1738 25.6884 83.3432 25.7346C83.92 25.8581 84.5091 25.9149 85.0988 25.904C88.2558 25.904 88.6639 24.7259 88.6639 20.7219C88.6639 16.9412 87.8939 16.1019 85.2682 16.1019C84.6279 16.0971 83.9893 16.1695 83.3663 16.3175C83.3018 16.3454 83.2481 16.3935 83.2133 16.4546C83.1786 16.5158 83.1647 16.5866 83.1738 16.6563V25.4728ZM81.0794 27.1591C80.91 27.1129 80.8638 27.059 80.8638 26.9204V9.74169C80.8627 9.71005 80.8682 9.67853 80.8798 9.64909C80.8914 9.61964 80.909 9.59289 80.9313 9.57051C80.9537 9.54813 80.9805 9.53059 81.0099 9.51897C81.0394 9.50735 81.0709 9.50192 81.1025 9.50299H82.9351C82.9668 9.50192 82.9983 9.50735 83.0277 9.51897C83.0572 9.53059 83.0839 9.54813 83.1063 9.57051C83.1287 9.59289 83.1462 9.61964 83.1578 9.64909C83.1695 9.67853 83.1749 9.71005 83.1738 9.74169V14.3155C83.1738 14.4387 83.22 14.4849 83.3663 14.4849C83.6589 14.4849 84.6676 14.2924 85.5839 14.2924C89.6803 14.2924 91.074 15.9017 91.074 20.4524C91.074 25.3881 89.8959 27.6288 85.1219 27.6288C83.7554 27.6376 82.3937 27.4667 81.0717 27.1206M167.812 27.3824C167.781 27.3835 167.749 27.378 167.72 27.3664C167.69 27.3548 167.663 27.3372 167.641 27.3149C167.619 27.2925 167.601 27.2657 167.589 27.2363C167.578 27.2068 167.572 27.1753 167.574 27.1437V14.7775C167.572 14.7459 167.578 14.7143 167.589 14.6849C167.601 14.6554 167.619 14.6287 167.641 14.6063C167.663 14.5839 167.69 14.5664 167.72 14.5548C167.749 14.5432 167.781 14.5377 167.812 14.5388H169.645C169.677 14.5365 169.709 14.5411 169.739 14.5523C169.769 14.5635 169.796 14.581 169.819 14.6036C169.841 14.6263 169.859 14.6535 169.87 14.6835C169.881 14.7135 169.886 14.7456 169.884 14.7775V27.1822C169.886 27.2141 169.881 27.2462 169.87 27.2762C169.859 27.3062 169.841 27.3334 169.819 27.3561C169.796 27.3787 169.769 27.3962 169.739 27.4074C169.709 27.4186 169.677 27.4232 169.645 27.4209L167.812 27.3824ZM167.812 11.4126C167.78 11.4148 167.748 11.4101 167.717 11.399C167.687 11.3879 167.659 11.3705 167.636 11.348C167.613 11.3255 167.594 11.2984 167.582 11.2684C167.57 11.2384 167.565 11.2062 167.566 11.1739V9.74169C167.565 9.70937 167.57 9.67717 167.582 9.64717C167.594 9.61718 167.613 9.59005 167.636 9.56755C167.659 9.54505 167.687 9.52768 167.717 9.51656C167.748 9.50543 167.78 9.50081 167.812 9.50299H169.637C169.669 9.50192 169.7 9.50735 169.73 9.51897C169.759 9.53059 169.786 9.54813 169.808 9.57051C169.831 9.59289 169.848 9.61964 169.86 9.64909C169.871 9.67853 169.877 9.71005 169.876 9.74169V11.2124C169.878 11.2443 169.873 11.2764 169.862 11.3064C169.851 11.3364 169.834 11.3636 169.811 11.3863C169.788 11.4089 169.761 11.4264 169.731 11.4376C169.701 11.4488 169.669 11.4534 169.637 11.4511L167.812 11.4126ZM75.2274 27.4209C75.1958 27.422 75.1643 27.4165 75.1348 27.4049C75.1054 27.3933 75.0786 27.3757 75.0562 27.3534C75.0339 27.331 75.0163 27.3042 75.0047 27.2748C74.9931 27.2453 74.9876 27.2138 74.9887 27.1822V14.7775C74.9876 14.7459 74.9931 14.7143 75.0047 14.6849C75.0163 14.6554 75.0339 14.6287 75.0562 14.6063C75.0786 14.5839 75.1054 14.5664 75.1348 14.5548C75.1643 14.5432 75.1958 14.5377 75.2274 14.5388H77.0523C77.0843 14.5365 77.1163 14.5411 77.1463 14.5523C77.1763 14.5635 77.2035 14.581 77.2262 14.6036C77.2488 14.6263 77.2663 14.6535 77.2775 14.6835C77.2887 14.7135 77.2933 14.7456 77.291 14.7775V27.1822C77.2933 27.2141 77.2887 27.2462 77.2775 27.2762C77.2663 27.3062 77.2488 27.3334 77.2262 27.3561C77.2035 27.3787 77.1763 27.3962 77.1463 27.4074C77.1163 27.4186 77.0843 27.4232 77.0523 27.4209H75.2274ZM75.2274 11.4511C75.1952 11.4533 75.1628 11.4486 75.1324 11.4375C75.1021 11.4264 75.0744 11.409 75.0511 11.3865C75.0279 11.364 75.0097 11.3369 74.9976 11.3069C74.9855 11.2769 74.9799 11.2447 74.981 11.2124V9.74169C74.9799 9.70937 74.9855 9.67717 74.9976 9.64717C75.0097 9.61718 75.0279 9.59005 75.0511 9.56755C75.0744 9.54505 75.1021 9.52768 75.1324 9.51656C75.1628 9.50543 75.1952 9.50081 75.2274 9.50299H77.0523C77.084 9.50192 77.1155 9.50735 77.1449 9.51897C77.1744 9.53059 77.2011 9.54813 77.2235 9.57051C77.2459 9.59289 77.2634 9.61964 77.275 9.64909C77.2867 9.67853 77.2921 9.71005 77.291 9.74169V11.2124C77.2933 11.2443 77.2887 11.2764 77.2775 11.3064C77.2663 11.3364 77.2488 11.3636 77.2262 11.3863C77.2035 11.4089 77.1763 11.4264 77.1463 11.4376C77.1163 11.4488 77.0843 11.4534 77.0523 11.4511H75.2274ZM62.2837 9.48759C62.43 9.48759 62.4762 9.55689 62.5224 9.72629C63.2924 13.2683 65.6024 22.362 66.3724 25.1802C66.4186 25.3265 66.4725 25.3958 66.7343 25.3958C66.9961 25.3958 67.0269 25.3496 67.0731 25.1802C67.7969 22.3851 69.9991 13.2683 70.746 9.72629C70.761 9.65059 70.8046 9.58357 70.8676 9.53912C70.9307 9.49468 71.0085 9.47623 71.0848 9.48759H72.8404C72.8724 9.4853 72.9044 9.4899 72.9344 9.50109C72.9644 9.51227 72.9916 9.52978 73.0143 9.55242C73.0369 9.57506 73.0544 9.6023 73.0656 9.6323C73.0768 9.6623 73.0814 9.69435 73.0791 9.72629C72.9097 10.7889 69.9991 21.8769 68.5361 27.1822C68.4591 27.3978 68.3436 27.4209 68.128 27.4209H65.048C64.981 27.4176 64.9169 27.3924 64.8655 27.3494C64.8141 27.3063 64.7781 27.2476 64.7631 27.1822C63.2231 21.8846 60.274 10.7658 60.1431 9.72629C60.141 9.69633 60.145 9.66626 60.1548 9.63788C60.1646 9.6095 60.18 9.58338 60.2002 9.5611C60.2203 9.53881 60.2447 9.52082 60.2719 9.50819C60.2992 9.49556 60.3287 9.48855 60.3587 9.48759H62.2837Z" fill="white"/>
<path d="M52.3433 7.45481L54.3144 4.03601H45.6288L43.6499 7.45481H52.3433ZM42.4795 9.48761L32.123 27.4209H39.8846C40.1607 27.4091 40.4302 27.3334 40.672 27.1998C40.9139 27.0662 41.1214 26.8783 41.2783 26.6509L51.1651 9.52611L42.4795 9.48761Z" fill="white"/>
</svg>
