<svg width="140" height="18" viewBox="0 0 140 18" fill="none" xmlns="http://www.w3.org/2000/svg">
<path d="M61.2539 16.5986H83.8057V9.08136H81.3495C81.3495 11.9841 79.2655 14.0681 75.9907 14.0681H72.567V2.82939H76.2884V0.298828H61.2539V2.82939H65.0497V14.0681H61.2539V16.5986Z" fill="white"/>
<path d="M94.6734 16.5986H103.456L110.973 2.82939H114.695V0.298828H103.456V2.82939H106.731L101.223 12.8772L95.7899 2.82939H99.7346V0.298828H83.3604V2.82939H87.0818L94.6734 16.5986Z" fill="white"/>
<path d="M16.2998 0.298828H0V2.82939H3.72141L11.3131 16.5986H20.0956L27.5385 2.82939H31.2599V0.298828H20.0212V2.82939H23.296L17.8628 12.8772L12.3551 2.82939H16.2998V0.298828Z" fill="white"/>
<path d="M33.4922 8.4859C33.4922 13.2493 37.3625 17.1196 45.103 17.1196C52.8435 17.1196 56.6394 13.3237 56.6394 8.4859C56.6394 3.64806 52.6202 0.00107608 45.0286 0.00107608C37.5113 -0.0733522 33.4922 3.72249 33.4922 8.4859ZM49.0477 8.4859C48.9733 11.463 47.7824 14.5146 44.9541 14.4402C42.2003 14.3657 41.0094 11.3142 41.0094 8.33704C41.0839 5.21105 42.5724 2.45721 45.1774 2.53164C47.7824 2.53164 49.1221 5.35991 49.0477 8.4859Z" fill="white"/>
<path d="M116.854 8.4859C116.854 13.2493 120.724 17.1196 128.464 17.1196C136.205 17.1196 140.001 13.3237 140.001 8.4859C140.001 3.64806 135.982 0.00107608 128.39 0.00107608C120.873 -0.0733522 116.854 3.72249 116.854 8.4859ZM128.539 2.53164C131.144 2.60607 132.483 5.35991 132.409 8.4859C132.335 11.463 131.144 14.5146 128.315 14.4402C125.562 14.3657 124.371 11.3142 124.371 8.33704C124.445 5.21105 125.934 2.45721 128.539 2.53164Z" fill="white"/>
</svg>
