<svg width="132" height="44" viewBox="0 0 132 44" fill="none" xmlns="http://www.w3.org/2000/svg">
<path d="M30.5158 23.5957L27.6074 20.6364V29.0077H30.5158V23.5957ZM18.8821 14.6793H25.9626L23.0679 11.734L23.0541 11.72H19.3354C20.5701 11.6142 21.7165 11.0252 22.5332 10.0771C23.35 9.12888 23.7736 7.89537 23.7149 6.63595C23.6562 5.37652 23.1198 4.18934 22.2185 3.32408C21.3171 2.45883 20.1212 1.98294 18.8821 1.9965V11.7375H18.8787L10.9226 3.66658C10.0413 4.1312 9.21033 4.68862 8.44336 5.32967L15.9702 12.9603V29.7205L21.7905 35.6357V31.4535L18.8821 28.4941V14.6793Z" fill="white"/>
<path d="M21.7902 14.6967L21.7765 28.9867H24.6815L24.6952 17.6735L21.7902 14.6967ZM31.7654 20.6329L28.8604 17.677H24.6987L27.6036 20.6329H31.7654ZM13.0684 26.9358V14.2076L6.38624 7.41199C5.75711 8.19129 5.20826 9.03424 4.74832 9.92759L10.16 15.434V19.6196L3.59456 12.9393C3.28552 14.1133 3.11383 15.3501 3.1001 16.6219L13.0684 26.9358ZM3.1516 20.8565V25.0387L21.7902 44V39.8178L3.1516 20.8565ZM36.3324 25.2692H33.4205V29.0077H30.5155C30.4984 29.6585 30.6096 30.3062 30.8425 30.9126C31.0754 31.519 31.4254 32.0717 31.8717 32.5382C32.3181 33.0046 32.8518 33.3754 33.4412 33.6286C34.0307 33.8817 34.6641 34.0122 35.3039 34.0122C35.9438 34.0122 36.5771 33.8817 37.1666 33.6286C37.7561 33.3754 38.2898 33.0046 38.7361 32.5382C39.1825 32.0717 39.5324 31.519 39.7654 30.9126C39.9983 30.3062 40.1095 29.6585 40.0924 29.0077L36.3324 25.2692ZM60.0118 29.0741L57.8313 33.2912H44.2438L53.079 16.0244H45.2568L47.4372 11.8003H61.0282L52.1896 29.0741H60.0118ZM67.9026 20.4023H74.8698V24.6299H67.9026V29.0741H74.8698V33.2947H62.7726V11.8003H74.8698V16.0244H67.9026V20.4023ZM84.6046 11.8003C87.2967 11.8003 88.8488 12.0903 89.9888 12.831C91.4447 13.7359 92.3307 15.5702 92.3307 17.6351C92.3307 19.148 91.8568 20.4058 90.9056 21.3736C90.3047 22.0164 89.8309 22.3064 88.6908 22.6314C89.9888 22.9179 90.5588 23.2079 91.225 23.8542C92.1727 24.7556 92.65 26.0134 92.65 27.5927C92.65 29.5877 91.8568 31.3591 90.497 32.2955C89.4497 33.0047 88.1826 33.2947 86.0331 33.2947H77.3868V11.8003H84.6046ZM82.5169 20.6958H83.7805C86.1258 20.6958 87.1079 19.955 87.1079 18.1802C87.1079 16.4402 86.1258 15.6995 83.7187 15.6995H82.5169V20.6958ZM82.5169 29.5563H84.3849C86.5378 29.5563 87.4547 28.8155 87.4547 27.0756C87.4547 26.0449 87.077 25.3007 86.3147 24.8814C85.7446 24.56 85.2399 24.4971 83.6878 24.4971H82.5169V29.5563ZM99.7717 33.2947H94.6382V11.8003H101.478C104.263 11.8003 106.289 12.3174 107.683 13.411C109.143 14.5745 109.963 16.5066 109.963 18.858C109.963 22.1422 108.603 24.3014 105.877 25.3985L110.533 33.2947H104.39L99.7683 24.9793L99.7717 33.2947ZM101.42 22.0444C103.508 22.0444 104.775 20.9543 104.775 19.0816C104.775 17.3137 103.539 16.0873 101.736 16.0873H99.7717V22.0444H101.42ZM125.398 33.2947H130.961L124.031 11.8038H117.507L110.544 33.2912H115.952L117.257 29.0671H124.1L125.398 33.2947ZM118.555 24.8395L120.677 17.9565L122.795 24.8395H118.555Z" fill="white"/>
</svg>
