<svg width="47" height="48" viewBox="0 0 47 48" fill="none" xmlns="http://www.w3.org/2000/svg">
<path d="M0 23.6085C0 10.5696 10.5211 0 23.5 0C36.4789 0 47 10.5696 47 23.6085C47 36.647 36.4789 47.2168 23.5 47.2168C10.5211 47.2168 0 36.647 0 23.6085ZM6.8854 36.5076L16.3049 13.0923H5.29412C3.5187 16.1879 2.50287 19.7789 2.50287 23.6083C2.50309 28.4667 4.13802 32.9417 6.8854 36.5076ZM40.0128 36.6389H6.98724C10.8317 41.549 16.7992 44.7022 23.5 44.7022C30.2008 44.7022 36.1685 41.549 40.0128 36.6389ZM24.4164 10.4712L15.0602 33.5435H42.0268C43.6033 30.583 44.4969 27.2006 44.4969 23.6083C44.4969 19.8199 43.503 16.2649 41.7626 13.192H31.4612V20.4615H37.1514V23.5668L31.4612 23.5671V31.7021H25.0389V10.4712H39.9289C36.0817 5.62219 30.1524 2.51463 23.5 2.51463C16.8478 2.51463 10.9183 5.62219 7.07128 10.4712H24.4164Z" fill="white"/>
</svg>
