<svg xmlns="http://www.w3.org/2000/svg" width="14.188" height="14.426" viewBox="0 0 14.188 14.426">
  <g id="Group_9040" data-name="Group 9040" transform="translate(0.25 1.25)">
    <g id="Component_1_9" data-name="Component 1 – 9" transform="translate(0 -1)">
      <path id="Subtraction_4" data-name="Subtraction 4" d="M6.677,11.634H0V10.471L.005,2.326V1.164h1.74V0H2.909V1.164H7.562V0H8.725V1.164h1.745v5.7a4.073,4.073,0,0,0-1.164.243V4.072H1.164v6.4H6.651a4.147,4.147,0,0,0,.026,1.162ZM4.415,9.308h0L2.592,7.562l.317-.339L4.415,8.789,7.6,5.6l.339.269L4.416,9.307Z" fill="#9d9d9d" stroke="#9d9d9d" stroke-width="0.5"/>
      <path id="Subtraction_2" data-name="Subtraction 2" d="M3.217,6.433A3.217,3.217,0,1,1,6.433,3.217,3.22,3.22,0,0,1,3.217,6.433Zm0-4.871a.3.3,0,0,0-.3.3V3.9a.3.3,0,0,0,.163.265l1.359.679a.3.3,0,0,0,.4-.132.3.3,0,0,0-.133-.4l-1.195-.6V1.858A.3.3,0,0,0,3.217,1.562Z" transform="translate(7.504 7.742)" fill="#9d9d9d"/>
    </g>
  </g>
</svg>
