<svg xmlns="http://www.w3.org/2000/svg" width="117.294" height="121.562" viewBox="0 0 117.294 121.562">
    <g id="Change_Status" data-name="Change Status" transform="translate(0.5 0.5)">
        <path id="Union_23" data-name="Union 23" d="M-3035.12-259.644a27.207,27.207,0,0,1,27.207-27.207,27.207,27.207,0,0,1,27.207,27.207,27.206,27.206,0,0,1-27.207,27.206A27.207,27.207,0,0,1-3035.12-259.644Zm-14.721,14.262L-3080-275.536l1.344,6.354a.7.7,0,0,1-.541.833l-3.388.716a.7.7,0,0,1-.833-.54l-4.125-19.333a.7.7,0,0,1,.833-.833l19.333,4.126a.7.7,0,0,1,.54.832l-.716,3.388a.7.7,0,0,1-.833.541l-6.354-1.344,30.154,30.154a.7.7,0,0,1,0,.995l-4.265,4.265a.7.7,0,0,1-.5.205A.7.7,0,0,1-3049.841-245.381Zm60.1-49.954-19.333-4.126a.7.7,0,0,1-.541-.833l.717-3.387a.7.7,0,0,1,.833-.543l6.355,1.344-30.154-30.154a.7.7,0,0,1,0-.994l4.265-4.265a.7.7,0,0,1,.994,0l30.155,30.155-1.345-6.355a.7.7,0,0,1,.542-.832l3.388-.717a.705.705,0,0,1,.833.541l4.125,19.333a.7.7,0,0,1-.684.85A.717.717,0,0,1-2989.744-295.336ZM-3097-298.588V-353h54.413v54.412Z" transform="translate(3097 353)" fill="#ffffff" stroke="#ffffff" stroke-width="1"/>
    </g>
</svg>