<svg id="export" xmlns="http://www.w3.org/2000/svg" xmlns:xlink="http://www.w3.org/1999/xlink" width="126.949" height="103.741" viewBox="0 0 126.949 103.741">
  <defs>
    <clipPath id="clip-path">
      <rect id="Rectangle_25" data-name="Rectangle 25" width="126.949" height="103.741" fill="none"/>
    </clipPath>
  </defs>
  <g id="Group_100" data-name="Group 100" clip-path="url(#clip-path)">
    <path id="Union_29" data-name="Union 29" d="M-3088.883-1305.259a3.117,3.117,0,0,1-3.117-3.117v-97.507a3.118,3.118,0,0,1,3.117-3.118h97.507a3.117,3.117,0,0,1,3.117,3.118v17.079a.388.388,0,0,1-.662.274l-6.428-6.427a.393.393,0,0,1-.114-.275v-3.447a3.117,3.117,0,0,0-3.118-3.117h-83.1a3.117,3.117,0,0,0-3.117,3.117v83.1a3.117,3.117,0,0,0,3.117,3.118h83.1a3.117,3.117,0,0,0,3.118-3.118v-3.447a.392.392,0,0,1,.114-.275l6.428-6.427a.388.388,0,0,1,.662.275v17.079a3.117,3.117,0,0,1-3.117,3.117Zm89-18.894-8.648-8.648a1.394,1.394,0,0,1,0-1.97l13.443-13.444h-32.566a1.392,1.392,0,0,1-1.393-1.392v-15.044a1.393,1.393,0,0,1,1.393-1.394h32.567l-13.444-13.443a1.393,1.393,0,0,1,0-1.969l8.648-8.646a1.39,1.39,0,0,1,1.97,0l32.858,32.857-.118.118.118.118-32.858,32.859a1.391,1.391,0,0,1-.985.407A1.391,1.391,0,0,1-2999.879-1324.153Z" transform="translate(3092 1409)" fill="#595959" stroke="rgba(89,89,89,0)" stroke-width="1"/>
  </g>
</svg>
