<svg id="SORT__Up_Down_Arrow" data-name="SORT_ Up, Down Arrow" xmlns="http://www.w3.org/2000/svg" width="18" height="20" viewBox="0 0 18 20">
  <path id="Icon_ionic-ios-arrow-round-up" data-name="Icon ionic-ios-arrow-round-up" d="M5.365,3.383a.341.341,0,0,1-.524,0L3.106,1.417v7.5a.4.4,0,0,1-.37.418.4.4,0,0,1-.37-.418v-7.5L.631,3.39a.343.343,0,0,1-.524,0,.462.462,0,0,1,0-.594L2.474.12h0A.416.416,0,0,1,2.59.032.317.317,0,0,1,2.733,0a.349.349,0,0,1,.259.12L5.356,2.793A.454.454,0,0,1,5.365,3.383Z" transform="translate(11.47 15.053) rotate(180)" fill="#4b4b4b" stroke="#4b4b4b" stroke-width="0.25"/>
  <rect id="Rectangle_240" data-name="Rectangle 240" width="18" height="20" fill="none"/>
</svg>
