<svg id="view_edit_history" data-name="view edit history" xmlns="http://www.w3.org/2000/svg" xmlns:xlink="http://www.w3.org/1999/xlink" width="127.827" height="117.445" viewBox="0 0 127.827 117.445">
  <defs>
    <clipPath id="clip-path">
      <rect id="Rectangle_22" data-name="Rectangle 22" width="127.827" height="117.445" fill="none"/>
    </clipPath>
  </defs>
  <g id="Group_94" data-name="Group 94" clip-path="url(#clip-path)">
    <path id="Union_25" data-name="Union 25" d="M-3053.267-585.646a.551.551,0,0,1-.091-.851l5.646-5.645a.922.922,0,0,1,1.121-.142c12.271,7.133,27.849,9.206,43.886,3.307a46.519,46.519,0,0,0,27.312-26.563c16.7-42.667-23.26-82.718-65.92-66.182a46.267,46.267,0,0,0-26.133,25.849c-5.5,13.671-5.091,27.027-.682,38.391l5.793-10.474a1.1,1.1,0,0,1,1.5-.43l4.521,2.5a1.1,1.1,0,0,1,.429,1.493l-11.769,21.28a1.1,1.1,0,0,1-1.495.43l-21.279-11.769a1.1,1.1,0,0,1-.43-1.494l2.5-4.522a1.1,1.1,0,0,1,1.494-.429l9.683,5.355c-4.56-12.74-4.872-27.5.926-42.61a55.027,55.027,0,0,1,32.775-31.994c49.39-17.718,95,28.66,75.835,78.126a54.5,54.5,0,0,1-31.146,31.035,63.978,63.978,0,0,1-23.1,4.431A58.423,58.423,0,0,1-3053.267-585.646Zm6.222-22.6.292-4.444.417-6.361.013.013,37.283-37.282,11.862,11.862-37.282,37.283.013.013-6.361.418-4.444.292c-.038,0-.076,0-.114,0A1.685,1.685,0,0,1-3047.045-608.245ZM-3005-660.359l6.011-6.01a1.685,1.685,0,0,1,2.383,0l9.48,9.48a1.684,1.684,0,0,1,0,2.383l-6.011,6.011Z" transform="translate(3091 694)" fill="#595959"/>
  </g>
</svg>
