<svg class="warning-icon" xmlns="http://www.w3.org/2000/svg" width="24.419" height="21.545" viewBox="0 0 24.419 21.545">
    <path id="Icon_awesome-exclamation-triangle" data-name="Icon awesome-exclamation-triangle" d="M24.145,18.516a2.021,2.021,0,0,1-1.763,3.029H2.037A2.021,2.021,0,0,1,.275,18.516L10.447,1.009a2.044,2.044,0,0,1,3.525,0ZM12.21,14.9a1.936,1.936,0,1,0,1.95,1.936A1.943,1.943,0,0,0,12.21,14.9ZM10.358,7.938l.314,5.723a.507.507,0,0,0,.508.477h2.058a.507.507,0,0,0,.508-.477l.314-5.723a.507.507,0,0,0-.508-.532H10.866A.507.507,0,0,0,10.358,7.938Z" fill="#db3B21" />
</svg>