<svg width="21" height="20" viewBox="0 0 21 20" fill="none" xmlns="http://www.w3.org/2000/svg">
<mask id="path-1-inside-1_12007_208904" fill="white">
<path fill-rule="evenodd" clip-rule="evenodd" d="M19.3391 1.19097H13.964L13.5471 0.494557C13.4578 0.345769 13.3204 0.220646 13.1502 0.133274C12.98 0.0459008 12.7838 -0.000254133 12.5838 3.85716e-06H7.46771C7.26841 -0.000485249 7.07296 0.04563 6.90369 0.133082C6.73442 0.220533 6.59816 0.345795 6.51047 0.494557L6.0875 1.19097H0.716414C0.526409 1.19097 0.344187 1.25371 0.209833 1.36538C0.0754792 1.47706 0 1.62852 0 1.78645V2.97742C0 3.13535 0.0754792 3.28681 0.209833 3.39849C0.344187 3.51016 0.526409 3.5729 0.716414 3.5729H19.3351C19.4295 3.57334 19.5231 3.55827 19.6105 3.52854C19.6979 3.49881 19.7773 3.45502 19.8443 3.39968C19.9112 3.34434 19.9644 3.27855 20.0006 3.20608C20.0369 3.13361 20.0556 3.0559 20.0556 2.97742V1.78645C20.0556 1.70825 20.037 1.63082 20.001 1.55857C19.965 1.48632 19.9122 1.42068 19.8457 1.36538C19.7792 1.31009 19.7002 1.26622 19.6133 1.2363C19.5264 1.20637 19.4332 1.19097 19.3391 1.19097ZM2.38198 17.3767C2.41398 17.8316 2.65392 18.2591 3.0527 18.5718C3.45148 18.8845 3.97894 19.0587 4.52717 19.0588H15.5304C16.0786 19.0587 16.6061 18.8845 17.0049 18.5718C17.4037 18.2591 17.6436 17.8316 17.6756 17.3767L18.6248 4.7605H1.43283L2.38198 17.3767ZM8.86158 6.72681H5.85933C5.70008 6.72681 5.57098 6.85705 5.57098 7.01771V10.0465C5.57098 10.2072 5.70008 10.3374 5.85933 10.3374H8.86158C9.02083 10.3374 9.14993 10.2072 9.14993 10.0465V7.01771C9.14993 6.85705 9.02083 6.72681 8.86158 6.72681ZM5.85933 11.1162H8.86158C9.02083 11.1162 9.14993 11.2464 9.14993 11.4071V14.4359C9.14993 14.5966 9.02083 14.7268 8.86158 14.7268H5.85933C5.70008 14.7268 5.57098 14.5966 5.57098 14.4359V11.4071C5.57098 11.2464 5.70008 11.1162 5.85933 11.1162ZM13.2826 6.72681H10.2804C10.1211 6.72681 9.99203 6.85705 9.99203 7.01771V10.0465C9.99203 10.2072 10.1211 10.3374 10.2804 10.3374H13.2826C13.4419 10.3374 13.571 10.2072 13.571 10.0465V7.01771C13.571 6.85705 13.4419 6.72681 13.2826 6.72681ZM10.2804 11.1162H13.2826C13.4419 11.1162 13.571 11.2464 13.571 11.4071V14.4359C13.571 14.5966 13.4419 14.7268 13.2826 14.7268H10.2804C10.1211 14.7268 9.99203 14.5966 9.99203 14.4359V11.4071C9.99203 11.2464 10.1211 11.1162 10.2804 11.1162Z"/>
</mask>
<path d="M13.964 1.19097L13.535 1.44779L13.6806 1.69097H13.964V1.19097ZM13.5471 0.494557L13.9761 0.23774L13.9758 0.237295L13.5471 0.494557ZM13.1502 0.133274L12.9218 0.57808L13.1502 0.133274ZM12.5838 3.85716e-06V0.500004L12.5844 0.500003L12.5838 3.85716e-06ZM7.46771 3.85716e-06L7.46648 0.500004H7.46771V3.85716e-06ZM6.90369 0.133082L7.13319 0.577299L7.13319 0.577299L6.90369 0.133082ZM6.51047 0.494557L6.93786 0.754135L6.9412 0.748465L6.51047 0.494557ZM6.0875 1.19097V1.69097H6.36882L6.51485 1.45052L6.0875 1.19097ZM0.209833 1.36538L-0.109775 0.980868L-0.109775 0.980868L0.209833 1.36538ZM0.209833 3.39849L-0.109775 3.783H-0.109775L0.209833 3.39849ZM19.3351 3.5729L19.3374 3.0729H19.3351V3.5729ZM19.8443 3.39968L20.1628 3.78508L20.1628 3.78508L19.8443 3.39968ZM20.0006 3.20608L19.5535 2.98236L19.5535 2.98237L20.0006 3.20608ZM20.0556 2.97742H19.5556V2.97743L20.0556 2.97742ZM20.001 1.55857L20.4485 1.33556V1.33556L20.001 1.55857ZM19.8457 1.36538L19.5261 1.74989L19.5261 1.7499L19.8457 1.36538ZM3.0527 18.5718L2.74417 18.9653L2.74417 18.9653L3.0527 18.5718ZM2.38198 17.3767L2.88075 17.3416L2.88057 17.3392L2.38198 17.3767ZM4.52717 19.0588L4.5271 19.5588H4.52717V19.0588ZM15.5304 19.0588V19.5588H15.5305L15.5304 19.0588ZM17.0049 18.5718L17.3134 18.9653H17.3134L17.0049 18.5718ZM17.6756 17.3767L17.177 17.3392L17.1768 17.3416L17.6756 17.3767ZM18.6248 4.7605L19.1233 4.79801L19.1638 4.2605H18.6248V4.7605ZM1.43283 4.7605V4.2605H0.893799L0.934238 4.79801L1.43283 4.7605ZM13.964 1.69097H19.3391V0.69097H13.964V1.69097ZM13.1181 0.751375L13.535 1.44779L14.393 0.934152L13.9761 0.23774L13.1181 0.751375ZM12.9218 0.57808C13.0178 0.627366 13.0819 0.691083 13.1184 0.75182L13.9758 0.237295C13.8337 0.000454769 13.6229 -0.186073 13.3785 -0.311533L12.9218 0.57808ZM12.5844 0.500003C12.7086 0.499843 12.8257 0.528755 12.9218 0.57808L13.3785 -0.311533C13.1342 -0.436953 12.8591 -0.500352 12.5832 -0.499996L12.5844 0.500003ZM7.46771 0.500004H12.5838V-0.499996H7.46771V0.500004ZM7.13319 0.577299C7.22783 0.528406 7.34363 0.499701 7.46648 0.500002L7.46894 -0.499995C7.19318 -0.500671 6.91809 -0.437146 6.67419 -0.311135L7.13319 0.577299ZM6.9412 0.748465C6.97621 0.689075 7.03864 0.626147 7.13319 0.577299L6.67419 -0.311136C6.4302 -0.18508 6.22011 0.0025149 6.07973 0.24065L6.9412 0.748465ZM6.51485 1.45052L6.93782 0.754112L6.08311 0.235003L5.66014 0.931415L6.51485 1.45052ZM0.716414 1.69097H6.0875V0.69097H0.716414V1.69097ZM0.52944 1.7499C0.56592 1.71957 0.632193 1.69097 0.716414 1.69097V0.69097C0.420626 0.69097 0.122453 0.787841 -0.109775 0.980868L0.52944 1.7499ZM0.5 1.78645C0.5 1.78817 0.499406 1.78688 0.502046 1.78158C0.504866 1.77592 0.512304 1.76414 0.52944 1.7499L-0.109775 0.980868C-0.344683 1.17612 -0.5 1.46293 -0.5 1.78645H0.5ZM0.5 2.97742V1.78645H-0.5V2.97742H0.5ZM0.529441 3.01397C0.512305 2.99973 0.504867 2.98795 0.502046 2.98229C0.499406 2.97699 0.5 2.9757 0.5 2.97742H-0.5C-0.5 3.30094 -0.344683 3.58775 -0.109775 3.783L0.529441 3.01397ZM0.716414 3.0729C0.632193 3.0729 0.565921 3.0443 0.529441 3.01397L-0.109775 3.783C0.122453 3.97603 0.420626 4.0729 0.716414 4.0729V3.0729ZM19.3351 3.0729H0.716414V4.0729H19.3351V3.0729ZM19.4495 3.05518C19.4159 3.0666 19.3776 3.0731 19.3374 3.07291L19.3327 4.0729C19.4814 4.07359 19.6303 4.04994 19.7715 4.0019L19.4495 3.05518ZM19.5258 3.01428C19.5084 3.02863 19.4831 3.04375 19.4495 3.05518L19.7715 4.0019C19.9127 3.95388 20.0463 3.88142 20.1628 3.78508L19.5258 3.01428ZM19.5535 2.98237C19.5506 2.98818 19.543 3.00006 19.5257 3.01429L20.1628 3.78508C20.2795 3.68863 20.3782 3.56891 20.4478 3.42979L19.5535 2.98237ZM19.5556 2.97743C19.5556 2.97691 19.5556 2.97677 19.5555 2.97724C19.5554 2.97773 19.5549 2.97945 19.5535 2.98236L20.4478 3.4298C20.5176 3.2902 20.5556 3.13612 20.5556 2.97741L19.5556 2.97743ZM19.5556 1.78645V2.97742H20.5556V1.78645H19.5556ZM19.5535 1.78158C19.5549 1.78446 19.5554 1.78615 19.5555 1.78664C19.5556 1.78711 19.5556 1.78697 19.5556 1.78645H20.5556C20.5556 1.62833 20.5179 1.47478 20.4485 1.33556L19.5535 1.78158ZM19.5261 1.7499C19.5431 1.76405 19.5506 1.77583 19.5535 1.78158L20.4485 1.33556C20.3794 1.19682 20.2814 1.0773 20.1653 0.980866L19.5261 1.7499ZM19.4505 1.70906C19.4839 1.72054 19.509 1.73563 19.5261 1.74989L20.1653 0.98087C20.0494 0.884542 19.9166 0.811904 19.7761 0.763534L19.4505 1.70906ZM19.3391 1.69097C19.3791 1.69097 19.4172 1.69759 19.4505 1.70906L19.7761 0.763534C19.6355 0.715152 19.4873 0.69097 19.3391 0.69097V1.69097ZM3.36123 18.1784C3.05989 17.9421 2.90167 17.6389 2.88074 17.3416L1.88321 17.4118C1.9263 18.0242 2.24796 18.5762 2.74417 18.9653L3.36123 18.1784ZM4.52725 18.5588C4.0811 18.5588 3.66461 18.4163 3.36123 18.1784L2.74417 18.9653C3.23834 19.3528 3.87679 19.5587 4.5271 19.5588L4.52725 18.5588ZM15.5304 18.5588H4.52717V19.5588H15.5304V18.5588ZM16.6964 18.1784C16.393 18.4163 15.9765 18.5588 15.5303 18.5588L15.5305 19.5588C16.1808 19.5587 16.8192 19.3528 17.3134 18.9653L16.6964 18.1784ZM17.1768 17.3416C17.1559 17.6389 16.9977 17.9421 16.6963 18.1784L17.3134 18.9653C17.8096 18.5762 18.1313 18.0242 18.1744 17.4118L17.1768 17.3416ZM18.1262 4.72299L17.177 17.3392L18.1742 17.4142L19.1233 4.79801L18.1262 4.72299ZM1.43283 5.2605H18.6248V4.2605H1.43283V5.2605ZM2.88057 17.3392L1.93142 4.72299L0.934238 4.79801L1.88339 17.4142L2.88057 17.3392ZM5.85933 7.22681H8.86158V6.22681H5.85933V7.22681ZM6.07098 7.01771C6.07098 7.12903 5.98037 7.22681 5.85933 7.22681V6.22681C5.41979 6.22681 5.07098 6.58507 5.07098 7.01771H6.07098ZM6.07098 10.0465V7.01771H5.07098V10.0465H6.07098ZM5.85933 9.83743C5.98037 9.83743 6.07098 9.93521 6.07098 10.0465H5.07098C5.07098 10.4792 5.41979 10.8374 5.85933 10.8374V9.83743ZM8.86158 9.83743H5.85933V10.8374H8.86158V9.83743ZM8.64993 10.0465C8.64993 9.9352 8.74054 9.83743 8.86158 9.83743V10.8374C9.30111 10.8374 9.64993 10.4792 9.64993 10.0465H8.64993ZM8.64993 7.01771V10.0465H9.64993V7.01771H8.64993ZM8.86158 7.22681C8.74054 7.22681 8.64993 7.12903 8.64993 7.01771H9.64993C9.64993 6.58507 9.30111 6.22681 8.86158 6.22681V7.22681ZM8.86158 10.6162H5.85933V11.6162H8.86158V10.6162ZM9.64993 11.4071C9.64993 10.9744 9.30111 10.6162 8.86158 10.6162V11.6162C8.74054 11.6162 8.64993 11.5184 8.64993 11.4071H9.64993ZM9.64993 14.4359V11.4071H8.64993V14.4359H9.64993ZM8.86158 15.2268C9.30112 15.2268 9.64993 14.8685 9.64993 14.4359H8.64993C8.64993 14.3246 8.74054 14.2268 8.86158 14.2268V15.2268ZM5.85933 15.2268H8.86158V14.2268H5.85933V15.2268ZM5.07098 14.4359C5.07098 14.8685 5.41979 15.2268 5.85933 15.2268V14.2268C5.98037 14.2268 6.07098 14.3246 6.07098 14.4359H5.07098ZM5.07098 11.4071V14.4359H6.07098V11.4071H5.07098ZM5.85933 10.6162C5.41979 10.6162 5.07098 10.9744 5.07098 11.4071H6.07098C6.07098 11.5184 5.98037 11.6162 5.85933 11.6162V10.6162ZM10.2804 7.22681H13.2826V6.22681H10.2804V7.22681ZM10.492 7.01771C10.492 7.12903 10.4014 7.22681 10.2804 7.22681V6.22681C9.84085 6.22681 9.49203 6.58507 9.49203 7.01771H10.492ZM10.492 10.0465V7.01771H9.49203V10.0465H10.492ZM10.2804 9.83743C10.4014 9.83743 10.492 9.93521 10.492 10.0465H9.49203C9.49203 10.4792 9.84085 10.8374 10.2804 10.8374V9.83743ZM13.2826 9.83743H10.2804V10.8374H13.2826V9.83743ZM13.071 10.0465C13.071 9.93521 13.1616 9.83743 13.2826 9.83743V10.8374C13.7222 10.8374 14.071 10.4792 14.071 10.0465H13.071ZM13.071 7.01771V10.0465H14.071V7.01771H13.071ZM13.2826 7.22681C13.1616 7.22681 13.071 7.12903 13.071 7.01771H14.071C14.071 6.58507 13.7222 6.22681 13.2826 6.22681V7.22681ZM13.2826 10.6162H10.2804V11.6162H13.2826V10.6162ZM14.071 11.4071C14.071 10.9744 13.7222 10.6162 13.2826 10.6162V11.6162C13.1616 11.6162 13.071 11.5184 13.071 11.4071H14.071ZM14.071 14.4359V11.4071H13.071V14.4359H14.071ZM13.2826 15.2268C13.7222 15.2268 14.071 14.8685 14.071 14.4359H13.071C13.071 14.3246 13.1616 14.2268 13.2826 14.2268V15.2268ZM10.2804 15.2268H13.2826V14.2268H10.2804V15.2268ZM9.49203 14.4359C9.49203 14.8685 9.84085 15.2268 10.2804 15.2268V14.2268C10.4014 14.2268 10.492 14.3246 10.492 14.4359H9.49203ZM9.49203 11.4071V14.4359H10.492V11.4071H9.49203ZM10.2804 10.6162C9.84085 10.6162 9.49203 10.9744 9.49203 11.4071H10.492C10.492 11.5184 10.4014 11.6162 10.2804 11.6162V10.6162Z" fill="#3491FF" mask="url(#path-1-inside-1_12007_208904)"/>
</svg>
