<svg width="16" height="21" viewBox="0 0 16 21" fill="none" xmlns="http://www.w3.org/2000/svg">
<path d="M0.25 19.1922V0.42C0.25 0.313632 0.324159 0.25 0.40381 0.25H15.6038C15.6699 0.25 15.75 0.315118 15.75 0.42V20.58C15.75 20.6832 15.6712 20.75 15.5962 20.75H4.23615L4.77145 20.1707C6.01974 20.4747 7.33904 20.088 8.23461 19.1422C9.26803 18.054 9.5931 16.4681 9.07265 15.0568L9.06823 15.0448L9.06261 15.0334C9.03446 14.9759 8.99828 14.9114 8.93535 14.8465C8.70027 14.5953 8.33083 14.6195 8.11094 14.8439L8.10908 14.8459L6.37404 16.6552L5.61594 16.5101L5.47128 15.7014L7.24145 13.8561C7.24178 13.8557 7.24211 13.8554 7.24245 13.855C7.28753 13.8088 7.33204 13.7515 7.36279 13.6748C7.48797 13.3762 7.36166 13.0253 7.06587 12.8809L7.06596 12.8807L7.05706 12.8768C5.67237 12.2662 4.05071 12.5928 3.00306 13.7038C2.09195 14.6659 1.73346 16.0287 2.03046 17.3203L1.09124 18.3077L1.27238 18.48L1.09123 18.3077L0.25 19.1922ZM5.15249 7.63628L2.97877 9.91367L2.10428 9.00097C1.93652 8.81287 1.67649 8.8591 1.54332 8.99506L1.5433 8.99504L1.54106 8.99739L0.962847 9.60318C0.809986 9.7608 0.825685 10.0008 0.953044 10.1494L0.952748 10.1496L0.962411 10.1597L2.02044 11.2631L2.02146 11.2641L2.69517 11.9751C2.8629 12.1639 3.12336 12.1177 3.25668 11.9816L3.25671 11.9816L3.25956 11.9786L3.937 11.2638L3.93765 11.2631L6.29044 8.79909C6.44335 8.64147 6.42766 8.40145 6.30029 8.25286L6.30056 8.25262L6.29132 8.24294L5.7159 7.64008C5.54815 7.45172 5.28798 7.49794 5.15474 7.63394L5.15473 7.63393L5.15249 7.63628ZM6.46652 3.22154L6.8701 2.79889H6.54042C6.52346 2.75423 6.49902 2.71248 6.46791 2.67619L6.46818 2.67596L6.45894 2.66628L5.88352 2.06341C5.71576 1.87506 5.45559 1.92127 5.32236 2.05728L5.32235 2.05726L5.32011 2.05961L3.14639 4.337L2.2719 3.4243C2.10414 3.2362 1.84411 3.28243 1.71093 3.41839L1.71092 3.41837L1.70868 3.42072L1.13047 4.02651C0.977604 4.18413 0.993304 4.42411 1.12066 4.5727L1.12549 4.57833L1.13065 4.58367L2.19652 5.68729L2.87041 6.39841C3.03815 6.58723 3.2986 6.54105 3.43192 6.40495L3.43195 6.40497L3.4348 6.40196L4.11224 5.68709L4.11289 5.68641L6.46652 3.22154ZM13.6076 10.5244H13.6203L13.633 10.5232C13.827 10.5034 13.9948 10.3423 13.9948 10.1267V9.48889C13.9948 9.27921 13.8354 9.09111 13.6076 9.09111H7.6419H7.62918L7.61651 9.0924C7.42256 9.1122 7.25476 9.27324 7.25476 9.48889V10.1267C7.25476 10.3363 7.4141 10.5244 7.6419 10.5244H13.6076ZM13.6076 4.94778H13.6203L13.633 4.94649C13.827 4.92669 13.9948 4.76565 13.9948 4.55V3.91222C13.9948 3.70254 13.8354 3.51444 13.6076 3.51444H7.6419H7.62918L7.61652 3.51574C7.42256 3.53554 7.25476 3.69657 7.25476 3.91222V4.55C7.25476 4.75968 7.4141 4.94778 7.6419 4.94778H13.6076Z" stroke="#3585E5" stroke-width="0.5"/>
</svg>
