<svg width="17" height="17" viewBox="0 0 17 17" fill="none" xmlns="http://www.w3.org/2000/svg">
<mask id="path-1-inside-1_11712_21427" fill="white">
<path d="M16.9565 10.8389C16.9329 10.7931 16.902 10.7395 16.8617 10.6773C16.63 10.381 16.3708 10.1066 16.0874 9.85762C16.2432 8.96695 16.2356 8.05602 16.065 7.16799C16.3281 6.93419 16.5682 6.67653 16.7821 6.39842C16.8224 6.33606 16.8532 6.2825 16.8768 6.23666C16.9075 6.17657 16.9222 6.10978 16.9195 6.04257C16.9168 5.97536 16.8968 5.90993 16.8613 5.85243L15.9047 4.28686L15.8745 4.23675L14.9179 2.67119C14.8829 2.61338 14.8335 2.56529 14.7745 2.53143C14.7154 2.49757 14.6486 2.47905 14.5803 2.47762C14.5281 2.47666 14.4656 2.47831 14.3908 2.48409C14.0605 2.53527 13.7359 2.61704 13.4212 2.72832C12.7175 2.14862 11.9145 1.69695 11.0499 1.39445C10.98 1.03692 10.8762 0.686634 10.74 0.348168C10.7064 0.282087 10.6756 0.228534 10.6479 0.18503C10.6115 0.128135 10.5609 0.0813032 10.501 0.0489365C10.4411 0.0165698 10.3738 -0.000268633 10.3055 3.90174e-06H6.53282C6.46448 -0.000294544 6.39718 0.0165328 6.33727 0.0489019C6.27735 0.081271 6.22679 0.128117 6.19034 0.18503C6.16237 0.228534 6.13188 0.281398 6.09832 0.348168C5.95904 0.696503 5.85309 1.05688 5.78185 1.4246C4.96003 1.72344 4.19579 2.15763 3.5218 2.70863C3.22454 2.60556 2.91809 2.53025 2.6065 2.48368C2.53169 2.47804 2.46917 2.47652 2.41701 2.47762C2.34869 2.47915 2.28189 2.49776 2.22289 2.53169C2.16388 2.56562 2.11461 2.61377 2.0797 2.6716L1.12581 4.23895L1.09505 4.28948L0.141017 5.85656C0.105759 5.9142 0.0859764 5.97972 0.0835299 6.04696C0.0810835 6.1142 0.0960539 6.18095 0.127033 6.24093C0.150667 6.28663 0.181433 6.34019 0.221848 6.40255C0.414139 6.65544 0.630276 6.88988 0.867378 7.10273C0.680686 8.03295 0.672811 8.98938 0.844163 9.92246C0.584852 10.1531 0.348297 10.4074 0.137661 10.682C0.0973854 10.7443 0.0666193 10.7979 0.0431251 10.8437C0.0123546 10.9038 -0.00237884 10.9706 0.000312385 11.0378C0.00300361 11.105 0.0230308 11.1705 0.0585081 11.228L1.01506 12.7935L1.04596 12.8441L2.00265 14.4096C2.03762 14.4674 2.08696 14.5155 2.14602 14.5494C2.20507 14.5832 2.27191 14.6018 2.34024 14.6032C2.3924 14.6042 2.45491 14.6032 2.52973 14.5967C2.83993 14.55 3.14498 14.4746 3.44083 14.3715C4.14388 14.9632 4.94911 15.4258 5.81821 15.7374C5.88229 16.0502 5.97621 16.3564 6.09874 16.6518C6.1323 16.7179 6.16307 16.7715 6.19076 16.815C6.22721 16.8719 6.27777 16.9187 6.33769 16.9511C6.3976 16.9835 6.4649 17.0003 6.53324 17H10.3049C10.3732 17.0003 10.4405 16.9834 10.5004 16.951C10.5603 16.9187 10.6109 16.8719 10.6474 16.815C10.6753 16.7715 10.7058 16.7186 10.7394 16.6518C10.8587 16.366 10.9503 16.0697 11.0131 15.7669C11.925 15.4527 12.769 14.9729 13.5012 14.3524C13.8177 14.4637 14.1441 14.5454 14.4761 14.5966C14.5509 14.6021 14.6134 14.6037 14.6656 14.6026C14.7339 14.6011 14.8007 14.5824 14.8597 14.5485C14.9187 14.5145 14.968 14.4664 15.0029 14.4085L15.9568 12.8414L15.9875 12.7909L16.9416 11.2237C16.9771 11.1661 16.9971 11.1005 16.9997 11.0332C17.0023 10.9659 16.9875 10.899 16.9565 10.8389ZM11.6221 13.2456C10.7703 13.8054 9.78081 14.1283 8.75805 14.1805C7.73529 14.2326 6.7172 14.012 5.81122 13.5419C5.65361 13.4601 5.49866 13.3741 5.34972 13.2787C4.59122 12.7932 3.96109 12.1368 3.51149 11.364C3.06188 10.5911 2.80574 9.7239 2.76425 8.83419C2.76019 8.74801 2.75754 8.66155 2.75754 8.57441C2.75754 8.46304 2.76173 8.35276 2.76817 8.24318C2.82163 7.34781 3.09239 6.47811 3.55775 5.70701C4.02311 4.93592 4.66951 4.28591 5.44272 3.81149C5.58648 3.72311 5.7364 3.64326 5.88771 3.56741C6.73145 3.14697 7.6682 2.9398 8.61354 2.96458C9.55888 2.98935 10.4831 3.2453 11.3029 3.70934C12.1227 4.17338 12.8124 4.83093 13.3097 5.62275C13.807 6.41456 14.0964 7.31575 14.1518 8.24511C14.1582 8.35414 14.1623 8.46372 14.1623 8.57441C14.1623 8.66582 14.1596 8.75668 14.1553 8.84699C14.1124 9.72423 13.8608 10.5793 13.4208 11.3433C12.9808 12.1073 12.3647 12.7589 11.6221 13.2456V13.2456Z"/>
</mask>
<path d="M16.9565 10.8389C16.9329 10.7931 16.902 10.7395 16.8617 10.6773C16.63 10.381 16.3708 10.1066 16.0874 9.85762C16.2432 8.96695 16.2356 8.05602 16.065 7.16799C16.3281 6.93419 16.5682 6.67653 16.7821 6.39842C16.8224 6.33606 16.8532 6.2825 16.8768 6.23666C16.9075 6.17657 16.9222 6.10978 16.9195 6.04257C16.9168 5.97536 16.8968 5.90993 16.8613 5.85243L15.9047 4.28686L15.8745 4.23675L14.9179 2.67119C14.8829 2.61338 14.8335 2.56529 14.7745 2.53143C14.7154 2.49757 14.6486 2.47905 14.5803 2.47762C14.5281 2.47666 14.4656 2.47831 14.3908 2.48409C14.0605 2.53527 13.7359 2.61704 13.4212 2.72832C12.7175 2.14862 11.9145 1.69695 11.0499 1.39445C10.98 1.03692 10.8762 0.686634 10.74 0.348168C10.7064 0.282087 10.6756 0.228534 10.6479 0.18503C10.6115 0.128135 10.5609 0.0813032 10.501 0.0489365C10.4411 0.0165698 10.3738 -0.000268633 10.3055 3.90174e-06H6.53282C6.46448 -0.000294544 6.39718 0.0165328 6.33727 0.0489019C6.27735 0.081271 6.22679 0.128117 6.19034 0.18503C6.16237 0.228534 6.13188 0.281398 6.09832 0.348168C5.95904 0.696503 5.85309 1.05688 5.78185 1.4246C4.96003 1.72344 4.19579 2.15763 3.5218 2.70863C3.22454 2.60556 2.91809 2.53025 2.6065 2.48368C2.53169 2.47804 2.46917 2.47652 2.41701 2.47762C2.34869 2.47915 2.28189 2.49776 2.22289 2.53169C2.16388 2.56562 2.11461 2.61377 2.0797 2.6716L1.12581 4.23895L1.09505 4.28948L0.141017 5.85656C0.105759 5.9142 0.0859764 5.97972 0.0835299 6.04696C0.0810835 6.1142 0.0960539 6.18095 0.127033 6.24093C0.150667 6.28663 0.181433 6.34019 0.221848 6.40255C0.414139 6.65544 0.630276 6.88988 0.867378 7.10273C0.680686 8.03295 0.672811 8.98938 0.844163 9.92246C0.584852 10.1531 0.348297 10.4074 0.137661 10.682C0.0973854 10.7443 0.0666193 10.7979 0.0431251 10.8437C0.0123546 10.9038 -0.00237884 10.9706 0.000312385 11.0378C0.00300361 11.105 0.0230308 11.1705 0.0585081 11.228L1.01506 12.7935L1.04596 12.8441L2.00265 14.4096C2.03762 14.4674 2.08696 14.5155 2.14602 14.5494C2.20507 14.5832 2.27191 14.6018 2.34024 14.6032C2.3924 14.6042 2.45491 14.6032 2.52973 14.5967C2.83993 14.55 3.14498 14.4746 3.44083 14.3715C4.14388 14.9632 4.94911 15.4258 5.81821 15.7374C5.88229 16.0502 5.97621 16.3564 6.09874 16.6518C6.1323 16.7179 6.16307 16.7715 6.19076 16.815C6.22721 16.8719 6.27777 16.9187 6.33769 16.9511C6.3976 16.9835 6.4649 17.0003 6.53324 17H10.3049C10.3732 17.0003 10.4405 16.9834 10.5004 16.951C10.5603 16.9187 10.6109 16.8719 10.6474 16.815C10.6753 16.7715 10.7058 16.7186 10.7394 16.6518C10.8587 16.366 10.9503 16.0697 11.0131 15.7669C11.925 15.4527 12.769 14.9729 13.5012 14.3524C13.8177 14.4637 14.1441 14.5454 14.4761 14.5966C14.5509 14.6021 14.6134 14.6037 14.6656 14.6026C14.7339 14.6011 14.8007 14.5824 14.8597 14.5485C14.9187 14.5145 14.968 14.4664 15.0029 14.4085L15.9568 12.8414L15.9875 12.7909L16.9416 11.2237C16.9771 11.1661 16.9971 11.1005 16.9997 11.0332C17.0023 10.9659 16.9875 10.899 16.9565 10.8389ZM11.6221 13.2456C10.7703 13.8054 9.78081 14.1283 8.75805 14.1805C7.73529 14.2326 6.7172 14.012 5.81122 13.5419C5.65361 13.4601 5.49866 13.3741 5.34972 13.2787C4.59122 12.7932 3.96109 12.1368 3.51149 11.364C3.06188 10.5911 2.80574 9.7239 2.76425 8.83419C2.76019 8.74801 2.75754 8.66155 2.75754 8.57441C2.75754 8.46304 2.76173 8.35276 2.76817 8.24318C2.82163 7.34781 3.09239 6.47811 3.55775 5.70701C4.02311 4.93592 4.66951 4.28591 5.44272 3.81149C5.58648 3.72311 5.7364 3.64326 5.88771 3.56741C6.73145 3.14697 7.6682 2.9398 8.61354 2.96458C9.55888 2.98935 10.4831 3.2453 11.3029 3.70934C12.1227 4.17338 12.8124 4.83093 13.3097 5.62275C13.807 6.41456 14.0964 7.31575 14.1518 8.24511C14.1582 8.35414 14.1623 8.46372 14.1623 8.57441C14.1623 8.66582 14.1596 8.75668 14.1553 8.84699C14.1124 9.72423 13.8608 10.5793 13.4208 11.3433C12.9808 12.1073 12.3647 12.7589 11.6221 13.2456V13.2456Z" stroke="#4B4B4B" mask="url(#path-1-inside-1_11712_21427)"/>
<mask id="path-2-outside-2_11712_21427" maskUnits="userSpaceOnUse" x="4.15332" y="4.08643" width="9" height="10" fill="black">
<rect fill="white" x="4.15332" y="4.08643" width="9" height="10"/>
<path d="M11.847 8.16018C11.847 7.52481 11.6602 6.90302 11.3091 6.36988C10.958 5.83674 10.4577 5.41504 9.86846 5.1557C9.8192 5.13446 9.76533 5.12566 9.71174 5.1301C9.65815 5.13454 9.60653 5.15207 9.56156 5.18111C9.51659 5.21015 9.4797 5.24977 9.45422 5.2964C9.42874 5.34302 9.41548 5.39516 9.41564 5.44811V7.83693C9.41569 7.86398 9.40907 7.89063 9.39636 7.91461C9.38364 7.93859 9.36521 7.95917 9.34264 7.9746L8.6525 8.44694C8.6248 8.46586 8.59189 8.476 8.55818 8.476C8.52446 8.476 8.49155 8.46586 8.46385 8.44694L7.76588 7.97267C7.74404 7.95779 7.72619 7.93792 7.71386 7.91476C7.70154 7.89159 7.6951 7.86583 7.69512 7.83968V5.4108C7.69514 5.35781 7.68198 5.30562 7.65677 5.2588C7.63156 5.21199 7.59508 5.17196 7.55052 5.14224C7.50596 5.11252 7.45468 5.094 7.40117 5.0883C7.34765 5.08261 7.29354 5.08991 7.24355 5.10958C6.65639 5.34337 6.14874 5.7365 5.77968 6.24323C5.41062 6.74996 5.19534 7.34945 5.15887 7.97192C5.1224 8.5944 5.26626 9.21428 5.57369 9.75941C5.88113 10.3045 6.3395 10.7525 6.89548 11.0512L6.85828 11.0486V12.4337L6.86919 12.436C6.86517 12.4483 6.86291 12.461 6.86247 12.4739C6.86247 12.7283 7.59555 12.9345 8.49993 12.9345C9.40431 12.9345 10.1375 12.728 10.1375 12.4739C10.137 12.461 10.1347 12.4483 10.1307 12.436L10.1416 12.4337V11.0485L10.1044 11.0511C10.6318 10.7677 11.072 10.3497 11.3786 9.841C11.6853 9.3323 11.8471 8.75169 11.847 8.16018V8.16018Z"/>
</mask>
<path d="M11.847 8.16018C11.847 7.52481 11.6602 6.90302 11.3091 6.36988C10.958 5.83674 10.4577 5.41504 9.86846 5.1557C9.8192 5.13446 9.76533 5.12566 9.71174 5.1301C9.65815 5.13454 9.60653 5.15207 9.56156 5.18111C9.51659 5.21015 9.4797 5.24977 9.45422 5.2964C9.42874 5.34302 9.41548 5.39516 9.41564 5.44811V7.83693C9.41569 7.86398 9.40907 7.89063 9.39636 7.91461C9.38364 7.93859 9.36521 7.95917 9.34264 7.9746L8.6525 8.44694C8.6248 8.46586 8.59189 8.476 8.55818 8.476C8.52446 8.476 8.49155 8.46586 8.46385 8.44694L7.76588 7.97267C7.74404 7.95779 7.72619 7.93792 7.71386 7.91476C7.70154 7.89159 7.6951 7.86583 7.69512 7.83968V5.4108C7.69514 5.35781 7.68198 5.30562 7.65677 5.2588C7.63156 5.21199 7.59508 5.17196 7.55052 5.14224C7.50596 5.11252 7.45468 5.094 7.40117 5.0883C7.34765 5.08261 7.29354 5.08991 7.24355 5.10958C6.65639 5.34337 6.14874 5.7365 5.77968 6.24323C5.41062 6.74996 5.19534 7.34945 5.15887 7.97192C5.1224 8.5944 5.26626 9.21428 5.57369 9.75941C5.88113 10.3045 6.3395 10.7525 6.89548 11.0512L6.85828 11.0486V12.4337L6.86919 12.436C6.86517 12.4483 6.86291 12.461 6.86247 12.4739C6.86247 12.7283 7.59555 12.9345 8.49993 12.9345C9.40431 12.9345 10.1375 12.728 10.1375 12.4739C10.137 12.461 10.1347 12.4483 10.1307 12.436L10.1416 12.4337V11.0485L10.1044 11.0511C10.6318 10.7677 11.072 10.3497 11.3786 9.841C11.6853 9.3323 11.8471 8.75169 11.847 8.16018V8.16018Z" stroke="#4B4B4B" mask="url(#path-2-outside-2_11712_21427)"/>
</svg>