<svg width="17" height="17" viewBox="0 0 17 17" fill="none" xmlns="http://www.w3.org/2000/svg">
<path d="M10.5004 16.951C10.5603 16.9187 10.6109 16.8719 10.6474 16.815C10.6753 16.7715 10.7058 16.7186 10.7394 16.6518M10.5004 16.951L10.3816 16.7311C10.4046 16.7187 10.4235 16.701 10.4369 16.68L10.4371 16.6798C10.4588 16.646 10.4837 16.6032 10.5121 16.5473M10.5004 16.951L10.3816 16.7311C10.3586 16.7435 10.3325 16.7501 10.3058 16.75H10.3049L6.53324 16.75L6.53215 16.75C6.50551 16.7501 6.47947 16.7435 6.45652 16.7311C6.43359 16.7188 6.41469 16.7011 6.40129 16.6801L6.19076 16.815M10.5004 16.951C10.4405 16.9834 10.3732 17.0003 10.3049 17L6.19076 16.815M10.5121 16.5473C10.511 16.5501 10.5098 16.5528 10.5087 16.5556L10.7394 16.6518M10.5121 16.5473C10.5134 16.5448 10.5147 16.5422 10.516 16.5396L10.7394 16.6518M10.5121 16.5473C10.6236 16.2787 10.7093 16.0004 10.7683 15.7161L10.7972 15.5769L10.9316 15.5305C11.8144 15.2264 12.6311 14.762 13.3396 14.1616L13.4489 14.069L13.5842 14.1165C13.8829 14.2216 14.1909 14.2991 14.5042 14.348M10.7394 16.6518C10.8587 16.366 10.9503 16.0697 11.0131 15.7669C11.925 15.4527 12.769 14.9729 13.5012 14.3524C13.8177 14.4637 14.1441 14.5454 14.4761 14.5966M14.5042 14.348C14.501 14.3477 14.4977 14.3475 14.4944 14.3473L14.4761 14.5966M14.5042 14.348C14.5075 14.3485 14.5108 14.349 14.5141 14.3495L14.4761 14.5966M14.5042 14.348C14.5681 14.3524 14.6195 14.3536 14.6603 14.3527L14.6656 14.6026M14.4761 14.5966C14.5509 14.6021 14.6134 14.6037 14.6656 14.6026M14.6656 14.6026L14.6599 14.3527C14.6866 14.3521 14.7124 14.3448 14.735 14.3318C14.7576 14.3188 14.776 14.3007 14.7888 14.2794L14.7893 14.2785L15.7432 12.7115L15.7432 12.7114L15.774 12.6609M14.6656 14.6026L15.774 12.6609M15.774 12.6609L15.9846 12.7891L15.774 12.6609L16.728 11.0937L16.7288 11.0925C16.7418 11.0714 16.749 11.0476 16.7499 11.0235C16.7508 10.9994 16.7455 10.9752 16.7342 10.9533M15.774 12.6609L16.6648 10.8313C16.6624 10.8283 16.6601 10.8253 16.6578 10.8224M16.7342 10.9533C16.7343 10.9534 16.7343 10.9534 16.7343 10.9535L16.9565 10.8389L16.7342 10.9533ZM16.7342 10.9533C16.716 10.9179 16.6912 10.8745 16.6578 10.8224M16.6578 10.8224C16.4375 10.5418 16.1913 10.2817 15.9224 10.0454L15.8169 9.9528L15.8411 9.81454C15.9917 8.95376 15.9844 8.0734 15.8195 7.21515L15.7927 7.07556L15.8989 6.98113C16.1476 6.76006 16.3749 6.51671 16.5776 6.25425C16.6112 6.20172 16.6361 6.15799 16.6546 6.1221L16.8768 6.23666M16.6578 10.8224L10.437 0.31927C10.4587 0.353239 10.4838 0.396631 10.5122 0.451805C10.6405 0.772431 10.7384 1.10405 10.8045 1.4424L10.832 1.58309L10.9673 1.63042C11.8043 1.92324 12.5814 2.3604 13.2623 2.92128L13.3713 3.01113L13.5046 2.96401C13.8015 2.859 14.1078 2.78154 14.4195 2.73264C14.4828 2.728 14.5341 2.72683 14.5753 2.72757C14.6018 2.72817 14.6276 2.73539 14.6501 2.74831C14.6727 2.76125 14.6911 2.77937 14.704 2.80061L14.7045 2.80154L15.6604 4.36582L15.6612 4.36711L15.6906 4.41593L15.6914 4.41721L16.648 5.98277L16.6485 5.98366C16.6615 6.00479 16.6687 6.02853 16.6697 6.05266C16.6707 6.07679 16.6654 6.10093 16.6542 6.12289L16.8768 6.23666M16.8768 6.23666C16.9075 6.17657 16.9222 6.10978 16.9195 6.04257C16.9168 5.97536 16.8968 5.90993 16.8613 5.85243M16.8768 6.23666C16.8532 6.2825 16.8224 6.33606 16.7821 6.39842C16.5682 6.67653 16.3281 6.93419 16.065 7.16799L16.8613 5.85243M16.8613 5.85243L15.9047 4.28686L15.8745 4.23675L16.8613 5.85243ZM6.19076 16.815L6.40166 16.6807C6.37989 16.6465 6.35453 16.6028 6.32595 16.5471M6.19076 16.815L2.50047 14.3483M6.32595 16.5471C6.21133 16.2691 6.12335 15.9813 6.06312 15.6873L6.03491 15.5496L5.90258 15.5021C5.06129 15.2005 4.28203 14.7527 3.6018 14.1802L3.49294 14.0886L3.35858 14.1354C3.07992 14.2325 2.79264 14.3038 2.50047 14.3483M6.32595 16.5471C6.32452 16.5443 6.32308 16.5415 6.32164 16.5386L6.09874 16.6518L6.32967 16.5561C6.32842 16.5531 6.32718 16.5501 6.32595 16.5471ZM2.50047 14.3483C2.4978 14.3487 2.49513 14.3491 2.49247 14.3495L2.52973 14.5967M2.50047 14.3483C2.50303 14.3481 2.5056 14.3479 2.50819 14.3476L2.52973 14.5967M2.52973 14.5967C2.45491 14.6032 2.3924 14.6042 2.34024 14.6032L2.52973 14.5967ZM6.00035 1.61116L5.86728 1.65955C5.07176 1.94882 4.33216 2.36906 3.68003 2.90218L3.57188 2.9906L3.4399 2.94484C3.16018 2.84785 2.87187 2.7767 2.5787 2.73231C2.51505 2.72775 2.46354 2.7267 2.42229 2.72757L2.41701 2.47762M6.00035 1.61116L0.265629 10.9577C0.283847 10.9222 0.308627 10.8786 0.342274 10.826C0.541692 10.5671 0.765343 10.3272 1.01032 10.1093L1.11547 10.0157L1.09005 9.8773C0.924432 8.97544 0.932042 8.05103 1.11249 7.15193L1.14057 7.01202L1.03439 6.9167C0.811357 6.71648 0.607891 6.49622 0.426625 6.25881C0.392828 6.20618 0.367801 6.16225 0.349153 6.1262C0.337839 6.1043 0.332487 6.08018 0.333365 6.05605C0.334242 6.03193 0.341339 6.00817 0.354283 5.98701L0.354558 5.98656L1.30857 4.4195L1.30859 4.41948L1.33934 4.36898L1.33937 4.36893L2.29326 2.80157L2.29373 2.80079C2.30657 2.77953 2.32496 2.76139 2.34752 2.74841L2.22289 2.53169L2.34752 2.74841C2.3701 2.73542 2.39595 2.72816 2.42261 2.72756L2.41701 2.47762M6.00035 1.61116L6.02729 1.47215M6.00035 1.61116L6.02729 1.47215M2.41701 2.47762C2.46917 2.47652 2.53169 2.47804 2.6065 2.48368L2.41701 2.47762ZM6.02729 1.47215C6.09484 1.12347 6.19497 0.781666 6.32643 0.451077L6.02729 1.47215ZM2.5186 8.22853L2.51861 8.22828C2.57449 7.29233 2.85752 6.38344 3.34371 5.57784C3.82987 4.77228 4.5049 4.09361 5.31191 3.59845M2.5186 8.22853L2.51453 8.84594C2.55791 9.77595 2.82566 10.6822 3.29539 11.4897C3.76512 12.2972 4.42324 12.9825 5.21495 13.4892C5.37247 13.5901 5.53457 13.68 5.69607 13.7638C6.64159 14.2544 7.70384 14.4845 8.77078 14.4302C9.83772 14.3758 10.8702 14.0388 11.7594 13.4546C12.5344 12.9465 13.1778 12.2662 13.6375 11.4681C14.0972 10.6698 14.3601 9.77621 14.405 8.8592L14.405 8.85898C14.4095 8.76558 14.4123 8.67063 14.4123 8.57441C14.4123 8.45767 14.408 8.34302 14.4013 8.23038L14.4013 8.23024C14.3435 7.25878 14.041 6.317 13.5214 5.48978C13.0019 4.66258 12.2817 3.97607 11.4261 3.49177C10.5705 3.00748 9.60619 2.74051 8.62009 2.71466C7.63399 2.68882 6.65669 2.9049 5.77621 3.34365L5.77567 3.34392C5.62104 3.42144 5.46414 3.50486 5.31191 3.59845M2.5186 8.22853C2.51197 8.34148 2.50754 8.45684 2.50754 8.57441C2.50754 8.66653 2.51034 8.75704 2.51452 8.84583L2.5186 8.22853ZM5.31191 3.59845C5.31193 3.59844 5.31196 3.59842 5.31198 3.59841L5.44269 3.81143L5.31179 3.59852C5.31183 3.5985 5.31187 3.59847 5.31191 3.59845ZM2.34537 14.3532C2.31875 14.3527 2.29293 14.3454 2.27037 14.3325C2.2478 14.3196 2.22939 14.3014 2.21654 14.2802L2.21597 14.2793L1.25928 12.7137L1.25923 12.7136L1.22839 12.6632L1.22832 12.6631L0.271842 11.0976L0.271265 11.0967C0.258253 11.0756 0.251077 11.0519 0.250112 11.0278C0.249148 11.0037 0.254402 10.9797 0.265609 10.9578L2.34537 14.3532Z" stroke="#3491FF" stroke-width="0.5"/>
<path d="M9.16564 7.79279L8.55801 8.20867L7.94512 7.79221V5.41093C7.94512 5.41088 7.94512 5.41084 7.94512 5.4108C7.94514 5.31629 7.92164 5.2234 7.87689 5.14029C7.83214 5.05716 7.7676 4.98652 7.68925 4.93427L7.55052 5.14224L7.68925 4.93426C7.61093 4.88202 7.52109 4.84965 7.42762 4.83971C7.33415 4.82976 7.23955 4.8425 7.15202 4.87694L7.15202 4.87694L7.15107 4.87731C6.52046 5.12841 5.97467 5.55086 5.5776 6.09605C5.1805 6.64128 4.94858 7.28673 4.9093 7.9573C4.87001 8.62788 5.02502 9.29544 5.35594 9.88222C5.65511 10.4127 6.08681 10.8572 6.60828 11.1748V12.4337V12.6357L6.65197 12.6451C6.70007 12.7442 6.78349 12.8153 6.85269 12.8613C6.96625 12.9369 7.11409 12.9952 7.27436 13.0403C7.59835 13.1314 8.03156 13.1845 8.49993 13.1845C8.96833 13.1845 9.40158 13.1313 9.72559 13.0402C9.88587 12.9951 10.0337 12.9367 10.1472 12.8613C10.2164 12.8153 10.2999 12.7442 10.348 12.6451L10.3916 12.6357V12.4337V11.1746C10.8835 10.875 11.2961 10.4622 11.5927 9.97006C11.9227 9.42258 12.0971 8.79738 12.097 8.16018L9.16564 7.79279ZM9.16564 7.79279V5.44834V5.44811H9.41564C9.41548 5.39516 9.42874 5.34302 9.45422 5.2964C9.4797 5.24977 9.51659 5.21015 9.56156 5.18111L9.42595 4.97109C9.50561 4.91965 9.59675 4.88876 9.69111 4.88095C9.78547 4.87314 9.88042 4.88861 9.96743 4.92612L9.96918 4.92688L9.96918 4.92688C10.6021 5.20545 11.1401 5.65867 11.5179 6.23238C11.8957 6.80613 12.097 7.47568 12.097 8.16016L9.16564 7.79279ZM11.3091 6.36988C11.6602 6.90302 11.847 7.52481 11.847 8.16018L11.3091 6.36988ZM11.3091 6.36988C10.958 5.83674 10.4577 5.41504 9.86846 5.1557L11.3091 6.36988ZM9.20156 7.76821L9.20144 7.76829L9.20156 7.76821ZM9.16564 7.83735C9.16564 7.83721 9.16564 7.83707 9.16564 7.83693L9.16564 7.83735Z" stroke="#3491FF" stroke-width="0.5"/>
</svg>