<svg width="17" height="17" viewBox="0 0 17 17" fill="none" xmlns="http://www.w3.org/2000/svg">
<path d="M15.8169 9.9528L15.8411 9.81454C15.9917 8.95376 15.9844 8.0734 15.8195 7.21515L15.7927 7.07556L15.8989 6.98113C16.1477 6.76006 16.3749 6.5167 16.5776 6.25425C16.611 6.20199 16.6358 6.15845 16.6543 6.12268C16.6655 6.10078 16.6707 6.07671 16.6697 6.05266C16.6687 6.02853 16.6615 6.00479 16.6485 5.98366L16.648 5.98277L15.6914 4.41721L15.6906 4.41593L15.6612 4.36711L15.6604 4.36582L14.7045 2.80154L14.704 2.80061C14.6911 2.77937 14.6727 2.76125 14.6501 2.74831C14.6276 2.73539 14.6018 2.72817 14.5753 2.72757C14.5341 2.72683 14.4828 2.728 14.4195 2.73264C14.1078 2.78154 13.8015 2.859 13.5046 2.96401L13.3713 3.01113L13.2623 2.92128C12.5814 2.3604 11.8043 1.92324 10.9673 1.63042L10.832 1.58309L10.8045 1.4424C10.7384 1.10405 10.6405 0.772431 10.5122 0.451806C10.4838 0.396632 10.4587 0.353239 10.437 0.319269L15.8169 9.9528ZM15.8169 9.9528L15.9224 10.0454M15.8169 9.9528L15.9224 10.0454M15.9224 10.0454C16.1913 10.2817 16.4375 10.5418 16.6578 10.8224C16.6912 10.8745 16.716 10.9179 16.7342 10.9533C16.7455 10.9752 16.7508 10.9994 16.7499 11.0235C16.749 11.0476 16.7418 11.0714 16.7288 11.0925L16.728 11.0937L15.774 12.6609L15.774 12.6609L15.7432 12.7114L15.7432 12.7115L14.7893 14.2785L14.7888 14.2794C14.776 14.3007 14.7576 14.3188 14.735 14.3318C14.7124 14.3448 14.6866 14.3521 14.6599 14.3527L14.6656 14.6026M15.9224 10.0454L3.49294 14.0886M6.00035 1.61116L5.86728 1.65955C5.07176 1.94882 4.33216 2.36906 3.68003 2.90218L3.57188 2.9906L3.4399 2.94484C3.16018 2.84785 2.87187 2.7767 2.5787 2.73231C2.51505 2.72775 2.46354 2.7267 2.42229 2.72757L2.41701 2.47762M6.00035 1.61116L2.34546 14.3532C2.31881 14.3527 2.29296 14.3455 2.27037 14.3325C2.2478 14.3196 2.22939 14.3014 2.21654 14.2802L2.21597 14.2793L1.25928 12.7137L1.25922 12.7136L1.22839 12.6632L1.22832 12.6631L0.271842 11.0976L0.271266 11.0967C0.258253 11.0756 0.251077 11.0519 0.250112 11.0278C0.249148 11.0037 0.254402 10.9797 0.26561 10.9578C0.283828 10.9222 0.308615 10.8786 0.342273 10.826C0.54169 10.5671 0.765343 10.3272 1.01032 10.1093L1.11547 10.0157L1.09005 9.8773C0.924432 8.97544 0.932042 8.05103 1.11249 7.15193L1.14057 7.01202L1.03439 6.9167C0.811356 6.71648 0.607891 6.49622 0.426625 6.25881C0.392828 6.20618 0.3678 6.16225 0.349152 6.1262C0.337839 6.1043 0.332487 6.08018 0.333365 6.05605C0.334242 6.03193 0.341339 6.00817 0.354283 5.98701L0.354558 5.98656L1.30857 4.4195L1.30859 4.41948L1.33934 4.36898L1.33937 4.36893L2.29326 2.80157L2.29373 2.80079C2.30657 2.77953 2.32496 2.76139 2.34752 2.74841C2.3701 2.73542 2.39595 2.72816 2.42261 2.72756L2.41701 2.47762M6.00035 1.61116L6.02729 1.47215M6.00035 1.61116L6.02729 1.47215M2.41701 2.47762C2.3487 2.47915 2.28189 2.49776 2.22289 2.53169C2.16388 2.56562 2.11461 2.61377 2.0797 2.6716L3.5218 2.70863C3.22454 2.60556 2.91809 2.53025 2.6065 2.48368C2.53169 2.47804 2.46917 2.47652 2.41701 2.47762ZM6.02729 1.47215C6.09484 1.12347 6.19497 0.781666 6.32643 0.451076L6.02729 1.47215ZM3.49294 14.0886L3.6018 14.1802C4.28203 14.7527 5.06129 15.2005 5.90258 15.5021L6.03491 15.5496L6.06312 15.6873C6.12335 15.9813 6.21133 16.2691 6.32595 16.5471C6.35453 16.6028 6.37989 16.6465 6.40166 16.6807L6.19076 16.815M3.49294 14.0886L3.35858 14.1354M3.49294 14.0886L3.35858 14.1354M6.19076 16.815L6.40128 16.6801C6.41469 16.7011 6.43359 16.7188 6.45652 16.7311C6.47947 16.7435 6.50551 16.7501 6.53215 16.75L6.53324 16.75L10.3049 16.75H10.3058C10.3325 16.7501 10.3586 16.7435 10.3816 16.7311C10.4046 16.7187 10.4235 16.701 10.4369 16.68L10.4371 16.6798C10.4588 16.646 10.4837 16.6032 10.5121 16.5473C10.6236 16.2787 10.7093 16.0004 10.7683 15.7161L10.7972 15.5769L10.9316 15.5305C11.8144 15.2264 12.6311 14.762 13.3396 14.1616L13.4489 14.069L13.5842 14.1165C13.8829 14.2216 14.1909 14.2991 14.5042 14.348C14.5681 14.3524 14.6195 14.3536 14.6603 14.3527L14.6656 14.6026M6.19076 16.815C6.16307 16.7715 6.1323 16.7179 6.09874 16.6518M6.19076 16.815L6.09874 16.6518M14.6656 14.6026C14.6134 14.6037 14.5509 14.6021 14.4761 14.5966M14.6656 14.6026C14.7339 14.6011 14.8007 14.5824 14.8597 14.5485C14.9187 14.5145 14.968 14.4664 15.0029 14.4085L14.4761 14.5966M14.4761 14.5966C14.1441 14.5454 13.8177 14.4637 13.5012 14.3524C12.769 14.9729 11.925 15.4527 11.0131 15.7669C10.9503 16.0697 10.8587 16.366 10.7394 16.6518C10.7058 16.7186 10.6753 16.7715 10.6474 16.815L14.4761 14.5966ZM6.09874 16.6518C5.97621 16.3564 5.88229 16.0502 5.81821 15.7374L6.09874 16.6518ZM3.35858 14.1354C3.07992 14.2325 2.79264 14.3038 2.50048 14.3483L3.35858 14.1354ZM2.5186 8.22853L2.51861 8.22828C2.57449 7.29233 2.85752 6.38344 3.34371 5.57784C3.82985 4.77232 4.50484 4.09368 5.31179 3.59852C5.46406 3.50491 5.621 3.42146 5.77567 3.34392L5.77621 3.34365C6.65669 2.9049 7.63399 2.68882 8.62009 2.71466C9.60619 2.74051 10.5705 3.00748 11.4261 3.49177C12.2817 3.97607 13.0019 4.66258 13.5214 5.48978C14.041 6.317 14.3435 7.25878 14.4013 8.23024L14.4013 8.23038C14.408 8.34302 14.4123 8.45767 14.4123 8.57441C14.4123 8.67063 14.4095 8.76558 14.405 8.85898L14.405 8.8592C14.3601 9.77621 14.0972 10.6698 13.6375 11.4681C13.1778 12.2663 12.5343 12.9466 11.7592 13.4547M2.5186 8.22853L2.51453 8.84594C2.55791 9.77595 2.82566 10.6822 3.29539 11.4897C3.76511 12.2971 4.42319 12.9824 5.21488 13.4892C5.37241 13.5901 5.53455 13.68 5.69607 13.7638C6.64159 14.2544 7.70384 14.4845 8.77078 14.4302C9.83766 14.3758 10.8701 14.0389 11.7592 13.4547M2.5186 8.22853C2.51197 8.34148 2.50754 8.45684 2.50754 8.57441C2.50754 8.66653 2.51034 8.75704 2.51452 8.84583L2.5186 8.22853ZM11.7592 13.4547C11.7592 13.4547 11.7592 13.4547 11.7591 13.4547L11.6221 13.2456L11.7594 13.4546C11.7593 13.4546 11.7593 13.4546 11.7592 13.4547ZM0.0585886 11.2279L0.0585081 11.228L0.0585886 11.2279Z" stroke="#4B4B4B" stroke-width="0.5"/>
<path d="M9.96918 4.92688L9.96918 4.92688C10.6021 5.20545 11.1401 5.65867 11.5179 6.23238C11.8957 6.80613 12.097 7.47568 12.097 8.16016L9.96918 4.92688ZM9.96918 4.92688L9.96743 4.92612L9.96918 4.92688ZM6.60828 11.1748C6.08681 10.8572 5.65511 10.4127 5.35594 9.88222C5.02502 9.29544 4.87001 8.62788 4.9093 7.9573C4.94858 7.28673 5.1805 6.64128 5.5776 6.09605C5.97467 5.55086 6.52046 5.12841 7.15107 4.87731L7.15202 4.87694L7.15202 4.87694C7.23955 4.8425 7.33415 4.82976 7.42762 4.83971C7.52109 4.84965 7.61093 4.88202 7.68925 4.93426C7.7676 4.98652 7.83214 5.05716 7.87689 5.14029C7.92164 5.2234 7.94514 5.31629 7.94512 5.4108C7.94512 5.41084 7.94512 5.41088 7.94512 5.41093V7.79221L8.55801 8.20867L9.16564 7.79279V5.44854V5.44811H9.41564L6.60828 11.1748ZM6.60828 11.1748V12.4337V12.6357L6.65196 12.6451C6.70007 12.7442 6.78348 12.8153 6.85269 12.8613C6.96625 12.9369 7.11409 12.9952 7.27436 13.0403C7.59835 13.1314 8.03156 13.1845 8.49993 13.1845C8.96833 13.1845 9.40158 13.1313 9.72559 13.0402C9.88587 12.9951 10.0337 12.9367 10.1472 12.8613C10.2164 12.8153 10.2999 12.7442 10.348 12.6451L10.3916 12.6357V12.4337V11.1746C10.8835 10.875 11.2961 10.4622 11.5927 9.97006C11.9227 9.42258 12.0971 8.79738 12.097 8.16018L6.60828 11.1748Z" stroke="#4B4B4B" stroke-width="0.5"/>
</svg>