<svg width="15" height="20" viewBox="0 0 15 20" fill="none" xmlns="http://www.w3.org/2000/svg">
<path d="M0.500479 0.16312C-0.0357159 0.510639 0.000513455 -0.248226 0.000513455 10C0.000513455 18.6028 0.00775934 19.1986 0.130939 19.4255C0.196152 19.5603 0.348316 19.7376 0.457004 19.8156C0.659889 19.9645 0.717855 19.9645 7.45652 19.9858L14.2532 20L14.4995 19.8369C15.0357 19.4894 14.9995 20.0922 14.9995 11.3475V3.51064L13.2025 1.75887L11.4128 0H6.07981H0.746839L0.500479 0.16312ZM10.8838 1.98582C10.9056 3.23404 10.9128 3.31206 11.0722 3.53192C11.3693 3.93617 11.5142 3.97163 12.9706 3.97163H14.2749V11.5957V19.2199L14.0865 19.2908C13.8401 19.383 1.15985 19.383 0.913494 19.2908L0.725102 19.2199V10V0.77305L0.891757 0.709221C0.978707 0.673759 3.15247 0.652483 5.95663 0.659575L10.8693 0.673759L10.8838 1.98582ZM12.717 2.2695L13.8039 3.33333H12.8112C12.0069 3.33333 11.7968 3.31206 11.7099 3.21986C11.6157 3.13475 11.5939 2.92908 11.5939 2.15603C11.5939 1.63121 11.6012 1.20568 11.6157 1.20568C11.6229 1.20568 12.1229 1.68085 12.717 2.2695Z" fill="#3585E5"/>
<path d="M2.91338 5.80842C2.42066 6.11339 2.254 6.69495 2.53659 7.14885C2.9641 7.8297 3.96403 7.81552 4.31183 7.11339C4.52196 6.68076 4.39154 6.13466 4.00751 5.85807C3.72492 5.6524 3.20321 5.63112 2.91338 5.80842ZM3.62347 6.43963C3.92056 6.67367 3.59449 7.12757 3.26118 6.95027C3.07279 6.85098 3.06554 6.48927 3.24669 6.38998C3.41334 6.29069 3.44233 6.29069 3.62347 6.43963Z" fill="#3585E5"/>
<path d="M5.79724 6.66663V7.02124H9.20281H12.6084V6.66663V6.31202H9.20281H5.79724V6.66663Z" fill="#3585E5"/>
<path d="M2.91337 9.14184C2.78294 9.22694 2.61628 9.39007 2.53658 9.51773C2.02937 10.3333 2.97858 11.305 3.86258 10.8865C4.52195 10.5745 4.60166 9.61702 4.00749 9.19148C3.7249 8.98581 3.2032 8.96453 2.91337 9.14184ZM3.54376 9.71631C3.80461 9.85106 3.80461 10.1489 3.54376 10.2908C3.21045 10.461 2.92061 9.9078 3.24668 9.7234C3.39884 9.6312 3.39159 9.6312 3.54376 9.71631Z" fill="#3585E5"/>
<path d="M5.79724 10.0001V10.3547H9.20281H12.6084V10.0001V9.64552H9.20281H5.79724V10.0001Z" fill="#3585E5"/>
<path d="M2.91336 12.4752C2.23225 12.9007 2.23225 13.766 2.91336 14.1915C3.50028 14.5461 4.31906 14.1419 4.39877 13.461C4.47123 12.8582 4.09444 12.4114 3.48579 12.3617C3.23943 12.3405 3.09451 12.3688 2.91336 12.4752ZM3.60897 13.0922C3.8046 13.227 3.81185 13.3617 3.62346 13.5461C3.44231 13.7234 3.36985 13.7234 3.1887 13.5461C3.03654 13.3972 3.05828 13.2199 3.24667 13.0639C3.39159 12.9575 3.41333 12.9575 3.60897 13.0922Z" fill="#3585E5"/>
<path d="M5.79724 13.3334V13.688H9.20281H12.6084V13.3334V12.9788H9.20281H5.79724V13.3334Z" fill="#3585E5"/>
<path d="M2.91338 15.8084C2.42066 16.1134 2.254 16.6949 2.53659 17.1488C2.9641 17.8297 3.96403 17.8155 4.31183 17.1134C4.52196 16.6808 4.39154 16.1347 4.00751 15.8581C3.72492 15.6524 3.20321 15.6311 2.91338 15.8084ZM3.62347 16.4396C3.92056 16.6737 3.59449 17.1276 3.26118 16.9503C3.07279 16.851 3.06554 16.4893 3.24669 16.39C3.41334 16.2907 3.44233 16.2907 3.62347 16.4396Z" fill="#3585E5"/>
<path d="M5.79724 16.6666V17.0212H9.20281H12.6084V16.6666V16.312H9.20281H5.79724V16.6666Z" fill="#3585E5"/>
</svg>
