<svg width="18" height="24" viewBox="0 0 18 24" fill="none" xmlns="http://www.w3.org/2000/svg">
    <path d="M0.600575 0.195745C-0.0428591 0.612766 0.000616146 -0.297871 0.000616146 12C0.000616146 22.3234 0.0093112 23.0383 0.157127 23.3106C0.235383 23.4723 0.417979 23.6851 0.548405 23.7787C0.791866 23.9574 0.861426 23.9574 8.94783 23.983L17.1038 24L17.3994 23.8043C18.0429 23.3872 17.9994 24.1106 17.9994 13.617V4.21277L15.843 2.11064L13.6953 0H7.29577H0.896207L0.600575 0.195745ZM13.0606 2.38298C13.0867 3.88085 13.0954 3.97447 13.2867 4.2383C13.6432 4.7234 13.8171 4.76596 15.5648 4.76596H17.1299V13.9149V23.0638L16.9038 23.1489C16.6082 23.2596 1.39183 23.2596 1.09619 23.1489L0.870122 23.0638V12V0.92766L1.07011 0.851065C1.17445 0.808512 3.78297 0.78298 7.14795 0.791491L13.0432 0.808512L13.0606 2.38298ZM15.2604 2.72341L16.5647 4H15.3735C14.4083 4 14.1562 3.97447 14.0518 3.86383C13.9388 3.7617 13.9127 3.51489 13.9127 2.58723C13.9127 1.95745 13.9214 1.44681 13.9388 1.44681C13.9475 1.44681 14.5474 2.01702 15.2604 2.72341Z" fill="#3585E5"/>
    <path d="M3.49602 6.97016C2.90475 7.33611 2.70477 8.03399 3.04387 8.57867C3.55688 9.39569 4.7568 9.37867 5.17416 8.53611C5.42632 8.01696 5.26981 7.36165 4.80897 7.02973C4.46986 6.78292 3.84382 6.75739 3.49602 6.97016ZM4.34813 7.7276C4.70463 8.00845 4.31335 8.55314 3.91338 8.34037C3.68731 8.22122 3.67861 7.78718 3.89599 7.66803C4.09598 7.54888 4.13076 7.54888 4.34813 7.7276Z" fill="#3585E5"/>
    <path d="M6.95667 8.00001V8.42554H11.0433H15.13V8.00001V7.57447H11.0433H6.95667V8.00001Z" fill="#3585E5"/>
    <path d="M3.49604 10.9703C3.33953 11.0724 3.13954 11.2682 3.0439 11.4214C2.43524 12.4001 3.57429 13.566 4.63509 13.0639C5.42634 12.6895 5.52199 11.5405 4.80899 11.0299C4.46989 10.7831 3.84384 10.7575 3.49604 10.9703ZM4.25251 11.6597C4.56553 11.8214 4.56553 12.1788 4.25251 12.349C3.85254 12.5533 3.50473 11.8895 3.89601 11.6682C4.07861 11.5575 4.06991 11.5575 4.25251 11.6597Z" fill="#3585E5"/>
    <path d="M6.95667 12V12.4255H11.0433H15.13V12V11.5745H11.0433H6.95667V12Z" fill="#3585E5"/>
    <path d="M3.49606 14.9702C2.67872 15.4808 2.67872 16.5191 3.49606 17.0298C4.20036 17.4553 5.1829 16.9702 5.27854 16.1532C5.3655 15.4298 4.91335 14.8936 4.18297 14.834C3.88734 14.8085 3.71343 14.8425 3.49606 14.9702ZM4.33078 15.7106C4.56555 15.8723 4.57425 16.034 4.34817 16.2553C4.1308 16.4681 4.04385 16.4681 3.82647 16.2553C3.64387 16.0766 3.66996 15.8638 3.89603 15.6766C4.06993 15.5489 4.09602 15.5489 4.33078 15.7106Z" fill="#3585E5"/>
    <path d="M6.95667 16V16.4255H11.0433H15.13V16V15.5745H11.0433H6.95667V16Z" fill="#3585E5"/>
    <path d="M3.49602 18.9702C2.90475 19.3361 2.70477 20.034 3.04387 20.5787C3.55688 21.3957 4.7568 21.3787 5.17416 20.5361C5.42632 20.017 5.26981 19.3616 4.80897 19.0297C4.46986 18.7829 3.84382 18.7574 3.49602 18.9702ZM4.34813 19.7276C4.70463 20.0085 4.31335 20.5531 3.91338 20.3404C3.68731 20.2212 3.67861 19.7872 3.89599 19.668C4.09598 19.5489 4.13076 19.5489 4.34813 19.7276Z" fill="#3585E5"/>
    <path d="M6.95667 20V20.4255H11.0433H15.13V20V19.5745H11.0433H6.95667V20Z" fill="#3585E5"/>
</svg>