<svg width="14" height="17" viewBox="0 0 14 17" fill="none" xmlns="http://www.w3.org/2000/svg">
<path d="M11.0934 6.57421C11.0934 4.30975 9.25059 2.46698 6.98613 2.46698C4.72168 2.46698 2.87891 4.30643 2.87891 6.57421C2.87891 8.84198 4.72168 10.6814 6.98613 10.6814C9.25059 10.6814 11.0934 8.83866 11.0934 6.57421ZM6.98613 10.1336C5.02383 10.1336 3.42676 8.53651 3.42676 6.57421C3.42676 4.6119 5.02383 3.01151 6.98613 3.01151C8.94844 3.01151 10.5455 4.60858 10.5455 6.57421C10.5455 8.53983 8.94844 10.1336 6.98613 10.1336Z" fill="#4B4B4B"/>
<path d="M7.84258 5.60134L6.97598 3.87146L6.1293 5.6113L4.2168 5.90017L5.61133 7.24158L5.2959 9.15076L7.00254 8.24099L8.71914 9.13083L8.38047 7.22498L9.7584 5.86697L7.84258 5.60134ZM7.98535 8.13474L6.9959 7.62341L6.01309 8.14802L6.1957 7.049L5.39551 6.27869L6.49453 6.11267L6.9793 5.11326L7.47734 6.10935L8.57969 6.26208L7.78945 7.03904L7.98535 8.13474Z" fill="#4B4B4B"/>
<path d="M11.0467 9.88789C11.2359 9.6123 11.5281 9.40977 11.8801 9.35664C12.6238 9.24375 13.1883 8.71914 13.3543 7.98535C13.5203 7.25156 13.2414 6.53438 12.6205 6.10938C12.0893 5.74414 11.9232 5.02363 12.2453 4.46582C12.6205 3.81504 12.5607 3.04473 12.0926 2.45703C11.6244 1.86934 10.8873 1.64023 10.1701 1.8627C9.55586 2.04863 8.88848 1.72988 8.65274 1.13223C8.37383 0.434961 7.73633 0 6.98594 0C6.23555 0 5.59805 0.434961 5.32246 1.13223C5.08672 1.72988 4.41934 2.05195 3.80508 1.8627C3.08789 1.64355 2.35078 1.86934 1.88262 2.45703C1.41445 3.04473 1.35469 3.81504 1.72988 4.46582C2.05195 5.02363 1.88594 5.74746 1.35469 6.10938C0.733789 6.53438 0.454883 7.25156 0.620899 7.98535C0.786914 8.71914 1.35469 9.24375 2.09512 9.35664C2.44375 9.40977 2.73926 9.6123 2.92852 9.88789L0 14.9514L2.61973 14.2508L3.32031 16.8672L6.00645 12.2287C6.05293 12.1922 6.09941 12.159 6.14258 12.1191C6.61406 11.6809 7.35449 11.6809 7.8293 12.1191C7.87246 12.159 7.91895 12.1889 7.96211 12.2221L10.6516 16.8672L11.3521 14.2508L13.9719 14.9514L11.0467 9.88789ZM3.50957 15.4494L3.0082 13.5801L1.13555 14.0781L3.14102 10.6051C3.14102 10.6283 3.14434 10.6516 3.14102 10.6748C3.08789 11.4252 3.47305 12.0926 4.15039 12.418C4.4791 12.5773 4.83106 12.6305 5.16641 12.584L3.50957 15.4494ZM5.7707 11.7174C5.3125 12.1391 4.75801 12.1025 4.38945 11.9232C4.0209 11.7473 3.6457 11.3355 3.68887 10.7146C3.75527 9.78828 3.09121 8.95488 2.1748 8.81543C1.56055 8.72246 1.2418 8.26094 1.15215 7.8625C1.0625 7.46406 1.14883 6.91289 1.66016 6.56094C2.42383 6.03633 2.66289 4.99707 2.20137 4.19355C1.89258 3.65234 2.05195 3.12109 2.30762 2.79902C2.56328 2.48027 3.04805 2.20469 3.64238 2.3873C4.52891 2.65957 5.4918 2.19473 5.83047 1.33477C6.05957 0.753711 6.57754 0.547852 6.98594 0.547852C7.39434 0.547852 7.91231 0.753711 8.14141 1.33477C8.4834 2.19805 9.44297 2.65957 10.3295 2.3873C10.9238 2.20469 11.4086 2.48027 11.6643 2.79902C11.9199 3.11777 12.0793 3.65234 11.7705 4.19355C11.309 4.99707 11.5447 6.03965 12.3117 6.56094C12.8264 6.91289 12.9127 7.46406 12.8197 7.8625C12.7301 8.26094 12.4113 8.71914 11.7971 8.81543C10.8807 8.95488 10.2133 9.78828 10.283 10.7146C10.3295 11.3355 9.95098 11.7473 9.58242 11.9232C9.21387 12.0992 8.65938 12.1391 8.20117 11.7174C7.52051 11.0865 6.45137 11.0865 5.7707 11.7174ZM10.9637 13.5801L10.4623 15.4527L8.80215 12.5807C8.87852 12.5906 8.95488 12.6039 9.03457 12.6039C9.3002 12.6039 9.56582 12.5441 9.82148 12.4213C10.4988 12.0959 10.884 11.4285 10.8309 10.6781C10.8275 10.6549 10.8342 10.6316 10.8309 10.6084L12.8363 14.0781L10.9637 13.5801Z" fill="#4B4B4B"/>
</svg>
