<svg width="18" height="17" viewBox="0 0 18 17" fill="none" xmlns="http://www.w3.org/2000/svg">
<path d="M13.0934 6.57421C13.0934 4.30975 11.2506 2.46698 8.98613 2.46698C6.72168 2.46698 4.87891 4.30643 4.87891 6.57421C4.87891 8.84198 6.72168 10.6814 8.98613 10.6814C11.2506 10.6814 13.0934 8.83866 13.0934 6.57421ZM8.98613 10.1336C7.02383 10.1336 5.42676 8.53651 5.42676 6.57421C5.42676 4.6119 7.02383 3.01151 8.98613 3.01151C10.9484 3.01151 12.5455 4.60858 12.5455 6.57421C12.5455 8.53983 10.9484 10.1336 8.98613 10.1336Z" fill="#4B4B4B"/>
<path d="M9.84258 5.60134L8.97598 3.87146L8.1293 5.6113L6.2168 5.90017L7.61133 7.24158L7.2959 9.15076L9.00254 8.24099L10.7191 9.13083L10.3805 7.22498L11.7584 5.86697L9.84258 5.60134ZM9.98535 8.13474L8.9959 7.62341L8.01309 8.14802L8.1957 7.049L7.39551 6.27869L8.49453 6.11267L8.9793 5.11326L9.47734 6.10935L10.5797 6.26208L9.78945 7.03904L9.98535 8.13474Z" fill="#4B4B4B"/>
<path d="M13.0467 9.88789C13.2359 9.6123 13.5281 9.40977 13.8801 9.35664C14.6238 9.24375 15.1883 8.71914 15.3543 7.98535C15.5203 7.25156 15.2414 6.53438 14.6205 6.10938C14.0893 5.74414 13.9232 5.02363 14.2453 4.46582C14.6205 3.81504 14.5607 3.04473 14.0926 2.45703C13.6244 1.86934 12.8873 1.64023 12.1701 1.8627C11.5559 2.04863 10.8885 1.72988 10.6527 1.13223C10.3738 0.434961 9.73633 0 8.98594 0C8.23555 0 7.59805 0.434961 7.32246 1.13223C7.08672 1.72988 6.41934 2.05195 5.80508 1.8627C5.08789 1.64355 4.35078 1.86934 3.88262 2.45703C3.41445 3.04473 3.35469 3.81504 3.72988 4.46582C4.05195 5.02363 3.88594 5.74746 3.35469 6.10938C2.73379 6.53438 2.45488 7.25156 2.6209 7.98535C2.78691 8.71914 3.35469 9.24375 4.09512 9.35664C4.44375 9.40977 4.73926 9.6123 4.92852 9.88789L2 14.9514L4.61973 14.2508L5.32031 16.8672L8.00645 12.2287C8.05293 12.1922 8.09941 12.159 8.14258 12.1191C8.61406 11.6809 9.35449 11.6809 9.8293 12.1191C9.87246 12.159 9.91895 12.1889 9.96211 12.2221L12.6516 16.8672L13.3521 14.2508L15.9719 14.9514L13.0467 9.88789ZM5.50957 15.4494L5.0082 13.5801L3.13555 14.0781L5.14102 10.6051C5.14102 10.6283 5.14434 10.6516 5.14102 10.6748C5.08789 11.4252 5.47305 12.0926 6.15039 12.418C6.4791 12.5773 6.83106 12.6305 7.16641 12.584L5.50957 15.4494ZM7.7707 11.7174C7.3125 12.1391 6.75801 12.1025 6.38945 11.9232C6.0209 11.7473 5.6457 11.3355 5.68887 10.7146C5.75527 9.78828 5.09121 8.95488 4.1748 8.81543C3.56055 8.72246 3.2418 8.26094 3.15215 7.8625C3.0625 7.46406 3.14883 6.91289 3.66016 6.56094C4.42383 6.03633 4.66289 4.99707 4.20137 4.19355C3.89258 3.65234 4.05195 3.12109 4.30762 2.79902C4.56328 2.48027 5.04805 2.20469 5.64238 2.3873C6.52891 2.65957 7.4918 2.19473 7.83047 1.33477C8.05957 0.753711 8.57754 0.547852 8.98594 0.547852C9.39434 0.547852 9.91231 0.753711 10.1414 1.33477C10.4834 2.19805 11.443 2.65957 12.3295 2.3873C12.9238 2.20469 13.4086 2.48027 13.6643 2.79902C13.9199 3.11777 14.0793 3.65234 13.7705 4.19355C13.309 4.99707 13.5447 6.03965 14.3117 6.56094C14.8264 6.91289 14.9127 7.46406 14.8197 7.8625C14.7301 8.26094 14.4113 8.71914 13.7971 8.81543C12.8807 8.95488 12.2133 9.78828 12.283 10.7146C12.3295 11.3355 11.951 11.7473 11.5824 11.9232C11.2139 12.0992 10.6594 12.1391 10.2012 11.7174C9.52051 11.0865 8.45137 11.0865 7.7707 11.7174ZM12.9637 13.5801L12.4623 15.4527L10.8021 12.5807C10.8785 12.5906 10.9549 12.6039 11.0346 12.6039C11.3002 12.6039 11.5658 12.5441 11.8215 12.4213C12.4988 12.0959 12.884 11.4285 12.8309 10.6781C12.8275 10.6549 12.8342 10.6316 12.8309 10.6084L14.8363 14.0781L12.9637 13.5801Z" fill="#4B4B4B"/>
</svg>
