<svg width="17" height="16" viewBox="0 0 17 16" fill="none" xmlns="http://www.w3.org/2000/svg">
<mask id="path-1-inside-1_12126_276" fill="white">
<path d="M16.0283 0.166185C16.0255 0.121183 16.0058 0.0789316 15.9732 0.0480501C15.9406 0.0171685 15.8975 -1.66416e-05 15.8527 1.20926e-08H12.4583C12.4135 4.74649e-05 12.3705 0.0172542 12.3379 0.0481228C12.3052 0.0789915 12.2855 0.121206 12.2827 0.166185L11.8843 6.58394C11.8815 6.62895 11.8618 6.67118 11.8292 6.70205C11.7965 6.73292 11.7534 6.75011 11.7086 6.75013H10.979C10.9324 6.75013 10.8876 6.73146 10.8546 6.69823C10.8216 6.665 10.803 6.61994 10.803 6.57295V3.82225C10.803 3.7916 10.7952 3.76147 10.7802 3.73481C10.7651 3.70815 10.7435 3.68587 10.7174 3.67015C10.6913 3.65443 10.6615 3.64581 10.6311 3.64512C10.6006 3.64444 10.5706 3.65172 10.5438 3.66626L7.84713 5.1249L5.96056 6.14548V3.82225C5.96058 3.7916 5.9527 3.76147 5.93768 3.73481C5.92267 3.70815 5.90104 3.68587 5.87491 3.67015C5.84878 3.65443 5.81904 3.64581 5.78861 3.64512C5.75818 3.64444 5.72809 3.65172 5.70129 3.66626L3.00466 5.1249L0.0932629 6.69983C0.0651334 6.71488 0.0415963 6.73734 0.025169 6.76482C0.00874168 6.7923 4.18882e-05 6.82375 5.05096e-08 6.85582V15.8228C-1.74695e-05 15.8461 0.00452297 15.8691 0.0133616 15.8906C0.0222002 15.9121 0.0351637 15.9317 0.0515103 15.9481C0.0678569 15.9646 0.087266 15.9777 0.108627 15.9865C0.129988 15.9954 0.152883 16 0.176 16H0.219567L3.091 13.1007L3.08966 13.0985L4.25172 11.9292L4.27836 11.956C4.07082 11.242 4.06889 10.4832 4.27281 9.76807C4.47673 9.05292 4.87811 8.41074 5.43029 7.91621C5.98247 7.42167 6.66276 7.09509 7.39204 6.97446C8.12132 6.85382 8.86964 6.94408 9.54998 7.23473C9.60771 7.25972 9.65849 7.29856 9.69786 7.34787C9.73723 7.39718 9.764 7.45545 9.77584 7.51758C9.78767 7.57972 9.7842 7.64382 9.76573 7.70429C9.74726 7.76476 9.71435 7.81976 9.66989 7.86446L7.63343 9.91555C7.61145 9.93761 7.59512 9.9647 7.58583 9.99451C7.57655 10.0243 7.57459 10.056 7.58013 10.0867L7.75853 11.0672C7.76561 11.1061 7.78432 11.142 7.81218 11.17C7.84003 11.1979 7.8757 11.2167 7.91441 11.2237L8.88035 11.3981C8.91187 11.4038 8.94428 11.4017 8.97483 11.392C9.00539 11.3824 9.03317 11.3655 9.05582 11.3427L11.0596 9.32619C11.1039 9.28143 11.1586 9.2485 11.2187 9.23037C11.2788 9.21224 11.3425 9.2095 11.4039 9.22237C11.4653 9.23525 11.5226 9.26335 11.5705 9.30412C11.6184 9.3449 11.6555 9.39706 11.6784 9.45589C11.9375 10.1396 12.0019 10.8825 11.8643 11.6011C11.7268 12.3196 11.3928 12.9853 10.8998 13.523C10.4069 14.0608 9.77461 14.4494 9.0742 14.6451C8.37378 14.8408 7.63302 14.8357 6.93529 14.6306L6.96193 14.6574L5.67624 16H16.8241C16.8481 16 16.8718 15.9951 16.8939 15.9855C16.9159 15.9759 16.9357 15.9619 16.9522 15.9443C16.9686 15.9267 16.9813 15.9059 16.9895 15.8832C16.9977 15.8605 17.0011 15.8363 16.9997 15.8122L16.0283 0.166185Z"/>
</mask>
<path d="M16.0283 0.166185L15.5292 0.196662L15.5292 0.197168L16.0283 0.166185ZM15.8527 1.20926e-08V0.5L15.8529 0.5L15.8527 1.20926e-08ZM12.4583 1.20926e-08V-0.5L12.4578 -0.5L12.4583 1.20926e-08ZM12.2827 0.166185L11.7837 0.135002L11.7837 0.135208L12.2827 0.166185ZM11.8843 6.58394L12.3834 6.61513L12.3834 6.61492L11.8843 6.58394ZM11.7086 6.75013V7.25013H11.7088L11.7086 6.75013ZM10.979 6.75013V6.25013V6.75013ZM10.803 6.57295H11.303H10.803ZM10.803 3.82225L10.303 3.82192V3.82225H10.803ZM10.5438 3.66626L10.7816 4.10604L10.7821 4.10579L10.5438 3.66626ZM7.84713 5.1249L7.60925 4.68511L7.60923 4.68512L7.84713 5.1249ZM5.96056 6.14548H5.46056V6.98444L6.19846 6.58525L5.96056 6.14548ZM5.96056 3.82225L5.46056 3.82192V3.82225H5.96056ZM5.70129 3.66626L5.93917 4.10604L5.93964 4.10579L5.70129 3.66626ZM3.00466 5.1249L2.76678 4.68511L2.76676 4.68512L3.00466 5.1249ZM0.0932629 6.69983L0.329139 7.1407L0.331162 7.13961L0.0932629 6.69983ZM5.05096e-08 6.85582L-0.5 6.85517V6.85582H5.05096e-08ZM5.05096e-08 15.8228L0.5 15.8232V15.8228H5.05096e-08ZM0.176 16V15.5H0.175619L0.176 16ZM0.219567 16V16.5H0.428091L0.574825 16.3518L0.219567 16ZM3.091 13.1007L3.44625 13.4525L3.72391 13.1722L3.51578 12.8369L3.091 13.1007ZM3.08966 13.0985L2.73501 12.7461L2.45638 13.0265L2.66488 13.3623L3.08966 13.0985ZM4.25172 11.9292L4.60645 11.5768L4.2518 11.2198L3.89706 11.5768L4.25172 11.9292ZM4.27836 11.956L3.92363 12.3084L4.7585 11.8165L4.27836 11.956ZM9.54998 7.23473L9.74856 6.77585L9.74641 6.77494L9.54998 7.23473ZM9.66989 7.86446L9.31537 7.51188L9.31507 7.51218L9.66989 7.86446ZM7.63343 9.91555L7.9876 10.2685L7.98824 10.2678L7.63343 9.91555ZM7.58013 10.0867L7.08806 10.1754L7.08821 10.1762L7.58013 10.0867ZM7.75853 11.0672L8.25048 10.9778L8.25046 10.9777L7.75853 11.0672ZM7.91441 11.2237L7.82516 11.7157L7.82559 11.7157L7.91441 11.2237ZM8.88035 11.3981L8.79153 11.8901L8.79157 11.8901L8.88035 11.3981ZM9.05582 11.3427L9.41045 11.6951L9.41048 11.6951L9.05582 11.3427ZM11.0596 9.32619L11.4143 9.67863L11.4151 9.67785L11.0596 9.32619ZM11.6784 9.45589L12.1459 9.27869L12.1444 9.27483L11.6784 9.45589ZM6.93529 14.6306L7.07635 14.1509L6.58056 14.9829L6.93529 14.6306ZM6.96193 14.6574L7.32306 15.0032L7.66034 14.651L7.31667 14.305L6.96193 14.6574ZM5.67624 16L5.31511 15.6542L4.50516 16.5H5.67624V16ZM16.8241 16L16.8242 15.5H16.8241V16ZM16.9997 15.8122L17.4988 15.7821L17.4987 15.7812L16.9997 15.8122ZM16.5273 0.135707C16.5169 -0.0353818 16.442 -0.196708 16.3169 -0.315106L15.6295 0.411206C15.5697 0.354571 15.5342 0.277747 15.5292 0.196662L16.5273 0.135707ZM16.3169 -0.315106C16.1917 -0.433597 16.0256 -0.500064 15.8525 -0.5L15.8529 0.5C15.7693 0.500031 15.6895 0.467934 15.6295 0.411206L16.3169 -0.315106ZM15.8527 -0.5H12.4583V0.5H15.8527V-0.5ZM12.4578 -0.5C12.2849 -0.499816 12.1192 -0.433341 11.9942 -0.315033L12.6815 0.411279C12.6218 0.467849 12.5422 0.499911 12.4588 0.5L12.4578 -0.5ZM11.9942 -0.315033C11.8693 -0.196818 11.7944 -0.0358127 11.7837 0.135002L12.7817 0.197368C12.7767 0.278224 12.7412 0.354801 12.6815 0.411279L11.9942 -0.315033ZM11.7837 0.135208L11.3853 6.55297L12.3834 6.61492L12.7817 0.197161L11.7837 0.135208ZM11.3853 6.55276C11.3904 6.47187 11.4259 6.39525 11.4856 6.33877L12.1727 7.06534C12.2977 6.9471 12.3727 6.78602 12.3834 6.61513L11.3853 6.55276ZM11.4856 6.33877C11.5454 6.28219 11.6251 6.25015 11.7085 6.25013L11.7088 7.25013C11.8817 7.25008 12.0476 7.18366 12.1727 7.06534L11.4856 6.33877ZM11.7086 6.25013H10.979V7.25013H11.7086V6.25013ZM10.979 6.25013C11.066 6.25013 11.1488 6.28496 11.2093 6.34587L10.4998 7.0506C10.6264 7.17796 10.7987 7.25013 10.979 7.25013V6.25013ZM11.2093 6.34587C11.2697 6.40666 11.303 6.48841 11.303 6.57295H10.303C10.303 6.75147 10.3734 6.92335 10.4998 7.0506L11.2093 6.34587ZM11.303 6.57295V3.82225H10.303V6.57295H11.303ZM11.303 3.82258C11.3031 3.70602 11.2731 3.59126 11.2158 3.48948L10.3445 3.98015C10.3172 3.93169 10.303 3.87718 10.303 3.82192L11.303 3.82258ZM11.2158 3.48948C11.1585 3.38768 11.0757 3.30221 10.9752 3.24172L10.4596 4.09859C10.4113 4.06954 10.3718 4.02863 10.3445 3.98015L11.2158 3.48948ZM10.9752 3.24172C10.8746 3.18122 10.7599 3.14789 10.6423 3.14525L10.6199 4.145C10.5631 4.14373 10.5079 4.12764 10.4596 4.09859L10.9752 3.24172ZM10.6423 3.14525C10.5247 3.14261 10.4086 3.17076 10.3054 3.22673L10.7821 4.10579C10.7325 4.13268 10.6766 4.14627 10.6199 4.145L10.6423 3.14525ZM10.3059 3.22647L7.60925 4.68511L8.08502 5.56468L10.7816 4.10604L10.3059 3.22647ZM7.60923 4.68512L5.72265 5.7057L6.19846 6.58525L8.08504 5.56467L7.60923 4.68512ZM6.46056 6.14548V3.82225H5.46056V6.14548H6.46056ZM6.46056 3.82258C6.46064 3.70602 6.43067 3.59126 6.37336 3.48948L5.50201 3.98015C5.47472 3.93169 5.46052 3.87718 5.46056 3.82192L6.46056 3.82258ZM6.37336 3.48948C6.31604 3.38769 6.23322 3.30221 6.13268 3.24172L5.61714 4.09859C5.56887 4.06954 5.52931 4.02862 5.50201 3.98015L6.37336 3.48948ZM6.13268 3.24172C6.03212 3.18122 5.91742 3.14789 5.79983 3.14525L5.77739 4.145C5.72067 4.14373 5.66544 4.12765 5.61714 4.09859L6.13268 3.24172ZM5.79983 3.14525C5.68223 3.14261 5.56613 3.17076 5.46293 3.22673L5.93964 4.10579C5.89004 4.13268 5.83412 4.14627 5.77739 4.145L5.79983 3.14525ZM5.4634 3.22647L2.76678 4.68511L3.24255 5.56468L5.93917 4.10604L5.4634 3.22647ZM2.76676 4.68512L-0.144636 6.26005L0.331162 7.13961L3.24256 5.56468L2.76676 4.68512ZM-0.142611 6.25896C-0.250975 6.31694 -0.341198 6.40324 -0.40398 6.50824L0.454318 7.0214C0.424391 7.07145 0.381241 7.11282 0.329137 7.1407L-0.142611 6.25896ZM-0.40398 6.50824C-0.466746 6.61323 -0.49984 6.73313 -0.5 6.85517L0.5 6.85647C0.499924 6.91437 0.484229 6.97137 0.454318 7.0214L-0.40398 6.50824ZM-0.5 6.85582V15.8228H0.5V6.85582H-0.5ZM-0.5 15.8224C-0.500066 15.911 -0.482799 15.9987 -0.449101 16.0807L0.475824 15.7006C0.491845 15.7395 0.500032 15.7812 0.5 15.8232L-0.5 15.8224ZM-0.449101 16.0807C-0.415398 16.1627 -0.365881 16.2374 -0.303225 16.3005L0.406246 15.5958C0.436209 15.6259 0.459799 15.6616 0.475824 15.7006L-0.449101 16.0807ZM-0.303225 16.3005C-0.240558 16.3636 -0.165968 16.4138 -0.0836349 16.4481L0.300889 15.525C0.3405 15.5415 0.376272 15.5656 0.406246 15.5958L-0.303225 16.3005ZM-0.0836349 16.4481C-0.00128296 16.4824 0.0870852 16.5001 0.176382 16.5L0.175619 15.5C0.21868 15.5 0.26126 15.5085 0.300889 15.525L-0.0836349 16.4481ZM0.176 16.5H0.219567V15.5H0.176V16.5ZM0.574825 16.3518L3.44625 13.4525L2.73574 12.7488L-0.13569 15.6482L0.574825 16.3518ZM3.51578 12.8369L3.51445 12.8348L2.66488 13.3623L2.66621 13.3644L3.51578 12.8369ZM3.44432 13.451L4.60637 12.2817L3.89706 11.5768L2.73501 12.7461L3.44432 13.451ZM3.89698 12.2816L3.92363 12.3084L4.6331 11.6037L4.60645 11.5768L3.89698 12.2816ZM4.7585 11.8165C4.5772 11.1927 4.57551 10.5299 4.75364 9.90518L3.79197 9.63096C3.56226 10.4366 3.56443 11.2912 3.79823 12.0956L4.7585 11.8165ZM4.75364 9.90518C4.93177 9.2805 5.28225 8.72001 5.76387 8.28866L5.09672 7.54375C4.47398 8.10148 4.02169 8.82535 3.79197 9.63096L4.75364 9.90518ZM5.76387 8.28866C6.24546 7.85735 6.83841 7.57283 7.47364 7.46775L7.31044 6.48116C6.48711 6.61735 5.71948 6.98599 5.09672 7.54375L5.76387 8.28866ZM7.47364 7.46775C8.10886 7.36268 8.76072 7.44126 9.35354 7.69453L9.74641 6.77494C8.97856 6.44689 8.13379 6.34496 7.31044 6.48116L7.47364 7.46775ZM9.35139 7.69361C9.33379 7.68599 9.31867 7.6743 9.30714 7.65986L10.0886 7.03588C9.9983 6.92283 9.88163 6.83345 9.74856 6.77586L9.35139 7.69361ZM9.30714 7.65986C9.29563 7.64545 9.28801 7.62869 9.28466 7.61111L10.267 7.42406C10.24 7.28221 10.1788 7.14891 10.0886 7.03588L9.30714 7.65986ZM9.28466 7.61111C9.28131 7.59354 9.28229 7.57542 9.28753 7.55824L10.2439 7.85035C10.2861 7.71223 10.294 7.56589 10.267 7.42406L9.28466 7.61111ZM9.28753 7.55824C9.29278 7.54105 9.30224 7.52508 9.31537 7.51188L10.0244 8.21705C10.1265 8.11443 10.2017 7.98848 10.2439 7.85035L9.28753 7.55824ZM9.31507 7.51218L7.27861 9.56326L7.98824 10.2678L10.0247 8.21675L9.31507 7.51218ZM7.27926 9.56261C7.20016 9.64199 7.14164 9.73924 7.10844 9.84586L8.06322 10.1432C8.04859 10.1902 8.02274 10.2332 7.9876 10.2685L7.27926 9.56261ZM7.10844 9.84586C7.07525 9.95247 7.06826 10.0655 7.08806 10.1754L8.07221 9.99803C8.08092 10.0464 8.07786 10.0962 8.06322 10.1432L7.10844 9.84586ZM7.08821 10.1762L7.26661 11.1567L8.25046 10.9777L8.07206 9.99719L7.08821 10.1762ZM7.26658 11.1565C7.29172 11.2949 7.35826 11.4227 7.45789 11.5228L8.16646 10.8171C8.21038 10.8612 8.2395 10.9174 8.25048 10.9778L7.26658 11.1565ZM7.45789 11.5228C7.55756 11.6229 7.68562 11.6904 7.82516 11.7157L8.00367 10.7317C8.06577 10.743 8.1225 10.773 8.16646 10.8171L7.45789 11.5228ZM7.82559 11.7157L8.79153 11.8901L8.96917 10.906L8.00324 10.7317L7.82559 11.7157ZM8.79157 11.8901C8.90295 11.9102 9.01749 11.9029 9.12536 11.8688L8.82431 10.9152C8.87107 10.9005 8.92079 10.8973 8.96913 10.906L8.79157 11.8901ZM9.12536 11.8688C9.23321 11.8348 9.33097 11.7751 9.41045 11.6951L8.70119 10.9902C8.73537 10.9558 8.77756 10.93 8.82431 10.9152L9.12536 11.8688ZM9.41048 11.6951L11.4143 9.67863L10.705 8.97375L8.70115 10.9902L9.41048 11.6951ZM11.4151 9.67785C11.4009 9.69221 11.383 9.70305 11.3631 9.70908L11.0743 8.75167C10.9341 8.79395 10.807 8.87066 10.7042 8.97454L11.4151 9.67785ZM11.3631 9.70908C11.3431 9.71511 11.3218 9.71603 11.3013 9.71174L11.5065 8.73301C11.3631 8.70296 11.2145 8.70938 11.0743 8.75167L11.3631 9.70908ZM11.3013 9.71174C11.2808 9.70744 11.262 9.69813 11.2465 9.68495L11.8945 8.9233C11.7832 8.82857 11.6498 8.76306 11.5065 8.73301L11.3013 9.71174ZM11.2465 9.68495C11.231 9.67178 11.2194 9.65522 11.2123 9.63695L12.1444 9.27483C12.0916 9.1389 12.0058 9.01801 11.8945 8.9233L11.2465 9.68495ZM11.2108 9.63309C11.4371 10.2302 11.4934 10.8793 11.3733 11.5071L12.3554 11.6951C12.5104 10.8857 12.4378 10.0489 12.1459 9.2787L11.2108 9.63309ZM11.3733 11.5071C11.2531 12.1348 10.9613 12.716 10.5312 13.1852L11.2684 13.8609C11.8242 13.2545 12.2005 12.5044 12.3554 11.6951L11.3733 11.5071ZM10.5312 13.1852C10.1012 13.6544 9.54988 13.9931 8.93967 14.1635L9.20872 15.1267C9.99935 14.9058 10.7126 14.4673 11.2684 13.8609L10.5312 13.1852ZM8.93967 14.1635C8.32948 14.334 7.68421 14.3296 7.07635 14.1509L6.79423 15.1102C7.58183 15.3418 8.41808 15.3475 9.20872 15.1267L8.93967 14.1635ZM6.58056 14.9829L6.6072 15.0097L7.31667 14.305L7.29002 14.2782L6.58056 14.9829ZM6.60081 14.3116L5.31511 15.6542L6.03737 16.3458L7.32306 15.0032L6.60081 14.3116ZM5.67624 16.5H16.8241V15.5H5.67624V16.5ZM16.8239 16.5C16.9166 16.5 17.0082 16.481 17.0932 16.444L16.6945 15.5269C16.7354 15.5092 16.7795 15.5 16.8242 15.5L16.8239 16.5ZM17.0932 16.444C17.1781 16.4071 17.2543 16.3532 17.3174 16.2858L16.587 15.6028C16.6171 15.5706 16.6537 15.5447 16.6945 15.5269L17.0932 16.444ZM17.3174 16.2858C17.3804 16.2184 17.4289 16.1389 17.46 16.0524L16.519 15.714C16.5338 15.6729 16.5569 15.635 16.587 15.6028L17.3174 16.2858ZM17.46 16.0524C17.4911 15.9658 17.5043 15.8739 17.4988 15.7821L16.5006 15.8423C16.498 15.7988 16.5042 15.7552 16.519 15.714L17.46 16.0524ZM17.4987 15.7812L16.5273 0.135201L15.5292 0.197168L16.5006 15.8432L17.4987 15.7812Z" fill="#4B4B4B" mask="url(#path-1-inside-1_12126_276)"/>
</svg>
