<svg xmlns="http://www.w3.org/2000/svg" width="50" height="50" viewBox="0 0 50 50">
  <g id="Refurbishment_icon" data-name="Refurbishment icon" transform="translate(-37 -21)">
    <circle id="Ellipse_1352" data-name="Ellipse 1352" cx="25" cy="25" r="25" transform="translate(37 21)" fill="#f2ecfb"/>
    <g id="Group_9024" data-name="Group 9024" transform="translate(-476.752 -193.757)">
      <g id="refurbishment" transform="translate(524.752 226.757)">
        <path id="Path_38" data-name="Path 38" d="M32.884,10.127A.283.283,0,0,0,32.6,9.86H27.154a.284.284,0,0,0-.282.267L26.233,20.44a.284.284,0,0,1-.282.267H24.779a.284.284,0,0,1-.282-.285V16a.282.282,0,0,0-.416-.251L19.752,18.1l-3.028,1.64V16a.282.282,0,0,0-.416-.251L11.98,18.1,7.307,20.627a.285.285,0,0,0-.149.251v14.41c0,.157.282.285.282.285H34.161a.284.284,0,0,0,.282-.3Z" transform="translate(-7.158 -9.86)" fill="none" stroke="#5d43f7" stroke-linecap="round" stroke-linejoin="round" stroke-width="1.5"/>
      </g>
      <g id="Path_2172" data-name="Path 2172" transform="translate(17686.965 1045.002)" fill="none" stroke-linecap="round" stroke-linejoin="round">
        <path d="M-17160.924-792.531l4.9-5.436a4.74,4.74,0,0,1,1.531-5,4.718,4.718,0,0,1,5.494-.441l-2.908,3.041.242,1.537,1.5.276,2.895-3s1.637,2.086-.182,5.083-5.23,1.906-5.23,1.906l-1.807,2.035Z" stroke="none"/>
        <path d="M -17155.166015625 -794.0305786132812 L -17153.806640625 -795.5610961914062 C -17153.408203125 -796.0093383789062 -17152.806640625 -796.1875610351562 -17152.236328125 -795.99609375 C -17152.181640625 -795.9810791015625 -17151.77734375 -795.871337890625 -17151.2421875 -795.871337890625 C -17150.1171875 -795.871337890625 -17149.298828125 -796.321533203125 -17148.73828125 -797.2489624023438 C -17148.498046875 -797.6444702148438 -17148.32421875 -798.032958984375 -17148.21875 -798.412353515625 L -17149.087890625 -797.511474609375 C -17149.4375 -797.14990234375 -17149.9453125 -796.9857788085938 -17150.439453125 -797.0776977539062 L -17151.935546875 -797.3538208007812 C -17152.5625 -797.4692993164062 -17153.046875 -797.9669189453125 -17153.146484375 -798.5953979492188 L -17153.388671875 -800.132080078125 C -17153.4609375 -800.5943603515625 -17153.314453125 -801.0641479492188 -17152.990234375 -801.40234375 L -17151.845703125 -802.5984497070312 C -17152.453125 -802.5449829101562 -17152.9921875 -802.2994384765625 -17153.48828125 -801.85205078125 C -17154.20703125 -801.2021484375 -17154.6171875 -800.4491577148438 -17154.701171875 -799.6139526367188 C -17154.763671875 -799.0071411132812 -17154.634765625 -798.547607421875 -17154.611328125 -798.47509765625 C -17154.40234375 -797.9462280273438 -17154.52734375 -797.3849487304688 -17154.91015625 -796.9617309570312 L -17157.552734375 -794.0305786132812 L -17155.166015625 -794.0305786132812 M -17154.4921875 -792.5305786132812 L -17160.923828125 -792.5305786132812 L -17156.0234375 -797.9661254882812 C -17156.0234375 -797.9661254882812 -17157.025390625 -800.6806640625 -17154.4921875 -802.9658203125 C -17151.958984375 -805.2515869140625 -17149 -803.4064331054688 -17148.998046875 -803.4063720703125 L -17151.90625 -800.3656005859375 L -17151.6640625 -798.8289184570312 L -17150.16796875 -798.5527954101562 L -17147.2734375 -801.5537719726562 C -17147.2734375 -801.5537719726562 -17145.63671875 -799.4676513671875 -17147.455078125 -796.4708251953125 C -17149.26953125 -793.4766235351562 -17152.685546875 -794.5651245117188 -17152.685546875 -794.5651245117188 L -17154.4921875 -792.5305786132812 Z" stroke="none" fill="#5d43f7"/>
      </g>
    </g>
  </g>
</svg>
