<svg xmlns="http://www.w3.org/2000/svg" width="50" height="50" viewBox="0 0 50 50">
  <g id="Refurbishment_icon" data-name="Refurbishment icon" transform="translate(-37 -21)">
    <circle id="Ellipse_1352" data-name="Ellipse 1352" cx="25" cy="25" r="25" transform="translate(37 21)" fill="#e6e6e6"/>
    <g id="Group_8953" data-name="Group 8953" transform="translate(-474.752 -193.757)">
      <g id="refurbishment" transform="translate(524.752 226.757)">
        <path id="Path_38" data-name="Path 38" d="M30.729,10.1a.26.26,0,0,0-.258-.245H25.479a.26.26,0,0,0-.258.245l-.586,9.449a.26.26,0,0,1-.258.245H23.3a.26.26,0,0,1-.259-.261v-4.05a.259.259,0,0,0-.381-.23L18.7,17.406l-2.774,1.5V15.488a.259.259,0,0,0-.381-.23l-3.966,2.148L7.294,19.725a.261.261,0,0,0-.136.23v13.2c0,.144.259.261.259.261H31.9a.26.26,0,0,0,.258-.277Z" transform="translate(-7.158 -9.86)" fill="none" stroke="#4b4b4b" stroke-linecap="round" stroke-linejoin="round" stroke-width="1.5"/>
      </g>
      <g id="Path_2172" data-name="Path 2172" transform="translate(17685.965 1043.617)" fill="none" stroke-linecap="round" stroke-linejoin="round">
        <path d="M-17160.924-792.718l4.822-5.348a4.664,4.664,0,0,1,1.5-4.919,4.642,4.642,0,0,1,5.406-.433l-2.861,2.992.24,1.512,1.471.272,2.85-2.953s1.607,2.052-.18,5a4.523,4.523,0,0,1-5.146,1.875l-1.779,2Z" stroke="none"/>
        <path d="M -17155.271484375 -794.217529296875 L -17153.939453125 -795.7157592773438 C -17153.54296875 -796.16357421875 -17152.9375 -796.341796875 -17152.369140625 -796.1502075195312 C -17152.314453125 -796.1350708007812 -17151.91796875 -796.0286254882812 -17151.396484375 -796.0286254882812 C -17150.30078125 -796.0286254882812 -17149.501953125 -796.4677124023438 -17148.955078125 -797.3717041015625 C -17148.740234375 -797.726318359375 -17148.580078125 -798.0751342773438 -17148.474609375 -798.41650390625 L -17149.26171875 -797.6008911132812 C -17149.546875 -797.3052978515625 -17149.939453125 -797.142578125 -17150.341796875 -797.142578125 C -17150.431640625 -797.142578125 -17150.5234375 -797.1507568359375 -17150.615234375 -797.1675415039062 L -17152.0859375 -797.439208984375 C -17152.708984375 -797.5546264648438 -17153.193359375 -798.05126953125 -17153.29296875 -798.6788330078125 L -17153.533203125 -800.190673828125 C -17153.607421875 -800.653564453125 -17153.4609375 -801.1241455078125 -17153.13671875 -801.462890625 L -17152.056640625 -802.5922241210938 C -17152.62109375 -802.5286254882812 -17153.126953125 -802.2908935546875 -17153.591796875 -801.8709106445312 C -17154.294921875 -801.236328125 -17154.693359375 -800.50146484375 -17154.77734375 -799.6867065429688 C -17154.837890625 -799.0948486328125 -17154.712890625 -798.646240234375 -17154.689453125 -798.5743408203125 C -17154.48046875 -798.0453491210938 -17154.60546875 -797.4842529296875 -17154.98828125 -797.0608520507812 L -17157.55078125 -794.217529296875 L -17155.271484375 -794.217529296875 M -17154.59765625 -792.717529296875 L -17160.923828125 -792.717529296875 L -17156.1015625 -798.0653686523438 C -17156.1015625 -798.0653686523438 -17157.087890625 -800.736083984375 -17154.59765625 -802.9843139648438 C -17152.1015625 -805.23486328125 -17149.19140625 -803.4177856445312 -17149.19140625 -803.4177856445312 L -17152.052734375 -800.4260864257812 L -17151.8125 -798.9142456054688 L -17150.341796875 -798.642578125 L -17147.4921875 -801.5950927734375 C -17147.4921875 -801.5950927734375 -17145.884765625 -799.5426635742188 -17147.671875 -796.5941772460938 C -17149.45703125 -793.6446533203125 -17152.81640625 -794.7191772460938 -17152.818359375 -794.71923828125 L -17154.59765625 -792.717529296875 Z" stroke="none" fill="#4b4b4b"/>
      </g>
    </g>
  </g>
</svg>
