<svg width="16" height="20" viewBox="0 0 16 20" fill="none" xmlns="http://www.w3.org/2000/svg">
<path d="M14.1958 7.36658L14.4143 7.17408C14.8015 6.8329 14.9811 6.48886 14.9811 6.15852V4.65408C14.7657 4.89098 14.4906 5.10714 14.1754 5.30063L14.1683 5.305L14.1682 5.30488C13.3508 5.76979 12.4732 6.10262 11.5641 6.29223C11.4081 6.32863 11.2489 6.36314 11.0861 6.39536V8.54974C12.245 8.31346 13.2109 7.96495 13.8939 7.55038L14.0624 7.44809L14.2011 7.5881C14.467 7.8563 14.6222 8.22147 14.6391 8.60527L14.6396 8.61626H14.6394C14.6394 9.24586 14.1892 9.7791 13.5398 10.1927C12.9226 10.586 12.0752 10.9059 11.0861 11.129V12.271H13.276H13.681L13.4994 12.633L10.4215 18.7721L9.94802 18.6601V15.2057H7.76807H7.51807V14.9557V11.4845C7.45069 11.4839 7.38354 11.4829 7.31661 11.4815C5.52433 11.4448 3.90381 11.1372 2.72231 10.6527C2.13223 10.4107 1.63931 10.1196 1.28993 9.78541C0.939946 9.45066 0.717769 9.05568 0.717769 8.61557V8.60654L0.717931 8.60655C0.730863 8.24833 0.867435 7.90512 1.10531 7.64444L1.24123 7.4955L1.41557 7.59679C2.71385 8.35107 4.94725 8.86709 7.51823 8.87976V6.7179C6.58884 6.7153 5.66073 6.64315 4.74067 6.50198L4.73983 6.50185C4.38912 6.44683 4.05258 6.38127 3.72975 6.308C2.79865 6.1188 1.89973 5.78094 1.06291 5.30604L1.0552 5.30166L1.05528 5.30153C0.740267 5.10767 0.465285 4.8913 0.25 4.65429V6.15852C0.25 6.50501 0.447482 6.86706 0.874073 7.22356L1.09741 7.41021L0.879198 7.60282C0.507405 7.931 0.328131 8.26298 0.315721 8.58105C0.315682 8.58203 0.315646 8.58301 0.315611 8.58399L0.0657707 8.57504C0.0657707 8.58209 0.0650822 8.58909 0.0643937 8.59609C0.0637052 8.60309 0.0630167 8.61009 0.0630167 8.61713V17.0272C0.0630167 18.6691 3.47273 20.0001 7.67865 20.0001C11.8846 20.0001 15.2941 18.6691 15.2941 17.0272V8.61713C15.2941 8.60894 15.2934 8.60104 15.2928 8.59316C15.2922 8.58714 15.2917 8.58114 15.2915 8.57504L14.1958 7.36658ZM14.1958 7.36658L14.4191 7.5534C14.8311 7.89807 15.029 8.24824 15.0417 8.58403M14.1958 7.36658L15.0417 8.58403M15.0417 8.58403C15.042 8.59212 15.0425 8.59923 15.0429 8.60459L15.0439 8.61699C15.044 8.61825 15.0441 8.61918 15.0441 8.61982V17.0272C15.0441 17.3445 14.8804 17.6737 14.5261 18.0007C14.1715 18.3279 13.6447 18.6341 12.9727 18.8965C11.6302 19.4205 9.75858 19.7501 7.67865 19.7501C5.59872 19.7501 3.72704 19.4205 2.38452 18.8965C1.71248 18.6341 1.18564 18.3279 0.831055 18.0007C0.476731 17.6737 0.313017 17.3445 0.313017 17.0272V8.62236L15.0417 8.58403Z" stroke="#3491FF" stroke-width="0.5"/>
<path d="M15.0003 3.70036C15.0165 3.67549 15.0318 3.65027 15.0464 3.62505C15.0514 3.61648 15.056 3.6078 15.0607 3.5991C15.062 3.59668 15.0633 3.59426 15.0646 3.59184C15.0774 3.56836 15.0897 3.54488 15.101 3.52123L15.0003 3.70036ZM15.0003 3.70036L14.9831 3.72697M15.0003 3.70036L14.9831 3.72697M15.2248 3.08662C15.2239 3.09481 15.2227 3.10294 15.2215 3.11107C15.2206 3.11694 15.2197 3.12281 15.219 3.12871C15.2186 3.1317 15.2182 3.13467 15.2178 3.13764C15.2152 3.15816 15.2126 3.17822 15.2087 3.19827L7.61466 1.18103e-05C11.8207 1.18103e-05 15.2303 1.33201 15.2303 2.97392C15.2302 3.01156 15.2284 3.04918 15.2248 3.08662ZM15.2248 3.08662L14.9759 3.06256C14.976 3.06227 14.976 3.06197 14.976 3.06168C14.9788 3.03242 14.9803 3.00302 14.9803 2.9736C14.9802 2.65643 14.8165 2.32726 14.4622 2.00026C14.1077 1.67291 13.5808 1.36658 12.9088 1.10412C11.5663 0.579805 9.69465 0.250012 7.61466 0.250012H7.61438C7.01494 0.24934 6.41586 0.277738 5.81895 0.335097M15.2248 3.08662L5.81895 0.335097M5.81895 0.335097L10.59 5.45618C10.6613 5.44411 10.7314 5.43194 10.8008 5.41907L10.8008 5.41906L10.9193 5.39712C10.9196 5.39707 10.9199 5.39701 10.9202 5.39696C11.0292 5.37596 11.1367 5.35407 11.2426 5.33129L11.3411 5.30929C11.4523 5.28435 11.561 5.25924 11.6663 5.23279L11.7049 5.22268L11.7065 5.22228L11.7065 5.22228C11.8145 5.19474 11.9204 5.16631 12.0242 5.137C12.0243 5.13699 12.0243 5.13699 12.0243 5.13698L12.0811 5.12094C12.19 5.08915 12.2964 5.05644 12.4002 5.02282C12.4004 5.02278 12.4005 5.02273 12.4006 5.02269L12.4455 5.008C12.6715 4.9334 12.8854 4.85438 13.0852 4.77121C13.1871 4.72857 13.2854 4.68487 13.3802 4.64012L13.3823 4.63904L13.3877 4.63635L13.3878 4.63642C13.5678 4.55205 13.7437 4.45765 13.9147 4.35358L13.9169 4.35222L13.9169 4.35223C14.1524 4.21229 14.3713 4.04136 14.5685 3.8431L14.5711 3.84039C14.5964 3.81405 14.6197 3.7882 14.6412 3.76264L14.6435 3.75993L14.6435 3.75994L14.6527 3.74929C14.6529 3.74904 14.6532 3.74878 14.6534 3.74853C14.6742 3.72402 14.694 3.69941 14.7133 3.67432L14.7146 3.67263L14.7146 3.67263L14.7258 3.65769C14.726 3.65746 14.7262 3.65723 14.7264 3.657C14.7432 3.63441 14.7592 3.61184 14.7744 3.58928L14.7902 3.5648L14.7908 3.5639C14.8043 3.54318 14.8173 3.52186 14.8298 3.50018C14.8327 3.49526 14.835 3.49094 14.839 3.48344C14.8405 3.48059 14.8423 3.47728 14.8445 3.4733L14.8451 3.47219C14.8565 3.45113 14.8665 3.43198 14.8753 3.41381L5.81895 0.335097ZM14.9831 3.72697C14.965 3.75375 14.9462 3.78042 14.9264 3.80697C14.9249 3.80895 14.9234 3.81096 14.9219 3.81297C14.9185 3.81747 14.9151 3.822 14.9116 3.82644L14.9831 3.72697ZM14.9423 3.23823C14.9423 3.23823 14.9423 3.23823 14.9423 3.23824L15.1825 3.30766L14.9423 3.23823ZM15.119 3.48105L15.1206 3.47747C15.1296 3.45677 15.1386 3.4362 15.1465 3.41531C15.1517 3.40179 15.1562 3.38814 15.1606 3.37448C15.1613 3.37232 15.162 3.37017 15.1627 3.36801L15.119 3.48105ZM10.5366 5.71862L10.5325 5.69339L10.8463 5.66488C10.7441 5.68384 10.6411 5.70123 10.5366 5.71862Z" stroke="#3491FF" stroke-width="0.5"/>
<path d="M0.0414713 3.28236C0.0524944 3.32447 0.0655805 3.36592 0.0806746 3.40654M0.0414713 3.28236L0.311844 3.81662C0.30879 3.81263 0.306018 3.80857 0.303228 3.80449C0.301282 3.80165 0.299328 3.79879 0.297264 3.79593C0.276853 3.76828 0.256603 3.74045 0.238297 3.71245C0.229125 3.69844 0.220721 3.68433 0.212341 3.67027C0.209177 3.66496 0.206017 3.65965 0.20282 3.65436C0.18905 3.63158 0.175767 3.6088 0.163455 3.58602C0.153735 3.56775 0.144177 3.54949 0.135105 3.53106C0.121012 3.50184 0.108052 3.47245 0.0959023 3.44271C0.0938872 3.43774 0.091705 3.43276 0.0895174 3.42777C0.086429 3.42073 0.0833297 3.41366 0.0806746 3.40654M0.0414713 3.28236C0.0389257 3.2728 0.0367933 3.26323 0.0346609 3.25367C0.0338079 3.24984 0.0329548 3.24602 0.0320754 3.24219L0.27583 3.18666C0.269782 3.16011 0.264922 3.13464 0.261309 3.10989L0.261271 3.10964C0.260625 3.10525 0.260061 3.10147 0.25956 3.0981L0.0414713 3.28236ZM0.0806746 3.40654L0.314942 3.31925C0.314862 3.31904 0.314812 3.31891 0.314813 3.31891C0.314813 3.31891 0.314818 3.31892 0.314826 3.31894C0.314921 3.31917 0.315525 3.32064 0.317235 3.32455L0.321504 3.33432L0.327325 3.34816L0.327333 3.34816C0.337621 3.37334 0.348373 3.39771 0.359849 3.42155C0.366963 3.43598 0.374815 3.45102 0.383756 3.46783C0.393444 3.48572 0.404424 3.50461 0.416777 3.52505L0.416795 3.52508C0.422063 3.5338 0.426214 3.54077 0.429768 3.54674C0.436654 3.5583 0.441296 3.5661 0.447472 3.57553L0.447547 3.57565C0.46163 3.59719 0.478179 3.62006 0.498402 3.64746L0.499977 3.64959L0.499966 3.6496L0.50675 3.65923L0.510702 3.665C0.511055 3.66551 0.511324 3.6659 0.511521 3.66619C0.511522 3.66619 0.511523 3.66619 0.511524 3.66619C0.525493 3.68447 0.541216 3.70337 0.561099 3.72718L0.561754 3.72797L0.561752 3.72797C0.564617 3.73143 0.567284 3.73466 0.569807 3.73771C0.57883 3.74864 0.586012 3.75734 0.59382 3.76639L0.594564 3.76725L0.594562 3.76725C0.612719 3.7885 0.632126 3.80984 0.652824 3.83126L0.654433 3.83293L0.654425 3.83294C0.659421 3.8382 0.664125 3.84297 0.670503 3.84944C0.673138 3.85211 0.676059 3.85507 0.679404 3.85848L0.679446 3.85852C0.731608 3.91165 0.78719 3.96399 0.846962 4.01504L0.847037 4.01511C0.877698 4.04132 0.910402 4.06785 0.945264 4.09547L0.956873 4.10451C1.07252 4.19404 1.1925 4.27675 1.31629 4.35229C1.4874 4.45627 1.66331 4.55069 1.84332 4.63519L1.84424 4.63562L1.84424 4.63562L1.84966 4.6382C2.15754 4.78168 2.47289 4.90566 2.7941 5.00953L2.79412 5.00954L2.83121 5.02154L2.83148 5.02163C2.93387 5.05487 3.03859 5.08703 3.14565 5.11809L3.14685 5.11844L3.18591 5.12998C3.41791 5.19653 3.66096 5.25791 3.91514 5.31408L3.91564 5.31419C3.94017 5.31966 3.9651 5.32501 3.99113 5.3306L4.00061 5.33263C4.09921 5.35364 4.19914 5.37398 4.30039 5.39364C4.30848 5.3952 4.3164 5.39674 4.32421 5.39826C4.34905 5.40309 4.37271 5.40769 4.39674 5.41207L4.39775 5.41226C4.52596 5.43619 4.65599 5.45899 4.78782 5.48067L4.79672 5.48203L4.7977 5.48218C4.92338 5.50197 5.05245 5.52031 5.18216 5.53771L5.18246 5.53775C5.20665 5.54103 5.23049 5.54397 5.25596 5.54712C5.26518 5.54825 5.27462 5.54942 5.28436 5.55063L5.28665 5.55092L5.28665 5.55093L5.31782 5.55511C5.40955 5.56649 5.5021 5.57731 5.59546 5.58756L0.0806746 3.40654ZM0.256498 3.07637C0.252451 3.04184 0.25028 3.00708 0.25 2.97226C0.250308 2.65293 0.416668 2.32148 0.776436 1.99243C1.10945 1.68785 1.59173 1.40181 2.20102 1.15255L6.63488 5.67024C6.6139 5.66926 6.59307 5.66825 6.57223 5.66716C6.44736 5.66042 6.32359 5.65249 6.20092 5.64337C6.20068 5.64335 6.20043 5.64333 6.20019 5.64331L6.08011 5.63368L6.07954 5.63364C5.96688 5.62487 5.85521 5.61479 5.74455 5.60341L5.7438 5.60334C5.70677 5.59964 5.67044 5.59569 5.63288 5.59161L0.256498 3.07637Z" stroke="#3491FF" stroke-width="0.5"/>
</svg>
