<svg xmlns="http://www.w3.org/2000/svg" width="50" height="50" viewBox="0 0 50 50">
  <g id="Reject_Rate_icon" data-name="Reject Rate icon" transform="translate(-37 -21)">
    <circle id="Ellipse_1352" data-name="Ellipse 1352" cx="25" cy="25" r="25" transform="translate(37 21)" fill="#e6e6e6"/>
    <g id="reject_rate" data-name="reject rate" transform="translate(51 32)">
      <path id="Union_23" data-name="Union 23" d="M.088,23.32V11.8c0-.019,0-.039,0-.058A2.262,2.262,0,0,1,1,10.156,2.3,2.3,0,0,1,0,8.435V4.787c0,.8.612,1.55,1.666,2.181A12.585,12.585,0,0,0,5.311,8.3c.448.1.914.188,1.4.263a26.518,26.518,0,0,0,3.985.293l.212,0,0,0V12.5l-.214,0a19.247,19.247,0,0,1-8.884-1.8,1.7,1.7,0,0,0-.453,1.1c0,1.917,3.951,3.483,8.923,3.583q.249,0,.5,0l.126,0v5.1h3.413v5.074l4.323-8.409H15.218V14.967c2.969-.6,4.99-1.794,4.99-3.165a1.752,1.752,0,0,0-.513-1.169,13.767,13.767,0,0,1-4.477,1.491V8.476c.326-.058.64-.122.947-.192a12.434,12.434,0,0,0,3.56-1.315c1.053-.631,1.666-1.378,1.666-2.181V8.435a2.232,2.232,0,0,1-.916,1.648,2.334,2.334,0,0,1,1,1.662c0,.019,0,.038,0,.058V23.32c0,2.249-4.788,4.071-10.7,4.071S.088,25.569.088,23.32Zm10-15.184-.251-.007L9.45,8.115l-.24-.01c-.178-.01-.355-.021-.53-.033L8.51,8.058c-.161-.013-.321-.027-.479-.042L7.82,7.993l-.4-.045-.047-.006L7.23,7.924c-.185-.024-.368-.05-.548-.077l-.015,0c-.188-.029-.373-.061-.557-.094l-.139-.026c-.145-.027-.287-.055-.427-.085l-.122-.026Q4.877,7.5,4.375,7.356L4.319,7.34c-.154-.044-.3-.089-.453-.135l-.051-.016a12.118,12.118,0,0,1-1.368-.525l-.009,0a8.221,8.221,0,0,1-.773-.405,5.877,5.877,0,0,1-.537-.361l-.018-.014q-.077-.059-.149-.119C.869,5.683.783,5.6.7,5.524L.664,5.485c-.034-.034-.066-.068-.1-.1l-.05-.058c-.027-.032-.055-.064-.081-.1L.417,5.2C.389,5.161.36,5.123.334,5.084S.3,5.031.284,5.005.246,4.943.229,4.911l-.04-.075c-.02-.04-.038-.08-.055-.121C.128,4.7.119,4.682.113,4.666A1.717,1.717,0,0,1,.058,4.5C.053,4.477.049,4.459.045,4.44.035,4.4.026,4.353.019,4.309c0-.018-.006-.036-.008-.055A1.507,1.507,0,0,1,0,4.072c0-1.133,1.216-2.157,3.178-2.9L9.792,7.748l.392.389v0ZM7.439.193A27.025,27.025,0,0,1,10.7,0c5.907,0,10.7,1.823,10.7,4.072a1.511,1.511,0,0,1-.008.154c0,.019-.005.039-.008.058s-.008.063-.015.095-.012.048-.017.073-.012.052-.019.077-.018.055-.028.082-.015.044-.023.065-.026.06-.039.09l-.026.056c-.016.032-.033.064-.051.1l-.025.046c-.021.034-.042.069-.065.1l-.024.036q-.038.055-.08.11l-.02.027c-.03.039-.063.077-.1.116l-.015.017c-.037.041-.074.082-.115.123l-.006.007a4.957,4.957,0,0,1-.986.752,8.19,8.19,0,0,1-.775.406l-.006,0q-.208.1-.432.187c-.29.119-.6.229-.924.334l-.065.02c-.149.048-.3.093-.46.138l-.081.023c-.149.041-.3.081-.455.119l-.056.014c-.153.038-.309.073-.467.107l-.141.03c-.152.032-.306.063-.463.092l-.169.031c-.144.025-.288.05-.435.074l-.053.008Z" fill="#666569" stroke="rgba(0,0,0,0)" stroke-width="1"/>
    </g>
  </g>
</svg>
