<svg xmlns="http://www.w3.org/2000/svg" width="50" height="50" viewBox="0 0 50 50">
  <g id="Reject_Rate_icon" data-name="Reject Rate icon" transform="translate(-37 -21)">
    <circle id="Ellipse_1352" data-name="Ellipse 1352" cx="25" cy="25" r="25" transform="translate(37 21)" fill="#f2ecfb"/>
    <g id="reject_rate" data-name="reject rate" transform="translate(51 31)">
      <path id="Path_70" data-name="Path 70" d="M50.761,44.123a2.519,2.519,0,0,0-1.067-1.79,2.41,2.41,0,0,0,.976-1.775V36.63c0,.865-.654,1.67-1.778,2.349a13.2,13.2,0,0,1-3.8,1.417c-.327.075-.663.145-1.01.207v3.93a14.6,14.6,0,0,0,4.776-1.606,1.893,1.893,0,0,1,.548,1.258c0,1.477-2.156,2.759-5.324,3.409v2.351h3.657L43.13,59V53.536H39.488V48.048l-.135,0q-.269,0-.534-.005c-5.3-.107-9.521-1.794-9.521-3.859A1.843,1.843,0,0,1,29.781,43c2.048,1.172,5.529,1.943,9.478,1.943l.229,0V41.015l0,0-.226,0a28.007,28.007,0,0,1-4.251-.315c-.518-.08-1.016-.175-1.493-.283a13.332,13.332,0,0,1-3.89-1.438c-1.124-.679-1.778-1.484-1.778-2.349v3.929a2.479,2.479,0,0,0,1.069,1.854,2.446,2.446,0,0,0-.971,1.71c0,.021,0,.041,0,.062v12.4c0,2.422,5.109,4.385,11.411,4.385s11.411-1.963,11.411-4.385v-12.4C50.765,44.165,50.762,44.144,50.761,44.123Z" transform="translate(-27.848 -31.475)" fill="#5d43f7" stroke="rgba(0,0,0,0)" stroke-width="1"/>
      <g id="Group_82" data-name="Group 82" transform="translate(0)">
        <path id="Path_71" data-name="Path 71" d="M68.4,24.97c.157-.025.311-.052.464-.079l.18-.033q.251-.047.494-.1l.149-.033c.168-.037.335-.075.5-.115l.06-.015q.247-.062.485-.129l.087-.024q.251-.072.491-.149l.069-.022c.347-.113.676-.232.985-.36q.239-.1.461-.2l.007,0a8.693,8.693,0,0,0,.826-.437,5.3,5.3,0,0,0,1.052-.81l.007-.007c.043-.044.083-.088.122-.133l.016-.018c.036-.042.07-.083.1-.125l.022-.029q.044-.059.085-.118l.026-.039c.024-.037.047-.074.069-.111l.027-.049c.019-.035.038-.069.055-.1.009-.02.018-.04.027-.059s.029-.064.041-.1.016-.046.025-.07.021-.059.03-.089.014-.055.021-.083.014-.052.019-.079.011-.068.015-.1.007-.041.009-.062c.005-.055.008-.111.008-.166,0-2.422-5.109-4.385-11.411-4.385a28.623,28.623,0,0,0-3.474.208l7.794,8.236Z" transform="translate(-52.61 -16.535)" fill="#5d43f7" stroke="rgba(0,0,0,0)" stroke-width="1"/>
        <path id="Path_72" data-name="Path 72" d="M38.714,28.97l-.418-.419-7.057-7.078c-2.093.795-3.391,1.9-3.391,3.119a1.759,1.759,0,0,0,.012.2c0,.02.006.039.009.059.007.047.016.095.027.142,0,.02.009.04.014.059a1.907,1.907,0,0,0,.059.183c.007.018.016.036.023.053.018.044.038.087.059.13.014.027.028.054.042.081s.038.067.059.1.034.057.053.086.058.082.088.123l.022.031c.027.035.057.07.086.1l.053.062q.05.056.1.111l.042.042c.085.085.176.17.275.253.051.043.1.086.159.128l.019.015a6.276,6.276,0,0,0,.573.389,8.792,8.792,0,0,0,.825.437l.01,0a12.833,12.833,0,0,0,1.458.565l.056.018q.236.075.482.146l.06.017q.535.151,1.116.278l.131.028q.225.047.456.091l.149.028q.293.054.594.1l.015,0c.192.03.387.057.585.083l.157.02.05.006q.21.026.424.049l.226.024q.253.025.511.045l.182.014q.28.02.565.036l.256.012.414.016.268.007.1,0Z" transform="translate(-27.848 -20.206)" fill="#5d43f7" stroke="rgba(0,0,0,0)" stroke-width="1"/>
      </g>
    </g>
  </g>
</svg>
