<svg width="17" height="16" viewBox="0 0 17 16" fill="none" xmlns="http://www.w3.org/2000/svg">
<path d="M4.3924 7.56836C4.39197 6.97286 4.52903 6.3853 4.7929 5.85146C5.05676 5.31761 5.44032 4.85189 5.91368 4.49058L5.87599 4.25955H5.87722L5.76377 3.56373H5.76245V3.5625L5.06664 3.67603V3.67727L3.5909 3.9186L3.70443 4.61441L4.4515 4.49172C3.66597 5.4692 3.28671 6.71148 3.39237 7.96103C3.49802 9.21057 4.08048 10.3715 5.01899 11.2032L5.53275 10.3137C5.17079 9.95405 4.88365 9.52629 4.68793 9.0551C4.4922 8.5839 4.39176 8.07859 4.3924 7.56836Z" fill="#4B4B4B"/>
<path d="M12.946 7.16359V7.16236L12.9472 7.1628L13.1606 6.4912H13.1594L13.6125 5.0654L12.9409 4.85199L12.7217 5.54296C12.2244 4.44005 11.3357 3.56075 10.2276 3.07513C9.1195 2.58951 7.87067 2.53207 6.72266 2.91393L7.25253 3.8317C7.77133 3.6907 8.3138 3.65921 8.84543 3.73922C9.37706 3.81924 9.88622 4.00901 10.3405 4.29647C10.7949 4.58392 11.1844 4.96278 11.4843 5.40893C11.7843 5.85509 11.9881 6.35879 12.0829 6.88799L12.2751 6.94903V6.95026L12.946 7.16359Z" fill="#4B4B4B"/>
<path d="M8.2685 11.4505C7.72523 11.4508 7.188 11.3365 6.69191 11.1151L6.65668 11.1404L6.65598 11.1393L6.0862 11.554L6.08699 11.5549L6.08594 11.5557L6.50061 12.1254L6.50166 12.1247L7.382 13.3343L7.95169 12.9196L7.56881 12.3935C8.80204 12.5704 10.0563 12.2701 11.0757 11.5538C12.095 10.8375 12.8026 9.75927 13.0541 8.53906H12.0227C11.8085 9.37202 11.3234 10.1101 10.6438 10.6372C9.96416 11.1642 9.12856 11.4503 8.2685 11.4505Z" fill="#4B4B4B"/>
<path d="M9.63727 9.33751L8.44681 8.14749V5.21169C8.44681 5.11825 8.40969 5.02864 8.34362 4.96256C8.27755 4.89649 8.18794 4.85938 8.0945 4.85938C8.00106 4.85938 7.91145 4.89649 7.84538 4.96256C7.77931 5.02864 7.74219 5.11825 7.74219 5.21169V8.20633C7.74275 8.22032 7.74416 8.23426 7.74642 8.24808C7.73927 8.30128 7.74443 8.35542 7.7615 8.40631C7.77857 8.45721 7.8071 8.50351 7.84489 8.54164L9.13919 9.83577C9.1719 9.86848 9.21074 9.89444 9.25349 9.91214C9.29624 9.92985 9.34205 9.93896 9.38832 9.93896C9.43458 9.93896 9.4804 9.92985 9.52314 9.91214C9.56589 9.89444 9.60473 9.86848 9.63744 9.83577C9.67016 9.80305 9.69611 9.76421 9.71382 9.72147C9.73152 9.67872 9.74064 9.63291 9.74064 9.58664C9.74064 9.54037 9.73152 9.49456 9.71382 9.45181C9.69611 9.40907 9.67016 9.37023 9.63744 9.33751H9.63727Z" fill="#4B4B4B"/>
</svg>
