<svg width="17" height="16" viewBox="0 0 17 16" fill="none" xmlns="http://www.w3.org/2000/svg">
<path d="M6.27144 2.66406H3.34033C3.14374 2.66406 2.98438 2.82343 2.98438 3.02002V5.95112C2.98438 6.14772 3.14374 6.30709 3.34033 6.30709H6.27144C6.46803 6.30709 6.6274 6.14772 6.6274 5.95112V3.02002C6.6274 2.82343 6.46803 2.66406 6.27144 2.66406Z" fill="#4B4B4B"/>
<path d="M6.27144 7.09375H3.34033C3.14374 7.09375 2.98438 7.25312 2.98438 7.44971V10.3808C2.98438 10.5774 3.14374 10.7368 3.34033 10.7368H6.27144C6.46803 10.7368 6.6274 10.5774 6.6274 10.3808V7.44971C6.6274 7.25312 6.46803 7.09375 6.27144 7.09375Z" fill="#4B4B4B"/>
<path d="M10.7714 2.66406H7.84033C7.64374 2.66406 7.48438 2.82343 7.48438 3.02002V5.95112C7.48438 6.14772 7.64374 6.30709 7.84033 6.30709H10.7714C10.968 6.30709 11.1274 6.14772 11.1274 5.95112V3.02002C11.1274 2.82343 10.968 2.66406 10.7714 2.66406Z" fill="#4B4B4B"/>
<path d="M10.2753 7.09375H7.84025C7.74586 7.09375 7.65535 7.13124 7.58861 7.19798C7.52187 7.26472 7.48438 7.35524 7.48438 7.44962V9.67149C7.59364 8.99131 7.92812 8.36752 8.43419 7.90011C8.94026 7.4327 9.58861 7.14874 10.2753 7.09375Z" fill="#4B4B4B"/>
<path d="M10.7167 7.42969C10.133 7.42969 9.56244 7.60276 9.07714 7.92703C8.59185 8.2513 8.21361 8.71219 7.99025 9.25142C7.7669 9.79066 7.70846 10.384 7.82234 10.9565C7.93621 11.5289 8.21728 12.0547 8.62999 12.4674C9.04271 12.8801 9.56854 13.1612 10.141 13.275C10.7134 13.3889 11.3068 13.3305 11.846 13.1071C12.3853 12.8837 12.8461 12.5055 13.1704 12.0202C13.4946 11.5348 13.6677 10.9643 13.6677 10.3806C13.6677 9.9931 13.5913 9.60936 13.443 9.25133C13.2947 8.8933 13.0774 8.56799 12.8033 8.29397C12.5293 8.01995 12.204 7.80258 11.846 7.65429C11.4879 7.506 11.1042 7.42968 10.7167 7.42969ZM10.8337 11.7566L10.242 12.3483C10.2186 12.3718 10.1868 12.3849 10.1536 12.3849C10.1205 12.3849 10.0887 12.3718 10.0653 12.3483L9.47361 11.7566L8.55361 10.8366C8.53018 10.8132 8.51702 10.7814 8.51702 10.7483C8.51702 10.7151 8.53018 10.6834 8.55361 10.6599L9.05684 10.1566C9.08029 10.1332 9.11209 10.12 9.14524 10.12C9.17839 10.12 9.21019 10.1332 9.23365 10.1566L10.1183 11.0413C10.1277 11.0506 10.1404 11.0559 10.1536 11.0559C10.1669 11.0559 10.1796 11.0506 10.189 11.0413L12.1997 9.0306C12.2113 9.01898 12.2251 9.00976 12.2403 9.00347C12.2554 8.99718 12.2717 8.99394 12.2881 8.99394C12.3045 8.99394 12.3208 8.99718 12.3359 9.00347C12.3511 9.00976 12.3649 9.01898 12.3765 9.0306L12.8798 9.53383C12.9032 9.55728 12.9164 9.58908 12.9164 9.62223C12.9164 9.65538 12.9032 9.68718 12.8798 9.71064L10.8337 11.7566Z" fill="#4B4B4B"/>
</svg>
