<svg width="17" height="16" viewBox="0 0 17 16" fill="none" xmlns="http://www.w3.org/2000/svg">
<path d="M13.7904 8.84613C13.6644 8.83452 13.537 8.82812 13.4079 8.82812C12.3217 8.82813 11.28 9.2596 10.512 10.0276C9.74398 10.7957 9.3125 11.8374 9.3125 12.9235C9.3125 13.0602 9.31952 13.1953 9.33257 13.3286H13.7904V8.84613Z" fill="#4B4B4B"/>
<path d="M3.10156 2.66406V11.7099H7.68957C7.67652 11.5766 7.6695 11.4416 7.6695 11.3049C7.6695 10.2187 8.10098 9.17705 8.86902 8.40901C9.63705 7.64098 10.6787 7.2095 11.7649 7.2095C11.894 7.2095 12.0214 7.21625 12.1474 7.2275V2.66406H3.10156ZM8.00614 7.55882L4.5841 6.82867C4.55187 6.82178 4.52369 6.80239 4.50573 6.77475C4.48778 6.74712 4.48152 6.71349 4.48833 6.68124L4.61515 6.0816C4.6185 6.0656 4.62497 6.05041 4.6342 6.03691C4.64343 6.02341 4.65522 6.01186 4.66892 6.00292C4.68261 5.99399 4.69793 5.98784 4.714 5.98483C4.73008 5.98182 4.74658 5.98201 4.76258 5.98538L5.88769 6.22328L3.89625 4.23237L4.82712 3.3015L6.81829 5.29232L6.5804 4.16721C6.57702 4.15123 6.57682 4.13475 6.57981 4.1187C6.58281 4.10264 6.58894 4.08734 6.59785 4.07366C6.60676 4.05997 6.61828 4.04818 6.63174 4.03895C6.64521 4.02972 6.66037 4.02323 6.67635 4.01986L7.27635 3.89367C7.30857 3.88684 7.34219 3.89308 7.36982 3.91102C7.39744 3.92896 7.41682 3.95713 7.42369 3.98935L8.15411 7.41148C8.15846 7.43181 8.15765 7.4529 8.15175 7.47284C8.14585 7.49277 8.13504 7.51091 8.12033 7.52559C8.10561 7.54027 8.08745 7.55103 8.0675 7.55688C8.04755 7.56274 8.02645 7.5635 8.00614 7.55909V7.55882Z" fill="#4B4B4B"/>
</svg>
