<svg width="16" height="16" viewBox="0 0 16 16" fill="none" xmlns="http://www.w3.org/2000/svg">
<path d="M11.1993 7.08542C11.6934 7.085 12.1819 7.19066 12.6317 7.39527C13.0815 7.59987 13.4822 7.89866 13.8066 8.27142C13.8066 8.26207 13.8073 8.25271 13.8073 8.24336C13.8074 7.94078 13.7478 7.64117 13.632 7.36163C13.5162 7.08209 13.3465 6.82809 13.1326 6.61413C12.9186 6.40018 12.6646 6.23046 12.3851 6.11467C12.1055 5.99887 11.8059 5.93928 11.5034 5.93928C11.4898 5.93928 11.4763 5.94003 11.4628 5.94031C11.3761 5.04344 10.9585 4.21101 10.2913 3.60532C9.62424 2.99962 8.75547 2.66406 7.85441 2.66406C6.95335 2.66406 6.08459 2.99962 5.41748 3.60532C4.75037 4.21101 4.33273 5.04344 4.24597 5.94031C3.65072 5.9552 3.08435 6.20002 2.66566 6.6234C2.24697 7.04678 2.00849 7.61583 2.00022 8.21122C1.99196 8.80661 2.21455 9.38206 2.62133 9.8169C3.02811 10.2517 3.58746 10.5122 4.18207 10.5436V10.5472H7.73746C7.73746 9.62911 8.10219 8.74859 8.7514 8.09937C9.40062 7.45015 10.2811 7.08542 11.1993 7.08542Z" fill="#4B4B4B"/>
<path d="M11.2211 7.90625C10.6845 7.90625 10.1599 8.06538 9.71369 8.36353C9.26749 8.66167 8.91972 9.08543 8.71435 9.58123C8.50899 10.077 8.45526 10.6226 8.55995 11.1489C8.66464 11.6752 8.92306 12.1587 9.30253 12.5382C9.68199 12.9176 10.1655 13.1761 10.6918 13.2808C11.2181 13.3855 11.7637 13.3317 12.2595 13.1264C12.7553 12.921 13.179 12.5732 13.4772 12.127C13.7753 11.6808 13.9345 11.1562 13.9345 10.6196C13.9345 9.89995 13.6486 9.20981 13.1397 8.70096C12.6309 8.19212 11.9408 7.90625 11.2211 7.90625ZM12.9204 11.6722C12.9329 11.6846 12.9427 11.6993 12.9495 11.7156C12.9562 11.7318 12.9596 11.7492 12.9596 11.7668C12.9596 11.7844 12.9562 11.8018 12.9495 11.818C12.9427 11.8343 12.9329 11.849 12.9204 11.8614L12.4477 12.3342C12.4352 12.3466 12.4205 12.3565 12.4042 12.3632C12.388 12.37 12.3706 12.3734 12.353 12.3734C12.3354 12.3734 12.318 12.37 12.3018 12.3632C12.2856 12.3565 12.2708 12.3466 12.2584 12.3342L11.2211 11.2979L10.1838 12.3347C10.1714 12.3471 10.1566 12.357 10.1404 12.3637C10.1242 12.3704 10.1068 12.3739 10.0892 12.3739C10.0716 12.3739 10.0542 12.3704 10.038 12.3637C10.0218 12.357 10.007 12.3471 9.99462 12.3347L9.52175 11.8619C9.49669 11.8368 9.48261 11.8027 9.48261 11.7673C9.48261 11.7318 9.49669 11.6977 9.52175 11.6726L10.5591 10.6354L9.52175 9.59805C9.49669 9.57293 9.48261 9.5389 9.48261 9.50341C9.48261 9.46793 9.49669 9.43389 9.52175 9.40878L9.99462 8.936C10.007 8.92357 10.0218 8.91371 10.038 8.90698C10.0542 8.90025 10.0716 8.89679 10.0892 8.89679C10.1068 8.89679 10.1242 8.90025 10.1404 8.90698C10.1566 8.91371 10.1714 8.92357 10.1838 8.936L11.2211 9.97333L12.2584 8.936C12.2708 8.92357 12.2856 8.91371 12.3018 8.90698C12.318 8.90025 12.3354 8.89678 12.353 8.89678C12.3706 8.89678 12.388 8.90025 12.4042 8.90698C12.4205 8.91371 12.4352 8.92357 12.4477 8.936L12.9204 9.40878C12.9329 9.4212 12.9427 9.43595 12.9495 9.45219C12.9562 9.46843 12.9596 9.48584 12.9596 9.50341C12.9596 9.52099 12.9562 9.5384 12.9495 9.55464C12.9427 9.57087 12.9329 9.58563 12.9204 9.59805L11.8835 10.6354L12.9204 11.6722Z" fill="#4B4B4B"/>
</svg>
