<svg width="17" height="16" viewBox="0 0 17 16" fill="none" xmlns="http://www.w3.org/2000/svg">
<path d="M13.1663 3.17389C13.1646 3.14584 13.1522 3.11951 13.1318 3.10026C13.1113 3.08101 13.0843 3.0703 13.0562 3.07031H10.9264C10.8983 3.07034 10.8712 3.08107 10.8508 3.10031C10.8303 3.11954 10.8179 3.14586 10.8162 3.17389L10.5662 7.17383C10.5645 7.20188 10.5521 7.22821 10.5316 7.24745C10.5111 7.26669 10.4841 7.2774 10.456 7.27741H9.99818C9.96889 7.27741 9.9408 7.26578 9.92009 7.24507C9.89938 7.22436 9.88775 7.19627 9.88775 7.16698V5.45257C9.88776 5.43347 9.88281 5.4147 9.87339 5.39808C9.86397 5.38146 9.8504 5.36758 9.83401 5.35778C9.81761 5.34798 9.79895 5.34261 9.77986 5.34218C9.76076 5.34175 9.74188 5.34629 9.72507 5.35535L8.03307 6.26447L6.84933 6.90056V5.45257C6.84935 5.43347 6.8444 5.4147 6.83498 5.39808C6.82556 5.38146 6.81199 5.36758 6.79559 5.35778C6.7792 5.34798 6.76054 5.34261 6.74144 5.34218C6.72235 5.34175 6.70347 5.34629 6.68665 5.35535L4.99465 6.26447L3.16789 7.24606C3.15024 7.25544 3.13547 7.26944 3.12517 7.28657C3.11486 7.30369 3.1094 7.3233 3.10938 7.34329V12.9321C3.10936 12.9466 3.11221 12.9609 3.11776 12.9743C3.1233 12.9878 3.13144 12.9999 3.1417 13.0102C3.15195 13.0204 3.16413 13.0286 3.17753 13.0341C3.19094 13.0397 3.2053 13.0425 3.21981 13.0425H3.24714L5.04882 11.2355L5.04799 11.2341L5.77712 10.5053L5.79384 10.5221C5.66361 10.077 5.6624 9.6041 5.79035 9.15838C5.9183 8.71265 6.17015 8.31241 6.51662 8.00418C6.86308 7.69596 7.28993 7.49241 7.74752 7.41723C8.20511 7.34204 8.67464 7.39829 9.10152 7.57945C9.13774 7.59502 9.1696 7.61923 9.19431 7.64996C9.21901 7.68069 9.23581 7.71701 9.24323 7.75574C9.25066 7.79446 9.24848 7.83442 9.23689 7.8721C9.2253 7.90979 9.20465 7.94407 9.17675 7.97193L7.89898 9.2503C7.88519 9.26404 7.87494 9.28093 7.86911 9.29951C7.86329 9.31809 7.86206 9.33781 7.86554 9.35697L7.97747 9.96806C7.98191 9.99234 7.99366 10.0147 8.01113 10.0321C8.02861 10.0496 8.05099 10.0612 8.07528 10.0656L8.68136 10.1743C8.70113 10.1778 8.72147 10.1765 8.74064 10.1705C8.75981 10.1645 8.77725 10.154 8.79146 10.1398L10.0488 8.88297C10.0765 8.85508 10.1108 8.83455 10.1486 8.82325C10.1863 8.81195 10.2262 8.81024 10.2648 8.81827C10.3033 8.82629 10.3392 8.84381 10.3693 8.86922C10.3994 8.89463 10.4226 8.92714 10.437 8.96381C10.5996 9.38993 10.64 9.85298 10.5537 10.3008C10.4674 10.7487 10.2578 11.1635 9.94847 11.4987C9.63918 11.8339 9.24247 12.0761 8.80299 12.198C8.36351 12.32 7.89872 12.3169 7.46093 12.189L7.47765 12.2057L6.67094 13.0425H13.6657C13.6807 13.0425 13.6956 13.0394 13.7094 13.0335C13.7233 13.0275 13.7357 13.0188 13.746 13.0078C13.7564 12.9968 13.7643 12.9839 13.7695 12.9697C13.7746 12.9556 13.7768 12.9405 13.7758 12.9255L13.1663 3.17389Z" fill="#4B4B4B"/>
</svg>
