<svg width="16" height="16" viewBox="0 0 16 16" fill="none" xmlns="http://www.w3.org/2000/svg">
<path d="M9.10191 11.7969H3.56285C3.50225 11.7969 3.45312 11.8482 3.45312 11.9116V12.7292C3.45312 12.7925 3.50225 12.8439 3.56285 12.8439H9.10191C9.16252 12.8439 9.21164 12.7925 9.21164 12.7292V11.9116C9.21164 11.8482 9.16252 11.7969 9.10191 11.7969Z" fill="#4B4B4B"/>
<path d="M4.92187 8.65625C4.86237 8.92009 4.72071 9.15679 4.51838 9.33043C4.31606 9.50406 4.06411 9.60515 3.80078 9.61836L4.83794 11.4483H7.63979L4.92187 8.65625Z" fill="#4B4B4B"/>
<path d="M3.62772 9.34919C4.15778 9.34919 4.58747 8.9195 4.58747 8.38944C4.58747 7.85938 4.15778 7.42969 3.62772 7.42969C3.09766 7.42969 2.66797 7.85938 2.66797 8.38944C2.66797 8.9195 3.09766 9.34919 3.62772 9.34919Z" fill="#4B4B4B"/>
<path d="M5.86372 5.60156L3.89062 7.2122C4.17161 7.25404 4.43006 7.38429 4.62519 7.5824C4.82032 7.78052 4.94102 8.03522 4.96825 8.30632L6.68263 6.29695L6.6717 6.2864C6.4819 6.26032 6.30424 6.18156 6.16065 6.05985C6.01705 5.93815 5.91383 5.77883 5.86372 5.60156Z" fill="#4B4B4B"/>
<path d="M6.67227 5.97736C7.0414 5.97736 7.34064 5.67812 7.34064 5.30899C7.34064 4.93986 7.0414 4.64062 6.67227 4.64062C6.30314 4.64062 6.00391 4.93986 6.00391 5.30899C6.00391 5.67812 6.30314 5.97736 6.67227 5.97736Z" fill="#4B4B4B"/>
<path d="M7.06618 4.5572L7.03881 3.97883C7.03802 3.96235 7.04068 3.94589 7.04662 3.9305C7.05256 3.91511 7.06165 3.90113 7.07331 3.88945L7.81206 3.15116C7.81868 3.14454 7.82319 3.1361 7.82502 3.12691C7.82685 3.11773 7.82591 3.10821 7.82233 3.09955C7.81874 3.0909 7.81267 3.0835 7.80488 3.0783C7.7971 3.07309 7.78794 3.07031 7.77857 3.07031H7.06742C7.03602 3.07031 7.00591 3.08277 6.9837 3.10496L6.29246 3.7962C6.27027 3.81841 6.25781 3.84852 6.25781 3.87992V4.57906C6.38094 4.51089 6.51864 4.47331 6.65933 4.46951C6.80001 4.46571 6.93955 4.49578 7.06618 4.5572Z" fill="#4B4B4B"/>
<path d="M8.87742 4.21696L8.13875 4.95564C8.12709 4.96731 8.11313 4.97641 8.09775 4.98236C8.08237 4.98832 8.06592 4.99099 8.04945 4.99021L7.471 4.96277C7.53248 5.08944 7.5626 5.22905 7.55881 5.3698C7.55502 5.51056 7.51743 5.64834 7.44922 5.77152H8.14875C8.1643 5.77152 8.1797 5.76845 8.19406 5.76249C8.20843 5.75653 8.22148 5.7478 8.23247 5.73679L8.92362 5.04564C8.93463 5.03465 8.94336 5.0216 8.94932 5.00723C8.95528 4.99287 8.95835 4.97747 8.95835 4.96192V4.25045C8.95833 4.24108 8.95553 4.23193 8.95032 4.22415C8.9451 4.21637 8.9377 4.21031 8.92905 4.20673C8.9204 4.20315 8.91087 4.20221 8.90169 4.20403C8.8925 4.20585 8.88406 4.21035 8.87742 4.21696Z" fill="#4B4B4B"/>
<path d="M9.49004 9.90835L11.3021 12.7038C11.3129 12.7204 11.3276 12.734 11.345 12.7435C11.3623 12.7529 11.3818 12.7578 11.4015 12.7578C11.4213 12.7578 11.4407 12.7529 11.4581 12.7435C11.4754 12.734 11.4901 12.7204 11.5009 12.7038L13.313 9.90835C13.3301 9.88201 13.336 9.84998 13.3294 9.81928C13.3229 9.78859 13.3044 9.76175 13.2781 9.74467L12.7891 9.42638C12.7627 9.40928 12.7306 9.40336 12.6999 9.4099C12.6692 9.41645 12.6423 9.43493 12.6252 9.46128L12.0283 10.3784L12.0283 3.19147C12.0283 3.16008 12.0158 3.12998 11.9936 3.10778C11.9714 3.08558 11.9413 3.0731 11.9099 3.07307H10.8935C10.8621 3.07307 10.8319 3.08555 10.8097 3.10775C10.7875 3.12996 10.7751 3.16007 10.7751 3.19147L10.7751 10.3784L10.1779 9.46093C10.1608 9.43458 10.1339 9.4161 10.1032 9.40955C10.0725 9.40301 10.0404 9.40893 10.0141 9.42603L9.52494 9.74432C9.51187 9.75279 9.5006 9.76375 9.49177 9.77658C9.48294 9.78941 9.47672 9.80386 9.47348 9.8191C9.47024 9.83433 9.47003 9.85006 9.47288 9.86537C9.47572 9.88069 9.48155 9.89529 9.49004 9.90835Z" fill="#4B4B4B"/>
</svg>
