<svg width="16" height="16" viewBox="0 0 16 16" fill="none" xmlns="http://www.w3.org/2000/svg">
<path d="M11.6293 4.94176C11.307 4.19899 10.754 3.58715 10.057 3.20218C9.43481 2.8492 8.7357 2.66406 8.02499 2.66406C7.31429 2.66406 6.61517 2.8492 5.99294 3.20218C5.29597 3.58718 4.74298 4.199 4.42065 4.94176C3.43754 7.21503 4.42065 8.73119 4.91221 9.57328C5.36506 10.3491 6.79178 12.2792 7.78224 13.2318C7.84805 13.2954 7.93496 13.3307 8.02525 13.3307C8.11555 13.3307 8.20245 13.2954 8.26826 13.2318C9.25872 12.2792 10.6854 10.3491 11.1384 9.57328C11.6293 8.73119 12.6124 7.21539 11.6293 4.94176ZM8.02473 9.82574C7.44952 9.82574 6.88723 9.65041 6.40897 9.32193C5.9307 8.99344 5.55794 8.52656 5.33781 7.98031C5.11769 7.43406 5.0601 6.83299 5.17231 6.25309C5.28453 5.6732 5.56152 5.14053 5.96825 4.72245C6.37499 4.30437 6.8932 4.01966 7.45735 3.90431C8.02151 3.78896 8.60627 3.84816 9.13769 4.07442C9.66911 4.30069 10.1233 4.68385 10.4429 5.17546C10.7625 5.66707 10.933 6.24505 10.933 6.8363C10.933 7.22889 10.8578 7.61764 10.7117 7.98035C10.5655 8.34306 10.3513 8.67263 10.0812 8.95024C9.81119 9.22785 9.49057 9.44807 9.13772 9.59832C8.78486 9.74856 8.40667 9.8259 8.02473 9.82591V9.82574Z" fill="#4B4B4B"/>
<path d="M9.48512 5.19214V5.49646C9.22798 5.16777 8.87349 4.93436 8.4755 4.83169C8.07751 4.72902 7.6578 4.76271 7.28014 4.92764C6.90249 5.09257 6.58754 5.37972 6.38316 5.74546C6.17878 6.11119 6.09614 6.53551 6.14781 6.95392C6.14883 6.96141 6.15146 6.96856 6.15552 6.97485C6.15958 6.98115 6.16496 6.98643 6.17127 6.99031C6.17758 6.99418 6.18465 6.99656 6.19197 6.99725C6.19929 6.99795 6.20666 6.99695 6.21355 6.99433L6.47108 6.89798C6.48116 6.89419 6.48973 6.88707 6.49543 6.87773C6.50114 6.86839 6.50367 6.85736 6.50261 6.84639C6.49864 6.80119 6.49622 6.75555 6.49622 6.70928C6.49624 6.38193 6.59626 6.06284 6.78216 5.79705C6.96807 5.53125 7.23048 5.33218 7.53237 5.2279C7.83425 5.12363 8.16037 5.11943 8.4647 5.21589C8.76903 5.31235 9.03621 5.5046 9.22854 5.76552H8.9273C8.91431 5.76552 8.90185 5.77083 8.89267 5.78027C8.88348 5.78971 8.87832 5.80252 8.87832 5.81587V5.96115C8.87832 5.9745 8.88348 5.98731 8.89267 5.99675C8.90185 6.00619 8.91431 6.0115 8.9273 6.0115H9.67544C9.68843 6.0115 9.70089 6.00619 9.71007 5.99675C9.71926 5.98731 9.72442 5.9745 9.72442 5.96115V5.19214C9.72442 5.17879 9.71926 5.16598 9.71007 5.15654C9.70089 5.1471 9.68843 5.14179 9.67544 5.14179H9.5341C9.52111 5.14179 9.50865 5.1471 9.49947 5.15654C9.49028 5.16598 9.48512 5.17879 9.48512 5.19214Z" fill="#4B4B4B"/>
<path d="M9.89799 6.56963C9.89731 6.56187 9.89491 6.55438 9.89097 6.54774C9.88702 6.54109 9.88164 6.53547 9.87524 6.5313C9.86884 6.52714 9.8616 6.52454 9.85407 6.52372C9.84653 6.5229 9.83892 6.52387 9.83181 6.52656L9.53601 6.6372C9.53722 6.66278 9.53982 6.68809 9.53982 6.71393C9.54016 7.03387 9.44488 7.34621 9.26687 7.60867C9.08886 7.87113 8.83671 8.07106 8.54454 8.18139C8.25237 8.29173 7.93428 8.30715 7.6333 8.22557C7.33233 8.14399 7.06299 7.96934 6.86174 7.72526H7.19555C7.20854 7.72526 7.221 7.71996 7.23019 7.71052C7.23937 7.70107 7.24454 7.68827 7.24454 7.67491V7.52964C7.24454 7.51628 7.23937 7.50348 7.23019 7.49404C7.221 7.48459 7.20854 7.47929 7.19555 7.47929H6.44742C6.43443 7.47929 6.42197 7.48459 6.41278 7.49404C6.4036 7.50348 6.39844 7.51628 6.39844 7.52964V8.29873C6.39844 8.31208 6.4036 8.32489 6.41278 8.33433C6.42197 8.34378 6.43443 8.34908 6.44742 8.34908H6.58884C6.60183 8.34908 6.61429 8.34378 6.62348 8.33433C6.63266 8.32489 6.63782 8.31208 6.63782 8.29873V8.02985C6.89508 8.31567 7.23022 8.51511 7.59946 8.6021C7.96871 8.6891 8.35489 8.65961 8.70758 8.5175C9.06027 8.37538 9.36306 8.12724 9.57641 7.80548C9.78977 7.48373 9.90377 7.10331 9.90352 6.71393C9.90352 6.66532 9.90167 6.61722 9.89799 6.56963Z" fill="#4B4B4B"/>
</svg>
