<svg width="17" height="16" viewBox="0 0 17 16" fill="none" xmlns="http://www.w3.org/2000/svg">
<path d="M3.00375 13.3551V14.4595C3.00376 14.4867 2.99843 14.5136 2.98805 14.5387C2.97767 14.5638 2.96245 14.5866 2.94325 14.6058C2.92405 14.625 2.90124 14.6403 2.87615 14.6507C2.85106 14.6611 2.82419 14.6664 2.79703 14.6664H2.20106C2.17392 14.6664 2.14704 14.661 2.12197 14.6506C2.0969 14.6402 2.07409 14.625 2.05491 14.6058C2.03572 14.5865 2.02051 14.5637 2.01014 14.5387C1.99977 14.5136 1.99446 14.4867 1.99448 14.4595V11.302C1.99446 11.2749 1.99977 11.248 2.01014 11.2229C2.02052 11.1979 2.03576 11.1751 2.05494 11.1559C2.07413 11.1367 2.0969 11.1215 2.12197 11.1111C2.14704 11.1007 2.17393 11.0954 2.20106 11.0954H2.72353C3.30065 12.2175 4.17584 13.1587 5.25295 13.8159C6.33006 14.473 7.56743 14.8206 8.82917 14.8205C10.6505 14.8205 12.3972 14.0969 13.6851 12.8091C14.9729 11.5212 15.6964 9.77451 15.6964 7.9532C15.6964 7.79179 15.6888 7.63236 15.6779 7.47377L16.4736 7.18379C16.5036 7.17278 16.5357 7.1688 16.5674 7.17218C16.5992 7.17556 16.6297 7.18619 16.6567 7.20326C16.6837 7.22032 16.7064 7.24337 16.723 7.27061C16.7397 7.29785 16.7498 7.32856 16.7527 7.36035C16.7673 7.55594 16.7748 7.75351 16.7751 7.95307C16.7754 8.99692 16.5702 10.0306 16.1711 10.9952C15.772 11.9597 15.1867 12.8362 14.4489 13.5746C13.711 14.3129 12.835 14.8987 11.8707 15.2985C10.9064 15.6983 9.87289 15.9043 8.82904 15.9046C7.73458 15.9054 6.65185 15.6792 5.64921 15.2403C4.64657 14.8015 3.74579 14.1596 3.00375 13.3551ZM4.00706 8.01339C4.00702 6.96462 4.35375 5.94526 4.99324 5.11402C5.63272 4.28277 6.52906 3.68628 7.54277 3.41741L7.56659 3.43582V8.17353C7.56659 8.19819 7.57142 8.22261 7.58087 8.24539C7.59031 8.26818 7.60418 8.2889 7.62162 8.30634C7.63907 8.32378 7.65977 8.3376 7.68257 8.34703C7.70536 8.35645 7.7298 8.36129 7.75447 8.36127H9.60666C9.69781 8.36127 9.78524 8.32506 9.84971 8.26062C9.91418 8.19618 9.9504 8.10878 9.95044 8.01762V3.43001C9.97869 3.42486 10.0077 3.42618 10.0354 3.43385C11.0351 3.71312 11.916 4.31188 12.5435 5.13873C13.171 5.96559 13.5107 6.97509 13.5107 8.01309C13.5111 9.27372 13.0108 10.4829 12.1197 11.3746C11.2286 12.2663 10.0198 12.7676 8.75921 12.7681C8.13496 12.7679 7.51687 12.6448 6.94021 12.4058C6.36354 12.1667 5.83959 11.8165 5.39831 11.3749C4.95703 10.9334 4.60705 10.4093 4.36834 9.83246C4.12963 9.25566 4.00686 8.63748 4.00706 8.01323V8.01339ZM0.946396 8.95709C0.820641 7.96982 0.881781 6.96769 1.12664 6.00303C1.52811 4.4259 2.40268 3.00942 3.63282 1.94392C4.86297 0.878426 6.38978 0.214968 8.00807 0.0426847C9.32878 -0.0948994 10.6629 0.101361 11.888 0.613464C13.1132 1.12557 14.1901 1.93712 15.02 2.97367V1.72439C15.02 1.69725 15.0253 1.67036 15.0357 1.64528C15.0461 1.6202 15.0613 1.59742 15.0805 1.57822C15.0997 1.55902 15.1224 1.54379 15.1475 1.5334C15.1726 1.52301 15.1995 1.51766 15.2266 1.51766H15.8226C15.8497 1.51766 15.8766 1.52301 15.9017 1.5334C15.9267 1.54379 15.9495 1.55902 15.9687 1.57822C15.9879 1.59742 16.0031 1.6202 16.0135 1.64528C16.0238 1.67036 16.0292 1.69725 16.0292 1.72439V4.88191C16.0292 4.90905 16.0238 4.93594 16.0135 4.96102C16.0031 4.9861 15.9879 5.00888 15.9687 5.02808C15.9495 5.04728 15.9267 5.06251 15.9017 5.0729C15.8766 5.08329 15.8497 5.08864 15.8226 5.08864H15.0693C14.5211 3.89426 13.6417 2.88226 12.5354 2.17278C11.4292 1.46331 10.1426 1.08615 8.82845 1.08609C7.00714 1.08609 5.26043 1.8096 3.97256 3.09746C2.6847 4.38532 1.96119 6.13203 1.96119 7.95334C1.96175 8.2477 1.98109 8.54173 2.01909 8.83363L1.22322 9.12347C1.20054 9.1318 1.17659 9.13611 1.15243 9.13621C1.10215 9.13651 1.05349 9.11848 1.01557 9.08548C0.977643 9.05248 0.953046 9.00678 0.946396 8.95695V8.95709ZM8.2758 7.83157C8.22259 7.83157 8.17156 7.81043 8.13393 7.77281C8.0963 7.73518 8.07516 7.68415 8.07516 7.63094V2.73494C8.07516 2.68173 8.0963 2.6307 8.13393 2.59307C8.17156 2.55544 8.22259 2.5343 8.2758 2.5343H9.24134C9.29455 2.5343 9.34558 2.55544 9.38321 2.59307C9.42083 2.6307 9.44197 2.68173 9.44197 2.73494V7.63094C9.44197 7.68415 9.42083 7.73518 9.38321 7.77281C9.34558 7.81043 9.29455 7.83157 9.24134 7.83157H8.2758Z" fill="#4B4B4B"/>
</svg>
