<svg width="17" height="16" viewBox="0 0 17 16" fill="none" xmlns="http://www.w3.org/2000/svg">
<path d="M14.8992 5.76745L12.9256 2.72284C12.9139 2.7048 12.8979 2.68997 12.879 2.6797C12.8601 2.66944 12.8389 2.66406 12.8174 2.66406C12.7959 2.66406 12.7747 2.66944 12.7558 2.6797C12.7369 2.68997 12.7209 2.7048 12.7091 2.72284L10.7356 5.76745C10.717 5.79613 10.7106 5.83102 10.7177 5.86445C10.7248 5.89788 10.7449 5.92711 10.7736 5.94572L11.3062 6.29237C11.3349 6.31099 11.3698 6.31744 11.4033 6.31031C11.4368 6.30318 11.466 6.28306 11.4847 6.25436L12.1347 5.25555V13.0829C12.1347 13.1171 12.1483 13.1499 12.1725 13.174C12.1967 13.1982 12.2295 13.2118 12.2637 13.2118H13.3707C13.4049 13.2118 13.4377 13.1982 13.4619 13.1741C13.4861 13.1499 13.4997 13.1171 13.4997 13.0829V5.25555L14.15 6.25474C14.1686 6.28344 14.1979 6.30356 14.2314 6.31069C14.2648 6.31782 14.2998 6.31137 14.3285 6.29275L14.8612 5.9461C14.8754 5.93687 14.8877 5.92493 14.8973 5.91095C14.9069 5.89698 14.9137 5.88125 14.9172 5.86465C14.9208 5.84806 14.921 5.83093 14.9179 5.81425C14.9148 5.79757 14.9084 5.78167 14.8992 5.76745Z" fill="#4B4B4B"/>
<path d="M9.68128 9.96418L8.39692 8.67982V5.51291C8.39692 5.4121 8.35688 5.31542 8.28559 5.24414C8.21431 5.17286 8.11763 5.13281 8.01682 5.13281C7.91601 5.13281 7.81933 5.17286 7.74805 5.24414C7.67677 5.31542 7.63672 5.4121 7.63672 5.51291V8.74377C7.63732 8.75887 7.63884 8.77391 7.64128 8.78882C7.6336 8.84624 7.63919 8.90466 7.65763 8.95958C7.67606 9.0145 7.70685 9.06447 7.74761 9.10563L9.14373 10.5017C9.17902 10.537 9.22093 10.565 9.26704 10.5841C9.31316 10.6032 9.36259 10.6131 9.4125 10.6131C9.46242 10.6131 9.51185 10.6032 9.55797 10.5841C9.60408 10.565 9.64599 10.537 9.68128 10.5017C9.71658 10.4664 9.74458 10.4245 9.76368 10.3784C9.78278 10.3323 9.79262 10.2829 9.79262 10.233C9.79262 10.183 9.78278 10.1336 9.76368 10.0875C9.74458 10.0414 9.71658 9.99948 9.68128 9.96418Z" fill="#4B4B4B"/>
<path d="M8.15375 12.1768C7.49573 12.177 6.84722 12.0197 6.26244 11.718C5.67766 11.4164 5.1736 10.9791 4.79242 10.4427C4.41125 9.90634 4.16402 9.28651 4.07143 8.63504C3.97883 7.98358 4.04355 7.31941 4.26018 6.69808C4.47681 6.07675 4.83906 5.51631 5.31662 5.06364C5.79418 4.61096 6.37318 4.2792 7.0052 4.0961C7.63723 3.913 8.30391 3.88387 8.94949 4.01117C9.59507 4.13846 10.2008 4.41847 10.716 4.82778L11.3452 3.85719C10.5467 3.24997 9.59154 2.88307 8.59186 2.79956C7.59218 2.71605 6.58941 2.91938 5.70122 3.38571C4.81303 3.85203 4.07626 4.562 3.57736 5.43231C3.07846 6.30261 2.83813 7.29716 2.88456 8.29925C2.93099 9.30134 3.26226 10.2694 3.83949 11.0898C4.41673 11.9103 5.21599 12.5491 6.14349 12.9313C7.071 13.3135 8.08827 13.4232 9.07594 13.2476C10.0636 13.0721 10.9807 12.6184 11.7197 11.94V10.1212C11.3578 10.7464 10.8378 11.2655 10.2119 11.6263C9.58598 11.9871 8.87619 12.1769 8.15375 12.1768Z" fill="#4B4B4B"/>
</svg>
