<?xml version="1.0" standalone="no"?>
<!DOCTYPE svg PUBLIC "-//W3C//DTD SVG 20010904//EN"
 "http://www.w3.org/TR/2001/REC-SVG-20010904/DTD/svg10.dtd">
<svg version="1.0" xmlns="http://www.w3.org/2000/svg"
 width="832.000000pt" height="980.000000pt" viewBox="0 0 832.000000 980.000000"
 preserveAspectRatio="xMidYMid meet">

<g transform="translate(0.000000,980.000000) scale(0.100000,-0.100000)"
fill="#000000" stroke="none">
<path d="M3090 9693 c-186 -21 -443 -99 -623 -190 -361 -180 -578 -423 -721
-806 -77 -206 -91 -305 -106 -772 -5 -176 -15 -464 -20 -640 -28 -864 -91
-1236 -269 -1594 -74 -150 -139 -245 -231 -339 -199 -202 -426 -301 -805 -352
-294 -40 -305 -43 -305 -104 0 -56 20 -65 184 -81 189 -19 258 -30 379 -61
398 -99 670 -343 827 -739 74 -185 140 -460 174 -720 27 -205 34 -355 66
-1399 12 -383 22 -493 55 -634 96 -401 339 -725 696 -929 241 -137 579 -226
865 -227 126 -1 144 1 163 18 26 24 27 70 2 95 -21 21 -32 23 -241 47 -333 37
-586 121 -805 266 -105 69 -257 222 -328 329 -63 95 -132 237 -166 339 -50
155 -64 310 -81 915 -17 613 -33 900 -66 1200 -85 766 -356 1257 -824 1491
-52 26 -117 55 -145 65 -27 10 -50 23 -50 29 0 6 23 20 50 29 80 29 224 105
305 162 103 73 265 238 333 341 102 153 175 329 237 573 104 407 136 770 160
1800 10 446 19 545 67 730 99 379 315 648 660 820 209 103 367 145 706 184 93
11 175 25 184 32 22 19 11 89 -17 111 -19 15 -41 18 -149 16 -69 0 -142 -3
-161 -5z"/>
</g>
</svg>
