<svg xmlns="http://www.w3.org/2000/svg" width="28" height="27.934" viewBox="0 0 28 27.934">
  <g id="Group_8805" data-name="Group 8805" transform="translate(0 -0.574)">
    <g id="Group_8804" data-name="Group 8804" transform="translate(0 0.574)">
      <g id="Group_8803" data-name="Group 8803">
        <g id="Group_8799" data-name="Group 8799">
          <path id="Path_2136" data-name="Path 2136" d="M3.1,13.9h7.5a2.686,2.686,0,0,0,2.682-2.682v-7.5a2.685,2.685,0,0,0-2.682-2.682H3.1A2.685,2.685,0,0,0,.422,3.711v7.5A2.686,2.686,0,0,0,3.1,13.9ZM2.4,3.711A.706.706,0,0,1,3.1,3.006h7.5a.706.706,0,0,1,.706.706v7.5a.706.706,0,0,1-.706.706H3.1a.706.706,0,0,1-.706-.706Z" transform="translate(-0.399 -1.006)" fill="#654cf7"/>
          <path id="Path_2137" data-name="Path 2137" d="M10.21,13.523h-7.5A2.709,2.709,0,0,1,0,10.817v-7.5A2.709,2.709,0,0,1,2.706.607h7.5a2.709,2.709,0,0,1,2.705,2.706v7.5A2.709,2.709,0,0,1,10.21,13.523ZM2.706.653A2.662,2.662,0,0,0,.046,3.313v7.5a2.662,2.662,0,0,0,2.659,2.659h7.5a2.662,2.662,0,0,0,2.659-2.659v-7.5A2.662,2.662,0,0,0,10.21.653Zm7.5,10.893h-7.5a.73.73,0,0,1-.729-.729v-7.5a.73.73,0,0,1,.729-.729h7.5a.73.73,0,0,1,.729.729v7.5A.73.73,0,0,1,10.21,11.546ZM2.706,2.63a.684.684,0,0,0-.683.683v7.5a.684.684,0,0,0,.683.683h7.5a.684.684,0,0,0,.683-.683v-7.5a.684.684,0,0,0-.683-.683Z" transform="translate(0 -0.607)" fill="#654cf7"/>
        </g>
        <g id="Group_8800" data-name="Group 8800" transform="translate(15.084)">
          <path id="Path_2138" data-name="Path 2138" d="M286.439,1.029h-7.5a2.686,2.686,0,0,0-2.682,2.682v7.5a2.686,2.686,0,0,0,2.682,2.682h7.5a2.686,2.686,0,0,0,2.682-2.682v-7.5A2.685,2.685,0,0,0,286.439,1.029Zm.706,10.187a.706.706,0,0,1-.706.706h-7.5a.706.706,0,0,1-.706-.706v-7.5a.706.706,0,0,1,.706-.706h7.5a.706.706,0,0,1,.706.706v7.5Z" transform="translate(-276.229 -1.006)" fill="#654cf7"/>
          <path id="Path_2139" data-name="Path 2139" d="M286.04,13.523h-7.5a2.709,2.709,0,0,1-2.706-2.706v-7.5A2.709,2.709,0,0,1,278.536.607h7.5a2.709,2.709,0,0,1,2.706,2.706v7.5A2.709,2.709,0,0,1,286.04,13.523ZM278.536.653a2.662,2.662,0,0,0-2.659,2.659v7.5a2.662,2.662,0,0,0,2.659,2.659h7.5a2.662,2.662,0,0,0,2.659-2.659v-7.5A2.662,2.662,0,0,0,286.04.653Zm7.5,10.893h-7.5a.73.73,0,0,1-.729-.729v-7.5a.73.73,0,0,1,.729-.729h7.5a.73.73,0,0,1,.729.729v7.5A.73.73,0,0,1,286.04,11.546Zm-7.5-8.916a.684.684,0,0,0-.683.683v7.5a.684.684,0,0,0,.683.683h7.5a.684.684,0,0,0,.683-.683v-7.5a.684.684,0,0,0-.683-.683Z" transform="translate(-275.83 -0.607)" fill="#654cf7"/>
        </g>
        <g id="Group_8801" data-name="Group 8801" transform="translate(0 15.018)">
          <path id="Path_2140" data-name="Path 2140" d="M3.1,288.513h7.5a2.685,2.685,0,0,0,2.682-2.682v-7.5a2.686,2.686,0,0,0-2.682-2.683H3.1a2.686,2.686,0,0,0-2.682,2.683v7.5A2.685,2.685,0,0,0,3.1,288.513ZM2.4,278.327a.706.706,0,0,1,.706-.706h7.5a.706.706,0,0,1,.706.706v7.5a.706.706,0,0,1-.706.706H3.1a.706.706,0,0,1-.706-.706Z" transform="translate(-0.399 -275.621)" fill="#654cf7"/>
          <path id="Path_2141" data-name="Path 2141" d="M10.21,288.138h-7.5A2.709,2.709,0,0,1,0,285.432v-7.5a2.709,2.709,0,0,1,2.706-2.706h7.5a2.709,2.709,0,0,1,2.705,2.706v7.5A2.709,2.709,0,0,1,10.21,288.138Zm-7.5-12.869a2.662,2.662,0,0,0-2.659,2.659v7.5a2.662,2.662,0,0,0,2.659,2.659h7.5a2.662,2.662,0,0,0,2.659-2.659v-7.5a2.662,2.662,0,0,0-2.659-2.659h-7.5Zm7.5,10.893h-7.5a.73.73,0,0,1-.729-.729v-7.5a.73.73,0,0,1,.729-.729h7.5a.73.73,0,0,1,.729.729v7.5A.73.73,0,0,1,10.21,286.161Zm-7.5-8.916a.684.684,0,0,0-.683.683v7.5a.684.684,0,0,0,.683.683h7.5a.684.684,0,0,0,.683-.683v-7.5a.684.684,0,0,0-.683-.683Z" transform="translate(0 -275.222)" fill="#654cf7"/>
        </g>
        <g id="Group_8802" data-name="Group 8802" transform="translate(15.084 15.018)">
          <path id="Path_2142" data-name="Path 2142" d="M286.439,275.645h-7.5a2.686,2.686,0,0,0-2.682,2.683v7.5a2.685,2.685,0,0,0,2.682,2.682h7.5a2.685,2.685,0,0,0,2.682-2.682v-7.5A2.686,2.686,0,0,0,286.439,275.645Zm.706,10.187a.706.706,0,0,1-.706.706h-7.5a.706.706,0,0,1-.706-.706v-7.5a.706.706,0,0,1,.706-.706h7.5a.706.706,0,0,1,.706.706v7.5Z" transform="translate(-276.229 -275.622)" fill="#654cf7"/>
          <path id="Path_2143" data-name="Path 2143" d="M286.04,288.138h-7.5a2.709,2.709,0,0,1-2.706-2.706v-7.5a2.709,2.709,0,0,1,2.706-2.706h7.5a2.709,2.709,0,0,1,2.706,2.706v7.5A2.709,2.709,0,0,1,286.04,288.138Zm-7.5-12.869a2.662,2.662,0,0,0-2.659,2.659v7.5a2.662,2.662,0,0,0,2.659,2.659h7.5a2.662,2.662,0,0,0,2.659-2.659v-7.5a2.662,2.662,0,0,0-2.659-2.659h-7.5Zm7.5,10.893h-7.5a.73.73,0,0,1-.729-.729v-7.5a.73.73,0,0,1,.729-.729h7.5a.73.73,0,0,1,.729.729v7.5A.73.73,0,0,1,286.04,286.161Zm-7.5-8.916a.684.684,0,0,0-.683.683v7.5a.684.684,0,0,0,.683.683h7.5a.684.684,0,0,0,.683-.683v-7.5a.684.684,0,0,0-.683-.683Z" transform="translate(-275.83 -275.222)" fill="#654cf7"/>
        </g>
      </g>
    </g>
  </g>
</svg>
