<svg xmlns="http://www.w3.org/2000/svg" width="23.947" height="23.89" viewBox="0 0 23.947 23.89">
  <g id="four-squares-button-of-view-options" transform="translate(0 -0.72)">
    <g id="Group_8688" data-name="Group 8688" transform="translate(0 0.72)">
      <g id="Group_8687" data-name="Group 8687" transform="translate(0 0)">
        <g id="Group_8683" data-name="Group 8683">
          <path id="Path_2025" data-name="Path 2025" d="M2.794,12.227H9.212a2.3,2.3,0,0,0,2.294-2.294V3.514A2.3,2.3,0,0,0,9.212,1.22H2.794A2.3,2.3,0,0,0,.5,3.514V9.932A2.3,2.3,0,0,0,2.794,12.227Zm-.6-8.712a.6.6,0,0,1,.6-.6H9.212a.6.6,0,0,1,.6.6V9.932a.6.6,0,0,1-.6.6H2.794a.6.6,0,0,1-.6-.6Z" transform="translate(-0.48 -1.2)" fill="#666569"/>
          <path id="Path_2026" data-name="Path 2026" d="M8.732,11.766H2.314A2.317,2.317,0,0,1,0,9.452V3.034A2.317,2.317,0,0,1,2.314.72H8.732a2.317,2.317,0,0,1,2.314,2.314V9.452A2.317,2.317,0,0,1,8.732,11.766ZM2.314.759A2.277,2.277,0,0,0,.039,3.034V9.452a2.277,2.277,0,0,0,2.274,2.274H8.732a2.277,2.277,0,0,0,2.274-2.274V3.034A2.277,2.277,0,0,0,8.732.759Zm6.418,9.316H2.314a.624.624,0,0,1-.623-.623V3.034a.624.624,0,0,1,.623-.623H8.732a.624.624,0,0,1,.623.623V9.452A.624.624,0,0,1,8.732,10.076ZM2.314,2.45a.585.585,0,0,0-.584.584V9.452a.585.585,0,0,0,.584.584H8.732a.585.585,0,0,0,.584-.584V3.034a.585.585,0,0,0-.584-.584Z" transform="translate(0 -0.72)" fill="#666569"/>
        </g>
        <g id="Group_8684" data-name="Group 8684" transform="translate(12.901 0)">
          <path id="Path_2027" data-name="Path 2027" d="M336.156,1.22h-6.418a2.3,2.3,0,0,0-2.294,2.294V9.932a2.3,2.3,0,0,0,2.294,2.294h6.418a2.3,2.3,0,0,0,2.294-2.294V3.514A2.3,2.3,0,0,0,336.156,1.22Zm.6,8.712a.6.6,0,0,1-.6.6h-6.418a.6.6,0,0,1-.6-.6V3.514a.6.6,0,0,1,.6-.6h6.418a.6.6,0,0,1,.6.6Z" transform="translate(-327.423 -1.2)" fill="#666569"/>
          <path id="Path_2028" data-name="Path 2028" d="M335.675,11.766h-6.418a2.317,2.317,0,0,1-2.314-2.314V3.034A2.317,2.317,0,0,1,329.257.72h6.418a2.317,2.317,0,0,1,2.314,2.314V9.452A2.317,2.317,0,0,1,335.675,11.766ZM329.257.759a2.277,2.277,0,0,0-2.274,2.274V9.452a2.277,2.277,0,0,0,2.274,2.274h6.418a2.277,2.277,0,0,0,2.274-2.274V3.034A2.277,2.277,0,0,0,335.675.759h-6.418Zm6.418,9.316h-6.418a.624.624,0,0,1-.623-.623V3.034a.624.624,0,0,1,.623-.623h6.418a.624.624,0,0,1,.623.623V9.452A.624.624,0,0,1,335.675,10.076ZM329.257,2.45a.585.585,0,0,0-.584.584V9.452a.585.585,0,0,0,.584.584h6.418a.585.585,0,0,0,.584-.584V3.034a.585.585,0,0,0-.584-.584Z" transform="translate(-326.943 -0.72)" fill="#666569"/>
        </g>
        <g id="Group_8685" data-name="Group 8685" transform="translate(0 12.844)">
          <path id="Path_2029" data-name="Path 2029" d="M2.794,337.73H9.212a2.3,2.3,0,0,0,2.294-2.294v-6.418a2.3,2.3,0,0,0-2.294-2.294H2.794A2.3,2.3,0,0,0,.5,329.017v6.418A2.3,2.3,0,0,0,2.794,337.73Zm-.6-8.712a.6.6,0,0,1,.6-.6H9.212a.6.6,0,0,1,.6.6v6.418a.6.6,0,0,1-.6.6H2.794a.6.6,0,0,1-.6-.6Z" transform="translate(-0.48 -326.703)" fill="#666569"/>
          <path id="Path_2030" data-name="Path 2030" d="M8.732,337.269H2.314A2.317,2.317,0,0,1,0,334.955v-6.418a2.317,2.317,0,0,1,2.314-2.314H8.732a2.317,2.317,0,0,1,2.314,2.314v6.418A2.317,2.317,0,0,1,8.732,337.269ZM2.314,326.263a2.277,2.277,0,0,0-2.274,2.274v6.418a2.277,2.277,0,0,0,2.274,2.274H8.732a2.277,2.277,0,0,0,2.274-2.274v-6.418a2.277,2.277,0,0,0-2.274-2.275H2.314Zm6.418,9.316H2.314a.624.624,0,0,1-.623-.623v-6.418a.624.624,0,0,1,.623-.624H8.732a.624.624,0,0,1,.623.624v6.418A.624.624,0,0,1,8.732,335.579Zm-6.418-7.626a.585.585,0,0,0-.584.584v6.418a.585.585,0,0,0,.584.584H8.732a.585.585,0,0,0,.584-.584v-6.418a.585.585,0,0,0-.584-.584Z" transform="translate(0 -326.223)" fill="#666569"/>
        </g>
        <g id="Group_8686" data-name="Group 8686" transform="translate(12.901 12.844)">
          <path id="Path_2031" data-name="Path 2031" d="M336.156,326.724h-6.418a2.3,2.3,0,0,0-2.294,2.294v6.418a2.3,2.3,0,0,0,2.294,2.294h6.418a2.3,2.3,0,0,0,2.294-2.294v-6.418A2.3,2.3,0,0,0,336.156,326.724Zm.6,8.712a.6.6,0,0,1-.6.6h-6.418a.6.6,0,0,1-.6-.6v-6.418a.6.6,0,0,1,.6-.6h6.418a.6.6,0,0,1,.6.6Z" transform="translate(-327.423 -326.704)" fill="#666569"/>
          <path id="Path_2032" data-name="Path 2032" d="M335.675,337.269h-6.418a2.317,2.317,0,0,1-2.314-2.314v-6.418a2.317,2.317,0,0,1,2.314-2.314h6.418a2.317,2.317,0,0,1,2.314,2.314v6.418A2.317,2.317,0,0,1,335.675,337.269Zm-6.418-11.007a2.277,2.277,0,0,0-2.274,2.274v6.418a2.277,2.277,0,0,0,2.274,2.274h6.418a2.277,2.277,0,0,0,2.274-2.274v-6.418a2.277,2.277,0,0,0-2.274-2.275h-6.418Zm6.418,9.316h-6.418a.624.624,0,0,1-.623-.623v-6.418a.624.624,0,0,1,.623-.624h6.418a.624.624,0,0,1,.623.624v6.418A.624.624,0,0,1,335.675,335.579Zm-6.418-7.626a.585.585,0,0,0-.584.584v6.418a.585.585,0,0,0,.584.584h6.418a.585.585,0,0,0,.584-.584v-6.418a.585.585,0,0,0-.584-.584Z" transform="translate(-326.943 -326.223)" fill="#666569"/>
        </g>
      </g>
    </g>
  </g>
</svg>
