<svg xmlns="http://www.w3.org/2000/svg" width="31.712" height="31.712" viewBox="0 0 31.712 31.712">
  <g id="globe" transform="translate(4 2)">
    <g id="Group_8672" data-name="Group 8672" transform="translate(-4 -2)">
      <g id="Group_8671" data-name="Group 8671">
        <path id="Path_2018" data-name="Path 2018" d="M15.856,0A15.856,15.856,0,1,0,31.712,15.856,15.847,15.847,0,0,0,15.856,0ZM9.721,3.267A36.169,36.169,0,0,0,8.513,7.25a25.056,25.056,0,0,1-2.8-1.038A14.035,14.035,0,0,1,9.721,3.267ZM4.48,7.7A26.943,26.943,0,0,0,8.122,9.073a36.667,36.667,0,0,0-.614,5.854H1.889A13.865,13.865,0,0,1,4.48,7.7Zm0,16.322a13.865,13.865,0,0,1-2.591-7.232H7.508a36.667,36.667,0,0,0,.614,5.854A26.946,26.946,0,0,0,4.48,24.017ZM5.711,25.5a25.027,25.027,0,0,1,2.8-1.038,36.182,36.182,0,0,0,1.208,3.982A14.037,14.037,0,0,1,5.711,25.5Zm9.216,4.322a14,14,0,0,1-2.857-.485,34.426,34.426,0,0,1-1.759-5.349,25.228,25.228,0,0,1,4.616-.589Zm0-8.282a27.087,27.087,0,0,0-5,.63,34.825,34.825,0,0,1-.558-5.386h5.56Zm0-6.613H9.367a34.826,34.826,0,0,1,.558-5.386,27.087,27.087,0,0,0,5,.63Zm0-6.615a25.228,25.228,0,0,1-4.616-.589,34.426,34.426,0,0,1,1.759-5.349,14,14,0,0,1,2.857-.485Zm12.3-.617a13.865,13.865,0,0,1,2.591,7.232H24.2a36.668,36.668,0,0,0-.614-5.854A26.946,26.946,0,0,0,27.231,7.7ZM26,6.211A25.027,25.027,0,0,1,23.2,7.25a36.182,36.182,0,0,0-1.208-3.982A14.037,14.037,0,0,1,26,6.211ZM16.785,1.889a14,14,0,0,1,2.857.485A34.425,34.425,0,0,1,21.4,7.723a25.228,25.228,0,0,1-4.616.589Zm0,8.282a27.087,27.087,0,0,0,5-.63,34.825,34.825,0,0,1,.558,5.386h-5.56Zm2.857,19.166a14,14,0,0,1-2.857.485V23.4a25.227,25.227,0,0,1,4.616.589A34.423,34.423,0,0,1,19.642,29.338Zm-2.857-7.8V16.785h5.56a34.825,34.825,0,0,1-.558,5.386A27.087,27.087,0,0,0,16.785,21.54Zm5.206,6.9A36.168,36.168,0,0,0,23.2,24.462,25.056,25.056,0,0,1,26,25.5,14.035,14.035,0,0,1,21.991,28.445Zm5.24-4.428a26.943,26.943,0,0,0-3.642-1.378,36.668,36.668,0,0,0,.614-5.854h5.619A13.865,13.865,0,0,1,27.231,24.017Z" fill="#5d43f7"/>
      </g>
    </g>
  </g>
</svg>
