<svg xmlns="http://www.w3.org/2000/svg" width="27.424" height="27.424" viewBox="0 0 27.424 27.424">
  <g id="globe" transform="translate(4 2)">
    <g id="Group_8672" data-name="Group 8672" transform="translate(-4 -2)">
      <g id="Group_8671" data-name="Group 8671">
        <path id="Path_2018" data-name="Path 2018" d="M13.712,0A13.712,13.712,0,1,0,27.424,13.712,13.7,13.7,0,0,0,13.712,0ZM8.406,2.826A31.278,31.278,0,0,0,7.362,6.269a21.668,21.668,0,0,1-2.423-.9A12.137,12.137,0,0,1,8.406,2.826ZM3.875,6.655a23.3,23.3,0,0,0,3.15,1.192,31.709,31.709,0,0,0-.531,5.062H1.634A11.99,11.99,0,0,1,3.875,6.655Zm0,14.115a11.99,11.99,0,0,1-2.241-6.254H6.493a31.709,31.709,0,0,0,.531,5.062A23.3,23.3,0,0,0,3.875,20.769Zm1.064,1.283a21.643,21.643,0,0,1,2.423-.9A31.29,31.29,0,0,0,8.406,24.6,12.139,12.139,0,0,1,4.939,22.052Zm7.97,3.738a12.109,12.109,0,0,1-2.471-.419,29.771,29.771,0,0,1-1.521-4.626,21.816,21.816,0,0,1,3.992-.51Zm0-7.162a23.424,23.424,0,0,0-4.325.545A30.116,30.116,0,0,1,8.1,14.515h4.808Zm0-5.719H8.1a30.116,30.116,0,0,1,.483-4.657,23.424,23.424,0,0,0,4.325.545Zm0-5.72a21.816,21.816,0,0,1-3.992-.51,29.771,29.771,0,0,1,1.521-4.626,12.109,12.109,0,0,1,2.471-.419Zm10.641-.534a11.99,11.99,0,0,1,2.241,6.254H20.931A31.71,31.71,0,0,0,20.4,7.846,23.3,23.3,0,0,0,23.549,6.655ZM22.485,5.371a21.643,21.643,0,0,1-2.423.9,31.29,31.29,0,0,0-1.044-3.444A12.139,12.139,0,0,1,22.485,5.371Zm-7.97-3.738a12.109,12.109,0,0,1,2.471.419,29.77,29.77,0,0,1,1.521,4.626,21.816,21.816,0,0,1-3.992.51Zm0,7.162a23.424,23.424,0,0,0,4.325-.545,30.116,30.116,0,0,1,.483,4.657H14.515Zm2.471,16.575a12.1,12.1,0,0,1-2.471.419V20.236a21.816,21.816,0,0,1,3.992.51A29.768,29.768,0,0,1,16.986,25.371Zm-2.471-6.743V14.515h4.808a30.116,30.116,0,0,1-.483,4.657A23.424,23.424,0,0,0,14.515,18.628Zm4.5,5.971a31.277,31.277,0,0,0,1.044-3.444,21.668,21.668,0,0,1,2.423.9A12.137,12.137,0,0,1,19.017,24.6Zm4.532-3.829a23.3,23.3,0,0,0-3.15-1.192,31.71,31.71,0,0,0,.531-5.062H25.79A11.99,11.99,0,0,1,23.549,20.769Z" fill="#666569"/>
      </g>
    </g>
  </g>
</svg>
