<svg xmlns="http://www.w3.org/2000/svg" width="28.999" height="22.395" viewBox="0 0 28.999 22.395">
  <g id="Group_8806" data-name="Group 8806" transform="translate(-448.5 -109.807)">
    <path id="Exclusion_6" data-name="Exclusion 6" d="M1663.877-10579.3a1.834,1.834,0,0,1-.73-.149,1.884,1.884,0,0,1-.6-.408,1.9,1.9,0,0,1-.4-.605,1.919,1.919,0,0,1-.147-.741,1.911,1.911,0,0,1,.147-.741,1.879,1.879,0,0,1,.4-.605,1.853,1.853,0,0,1,.6-.408,1.834,1.834,0,0,1,.73-.149,1.835,1.835,0,0,1,.73.149,1.851,1.851,0,0,1,.6.408,1.88,1.88,0,0,1,.4.605,1.914,1.914,0,0,1,.147.741,1.921,1.921,0,0,1-.147.741,1.9,1.9,0,0,1-.4.605,1.882,1.882,0,0,1-.6.408A1.835,1.835,0,0,1,1663.877-10579.3Zm24.726-.377h-18.723a1.366,1.366,0,0,1-.544-.111,1.394,1.394,0,0,1-.444-.3,1.411,1.411,0,0,1-.3-.451,1.425,1.425,0,0,1-.11-.552,1.425,1.425,0,0,1,.11-.552,1.413,1.413,0,0,1,.3-.451,1.394,1.394,0,0,1,.444-.3,1.366,1.366,0,0,1,.544-.111H1688.6a1.366,1.366,0,0,1,.544.111,1.4,1.4,0,0,1,.444.3,1.413,1.413,0,0,1,.3.451,1.422,1.422,0,0,1,.11.552,1.422,1.422,0,0,1-.11.552,1.406,1.406,0,0,1-.3.451,1.394,1.394,0,0,1-.444.3A1.366,1.366,0,0,1,1688.6-10579.677Zm-24.726-8.415a1.835,1.835,0,0,1-.73-.15,1.865,1.865,0,0,1-.6-.408,1.89,1.89,0,0,1-.4-.605,1.919,1.919,0,0,1-.147-.741,1.915,1.915,0,0,1,.147-.741,1.9,1.9,0,0,1,.4-.605,1.868,1.868,0,0,1,.6-.408,1.834,1.834,0,0,1,.73-.149,1.835,1.835,0,0,1,.73.149,1.866,1.866,0,0,1,.6.408,1.9,1.9,0,0,1,.4.605,1.917,1.917,0,0,1,.147.741,1.921,1.921,0,0,1-.147.741,1.89,1.89,0,0,1-.4.605,1.866,1.866,0,0,1-.6.408A1.836,1.836,0,0,1,1663.877-10588.092Zm24.726-.486h-18.723a1.367,1.367,0,0,1-.544-.112,1.394,1.394,0,0,1-.444-.3,1.431,1.431,0,0,1-.3-.45,1.433,1.433,0,0,1-.11-.553,1.428,1.428,0,0,1,.11-.552,1.4,1.4,0,0,1,.3-.451,1.394,1.394,0,0,1,.444-.3,1.383,1.383,0,0,1,.544-.111H1688.6a1.383,1.383,0,0,1,.544.111,1.4,1.4,0,0,1,.444.3,1.4,1.4,0,0,1,.3.451,1.426,1.426,0,0,1,.11.552,1.428,1.428,0,0,1-.109.553,1.428,1.428,0,0,1-.3.45,1.392,1.392,0,0,1-.444.3A1.367,1.367,0,0,1,1688.6-10588.578Zm-24.726-8.307a1.834,1.834,0,0,1-.73-.149,1.868,1.868,0,0,1-.6-.408,1.911,1.911,0,0,1-.4-.605,1.919,1.919,0,0,1-.147-.741,1.911,1.911,0,0,1,.147-.741,1.9,1.9,0,0,1,.4-.606,1.847,1.847,0,0,1,.6-.407,1.835,1.835,0,0,1,.73-.15,1.836,1.836,0,0,1,.73.15,1.848,1.848,0,0,1,.6.407,1.905,1.905,0,0,1,.4.606,1.914,1.914,0,0,1,.147.741,1.921,1.921,0,0,1-.147.741,1.912,1.912,0,0,1-.4.605,1.866,1.866,0,0,1-.6.408A1.835,1.835,0,0,1,1663.877-10596.885Zm24.726-.6h-18.723a1.366,1.366,0,0,1-.544-.111,1.379,1.379,0,0,1-.444-.3,1.409,1.409,0,0,1-.3-.45,1.437,1.437,0,0,1-.11-.553,1.428,1.428,0,0,1,.11-.552,1.407,1.407,0,0,1,.3-.45,1.381,1.381,0,0,1,.444-.3,1.366,1.366,0,0,1,.544-.111H1688.6a1.366,1.366,0,0,1,.544.111,1.385,1.385,0,0,1,.444.3,1.407,1.407,0,0,1,.3.45,1.426,1.426,0,0,1,.11.552,1.434,1.434,0,0,1-.11.553,1.406,1.406,0,0,1-.3.45,1.378,1.378,0,0,1-.444.3A1.366,1.366,0,0,1,1688.6-10597.481Z" transform="translate(-1213.001 10711.001)" fill="#5d43f7" stroke="rgba(0,0,0,0)" stroke-width="1"/>
  </g>
</svg>
