<svg xmlns="http://www.w3.org/2000/svg" width="25.736" height="19.372" viewBox="0 0 25.736 19.372">
  <g id="list" transform="translate(0 -8.434)">
    <g id="Group_8680" data-name="Group 8680" transform="translate(0 8.434)">
      <path id="Path_2020" data-name="Path 2020" d="M32.414,48.461H15.2a1.284,1.284,0,1,1,0-2.568H32.414a1.284,1.284,0,0,1,0,2.568Z" transform="translate(-7.961 -29.43)" fill="#666569"/>
      <path id="Path_2021" data-name="Path 2021" d="M32.414,29.63H15.2a1.284,1.284,0,1,1,0-2.568H32.414a1.284,1.284,0,0,1,0,2.568Z" transform="translate(-7.961 -18.66)" fill="#666569"/>
      <path id="Path_2022" data-name="Path 2022" d="M32.414,10.8H15.2a1.284,1.284,0,0,1,0-2.568H32.414a1.284,1.284,0,0,1,0,2.568Z" transform="translate(-7.961 -7.89)" fill="#666569"/>
      <circle id="Ellipse_1353" data-name="Ellipse 1353" cx="1.725" cy="1.725" r="1.725" fill="#666569"/>
      <circle id="Ellipse_1354" data-name="Ellipse 1354" cx="1.725" cy="1.725" r="1.725" transform="translate(0 7.962)" fill="#666569"/>
      <circle id="Ellipse_1355" data-name="Ellipse 1355" cx="1.725" cy="1.725" r="1.725" transform="translate(0 15.923)" fill="#666569"/>
    </g>
  </g>
</svg>
