<svg xmlns="http://www.w3.org/2000/svg" width="30.833" height="30.824" viewBox="0 0 30.833 30.824">
  <g id="Group_8795" data-name="Group 8795" transform="translate(50.489 137.967) rotate(-90)">
    <path id="Exclusion_6" data-name="Exclusion 6" d="M13.886,30.833A13.886,13.886,0,0,1,4.068,7.127a13.8,13.8,0,0,1,9.818-4.066H13.9a.872.872,0,0,1,.872.879V16.062H26.891a.882.882,0,0,1,.881.885A13.885,13.885,0,0,1,13.886,30.833ZM13,4.855A12.119,12.119,0,1,0,25.979,17.828h-12.1A.875.875,0,0,1,13,16.947V4.855Zm17.016,8.669H18.1a.809.809,0,0,1-.8-.808V.8a.807.807,0,0,1,.8-.8A12.718,12.718,0,0,1,30.824,12.678v.046A.806.806,0,0,1,30.021,13.524ZM18.911,1.651V11.916H29.179A11.114,11.114,0,0,0,18.911,1.651Z" transform="translate(107.144 -50.489)" fill="#654cf7"/>
  </g>
</svg>
