<svg xmlns="http://www.w3.org/2000/svg" width="27.854" height="27.854" viewBox="0 0 27.854 27.854">
  <g id="push-pin" transform="translate(0)">
    <g id="Group_8679" data-name="Group 8679" transform="translate(0)">
      <path id="Path_2019" data-name="Path 2019" d="M17.967,0,17.39.577a4.087,4.087,0,0,0-.6,5L10.952,9.526l-.1-.1a5.719,5.719,0,0,0-8.078,0L2.2,10l7.251,7.251L0,26.7l1.154,1.154L10.6,18.407l7.251,7.251.577-.577a5.719,5.719,0,0,0,0-8.078l-.1-.1,3.944-5.838a4.087,4.087,0,0,0,5-.6l.577-.577Zm-.173,23.292L4.562,10.06a4.087,4.087,0,0,1,5.135.519l7.578,7.578A4.087,4.087,0,0,1,17.794,23.292Zm-.641-7.566L12.127,10.7l5.739-3.878L21.03,9.987ZM22.66,9.309,18.544,5.193a2.452,2.452,0,0,1-.478-2.786l7.38,7.38a2.452,2.452,0,0,1-2.786-.478Z" transform="translate(0)" fill="#666569"/>
    </g>
  </g>
</svg>
