<svg xmlns="http://www.w3.org/2000/svg" width="31.427" height="31.427" viewBox="0 0 31.427 31.427">
  <g id="push-pin" transform="translate(0)">
    <g id="Group_8679" data-name="Group 8679" transform="translate(0)">
      <path id="Path_2019" data-name="Path 2019" d="M20.272,0l-.651.651A4.611,4.611,0,0,0,18.943,6.3l-6.586,4.45-.114-.114a6.452,6.452,0,0,0-9.115,0l-.651.651,8.181,8.181L0,30.125l1.3,1.3L11.961,20.768l8.181,8.181.651-.651a6.452,6.452,0,0,0,0-9.115l-.114-.114,4.45-6.586a4.611,4.611,0,0,0,5.646-.678l.651-.651Zm-.2,26.28L5.147,11.35a4.612,4.612,0,0,1,5.794.586l8.55,8.55A4.612,4.612,0,0,1,20.077,26.28Zm-.724-8.536-5.67-5.67L20.158,7.7l3.57,3.57Zm6.214-7.24L20.923,5.859a2.767,2.767,0,0,1-.539-3.144l8.327,8.327a2.767,2.767,0,0,1-3.144-.539Z" transform="translate(0)" fill="#5d43f7"/>
    </g>
  </g>
</svg>
