<svg width="26" height="26" viewBox="0 0 26 26" fill="none" xmlns="http://www.w3.org/2000/svg">
<path d="M6.67368 12.3334C6.673 11.4029 6.88715 10.4849 7.29945 9.65071C7.71174 8.81658 8.31105 8.08889 9.05068 7.52434L8.99177 7.16336H8.9937L8.81644 6.07615H8.81438V6.07422L7.72717 6.25161V6.25354L5.42132 6.63062L5.59872 7.71783L6.76602 7.52613C5.53862 9.05343 4.94604 10.9945 5.11112 12.9469C5.27621 14.8993 6.1863 16.7133 7.65272 18.0129L8.45546 16.6229C7.8899 16.061 7.44126 15.3926 7.13543 14.6564C6.82961 13.9202 6.67267 13.1306 6.67368 12.3334Z" fill="#3585E5"/>
<path d="M20.0364 11.6965V11.6946L20.0383 11.6953L20.3718 10.6459H20.3699L21.0778 8.41811L20.0286 8.08465L19.686 9.16429C18.909 7.441 17.5204 6.06709 15.789 5.30831C14.0576 4.54953 12.1063 4.45978 10.3125 5.05643L11.1404 6.49044C11.9511 6.27014 12.7987 6.22093 13.6293 6.34595C14.46 6.47098 15.2556 6.76749 15.9654 7.21665C16.6753 7.6658 17.2839 8.25776 17.7526 8.95488C18.2213 9.652 18.5398 10.439 18.6879 11.2659L18.9882 11.3613V11.3632L20.0364 11.6965Z" fill="#3585E5"/>
<path d="M12.7286 18.3889C11.8798 18.3895 11.0403 18.2109 10.2652 17.8649L10.2101 17.9044L10.209 17.9027L9.31877 18.5506L9.32001 18.5521L9.31836 18.5534L9.96628 19.4435L9.96793 19.4424L11.3435 21.3324L12.2336 20.6844L11.6354 19.8624C13.5623 20.1389 15.5221 19.6696 17.1148 18.5504C18.7075 17.4312 19.8132 15.7464 20.2061 13.8398H18.5946C18.2599 15.1413 17.502 16.2946 16.44 17.1181C15.3781 17.9417 14.0725 18.3887 12.7286 18.3889Z" fill="#3585E5"/>
<path d="M14.8693 15.0967L13.0092 13.2373V8.6501C13.0092 8.5041 12.9512 8.36408 12.8479 8.26084C12.7447 8.15761 12.6047 8.09961 12.4587 8.09961C12.3127 8.09961 12.1727 8.15761 12.0694 8.26084C11.9662 8.36408 11.9082 8.5041 11.9082 8.6501V13.3292C11.9091 13.3511 11.9113 13.3729 11.9148 13.3945C11.9036 13.4776 11.9117 13.5622 11.9384 13.6417C11.9651 13.7212 12.0096 13.7936 12.0687 13.8531L14.091 15.8752C14.1421 15.9263 14.2028 15.9669 14.2696 15.9946C14.3364 16.0222 14.408 16.0365 14.4803 16.0365C14.5526 16.0365 14.6242 16.0222 14.6909 15.9946C14.7577 15.9669 14.8184 15.9263 14.8695 15.8752C14.9207 15.8241 14.9612 15.7634 14.9889 15.6966C15.0165 15.6298 15.0308 15.5583 15.0308 15.486C15.0308 15.4137 15.0165 15.3421 14.9889 15.2753C14.9612 15.2085 14.9207 15.1478 14.8695 15.0967H14.8693Z" fill="#3585E5"/>
</svg>
