<svg width="26" height="26" viewBox="0 0 26 26" fill="none" xmlns="http://www.w3.org/2000/svg">
<path d="M9.80205 4.66602H5.2222C4.91503 4.66602 4.66602 4.91503 4.66602 5.2222V9.80205C4.66602 10.1092 4.91503 10.3582 5.2222 10.3582H9.80205C10.1092 10.3582 10.3582 10.1092 10.3582 9.80205V5.2222C10.3582 4.91503 10.1092 4.66602 9.80205 4.66602Z" fill="#3585E5"/>
<path d="M9.80205 11.5859H5.2222C4.91503 11.5859 4.66602 11.835 4.66602 12.1421V16.722C4.66602 17.0291 4.91503 17.2782 5.2222 17.2782H9.80205C10.1092 17.2782 10.3582 17.0291 10.3582 16.722V12.1421C10.3582 11.835 10.1092 11.5859 9.80205 11.5859Z" fill="#3585E5"/>
<path d="M16.8333 4.66602H12.2535C11.9463 4.66602 11.6973 4.91503 11.6973 5.2222V9.80205C11.6973 10.1092 11.9463 10.3582 12.2535 10.3582H16.8333C17.1405 10.3582 17.3895 10.1092 17.3895 9.80205V5.2222C17.3895 4.91503 17.1405 4.66602 16.8333 4.66602Z" fill="#3585E5"/>
<path d="M16.0581 11.5859H12.2533C12.1058 11.5859 11.9644 11.6445 11.8601 11.7488C11.7558 11.8531 11.6973 11.9945 11.6973 12.142V15.6137C11.868 14.5509 12.3906 13.5762 13.1814 12.8459C13.9721 12.1155 14.9851 11.6719 16.0581 11.5859Z" fill="#3585E5"/>
<path d="M16.7418 12.1113C15.8299 12.1113 14.9384 12.3818 14.1801 12.8884C13.4218 13.3951 12.8308 14.1152 12.4818 14.9578C12.1328 15.8003 12.0415 16.7275 12.2195 17.6219C12.3974 18.5164 12.8366 19.338 13.4814 19.9828C14.1263 20.6277 14.9479 21.0668 15.8424 21.2447C16.7368 21.4226 17.6639 21.3313 18.5065 20.9823C19.349 20.6332 20.0692 20.0422 20.5758 19.2839C21.0824 18.5256 21.3528 17.6341 21.3528 16.7222C21.3528 16.1167 21.2336 15.5171 21.0018 14.9576C20.7701 14.3982 20.4305 13.8899 20.0023 13.4618C19.5741 13.0336 19.0658 12.694 18.5064 12.4623C17.9469 12.2306 17.3474 12.1113 16.7418 12.1113ZM16.9247 18.8722L16.0002 19.7967C15.9636 19.8333 15.9139 19.8539 15.8621 19.8539C15.8104 19.8539 15.7607 19.8333 15.7241 19.7967L14.7996 18.8722L13.3621 17.4347C13.3255 17.3981 13.3049 17.3484 13.3049 17.2966C13.3049 17.2449 13.3255 17.1952 13.3621 17.1586L14.1484 16.3721C14.185 16.3355 14.2347 16.315 14.2865 16.315C14.3383 16.315 14.388 16.3355 14.4246 16.3721L15.8069 17.7544C15.8216 17.769 15.8414 17.7772 15.8621 17.7772C15.8829 17.7772 15.9027 17.769 15.9174 17.7544L19.0592 14.6127C19.0773 14.5946 19.0988 14.5802 19.1225 14.5704C19.1462 14.5605 19.1716 14.5555 19.1972 14.5555C19.2229 14.5555 19.2483 14.5605 19.272 14.5704C19.2957 14.5802 19.3172 14.5946 19.3353 14.6127L20.1217 15.399C20.1583 15.4357 20.1789 15.4854 20.1789 15.5372C20.1789 15.589 20.1583 15.6387 20.1217 15.6753L16.9247 18.8722Z" fill="#3585E5"/>
</svg>
