<svg width="26" height="26" viewBox="0 0 26 26" fill="none" xmlns="http://www.w3.org/2000/svg">
<path d="M12.9994 4.66602C11.3512 4.66602 9.74001 5.15476 8.3696 6.07044C6.99919 6.98611 5.93109 8.2876 5.30036 9.81032C4.66963 11.333 4.5046 13.0086 4.82614 14.6251C5.14769 16.2416 5.94136 17.7265 7.1068 18.8919C8.27223 20.0573 9.75709 20.851 11.3736 21.1726C12.9901 21.4941 14.6657 21.3291 16.1884 20.6983C17.7111 20.0676 19.0126 18.9995 19.9283 17.6291C20.8439 16.2587 21.3327 14.6475 21.3327 12.9993C21.3327 10.7892 20.4547 8.6696 18.8919 7.10679C17.3291 5.54399 15.2095 4.66602 12.9994 4.66602ZM12.9994 19.9145C11.6317 19.9145 10.2947 19.5089 9.1575 18.7491C8.02031 17.9892 7.13398 16.9092 6.61059 15.6457C6.08719 14.3821 5.95025 12.9917 6.21707 11.6503C6.4839 10.3089 7.1425 9.0767 8.1096 8.1096C9.0767 7.1425 10.3089 6.48389 11.6503 6.21707C12.9917 5.95025 14.3821 6.08719 15.6457 6.61058C16.9092 7.13397 17.9892 8.02031 18.7491 9.1575C19.5089 10.2947 19.9145 11.6317 19.9145 12.9993C19.9145 14.8334 19.1859 16.5923 17.8891 17.8891C16.5923 19.1859 14.8334 19.9145 12.9994 19.9145Z" fill="#3585E5"/>
<path d="M11.7714 16.8622H9.13936C8.9669 16.7966 8.82083 16.6761 8.72366 16.5192C8.62649 16.3624 8.58363 16.1779 8.60169 15.9943C8.63866 15.3192 9.09355 15.4654 9.50343 15.0113C9.91331 14.5573 10.2782 14.1377 10.2846 12.5199C10.2894 11.4309 10.5555 9.39598 12.2938 8.93787C12.3322 8.79786 12.4145 8.67388 12.5287 8.5842C12.6429 8.49451 12.7828 8.44387 12.9279 8.43973C13.073 8.43559 13.2156 8.47817 13.3347 8.5612C13.4538 8.64423 13.5431 8.76331 13.5894 8.9009C15.4732 9.2714 15.7537 11.398 15.7593 12.5175C15.7658 14.1393 16.1307 14.5581 16.5405 15.0089C16.9504 15.4598 17.4045 15.3216 17.4423 15.9943C17.4596 16.1772 17.4165 16.3607 17.3197 16.5168C17.2229 16.673 17.0777 16.7932 16.9062 16.859L14.2966 16.8518C14.1875 17.0948 14.0105 17.3011 13.7871 17.4461C13.5637 17.5912 13.3031 17.6687 13.0368 17.6695C12.7704 17.6702 12.5094 17.5942 12.2852 17.4504C12.0609 17.3067 11.8828 17.1014 11.7722 16.859L11.7714 16.8622Z" fill="#3585E5"/>
</svg>
