<svg width="26" height="26" viewBox="0 0 26 26" fill="none" xmlns="http://www.w3.org/2000/svg">
<path d="M21.3659 14.3289C21.169 14.3108 20.9699 14.3008 20.7682 14.3008C19.0711 14.3008 17.4434 14.975 16.2434 16.175C15.0433 17.3751 14.3691 19.0027 14.3691 20.6998C14.3691 20.9135 14.3801 21.1244 14.4005 21.3327H21.3659V14.3289Z" fill="#3585E5"/>
<path d="M4.66602 4.66602V18.8002H11.8348C11.8144 18.5919 11.8034 18.3809 11.8034 18.1673C11.8034 16.4702 12.4776 14.8426 13.6777 13.6425C14.8777 12.4424 16.5053 11.7683 18.2025 11.7683C18.4042 11.7683 18.6033 11.7788 18.8002 11.7964V4.66602H4.66602ZM12.3294 12.3141L6.98247 11.1732C6.93212 11.1625 6.88809 11.1322 6.86003 11.089C6.83198 11.0458 6.8222 10.9932 6.83283 10.9429L7.03099 10.0059C7.03623 9.98091 7.04635 9.95719 7.06076 9.93609C7.07518 9.915 7.09361 9.89695 7.11501 9.88299C7.1364 9.86902 7.16034 9.85942 7.18545 9.85471C7.21057 9.85001 7.23636 9.8503 7.26136 9.85558L9.01934 10.2273L5.90771 7.1165L7.3622 5.66202L10.4734 8.77266L10.1017 7.01468C10.0964 6.98972 10.0961 6.96396 10.1008 6.93888C10.1055 6.9138 10.115 6.88989 10.129 6.86851C10.1429 6.84713 10.1609 6.8287 10.1819 6.81428C10.203 6.79986 10.2267 6.78972 10.2516 6.78445L11.1891 6.58728C11.2395 6.57661 11.292 6.58636 11.3352 6.61439C11.3783 6.64242 11.4086 6.68644 11.4193 6.73678L12.5606 12.0839C12.5674 12.1156 12.5662 12.1486 12.5569 12.1797C12.5477 12.2109 12.5308 12.2392 12.5078 12.2622C12.4848 12.2851 12.4565 12.3019 12.4253 12.311C12.3941 12.3202 12.3612 12.3214 12.3294 12.3145V12.3141Z" fill="#3585E5"/>
</svg>
