<svg width="26" height="26" viewBox="0 0 26 26" fill="none" xmlns="http://www.w3.org/2000/svg">
<path d="M17.9989 11.5744C18.771 11.5737 19.5343 11.7388 20.2371 12.0585C20.9399 12.3782 21.5659 12.8451 22.0728 13.4275C22.0728 13.4129 22.074 13.3983 22.074 13.3837C22.074 12.9109 21.9809 12.4428 21.8 12.006C21.6191 11.5692 21.3539 11.1723 21.0196 10.838C20.6853 10.5037 20.2885 10.2385 19.8517 10.0576C19.4149 9.87666 18.9468 9.78354 18.474 9.78354C18.4528 9.78354 18.4318 9.78471 18.4107 9.78515C18.2752 8.38379 17.6226 7.08312 16.5802 6.13672C15.5379 5.19032 14.1804 4.66602 12.7725 4.66602C11.3646 4.66602 10.0072 5.19032 8.96481 6.13672C7.92245 7.08312 7.26988 8.38379 7.13433 9.78515C6.20425 9.80843 5.3193 10.1909 4.6651 10.8525C4.0109 11.514 3.63826 12.4032 3.62535 13.3334C3.61243 14.2637 3.96024 15.1629 4.59583 15.8423C5.23142 16.5218 6.1054 16.9287 7.03449 16.9778V16.9835H12.5898C12.5898 15.5489 13.1597 14.1731 14.1741 13.1587C15.1885 12.1443 16.5643 11.5744 17.9989 11.5744Z" fill="#3491FF"/>
<path d="M18.0345 12.8535C17.196 12.8535 16.3763 13.1022 15.6791 13.568C14.9819 14.0339 14.4385 14.696 14.1176 15.4707C13.7968 16.2453 13.7128 17.0978 13.8764 17.9202C14.04 18.7426 14.4437 19.498 15.0367 20.0909C15.6296 20.6838 16.385 21.0876 17.2074 21.2512C18.0298 21.4148 18.8822 21.3308 19.6569 21.0099C20.4316 20.689 21.0937 20.1457 21.5596 19.4485C22.0254 18.7513 22.2741 17.9316 22.2741 17.0931C22.2741 15.9687 21.8274 14.8903 21.0323 14.0953C20.2372 13.3002 19.1589 12.8535 18.0345 12.8535ZM20.6896 18.7377C20.7091 18.7572 20.7245 18.7802 20.735 18.8056C20.7455 18.831 20.7509 18.8581 20.7509 18.8856C20.7509 18.9131 20.7455 18.9403 20.735 18.9656C20.7245 18.991 20.7091 19.0141 20.6896 19.0335L19.9509 19.7722C19.9315 19.7916 19.9085 19.807 19.8831 19.8175C19.8577 19.8281 19.8305 19.8335 19.803 19.8335C19.7756 19.8335 19.7484 19.8281 19.723 19.8175C19.6976 19.807 19.6746 19.7916 19.6552 19.7722L18.0345 18.153L16.4137 19.7729C16.3943 19.7923 16.3712 19.8078 16.3459 19.8183C16.3205 19.8288 16.2933 19.8342 16.2659 19.8342C16.2384 19.8342 16.2112 19.8288 16.1859 19.8183C16.1605 19.8078 16.1375 19.7923 16.1181 19.7729L15.3792 19.0342C15.34 18.995 15.318 18.9418 15.318 18.8863C15.318 18.8309 15.34 18.7777 15.3792 18.7385L17 17.1178L15.3792 15.497C15.34 15.4577 15.318 15.4045 15.318 15.3491C15.318 15.2936 15.34 15.2405 15.3792 15.2012L16.1181 14.4625C16.1375 14.4431 16.1605 14.4277 16.1859 14.4172C16.2112 14.4066 16.2384 14.4012 16.2659 14.4012C16.2933 14.4012 16.3205 14.4066 16.3459 14.4172C16.3712 14.4277 16.3943 14.4431 16.4137 14.4625L18.0345 16.0833L19.6552 14.4625C19.6746 14.4431 19.6976 14.4277 19.723 14.4172C19.7484 14.4066 19.7756 14.4012 19.803 14.4012C19.8305 14.4012 19.8577 14.4066 19.8831 14.4172C19.9085 14.4277 19.9315 14.4431 19.9509 14.4625L20.6896 15.2012C20.7091 15.2206 20.7245 15.2437 20.735 15.2691C20.7455 15.2944 20.7509 15.3216 20.7509 15.3491C20.7509 15.3766 20.7455 15.4037 20.735 15.4291C20.7245 15.4545 20.7091 15.4775 20.6896 15.497L19.0694 17.1178L20.6896 18.7377Z" fill="#3491FF"/>
</svg>
