<svg width="26" height="26" viewBox="0 0 26 26" fill="none" xmlns="http://www.w3.org/2000/svg">
<path d="M4.69429 16.2144L7.50956 20.3783C7.52678 20.4029 7.5489 20.4226 7.57595 20.4361C7.603 20.4496 7.63127 20.457 7.66201 20.4558C7.69151 20.4558 7.72102 20.4472 7.74683 20.4324C7.77265 20.4177 7.79478 20.3968 7.81076 20.3722L10.4822 16.1148C10.4945 16.0952 10.5031 16.073 10.5068 16.0497C10.5105 16.0263 10.5092 16.003 10.5043 15.9796C10.4994 15.9562 10.4896 15.9353 10.4761 15.9157C10.4625 15.896 10.4453 15.88 10.4256 15.8677L9.67696 15.4018C9.63639 15.3772 9.58844 15.3686 9.54173 15.3797C9.49501 15.3907 9.45567 15.419 9.42985 15.4584L8.54716 16.8549L8.36152 6.03395C8.36152 6.01059 8.35538 5.98723 8.34677 5.96633C8.33694 5.94543 8.32341 5.92576 8.30743 5.90978C8.29022 5.8938 8.27055 5.88027 8.24842 5.87167C8.22629 5.86306 8.20293 5.85938 8.17958 5.85938L6.64162 5.88519C6.61827 5.88519 6.59491 5.89011 6.57401 5.89994C6.55188 5.90978 6.53344 5.92207 6.51623 5.93928C6.49902 5.9565 6.48672 5.97617 6.47812 5.99829C6.46951 6.02042 6.46459 6.04378 6.46582 6.06714L6.65023 16.8906L5.72451 15.5235C5.69746 15.4842 5.65689 15.4571 5.61018 15.4485C5.56346 15.4399 5.51552 15.4485 5.47618 15.4756L4.7447 15.9673C4.72503 15.9808 4.70904 15.9968 4.69552 16.0165C4.682 16.0362 4.67339 16.0583 4.6697 16.0804C4.66479 16.1038 4.66479 16.1271 4.6697 16.1505C4.67462 16.1738 4.68323 16.1947 4.69675 16.2144H4.69429Z" fill="#3585E5"/>
<path d="M16.0579 15.9138L14.2716 14.1374V9.75832C14.2618 9.62554 14.2015 9.50138 14.1032 9.41163C14.0061 9.32189 13.877 9.27148 13.7442 9.27148C13.6114 9.27148 13.4836 9.32189 13.3852 9.41163C13.2881 9.50138 13.2279 9.62554 13.2168 9.75832V14.2246C13.2168 14.2455 13.2193 14.2677 13.2229 14.2886C13.2119 14.3685 13.2205 14.4484 13.2463 14.5246C13.2721 14.6008 13.3151 14.6697 13.3717 14.7262L15.3117 16.6564C15.4112 16.7547 15.5452 16.81 15.6854 16.81C15.8255 16.81 15.9595 16.7547 16.0591 16.6564C16.1575 16.558 16.2128 16.424 16.2128 16.2851C16.2128 16.1462 16.1575 16.0122 16.0591 15.9138H16.0579Z" fill="#3585E5"/>
<path d="M14.0059 5.70898C18.0518 5.70898 21.3318 8.97421 21.3318 13.0016C21.3318 17.0291 18.0518 20.2943 14.0059 20.2943C12.3401 20.2943 10.8034 19.7399 9.57276 18.8068L10.4468 17.4643C11.4242 18.2376 12.6597 18.701 14.0059 18.701C17.1679 18.701 19.7311 16.1489 19.7311 13.0016C19.7311 9.85444 17.1679 7.30226 14.0059 7.30226C11.8901 7.30226 10.0436 8.44558 9.05273 10.1446V7.62927C10.3571 6.43678 12.0967 5.70898 14.0059 5.70898Z" fill="#3585E5"/>
</svg>
