<svg width="26" height="26" viewBox="0 0 26 26" fill="none" xmlns="http://www.w3.org/2000/svg">
<path d="M16.3079 12.6658C16.3079 12.0429 16.1276 11.4333 15.7888 10.9106C15.4499 10.3879 14.967 9.97452 14.3984 9.72026C14.3508 9.69944 14.2988 9.69081 14.2471 9.69516C14.1954 9.69951 14.1456 9.7167 14.1022 9.74517C14.0588 9.77364 14.0232 9.81249 13.9986 9.8582C13.974 9.90391 13.9612 9.95503 13.9613 10.0069V12.3489C13.9614 12.3754 13.955 12.4016 13.9427 12.4251C13.9304 12.4486 13.9127 12.4688 13.8909 12.4839L13.2248 12.947C13.1981 12.9655 13.1663 12.9755 13.1338 12.9755C13.1012 12.9755 13.0695 12.9655 13.0427 12.947L12.3691 12.482C12.348 12.4674 12.3308 12.4479 12.3189 12.4252C12.307 12.4025 12.3008 12.3773 12.3008 12.3516V9.97036C12.3008 9.91841 12.2881 9.86724 12.2638 9.82134C12.2395 9.77544 12.2043 9.7362 12.1613 9.70706C12.1183 9.67792 12.0688 9.65977 12.0171 9.65418C11.9655 9.6486 11.9132 9.65576 11.865 9.67504C11.2983 9.90425 10.8084 10.2897 10.4522 10.7865C10.096 11.2833 9.88821 11.871 9.85301 12.4813C9.81782 13.0915 9.95665 13.6993 10.2534 14.2337C10.5501 14.7681 10.9925 15.2073 11.5291 15.5002L11.4932 15.4976V16.8555L11.5037 16.8578C11.4998 16.8698 11.4976 16.8823 11.4972 16.8949C11.4972 17.1444 12.2047 17.3466 13.0776 17.3466C13.9504 17.3466 14.658 17.1441 14.658 16.8949C14.6576 16.8823 14.6554 16.8698 14.6514 16.8578L14.662 16.8555V15.4975L14.6261 15.5C15.1351 15.2222 15.5599 14.8124 15.8559 14.3137C16.1518 13.815 16.308 13.2457 16.3079 12.6658Z" fill="#3585E5"/>
<path d="M21.2402 15.2924C21.2174 15.2475 21.1876 15.195 21.1487 15.134C20.9251 14.8435 20.6749 14.5744 20.4014 14.3303C20.5517 13.4571 20.5444 12.5641 20.3798 11.6935C20.6336 11.4642 20.8654 11.2116 21.0719 10.939C21.1108 10.8778 21.1404 10.8253 21.1633 10.7804C21.1929 10.7215 21.2071 10.656 21.2045 10.5901C21.2018 10.5242 21.1825 10.4601 21.1483 10.4037L20.2251 8.86882L20.1959 8.81969L19.2726 7.28483C19.2389 7.22816 19.1912 7.18101 19.1342 7.14781C19.0772 7.11461 19.0127 7.09646 18.9468 7.09506C18.8965 7.09411 18.8361 7.09573 18.7639 7.1014C18.4452 7.15158 18.1319 7.23175 17.8282 7.34084C17.149 6.77251 16.374 6.32969 15.5395 6.03312C15.4721 5.68261 15.3719 5.33919 15.2404 5.00736C15.208 4.94257 15.1783 4.89007 15.1516 4.84742C15.1164 4.79164 15.0676 4.74572 15.0098 4.71399C14.952 4.68226 14.887 4.66575 14.8211 4.66602H11.18C11.114 4.66573 11.0491 4.68222 10.9913 4.71396C10.9334 4.74569 10.8846 4.79162 10.8495 4.84742C10.8225 4.89007 10.793 4.9419 10.7606 5.00736C10.6262 5.34886 10.524 5.70217 10.4552 6.06268C9.66205 6.35566 8.92447 6.78134 8.27398 7.32154C7.98709 7.22049 7.69133 7.14665 7.3906 7.101C7.3184 7.09546 7.25806 7.09398 7.20772 7.09506C7.14179 7.09656 7.07732 7.1148 7.02037 7.14807C6.96342 7.18133 6.91587 7.22853 6.88218 7.28523L5.96155 8.82185L5.93186 8.87139L5.0111 10.4077C4.97707 10.4643 4.95798 10.5285 4.95562 10.5944C4.95326 10.6603 4.9677 10.7258 4.9976 10.7846C5.02041 10.8294 5.05011 10.8819 5.08911 10.943C5.2747 11.191 5.4833 11.4208 5.71213 11.6295C5.53195 12.5415 5.52435 13.4791 5.68972 14.3939C5.43946 14.6201 5.21115 14.8694 5.00786 15.1385C4.96899 15.1997 4.9393 15.2522 4.91662 15.2971C4.88692 15.356 4.8727 15.4215 4.8753 15.4874C4.8779 15.5533 4.89723 15.6175 4.93147 15.6738L5.85466 17.2087L5.88448 17.2582L6.80781 18.7931C6.84156 18.8498 6.88918 18.8969 6.94618 18.9301C7.00317 18.9633 7.06768 18.9815 7.13362 18.9829C7.18397 18.9838 7.2443 18.9829 7.31651 18.9765C7.6159 18.9307 7.9103 18.8568 8.19583 18.7557C8.87436 19.3358 9.65151 19.7894 10.4903 20.0949C10.5521 20.4016 10.6428 20.7017 10.7611 20.9913C10.7934 21.0561 10.8231 21.1086 10.8499 21.1513C10.885 21.2071 10.9338 21.253 10.9917 21.2847C11.0495 21.3165 11.1144 21.333 11.1804 21.3327H14.8205C14.8865 21.3329 14.9514 21.3164 15.0092 21.2847C15.067 21.253 15.1159 21.2071 15.1511 21.1513C15.1781 21.1086 15.2075 21.0568 15.2399 20.9913C15.355 20.7111 15.4434 20.4206 15.504 20.1238C16.3841 19.8157 17.1987 19.3453 17.9054 18.737C18.2108 18.8461 18.5258 18.9263 18.8462 18.9764C18.9185 18.9818 18.9788 18.9834 19.0291 18.9823C19.0951 18.9808 19.1595 18.9625 19.2165 18.9292C19.2734 18.896 19.321 18.8487 19.3547 18.792L20.2753 17.2557L20.305 17.2061L21.2257 15.6696C21.26 15.6132 21.2793 15.5489 21.2819 15.4829C21.2844 15.4169 21.27 15.3513 21.2402 15.2924ZM16.0918 17.6519C15.2697 18.2007 14.3147 18.5173 13.3276 18.5684C12.3405 18.6196 11.3579 18.4033 10.4836 17.9424C10.3314 17.8622 10.1819 17.7779 10.0382 17.6843C9.30611 17.2084 8.69795 16.5649 8.26403 15.8072C7.8301 15.0494 7.58289 14.1992 7.54285 13.327C7.53894 13.2425 7.53637 13.1577 7.53637 13.0723C7.53637 12.9631 7.54042 12.855 7.54663 12.7476C7.59822 11.8698 7.85955 11.0171 8.30868 10.2611C8.75781 9.50515 9.38166 8.86789 10.1279 8.40277C10.2667 8.31612 10.4113 8.23784 10.5574 8.16347C11.3717 7.75128 12.2758 7.54817 13.1881 7.57246C14.1005 7.59676 14.9925 7.84768 15.7837 8.30262C16.575 8.75756 17.2406 9.40222 17.7205 10.1785C18.2005 10.9548 18.4798 11.8383 18.5332 12.7495C18.5395 12.8563 18.5434 12.9638 18.5434 13.0723C18.5434 13.1619 18.5408 13.251 18.5366 13.3395C18.4952 14.1996 18.2524 15.0379 17.8278 15.7869C17.4031 16.5359 16.8085 17.1748 16.0918 17.6519Z" fill="#3585E5"/>
</svg>
