<svg width="26" height="26" viewBox="0 0 26 26" fill="none" xmlns="http://www.w3.org/2000/svg">
<path d="M20.38 5.45285C20.3773 5.40903 20.358 5.36788 20.326 5.33781C20.294 5.30774 20.2518 5.291 20.2079 5.29102H16.88C16.8362 5.29106 16.7939 5.30782 16.762 5.33788C16.73 5.36794 16.7106 5.40905 16.7079 5.45285L16.3173 11.7028C16.3146 11.7466 16.2952 11.7877 16.2632 11.8178C16.2312 11.8479 16.189 11.8646 16.145 11.8646H15.4298C15.384 11.8646 15.3401 11.8464 15.3078 11.8141C15.2754 11.7817 15.2572 11.7378 15.2572 11.6921V9.0133C15.2572 8.98345 15.2495 8.95412 15.2348 8.92815C15.2201 8.90219 15.1989 8.88049 15.1733 8.86518C15.1476 8.84987 15.1185 8.84147 15.0886 8.84081C15.0588 8.84014 15.0293 8.84723 15.003 8.86139L12.3593 10.2819L10.5097 11.2758V9.0133C10.5097 8.98345 10.502 8.95412 10.4873 8.92815C10.4726 8.90219 10.4514 8.88049 10.4257 8.86518C10.4001 8.84987 10.371 8.84147 10.3411 8.84081C10.3113 8.84014 10.2818 8.84723 10.2555 8.86139L7.61176 10.2819L4.75745 11.8156C4.72987 11.8303 4.7068 11.8522 4.69069 11.8789C4.67459 11.9057 4.66606 11.9363 4.66602 11.9675V20.7C4.666 20.7227 4.67045 20.7451 4.67912 20.7661C4.68778 20.787 4.70049 20.806 4.71652 20.8221C4.73254 20.8381 4.75157 20.8508 4.77251 20.8595C4.79346 20.8681 4.8159 20.8726 4.83857 20.8726H4.88128L7.6964 18.0491L7.6951 18.047L8.83437 16.9082L8.86049 16.9344C8.65701 16.239 8.65512 15.5001 8.85504 14.8036C9.05497 14.1072 9.44848 13.4818 9.98983 13.0002C10.5312 12.5186 11.1981 12.2005 11.9131 12.0831C12.6281 11.9656 13.3617 12.0535 14.0287 12.3365C14.0853 12.3609 14.1351 12.3987 14.1737 12.4467C14.2123 12.4947 14.2386 12.5515 14.2502 12.612C14.2618 12.6725 14.2584 12.7349 14.2403 12.7938C14.2222 12.8527 14.1899 12.9063 14.1463 12.9498L12.1498 14.9472C12.1282 14.9687 12.1122 14.9951 12.1031 15.0241C12.094 15.0532 12.0921 15.084 12.0975 15.1139L12.2724 16.0687C12.2794 16.1067 12.2977 16.1416 12.325 16.1688C12.3523 16.1961 12.3873 16.2143 12.4252 16.2212L13.3722 16.391C13.4031 16.3965 13.4349 16.3945 13.4649 16.3851C13.4948 16.3757 13.5221 16.3592 13.5443 16.337L15.5088 14.3733C15.5522 14.3297 15.6058 14.2976 15.6647 14.28C15.7237 14.2623 15.7861 14.2597 15.8463 14.2722C15.9065 14.2847 15.9627 14.3121 16.0097 14.3518C16.0566 14.3915 16.093 14.4423 16.1154 14.4996C16.3694 15.1654 16.4326 15.8889 16.2977 16.5887C16.1629 17.2884 15.8354 17.9367 15.3521 18.4604C14.8688 18.9841 14.249 19.3626 13.5623 19.5531C12.8756 19.7436 12.1494 19.7387 11.4653 19.5389L11.4914 19.5651L10.231 20.8726H21.1602C21.1837 20.8726 21.207 20.8678 21.2286 20.8584C21.2502 20.8491 21.2697 20.8355 21.2858 20.8183C21.3019 20.8012 21.3144 20.781 21.3224 20.7588C21.3304 20.7367 21.3338 20.7132 21.3324 20.6897L20.38 5.45285Z" fill="#3491FF"/>
</svg>
