<svg width="26" height="26" viewBox="0 0 26 26" fill="none" xmlns="http://www.w3.org/2000/svg">
<path d="M18.6708 8.22492C18.1672 7.06433 17.3032 6.10834 16.2141 5.50683C15.2419 4.95529 14.1495 4.66602 13.039 4.66602C11.9286 4.66602 10.8362 4.95529 9.86397 5.50683C8.77495 6.10838 7.91091 7.06436 7.40727 8.22492C5.87116 11.7769 7.40727 14.1459 8.17532 15.4617C8.88291 16.6739 11.1122 19.6896 12.6597 21.1781C12.7626 21.2774 12.8984 21.3327 13.0395 21.3327C13.1805 21.3327 13.3163 21.2774 13.4192 21.1781C14.9667 19.6896 17.196 16.6739 17.9037 15.4617C18.6708 14.1459 20.2069 11.7775 18.6708 8.22492ZM13.0386 15.8561C12.1399 15.8561 11.2613 15.5822 10.514 15.0689C9.76672 14.5557 9.18427 13.8262 8.84033 12.9727C8.49639 12.1191 8.4064 11.18 8.58174 10.2739C8.75708 9.36779 9.18988 8.5355 9.8254 7.88225C10.4609 7.229 11.2706 6.78413 12.1521 6.6039C13.0336 6.42367 13.9473 6.51617 14.7776 6.8697C15.608 7.22324 16.3177 7.82193 16.817 8.59007C17.3163 9.35822 17.5829 10.2613 17.5829 11.1851C17.5829 11.7986 17.4654 12.406 17.237 12.9727C17.0086 13.5394 16.6739 14.0544 16.2519 14.4882C15.83 14.9219 15.329 15.266 14.7777 15.5008C14.2263 15.7356 13.6354 15.8564 13.0386 15.8564V15.8561Z" fill="#3585E5"/>
<path d="M15.322 8.62102V9.09652C14.9202 8.58294 14.3663 8.21824 13.7444 8.05782C13.1226 7.8974 12.4668 7.95004 11.8767 8.20774C11.2866 8.46544 10.7945 8.91412 10.4751 9.48557C10.1558 10.057 10.0267 10.72 10.1074 11.3738C10.109 11.3855 10.1131 11.3967 10.1195 11.4065C10.1258 11.4163 10.1342 11.4246 10.1441 11.4307C10.1539 11.4367 10.165 11.4404 10.1764 11.4415C10.1878 11.4426 10.1994 11.441 10.2101 11.4369L10.6125 11.2864C10.6283 11.2805 10.6417 11.2693 10.6506 11.2548C10.6595 11.2402 10.6634 11.2229 10.6618 11.2058C10.6556 11.1352 10.6518 11.0638 10.6518 10.9916C10.6518 10.4801 10.8081 9.98148 11.0986 9.56618C11.3891 9.15088 11.7991 8.83982 12.2708 8.6769C12.7425 8.51397 13.252 8.50741 13.7276 8.65813C14.2031 8.80885 14.6205 9.10924 14.9211 9.51693H14.4504C14.4301 9.51693 14.4106 9.52522 14.3963 9.53997C14.3819 9.55472 14.3738 9.57473 14.3738 9.5956V9.82259C14.3738 9.84346 14.3819 9.86347 14.3963 9.87822C14.4106 9.89297 14.4301 9.90126 14.4504 9.90126H15.6193C15.6396 9.90126 15.6591 9.89297 15.6735 9.87822C15.6878 9.86347 15.6959 9.84346 15.6959 9.82259V8.62102C15.6959 8.60016 15.6878 8.58015 15.6735 8.56539C15.6591 8.55064 15.6396 8.54235 15.6193 8.54235H15.3985C15.3782 8.54235 15.3587 8.55064 15.3444 8.56539C15.33 8.58015 15.322 8.60016 15.322 8.62102Z" fill="#3585E5"/>
<path d="M15.9641 10.7655C15.9631 10.7534 15.9593 10.7417 15.9532 10.7313C15.947 10.7209 15.9386 10.7122 15.9286 10.7056C15.9186 10.6991 15.9073 10.6951 15.8955 10.6938C15.8837 10.6925 15.8718 10.694 15.8607 10.6982L15.3986 10.8711C15.4004 10.9111 15.4045 10.9506 15.4045 10.991C15.405 11.4909 15.2562 11.9789 14.978 12.389C14.6999 12.7991 14.3059 13.1115 13.8494 13.2839C13.3929 13.4563 12.8958 13.4804 12.4256 13.3529C11.9553 13.2255 11.5345 12.9526 11.22 12.5712H11.7416C11.7619 12.5712 11.7814 12.5629 11.7957 12.5482C11.8101 12.5334 11.8181 12.5134 11.8181 12.4925V12.2655C11.8181 12.2447 11.8101 12.2247 11.7957 12.2099C11.7814 12.1952 11.7619 12.1869 11.7416 12.1869H10.5726C10.5523 12.1869 10.5329 12.1952 10.5185 12.2099C10.5042 12.2247 10.4961 12.2447 10.4961 12.2655V13.4673C10.4961 13.4881 10.5042 13.5081 10.5185 13.5229C10.5329 13.5376 10.5523 13.5459 10.5726 13.5459H10.7936C10.8139 13.5459 10.8334 13.5376 10.8477 13.5229C10.8621 13.5081 10.8701 13.4881 10.8701 13.4673V13.0471C11.2721 13.4937 11.7958 13.8053 12.3727 13.9413C12.9496 14.0772 13.5531 14.0311 14.1041 13.8091C14.6552 13.587 15.1283 13.1993 15.4617 12.6966C15.795 12.1938 15.9732 11.5994 15.9728 10.991C15.9728 10.9151 15.9699 10.8399 15.9641 10.7655Z" fill="#3585E5"/>
</svg>
