<svg width="26" height="26" viewBox="0 0 26 26" fill="none" xmlns="http://www.w3.org/2000/svg">
<path d="M13.4298 7.31445H12.4174C12.3012 7.31445 12.207 7.40863 12.207 7.52481V12.658C12.207 12.7742 12.3012 12.8684 12.4174 12.8684H13.4298C13.546 12.8684 13.6402 12.7742 13.6402 12.658V7.52481C13.6402 7.40863 13.546 7.31445 13.4298 7.31445Z" fill="#3491FF"/>
<path d="M14.261 8.25911C14.232 8.25107 14.2016 8.2497 14.1719 8.2551V13.065C14.1719 13.1606 14.134 13.2522 14.0664 13.3198C13.9988 13.3874 13.9071 13.4254 13.8115 13.4254H11.87C11.8178 13.4254 11.7678 13.4047 11.7308 13.3677C11.6939 13.3308 11.6732 13.2808 11.6732 13.2286V8.26163L11.6481 8.24219C10.4809 8.55086 9.46553 9.27281 8.79065 10.2739C8.11577 11.2749 7.82731 12.4869 7.97889 13.6847C8.13048 14.8824 8.71179 15.9844 9.61479 16.7857C10.5178 17.5871 11.681 18.0333 12.8883 18.0415C14.0956 18.0497 15.2647 17.6192 16.1785 16.8301C17.0922 16.0411 17.6884 14.9471 17.8561 13.7515C18.0239 12.5559 17.7519 11.3401 17.0906 10.33C16.4293 9.31989 15.4238 8.58428 14.2609 8.25985L14.261 8.25911Z" fill="#3491FF"/>
<path d="M12.9974 5.79695C14.3752 5.79702 15.7241 6.19245 16.8839 6.9363C18.0437 7.68014 18.9658 8.74116 19.5406 9.9934H20.3303C20.3878 9.99336 20.4429 9.97051 20.4835 9.92987C20.5241 9.88923 20.5469 9.83412 20.5469 9.77666V6.46499C20.5469 6.40753 20.5241 6.35242 20.4835 6.31178C20.4429 6.27114 20.3878 6.24829 20.3303 6.24825H19.7053C19.6479 6.24829 19.5928 6.27114 19.5522 6.31178C19.5116 6.35242 19.4887 6.40753 19.4887 6.46499V7.77478C18.3513 6.36108 16.7835 5.35734 15.0235 4.91611C13.2635 4.47488 11.4075 4.62027 9.73773 5.33019C8.06791 6.04012 6.6755 7.27576 5.7721 8.84934C4.8687 10.4229 4.5037 12.2484 4.73257 14.0484C4.73709 14.0806 4.74875 14.1113 4.7667 14.1384C4.78466 14.1655 4.80844 14.1882 4.83632 14.2049C4.86419 14.2215 4.89545 14.2318 4.92779 14.2348C4.96014 14.2378 4.99275 14.2336 5.02324 14.2224L5.85784 13.9185C5.72508 12.9034 5.81066 11.8716 6.10884 10.8922C6.40703 9.91285 6.91094 9.00846 7.58687 8.23956C8.2628 7.47066 9.09515 6.85499 10.0282 6.43374C10.9613 6.01249 11.9736 5.79539 12.9974 5.79695Z" fill="#3491FF"/>
<path d="M21.3051 12.3743C21.3021 12.341 21.2914 12.3088 21.274 12.2802C21.2566 12.2516 21.2328 12.2275 21.2045 12.2096C21.1762 12.1917 21.1441 12.1805 21.1108 12.177C21.0775 12.1735 21.0439 12.1777 21.0125 12.1892L20.1782 12.4931C20.1896 12.6594 20.1976 12.8265 20.1976 12.9958C20.1974 14.6103 19.6544 16.1779 18.6561 17.4468C17.6577 18.7157 16.2618 19.6121 14.6926 19.9922C13.1234 20.3723 11.472 20.2139 10.0037 19.5425C8.53535 18.8711 7.33529 17.7257 6.59626 16.2902H6.04862C5.99118 16.2902 5.93609 16.313 5.89547 16.3537C5.85485 16.3943 5.83203 16.4494 5.83203 16.5068V19.8173C5.83203 19.8748 5.85485 19.9299 5.89546 19.9705C5.93608 20.0112 5.99117 20.034 6.04862 20.034H6.67361C6.73107 20.034 6.78616 20.0112 6.82677 19.9705C6.86739 19.9299 6.8902 19.8748 6.8902 19.8173V18.6594C8.02766 19.8893 9.50967 20.7474 11.1426 21.1217C12.7754 21.496 14.4833 21.369 16.0428 20.7573C17.6024 20.1456 18.9412 19.0777 19.8842 17.6931C20.8272 16.3085 21.3307 14.6716 21.3287 12.9964C21.3287 12.7868 21.3208 12.5794 21.3051 12.3743Z" fill="#3491FF"/>
</svg>
