<svg width="26" height="26" viewBox="0 0 26 26" fill="none" xmlns="http://www.w3.org/2000/svg">
<path d="M22.4052 9.51506L19.3215 4.75785C19.3032 4.72966 19.2782 4.70649 19.2486 4.69046C19.2191 4.67442 19.186 4.66602 19.1524 4.66602C19.1188 4.66602 19.0857 4.67442 19.0562 4.69046C19.0267 4.70649 19.0016 4.72966 18.9833 4.75785L15.8996 9.51506C15.8705 9.55988 15.8605 9.61439 15.8716 9.66662C15.8828 9.71885 15.9142 9.76452 15.959 9.7936L16.7912 10.3352C16.836 10.3643 16.8906 10.3744 16.9429 10.3633C16.9952 10.3521 17.0409 10.3207 17.07 10.2759L18.0857 8.71521V20.9454C18.0858 20.9988 18.107 21.0501 18.1448 21.0878C18.1826 21.1256 18.2338 21.1469 18.2872 21.1469H20.017C20.0704 21.1469 20.1217 21.1257 20.1595 21.0879C20.1972 21.0501 20.2185 20.9989 20.2185 20.9454V8.71521L21.2347 10.2764C21.2638 10.3213 21.3095 10.3527 21.3618 10.3639C21.4141 10.375 21.4686 10.3649 21.5135 10.3358L22.3459 9.79419C22.3681 9.77978 22.3873 9.76112 22.4023 9.73928C22.4173 9.71745 22.4279 9.69287 22.4334 9.66694C22.4389 9.64101 22.4393 9.61425 22.4345 9.58819C22.4296 9.56213 22.4197 9.53728 22.4052 9.51506Z" fill="#3491FF"/>
<path d="M14.2532 16.0744L12.2464 14.0676V9.1193C12.2464 8.96178 12.1838 8.81072 12.0725 8.69934C11.9611 8.58796 11.81 8.52539 11.6525 8.52539C11.495 8.52539 11.3439 8.58796 11.2325 8.69934C11.1212 8.81072 11.0586 8.96178 11.0586 9.1193V14.1675C11.0595 14.1911 11.0619 14.2146 11.0657 14.2379C11.0537 14.3276 11.0625 14.4189 11.0913 14.5047C11.1201 14.5905 11.1682 14.6686 11.2319 14.7329L13.4133 16.9143C13.4684 16.9695 13.5339 17.0132 13.606 17.0431C13.678 17.0729 13.7553 17.0883 13.8333 17.0883C13.9113 17.0883 13.9885 17.0729 14.0605 17.0431C14.1326 17.0132 14.1981 16.9695 14.2532 16.9143C14.3084 16.8592 14.3521 16.7937 14.382 16.7217C14.4118 16.6496 14.4272 16.5724 14.4272 16.4944C14.4272 16.4164 14.4118 16.3392 14.382 16.2671C14.3521 16.195 14.3084 16.1296 14.2532 16.0744Z" fill="#3491FF"/>
<path d="M11.8669 19.532C10.8388 19.5324 9.8255 19.2867 8.91177 18.8153C7.99805 18.3439 7.21047 17.6606 6.61487 16.8226C6.01928 15.9845 5.63299 15.016 5.48831 13.9981C5.34363 12.9802 5.44476 11.9424 5.78325 10.9716C6.12173 10.0008 6.68773 9.1251 7.43392 8.41779C8.18011 7.71048 9.0848 7.19211 10.0723 6.90601C11.0599 6.61992 12.1016 6.57441 13.1103 6.77331C14.119 6.97221 15.0655 7.40972 15.8705 8.04927L16.8535 6.53272C15.6059 5.58393 14.1135 5.01066 12.5515 4.88017C10.9895 4.74968 9.42266 5.06739 8.03487 5.79603C6.64707 6.52466 5.49587 7.63398 4.71634 8.99384C3.93681 10.3537 3.56129 11.9077 3.63383 13.4734C3.70638 15.0392 4.22398 16.5518 5.12592 17.8337C6.02785 19.1157 7.27669 20.1138 8.72592 20.711C10.1751 21.3082 11.7646 21.4797 13.3079 21.2053C14.8511 20.9309 16.2841 20.2221 17.4387 19.162V16.3202C16.8732 17.2971 16.0607 18.1082 15.0828 18.672C14.1048 19.2357 12.9958 19.5323 11.8669 19.532Z" fill="#3491FF"/>
</svg>
