<svg width="12" height="10" viewBox="0 0 12 10" fill="none" xmlns="http://www.w3.org/2000/svg">
<path d="M4.07563 9.32317L0.175825 5.40289C0.120082 5.34683 0.0758637 5.28028 0.0456955 5.20703C0.0155274 5.13379 0 5.05528 0 4.976C0 4.89672 0.0155274 4.81822 0.0456955 4.74497C0.0758637 4.67173 0.120082 4.60518 0.175825 4.54912L1.02394 3.69366C1.07968 3.6376 1.14586 3.59313 1.21869 3.56279C1.29152 3.53245 1.36958 3.51683 1.44841 3.51683C1.52724 3.51683 1.6053 3.53245 1.67814 3.56279C1.75097 3.59313 1.81714 3.6376 1.87289 3.69366L4.50011 6.33581L10.1305 0.676825C10.1862 0.620764 10.2524 0.576295 10.3252 0.545955C10.398 0.515616 10.4761 0.5 10.5549 0.5C10.6338 0.5 10.7118 0.515616 10.7847 0.545955C10.8575 0.576295 10.9237 0.620764 10.9794 0.676825L11.8242 1.52976C11.8799 1.58582 11.9241 1.65237 11.9543 1.72561C11.9845 1.79886 12 1.87736 12 1.95664C12 2.03592 11.9845 2.11443 11.9543 2.18767C11.9241 2.26092 11.8799 2.32747 11.8242 2.38353L4.92458 9.32317C4.86884 9.37924 4.80266 9.42371 4.72983 9.45404C4.657 9.48438 4.57894 9.5 4.50011 9.5C4.42127 9.5 4.34321 9.48438 4.27038 9.45404C4.19755 9.42371 4.13137 9.37924 4.07563 9.32317Z" fill="#47B576"/>
</svg>
