<svg width="107" height="107" viewBox="0 0 107 107" fill="none" xmlns="http://www.w3.org/2000/svg">
<path d="M104.245 33.6783C102.479 31.9163 100.087 30.9267 97.5929 30.9267C95.0987 30.9267 92.7064 31.9163 90.9411 33.6783L81.5072 43.121V18.2703C81.5142 17.0299 81.2742 15.8006 80.8011 14.654C80.3281 13.5073 79.6315 12.4663 78.752 11.5917L69.8888 2.75529C69.0173 1.87898 67.9807 1.18425 66.8389 0.711307C65.6971 0.238365 64.4728 -0.00339081 63.237 3.59244e-05H9.40708C6.91289 0.00239673 4.52154 0.994255 2.75788 2.75791C0.994219 4.52157 0.0023608 6.91293 0 9.40712V97.6018C0.00471981 100.094 0.997619 102.484 2.76102 104.245C4.52443 106.007 6.91443 106.998 9.40708 107H72.0645C74.5587 106.998 76.95 106.006 78.7137 104.242C80.4773 102.478 81.4692 100.087 81.4716 97.5929V69.7283L104.209 46.973C105.085 46.1026 105.78 45.0682 106.256 43.9289C106.732 42.7895 106.978 41.5677 106.981 40.333C106.985 39.0984 106.745 37.8752 106.275 36.7334C105.806 35.5915 105.116 34.5534 104.245 33.6783ZM62.702 6.2417C63.1985 6.18 63.7025 6.22785 64.1785 6.38191C64.6545 6.53596 65.091 6.79246 65.4572 7.13337L74.3204 15.9965C74.6613 16.3627 74.9178 16.7992 75.0719 17.2752C75.2259 17.7513 75.2738 18.2553 75.2121 18.7518H62.702V6.2417ZM75.2388 97.6018C75.2412 98.0185 75.1606 98.4315 75.0017 98.8167C74.8428 99.202 74.6088 99.5517 74.3133 99.8455C74.0178 100.139 73.6668 100.371 73.2807 100.528C72.8946 100.685 72.4812 100.763 72.0645 100.758H9.40708C8.57465 100.758 7.77632 100.428 7.18771 99.839C6.59909 99.2504 6.26841 98.4521 6.26841 97.6197V9.40712C6.26488 8.9927 6.34346 8.58168 6.49961 8.19779C6.65576 7.81389 6.88639 7.46472 7.1782 7.17043C7.47 6.87614 7.8172 6.64255 8.19975 6.48315C8.58231 6.32375 8.99264 6.24169 9.40708 6.2417H56.4336V21.9439C56.4336 22.7764 56.7642 23.5747 57.3529 24.1633C57.9415 24.7519 58.7398 25.0826 59.5722 25.0826H75.2388V49.3894L65.9922 58.6539L61.5339 63.1122C61.1902 63.4553 60.9307 63.8734 60.776 64.3338L56.3712 77.575C56.1876 78.1276 56.1615 78.7204 56.2956 79.287C56.4297 79.8537 56.7187 80.3718 57.1305 80.7836C57.5422 81.1953 58.0604 81.4844 58.627 81.6185C59.1937 81.7526 59.7864 81.7265 60.3391 81.5429L73.6427 77.0846C74.1032 76.9302 74.5214 76.6707 74.8643 76.3267L75.2477 75.9433V97.5483L75.2388 97.6018ZM68.2125 65.2968L72.6708 69.7551L70.9766 71.4493L64.3248 73.6695L66.5451 67.0177L68.2125 65.2968ZM77.0756 65.2968L72.6173 60.8384L87.6865 45.7514L92.1448 50.2098L77.0756 65.2968ZM99.8131 42.5414L96.5853 45.7782L92.127 41.3199L95.3637 38.0831C95.9549 37.4919 96.7568 37.1598 97.5929 37.1598C98.429 37.1598 99.2309 37.4919 99.8221 38.0831C100.413 38.6743 100.745 39.4762 100.745 40.3123C100.745 41.1484 100.413 41.9502 99.8221 42.5414H99.8131Z" fill="#F0F1F3"/>
<path d="M71.0745 30.9757H18.707C18.2004 30.9509 17.6941 31.0293 17.2187 31.2061C16.7433 31.3829 16.3088 31.6545 15.9416 32.0042C15.5743 32.354 15.2819 32.7747 15.0821 33.2409C14.8823 33.707 14.7793 34.209 14.7793 34.7161C14.7793 35.2233 14.8823 35.7252 15.0821 36.1914C15.2819 36.6576 15.5743 37.0784 15.9416 37.4282C16.3088 37.778 16.7433 38.0495 17.2187 38.2263C17.6941 38.4031 18.2004 38.4815 18.707 38.4568H71.0834C71.59 38.4815 72.0964 38.4031 72.5718 38.2263C73.0471 38.0495 73.4816 37.778 73.8489 37.4282C74.2161 37.0784 74.5085 36.6576 74.7083 36.1914C74.9081 35.7252 75.0111 35.2233 75.0111 34.7161C75.0111 34.209 74.9081 33.707 74.7083 33.2409C74.5085 32.7747 74.2161 32.354 73.8489 32.0042C73.4816 31.6545 73.0471 31.3829 72.5718 31.2061C72.0964 31.0293 71.59 30.9509 71.0834 30.9757H71.0745Z" fill="#F0F1F3"/>
<path d="M56.1124 43.3623H18.6624C17.7019 43.4092 16.7963 43.8238 16.1331 44.5202C15.47 45.2165 15.1001 46.1412 15.1001 47.1028C15.1001 48.0644 15.47 48.9892 16.1331 49.6856C16.7963 50.3819 17.7019 50.7965 18.6624 50.8434H56.1124C57.0729 50.7965 57.9785 50.3819 58.6417 49.6856C59.3048 48.9892 59.6747 48.0644 59.6747 47.1028C59.6747 46.1412 59.3048 45.2165 58.6417 44.5202C57.9785 43.8238 57.0729 43.4092 56.1124 43.3623Z" fill="#F0F1F3"/>
<path d="M56.1121 55.7554H18.662C18.1555 55.7307 17.6491 55.8091 17.1738 55.9859C16.6984 56.1627 16.2639 56.4343 15.8966 56.784C15.5294 57.1338 15.237 57.5546 15.0372 58.0208C14.8374 58.487 14.7344 58.9887 14.7344 59.4959C14.7344 60.0031 14.8374 60.5052 15.0372 60.9713C15.237 61.4375 15.5294 61.8581 15.8966 62.2078C16.2639 62.5576 16.6984 62.8291 17.1738 63.0059C17.6491 63.1828 18.1555 63.2612 18.662 63.2364H56.1121C56.6187 63.2612 57.125 63.1828 57.6003 63.0059C58.0757 62.8291 58.5102 62.5576 58.8775 62.2078C59.2447 61.8581 59.5371 61.4375 59.7369 60.9713C59.9367 60.5052 60.0397 60.0031 60.0397 59.4959C60.0397 58.9887 59.9367 58.487 59.7369 58.0208C59.5371 57.5546 59.2447 57.1338 58.8775 56.784C58.5102 56.4343 58.0757 56.1627 57.6003 55.9859C57.125 55.8091 56.6187 55.7307 56.1121 55.7554Z" fill="#F0F1F3"/>
<path d="M56.1121 68.1422H18.662C18.1555 68.1174 17.6491 68.1958 17.1738 68.3726C16.6984 68.5494 16.2639 68.821 15.8966 69.1707C15.5294 69.5205 15.237 69.9413 15.0372 70.4075C14.8374 70.8737 14.7344 71.3755 14.7344 71.8826C14.7344 72.3898 14.8374 72.8919 15.0372 73.3581C15.237 73.8242 15.5294 74.2448 15.8966 74.5945C16.2639 74.9443 16.6984 75.2158 17.1738 75.3927C17.6491 75.5695 18.1555 75.6479 18.662 75.6231H56.1121C56.6187 75.6479 57.125 75.5695 57.6003 75.3927C58.0757 75.2158 58.5102 74.9443 58.8775 74.5945C59.2447 74.2448 59.5371 73.8242 59.7369 73.3581C59.9367 72.8919 60.0397 72.3898 60.0397 71.8826C60.0397 71.3755 59.9367 70.8737 59.7369 70.4075C59.5371 69.9413 59.2447 69.5205 58.8775 69.1707C58.5102 68.821 58.0757 68.5494 57.6003 68.3726C57.125 68.1958 56.6187 68.1174 56.1121 68.1422Z" fill="#F0F1F3"/>
<path d="M61.5785 84.565H39.1352C38.6286 84.5403 38.1223 84.6187 37.6469 84.7955C37.1715 84.9723 36.7371 85.2438 36.3699 85.5936C36.0026 85.9434 35.7102 86.3642 35.5104 86.8304C35.3106 87.2965 35.2075 87.7983 35.2075 88.3055C35.2075 88.8127 35.3106 89.3147 35.5104 89.7809C35.7102 90.2471 36.0026 90.6676 36.3699 91.0174C36.7371 91.3672 37.1715 91.6387 37.6469 91.8155C38.1223 91.9923 38.6286 92.0707 39.1352 92.046H61.5785C62.085 92.0707 62.5913 91.9923 63.0667 91.8155C63.542 91.6387 63.9765 91.3672 64.3438 91.0174C64.7111 90.6676 65.0035 90.2471 65.2033 89.7809C65.4031 89.3147 65.5062 88.8127 65.5062 88.3055C65.5062 87.7983 65.4031 87.2965 65.2033 86.8304C65.0035 86.3642 64.7111 85.9434 64.3438 85.5936C63.9765 85.2438 63.542 84.9723 63.0667 84.7955C62.5913 84.6187 62.085 84.5403 61.5785 84.565Z" fill="#F0F1F3"/>
</svg>
