<svg width="12" height="9" viewBox="0 0 12 9" fill="none" xmlns="http://www.w3.org/2000/svg">
<path d="M4.07563 8.82317L0.175825 4.90289C0.120082 4.84683 0.0758637 4.78028 0.0456955 4.70703C0.0155274 4.63379 0 4.55528 0 4.476C0 4.39672 0.0155274 4.31822 0.0456955 4.24497C0.0758637 4.17173 0.120082 4.10518 0.175825 4.04912L1.02394 3.19366C1.07968 3.1376 1.14586 3.09313 1.21869 3.06279C1.29152 3.03245 1.36958 3.01683 1.44841 3.01683C1.52724 3.01683 1.6053 3.03245 1.67814 3.06279C1.75097 3.09313 1.81714 3.1376 1.87289 3.19366L4.50011 5.83581L10.1305 0.176825C10.1862 0.120764 10.2524 0.076295 10.3252 0.0459554C10.398 0.0156157 10.4761 0 10.5549 0C10.6338 0 10.7118 0.0156157 10.7847 0.0459554C10.8575 0.076295 10.9237 0.120764 10.9794 0.176825L11.8242 1.02976C11.8799 1.08582 11.9241 1.15237 11.9543 1.22561C11.9845 1.29886 12 1.37736 12 1.45664C12 1.53592 11.9845 1.61443 11.9543 1.68767C11.9241 1.76092 11.8799 1.82747 11.8242 1.88353L4.92458 8.82317C4.86884 8.87924 4.80266 8.92371 4.72983 8.95404C4.657 8.98438 4.57894 9 4.50011 9C4.42127 9 4.34321 8.98438 4.27038 8.95404C4.19755 8.92371 4.13137 8.87924 4.07563 8.82317Z" fill="white"/>
</svg>
