<svg width="10" height="11" viewBox="0 0 10 11" fill="none" xmlns="http://www.w3.org/2000/svg">
    <path d="M5 0.5C2.24289 0.5 0 2.74289 0 5.5C0 8.25711 2.24289 10.5 5 10.5C7.75711 10.5 10 8.25711 10 5.5C10 2.74289 7.75711 0.5 5 0.5ZM7.1875 5.91664H5.41664V7.6875C5.41664 7.91753 5.23003 8.10414 5 8.10414C4.76997 8.10414 4.58336 7.91753 4.58336 7.6875V5.91664H2.8125C2.58247 5.91664 2.39586 5.73003 2.39586 5.5C2.39586 5.26997 2.58247 5.08336 2.8125 5.08336H4.58336V3.3125C4.58336 3.08247 4.76997 2.89586 5 2.89586C5.23003 2.89586 5.41664 3.08247 5.41664 3.3125V5.08336H7.1875C7.41753 5.08336 7.60414 5.26997 7.60414 5.5C7.60414 5.73003 7.41753 5.91664 7.1875 5.91664V5.91664Z" fill="#4B4B4B"/>
</svg>