<svg id="Component_53" data-name="Component 53" xmlns="http://www.w3.org/2000/svg" width="22" height="22" viewBox="0 0 22 22">
  <g id="Currenty">
    <path id="Path_61" data-name="Path 61" d="M21.393,11.934a11,11,0,1,0,11,11A11,11,0,0,0,21.393,11.934Zm0,20.128a9.128,9.128,0,1,1,9.128-9.128A9.128,9.128,0,0,1,21.393,32.062Z" transform="translate(-10.393 -11.934)" fill="#fff"/>
  </g>
  <g id="Group_108" data-name="Group 108" transform="translate(5.5 4.821)">
    <path id="Union_34" data-name="Union 34" d="M3.944,10.48H.669A1.046,1.046,0,0,1,0,9.4c.046-.84.612-.658,1.122-1.223s.964-1.087.972-3.1C2.1,3.722,2.431,1.19,4.594.62A.843.843,0,0,1,6.206.574c2.344.461,2.693,3.107,2.7,4.5.008,2.018.462,2.539.972,3.1S10.953,8.563,11,9.4a1.047,1.047,0,0,1-.667,1.076l-3.247-.009a1.724,1.724,0,0,1-3.141.009Z" transform="translate(0)" fill="#fff"/>
  </g>
</svg>
