<?xml version="1.0"?>
<svg xmlns="http://www.w3.org/2000/svg" xmlns:xlink="http://www.w3.org/1999/xlink" xmlns:svgjs="http://svgjs.com/svgjs" version="1.1" width="512" height="512" x="0" y="0" viewBox="0 0 30.727 30.727" style="enable-background:new 0 0 512 512" xml:space="preserve" class=""><g transform="matrix(-1,1.2246467991473532e-16,-1.2246467991473532e-16,-1,30.725499153137214,30.725249767303463)">
<g xmlns="http://www.w3.org/2000/svg">
	<path d="M15.362,30.229L0.732,15.601c-0.977-0.977-0.977-2.56,0-3.535c0.979-0.976,2.561-0.977,3.535,0l11.095,11.094   l11.096-11.094c0.978-0.977,2.56-0.977,3.534,0c0.978,0.979,0.979,2.562,0,3.535L15.362,30.229z M29.992,4.765   c0.979-0.978,0.979-2.561,0-3.535c-0.977-0.977-2.559-0.977-3.534,0L15.363,12.325L4.268,1.229c-0.979-0.977-2.56-0.977-3.535,0   c-0.976,0.978-0.977,2.56,0,3.535l14.632,14.631L29.992,4.765z" fill="#6a4efa" data-original="#000000" style="" class=""/>
</g>
<g xmlns="http://www.w3.org/2000/svg">
</g>
<g xmlns="http://www.w3.org/2000/svg">
</g>
<g xmlns="http://www.w3.org/2000/svg">
</g>
<g xmlns="http://www.w3.org/2000/svg">
</g>
<g xmlns="http://www.w3.org/2000/svg">
</g>
<g xmlns="http://www.w3.org/2000/svg">
</g>
<g xmlns="http://www.w3.org/2000/svg">
</g>
<g xmlns="http://www.w3.org/2000/svg">
</g>
<g xmlns="http://www.w3.org/2000/svg">
</g>
<g xmlns="http://www.w3.org/2000/svg">
</g>
<g xmlns="http://www.w3.org/2000/svg">
</g>
<g xmlns="http://www.w3.org/2000/svg">
</g>
<g xmlns="http://www.w3.org/2000/svg">
</g>
<g xmlns="http://www.w3.org/2000/svg">
</g>
<g xmlns="http://www.w3.org/2000/svg">
</g>
</g></svg>
