<svg width="26" height="25" viewBox="0 0 26 25" fill="none" xmlns="http://www.w3.org/2000/svg">
    <path d="M8.41449 0H1.35707C0.883723 0 0.5 0.383723 0.5 0.857069V7.91449C0.5 8.38783 0.883723 8.77155 1.35707 8.77155H8.41449C8.88783 8.77155 9.27155 8.38783 9.27155 7.91449V0.857069C9.27155 0.383723 8.88783 0 8.41449 0Z" fill="white"/>
    <path d="M8.41449 10.6641H1.35707C0.883723 10.6641 0.5 11.0478 0.5 11.5211V18.5785C0.5 19.0519 0.883723 19.4356 1.35707 19.4356H8.41449C8.88783 19.4356 9.27155 19.0519 9.27155 18.5785V11.5211C9.27155 11.0478 8.88783 10.6641 8.41449 10.6641Z" fill="white"/>
    <path d="M19.2504 0H12.193C11.7197 0 11.3359 0.383723 11.3359 0.857069V7.91449C11.3359 8.38783 11.7197 8.77155 12.193 8.77155H19.2504C19.7238 8.77155 20.1075 8.38783 20.1075 7.91449V0.857069C20.1075 0.383723 19.7238 0 19.2504 0Z" fill="white"/>
    <path d="M18.0559 10.6641H12.1928C11.9655 10.6641 11.7476 10.7543 11.5869 10.915C11.4262 11.0757 11.3359 11.2937 11.3359 11.5209V16.8707C11.599 15.233 12.4044 13.731 13.6229 12.6056C14.8414 11.4802 16.4025 10.7965 18.0559 10.6641Z" fill="white"/>
    <path fill-rule="evenodd" clip-rule="evenodd" d="M18.8231 11.6484C15.1368 11.6484 12.1484 14.6368 12.1484 18.3231C12.1484 22.0094 15.1368 24.9978 18.8231 24.9978C22.5094 24.9978 25.4978 22.0094 25.4978 18.3231C25.4978 14.6368 22.5094 11.6484 18.8231 11.6484ZM20.9018 19.8414L23.0586 21.9832C23.1346 22.0598 23.1768 22.1631 23.1763 22.2706C23.1759 22.378 23.1327 22.481 23.0562 22.557C22.9796 22.633 22.8759 22.6759 22.7677 22.6763C22.6595 22.6768 22.5554 22.6347 22.4783 22.5593L20.2932 20.3895C19.5687 20.9016 18.6745 21.1195 17.7936 20.9986C16.9127 20.8777 16.1115 20.4272 15.554 19.7392C14.9964 19.0512 14.7246 18.1777 14.7942 17.2973C14.8637 16.4169 15.2693 15.5961 15.928 15.0028C16.5868 14.4095 17.4488 14.0886 18.338 14.1055C19.2271 14.1225 20.0762 14.4762 20.7114 15.0942C21.3467 15.7122 21.7202 16.5478 21.7556 17.4302C21.791 18.3127 21.4856 19.1752 20.9018 19.8414ZM16.1114 16.1347C15.8259 16.5591 15.6735 17.058 15.6735 17.5683C15.6735 18.2527 15.9472 18.909 16.4345 19.3929C16.9218 19.8768 17.5828 20.1487 18.2719 20.1487C18.7859 20.1487 19.2883 19.9974 19.7156 19.7138C20.1429 19.4303 20.476 19.0273 20.6726 18.5558C20.8693 18.0843 20.9208 17.5655 20.8205 17.0649C20.7202 16.5644 20.4728 16.1046 20.1094 15.7437C19.746 15.3828 19.2829 15.1371 18.7789 15.0375C18.2748 14.9379 17.7524 14.989 17.2775 15.1844C16.8027 15.3797 16.3969 15.7104 16.1114 16.1347Z" fill="white"/>
</svg>