<?xml version="1.0" encoding="utf-8"?>
<!-- Generator: Adobe Illustrator 24.2.0, SVG Export Plug-In . SVG Version: 6.00 Build 0)  -->
<svg version="1.1" id="Layer_1" xmlns="http://www.w3.org/2000/svg" xmlns:xlink="http://www.w3.org/1999/xlink" x="0px" y="0px"
	 viewBox="0 0 512 512" style="enable-background:new 0 0 512 512;" xml:space="preserve">
<style type="text/css">
	.st0{fill:#C8C9FB;}
	.st1{fill:#878787;}
</style>
<g>
	<path class="st0" d="M472,24H216c-8.8,0-16,7.2-16,16v432c0,8.8,7.2,16,16,16h256c8.8,0,16-7.2,16-16V40C488,31.2,480.8,24,472,24z
		 M344,456H232v-48h112V456z M344,376H232v-48h112V376z M344,296H232v-48h112V296z M408,184c0,8.8-7.2,16-16,16h-96
		c-8.8,0-16-7.2-16-16V88c0-8.8,7.2-16,16-16h32v64l16-16l16,16V72h32c8.8,0,16,7.2,16,16V184z"/>
	<path class="st0" d="M152,472v-96c0-8.8-7.2-16-16-16h-32v64l-16-16l-16,16v-64H40c-8.8,0-16,7.2-16,16v96c0,8.8,7.2,16,16,16h96
		C144.8,488,152,480.8,152,472z"/>
	<path class="st0" d="M40,320h96c8.8,0,16-7.2,16-16v-96c0-8.8-7.2-16-16-16h-32v64l-16-16l-16,16v-64H40c-8.8,0-16,7.2-16,16v96
		C24,312.8,31.2,320,40,320z"/>
	<path class="st0" d="M40,152h96c8.8,0,16-7.2,16-16V40c0-8.8-7.2-16-16-16h-32v64L88,72L72,88V24H40c-8.8,0-16,7.2-16,16v96
		C24,144.8,31.2,152,40,152z"/>
	<g>
		<path class="st1" d="M472,16H216c-13.3,0-24,10.7-24,24v40h-32V40c0-13.3-10.7-24-24-24H40c-13.3,0-24,10.7-24,24v96
			c0,13.3,10.7,24,24,24h96c13.3,0,24-10.7,24-24V96h32v152h-32v-40c0-13.3-10.7-24-24-24H40c-13.3,0-24,10.7-24,24v96
			c0,13.3,10.7,24,24,24h96c13.3,0,24-10.7,24-24v-40h32v152h-32v-40c0-13.3-10.7-24-24-24H40c-13.3,0-24,10.7-24,24v96
			c0,13.3,10.7,24,24,24h96c13.3,0,24-10.7,24-24v-40h32v40c0,13.3,10.7,24,24,24h256c13.3,0,24-10.7,24-24V40
			C496,26.7,485.3,16,472,16z M80,32h16v36.7l-2.3-2.3c-3.1-3.1-8.2-3.1-11.3,0L80,68.7L80,32z M144,136c0,4.4-3.6,8-8,8H40
			c-4.4,0-8-3.6-8-8V40c0-4.4,3.6-8,8-8h24v56c0,4.4,3.6,8,8,8c2.1,0,4.2-0.8,5.7-2.3L88,83.3l10.3,10.3c1.5,1.5,3.5,2.3,5.7,2.3
			c1.1,0,2.1-0.2,3.1-0.6c3-1.2,4.9-4.2,4.9-7.4V32h24c4.4,0,8,3.6,8,8V136z M80,200h16v36.7l-2.3-2.3c-3.1-3.1-8.2-3.1-11.3,0
			l-2.3,2.3L80,200z M144,304c0,4.4-3.6,8-8,8H40c-4.4,0-8-3.6-8-8v-96c0-4.4,3.6-8,8-8h24v56c0,4.4,3.6,8,8,8
			c2.1,0,4.2-0.8,5.7-2.3L88,251.3l10.3,10.3c1.5,1.5,3.5,2.3,5.7,2.3c1.1,0,2.1-0.2,3.1-0.6c3-1.2,4.9-4.2,4.9-7.4v-56h24
			c4.4,0,8,3.6,8,8V304z M80,368h16v36.7l-2.3-2.3c-3.1-3.1-8.2-3.1-11.3,0l-2.3,2.3L80,368z M144,472c0,4.4-3.6,8-8,8H40
			c-4.4,0-8-3.6-8-8v-96c0-4.4,3.6-8,8-8h24v56c0,4.4,3.6,8,8,8c2.1,0,4.2-0.8,5.7-2.3L88,419.3l10.3,10.3c1.5,1.5,3.5,2.3,5.7,2.3
			c1.1,0,2.1-0.2,3.1-0.6c3-1.2,4.9-4.2,4.9-7.4v-56h24c4.4,0,8,3.6,8,8V472z M480,472c0,4.4-3.6,8-8,8H216c-4.4,0-8-3.6-8-8V40
			c0-4.4,3.6-8,8-8h256c4.4,0,8,3.6,8,8V472z"/>
		<path class="st1" d="M344,240H232c-4.4,0-8,3.6-8,8v48c0,4.4,3.6,8,8,8h112c4.4,0,8-3.6,8-8v-48C352,243.6,348.4,240,344,240z
			 M336,288h-96v-32h96V288z"/>
		<path class="st1" d="M368,280h96v16h-96V280z"/>
		<path class="st1" d="M368,248h96v16h-96V248z"/>
		<path class="st1" d="M344,320H232c-4.4,0-8,3.6-8,8v48c0,4.4,3.6,8,8,8h112c4.4,0,8-3.6,8-8v-48C352,323.6,348.4,320,344,320z
			 M336,368h-96v-32h96V368z"/>
		<path class="st1" d="M368,360h96v16h-96V360z"/>
		<path class="st1" d="M368,328h96v16h-96V328z"/>
		<path class="st1" d="M344,400H232c-4.4,0-8,3.6-8,8v48c0,4.4,3.6,8,8,8h112c4.4,0,8-3.6,8-8v-48C352,403.6,348.4,400,344,400z
			 M336,448h-96v-32h96V448z"/>
		<path class="st1" d="M368,440h96v16h-96V440z"/>
		<path class="st1" d="M368,408h96v16h-96V408z"/>
		<path class="st1" d="M296,208h96c13.3,0,24-10.7,24-24V88c0-13.3-10.7-24-24-24h-96c-13.3,0-24,10.7-24,24v96
			C272,197.3,282.7,208,296,208z M336,80h16v36.7l-2.3-2.3c-3.1-3.1-8.2-3.1-11.3,0l-2.3,2.3V80z M288,88c0-4.4,3.6-8,8-8h24v56
			c0,4.4,3.6,8,8,8c2.1,0,4.2-0.8,5.7-2.3l10.3-10.3l10.3,10.3c1.5,1.5,3.5,2.3,5.7,2.3c1.1,0,2.1-0.2,3.1-0.6
			c3-1.2,4.9-4.2,4.9-7.4V80h24c4.4,0,8,3.6,8,8v96c0,4.4-3.6,8-8,8h-96c-4.4,0-8-3.6-8-8V88z"/>
	</g>
</g>
</svg>
