<svg id="Icon_awesome-money-bill-alt" data-name="Icon awesome-money-bill-alt" xmlns="http://www.w3.org/2000/svg" width="13.75" height="8.25" viewBox="0 0 13.75 8.25">
  <path id="Icon_awesome-money-bill-alt-2" data-name="Icon awesome-money-bill-alt" d="M7.562,9.313H7.219V7.422a.172.172,0,0,0-.172-.172H6.755a.515.515,0,0,0-.286.087l-.329.22a.172.172,0,0,0-.048.238l.191.286a.172.172,0,0,0,.238.048l.01-.007V9.313H6.188a.172.172,0,0,0-.172.172v.344A.172.172,0,0,0,6.188,10H7.562a.172.172,0,0,0,.172-.172V9.484A.172.172,0,0,0,7.562,9.313Zm5.5-4.812H.688A.688.688,0,0,0,0,5.188v6.875a.688.688,0,0,0,.688.688H13.063a.688.688,0,0,0,.688-.687V5.188A.688.688,0,0,0,13.063,4.5ZM1.031,11.719V10.344a1.375,1.375,0,0,1,1.375,1.375Zm0-4.813V5.531H2.406A1.375,1.375,0,0,1,1.031,6.906Zm5.844,4.125A2.254,2.254,0,0,1,4.813,8.625,2.254,2.254,0,0,1,6.875,6.219,2.254,2.254,0,0,1,8.938,8.625,2.254,2.254,0,0,1,6.875,11.031Zm5.844.688H11.344a1.375,1.375,0,0,1,1.375-1.375Zm0-4.813a1.375,1.375,0,0,1-1.375-1.375h1.375Z" transform="translate(0 -4.5)" fill="#fff"/>
</svg>
