<svg xmlns="http://www.w3.org/2000/svg" width="9.91" height="11.326" viewBox="0 0 9.91 11.326">
  <path id="Icon_awesome-trash" data-name="Icon awesome-trash" d="M9.556.708H6.9L6.694.294A.531.531,0,0,0,6.218,0H3.69a.525.525,0,0,0-.473.294L3.008.708H.354A.354.354,0,0,0,0,1.062V1.77a.354.354,0,0,0,.354.354h9.2A.354.354,0,0,0,9.91,1.77V1.062A.354.354,0,0,0,9.556.708ZM1.177,10.33a1.062,1.062,0,0,0,1.06,1H7.674a1.062,1.062,0,0,0,1.06-1l.469-7.5H.708Z" transform="translate(0 0)" fill="#3585e5"/>
</svg>
