<svg width="7" height="13" viewBox="0 0 7 13" fill="none" xmlns="http://www.w3.org/2000/svg">
    <path d="M2.10838 6.09934L6.73038 1.48134C6.89033 1.31671 6.97901 1.09571 6.97722 0.866178C6.97542 0.636647 6.8833 0.417057 6.7208 0.254946C6.55829 0.0928352 6.33848 0.00124851 6.10894 1.26703e-05C5.87941 -0.00122317 5.65862 0.0879913 5.49438 0.248343L0.252381 5.48034C0.0951265 5.639 0.00484201 5.85201 0.000189161 6.07535C-0.00446369 6.29869 0.0768712 6.51527 0.227381 6.68034L5.48538 11.9493C5.64962 12.1097 5.87041 12.1989 6.09994 12.1977C6.32948 12.1964 6.54929 12.1049 6.7118 11.9427C6.8743 11.7806 6.96642 11.561 6.96822 11.3315C6.97001 11.102 6.88133 10.881 6.72138 10.7163L2.10838 6.09934Z" fill="white"/>
</svg>
