<?xml version="1.0" encoding="utf-8"?>
<!-- Generator: Adobe Illustrator 24.2.0, SVG Export Plug-In . SVG Version: 6.00 Build 0)  -->
<svg version="1.1" id="Capa_1" xmlns="http://www.w3.org/2000/svg" xmlns:xlink="http://www.w3.org/1999/xlink" x="0px" y="0px"
	 viewBox="0 0 512 512" style="enable-background:new 0 0 512 512;" xml:space="preserve">
<style type="text/css">
	.st0{fill:#C8C9FB;}
	.st1{fill:#878787;}
	.st2{fill:#FFFFFF;}
</style>
<g>
	<g>
		<g>
			<rect x="86.9" y="243.2" class="st0" width="54.8" height="124.4"/>
			<rect x="185" y="164.5" class="st0" width="54.8" height="196.3"/>
			<rect x="280.9" y="45.8" class="st0" width="54.8" height="314.6"/>
			<g>
				<g>
					<g>
						<path class="st1" d="M412.5,97.3h-28.3l18.3-30.5l-15-9l-26.2,43.7c-0.8,1.4-1.2,2.9-1.2,4.5c0,4.8,3.9,8.7,8.7,8.7h35v288.5
							H19.1V202.2h78.7c4.8,0,8.7-3.9,8.7-8.7v-78.7h139.9c1.6,0,3.1-0.4,4.5-1.2c4.1-2.5,5.5-7.9,3-12l-26.2-43.7l-15,9L231,97.3
							H97.8c-2.4,0-4.7,1-6.2,2.6L4.3,187.2c-1.6,1.6-2.6,3.8-2.6,6.2V412c0,4.8,3.9,8.7,8.7,8.7h402.1c4.8,0,8.7-3.9,8.7-8.7V106
							C421.3,101.2,417.3,97.3,412.5,97.3z M89.1,127.1v57.6H31.5L89.1,127.1z"/>
					</g>
				</g>
				<g>
					<g>
						<path class="st1" d="M368.8,342v17.5h-26.2V44.8c0-4.8-3.9-8.7-8.7-8.7h-52.5c-4.8,0-8.7,3.9-8.7,8.7v314.7h-26.2V167.2
							c0-4.8-3.9-8.7-8.7-8.7h-52.5c-4.8,0-8.7,3.9-8.7,8.7v192.3h-26.2V245.9c0-4.8-3.9-8.7-8.7-8.7H89.1c-4.8,0-8.7,3.9-8.7,8.7
							v113.6H54.1V342H36.6v26.2c0,4.8,3.9,8.7,8.7,8.7h43.7h52.5h43.7h52.5h43.7h52.5h43.7c4.8,0,8.7-3.9,8.7-8.7V342H368.8z
							 M132.8,359.5h-35V254.6h8.7v43.7H124v-43.7h8.7V359.5z M228.9,359.5h-35V176h8.7v52.5h17.5V176h8.7V359.5z M325.1,359.5h-35
							v-306h8.7v61.2h17.5V53.6h8.7V359.5z"/>
					</g>
				</g>
				<g>
					<g>
						<rect x="298.9" y="1.1" class="st1" width="17.5" height="17.5"/>
					</g>
				</g>
				<g>
					<g>
						<rect x="255.2" y="1.1" class="st1" width="17.5" height="17.5"/>
					</g>
				</g>
				<g>
					<g>
						<rect x="342.6" y="1.1" class="st1" width="17.5" height="17.5"/>
					</g>
				</g>
				<g>
					<g>
						
							<rect x="382.7" y="18.6" transform="matrix(0.7071 -0.7071 0.7071 0.7071 96.3724 287.3511)" class="st1" width="24.7" height="17.5"/>
					</g>
				</g>
				<g>
					<g>
						
							<rect x="211.5" y="15" transform="matrix(0.7071 -0.7071 0.7071 0.7071 45.1584 163.7165)" class="st1" width="17.5" height="24.7"/>
					</g>
				</g>
			</g>
		</g>
		<g>
			<circle class="st1" cx="390.4" cy="394.2" r="115.8"/>
			<circle class="st2" cx="390.4" cy="394.2" r="94.1"/>
			<g>
				<g>
					<path class="st0" d="M359.7,424.3c24.8-23.4,42.2-40.1,42.2-54c0-9.4-5.2-14.6-13.8-14.6c-6.9,0-12.4,4.8-17.3,9.9l-12.2-12.2
						c9.6-10.2,18.7-15.4,32.6-15.4c19.2,0,32.3,12.2,32.3,31c0,16.4-15.3,33.9-31.2,50.3c5-0.6,11.8-1.1,16.3-1.1h19.6v18.9h-68.5
						V424.3z"/>
				</g>
			</g>
		</g>
	</g>
</g>
</svg>
