<?xml version="1.0" encoding="utf-8"?>
<!-- Generator: Adobe Illustrator 24.2.0, SVG Export Plug-In . SVG Version: 6.00 Build 0)  -->
<svg version="1.1" id="Capa_1" xmlns="http://www.w3.org/2000/svg" xmlns:xlink="http://www.w3.org/1999/xlink" x="0px" y="0px"
	 viewBox="0 0 512 512" style="enable-background:new 0 0 512 512;" xml:space="preserve">
<style type="text/css">
	.st0{fill:#C8C9FB;}
	.st1{fill:#878787;}
	.st2{fill:#FFFFFF;}
</style>
<g>
	<g>
		<g>
			<rect x="91.3" y="243.6" class="st0" width="54.5" height="123.7"/>
			<rect x="188.9" y="165.3" class="st0" width="54.5" height="195.2"/>
			<rect x="284.2" y="47.3" class="st0" width="54.5" height="312.8"/>
			<g>
				<g>
					<g>
						<path class="st1" d="M415.1,98.5H387l18.2-30.3l-14.9-9l-26.1,43.5c-0.8,1.4-1.2,2.9-1.2,4.5c0,4.8,3.9,8.7,8.7,8.7h34.8
							v286.8H24V202.8h78.2c4.8,0,8.7-3.9,8.7-8.7v-78.2H250c1.6,0,3.1-0.4,4.5-1.2c4.1-2.5,5.4-7.8,3-11.9l-26.1-43.5l-14.9,9
							l18.2,30.3H102.2c-2.4,0-4.6,1-6.2,2.6L9.2,187.9c-1.6,1.6-2.6,3.8-2.6,6.2v217.3c0,4.8,3.9,8.7,8.7,8.7h399.8
							c4.8,0,8.7-3.9,8.7-8.7V107.2C423.8,102.4,419.9,98.5,415.1,98.5z M93.5,128.2v57.2H36.3L93.5,128.2z"/>
					</g>
				</g>
				<g>
					<g>
						<path class="st1" d="M371.7,341.9v17.4h-26.1V46.4c0-4.8-3.9-8.7-8.7-8.7h-52.2c-4.8,0-8.7,3.9-8.7,8.7v312.9H250V168
							c0-4.8-3.9-8.7-8.7-8.7h-52.2c-4.8,0-8.7,3.9-8.7,8.7v191.2h-26.1v-113c0-4.8-3.9-8.7-8.7-8.7H93.5c-4.8,0-8.7,3.9-8.7,8.7
							v113H58.7v-17.4H41.3V368c0,4.8,3.9,8.7,8.7,8.7h43.5h52.2h43.5h52.2h43.5h52.2h43.5c4.8,0,8.7-3.9,8.7-8.7v-26.1H371.7z
							 M137,359.3h-34.8V255h8.7v43.5h17.4V255h8.7V359.3z M232.6,359.3h-34.8V176.7h8.7v52.2h17.4v-52.2h8.7V359.3z M328.2,359.3
							h-34.8V55h8.7v60.8h17.4V55h8.7V359.3z"/>
					</g>
				</g>
				<g>
					<g>
						<rect x="302.1" y="2.9" class="st1" width="17.4" height="17.4"/>
					</g>
				</g>
				<g>
					<g>
						<rect x="258.6" y="2.9" class="st1" width="17.4" height="17.4"/>
					</g>
				</g>
				<g>
					<g>
						<rect x="345.6" y="2.9" class="st1" width="17.4" height="17.4"/>
					</g>
				</g>
				<g>
					<g>
						
							<rect x="385.5" y="20.3" transform="matrix(0.7071 -0.7071 0.7071 0.7071 96.0161 289.7274)" class="st1" width="24.6" height="17.4"/>
					</g>
				</g>
				<g>
					<g>
						
							<rect x="215.2" y="16.7" transform="matrix(0.7071 -0.7071 0.7071 0.7071 45.0917 166.7916)" class="st1" width="17.4" height="24.6"/>
					</g>
				</g>
			</g>
		</g>
	</g>
	<g>
		<circle class="st1" cx="393.1" cy="393.8" r="115.1"/>
		<circle class="st2" cx="393.1" cy="393.8" r="93.6"/>
		<g>
			<g>
				<path class="st0" d="M367.5,418.4h21.2v-56h-18.1v-13.9c10.4-2,17.2-4.6,24-8.8h16.5v78.7h18.1v18.1h-61.7V418.4z"/>
			</g>
		</g>
	</g>
</g>
</svg>
