<svg width="12" height="13" viewBox="0 0 12 13" fill="none" xmlns="http://www.w3.org/2000/svg">
<path d="M10.8 1.18182H10.2V0.590909C10.2 0.265909 9.93 0 9.6 0C9.27 0 9 0.265909 9 0.590909V1.18182H3V0.590909C3 0.265909 2.73 0 2.4 0C2.07 0 1.8 0.265909 1.8 0.590909V1.18182H1.2C0.54 1.18182 0 1.71364 0 2.36364V11.8182C0 12.4682 0.54 13 1.2 13H10.8C11.46 13 12 12.4682 12 11.8182V2.36364C12 1.71364 11.46 1.18182 10.8 1.18182ZM10.2 11.8182H1.8C1.47 11.8182 1.2 11.5523 1.2 11.2273V4.13636H10.8V11.2273C10.8 11.5523 10.53 11.8182 10.2 11.8182Z" fill="#3585E5"/>
</svg>
