<svg width="80" height="73" viewBox="0 0 80 73" fill="none" xmlns="http://www.w3.org/2000/svg">
<path d="M0.754717 72.6544C0.554554 72.6544 0.362645 72.5748 0.221108 72.4333C0.0795716 72.2918 0 72.0998 0 71.8996V66.6166C0 66.4165 0.0795716 66.2245 0.221108 66.083C0.362645 65.9414 0.554554 65.8619 0.754717 65.8619H79.2453C79.4454 65.8619 79.6374 65.9414 79.7789 66.083C79.9204 66.2245 80 66.4165 80 66.6166V71.8996C80 72.0998 79.9204 72.2918 79.7789 72.4333C79.6374 72.5748 79.4454 72.6544 79.2453 72.6544H0.754717ZM55.0943 63.5977C54.8942 63.5977 54.7023 63.5182 54.5607 63.3767C54.4192 63.2352 54.3396 63.0432 54.3396 62.843V38.6921C54.3396 38.4919 54.4192 38.3 54.5607 38.1584C54.7023 38.0169 54.8942 37.9374 55.0943 37.9374H71.6981C71.8983 37.9374 72.0902 38.0169 72.2317 38.1584C72.3733 38.3 72.4528 38.4919 72.4528 38.6921V62.843C72.4528 63.0432 72.3733 63.2352 72.2317 63.3767C72.0902 63.5182 71.8983 63.5977 71.6981 63.5977H55.0943ZM31.6981 63.5977C31.498 63.5977 31.306 63.5182 31.1645 63.3767C31.023 63.2352 30.9434 63.0432 30.9434 62.843V23.5977C30.9434 23.3976 31.023 23.2056 31.1645 23.0641C31.306 22.9226 31.498 22.843 31.6981 22.843H48.3019C48.5021 22.843 48.694 22.9226 48.8355 23.0641C48.977 23.2056 49.0566 23.3976 49.0566 23.5977V62.843C49.0566 63.0432 48.977 63.2352 48.8355 63.3767C48.694 63.5182 48.5021 63.5977 48.3019 63.5977H31.6981ZM8.30189 63.5977C8.10172 63.5977 7.90982 63.5182 7.76828 63.3767C7.62674 63.2352 7.54717 63.0432 7.54717 62.843V47.7487C7.54717 47.5485 7.62674 47.3566 7.76828 47.215C7.90982 47.0735 8.10172 46.994 8.30189 46.994H24.9057C25.1058 46.994 25.2977 47.0735 25.4393 47.215C25.5808 47.3566 25.6604 47.5485 25.6604 47.7487V62.843C25.6604 63.0432 25.5808 63.2352 25.4393 63.3767C25.2977 63.5182 25.1058 63.5977 24.9057 63.5977H8.30189ZM10.9638 26.0581L10.4785 25.48C10.4148 25.4041 10.3667 25.3164 10.3368 25.2218C10.307 25.1273 10.296 25.0278 10.3046 24.9291C10.3132 24.8303 10.3412 24.7343 10.3869 24.6463C10.4327 24.5584 10.4955 24.4803 10.5714 24.4166L29.892 8.37813C29.9936 8.26711 30.1202 8.18183 30.2613 8.12934C30.4023 8.07685 30.5538 8.05864 30.7033 8.07623L30.7676 8.08832L53.7426 13.3925L62.5155 2.93661L60.3925 3.58416C60.3622 3.59371 60.3303 3.59716 60.2987 3.59431C60.2671 3.59146 60.2363 3.58238 60.2082 3.56757C60.1801 3.55276 60.1553 3.53252 60.1351 3.50804C60.1149 3.48355 60.0999 3.45529 60.0907 3.42491L59.7457 2.29284C59.7362 2.26256 59.7327 2.23071 59.7356 2.1991C59.7384 2.16748 59.7475 2.13673 59.7623 2.10865C59.7771 2.08057 59.7973 2.05573 59.8218 2.03552C59.8463 2.01532 59.8745 2.00017 59.9049 1.99096L66.3646 0.0105834C66.4029 -0.00117904 66.4435 -0.00317145 66.4827 0.00477933C66.522 0.0127301 66.5585 0.0303622 66.5892 0.0560949C66.6199 0.0818276 66.6436 0.114829 66.6583 0.152093C66.673 0.189357 66.6782 0.229698 66.6732 0.269442L65.843 6.97511C65.8351 7.03826 65.8024 7.09568 65.7521 7.13475C65.7019 7.17381 65.6382 7.19131 65.5751 7.18341L64.4008 7.04077C64.3695 7.03695 64.3391 7.02698 64.3116 7.01143C64.2841 6.99589 64.2601 6.97508 64.2407 6.95019C64.2213 6.9253 64.2069 6.89683 64.1985 6.8664C64.1901 6.83597 64.1878 6.80417 64.1917 6.77284L64.4596 4.56908L55.4076 15.3577C55.1608 15.7019 55.0061 15.9962 54.6114 15.9049L30.772 10.4121L12.0219 26.1457C11.8859 26.2598 11.714 26.3223 11.5365 26.3223C11.4276 26.3221 11.3201 26.2983 11.2213 26.2526C11.1224 26.2068 11.0346 26.1403 10.9638 26.0574V26.0581Z" fill="white"/>
</svg>
