<svg xmlns="http://www.w3.org/2000/svg" width="30.5" height="23.5" viewBox="0 0 30.5 23.5">
    <g id="category" transform="translate(0.75 0.75)">
        <path id="Union_394" data-name="Union 394" d="M9.317,22a2.567,2.567,0,1,1,0-5.134H26.433a2.567,2.567,0,1,1,0,5.134ZM0,19.434a2.6,2.6,0,0,1,2.625-2.567,2.567,2.567,0,1,1,0,5.134A2.6,2.6,0,0,1,0,19.434Zm9.317-5.989a2.567,2.567,0,1,1,0-5.134H26.433a2.567,2.567,0,1,1,0,5.134ZM0,10.878A2.6,2.6,0,0,1,2.625,8.312a2.567,2.567,0,1,1,0,5.134A2.6,2.6,0,0,1,0,10.878ZM9.317,5.134A2.567,2.567,0,0,1,9.317,0H26.433a2.567,2.567,0,1,1,0,5.134ZM0,2.567A2.6,2.6,0,0,1,2.625,0,2.6,2.6,0,0,1,5.25,2.567,2.6,2.6,0,0,1,2.625,5.134,2.6,2.6,0,0,1,0,2.567Z" fill="none" stroke="#5d43f7" stroke-width="1.5"/>
    </g>
</svg>