<svg xmlns="http://www.w3.org/2000/svg" width="63" height="49" viewBox="0 0 63 49" fill="none">
<path d="M20.3662 1.25H57.2972C59.7534 1.25 61.7498 3.24689 61.7498 5.71667C61.7498 8.18645 59.7534 10.1833 57.2972 10.1833H20.3662C17.91 10.1833 15.9136 8.18645 15.9136 5.71667C15.9136 3.24689 17.91 1.25 20.3662 1.25Z" stroke="#4B4B4B" stroke-width="2.5"/>
<path d="M10.1552 5.71667C10.1552 8.18645 8.15878 10.1833 5.70259 10.1833C3.2464 10.1833 1.25 8.18645 1.25 5.71667C1.25 3.24689 3.2464 1.25 5.70259 1.25C8.15878 1.25 10.1552 3.24689 10.1552 5.71667Z" stroke="#4B4B4B" stroke-width="2.5"/>
<path d="M20.3662 19.7612H57.2972C59.7534 19.7612 61.7498 21.7581 61.7498 24.2279C61.7498 26.6977 59.7534 28.6946 57.2972 28.6946H20.3662C17.91 28.6946 15.9136 26.6977 15.9136 24.2279C15.9136 21.7581 17.91 19.7612 20.3662 19.7612Z" stroke="#4B4B4B" stroke-width="2.5"/>
<path d="M10.1552 24.2279C10.1552 26.6977 8.15878 28.6946 5.70259 28.6946C3.2464 28.6946 1.25 26.6977 1.25 24.2279C1.25 21.7581 3.2464 19.7612 5.70259 19.7612C8.15878 19.7612 10.1552 21.7581 10.1552 24.2279Z" stroke="#4B4B4B" stroke-width="2.5"/>
<path d="M20.3662 38.8167H57.2972C59.7534 38.8167 61.7498 40.8135 61.7498 43.2833C61.7498 45.7531 59.7534 47.75 57.2972 47.75H20.3662C17.91 47.75 15.9136 45.7531 15.9136 43.2833C15.9136 40.8135 17.91 38.8167 20.3662 38.8167Z" stroke="#4B4B4B" stroke-width="2.5"/>
<path d="M10.1552 43.2833C10.1552 45.7531 8.15878 47.75 5.70259 47.75C3.2464 47.75 1.25 45.7531 1.25 43.2833C1.25 40.8135 3.2464 38.8167 5.70259 38.8167C8.15878 38.8167 10.1552 40.8135 10.1552 43.2833Z" stroke="#4B4B4B" stroke-width="2.5"/>
</svg>