<svg width="12" height="13" viewBox="0 0 12 13" fill="none" xmlns="http://www.w3.org/2000/svg">
    <path d="M6.35752 9.49247C6.35752 8.75877 6.65202 8.05512 7.17623 7.53631C7.70044 7.01751 8.41142 6.72605 9.15277 6.72605C9.89411 6.72605 10.6051 7.01751 11.1293 7.53631C11.6535 8.05512 11.948 8.75877 11.948 9.49247C11.948 9.85575 11.8757 10.2155 11.7352 10.5511C11.5948 10.8867 11.3889 11.1917 11.1293 11.4486C10.8697 11.7055 10.5616 11.9092 10.2225 12.0482C9.88332 12.1873 9.51984 12.2588 9.15277 12.2588C8.41144 12.2588 7.70049 11.9673 7.17628 11.4486C6.65207 10.9298 6.35755 10.2261 6.35752 9.49247V9.49247ZM4.8451 10.9426L1.74658 7.87656L1.88466 8.52264C1.88666 8.53181 1.88682 8.54129 1.88511 8.55053C1.8834 8.55976 1.87984 8.56856 1.87467 8.57644C1.86951 8.58431 1.86281 8.59109 1.85498 8.5964C1.84716 8.6017 1.83836 8.60542 1.82907 8.60734L1.481 8.68014C1.47173 8.68213 1.46215 8.68228 1.45283 8.68059C1.44351 8.6789 1.43462 8.6754 1.42667 8.6703C1.41871 8.6652 1.41186 8.65859 1.4065 8.65086C1.40114 8.64312 1.39737 8.63441 1.39541 8.62524L0.971613 6.65945C0.969047 6.6478 0.969475 6.6357 0.972867 6.62425C0.976259 6.61281 0.982507 6.6024 0.991027 6.59397C0.999547 6.58553 1.01007 6.57936 1.02163 6.576C1.03319 6.57264 1.04542 6.57221 1.0572 6.57475L3.04346 6.99428C3.05273 6.99621 3.06152 6.99994 3.06932 7.00524C3.07713 7.01054 3.08378 7.01732 3.08894 7.02518C3.09409 7.03304 3.09763 7.04183 3.09935 7.05105C3.10106 7.06026 3.10094 7.06972 3.09895 7.07888L3.02538 7.42337C3.02344 7.43256 3.01968 7.44128 3.01432 7.44903C3.00896 7.45677 3.00211 7.46339 2.99415 7.4685C2.9862 7.47362 2.97729 7.47712 2.96796 7.47882C2.95864 7.48051 2.94907 7.48037 2.9398 7.47838L2.28699 7.34173L5.38501 10.4078C5.39176 10.4144 5.39712 10.4223 5.40078 10.431C5.40444 10.4397 5.40633 10.449 5.40633 10.4584C5.40633 10.4678 5.40444 10.4771 5.40078 10.4858C5.39712 10.4945 5.39176 10.5023 5.38501 10.509L4.94681 10.9426C4.94007 10.9493 4.93207 10.9546 4.92325 10.9582C4.91444 10.9617 4.90497 10.9635 4.89544 10.9635C4.87656 10.9634 4.85848 10.9559 4.8451 10.9427V10.9426ZM11.0198 5.86329L9.0335 5.44376C9.02421 5.44184 9.01541 5.43812 9.00759 5.43282C8.99976 5.42751 8.99306 5.42073 8.9879 5.41286C8.98273 5.40498 8.97917 5.39618 8.97746 5.38695C8.97575 5.37771 8.97591 5.36823 8.97791 5.35906L9.05158 5.01467C9.0535 5.00546 9.05724 4.99672 9.06259 4.98895C9.06794 4.98119 9.07478 4.97454 9.08273 4.96941C9.09069 4.96428 9.09961 4.96076 9.10895 4.95905C9.11829 4.95734 9.12788 4.95748 9.13716 4.95946L9.79007 5.09611L6.69205 2.03005C6.68531 2.02343 6.67995 2.01556 6.6763 2.00689C6.67265 1.99821 6.67078 1.98891 6.67078 1.97951C6.67078 1.97011 6.67265 1.96081 6.6763 1.95214C6.67995 1.94347 6.68531 1.93559 6.69205 1.92898L7.13023 1.49531C7.13691 1.48864 7.14489 1.48334 7.15365 1.47973C7.16242 1.47612 7.1718 1.47426 7.1813 1.47426C7.19079 1.47426 7.2002 1.47612 7.20896 1.47973C7.21773 1.48334 7.22568 1.48864 7.23237 1.49531L10.3305 4.56148L10.1923 3.9153C10.1903 3.90613 10.1902 3.89665 10.1919 3.88743C10.1936 3.8782 10.1972 3.8694 10.2024 3.86154C10.2075 3.85368 10.2142 3.8469 10.2221 3.84161C10.2299 3.83632 10.2387 3.83261 10.248 3.83071L10.5961 3.7578C10.6148 3.75394 10.6343 3.75755 10.6503 3.76786C10.6663 3.77816 10.6776 3.79432 10.6816 3.81281L11.1054 5.77859C11.1078 5.78899 11.1077 5.79977 11.1052 5.81013C11.1027 5.82049 11.098 5.83018 11.0912 5.83847C11.0845 5.84676 11.0759 5.85345 11.0662 5.85805C11.0565 5.86264 11.0459 5.86503 11.0352 5.86502C11.0299 5.86501 11.0246 5.86443 11.0195 5.86329H11.0198ZM0 5.53263V0H5.59039V5.53263H0Z" fill="#3491FF"/>
</svg>

