<svg width="17" height="17" viewBox="0 0 17 17" fill="none" xmlns="http://www.w3.org/2000/svg">
<path d="M12.771 6.1436L12.0946 5.46789C12.0808 5.4536 12.0641 5.44227 12.0456 5.43461C12.027 5.42695 12.007 5.42313 11.9868 5.4234C11.9666 5.42282 11.9465 5.4265 11.9279 5.43418C11.9093 5.44186 11.8927 5.45336 11.8791 5.46789L7.1866 10.056L5.48081 8.39919C5.46692 8.385 5.4502 8.3737 5.43168 8.36598C5.41315 8.35826 5.3932 8.35428 5.37303 8.35428C5.35287 8.35428 5.33292 8.35826 5.31439 8.36598C5.29586 8.3737 5.27915 8.385 5.26526 8.39919L4.58022 9.06408C4.56565 9.07796 4.55408 9.09452 4.54617 9.11279C4.53827 9.13106 4.5342 9.15067 4.5342 9.17049C4.5342 9.1903 4.53827 9.20992 4.54617 9.22819C4.55408 9.24646 4.56565 9.26302 4.58022 9.27689L6.73445 11.3678C6.85111 11.4915 7.01185 11.5675 7.18412 11.5806C7.35324 11.5657 7.51137 11.4928 7.63008 11.375L12.7722 6.35762C12.7993 6.3281 12.8142 6.2899 12.8139 6.25038C12.8137 6.21086 12.7984 6.17282 12.771 6.1436Z" fill="#32B51A"/>
<path d="M8.6706 1.78018C10.2714 1.78107 11.8223 2.3206 13.0592 3.30686C14.2961 4.29311 15.1424 5.66508 15.454 7.18904C15.7657 8.71301 15.5233 10.2947 14.7681 11.6647C14.013 13.0346 12.7919 14.1081 11.3128 14.7022C9.8337 15.2964 8.18812 15.3744 6.65639 14.9231C5.12466 14.4717 3.80153 13.5189 2.91241 12.2269C2.02329 10.9349 1.62317 9.3837 1.78023 7.83751C1.93728 6.29132 2.64178 4.8458 3.77372 3.74721C4.41532 3.12125 5.17851 2.62508 6.01908 2.28743C6.85965 1.94978 7.76089 1.77737 8.6706 1.78018ZM8.6706 0.735352C7.08835 0.735352 5.54163 1.19074 4.22603 2.04394C2.91044 2.89714 1.88506 4.10982 1.27956 5.52863C0.674059 6.94745 0.515633 8.50867 0.824315 10.0149C1.133 11.5211 1.89492 12.9046 3.01374 13.9905C4.13256 15.0764 5.55803 15.816 7.10987 16.1156C8.66172 16.4152 10.2703 16.2614 11.7321 15.6737C13.1939 15.086 14.4433 14.0908 15.3224 12.8139C16.2014 11.537 16.6706 10.0358 16.6706 8.50006C16.6708 7.48034 16.4639 6.47057 16.062 5.52845C15.66 4.58632 15.0707 3.73028 14.3278 3.00923C13.5849 2.28818 12.7029 1.71624 11.7323 1.32608C10.7616 0.935926 9.72122 0.735194 8.6706 0.735352Z" fill="#32B51A"/>
</svg>
