<svg width="15" height="11" viewBox="0 0 15 11" fill="none" xmlns="http://www.w3.org/2000/svg">
    <path d="M4.86801 10.479L0.210009 5.82301C0.143428 5.75643 0.090613 5.67739 0.0545796 5.5904C0.0185462 5.5034 0 5.41017 0 5.31601C0 5.22185 0.0185462 5.12861 0.0545796 5.04162C0.090613 4.95463 0.143428 4.87559 0.210009 4.80901L1.22301 3.79301C1.28959 3.72643 1.36863 3.67361 1.45562 3.63758C1.54261 3.60155 1.63585 3.583 1.73001 3.583C1.82417 3.583 1.9174 3.60155 2.0044 3.63758C2.09139 3.67361 2.17043 3.72643 2.23701 3.79301L5.37501 6.93101L12.1 0.210009C12.1666 0.143428 12.2456 0.0906131 12.3326 0.0545797C12.4196 0.0185463 12.5128 0 12.607 0C12.7012 0 12.7944 0.0185463 12.8814 0.0545797C12.9684 0.0906131 13.0474 0.143428 13.114 0.210009L14.123 1.22301C14.1896 1.28959 14.2424 1.36863 14.2784 1.45562C14.3145 1.54261 14.333 1.63585 14.333 1.73001C14.333 1.82417 14.3145 1.9174 14.2784 2.0044C14.2424 2.09139 14.1896 2.17043 14.123 2.23701L5.88201 10.479C5.81543 10.5456 5.73639 10.5984 5.6494 10.6344C5.5624 10.6705 5.46917 10.689 5.37501 10.689C5.28085 10.689 5.18761 10.6705 5.10062 10.6344C5.01363 10.5984 4.93459 10.5456 4.86801 10.479Z" fill="#3585E5"/>
</svg>
