<svg width="14" height="14" viewBox="0 0 14 14" fill="none" xmlns="http://www.w3.org/2000/svg">
    <path d="M4.86377 11.2725C3.68586 11.2725 2.72754 10.3141 2.72754 9.13623V3.58203H1.4458C0.737898 3.58203 0.164062 4.15587 0.164062 4.86377V12.5542C0.164062 13.2621 0.737898 13.8359 1.4458 13.8359H9.13623C9.84413 13.8359 10.418 13.2621 10.418 12.5542V11.2725H4.86377Z" fill="#4B4B4B"/>
    <path d="M12.5542 0.164062C13.2621 0.164062 13.8359 0.737898 13.8359 1.4458V9.13623C13.8359 9.84413 13.2621 10.418 12.5542 10.418H4.86377C4.15587 10.418 3.58203 9.84413 3.58203 9.13623V1.4458C3.58203 0.737898 4.15587 0.164062 4.86377 0.164062H12.5542Z" fill="#4B4B4B"/>
</svg>
