<svg width="15" height="21" viewBox="0 0 15 21" fill="none" xmlns="http://www.w3.org/2000/svg">
<path d="M14.3662 0H0.633803C0.285833 0 0 0.285833 0 0.633803V20.0953H14.3662C14.7142 20.0953 15 19.8094 15 19.4615V0.633803C15 0.285833 14.7142 0 14.3662 0ZM3.62883 17.5849C2.58492 17.5849 1.73985 16.7399 1.73985 15.6959C1.73985 14.652 2.58492 13.807 3.62883 13.807C4.67274 13.807 5.51781 14.652 5.51781 15.6959C5.51781 16.7399 4.67274 17.5849 3.62883 17.5849ZM3.62883 11.2842C2.58492 11.2842 1.73985 10.4391 1.73985 9.3952C1.73985 8.35128 2.58492 7.50621 3.62883 7.50621C4.67274 7.50621 5.51781 8.35128 5.51781 9.3952C5.51781 10.4391 4.67274 11.2842 3.62883 11.2842ZM3.62883 5.6918C2.58492 5.6918 1.73985 4.84673 1.73985 3.80282C1.73985 2.75891 2.58492 1.91384 3.62883 1.91384C4.67274 1.91384 5.51781 2.75891 5.51781 3.80282C5.51781 4.84673 4.67274 5.6918 3.62883 5.6918ZM8.14002 17.0008H7.60563V15.3107H6.94698V14.913C7.03397 14.913 7.13339 14.913 7.20795 14.8882C7.29495 14.8757 7.36951 14.8384 7.44408 14.8012C7.51864 14.7639 7.56835 14.7017 7.61806 14.6396C7.66777 14.5775 7.69263 14.4905 7.71748 14.3911H8.14002V17.0008ZM8.14002 10.7001H7.60563V9.00994H6.94698V8.61226C7.03397 8.61226 7.13339 8.61226 7.20795 8.58741C7.29495 8.57498 7.36951 8.5377 7.44408 8.50041C7.51864 8.46313 7.56835 8.40099 7.61806 8.33886C7.66777 8.27672 7.69263 8.18973 7.71748 8.09031H8.14002V10.7001ZM8.14002 4.95858H7.60563V3.26843H6.94698V2.87075C7.03397 2.87075 7.13339 2.87075 7.20795 2.8459C7.29495 2.83347 7.36951 2.79619 7.44408 2.75891C7.51864 2.72162 7.56835 2.65949 7.61806 2.59735C7.66777 2.53521 7.69263 2.44822 7.71748 2.3488H8.14002V4.95858ZM10.7498 17.0008H8.83596C8.83596 16.8517 8.86081 16.715 8.89809 16.6031C8.9478 16.4913 8.99751 16.3919 9.07208 16.3049C9.14664 16.2179 9.23364 16.1309 9.33306 16.0563C9.43248 15.9818 9.54432 15.9072 9.65617 15.8326C9.71831 15.7954 9.76802 15.7581 9.84259 15.7084C9.90472 15.6711 9.96686 15.6214 10.0166 15.5717C10.0663 15.522 10.116 15.4722 10.1533 15.4101C10.1906 15.348 10.203 15.2734 10.203 15.1988C10.203 15.0746 10.1657 14.9751 10.0911 14.9006C10.0166 14.826 9.92958 14.7887 9.8053 14.7887C9.73074 14.7887 9.6686 14.8012 9.60646 14.8384C9.54432 14.8757 9.50704 14.9254 9.48219 14.9751C9.45733 15.0249 9.43248 15.0994 9.40762 15.174C9.3952 15.2486 9.38277 15.3107 9.38277 15.3853H8.87324C8.87324 15.2361 8.88567 15.0994 8.92295 14.9751C8.96023 14.8509 9.02237 14.739 9.09694 14.6396C9.1715 14.5402 9.27092 14.4656 9.3952 14.4159C9.51947 14.3662 9.65617 14.3413 9.8053 14.3413C9.92958 14.3413 10.0414 14.3538 10.1408 14.3911C10.2527 14.4283 10.3397 14.478 10.4267 14.5526C10.5137 14.6272 10.5758 14.7017 10.6255 14.8136C10.6752 14.9254 10.7001 15.0249 10.7001 15.1616C10.7001 15.2983 10.6752 15.4101 10.6379 15.4971C10.6007 15.5841 10.5385 15.6711 10.4764 15.7457C10.4018 15.8202 10.3273 15.8824 10.2403 15.9445C10.1533 16.0066 10.0663 16.0563 9.97929 16.1185C9.89229 16.1806 9.8053 16.2428 9.71831 16.3049C9.63132 16.367 9.55675 16.454 9.49461 16.541H10.7249V17.0008H10.7498ZM10.7498 10.7001H8.83596C8.83596 10.551 8.86081 10.4143 8.89809 10.3024C8.9478 10.1906 8.99751 10.0911 9.07208 10.0041C9.14664 9.91715 9.23364 9.83016 9.33306 9.75559C9.43248 9.68103 9.54432 9.60646 9.65617 9.5319C9.71831 9.49461 9.76802 9.45733 9.84259 9.40762C9.90472 9.37034 9.96686 9.32063 10.0166 9.27092C10.0663 9.22121 10.116 9.1715 10.1533 9.10936C10.1906 9.04722 10.203 8.97266 10.203 8.89809C10.203 8.77382 10.1657 8.6744 10.0911 8.59983C10.0166 8.52527 9.92958 8.48799 9.8053 8.48799C9.73074 8.48799 9.6686 8.50041 9.60646 8.5377C9.54432 8.57498 9.50704 8.62469 9.48219 8.6744C9.45733 8.72411 9.43248 8.79867 9.40762 8.87324C9.3952 8.9478 9.38277 9.00994 9.38277 9.08451H8.87324C8.87324 8.93538 8.88567 8.79867 8.92295 8.6744C8.96023 8.55012 9.02237 8.43828 9.09694 8.33886C9.1715 8.23944 9.27092 8.16487 9.3952 8.11516C9.51947 8.06545 9.65617 8.0406 9.8053 8.0406C9.92958 8.0406 10.0414 8.05302 10.1408 8.09031C10.2527 8.12759 10.3397 8.1773 10.4267 8.25186C10.5137 8.32643 10.5758 8.40099 10.6255 8.51284C10.6752 8.62469 10.7001 8.72411 10.7001 8.86081C10.7001 8.99751 10.6752 9.10936 10.6379 9.19635C10.6007 9.28335 10.5385 9.37034 10.4764 9.4449C10.4018 9.51947 10.3273 9.58161 10.2403 9.64375C10.1533 9.70588 10.0663 9.75559 9.97929 9.81773C9.89229 9.87987 9.8053 9.94201 9.71831 10.0041C9.63132 10.0663 9.55675 10.1533 9.49461 10.2403H10.7249V10.7001H10.7498ZM10.7498 4.95858H8.83596C8.83596 4.80944 8.86081 4.67274 8.89809 4.56089C8.9478 4.44905 8.99751 4.34963 9.07208 4.26263C9.14664 4.17564 9.23364 4.08865 9.33306 4.01408C9.43248 3.93952 9.54432 3.86495 9.65617 3.79039C9.71831 3.75311 9.76802 3.71582 9.84259 3.66611C9.90472 3.62883 9.96686 3.57912 10.0166 3.52941C10.0663 3.4797 10.116 3.42999 10.1533 3.36785C10.1906 3.30572 10.203 3.23115 10.203 3.15659C10.203 3.03231 10.1657 2.93289 10.0911 2.85833C10.0166 2.78376 9.92958 2.74648 9.8053 2.74648C9.73074 2.74648 9.6686 2.75891 9.60646 2.79619C9.54432 2.83347 9.50704 2.88318 9.48219 2.93289C9.45733 2.9826 9.43248 3.05717 9.40762 3.13173C9.3952 3.2063 9.38277 3.26843 9.38277 3.343H8.87324C8.87324 3.19387 8.88567 3.05717 8.92295 2.93289C8.96023 2.80862 9.02237 2.69677 9.09694 2.59735C9.1715 2.49793 9.27092 2.42336 9.3952 2.37365C9.51947 2.32394 9.65617 2.29909 9.8053 2.29909C9.92958 2.29909 10.0414 2.31152 10.1408 2.3488C10.2527 2.38608 10.3397 2.43579 10.4267 2.51036C10.5137 2.58492 10.5758 2.65949 10.6255 2.77133C10.6752 2.88318 10.7001 2.9826 10.7001 3.1193C10.7001 3.25601 10.6752 3.36785 10.6379 3.45485C10.6007 3.54184 10.5385 3.62883 10.4764 3.7034C10.4018 3.77796 10.3273 3.8401 10.2403 3.90224C10.1533 3.96437 10.0663 4.01408 9.97929 4.07622C9.89229 4.13836 9.8053 4.2005 9.71831 4.26263C9.63132 4.32477 9.55675 4.41176 9.49461 4.49876H10.7249V4.95858H10.7498ZM12.7506 16.5659C12.7009 16.6777 12.6263 16.7647 12.5394 16.8393C12.4524 16.9138 12.3405 16.9635 12.2287 17.0008C12.1168 17.0381 11.9925 17.0505 11.8683 17.0505C11.7191 17.0505 11.5824 17.0257 11.4706 16.9884C11.3463 16.9511 11.2469 16.889 11.1599 16.802C11.0729 16.715 11.0108 16.628 10.9611 16.5037C10.9114 16.3919 10.8989 16.2552 10.8989 16.106H11.4085C11.4085 16.1806 11.4209 16.2428 11.4457 16.3049C11.4706 16.367 11.4954 16.4167 11.5327 16.4664C11.57 16.5162 11.6197 16.5534 11.6694 16.5783C11.7191 16.6031 11.7937 16.6156 11.8683 16.6156C11.9925 16.6156 12.092 16.5783 12.1665 16.5037C12.2535 16.4292 12.2908 16.3297 12.2908 16.2055C12.2908 16.106 12.2659 16.0315 12.2287 15.9818C12.1914 15.9321 12.1417 15.8948 12.0795 15.8699C12.0174 15.8451 11.9553 15.8326 11.8807 15.8326C11.8061 15.8326 11.744 15.8326 11.6819 15.8326V15.4598C11.6819 15.4598 11.7937 15.4598 11.8683 15.4598C11.9304 15.4598 11.9925 15.435 12.0547 15.4225C12.1044 15.3977 12.1541 15.3604 12.1914 15.3231C12.2287 15.2734 12.2411 15.2237 12.2411 15.1491C12.2411 15.0373 12.2038 14.9503 12.1292 14.8882C12.0547 14.826 11.9677 14.8012 11.8683 14.8012C11.7316 14.8012 11.6321 14.8509 11.5576 14.9379C11.4954 15.0249 11.4582 15.1367 11.4582 15.2734H10.9486C10.9486 15.1367 10.9735 15.0124 11.0232 14.9006C11.0729 14.7887 11.1226 14.6893 11.2096 14.6147C11.2842 14.5402 11.3836 14.478 11.4954 14.4283C11.6073 14.3911 11.7316 14.3662 11.8558 14.3662C11.9553 14.3662 12.0671 14.3786 12.1665 14.4159C12.2659 14.4532 12.3654 14.4905 12.4524 14.5526C12.5394 14.6147 12.6015 14.6893 12.6512 14.7763C12.7009 14.8633 12.7258 14.9627 12.7258 15.087C12.7258 15.2113 12.7009 15.3231 12.6388 15.4225C12.5766 15.522 12.4896 15.5841 12.3654 15.6214C12.5145 15.6587 12.6263 15.7332 12.7009 15.8326C12.7879 15.9445 12.8252 16.0688 12.8252 16.2179C12.8252 16.3546 12.8003 16.4789 12.7506 16.5783V16.5659ZM12.7506 10.2651C12.7009 10.377 12.6263 10.464 12.5394 10.5385C12.4524 10.6131 12.3405 10.6628 12.2287 10.7001C12.1168 10.7374 11.9925 10.7498 11.8683 10.7498C11.7191 10.7498 11.5824 10.7249 11.4706 10.6877C11.3463 10.6504 11.2469 10.5882 11.1599 10.5012C11.0729 10.4143 11.0108 10.3273 10.9611 10.203C10.9114 10.0911 10.8989 9.95443 10.8989 9.8053H11.4085C11.4085 9.87987 11.4209 9.94201 11.4457 10.0041C11.4706 10.0663 11.4954 10.116 11.5327 10.1657C11.57 10.2154 11.6197 10.2527 11.6694 10.2775C11.7191 10.3024 11.7937 10.3148 11.8683 10.3148C11.9925 10.3148 12.092 10.2775 12.1665 10.203C12.2535 10.1284 12.2908 10.029 12.2908 9.90472C12.2908 9.8053 12.2659 9.73074 12.2287 9.68103C12.1914 9.63132 12.1417 9.59404 12.0795 9.56918C12.0174 9.54432 11.9553 9.5319 11.8807 9.5319C11.8061 9.5319 11.744 9.5319 11.6819 9.5319V9.15907C11.6819 9.15907 11.7937 9.15907 11.8683 9.15907C11.9304 9.15907 11.9925 9.13422 12.0547 9.12179C12.1044 9.09694 12.1541 9.05965 12.1914 9.02237C12.2287 8.97266 12.2411 8.92295 12.2411 8.84838C12.2411 8.73654 12.2038 8.64954 12.1292 8.58741C12.0547 8.52527 11.9677 8.50041 11.8683 8.50041C11.7316 8.50041 11.6321 8.55012 11.5576 8.63712C11.4954 8.72411 11.4582 8.83596 11.4582 8.97266H10.9486C10.9486 8.83596 10.9735 8.71168 11.0232 8.59983C11.0729 8.48799 11.1226 8.38857 11.2096 8.314C11.2842 8.23944 11.3836 8.1773 11.4954 8.12759C11.6073 8.09031 11.7316 8.06545 11.8558 8.06545C11.9553 8.06545 12.0671 8.07788 12.1665 8.11516C12.2659 8.15244 12.3654 8.18973 12.4524 8.25186C12.5394 8.314 12.6015 8.38857 12.6512 8.47556C12.7009 8.56255 12.7258 8.66197 12.7258 8.78625C12.7258 8.91052 12.7009 9.02237 12.6388 9.12179C12.5766 9.22121 12.4896 9.28335 12.3654 9.32063C12.5145 9.35791 12.6263 9.43248 12.7009 9.5319C12.7879 9.64375 12.8252 9.76802 12.8252 9.91715C12.8252 10.0539 12.8003 10.1781 12.7506 10.2775V10.2651ZM12.7506 4.52361C12.7009 4.63546 12.6263 4.72245 12.5394 4.79702C12.4524 4.87158 12.3405 4.92129 12.2287 4.95858C12.1168 4.99586 11.9925 5.00829 11.8683 5.00829C11.7191 5.00829 11.5824 4.98343 11.4706 4.94615C11.3463 4.90886 11.2469 4.84673 11.1599 4.75974C11.0729 4.67274 11.0108 4.58575 10.9611 4.46147C10.9114 4.34963 10.8989 4.21292 10.8989 4.06379H11.4085C11.4085 4.13836 11.4209 4.2005 11.4457 4.26263C11.4706 4.32477 11.4954 4.37448 11.5327 4.42419C11.57 4.4739 11.6197 4.51119 11.6694 4.53604C11.7191 4.56089 11.7937 4.57332 11.8683 4.57332C11.9925 4.57332 12.092 4.53604 12.1665 4.46147C12.2535 4.38691 12.2908 4.28749 12.2908 4.16321C12.2908 4.06379 12.2659 3.98923 12.2287 3.93952C12.1914 3.88981 12.1417 3.85253 12.0795 3.82767C12.0174 3.80282 11.9553 3.79039 11.8807 3.79039C11.8061 3.79039 11.744 3.79039 11.6819 3.79039V3.41756C11.6819 3.41756 11.7937 3.41756 11.8683 3.41756C11.9304 3.41756 11.9925 3.39271 12.0547 3.38028C12.1044 3.35543 12.1541 3.31814 12.1914 3.28086C12.2287 3.23115 12.2411 3.18144 12.2411 3.10688C12.2411 2.99503 12.2038 2.90804 12.1292 2.8459C12.0547 2.78376 11.9677 2.75891 11.8683 2.75891C11.7316 2.75891 11.6321 2.80862 11.5576 2.89561C11.4954 2.9826 11.4582 3.09445 11.4582 3.23115H10.9486C10.9486 3.09445 10.9735 2.97017 11.0232 2.85833C11.0729 2.74648 11.1226 2.64706 11.2096 2.57249C11.2842 2.49793 11.3836 2.43579 11.4954 2.38608C11.6073 2.3488 11.7316 2.32394 11.8558 2.32394C11.9553 2.32394 12.0671 2.33637 12.1665 2.37365C12.2659 2.41094 12.3654 2.44822 12.4524 2.51036C12.5394 2.57249 12.6015 2.64706 12.6512 2.73405C12.7009 2.82104 12.7258 2.92046 12.7258 3.04474C12.7258 3.16901 12.7009 3.28086 12.6388 3.38028C12.5766 3.4797 12.4896 3.54184 12.3654 3.57912C12.5145 3.6164 12.6263 3.69097 12.7009 3.79039C12.7879 3.90224 12.8252 4.02651 12.8252 4.17564C12.8252 4.31234 12.8003 4.43662 12.7506 4.53604V4.52361Z" fill="white"/>
</svg>
