<svg width="13" height="13" viewBox="0 0 13 13" fill="none" xmlns="http://www.w3.org/2000/svg">
<path d="M12.2366 3.95326C12.0294 3.74643 11.7485 3.63027 11.4558 3.63027C11.163 3.63027 10.8822 3.74643 10.675 3.95326L9.56758 5.06168V2.14462C9.5684 1.99903 9.54022 1.85472 9.48469 1.72013C9.42917 1.58553 9.3474 1.46334 9.24416 1.36067L8.20377 0.323424C8.10147 0.220561 7.97979 0.139011 7.84576 0.0834954C7.71174 0.02798 7.56803 -0.000398024 7.42296 4.21693e-06H1.10423C0.811457 0.000281336 0.530752 0.116709 0.323728 0.323733C0.116705 0.530756 0.000277119 0.811461 0 1.10424V11.4568C0.000554026 11.7494 0.117104 12.0298 0.324098 12.2366C0.531091 12.4434 0.811638 12.5597 1.10423 12.56H8.45916C8.75193 12.5597 9.03264 12.4433 9.23966 12.2363C9.44669 12.0292 9.56311 11.7485 9.56339 11.4558V8.18494L12.2324 5.51384C12.3352 5.41167 12.4168 5.29025 12.4727 5.15651C12.5285 5.02277 12.5574 4.87934 12.5578 4.73442C12.5582 4.5895 12.53 4.44591 12.4749 4.31188C12.4198 4.17785 12.3388 4.05599 12.2366 3.95326ZM7.36016 0.732671C7.41844 0.725428 7.4776 0.731045 7.53348 0.749128C7.58935 0.767212 7.64059 0.797321 7.68358 0.837337L8.72396 1.87772C8.76398 1.92071 8.79409 1.97195 8.81217 2.02782C8.83026 2.0837 8.83587 2.14286 8.82863 2.20114H7.36016V0.732671ZM8.83177 11.4568C8.83205 11.5057 8.82259 11.5542 8.80394 11.5994C8.78529 11.6446 8.75782 11.6857 8.72313 11.7202C8.68845 11.7547 8.64724 11.7819 8.60192 11.8003C8.5566 11.8187 8.50807 11.8279 8.45916 11.8273H1.10423C1.00652 11.8273 0.912809 11.7885 0.843716 11.7194C0.774623 11.6503 0.735806 11.5566 0.735806 11.4589V1.10424C0.735392 1.05559 0.744615 1.00734 0.762945 0.962282C0.781274 0.917219 0.808347 0.876233 0.8426 0.841688C0.876853 0.807143 0.917608 0.779724 0.962513 0.761013C1.00742 0.742302 1.05559 0.732669 1.10423 0.732671H6.62435V2.57585C6.62435 2.67356 6.66317 2.76727 6.73226 2.83637C6.80135 2.90546 6.89506 2.94428 6.99278 2.94428H8.83177V5.79749L7.74638 6.88498L7.22304 7.40831C7.18269 7.44858 7.15224 7.49766 7.13408 7.5517L6.61702 9.106C6.59548 9.17087 6.59241 9.24045 6.60815 9.30697C6.62389 9.37348 6.65783 9.4343 6.70616 9.48264C6.75449 9.53097 6.81531 9.5649 6.88183 9.58064C6.94834 9.59638 7.01792 9.59331 7.08279 9.57177L8.64442 9.04844C8.69847 9.03031 8.74756 8.99985 8.78781 8.95947L8.83282 8.91446V11.4505L8.83177 11.4568ZM8.007 7.66474L8.53033 8.18808L8.33146 8.38694L7.55065 8.64756L7.81127 7.86675L8.007 7.66474ZM9.04738 7.66474L8.52405 7.14141L10.2929 5.37045L10.8163 5.89378L9.04738 7.66474ZM11.7164 4.99365L11.3375 5.37359L10.8142 4.85026L11.1941 4.47032C11.2635 4.40092 11.3576 4.36193 11.4558 4.36193C11.5539 4.36193 11.648 4.40092 11.7174 4.47032C11.7868 4.53971 11.8258 4.63384 11.8258 4.73198C11.8258 4.83013 11.7868 4.92425 11.7174 4.99365H11.7164Z" fill="#4B4B4B"/>
<path d="M8.34298 3.63602H2.19591C2.13644 3.63312 2.07701 3.64232 2.02121 3.66308C1.96541 3.68383 1.91441 3.7157 1.87129 3.75676C1.82818 3.79782 1.79386 3.8472 1.77041 3.90192C1.74695 3.95664 1.73486 4.01556 1.73486 4.07509C1.73486 4.13463 1.74695 4.19354 1.77041 4.24826C1.79386 4.30299 1.82818 4.35238 1.87129 4.39344C1.91441 4.4345 1.96541 4.46637 2.02121 4.48712C2.07701 4.50788 2.13644 4.51708 2.19591 4.51418H8.34402C8.40348 4.51708 8.46293 4.50788 8.51873 4.48712C8.57453 4.46637 8.62552 4.4345 8.66864 4.39344C8.71175 4.35238 8.74607 4.30299 8.76952 4.24826C8.79298 4.19354 8.80507 4.13463 8.80507 4.07509C8.80507 4.01556 8.79298 3.95664 8.76952 3.90192C8.74607 3.8472 8.71175 3.79782 8.66864 3.75676C8.62552 3.7157 8.57453 3.68383 8.51873 3.66308C8.46293 3.64232 8.40348 3.63312 8.34402 3.63602H8.34298Z" fill="#4B4B4B"/>
<path d="M6.58662 5.08997H2.19061C2.07787 5.09547 1.97157 5.14414 1.89372 5.22588C1.81588 5.30762 1.77246 5.41616 1.77246 5.52904C1.77246 5.64191 1.81588 5.75047 1.89372 5.83221C1.97157 5.91395 2.07787 5.96262 2.19061 5.96812H6.58662C6.69936 5.96262 6.80566 5.91395 6.88351 5.83221C6.96135 5.75047 7.00477 5.64191 7.00477 5.52904C7.00477 5.41616 6.96135 5.30762 6.88351 5.22588C6.80566 5.14414 6.69936 5.09547 6.58662 5.08997Z" fill="#4B4B4B"/>
<path d="M6.58654 6.54471H2.19054C2.13107 6.54181 2.07164 6.55101 2.01584 6.57177C1.96004 6.59252 1.90904 6.62439 1.86592 6.66545C1.82281 6.70651 1.78849 6.75591 1.76504 6.81063C1.74159 6.86535 1.72949 6.92425 1.72949 6.98378C1.72949 7.04332 1.74159 7.10225 1.76504 7.15697C1.78849 7.21169 1.82281 7.26106 1.86592 7.30212C1.90904 7.34317 1.96004 7.37505 2.01584 7.3958C2.07164 7.41656 2.13107 7.42576 2.19054 7.42286H6.58654C6.646 7.42576 6.70544 7.41656 6.76124 7.3958C6.81704 7.37505 6.86803 7.34317 6.91115 7.30212C6.95426 7.26106 6.98858 7.21169 7.01203 7.15697C7.03549 7.10225 7.04758 7.04332 7.04758 6.98378C7.04758 6.92425 7.03549 6.86535 7.01203 6.81063C6.98858 6.75591 6.95426 6.70651 6.91115 6.66545C6.86803 6.62439 6.81704 6.59252 6.76124 6.57177C6.70544 6.55101 6.646 6.54181 6.58654 6.54471Z" fill="#4B4B4B"/>
<path d="M6.58654 7.99881H2.19054C2.13107 7.99591 2.07164 8.00511 2.01584 8.02587C1.96004 8.04662 1.90904 8.0785 1.86592 8.11955C1.82281 8.16061 1.78849 8.21001 1.76504 8.26473C1.74159 8.31945 1.72949 8.37835 1.72949 8.43789C1.72949 8.49742 1.74159 8.55635 1.76504 8.61107C1.78849 8.66579 1.82281 8.71516 1.86592 8.75622C1.90904 8.79727 1.96004 8.82915 2.01584 8.8499C2.07164 8.87066 2.13107 8.87986 2.19054 8.87696H6.58654C6.646 8.87986 6.70544 8.87066 6.76124 8.8499C6.81704 8.82915 6.86803 8.79727 6.91115 8.75622C6.95426 8.71516 6.98858 8.66579 7.01203 8.61107C7.03549 8.55635 7.04758 8.49742 7.04758 8.43789C7.04758 8.37835 7.03549 8.31945 7.01203 8.26473C6.98858 8.21001 6.95426 8.16061 6.91115 8.11955C6.86803 8.0785 6.81704 8.04662 6.76124 8.02587C6.70544 8.00511 6.646 7.99591 6.58654 7.99881Z" fill="#4B4B4B"/>
<path d="M7.22832 9.92643H4.59386C4.5344 9.92352 4.47495 9.93273 4.41915 9.95348C4.36335 9.97424 4.31236 10.0061 4.26925 10.0472C4.22614 10.0882 4.19182 10.1376 4.16836 10.1923C4.14491 10.2471 4.13281 10.306 4.13281 10.3655C4.13281 10.425 4.14491 10.484 4.16836 10.5387C4.19182 10.5934 4.22614 10.6428 4.26925 10.6838C4.31236 10.7249 4.36335 10.7568 4.41915 10.7775C4.47495 10.7983 4.5344 10.8075 4.59386 10.8046H7.22832C7.28778 10.8075 7.34721 10.7983 7.40301 10.7775C7.45881 10.7568 7.50981 10.7249 7.55292 10.6838C7.59604 10.6428 7.63036 10.5934 7.65381 10.5387C7.67727 10.484 7.68936 10.425 7.68936 10.3655C7.68936 10.306 7.67727 10.2471 7.65381 10.1923C7.63036 10.1376 7.59604 10.0882 7.55292 10.0472C7.50981 10.0061 7.45881 9.97424 7.40301 9.95348C7.34721 9.93273 7.28778 9.92352 7.22832 9.92643Z" fill="#4B4B4B"/>
</svg>
