<svg xmlns="http://www.w3.org/2000/svg" xmlns:xlink="http://www.w3.org/1999/xlink" width="134" height="134" viewBox="0 0 134 134">
  <defs>
    <style>
      .cls-1 {
        clip-path: url(#clip-Configuration);
      }

      .cls-2 {
        fill: #fff;
      }
    </style>
    <clipPath id="clip-Configuration">
      <rect width="134" height="134"/>
    </clipPath>
  </defs>
  <g id="Configuration" class="cls-1">
    <g id="Group_71" data-name="Group 71" transform="translate(-3.5 -5)">
      <path id="Path_56" data-name="Path 56" class="cls-2" d="M129.486,38.506H70.738a1.3,1.3,0,0,1-1.007-.478l-4.317-5.275L60.707,27H11.8a1.3,1.3,0,0,0-1.3,1.3v88.4a1.3,1.3,0,0,0,1.3,1.3H129.486a1.3,1.3,0,0,0,1.3-1.3V39.807A1.3,1.3,0,0,0,129.486,38.506Zm-30,50.446-3.259,5.439-.106.176-3.259,5.439a1.376,1.376,0,0,1-1.152.673c-.179,0-.392,0-.648-.021a18.257,18.257,0,0,1-3.331-.848,26.371,26.371,0,0,1-8.5,4.91,17.062,17.062,0,0,1-.935,3.072c-.114.229-.22.415-.314.566a1.379,1.379,0,0,1-1.171.642H63.925a1.379,1.379,0,0,1-1.17-.642c-.1-.151-.2-.337-.315-.566a17.71,17.71,0,0,1-.958-3.174,26.4,26.4,0,0,1-8.123-4.741,17.154,17.154,0,0,1-3.113.782c-.256.02-.469.025-.647.022a1.376,1.376,0,0,1-1.154-.672l-3.268-5.433-.106-.176L41.8,88.967a1.374,1.374,0,0,1-.053-1.334c.08-.159.186-.345.323-.561a18.966,18.966,0,0,1,2.414-2.637,26.317,26.317,0,0,1,.077-9.784,17.424,17.424,0,0,1-2.206-2.43c-.138-.216-.243-.4-.324-.561a1.377,1.377,0,0,1,.051-1.334l3.259-5.439.1-.175,3.26-5.439a1.375,1.375,0,0,1,1.152-.674c.178,0,.392,0,.647.021a17.127,17.127,0,0,1,3.128.781,26.407,26.407,0,0,1,7.723-4.457,21,21,0,0,1,1.081-3.736c.115-.229.22-.415.315-.566A1.377,1.377,0,0,1,63.925,50H76.811a1.377,1.377,0,0,1,1.171.642c.094.151.2.337.314.566a20.248,20.248,0,0,1,1.059,3.631,26.417,26.417,0,0,1,8.1,4.628,18.159,18.159,0,0,1,3.313-.847c.256-.02.469-.026.647-.023a1.376,1.376,0,0,1,1.154.672L95.838,64.7l.106.175,3.268,5.434a1.375,1.375,0,0,1,.053,1.333c-.08.159-.186.345-.323.562a19.374,19.374,0,0,1-2.45,2.671,26.261,26.261,0,0,1,.076,9.335,20.872,20.872,0,0,1,2.645,2.844c.138.217.244.4.324.561A1.377,1.377,0,0,1,99.487,88.952Z"/>
      <circle id="Ellipse_2" data-name="Ellipse 2" class="cls-2" cx="13.657" cy="13.657" r="13.657" transform="translate(56.987 65.843)"/>
    </g>
  </g>
</svg>
