<?xml version="1.0" encoding="utf-8"?>
<!-- Generator: Adobe Illustrator 24.2.0, SVG Export Plug-In . SVG Version: 6.00 Build 0)  -->
<svg version="1.1" id="Capa_1" xmlns="http://www.w3.org/2000/svg" xmlns:xlink="http://www.w3.org/1999/xlink" x="0px" y="0px"
	 viewBox="0 0 512 512" style="enable-background:new 0 0 512 512;" xml:space="preserve">
<style type="text/css">
	.st0{fill:#C8C9FB;}
	.st1{fill:#878787;}
	.st2{fill:#FFFFFF;}
</style>
<g>
	<path class="st0" d="M369.7,159.2v-80h-56v-56h-280c-8.8,0-16,7.2-16,16v432c0,8.8,7.2,16,16,16h320c8.8,0,16-7.2,16-16v-24V159.2z
		 M49.7,55.2h224v96h-224V55.2z M225.7,455.2h-176v-96h176V455.2z"/>
	<g>
		<path class="st1" d="M377.7,153.9V63.2c0-2.1-0.8-4.2-2.3-5.7l-40-40c-1.5-1.5-3.5-2.3-5.7-2.3h-296c-13.3,0-24,10.7-24,24v432
			c0,13.3,10.7,24,24,24h320c13.3,0,24-10.7,24-24v-19.9 M361.7,66.5v4.7h-40v-40h4.7L361.7,66.5z M361.7,451.3v19.9
			c0,4.4-3.6,8-8,8h-320c-4.4,0-8-3.6-8-8v-432c0-4.4,3.6-8,8-8h272v48c0,4.4,3.6,8,8,8h48v66.7"/>
		<path class="st1" d="M49.7,159.2h224c4.4,0,8-3.6,8-8v-96c0-4.4-3.6-8-8-8h-224c-4.4,0-8,3.6-8,8v96
			C41.7,155.6,45.3,159.2,49.7,159.2z M57.7,63.2h208v80h-208V63.2z"/>
		<path class="st1" d="M225.7,351.2h-176c-4.4,0-8,3.6-8,8v96c0,4.4,3.6,8,8,8h176c4.4,0,8-3.6,8-8v-96
			C233.7,354.7,230.1,351.2,225.7,351.2z M217.7,447.2h-160v-80h160V447.2z"/>
		<path class="st1" d="M41.7,199.2h192v16h-192V199.2z"/>
		<path class="st1" d="M41.7,247.2h192v16h-192V247.2z"/>
		<path class="st1" d="M41.7,295.2h192v16h-192V295.2z"/>
	</g>
</g>
<circle class="st2" cx="375.6" cy="285.4" r="108.4"/>
<g>
	<g>
		<g>
			<g>
				<path class="st1" d="M431.7,366.3l11,14.7c5.3-3.9,10.3-8.4,14.9-13.2l-13.3-12.7C440.4,359.2,436.2,363,431.7,366.3z"/>
				<path class="st1" d="M401.9,381.4l5.4,17.5c6.3-2,12.5-4.5,18.4-7.5l-8.3-16.4C412.4,377.7,407.2,379.8,401.9,381.4z"/>
				<path class="st1" d="M454.8,342.1l15.2,10.3c3.7-5.5,7-11.3,9.7-17.4l-16.7-7.6C460.7,332.5,457.9,337.5,454.8,342.1z"/>
				<polygon class="st1" points="363.8,277.5 312.4,277.5 312.4,295.9 382.2,295.9 382.2,204 363.8,204 				"/>
				<path class="st1" d="M472.2,190.3v34c-8.6-13.8-20.1-25.7-33.7-34.9c-19.5-13.2-42.3-20.2-65.9-20.2
					c-31.4,0-60.9,12.2-83.1,34.4c-22.2,22.2-34.4,51.7-34.4,83.1s12.2,60.9,34.4,83.1c22.2,22.2,51.7,34.4,83.1,34.4
					c5.1,0,10.3-0.3,15.3-1l-2.4-18.2c-4.3,0.6-8.6,0.8-12.9,0.8c-54.7,0-99.2-44.5-99.2-99.2s44.5-99.2,99.2-99.2
					c35.5,0,67.7,18.7,85.4,48.7h-31.7v18.4h64.3v-64.3H472.2z"/>
				<path class="st1" d="M471.4,294.9c-0.1,1-0.2,2-0.3,2.9l0,0c-0.5,4.6-1.4,9.3-2.5,13.8l17.8,4.6c1.7-6.4,2.8-13,3.3-19.6l0,0
					c0-0.6,0.1-1.1,0.1-1.7L471.4,294.9L471.4,294.9z"/>
			</g>
		</g>
	</g>
</g>
</svg>
