<svg xmlns="http://www.w3.org/2000/svg" xmlns:xlink="http://www.w3.org/1999/xlink" width="134" height="134" viewBox="0 0 134 134">
  <defs>
    <style>
      .cls-1 {
        clip-path: url(#clip-Currency);
      }

      .cls-2 {
        fill: #fff;
      }
    </style>
    <clipPath id="clip-Currency">
      <rect width="134" height="134"/>
    </clipPath>
  </defs>
  <g id="Currency" class="cls-1">
    <g id="Group_75" data-name="Group 75" transform="translate(-1.393 -2.934)">
      <path id="Path_61" data-name="Path 61" class="cls-2" d="M69.143,11.934a58.75,58.75,0,1,0,58.75,58.75A58.75,58.75,0,0,0,69.143,11.934Zm0,107.5a48.75,48.75,0,1,1,48.75-48.75A48.75,48.75,0,0,1,69.143,119.434Z"/>
      <path id="Path_62" data-name="Path 62" class="cls-2" d="M69.143,26.184a44.5,44.5,0,1,0,44.5,44.5A44.5,44.5,0,0,0,69.143,26.184ZM84.49,93.636a17.4,17.4,0,0,1-9.9,5.665V105H64.407V99.165a16.367,16.367,0,0,1-8.549-4,20.188,20.188,0,0,1-6.038-7.8l8.141-3.8q4.343,6.989,11.874,6.989a7.339,7.339,0,0,0,4.919-1.764,5.924,5.924,0,0,0,2.069-4.75,5.04,5.04,0,0,0-1.356-3.562A9.908,9.908,0,0,0,72.345,78.2q-1.764-.814-5.563-2.409T60.132,72.7q-8.414-4.478-8.413-13.3a13.683,13.683,0,0,1,5.259-10.889,16.409,16.409,0,0,1,7.429-3.562V38.848H74.585V45.09a14.541,14.541,0,0,1,7.836,3.731,18.379,18.379,0,0,1,5.19,6.718l-8.345,4.07q-3.733-5.9-9.77-5.9a6.881,6.881,0,0,0-4.75,1.629,5.293,5.293,0,0,0-1.831,4.139,5.087,5.087,0,0,0,.508,2.306,6.053,6.053,0,0,0,1.221,1.7,9.146,9.146,0,0,0,2.24,1.425q1.525.747,2.917,1.289t3.868,1.526q2.475.984,4.512,1.866,9.974,4.478,9.973,13.5A15.727,15.727,0,0,1,84.49,93.636Z"/>
    </g>
  </g>
</svg>
