<svg xmlns="http://www.w3.org/2000/svg" xmlns:xlink="http://www.w3.org/1999/xlink" width="134" height="134" viewBox="0 0 134 134">
  <defs>
    <style>
      .cls-1 {
        clip-path: url(#clip-Cycle_time);
      }

      .cls-2 {
        fill: #fff;
      }
    </style>
    <clipPath id="clip-Cycle_time">
      <rect width="134" height="134"/>
    </clipPath>
  </defs>
  <g id="Cycle_time" data-name="Cycle time" class="cls-1">
    <g id="Group_28" data-name="Group 28" transform="translate(-3.758 -2.866)">
      <g id="Group_27" data-name="Group 27">
        <path id="Path_21" data-name="Path 21" class="cls-2" d="M24.3,66.031A43.92,43.92,0,0,1,41.572,31.087l-.428-2.623.014,0-1.288-7.9-.015,0,0-.014-7.9,1.289,0,.014L15.2,24.593l1.289,7.9L24.971,31.1a55.425,55.425,0,0,0,6.443,76.2l5.833-10.1A43.859,43.859,0,0,1,24.3,66.031Z"/>
        <path id="Path_22" data-name="Path 22" class="cls-2" d="M121.4,61.4l0-.014.014.005,2.423-7.625-.014,0,5.144-16.188-7.624-2.423L118.854,43A55.5,55.5,0,0,0,50.743,13.151l6.016,10.42a43.993,43.993,0,0,1,54.842,34.7l2.182.693,0,.014Z"/>
        <path id="Path_23" data-name="Path 23" class="cls-2" d="M68.3,110.031a43.839,43.839,0,0,1-17.9-3.808L50,106.51l-.008-.012-6.469,4.708.009.011-.012.009,4.708,6.468.012-.008,9.995,13.733,6.468-4.708-4.347-5.973a55.535,55.535,0,0,0,62.278-43.762h-11.71A44.018,44.018,0,0,1,68.3,110.031Z"/>
      </g>
      <path id="Path_24" data-name="Path 24" class="cls-2" d="M83.855,86.111,70.339,72.6V39.268a4,4,0,1,0-8,0v34a3.922,3.922,0,0,0,.048.474,3.982,3.982,0,0,0,1.118,3.333L78.2,91.768a4,4,0,1,0,5.657-5.657Z"/>
    </g>
  </g>
</svg>
