<svg xmlns="http://www.w3.org/2000/svg" xmlns:xlink="http://www.w3.org/1999/xlink" width="134" height="134" viewBox="0 0 134 134">
  <defs>
    <style>
      .cls-1 {
        clip-path: url(#clip-dashboard);
      }

      .cls-2 {
        fill: #fff;
      }
    </style>
    <clipPath id="clip-dashboard">
      <rect width="134" height="134"/>
    </clipPath>
  </defs>
  <g id="dashboard" class="cls-1">
    <path id="Path_32" data-name="Path 32" class="cls-2" d="M71.683,23.008a58.485,58.485,0,0,0-45.891,95.983,1.431,1.431,0,0,0,1.1.509h87.582a1.433,1.433,0,0,0,1.1-.51A58.484,58.484,0,0,0,71.683,23.008Zm-2,12.02v20a25.949,25.949,0,0,0-19.094,9.609L36.4,50.452A45.9,45.9,0,0,1,69.681,35.028ZM24.931,84.5c-.087-1.157-.146-2.321-.146-3.5A45.781,45.781,0,0,1,35.1,51.981L49.377,66.256A25.869,25.869,0,0,0,45.027,84.5Zm53.75,17a10.844,10.844,0,0,1-8,4.015,10.844,10.844,0,0,1-8-4.015,10.142,10.142,0,0,1-2-8s6-25,7-27a4.024,4.024,0,0,1,3-2.19,4.024,4.024,0,0,1,3,2.19c1,2,7,27,7,27A10.142,10.142,0,0,1,78.681,101.5Zm-7-46.475v-20a45.871,45.871,0,0,1,33.254,15.162L90.761,64.36A25.943,25.943,0,0,0,71.681,55.025ZM96.544,84.5a25.9,25.9,0,0,0-4.556-18.539L106.248,51.7A45.806,45.806,0,0,1,116.785,81c0,1.179-.058,2.343-.146,3.5Z" transform="translate(-3.182 -4)"/>
  </g>
</svg>
