<svg width="24" height="24" viewBox="0 0 24 24" fill="none" xmlns="http://www.w3.org/2000/svg">
<path d="M20.7803 17.4697C20.6397 17.3291 20.4489 17.2502 20.2501 17.2502C20.0512 17.2502 19.8605 17.3291 19.7198 17.4697L18.7501 18.4395V14.25C18.7501 14.0511 18.671 13.8603 18.5304 13.7197C18.3897 13.579 18.199 13.5 18.0001 13.5C17.8011 13.5 17.6104 13.579 17.4697 13.7197C17.3291 13.8603 17.2501 14.0511 17.2501 14.25V18.4395L16.2803 17.4697C16.1389 17.3331 15.9494 17.2575 15.7528 17.2592C15.5561 17.261 15.368 17.3398 15.2289 17.4789C15.0899 17.6179 15.011 17.8061 15.0093 18.0027C15.0076 18.1993 15.0832 18.3888 15.2198 18.5302L17.4698 20.7802C17.6105 20.9209 17.8012 20.9998 18.0001 20.9998C18.1989 20.9998 18.3897 20.9209 18.5303 20.7802L20.7803 18.5302C20.9209 18.3896 20.9999 18.1989 20.9999 18C20.9999 17.8011 20.9209 17.6104 20.7803 17.4697Z" fill="white"/>
<path d="M12 9C16.5563 9 20.25 7.32107 20.25 5.25C20.25 3.17893 16.5563 1.5 12 1.5C7.44365 1.5 3.75 3.17893 3.75 5.25C3.75 7.32107 7.44365 9 12 9Z" fill="white"/>
<path d="M16 15.1625V14.0225C15.9993 13.4901 16.1876 12.9748 16.5315 12.5684C16.8754 12.162 17.3524 11.8909 17.8776 11.8036C18.4027 11.7162 18.9418 11.8182 19.3988 12.0913C19.8557 12.3645 20.2008 12.7911 20.3725 13.295C20.4183 13.2642 20.461 13.229 20.5 13.19V8C18.6475 9.545 15.37 10.2725 12.25 10.2725C9.13 10.2725 5.8525 9.545 4 8V13.19C5.335 14.4575 8.3575 15.5225 12.25 15.5225C13.5088 15.5267 14.765 15.4061 16 15.1625Z" fill="white"/>
<path d="M14.16 19.5898C13.9501 19.3818 13.7837 19.1341 13.6704 18.8611C13.5571 18.5881 13.4991 18.2954 13.5 17.9998C13.4986 17.7197 13.5521 17.4419 13.6575 17.1823C13.1175 17.2273 12.57 17.2498 12 17.2498C8.6175 17.2498 5.655 16.4848 3.75 15.2773V18.7498C3.75 21.1873 8.0025 22.4998 12 22.4998C13.5171 22.5091 15.0284 22.3123 16.4925 21.9148C16.4632 21.8919 16.4356 21.8669 16.41 21.8398L14.16 19.5898Z" fill="white"/>
</svg>
