<?xml version="1.0"?>
<svg xmlns="http://www.w3.org/2000/svg" xmlns:xlink="http://www.w3.org/1999/xlink" version="1.1" id="Capa_1" x="0px" y="0px" viewBox="0 0 512 512" style="enable-background:new 0 0 512 512;" xml:space="preserve" width="512px" height="512px" class=""><g><g>
	<g>
		<path d="M392.17,81.702H240.204c-4.357,0-8.355-1.661-10.964-4.564c-0.142-0.152-0.283-0.305-0.43-0.447l-65.874-65.329    C155.397,3.824,146.209,0,135.626,0H38.128C16.749,0,0,16.749,0,38.128v136.17c0,6.013,4.88,10.894,10.894,10.894h408.511    c6.013,0,10.894-4.88,10.894-10.894c0-6.013-4.88-10.894-10.894-10.894H21.787V38.128c0-9.162,7.179-16.34,16.34-16.34h97.498    c4.728,0,8.508,1.585,11.939,5.011l65.705,65.166c6.732,7.326,16.526,11.525,26.935,11.525H392.17    c54.06,0,98.043,43.983,98.043,98.043V392.17c0,54.06-43.983,98.043-98.043,98.043H119.83c-54.06,0-98.043-43.983-98.043-98.043    V256c0-6.013-4.88-10.894-10.894-10.894C4.88,245.106,0,249.987,0,256v136.17C0,458.245,53.755,512,119.83,512h272.34    C458.245,512,512,458.245,512,392.17V201.532C512,135.457,458.245,81.702,392.17,81.702z" data-original="#000000" class="" data-old_color="#000000" fill="#A3A3A3"/>
	</g>
</g></g> </svg>
