<svg width="24" height="28" viewBox="0 0 24 28" fill="none" xmlns="http://www.w3.org/2000/svg">
<path d="M10.6341 0.689963C7.04105 0.883217 4.0555 1.73516 2.23584 3.09066C1.66923 3.50983 1.10263 4.17124 0.901054 4.64213C0.860194 4.7374 0.789368 4.87349 0.745784 4.9497L0.664062 5.08579V13.8366C0.664062 22.2826 0.666787 22.5956 0.715819 22.8052C0.920123 23.6844 1.52758 24.4465 2.58451 25.1515C5.45021 27.0622 10.98 27.8325 15.9187 27.0078C18.5556 26.5668 20.7621 25.6605 21.9824 24.5118C22.5409 23.9865 22.8868 23.4231 23.0312 22.8052C23.0802 22.5956 23.0829 22.2826 23.0829 13.8339V5.08035L23.0012 4.94698C22.9549 4.87349 22.895 4.75917 22.8677 4.69112C22.8405 4.62308 22.7615 4.47337 22.6934 4.35361C21.6474 2.598 18.5665 1.2425 14.6439 0.812448C13.5461 0.692686 11.6692 0.635526 10.6341 0.689963ZM13.4671 1.77871C16.5698 1.98285 19.2012 2.72593 20.7621 3.83917C21.0454 4.04059 21.4894 4.4652 21.6392 4.67751C21.789 4.88709 21.9171 5.14295 21.9634 5.3226C22.0042 5.48591 21.9797 5.61384 21.8626 5.8697C21.4458 6.78152 20.1682 7.64436 18.3268 8.2595C16.8803 8.74127 15.1887 9.04612 13.3336 9.155C12.7071 9.19038 11.0399 9.19038 10.4134 9.155C6.23473 8.91003 2.82423 7.62803 1.93347 5.96496C1.7782 5.67916 1.73734 5.50224 1.78364 5.3226C1.87354 4.97964 2.10781 4.62307 2.49462 4.25562C3.14839 3.62959 4.13722 3.09338 5.42841 2.66332C7.06012 2.11895 8.71361 1.84948 11.0563 1.74061C11.4131 1.72428 13.0149 1.74877 13.4671 1.77871ZM2.02881 7.66614C3.0367 8.5208 4.69565 9.24754 6.69782 9.71026C10.2445 10.5268 14.712 10.4261 18.0435 9.45441C19.637 8.98896 21.029 8.29761 21.8435 7.5627L21.9933 7.42933L22.0015 9.26388C22.0042 10.486 21.9988 11.1474 21.9797 11.2427C21.9388 11.4278 21.7727 11.7707 21.6174 11.9721C21.3341 12.3478 20.7784 12.8078 20.2227 13.1289C17.9672 14.4246 14.2461 15.0696 10.3344 14.841C6.79316 14.6369 3.71227 13.6379 2.39383 12.2688C2.13505 11.9994 2.03426 11.8633 1.90623 11.6129C1.73734 11.2753 1.74006 11.3107 1.74006 9.28293C1.74006 7.48105 1.74006 7.43477 1.79182 7.47016C1.81906 7.49193 1.92529 7.57904 2.02881 7.66614ZM2.11053 13.4256C2.79426 13.9836 3.93564 14.5661 5.11787 14.9608C8.17697 15.9815 12.2249 16.2319 15.8915 15.6303C18.3513 15.2248 20.4897 14.3892 21.7482 13.3385L21.9933 13.1344L22.0015 14.9608C22.0042 16.1666 21.9988 16.8361 21.9797 16.9287C21.9416 17.1083 21.789 17.4241 21.6392 17.6336C21.4867 17.8487 21.0998 18.2216 20.8084 18.4366C19.2747 19.5662 16.6297 20.3201 13.4262 20.5352C12.7888 20.5787 10.9473 20.5787 10.3208 20.5379C8.41941 20.4072 6.83947 20.1187 5.42841 19.6478C4.13449 19.2178 3.14839 18.6816 2.49462 18.0555C2.20315 17.7779 2.04243 17.571 1.90623 17.3016C1.73734 16.9641 1.74006 16.9994 1.74006 14.9716V13.1208L1.81906 13.1861C1.86264 13.2215 1.9934 13.3304 2.11053 13.4256ZM2.62265 19.4872C5.38755 21.3027 10.5823 22.0812 15.3739 21.4007C17.2399 21.1367 18.9179 20.6495 20.2363 19.9908C20.9282 19.6424 21.345 19.3729 21.9062 18.8993L22.0069 18.8149V20.6604C22.0069 22.2091 22.0015 22.533 21.9661 22.6637C21.8054 23.2815 21.1979 23.9266 20.2581 24.4846C18.6727 25.4209 16.2756 26.0306 13.4262 26.2239C12.7888 26.2674 10.9473 26.2674 10.3208 26.2266C8.41941 26.096 6.83947 25.8074 5.42841 25.3366C4.13449 24.9065 3.14839 24.3703 2.49462 23.7443C2.20315 23.4666 2.04243 23.2598 1.90623 22.9903C1.73734 22.6528 1.74006 22.6882 1.74006 20.6631V18.8177L2.03153 19.0517C2.19225 19.1824 2.45921 19.3784 2.62265 19.4872Z" fill="white"/>
</svg>
