<svg xmlns="http://www.w3.org/2000/svg" width="11.381" height="11.381" viewBox="0 0 11.381 11.381">
  <path id="Path_2053" data-name="Path 2053" d="M4.754,7.56a.356.356,0,0,0,.156.294.906.906,0,0,0,.256.13c.173.025,2.151.237,3.448.374l-.093.884c-1.01-.107-3.375-.358-3.512-.383a1.71,1.71,0,0,1-.6-.27,1.245,1.245,0,0,1-.294-.281l0,0L1.977,6.218a.445.445,0,0,0-.623.635l3.3,3.238a1.393,1.393,0,0,0,.982.4h6.077v.889H5.636a2.278,2.278,0,0,1-1.6-.656L.732,7.487A1.334,1.334,0,0,1,2.6,5.583L4.013,6.97a1.254,1.254,0,0,1,.5-.5A3.6,3.6,0,0,1,8.649.581l-.624.661A2.711,2.711,0,1,0,9.4,3.67l.8-.852a3.6,3.6,0,0,1-1.22,3.555,5.242,5.242,0,0,1,2.27.924l.459.329V8.72l-.977-.7A4.359,4.359,0,0,0,8.24,7.2H5.11A.356.356,0,0,0,4.754,7.56Zm.708-4.905L4.85,3.3,6.789,5.142l3.6-3.817L9.745.715,6.755,3.883Zm0,0" transform="translate(-0.332)" fill="#fff"/>
</svg>
