<svg xmlns="http://www.w3.org/2000/svg" xmlns:xlink="http://www.w3.org/1999/xlink" width="134" height="134" viewBox="0 0 134 134">
  <defs>
    <style>
      .cls-1 {
        clip-path: url(#clip-Data_completion);
      }

      .cls-2 {
        fill: #fff;
      }
    </style>
    <clipPath id="clip-Data_completion">
      <rect width="134" height="134"/>
    </clipPath>
  </defs>
  <g id="Data_completion" data-name="Data completion" class="cls-1">
    <g id="Group_86" data-name="Group 86" transform="translate(-3.366 -3.366)">
      <path id="Path_78" data-name="Path 78" class="cls-2" d="M101.861,41.465,70.322,73a.785.785,0,0,1-1.109,0L55.337,59.128a1.96,1.96,0,0,0-2.773,0L44.67,67.021a1.963,1.963,0,0,0,0,2.774L59.1,84.225l9.28,9.28a1.96,1.96,0,0,0,2.773,0l9.28-9.28,32.094-32.094a1.96,1.96,0,0,0,0-2.773l-7.894-7.893A1.96,1.96,0,0,0,101.861,41.465Z"/>
      <path id="Path_79" data-name="Path 79" class="cls-2" d="M70.866,13.366c-.671,0-1.335.028-2,.051a57.49,57.49,0,0,0-55.5,57.449c0,.168.011.333.013.5a57.49,57.49,0,0,0,114.975,0c0-.167.012-.332.012-.5A57.5,57.5,0,0,0,70.866,13.366Zm-37,58a37,37,0,0,1,35-36.944c.663-.036,1.329-.056,2-.056a36.992,36.992,0,1,1-37,37Zm91.5-.341c0,.1-.007.21-.008.315a54.473,54.473,0,0,1-93.432,37.623l10-10A40,40,0,1,0,71.866,31.378v-15a54.564,54.564,0,0,1,53.5,54.491C125.366,70.919,125.364,70.972,125.362,71.025Z"/>
    </g>
  </g>
</svg>
