<svg id="Icon_feather-calendar" data-name="Icon feather-calendar" xmlns="http://www.w3.org/2000/svg" width="18.593" height="18.063" viewBox="0 0 18.593 18.063">
  <path id="Path_7" data-name="Path 7" d="M5.462,4.5H19.131a2.542,2.542,0,0,1,1.714.649A2.215,2.215,0,0,1,21.593,6.8V19.195a2.215,2.215,0,0,1-.748,1.654,2.542,2.542,0,0,1-1.714.649H5.462a2.542,2.542,0,0,1-1.714-.649A2.215,2.215,0,0,1,3,19.195V6.8a2.215,2.215,0,0,1,.748-1.654A2.542,2.542,0,0,1,5.462,4.5ZM19.131,20.433a1.354,1.354,0,0,0,1.443-1.238V6.8a1.354,1.354,0,0,0-1.443-1.238H5.462A1.354,1.354,0,0,0,4.019,6.8V19.195a1.354,1.354,0,0,0,1.443,1.238Z" transform="translate(-3 -3.435)" fill="#3491ff"/>
  <path id="Path_8" data-name="Path 8" d="M23.009,4.7a.521.521,0,0,1-.509-.533V2.033a.51.51,0,1,1,1.019,0v2.13A.521.521,0,0,1,23.009,4.7Z" transform="translate(-9.808 -1.5)" fill="#3491ff"/>
  <path id="Path_9" data-name="Path 9" d="M11.009,4.7a.521.521,0,0,1-.509-.533V2.033a.51.51,0,1,1,1.019,0v2.13A.521.521,0,0,1,11.009,4.7Z" transform="translate(-5.618 -1.5)" fill="#3491ff"/>
  <path id="Path_10" data-name="Path 10" d="M21.083,14.565H3.509a.533.533,0,0,1,0-1.065H21.083a.533.533,0,0,1,0,1.065Z" transform="translate(-3 -6.701)" fill="#3491ff"/>
  <path id="Path_16" data-name="Path 16" d="M.679,0H2.038a.7.7,0,0,1,.679.71.7.7,0,0,1-.679.71H.679A.7.7,0,0,1,0,.71.7.7,0,0,1,.679,0Z" transform="translate(3.184 9.564)" fill="#3491ff" opacity="0.161"/>
  <path id="Path_17" data-name="Path 17" d="M.679,0H2.038a.7.7,0,0,1,.679.71.7.7,0,0,1-.679.71H.679A.7.7,0,0,1,0,.71.7.7,0,0,1,.679,0Z" transform="translate(7.938 9.564)" fill="#3491ff" opacity="0.161"/>
  <path id="Path_18" data-name="Path 18" d="M.679,0H2.038a.7.7,0,0,1,.679.71.7.7,0,0,1-.679.71H.679A.7.7,0,0,1,0,.71.7.7,0,0,1,.679,0Z" transform="translate(12.692 9.564)" fill="#3491ff" opacity="0.161"/>
  <path id="Path_19" data-name="Path 19" d="M.679,0H2.038a.7.7,0,0,1,.679.71.7.7,0,0,1-.679.71H.679A.7.7,0,0,1,0,.71.7.7,0,0,1,.679,0Z" transform="translate(3.184 12.05)" fill="#3491ff"/>
  <path id="Path_20" data-name="Path 20" d="M.679,0H2.038a.7.7,0,0,1,.679.71.7.7,0,0,1-.679.71H.679A.7.7,0,0,1,0,.71.7.7,0,0,1,.679,0Z" transform="translate(7.938 12.05)" fill="#3491ff"/>
  <path id="Path_21" data-name="Path 21" d="M.679,0H2.038a.7.7,0,0,1,.679.71.7.7,0,0,1-.679.71H.679A.7.7,0,0,1,0,.71.7.7,0,0,1,.679,0Z" transform="translate(12.692 12.05)" fill="#3491ff"/>
  <path id="Path_22" data-name="Path 22" d="M.679,0H2.038a.7.7,0,0,1,.679.71.7.7,0,0,1-.679.71H.679A.7.7,0,0,1,0,.71.7.7,0,0,1,.679,0Z" transform="translate(3.184 14.535)" fill="#3491ff" opacity="0.161"/>
  <path id="Path_23" data-name="Path 23" d="M.679,0H2.038a.7.7,0,0,1,.679.71.7.7,0,0,1-.679.71H.679A.7.7,0,0,1,0,.71.7.7,0,0,1,.679,0Z" transform="translate(7.938 14.535)" fill="#3491ff" opacity="0.161"/>
  <path id="Path_24" data-name="Path 24" d="M.679,0H2.038a.7.7,0,0,1,.679.71.7.7,0,0,1-.679.71H.679A.7.7,0,0,1,0,.71.7.7,0,0,1,.679,0Z" transform="translate(12.692 14.535)" fill="#3491ff" opacity="0.161"/>
</svg>
