<?xml version="1.0"?>
<svg xmlns="http://www.w3.org/2000/svg" xmlns:xlink="http://www.w3.org/1999/xlink" xmlns:svgjs="http://svgjs.com/svgjs" version="1.1" width="512" height="512" x="0" y="0" viewBox="0 0 510 510" style="enable-background:new 0 0 512 512" xml:space="preserve"><g><g xmlns="http://www.w3.org/2000/svg"><path d="m510 344.5c0-24.537-19.963-44.5-44.5-44.5h-3.789l-29.999-120h-101.712v-30h-70.145c6.5-13.646 10.145-28.904 10.145-45 0-57.897-47.102-105-105-105s-105 47.103-105 105c0 16.096 3.645 31.354 10.145 45h-70.145v330h77.58c6.192 17.459 22.865 30 42.42 30s36.227-12.541 42.42-30h200.16c6.192 17.459 22.865 30 42.42 30s36.228-12.541 42.42-30h62.58zm-101.712-134.5 22.501 90h-100.789v-90zm-243.288-180c41.355 0 75 33.645 75 75s-33.645 75-75 75-75-33.645-75-75 33.645-75 75-75zm-73.404 150c18.945 18.547 44.86 30 73.404 30s54.459-11.453 73.404-30h61.596v120 60h-270v-45h225v-30h-225v-105zm28.404 300c-8.271 0-15-6.728-15-15s6.729-15 15-15 15 6.728 15 15-6.729 15-15 15zm42.42-30c-6.192-17.459-22.865-30-42.42-30s-36.228 12.541-42.42 30h-47.58v-60h270v60zm242.58 30c-8.272 0-15-6.728-15-15s6.728-15 15-15 15 6.728 15 15-6.728 15-15 15zm42.42-30c-6.192-17.459-22.865-30-42.42-30s-36.228 12.541-42.42 30h-32.58v-120h135.5c7.995 0 14.5 6.505 14.5 14.5v15.5h-30v30h30v60z" fill="#ffffff" data-original="#000000" style=""/><path d="m204 115.5-24-18v-37.5h-30v52.5l36 27z" fill="#ffffff" data-original="#000000" style=""/></g></g></svg>
