<svg width="80" height="80" viewBox="0 0 80 80" fill="none" xmlns="http://www.w3.org/2000/svg">
<path d="M5 66.2495C5 65.5865 5.26339 64.9506 5.73223 64.4818C6.20107 64.0129 6.83696 63.7495 7.5 63.7495H17.5C18.163 63.7495 18.7989 64.0129 19.2678 64.4818C19.7366 64.9506 20 65.5865 20 66.2495V77.4995H22.5V66.2495C22.5 64.9235 21.9732 63.6517 21.0355 62.714C20.0979 61.7763 18.8261 61.2495 17.5 61.2495H16.2113C17.27 60.4682 18.0552 59.3725 18.4548 58.1188C18.8544 56.8651 18.8482 55.5172 18.4369 54.2672C18.0256 53.0172 17.2302 51.929 16.1642 51.1575C15.0982 50.386 13.8159 49.9707 12.5 49.9707C11.1841 49.9707 9.90179 50.386 8.83577 51.1575C7.76975 51.929 6.97443 53.0172 6.56314 54.2672C6.15184 55.5172 6.14556 56.8651 6.54519 58.1188C6.94482 59.3725 7.72997 60.4682 8.78875 61.2495H7.5C6.17392 61.2495 4.90215 61.7763 3.96447 62.714C3.02678 63.6517 2.5 64.9235 2.5 66.2495V77.4995H5V66.2495ZM8.75 56.2495C8.75 55.5079 8.96993 54.7828 9.38199 54.1661C9.79404 53.5495 10.3797 53.0688 11.0649 52.785C11.7502 52.5012 12.5042 52.4269 13.2316 52.5716C13.959 52.7163 14.6272 53.0734 15.1517 53.5979C15.6761 54.1223 16.0333 54.7905 16.1779 55.5179C16.3226 56.2454 16.2484 56.9994 15.9645 57.6846C15.6807 58.3698 15.2001 58.9555 14.5834 59.3675C13.9667 59.7796 13.2417 59.9995 12.5 59.9995C11.5054 59.9995 10.5516 59.6044 9.84835 58.9012C9.14509 58.1979 8.75 57.2441 8.75 56.2495Z" fill="white"/>
<path d="M6.25 66.2495H8.75V77.4995H6.25V66.2495ZM16.25 66.2495H18.75V77.4995H16.25V66.2495ZM50 77.4995V66.2495C50 64.9235 49.4732 63.6517 48.5355 62.714C47.5979 61.7763 46.3261 61.2495 45 61.2495H43.7113C44.77 60.4682 45.5552 59.3725 45.9548 58.1188C46.3544 56.8651 46.3482 55.5172 45.9369 54.2672C45.5256 53.0172 44.7302 51.929 43.6642 51.1575C42.5982 50.386 41.3159 49.9707 40 49.9707C38.6841 49.9707 37.4018 50.386 36.3358 51.1575C35.2698 51.929 34.4744 53.0172 34.0631 54.2672C33.6518 55.5172 33.6456 56.8651 34.0452 58.1188C34.4448 59.3725 35.23 60.4682 36.2887 61.2495H35C33.6739 61.2495 32.4021 61.7763 31.4645 62.714C30.5268 63.6517 30 64.9235 30 66.2495V77.4995H32.5V66.2495C32.5 65.5865 32.7634 64.9506 33.2322 64.4818C33.7011 64.0129 34.337 63.7495 35 63.7495H45C45.663 63.7495 46.2989 64.0129 46.7678 64.4818C47.2366 64.9506 47.5 65.5865 47.5 66.2495V77.4995H50ZM40 59.9995C39.2583 59.9995 38.5333 59.7796 37.9166 59.3675C37.2999 58.9555 36.8193 58.3698 36.5355 57.6846C36.2516 56.9994 36.1774 56.2454 36.3221 55.5179C36.4667 54.7905 36.8239 54.1223 37.3483 53.5979C37.8728 53.0734 38.541 52.7163 39.2684 52.5716C39.9958 52.4269 40.7498 52.5012 41.4351 52.785C42.1203 53.0688 42.706 53.5495 43.118 54.1661C43.5301 54.7828 43.75 55.5079 43.75 56.2495C43.75 57.2441 43.3549 58.1979 42.6516 58.9012C41.9484 59.6044 40.9946 59.9995 40 59.9995Z" fill="white"/>
<path d="M33.75 66.2495H36.25V77.4995H33.75V66.2495ZM43.75 66.2495H46.25V77.4995H43.75V66.2495ZM72.5 61.2495H71.2113C72.27 60.4682 73.0552 59.3725 73.4548 58.1188C73.8544 56.8651 73.8482 55.5172 73.4369 54.2672C73.0256 53.0172 72.2302 51.929 71.1642 51.1575C70.0982 50.386 68.8159 49.9707 67.5 49.9707C66.1841 49.9707 64.9018 50.386 63.8358 51.1575C62.7698 51.929 61.9744 53.0172 61.5631 54.2672C61.1518 55.5172 61.1456 56.8651 61.5452 58.1188C61.9448 59.3725 62.73 60.4682 63.7887 61.2495H62.5C61.1739 61.2495 59.9021 61.7763 58.9645 62.714C58.0268 63.6517 57.5 64.9235 57.5 66.2495V77.4995H60V66.2495C60 65.5865 60.2634 64.9506 60.7322 64.4818C61.2011 64.0129 61.837 63.7495 62.5 63.7495H72.5C73.163 63.7495 73.7989 64.0129 74.2678 64.4818C74.7366 64.9506 75 65.5865 75 66.2495V77.4995H77.5V66.2495C77.5 64.9235 76.9732 63.6517 76.0355 62.714C75.0979 61.7763 73.8261 61.2495 72.5 61.2495ZM67.5 59.9995C66.7583 59.9995 66.0333 59.7796 65.4166 59.3675C64.7999 58.9555 64.3193 58.3698 64.0355 57.6846C63.7516 56.9994 63.6774 56.2454 63.8221 55.5179C63.9667 54.7905 64.3239 54.1223 64.8484 53.5979C65.3728 53.0734 66.041 52.7163 66.7684 52.5716C67.4958 52.4269 68.2498 52.5012 68.9351 52.785C69.6203 53.0688 70.206 53.5495 70.618 54.1661C71.0301 54.7828 71.25 55.5079 71.25 56.2495C71.25 57.2441 70.8549 58.1979 70.1516 58.9012C69.4484 59.6044 68.4946 59.9995 67.5 59.9995Z" fill="white"/>
<path d="M61.25 66.2498H63.75V77.4998H61.25V66.2498ZM71.25 66.2498H73.75V77.4998H71.25V66.2498ZM26.25 26.2498C26.25 26.4655 26.3059 26.6775 26.4121 26.8652C26.5184 27.0529 26.6714 27.2099 26.8563 27.321L39.3563 34.821C39.5507 34.9378 39.7732 34.9995 40 34.9995C40.2268 34.9995 40.4493 34.9378 40.6437 34.821L53.1437 27.321C53.3286 27.2099 53.4816 27.0529 53.5879 26.8652C53.6941 26.6775 53.75 26.4655 53.75 26.2498V11.2498C53.75 11.0341 53.6941 10.8221 53.5879 10.6343C53.4816 10.4466 53.3286 10.2896 53.1437 10.1785L40.6437 2.67851C40.4493 2.56171 40.2268 2.5 40 2.5C39.7732 2.5 39.5507 2.56171 39.3563 2.67851L26.8563 10.1785C26.6714 10.2896 26.5184 10.4466 26.4121 10.6343C26.3059 10.8221 26.25 11.0341 26.25 11.2498V26.2498ZM51.25 25.5423L41.25 31.5423V20.4098L51.25 13.611V25.5423ZM40 5.20726L50.18 11.316L40 18.236L29.82 11.316L40 5.20726ZM28.75 13.611L38.75 20.4098V31.5423L28.75 25.5423V13.611Z" fill="white"/>
<path d="M61.25 28.1247C61.2096 26.9722 60.9325 25.8404 60.436 24.7996C59.9395 23.7588 59.2341 22.8312 58.3638 22.0747L56.6362 23.8747C57.2627 24.3989 57.7739 25.0472 58.1377 25.7786C58.5015 26.51 58.71 27.3088 58.75 28.1247C58.75 33.206 50.1637 37.4997 40 37.4997C29.8363 37.4997 21.25 33.206 21.25 28.1247C21.29 27.3088 21.4985 26.51 21.8623 25.7786C22.2261 25.0472 22.7373 24.3989 23.3638 23.8747L21.6363 22.0747C20.7659 22.8312 20.0605 23.7588 19.564 24.7996C19.0675 25.8404 18.7904 26.9722 18.75 28.1247C18.75 34.7835 28.0837 39.9997 40 39.9997C51.9162 39.9997 61.25 34.7835 61.25 28.1247ZM38.75 42.4997H41.25V47.4997H38.75V42.4997ZM11.5 45.4997L19 35.4997L21 36.9997L13.5 46.9997L11.5 45.4997ZM59 36.9997L61 35.4997L68.5 45.4997L66.5 46.9997L59 36.9997Z" fill="white"/>
</svg>
