<?xml version="1.0"?>
<svg xmlns="http://www.w3.org/2000/svg" height="512px" viewBox="0 0 512 512" width="512px"><g><path d="m136.015625 317c0-24.8125-20.183594-45-44.992187-45-24.8125 0-44.996094 20.1875-44.996094 45s20.183594 45 44.996094 45c24.808593 0 44.992187-20.1875 44.992187-45zm-44.996094 15c-8.269531 0-14.996093-6.730469-14.996093-15s6.726562-15 14.996093-15 15 6.730469 15 15-6.726562 15-15 15zm0 0" data-original="#000000" class="active-path" data-old_color="#000000" fill="#4A555F"/><path d="m308.992188 263.5c0-28.949219-23.546876-52.5-52.492188-52.5s-52.492188 23.550781-52.492188 52.5 23.546876 52.5 52.492188 52.5 52.492188-23.550781 52.492188-52.5zm-52.492188 22.5c-12.40625 0-22.496094-10.09375-22.496094-22.5s10.089844-22.5 22.496094-22.5 22.496094 10.09375 22.496094 22.5-10.089844 22.5-22.496094 22.5zm0 0" data-original="#000000" class="active-path" data-old_color="#000000" fill="#4A555F"/><path d="m466.972656 317c0-24.8125-20.183594-45-44.992187-45-24.8125 0-44.996094 20.1875-44.996094 45s20.183594 45 44.996094 45c24.808593 0 44.992187-20.1875 44.992187-45zm-44.996094 15c-8.269531 0-14.996093-6.730469-14.996093-15s6.726562-15 14.996093-15c8.269532 0 15 6.730469 15 15s-6.726562 15-15 15zm0 0" data-original="#000000" class="active-path" data-old_color="#000000" fill="#4A555F"/><path d="m457.007812 0h-402.015624c-30.320313 0-54.992188 24.671875-54.992188 55v442c0 8.285156 6.714844 15 14.996094 15h482.007812c8.28125 0 14.996094-6.714844 14.996094-15v-442c0-30.328125-24.671875-55-54.992188-55zm-306.992187 482h-119.988281v-64c0-14.335938 11.664062-26 26-26h67.988281c14.335937 0 26 11.664062 26 26zm180.972656 0h-149.976562v-110c0-14.335938 11.660156-26 25.996093-26h97.984376c14.335937 0 26 11.664062 26 26v110zm150.984375 0h-119.988281v-64c0-14.335938 11.664063-26 26-26h67.988281c14.335938 0 26 11.664062 26 26zm-93.988281-120c-9.820313 0-19.050781 2.546875-27.082031 7.003906-1.558594-29.488281-26.039063-53.003906-55.910156-53.003906-10.132813 0-87.535157 0-97.984376 0-29.871093 0-54.351562 23.515625-55.910156 53.003906-16.292968-9.039062-22.0625-7.003906-95.070312-7.003906-9.394532 0-18.25 2.335938-26.03125 6.441406v-217.441406h452.007812v217.441406c-15.695312-8.277344-20.984375-6.441406-94.019531-6.441406zm-332.992187-332h402.015624c13.78125 0 24.996094 11.214844 24.996094 25v66h-452.007812v-66c0-13.785156 11.214844-25 24.996094-25zm0 0" data-original="#000000" class="active-path" data-old_color="#000000" fill="#4A555F"/><path d="m450.976562 76c0 8.285156-6.714843 15-15 15-8.285156 0-15-6.714844-15-15s6.714844-15 15-15c8.285157 0 15 6.714844 15 15zm0 0" data-original="#000000" class="active-path" data-old_color="#000000" fill="#4A555F"/><path d="m390.984375 76c0 8.285156-6.714844 15-15 15s-15-6.714844-15-15 6.714844-15 15-15 15 6.714844 15 15zm0 0" data-original="#000000" class="active-path" data-old_color="#000000" fill="#4A555F"/><path d="m330.992188 76c0 8.285156-6.714844 15-15 15-8.285157 0-15-6.714844-15-15s6.714843-15 15-15c8.285156 0 15 6.714844 15 15zm0 0" data-original="#000000" class="active-path" data-old_color="#000000" fill="#4A555F"/></g> </svg>
