<svg width="28" height="22" viewBox="0 0 28 22" fill="none" xmlns="http://www.w3.org/2000/svg">
<path d="M25.0695 15.8438H7.89983C7.3009 15.8445 6.72675 16.0738 6.30325 16.4813C5.87972 16.8889 5.64145 17.4413 5.64062 18.0177V19.7567C5.64145 20.333 5.87972 20.8855 6.30325 21.293C6.72675 21.7005 7.3009 21.9298 7.89983 21.9306H25.0695C25.6685 21.9299 26.2428 21.7007 26.6663 21.2932C27.0899 20.8856 27.3281 20.333 27.3287 19.7567V18.0177C27.3279 17.4413 27.0896 16.8889 26.6661 16.4813C26.2426 16.0738 25.6685 15.8445 25.0695 15.8438ZM26.4251 19.7567C26.4247 20.1025 26.2817 20.434 26.0276 20.6785C25.7734 20.9231 25.4289 21.0606 25.0695 21.0611H7.89983C7.54044 21.0606 7.19592 20.9231 6.94179 20.6785C6.68766 20.434 6.54468 20.1025 6.54424 19.7567V18.0177C6.54468 17.6718 6.68766 17.3403 6.94179 17.0958C7.19592 16.8513 7.54044 16.7137 7.89983 16.7132H25.0695C25.4289 16.7137 25.7734 16.8513 26.0276 17.0958C26.2817 17.3403 26.4247 17.6718 26.4251 18.0177V19.7567Z" fill="white"/>
<path d="M21.4598 9.75781C21.3399 9.75781 21.2249 9.80362 21.1402 9.88518C21.0554 9.96675 21.0078 10.0774 21.0078 10.1927V16.2795C21.011 16.3928 21.0601 16.5003 21.1444 16.5793C21.2288 16.6583 21.3419 16.7025 21.4596 16.7025C21.5773 16.7025 21.6904 16.6583 21.7748 16.5793C21.8592 16.5003 21.9082 16.3928 21.9114 16.2795V10.1927C21.9114 10.0774 21.8638 9.96685 21.7792 9.88531C21.6945 9.80375 21.5796 9.75788 21.4598 9.75781Z" fill="white"/>
<path d="M14.2254 19.323C14.475 19.323 14.6774 19.1282 14.6774 18.888C14.6774 18.6478 14.475 18.4531 14.2254 18.4531C13.9758 18.4531 13.7734 18.6478 13.7734 18.888C13.7734 19.1282 13.9758 19.323 14.2254 19.323Z" fill="white"/>
<path d="M16.9364 19.323C17.186 19.323 17.3883 19.1282 17.3883 18.888C17.3883 18.6478 17.186 18.4531 16.9364 18.4531C16.6868 18.4531 16.4844 18.6478 16.4844 18.888C16.4844 19.1282 16.6868 19.323 16.9364 19.323Z" fill="white"/>
<path d="M24.17 18.4533H19.6519C19.5915 18.4517 19.5314 18.4617 19.4752 18.4829C19.4189 18.504 19.3676 18.5358 19.3243 18.5763C19.281 18.6168 19.2466 18.6653 19.2231 18.7189C19.1996 18.7724 19.1875 18.8299 19.1875 18.888C19.1875 18.9462 19.1996 19.0037 19.2231 19.0572C19.2466 19.1108 19.281 19.1593 19.3243 19.1998C19.3676 19.2403 19.4189 19.2721 19.4752 19.2932C19.5314 19.3143 19.5915 19.3244 19.6519 19.3228H24.1703C24.2307 19.3244 24.2908 19.3143 24.3471 19.2932C24.4034 19.2721 24.4546 19.2403 24.498 19.1998C24.5412 19.1593 24.5757 19.1108 24.5992 19.0572C24.6227 19.0037 24.6347 18.9462 24.6347 18.888C24.6347 18.8299 24.6227 18.7724 24.5992 18.7189C24.5757 18.6653 24.5412 18.6168 24.498 18.5763C24.4546 18.5358 24.4034 18.504 24.3471 18.4829C24.2908 18.4617 24.2304 18.4517 24.17 18.4533Z" fill="white"/>
<path d="M20.0991 10.1961C20.0986 10.0248 20.1335 9.85498 20.2015 9.69664C20.2696 9.53826 20.3696 9.39444 20.4958 9.27348C20.5378 9.23309 20.571 9.18517 20.5938 9.13244C20.6165 9.07966 20.6282 9.02313 20.6282 8.96603C20.6282 8.90894 20.6165 8.8524 20.5938 8.79963C20.571 8.74689 20.5378 8.69897 20.4958 8.65859C20.4539 8.6182 20.404 8.5862 20.3492 8.56434C20.2944 8.54248 20.2357 8.53125 20.1763 8.53125C20.117 8.53125 20.0582 8.54248 20.0034 8.56434C19.9486 8.5862 19.8987 8.6182 19.8568 8.65859C19.4332 9.06642 19.1953 9.61939 19.1953 10.196C19.1953 10.7726 19.4332 11.3255 19.8568 11.7334C19.9418 11.8146 20.0568 11.8602 20.1767 11.8602C20.2359 11.8605 20.2947 11.8494 20.3495 11.8277C20.4043 11.8059 20.454 11.7739 20.4958 11.7334C20.5805 11.6518 20.6281 11.5412 20.6281 11.4259C20.6281 11.3106 20.5805 11.2 20.4958 11.1185C20.3697 10.9975 20.2697 10.8538 20.2016 10.6955C20.1335 10.5372 20.0987 10.3675 20.0991 10.1961Z" fill="white"/>
<path d="M23.0526 8.65859C23.0107 8.6182 22.9609 8.5862 22.906 8.56434C22.8512 8.54248 22.7925 8.53125 22.7331 8.53125C22.6738 8.53125 22.615 8.54248 22.5602 8.56434C22.5054 8.5862 22.4556 8.6182 22.4136 8.65859C22.3716 8.69897 22.3384 8.74689 22.3156 8.79963C22.293 8.8524 22.2812 8.90894 22.2812 8.96603C22.2812 9.02313 22.293 9.07966 22.3156 9.13244C22.3384 9.18517 22.3716 9.23309 22.4136 9.27348C22.5395 9.39464 22.6394 9.53849 22.7076 9.6968C22.7758 9.85511 22.8108 10.0248 22.8108 10.1961C22.8108 10.3675 22.7758 10.5372 22.7076 10.6955C22.6394 10.8538 22.5395 10.9976 22.4136 11.1188C22.3289 11.2004 22.2813 11.3111 22.2814 11.4265C22.2814 11.5419 22.3291 11.6525 22.4139 11.734C22.4988 11.8156 22.6138 11.8613 22.7337 11.8613C22.8536 11.8612 22.9686 11.8153 23.0533 11.7337C23.4768 11.3259 23.7148 10.7729 23.7148 10.1963C23.7148 9.61972 23.4768 9.06675 23.0533 8.65892L23.0526 8.65859Z" fill="white"/>
<path d="M19.2185 8.04691C19.3033 7.96538 19.3509 7.85479 19.3509 7.73947C19.3509 7.62419 19.3033 7.51359 19.2185 7.43202C19.1338 7.35049 19.0189 7.30469 18.899 7.30469C18.7792 7.30469 18.6643 7.35049 18.5795 7.43202C17.8182 8.16656 17.3906 9.16164 17.3906 10.1991C17.3906 11.2365 17.8182 12.2315 18.5795 12.966C18.6215 13.0064 18.6713 13.0385 18.7261 13.0603C18.7809 13.0821 18.8397 13.0934 18.899 13.0934C18.9584 13.0934 19.0171 13.0821 19.072 13.0603C19.1268 13.0385 19.1766 13.0064 19.2185 12.966C19.2605 12.9257 19.2938 12.8777 19.3165 12.825C19.3392 12.7723 19.3509 12.7157 19.3509 12.6586C19.3509 12.6015 19.3392 12.545 19.3165 12.4922C19.2938 12.4395 19.2605 12.3915 19.2185 12.3511C18.6265 11.7798 18.2941 11.0059 18.2941 10.1991C18.2941 9.39221 18.6265 8.61828 19.2185 8.04691Z" fill="white"/>
<path d="M24.3339 7.43202C24.2491 7.35049 24.1342 7.30469 24.0144 7.30469C23.8945 7.30469 23.7796 7.35049 23.6949 7.43202C23.6101 7.51359 23.5625 7.62419 23.5625 7.73947C23.5625 7.85479 23.6101 7.96538 23.6949 8.04691C24.2869 8.61828 24.6193 9.39221 24.6193 10.1991C24.6193 11.0059 24.2869 11.7798 23.6949 12.3511C23.6529 12.3915 23.6196 12.4395 23.5969 12.4922C23.5742 12.545 23.5625 12.6015 23.5625 12.6586C23.5625 12.7157 23.5742 12.7723 23.5969 12.825C23.6196 12.8777 23.6529 12.9257 23.6949 12.966C23.7368 13.0064 23.7866 13.0385 23.8414 13.0603C23.8962 13.0821 23.955 13.0934 24.0144 13.0934C24.0737 13.0934 24.1325 13.0821 24.1873 13.0603C24.2421 13.0385 24.2919 13.0064 24.3339 12.966C25.0952 12.2315 25.5228 11.2365 25.5228 10.1991C25.5228 9.16164 25.0952 8.16656 24.3339 7.43202Z" fill="white"/>
<path d="M17.9418 6.81255C18.0265 6.73101 18.0741 6.62042 18.0741 6.50511C18.0741 6.38979 18.0265 6.2792 17.9418 6.19766C17.857 6.11612 17.7421 6.07031 17.6222 6.07031C17.5024 6.07031 17.3875 6.11612 17.3027 6.19766C16.2033 7.25839 15.5859 8.69536 15.5859 10.1934C15.5859 11.6915 16.2033 13.1285 17.3027 14.1892C17.3875 14.2708 17.5024 14.3166 17.6222 14.3166C17.7421 14.3166 17.857 14.2708 17.9418 14.1892C18.0265 14.1077 18.0741 13.9971 18.0741 13.8818C18.0741 13.7665 18.0265 13.6559 17.9418 13.5744C17.0117 12.6768 16.4894 11.461 16.4894 10.1934C16.4894 8.92596 17.0117 7.71014 17.9418 6.81255Z" fill="white"/>
<path d="M25.6073 6.19766C25.5653 6.15729 25.5156 6.12526 25.4607 6.10341C25.4059 6.08156 25.3471 6.07031 25.2878 6.07031C25.2285 6.07031 25.1697 6.08156 25.1149 6.10341C25.0601 6.12526 25.0102 6.15729 24.9683 6.19766C24.9263 6.23804 24.893 6.28597 24.8704 6.33872C24.8476 6.39147 24.8359 6.44801 24.8359 6.50511C24.8359 6.5622 24.8476 6.61874 24.8704 6.67149C24.893 6.72425 24.9263 6.77218 24.9683 6.81255C25.8989 7.71021 26.4215 8.92635 26.4215 10.1943C26.4215 11.4622 25.8989 12.6784 24.9683 13.576C24.8835 13.6575 24.8359 13.7681 24.8359 13.8834C24.8359 13.9988 24.8835 14.1094 24.9683 14.1909C25.053 14.2724 25.168 14.3183 25.2878 14.3183C25.4077 14.3183 25.5226 14.2724 25.6073 14.1909C26.7071 13.1301 27.3248 11.6928 27.3248 10.1943C27.3248 8.69582 26.7071 7.25852 25.6073 6.19766Z" fill="white"/>
<path fill-rule="evenodd" clip-rule="evenodd" d="M11.4265 13.1925C11.6233 13.3818 11.89 13.4881 12.1682 13.4881H13.0172V17.5445C13.0172 17.7056 12.984 17.8651 12.9195 18.0138C12.8551 18.1625 12.7606 18.2974 12.6416 18.4108C12.5226 18.5242 12.3815 18.6137 12.2263 18.6742C12.0711 18.7348 11.905 18.7651 11.7376 18.7634H1.9288C1.76254 18.7634 1.59792 18.7319 1.44434 18.6706C1.29076 18.6093 1.15125 18.5195 1.03378 18.4063C0.916307 18.2931 0.823189 18.1587 0.759751 18.0108C0.696313 17.8629 0.663796 17.7045 0.664064 17.5445V13.4937H1.46876C1.74694 13.4937 2.01372 13.3874 2.21041 13.1982C2.40711 13.0089 2.51761 12.7522 2.51761 12.4845C2.51761 12.2168 2.40711 11.9601 2.21041 11.7708C2.01372 11.5816 1.74694 11.4752 1.46876 11.4752H0.664064V4.39844H13.0172V11.4696H12.1682C11.89 11.4696 11.6233 11.576 11.4265 11.7652C11.2298 11.9545 11.1193 12.2112 11.1193 12.4789C11.1193 12.7466 11.2298 13.0033 11.4265 13.1925ZM2.42281 6.07127H11.4129V10.0601H2.42281V6.07127ZM8.33835 14.1594H7.65834L7.70292 14.1735H6.10663C6.12924 14.3251 6.18462 14.4704 6.2692 14.6002C6.34078 14.7051 6.43839 14.7913 6.55321 14.851C6.66803 14.9106 6.79645 14.9419 6.92692 14.9419C7.05741 14.9419 7.18584 14.9106 7.30066 14.851C7.41548 14.7913 7.51308 14.7051 7.58463 14.6002H8.2792C8.17982 14.8646 7.99633 15.0921 7.75484 15.2504C7.51337 15.4086 7.22616 15.4897 6.93405 15.4818C6.56174 15.483 6.20266 15.3489 5.92864 15.1063C5.65463 14.8638 5.48586 14.5306 5.45605 14.1735V14.0739C5.44148 13.9415 5.44148 13.808 5.45605 13.6756H7.67349C7.62286 13.509 7.51797 13.3624 7.37425 13.2574C7.23056 13.1524 7.05563 13.0946 6.8752 13.0924H6.68291V12.5236H7.03748C7.25759 12.5324 7.47153 12.5961 7.65834 12.7084C7.83475 12.8126 7.98643 12.9513 8.10355 13.1155C8.2207 13.2797 8.3007 13.4657 8.33835 13.6615V13.8323C8.34575 13.9412 8.34575 14.0505 8.33835 14.1594ZM6.28406 12.6375L6.5352 13.1637C6.37577 13.2344 6.24566 13.3547 6.16577 13.5051L5.55977 13.3344C5.69624 13.0193 5.95655 12.7688 6.28406 12.6375Z" fill="white"/>
<path fill-rule="evenodd" clip-rule="evenodd" d="M11.5698 0.335938H2.13949C1.7449 0.339195 1.3678 0.493123 1.09112 0.763874C0.814448 1.03462 0.660853 1.40002 0.664113 1.77973V3.82094H13.0431V1.77973C13.0464 1.40036 12.8931 1.03526 12.6169 0.764561C12.3406 0.493868 11.9641 0.339711 11.5698 0.335938ZM9.72277 1.88643C9.78911 1.9522 9.82926 2.03832 9.83619 2.12971L9.8429 2.12915C9.85268 2.18104 9.85129 2.23431 9.83882 2.28566C9.82638 2.33702 9.8031 2.38538 9.7705 2.42775C9.73787 2.47012 9.69655 2.50561 9.64912 2.53203C9.60169 2.55845 9.54913 2.57523 9.49471 2.58135C9.44028 2.58748 9.3851 2.5828 9.33263 2.56761C9.28013 2.55243 9.23145 2.52706 9.18955 2.49307C9.14766 2.45907 9.11342 2.41718 9.08901 2.36997C9.06459 2.32277 9.05046 2.27124 9.04752 2.21858C9.04009 2.16126 9.04563 2.10306 9.06384 2.04801C9.08204 1.99296 9.11243 1.94236 9.15293 1.89971C9.19343 1.85707 9.24307 1.82339 9.2984 1.80099C9.35375 1.7786 9.41348 1.76804 9.47347 1.77003C9.56822 1.77946 9.65646 1.82067 9.72277 1.88643ZM9.21737 2.17092C9.21737 2.31054 9.28992 2.43053 9.44404 2.43053C9.47688 2.42836 9.5089 2.41986 9.53821 2.40552C9.56754 2.39118 9.59356 2.3713 9.61471 2.34707C9.63587 2.32284 9.65174 2.29475 9.66136 2.26448C9.67097 2.23422 9.67418 2.2024 9.67071 2.17092C9.67528 2.13983 9.67284 2.10815 9.66351 2.07805C9.65419 2.04795 9.63823 2.02014 9.6167 1.99653C9.59516 1.97292 9.56862 1.95406 9.53882 1.94124C9.50901 1.92842 9.4767 1.92194 9.44404 1.92226C9.37989 1.92672 9.32013 1.95531 9.27771 2.00185C9.23529 2.04839 9.21362 2.10913 9.21737 2.17092ZM5.36466 2.59626V2.00081L5.12663 2.40198L4.87957 1.99632V2.59598H4.71408V1.79559H4.96784L5.1243 2.07594L5.27376 1.78578H5.52519V2.58617L5.36466 2.59626ZM6.01956 2.60043C5.91771 2.60258 5.81906 2.56629 5.74468 2.49933C5.6703 2.43237 5.62613 2.34006 5.62158 2.24215C5.61418 2.18519 5.61963 2.12736 5.63758 2.07262C5.65552 2.01787 5.68553 1.96749 5.72553 1.92492C5.76557 1.88234 5.81466 1.84857 5.86946 1.82591C5.92426 1.80324 5.98352 1.79222 6.04316 1.79359C6.13945 1.80075 6.22983 1.8411 6.29768 1.90723C6.36554 1.97335 6.40636 2.06082 6.41259 2.15356C6.42337 2.20861 6.42127 2.26529 6.40644 2.31946C6.39161 2.37364 6.36446 2.42397 6.3269 2.46678C6.28935 2.5096 6.24236 2.54383 6.18936 2.567C6.13633 2.59016 6.07865 2.60168 6.02044 2.60071L6.01956 2.60043ZM6.01956 2.45437C6.05237 2.45221 6.08439 2.4437 6.11373 2.42936C6.14304 2.41502 6.16905 2.39514 6.1902 2.37091C6.21136 2.34668 6.22723 2.31859 6.23685 2.28833C6.24649 2.25806 6.24967 2.22624 6.24623 2.19477C6.25043 2.16384 6.24769 2.13241 6.23822 2.10258C6.22872 2.07276 6.2127 2.04524 6.1912 2.02189C6.16972 1.99853 6.14327 1.97988 6.11367 1.96719C6.08407 1.95451 6.05196 1.94808 6.01956 1.94834C5.95558 1.95224 5.89583 1.98035 5.85335 2.02653C5.81087 2.07271 5.78914 2.1332 5.79289 2.19477C5.79056 2.33438 5.86544 2.45437 6.01956 2.45437ZM6.51388 2.59399V1.7936H6.68845V2.44793H7.07104V2.59399H6.51388ZM7.17527 1.79138V2.59177L7.486 2.59317C7.53624 2.59348 7.58591 2.58305 7.63147 2.56261C7.67619 2.54314 7.7159 2.51442 7.74785 2.47851C7.77988 2.44021 7.80443 2.3966 7.82029 2.34983C7.83717 2.29526 7.8456 2.23857 7.84531 2.18162C7.84653 2.12585 7.83667 2.07037 7.81622 2.01818C7.79946 1.97234 7.77243 1.93061 7.73708 1.89595C7.68654 1.85258 7.62658 1.82067 7.56158 1.80258C7.49659 1.78448 7.42821 1.78065 7.36147 1.79138H7.17527ZM7.66638 2.1819C7.66638 2.29516 7.62769 2.44571 7.48745 2.45664L7.42432 2.46561C7.3972 2.46797 7.36994 2.46797 7.34285 2.46561V1.93996H7.47872C7.53156 1.94152 7.58177 1.96259 7.61896 1.99884C7.63871 2.02157 7.65265 2.04846 7.65969 2.07733C7.66516 2.11192 7.6674 2.14692 7.66638 2.1819ZM8.79284 2.57264L8.43759 2.03382V2.57236H8.27466V1.77225H8.45796L8.79284 2.27688V1.77001H8.95577V2.5704L8.79284 2.57264ZM7.96955 1.79919C7.98908 1.78037 8.01558 1.76979 8.04322 1.76979C8.07066 1.77036 8.09678 1.78112 8.11619 1.79982C8.1356 1.81852 8.14677 1.84372 8.14738 1.87015C8.14738 1.89677 8.13638 1.9223 8.11686 1.94112C8.09734 1.95994 8.07083 1.97052 8.04322 1.97052C8.01558 1.97052 7.98908 1.95994 7.96955 1.94112C7.95003 1.9223 7.93906 1.89677 7.93906 1.87015C7.93906 1.84354 7.95003 1.81801 7.96955 1.79919ZM8.13139 2.00959L7.95711 2.00994L7.95833 2.57259L8.13261 2.57224L8.13139 2.00959ZM4.00223 1.81776L4.07205 1.9683C4.02841 1.98892 3.9928 2.02254 3.97051 2.06418L3.79857 2.01848C3.83845 1.92967 3.91099 1.85818 4.00223 1.81776ZM4.39245 2.24718H4.5827C4.58605 2.21671 4.58605 2.18598 4.5827 2.15551V2.10981C4.57128 2.05452 4.54832 2.00204 4.51522 1.95554C4.48212 1.90904 4.43956 1.86949 4.39012 1.83927C4.33604 1.80728 4.27434 1.78922 4.21094 1.78685C4.17866 1.78239 4.14588 1.78239 4.11363 1.78685C4.11363 1.78685 4.13169 1.9374 4.13169 1.94384C4.149 1.94157 4.16654 1.94157 4.18384 1.94384C4.23562 1.94239 4.28634 1.95803 4.32757 1.98818C4.36882 2.01832 4.39807 2.06115 4.41051 2.10953H3.77596C3.77036 2.14672 3.77036 2.18448 3.77596 2.22167V2.24774C3.78181 2.3488 3.82849 2.44366 3.90599 2.5121C3.98348 2.58054 4.08569 2.61716 4.19084 2.61415C4.27253 2.61649 4.35288 2.59392 4.42045 2.54966C4.48801 2.5054 4.53929 2.44172 4.56697 2.36773H4.36972C4.35017 2.39679 4.32331 2.42062 4.29164 2.43699C4.25994 2.45337 4.22446 2.46175 4.18851 2.46136C4.15171 2.46275 4.1152 2.45483 4.08257 2.4384C4.04997 2.42197 4.02241 2.39761 4.00263 2.36773C3.97801 2.33043 3.96175 2.28861 3.95485 2.24494H4.40818L4.39245 2.24718Z" fill="white"/>
</svg>
