<svg width="40" height="40" viewBox="0 0 40 40" fill="none" xmlns="http://www.w3.org/2000/svg">
<path d="M31.0695 24.8438H13.8998C13.3009 24.8445 12.7267 25.0738 12.3033 25.4813C11.8797 25.8889 11.6414 26.4413 11.6406 27.0177V28.7567C11.6414 29.333 11.8797 29.8855 12.3033 30.293C12.7267 30.7005 13.3009 30.9298 13.8998 30.9306H31.0695C31.6685 30.9299 32.2428 30.7007 32.6663 30.2932C33.0899 29.8856 33.3281 29.333 33.3287 28.7567V27.0177C33.3279 26.4413 33.0896 25.8889 32.6661 25.4813C32.2426 25.0738 31.6685 24.8445 31.0695 24.8438ZM32.4251 28.7567C32.4247 29.1025 32.2817 29.434 32.0276 29.6785C31.7734 29.9231 31.4289 30.0606 31.0695 30.0611H13.8998C13.5404 30.0606 13.1959 29.9231 12.9418 29.6785C12.6877 29.434 12.5447 29.1025 12.5442 28.7567V27.0177C12.5447 26.6718 12.6877 26.3403 12.9418 26.0958C13.1959 25.8513 13.5404 25.7137 13.8998 25.7132H31.0695C31.4289 25.7137 31.7734 25.8513 32.0276 26.0958C32.2817 26.3403 32.4247 26.6718 32.4251 27.0177V28.7567Z" fill="white"/>
<path d="M27.4598 18.7578C27.3399 18.7578 27.2249 18.8036 27.1402 18.8852C27.0554 18.9667 27.0078 19.0774 27.0078 19.1927V25.2795C27.011 25.3928 27.0601 25.5003 27.1444 25.5793C27.2288 25.6583 27.3419 25.7025 27.4596 25.7025C27.5773 25.7025 27.6904 25.6583 27.7748 25.5793C27.8592 25.5003 27.9082 25.3928 27.9114 25.2795V19.1927C27.9114 19.0774 27.8638 18.9668 27.7792 18.8853C27.6945 18.8037 27.5796 18.7579 27.4598 18.7578Z" fill="white"/>
<path d="M20.2254 28.323C20.475 28.323 20.6774 28.1282 20.6774 27.888C20.6774 27.6478 20.475 27.4531 20.2254 27.4531C19.9758 27.4531 19.7734 27.6478 19.7734 27.888C19.7734 28.1282 19.9758 28.323 20.2254 28.323Z" fill="white"/>
<path d="M22.9364 28.323C23.186 28.323 23.3883 28.1282 23.3883 27.888C23.3883 27.6478 23.186 27.4531 22.9364 27.4531C22.6868 27.4531 22.4844 27.6478 22.4844 27.888C22.4844 28.1282 22.6868 28.323 22.9364 28.323Z" fill="white"/>
<path d="M30.17 27.4533H25.6519C25.5915 27.4517 25.5314 27.4617 25.4752 27.4829C25.4189 27.504 25.3676 27.5358 25.3243 27.5763C25.281 27.6168 25.2466 27.6653 25.2231 27.7189C25.1996 27.7724 25.1875 27.8299 25.1875 27.888C25.1875 27.9462 25.1996 28.0037 25.2231 28.0572C25.2466 28.1108 25.281 28.1593 25.3243 28.1998C25.3676 28.2403 25.4189 28.2721 25.4752 28.2932C25.5314 28.3143 25.5915 28.3244 25.6519 28.3228H30.1703C30.2307 28.3244 30.2908 28.3143 30.3471 28.2932C30.4034 28.2721 30.4546 28.2403 30.498 28.1998C30.5412 28.1593 30.5757 28.1108 30.5992 28.0572C30.6227 28.0037 30.6347 27.9462 30.6347 27.888C30.6347 27.8299 30.6227 27.7724 30.5992 27.7189C30.5757 27.6653 30.5412 27.6168 30.498 27.5763C30.4546 27.5358 30.4034 27.504 30.3471 27.4829C30.2908 27.4617 30.2304 27.4517 30.17 27.4533Z" fill="white"/>
<path d="M26.0991 19.1961C26.0986 19.0248 26.1335 18.855 26.2015 18.6966C26.2696 18.5383 26.3696 18.3944 26.4958 18.2735C26.5378 18.2331 26.571 18.1852 26.5938 18.1324C26.6165 18.0797 26.6282 18.0231 26.6282 17.966C26.6282 17.9089 26.6165 17.8524 26.5938 17.7996C26.571 17.7469 26.5378 17.699 26.4958 17.6586C26.4539 17.6182 26.404 17.5862 26.3492 17.5643C26.2944 17.5425 26.2357 17.5312 26.1763 17.5312C26.117 17.5312 26.0582 17.5425 26.0034 17.5643C25.9486 17.5862 25.8987 17.6182 25.8568 17.6586C25.4332 18.0664 25.1953 18.6194 25.1953 19.196C25.1953 19.7726 25.4332 20.3255 25.8568 20.7334C25.9418 20.8146 26.0568 20.8602 26.1767 20.8602C26.2359 20.8605 26.2947 20.8494 26.3495 20.8277C26.4043 20.8059 26.454 20.7739 26.4958 20.7334C26.5805 20.6518 26.6281 20.5412 26.6281 20.4259C26.6281 20.3106 26.5805 20.2 26.4958 20.1185C26.3697 19.9975 26.2697 19.8538 26.2016 19.6955C26.1335 19.5372 26.0987 19.3675 26.0991 19.1961Z" fill="white"/>
<path d="M29.0526 17.6586C29.0107 17.6182 28.9609 17.5862 28.906 17.5643C28.8512 17.5425 28.7925 17.5312 28.7331 17.5312C28.6738 17.5312 28.615 17.5425 28.5602 17.5643C28.5054 17.5862 28.4556 17.6182 28.4136 17.6586C28.3716 17.699 28.3384 17.7469 28.3156 17.7996C28.293 17.8524 28.2812 17.9089 28.2812 17.966C28.2812 18.0231 28.293 18.0797 28.3156 18.1324C28.3384 18.1852 28.3716 18.2331 28.4136 18.2735C28.5395 18.3946 28.6394 18.5385 28.7076 18.6968C28.7758 18.8551 28.8108 19.0248 28.8108 19.1961C28.8108 19.3675 28.7758 19.5372 28.7076 19.6955C28.6394 19.8538 28.5395 19.9976 28.4136 20.1188C28.3289 20.2004 28.2813 20.3111 28.2814 20.4265C28.2814 20.5419 28.3291 20.6525 28.4139 20.734C28.4988 20.8156 28.6138 20.8613 28.7337 20.8613C28.8536 20.8612 28.9686 20.8153 29.0533 20.7337C29.4768 20.3259 29.7148 19.7729 29.7148 19.1963C29.7148 18.6197 29.4768 18.0668 29.0533 17.6589L29.0526 17.6586Z" fill="white"/>
<path d="M25.2185 17.0469C25.3033 16.9654 25.3509 16.8548 25.3509 16.7395C25.3509 16.6242 25.3033 16.5136 25.2185 16.432C25.1338 16.3505 25.0189 16.3047 24.899 16.3047C24.7792 16.3047 24.6643 16.3505 24.5795 16.432C23.8182 17.1666 23.3906 18.1616 23.3906 19.1991C23.3906 20.2365 23.8182 21.2315 24.5795 21.966C24.6215 22.0064 24.6713 22.0385 24.7261 22.0603C24.7809 22.0821 24.8397 22.0934 24.899 22.0934C24.9584 22.0934 25.0171 22.0821 25.072 22.0603C25.1268 22.0385 25.1766 22.0064 25.2185 21.966C25.2605 21.9257 25.2938 21.8777 25.3165 21.825C25.3392 21.7723 25.3509 21.7157 25.3509 21.6586C25.3509 21.6015 25.3392 21.545 25.3165 21.4922C25.2938 21.4395 25.2605 21.3915 25.2185 21.3511C24.6265 20.7798 24.2941 20.0059 24.2941 19.1991C24.2941 18.3922 24.6265 17.6183 25.2185 17.0469Z" fill="white"/>
<path d="M30.3339 16.432C30.2491 16.3505 30.1342 16.3047 30.0144 16.3047C29.8945 16.3047 29.7796 16.3505 29.6949 16.432C29.6101 16.5136 29.5625 16.6242 29.5625 16.7395C29.5625 16.8548 29.6101 16.9654 29.6949 17.0469C30.2869 17.6183 30.6193 18.3922 30.6193 19.1991C30.6193 20.0059 30.2869 20.7798 29.6949 21.3511C29.6529 21.3915 29.6196 21.4395 29.5969 21.4922C29.5742 21.545 29.5625 21.6015 29.5625 21.6586C29.5625 21.7157 29.5742 21.7723 29.5969 21.825C29.6196 21.8777 29.6529 21.9257 29.6949 21.966C29.7368 22.0064 29.7866 22.0385 29.8414 22.0603C29.8962 22.0821 29.955 22.0934 30.0144 22.0934C30.0737 22.0934 30.1325 22.0821 30.1873 22.0603C30.2421 22.0385 30.2919 22.0064 30.3339 21.966C31.0952 21.2315 31.5228 20.2365 31.5228 19.1991C31.5228 18.1616 31.0952 17.1666 30.3339 16.432Z" fill="white"/>
<path d="M23.9418 15.8126C24.0265 15.731 24.0741 15.6204 24.0741 15.5051C24.0741 15.3898 24.0265 15.2792 23.9418 15.1977C23.857 15.1161 23.7421 15.0703 23.6222 15.0703C23.5024 15.0703 23.3875 15.1161 23.3027 15.1977C22.2033 16.2584 21.5859 17.6954 21.5859 19.1934C21.5859 20.6915 22.2033 22.1285 23.3027 23.1892C23.3875 23.2708 23.5024 23.3166 23.6222 23.3166C23.7421 23.3166 23.857 23.2708 23.9418 23.1892C24.0265 23.1077 24.0741 22.9971 24.0741 22.8818C24.0741 22.7665 24.0265 22.6559 23.9418 22.5744C23.0117 21.6768 22.4894 20.461 22.4894 19.1934C22.4894 17.926 23.0117 16.7101 23.9418 15.8126Z" fill="white"/>
<path d="M31.6073 15.1977C31.5653 15.1573 31.5156 15.1253 31.4607 15.1034C31.4059 15.0816 31.3471 15.0703 31.2878 15.0703C31.2285 15.0703 31.1697 15.0816 31.1149 15.1034C31.0601 15.1253 31.0102 15.1573 30.9683 15.1977C30.9263 15.238 30.893 15.286 30.8704 15.3387C30.8476 15.3915 30.8359 15.448 30.8359 15.5051C30.8359 15.5622 30.8476 15.6187 30.8704 15.6715C30.893 15.7242 30.9263 15.7722 30.9683 15.8126C31.8989 16.7102 32.4215 17.9264 32.4215 19.1943C32.4215 20.4622 31.8989 21.6784 30.9683 22.576C30.8835 22.6575 30.8359 22.7681 30.8359 22.8834C30.8359 22.9988 30.8835 23.1094 30.9683 23.1909C31.053 23.2724 31.168 23.3183 31.2878 23.3183C31.4077 23.3183 31.5226 23.2724 31.6073 23.1909C32.7071 22.1301 33.3248 20.6928 33.3248 19.1943C33.3248 17.6958 32.7071 16.2585 31.6073 15.1977Z" fill="white"/>
<path fill-rule="evenodd" clip-rule="evenodd" d="M17.4265 22.1925C17.6233 22.3818 17.89 22.4881 18.1682 22.4881H19.0172V26.5445C19.0172 26.7056 18.984 26.8651 18.9195 27.0138C18.8551 27.1625 18.7606 27.2974 18.6416 27.4108C18.5226 27.5242 18.3815 27.6137 18.2263 27.6742C18.0711 27.7348 17.905 27.7651 17.7376 27.7634H7.9288C7.76254 27.7634 7.59792 27.7319 7.44434 27.6706C7.29076 27.6093 7.15125 27.5195 7.03378 27.4063C6.91631 27.2931 6.82319 27.1587 6.75975 27.0108C6.69631 26.8629 6.6638 26.7045 6.66406 26.5445V22.4937H7.46876C7.74694 22.4937 8.01372 22.3874 8.21041 22.1982C8.40711 22.0089 8.51761 21.7522 8.51761 21.4845C8.51761 21.2168 8.40711 20.9601 8.21041 20.7708C8.01372 20.5816 7.74694 20.4752 7.46876 20.4752H6.66406V13.3984H19.0172V20.4696H18.1682C17.89 20.4696 17.6233 20.576 17.4265 20.7652C17.2298 20.9545 17.1193 21.2112 17.1193 21.4789C17.1193 21.7466 17.2298 22.0033 17.4265 22.1925ZM8.42281 15.0713H17.4129V19.0601H8.42281V15.0713ZM14.3383 23.1594H13.6583L13.7029 23.1735H12.1066C12.1292 23.3251 12.1846 23.4704 12.2692 23.6002C12.3408 23.7051 12.4384 23.7913 12.5532 23.851C12.668 23.9106 12.7965 23.9419 12.9269 23.9419C13.0574 23.9419 13.1858 23.9106 13.3007 23.851C13.4155 23.7913 13.5131 23.7051 13.5846 23.6002H14.2792C14.1798 23.8646 13.9963 24.0921 13.7548 24.2504C13.5134 24.4086 13.2262 24.4897 12.9341 24.4818C12.5617 24.483 12.2027 24.3489 11.9286 24.1063C11.6546 23.8638 11.4859 23.5306 11.4561 23.1735V23.0739C11.4415 22.9415 11.4415 22.808 11.4561 22.6756H13.6735C13.6229 22.509 13.518 22.3624 13.3743 22.2574C13.2306 22.1524 13.0556 22.0946 12.8752 22.0924H12.6829V21.5236H13.0375C13.2576 21.5324 13.4715 21.5961 13.6583 21.7084C13.8348 21.8126 13.9864 21.9513 14.1035 22.1155C14.2207 22.2797 14.3007 22.4657 14.3383 22.6615V22.8323C14.3457 22.9412 14.3457 23.0505 14.3383 23.1594ZM12.2841 21.6375L12.5352 22.1637C12.3758 22.2344 12.2457 22.3547 12.1658 22.5051L11.5598 22.3344C11.6962 22.0193 11.9566 21.7688 12.2841 21.6375Z" fill="white"/>
<path fill-rule="evenodd" clip-rule="evenodd" d="M17.5698 9.33594H8.13949C7.7449 9.3392 7.3678 9.49312 7.09112 9.76387C6.81445 10.0346 6.66085 10.4 6.66411 10.7797V12.8209H19.0431V10.7797C19.0464 10.4004 18.8931 10.0353 18.6169 9.76456C18.3406 9.49387 17.9641 9.33971 17.5698 9.33594ZM15.7228 10.8864C15.7891 10.9522 15.8293 11.0383 15.8362 11.1297L15.8429 11.1292C15.8527 11.181 15.8513 11.2343 15.8388 11.2857C15.8264 11.337 15.8031 11.3854 15.7705 11.4277C15.7379 11.4701 15.6966 11.5056 15.6491 11.532C15.6017 11.5584 15.5491 11.5752 15.4947 11.5814C15.4403 11.5875 15.3851 11.5828 15.3326 11.5676C15.2801 11.5524 15.2314 11.5271 15.1896 11.4931C15.1477 11.4591 15.1134 11.4172 15.089 11.37C15.0646 11.3228 15.0505 11.2712 15.0475 11.2186C15.0401 11.1613 15.0456 11.1031 15.0638 11.048C15.082 10.993 15.1124 10.9424 15.1529 10.8997C15.1934 10.8571 15.2431 10.8234 15.2984 10.801C15.3538 10.7786 15.4135 10.768 15.4735 10.77C15.5682 10.7795 15.6565 10.8207 15.7228 10.8864ZM15.2174 11.1709C15.2174 11.3105 15.2899 11.4305 15.444 11.4305C15.4769 11.4284 15.5089 11.4199 15.5382 11.4055C15.5675 11.3912 15.5936 11.3713 15.6147 11.3471C15.6359 11.3228 15.6517 11.2947 15.6614 11.2645C15.671 11.2342 15.6742 11.2024 15.6707 11.1709C15.6753 11.1398 15.6728 11.1081 15.6635 11.078C15.6542 11.0479 15.6382 11.0201 15.6167 10.9965C15.5952 10.9729 15.5686 10.9541 15.5388 10.9412C15.509 10.9284 15.4767 10.9219 15.444 10.9223C15.3799 10.9267 15.3201 10.9553 15.2777 11.0018C15.2353 11.0484 15.2136 11.1091 15.2174 11.1709ZM11.3647 11.5963V11.0008L11.1266 11.402L10.8796 10.9963V11.596H10.7141V10.7956H10.9678L11.1243 11.0759L11.2738 10.7858H11.5252V11.5862L11.3647 11.5963ZM12.0196 11.6004C11.9177 11.6026 11.8191 11.5663 11.7447 11.4993C11.6703 11.4324 11.6261 11.3401 11.6216 11.2421C11.6142 11.1852 11.6196 11.1274 11.6376 11.0726C11.6555 11.0179 11.6855 10.9675 11.7255 10.9249C11.7656 10.8823 11.8147 10.8486 11.8695 10.8259C11.9243 10.8032 11.9835 10.7922 12.0432 10.7936C12.1395 10.8008 12.2298 10.8411 12.2977 10.9072C12.3655 10.9734 12.4064 11.0608 12.4126 11.1536C12.4234 11.2086 12.4213 11.2653 12.4064 11.3195C12.3916 11.3736 12.3645 11.424 12.3269 11.4668C12.2894 11.5096 12.2424 11.5438 12.1894 11.567C12.1363 11.5902 12.0786 11.6017 12.0204 11.6007L12.0196 11.6004ZM12.0196 11.4544C12.0524 11.4522 12.0844 11.4437 12.1137 11.4294C12.143 11.415 12.1691 11.3951 12.1902 11.3709C12.2114 11.3467 12.2272 11.3186 12.2368 11.2883C12.2465 11.2581 12.2497 11.2262 12.2462 11.1948C12.2504 11.1638 12.2477 11.1324 12.2382 11.1026C12.2287 11.0728 12.2127 11.0452 12.1912 11.0219C12.1697 10.9985 12.1433 10.9799 12.1137 10.9672C12.0841 10.9545 12.052 10.9481 12.0196 10.9483C11.9556 10.9522 11.8958 10.9804 11.8533 11.0265C11.8109 11.0727 11.7891 11.1332 11.7929 11.1948C11.7906 11.3344 11.8654 11.4544 12.0196 11.4544ZM12.5139 11.594V10.7936H12.6885V11.4479H13.071V11.594H12.5139ZM13.1753 10.7914V11.5918L13.486 11.5932C13.5362 11.5935 13.5859 11.583 13.6315 11.5626C13.6762 11.5431 13.7159 11.5144 13.7478 11.4785C13.7799 11.4402 13.8044 11.3966 13.8203 11.3498C13.8372 11.2953 13.8456 11.2386 13.8453 11.1816C13.8465 11.1258 13.8367 11.0704 13.8162 11.0182C13.7995 10.9723 13.7724 10.9306 13.7371 10.8959C13.6865 10.8526 13.6266 10.8207 13.5616 10.8026C13.4966 10.7845 13.4282 10.7807 13.3615 10.7914H13.1753ZM13.6664 11.1819C13.6664 11.2952 13.6277 11.4457 13.4875 11.4566L13.4243 11.4656C13.3972 11.468 13.3699 11.468 13.3429 11.4656V10.94H13.4787C13.5316 10.9415 13.5818 10.9626 13.619 10.9988C13.6387 11.0216 13.6526 11.0485 13.6597 11.0773C13.6652 11.1119 13.6674 11.1469 13.6664 11.1819ZM14.7928 11.5726L14.4376 11.0338V11.5724H14.2747V10.7723H14.458L14.7928 11.2769V10.77H14.9558V11.5704L14.7928 11.5726ZM13.9696 10.7992C13.9891 10.7804 14.0156 10.7698 14.0432 10.7698C14.0707 10.7704 14.0968 10.7811 14.1162 10.7998C14.1356 10.8185 14.1468 10.8437 14.1474 10.8702C14.1474 10.8968 14.1364 10.9223 14.1169 10.9411C14.0973 10.9599 14.0708 10.9705 14.0432 10.9705C14.0156 10.9705 13.9891 10.9599 13.9696 10.9411C13.95 10.9223 13.9391 10.8968 13.9391 10.8702C13.9391 10.8435 13.95 10.818 13.9696 10.7992ZM14.1314 11.0096L13.9571 11.0099L13.9583 11.5726L14.1326 11.5722L14.1314 11.0096ZM10.0022 10.8178L10.0721 10.9683C10.0284 10.9889 9.9928 11.0225 9.97051 11.0642L9.79857 11.0185C9.83845 10.9297 9.91099 10.8582 10.0022 10.8178ZM10.3924 11.2472H10.5827C10.586 11.2167 10.586 11.186 10.5827 11.1555V11.1098C10.5713 11.0545 10.5483 11.002 10.5152 10.9555C10.4821 10.909 10.4396 10.8695 10.3901 10.8393C10.336 10.8073 10.2743 10.7892 10.2109 10.7868C10.1787 10.7824 10.1459 10.7824 10.1136 10.7868C10.1136 10.7868 10.1317 10.9374 10.1317 10.9438C10.149 10.9416 10.1665 10.9416 10.1838 10.9438C10.2356 10.9424 10.2863 10.958 10.3276 10.9882C10.3688 11.0183 10.3981 11.0611 10.4105 11.1095H9.77596C9.77036 11.1467 9.77036 11.1845 9.77596 11.2217V11.2477C9.78181 11.3488 9.82849 11.4437 9.90599 11.5121C9.98348 11.5805 10.0857 11.6172 10.1908 11.6142C10.2725 11.6165 10.3529 11.5939 10.4204 11.5497C10.488 11.5054 10.5393 11.4417 10.567 11.3677H10.3697C10.3502 11.3968 10.3233 11.4206 10.2916 11.437C10.2599 11.4534 10.2245 11.4618 10.1885 11.4614C10.1517 11.4627 10.1152 11.4548 10.0826 11.4384C10.05 11.422 10.0224 11.3976 10.0026 11.3677C9.97801 11.3304 9.96175 11.2886 9.95485 11.2449H10.4082L10.3924 11.2472Z" fill="white"/>
</svg>
