<svg width="13" height="13" viewBox="0 0 13 13" fill="none" xmlns="http://www.w3.org/2000/svg">
    <path d="M0 6.14301C2.72475e-05 4.51379 0.653975 2.95131 1.81801 1.79928C2.98205 0.647244 4.5608 2.69665e-05 6.207 0C7.85317 5.39334e-05 9.43191 0.647288 10.5959 1.79932C11.7599 2.95135 12.4138 4.51382 12.4138 6.14301C12.4138 7.77218 11.7599 9.33462 10.5959 10.4866C9.43186 11.6386 7.85314 12.2858 6.207 12.2858C4.56083 12.2858 2.9821 11.6386 1.81806 10.4867C0.654025 9.33466 5.44954e-05 7.77221 0 6.14301ZM0.985258 6.14301C0.986835 7.51315 1.5375 8.82672 2.51642 9.79555C3.49535 10.7644 4.82259 11.3094 6.207 11.3109C7.59139 11.3093 8.91862 10.7643 9.89753 9.79551C10.8764 8.82668 11.4271 7.51313 11.4287 6.14301C11.4271 4.77288 10.8765 3.4593 9.89758 2.49045C8.91867 1.5216 7.59141 0.976599 6.207 0.975011C4.82257 0.976572 3.49532 1.52156 2.5164 2.49042C1.53747 3.45927 0.986808 4.77286 0.985258 6.14301ZM3.37007 6.63047C3.13623 6.63047 2.94677 6.41216 2.94677 6.14301C2.94677 5.87387 3.13623 5.65495 3.37007 5.65495H9.04385C9.27769 5.65495 9.46725 5.87326 9.46725 6.14301C9.46725 6.41277 9.27769 6.63047 9.04385 6.63047H3.37007Z" fill="#3491FF"/>
</svg>
