<svg width="14" height="13" viewBox="0 0 14 13" fill="none" xmlns="http://www.w3.org/2000/svg">
    <path d="M0.767029 6.14301C0.767056 4.51379 1.421 2.95131 2.58504 1.79928C3.74908 0.647244 5.32783 2.69665e-05 6.97403 0C8.6202 5.39334e-05 10.1989 0.647288 11.3629 1.79932C12.5269 2.95135 13.1809 4.51382 13.1809 6.14301C13.1808 7.77218 12.5269 9.33462 11.3629 10.4866C10.1989 11.6386 8.62017 12.2858 6.97403 12.2858C5.32786 12.2858 3.74913 11.6386 2.58509 10.4867C1.42105 9.33466 0.767083 7.77221 0.767029 6.14301ZM1.75229 6.14301C1.75386 7.51315 2.30452 8.82672 3.28345 9.79555C4.26238 10.7644 5.58962 11.3094 6.97403 11.3109C8.35842 11.3093 9.68565 10.7643 10.6646 9.79551C11.6435 8.82668 12.1941 7.51313 12.1957 6.14301C12.1941 4.77288 11.6435 3.4593 10.6646 2.49045C9.6857 1.5216 8.35844 0.976599 6.97403 0.975011C5.5896 0.976572 4.26235 1.52156 3.28342 2.49042C2.3045 3.45927 1.75384 4.77286 1.75229 6.14301ZM4.1371 6.63047C3.90326 6.63047 3.7138 6.41216 3.7138 6.14301C3.7138 5.87387 3.90326 5.65495 4.1371 5.65495H9.81088C10.0447 5.65495 10.2343 5.87326 10.2343 6.14301C10.2343 6.41277 10.0447 6.63047 9.81088 6.63047H4.1371Z" fill="#4B4B4B" />
</svg>
    