<svg xmlns="http://www.w3.org/2000/svg" xmlns:xlink="http://www.w3.org/1999/xlink" width="134" height="134" viewBox="0 0 134 134">
  <defs>
    <style>
      .cls-1 {
        clip-path: url(#clip-disconnection);
      }

      .cls-2 {
        fill: #fff;
      }
    </style>
    <clipPath id="clip-disconnection">
      <rect width="134" height="134"/>
    </clipPath>
  </defs>
  <g id="disconnection" class="cls-1">
    <g id="Group_30" data-name="Group 30" transform="translate(-4.196 -3.25)">
      <g id="Group_29" data-name="Group 29">
        <path id="Path_25" data-name="Path 25" class="cls-2" d="M105.571,60.5a36.9,36.9,0,0,1,27.867,12.676c0-.1.008-.2.008-.3A24.625,24.625,0,0,0,108.821,48.25c-.145,0-.289.008-.433.011a38.747,38.747,0,0,0-77.134,0,24.621,24.621,0,0,0-.683,49.2V97.5h38A37,37,0,0,1,105.571,60.5Z"/>
      </g>
      <path id="Path_26" data-name="Path 26" class="cls-2" d="M105.821,69.25a29,29,0,1,0,29,29A29,29,0,0,0,105.821,69.25ZM123.983,109.5a1.43,1.43,0,0,1,0,2.023l-5.053,5.053a1.43,1.43,0,0,1-2.023,0L105.821,105.5,94.734,116.581a1.429,1.429,0,0,1-2.022,0l-5.054-5.053a1.432,1.432,0,0,1,0-2.023L98.745,98.419,87.658,87.332a1.432,1.432,0,0,1,0-2.023l5.054-5.053a1.429,1.429,0,0,1,2.022,0l11.087,11.087,11.086-11.087a1.43,1.43,0,0,1,2.023,0l5.053,5.053a1.43,1.43,0,0,1,0,2.023L112.9,98.419Z"/>
    </g>
  </g>
</svg>
