<svg width="28" height="24" viewBox="0 0 28 24" fill="none" xmlns="http://www.w3.org/2000/svg">
<path fill-rule="evenodd" clip-rule="evenodd" d="M0.664062 2.66667C0.664062 1.19391 1.85797 0 3.33073 0H24.6641C26.1368 0 27.3307 1.19391 27.3307 2.66667V18.6667C27.3307 20.1394 26.1368 21.3333 24.6641 21.3333H3.33073C1.85797 21.3333 0.664062 20.1394 0.664062 18.6667V2.66667ZM24.6641 2.66667H3.33073V18.6667H24.6641V2.66667Z" fill="white"/>
<path d="M19.9948 22.6641H7.99479C7.6266 22.6641 7.32812 22.9625 7.32812 23.3307C7.32812 23.6989 7.6266 23.9974 7.99479 23.9974H19.9948C20.363 23.9974 20.6615 23.6989 20.6615 23.3307C20.6615 22.9625 20.363 22.6641 19.9948 22.6641Z" fill="white"/>
<path d="M13.3492 5.33824C13.2356 5.33824 13.1394 5.42056 13.1208 5.53303L12.8949 6.9139C12.6235 6.99274 12.365 7.0994 12.1215 7.23158L10.9817 6.41767C10.8901 6.35158 10.7638 6.36202 10.6838 6.44202L9.78174 7.34288C9.70174 7.42288 9.6913 7.54811 9.75624 7.6397L10.5574 8.78636C10.4229 9.031 10.3139 9.29187 10.2328 9.56554L8.85768 9.79394C8.74638 9.81247 8.66406 9.9098 8.66406 10.0223V11.2977C8.66406 11.4101 8.74406 11.5063 8.85537 11.5261L10.2316 11.7695C10.3116 12.0431 10.4206 12.3029 10.5551 12.5487L9.74348 13.6838C9.6774 13.7754 9.68782 13.9017 9.76782 13.9817L10.6698 14.8838C10.7498 14.9638 10.8739 14.9742 10.9667 14.9105L12.1156 14.1058C12.3603 14.2391 12.6188 14.347 12.8912 14.4258L13.1208 15.809C13.1394 15.9203 13.2356 16.0026 13.3492 16.0026H14.6246C14.7371 16.0026 14.8334 15.9214 14.853 15.8113L15.0988 14.4234C15.3702 14.3423 15.6275 14.2333 15.871 14.0999L17.0282 14.9115C17.1196 14.9765 17.246 14.9649 17.325 14.8861L18.227 13.9829C18.307 13.9029 18.3174 13.7754 18.2512 13.6838L17.427 12.5382C17.5591 12.2959 17.6646 12.0397 17.7435 11.7707L19.1394 11.5261C19.2507 11.5063 19.3307 11.4101 19.3307 11.2977V10.0223C19.3307 9.90874 19.2484 9.81247 19.1359 9.79394L17.7423 9.5666C17.6623 9.29767 17.5568 9.04144 17.4246 8.80028L18.2386 7.64086C18.3035 7.54927 18.2919 7.42288 18.213 7.34404L17.311 6.44202C17.231 6.36202 17.1035 6.35158 17.0119 6.41767L15.8699 7.23854C15.6263 7.1052 15.3678 6.99622 15.0966 6.91622L14.8542 5.52839C14.8344 5.4171 14.7383 5.33594 14.6258 5.33594H13.3504L13.3492 5.33824ZM13.9974 6.15998H14.4306L14.5934 7.48434C14.6072 7.5655 14.6675 7.63042 14.7475 7.65014C15.0524 7.7255 15.3376 7.84607 15.5986 8.00376C15.6704 8.04666 15.7596 8.04318 15.8282 7.99448L16.802 7.29419L17.3632 7.85535L16.6699 8.84318C16.6223 8.91043 16.6188 8.9997 16.6618 9.07043C16.8183 9.3313 16.9366 9.6154 17.013 9.91794C17.0327 9.99914 17.0988 10.0594 17.1811 10.0733L18.3695 10.2681V11.0611L17.1788 11.2698C17.0976 11.2838 17.0327 11.3453 17.013 11.4253C16.9376 11.7278 16.8194 12.0119 16.6628 12.2715C16.62 12.3423 16.6235 12.4327 16.6722 12.4999L17.3759 13.4762L16.8148 14.0374L15.8282 13.3453C15.7608 13.2977 15.6716 13.2954 15.6008 13.3382C15.3411 13.4959 15.0548 13.6165 14.7522 13.6942C14.6722 13.7139 14.6119 13.7789 14.5979 13.8599L14.3882 15.0438H13.5939L13.3979 13.8646C13.384 13.7823 13.3238 13.7162 13.2426 13.6965C12.9376 13.6211 12.6513 13.5017 12.3882 13.3441C12.3174 13.3023 12.2292 13.3046 12.162 13.3522L11.1835 14.0386L10.6223 13.4762L11.3145 12.5093C11.3632 12.4421 11.3667 12.3515 11.3226 12.2809C11.1626 12.0177 11.042 11.7301 10.9667 11.4241C10.947 11.3441 10.882 11.2838 10.8009 11.2698L9.6287 11.0611V10.267L10.7997 10.0722C10.882 10.0582 10.947 9.99794 10.9678 9.91674C11.0443 9.60954 11.1649 9.32318 11.3238 9.05999C11.3667 8.98927 11.3632 8.89999 11.3168 8.83274L10.6328 7.85535L11.1939 7.29419L12.1643 7.98752C12.2316 8.03506 12.3208 8.0397 12.3927 7.9968C12.6536 7.84028 12.9423 7.72086 13.2472 7.6455C13.3284 7.62579 13.3899 7.5597 13.4026 7.47622L13.5462 6.15998H13.9974ZM13.9974 8.66212C12.9759 8.66212 12.0187 9.65007 12.0187 10.6715C12.0187 11.693 12.9267 12.6126 13.9482 12.6126C14.9696 12.6126 15.871 11.693 15.871 10.6715C15.871 9.65007 15.0188 8.66212 13.9974 8.66212ZM13.9974 9.28028C14.7684 9.28028 15.2844 9.9006 15.2844 10.6715C15.2844 11.4426 14.7684 12.0629 13.9974 12.0629C13.2263 12.0629 12.6314 11.4426 12.6314 10.6715C12.6314 9.9006 13.2263 9.28028 13.9974 9.28028Z" fill="white"/>
</svg>
