<svg id="downtime" xmlns="http://www.w3.org/2000/svg" width="19.667" height="17.459" viewBox="0 0 19.667 17.459">
  <path id="Path_16" data-name="Path 16" d="M96.812,26.935l-3.233,4.987a.211.211,0,0,1-.355,0l-3.233-4.987a.211.211,0,0,1,.062-.292l.872-.568a.211.211,0,0,1,.292.062l1.065,1.637V14.952a.211.211,0,0,1,.211-.211h1.813a.211.211,0,0,1,.211.211V27.774l1.065-1.637a.211.211,0,0,1,.292-.062l.873.568A.211.211,0,0,1,96.812,26.935Z" transform="translate(-89.958 -14.56)" fill="#fff"/>
  <path id="Path_17" data-name="Path 17" d="M60.933,48.655l-2.1-2.1V41.364a.623.623,0,1,0-1.245,0v5.292a.607.607,0,0,0,.007.074.621.621,0,0,0,.174.519l2.287,2.287a.623.623,0,1,0,.881-.881Z" transform="translate(-47.739 -36.59)" fill="#fff"/>
  <path id="Path_18" data-name="Path 18" d="M8.639,15.39a6.751,6.751,0,1,1,4.2-12.038l1.031-1.59A8.639,8.639,0,1,0,14.48,15V12.023A6.747,6.747,0,0,1,8.639,15.39Z" transform="translate(19.667 17.277) rotate(-180)" fill="#fff"/>
</svg>
