<svg width="9" height="14" viewBox="0 0 9 14" fill="none" xmlns="http://www.w3.org/2000/svg">
<path d="M3.6 12.25C3.6 13.2125 2.79 14 1.8 14C0.81 14 0 13.2125 0 12.25C0 11.2875 0.81 10.5 1.8 10.5C2.79 10.5 3.6 11.2875 3.6 12.25ZM1.8 5.25C0.81 5.25 0 6.0375 0 7C0 7.9625 0.81 8.75 1.8 8.75C2.79 8.75 3.6 7.9625 3.6 7C3.6 6.0375 2.79 5.25 1.8 5.25ZM1.8 0C0.81 0 0 0.7875 0 1.75C0 2.7125 0.81 3.5 1.8 3.5C2.79 3.5 3.6 2.7125 3.6 1.75C3.6 0.7875 2.79 0 1.8 0ZM7.2 3.5C8.19 3.5 9 2.7125 9 1.75C9 0.7875 8.19 0 7.2 0C6.21 0 5.4 0.7875 5.4 1.75C5.4 2.7125 6.21 3.5 7.2 3.5ZM7.2 5.25C6.21 5.25 5.4 6.0375 5.4 7C5.4 7.9625 6.21 8.75 7.2 8.75C8.19 8.75 9 7.9625 9 7C9 6.0375 8.19 5.25 7.2 5.25ZM7.2 10.5C6.21 10.5 5.4 11.2875 5.4 12.25C5.4 13.2125 6.21 14 7.2 14C8.19 14 9 13.2125 9 12.25C9 11.2875 8.19 10.5 7.2 10.5Z" fill="#4B4B4B"/>
</svg>
