<svg width="12" height="12" viewBox="0 0 12 12" fill="none" xmlns="http://www.w3.org/2000/svg">
    <path d="M7.74999 0.5H1.33332C0.691656 0.5 0.166656 0.95 0.166656 1.5V8C0.166656 8.275 0.429156 8.5 0.74999 8.5C1.07082 8.5 1.33332 8.275 1.33332 8V2C1.33332 1.725 1.59582 1.5 1.91666 1.5H7.74999C8.07082 1.5 8.33332 1.275 8.33332 1C8.33332 0.725 8.07082 0.5 7.74999 0.5ZM10.0833 2.5H3.66666C3.02499 2.5 2.49999 2.95 2.49999 3.5V10.5C2.49999 11.05 3.02499 11.5 3.66666 11.5H10.0833C10.725 11.5 11.25 11.05 11.25 10.5V3.5C11.25 2.95 10.725 2.5 10.0833 2.5ZM9.49999 10.5H4.24999C3.92916 10.5 3.66666 10.275 3.66666 10V4C3.66666 3.725 3.92916 3.5 4.24999 3.5H9.49999C9.82082 3.5 10.0833 3.725 10.0833 4V10C10.0833 10.275 9.82082 10.5 9.49999 10.5Z" fill="#4B4B4B"/>
</svg>