<svg width="13" height="13" viewBox="0 0 13 13" fill="none" xmlns="http://www.w3.org/2000/svg">
    <path d="M0.000724142 11.9344L0.0607225 11.0295L0.146506 9.73426L0.149165 9.73691L7.8191 2.14606L10.2596 4.56148L2.58966 12.1522L2.59222 12.1548L1.28342 12.2398L0.369042 12.299C0.361234 12.2996 0.353486 12.2998 0.345815 12.2998C0.298471 12.2996 0.251665 12.2899 0.20826 12.2712C0.164856 12.2525 0.125763 12.2252 0.0934307 12.191C0.0610981 12.1567 0.0362112 12.1163 0.0202638 12.0722C0.00431633 12.0281 -0.00233414 11.9812 0.000724142 11.9344ZM8.64965 1.32428L9.88614 0.100563C9.91834 0.0686812 9.95655 0.0433828 9.99863 0.0261276C10.0407 0.00887235 10.0858 0 10.1314 0C10.1769 0 10.222 0.00887235 10.2641 0.0261276C10.3062 0.0433828 10.3444 0.0686812 10.3766 0.100563L12.3266 2.03055C12.3588 2.0624 12.3844 2.10022 12.4018 2.14185C12.4192 2.18348 12.4282 2.2281 12.4282 2.27316C12.4282 2.31822 12.4192 2.36284 12.4018 2.40447C12.3844 2.4461 12.3588 2.48392 12.3266 2.51577L11.09 3.73959L8.64965 1.32428Z" fill="#3491FF"/>
</svg>
