<svg width="13" height="13" viewBox="0 0 13 13" fill="none" xmlns="http://www.w3.org/2000/svg">
    <path d="M0 6.14291C2.72475e-05 4.51372 0.653969 2.95127 1.81799 1.79925C2.982 0.647238 4.56073 2.69665e-05 6.2069 0C7.85308 0 9.43184 0.647195 10.5959 1.79922C11.7599 2.95124 12.4138 4.51371 12.4138 6.14291C12.4138 7.77212 11.7599 9.33459 10.5959 10.4866C9.43184 11.6386 7.85308 12.2858 6.2069 12.2858C4.56072 12.2858 2.98198 11.6386 1.81796 10.4866C0.653939 9.33459 0 7.77212 0 6.14291V6.14291ZM0.985158 6.14291C0.986735 7.51305 1.53739 8.82662 2.51632 9.79545C3.49525 10.7643 4.82249 11.3093 6.2069 11.3108C7.59132 11.3093 8.9186 10.7643 9.89753 9.79548C10.8765 8.82664 11.4271 7.51306 11.4287 6.14291C11.4271 4.77278 10.8764 3.45921 9.8975 2.49038C8.91858 1.52155 7.59131 0.976572 6.2069 0.975011C4.82249 0.976572 3.49525 1.52155 2.51632 2.49038C1.53739 3.45921 0.986735 4.77278 0.985158 6.14291V6.14291ZM5.71437 8.95051V3.33511C5.71437 3.10359 5.93496 2.91609 6.20753 2.91609C6.48009 2.91609 6.70068 3.10359 6.70068 3.33511V8.95041C6.70068 9.18184 6.48009 9.36943 6.20753 9.36943C5.93496 9.36943 5.71437 9.18173 5.71437 8.95051Z" fill="#3491FF"/>
</svg>
