<svg width="80" height="80" viewBox="0 0 80 80" fill="none" xmlns="http://www.w3.org/2000/svg">
<path d="M80 26.6504L76.5169 24.5271L74.4558 27.9097C73.0504 22.7631 70.5739 17.9713 67.1886 13.8479C63.8033 9.72452 59.5854 6.36247 54.811 3.98179C50.0365 1.60112 44.8132 0.255492 39.4828 0.0329748C34.1523 -0.189542 28.835 0.716068 23.8788 2.69054L26.6488 7.48756C31.2839 5.72653 36.264 5.06362 41.1984 5.55087C46.1327 6.03811 50.887 7.66225 55.0881 10.2958C59.2893 12.9294 62.8229 16.5007 65.4118 20.7295C68.0006 24.9584 69.5743 29.7296 70.0091 34.6689L73.7326 36.9356L80 26.6504Z" fill="white"/>
<path d="M16.0837 14.0908L16.0973 14.0778C16.4584 13.7391 16.8272 13.4087 17.2037 13.0868L17.2105 13.0814C17.9686 12.4339 18.7565 11.822 19.5742 11.2456L19.984 7.67653L8.01875 6.30518L7.5523 10.3592L11.4287 10.8051C7.57135 14.5671 4.56121 19.1088 2.59937 24.1271C0.637537 29.1453 -0.230816 34.5244 0.0523242 39.905C0.335464 45.2857 1.76358 50.5439 4.24126 55.3285C6.71894 60.1131 10.1891 64.3139 14.42 67.6502L17.4851 62.3342C14.0468 59.5024 11.2358 55.9857 9.23122 52.008C7.22663 48.0303 6.07232 43.6787 5.84181 39.2304C5.6113 34.7821 6.30964 30.3345 7.89235 26.1709C9.47506 22.0073 11.9075 18.2189 15.0347 15.0469L15.0251 15.1302C15.3698 14.7765 15.7226 14.43 16.0837 14.0908Z" fill="white"/>
<path d="M69.5939 43.3676C69.0322 46.4043 68.0322 49.3432 66.6251 52.0922L66.6156 52.1114C64.9569 55.3439 62.7633 58.2725 60.1276 60.7732L60.1207 60.7793C57.6304 63.1445 54.7771 65.0952 51.6693 66.5571C51.4691 66.652 51.2649 66.7401 51.0621 66.8302C50.8716 66.9149 50.6831 67.0051 50.4898 67.0863C49.9434 67.3206 49.3868 67.546 48.8227 67.7502C42.8178 69.9181 36.3031 70.2479 30.11 68.6974L30.2575 68.6353C29.7794 68.5157 29.3014 68.3839 28.8322 68.2432L28.7741 68.2269C28.2988 68.0834 27.8287 67.9293 27.3638 67.7645L27.3331 67.7543C26.382 67.4178 25.4525 67.0381 24.5446 66.6151L20.9196 68.1408L25.5855 79.2442L29.3471 77.6631L28.0106 74.4833C33.1826 75.8813 38.5923 76.1669 43.8827 75.3214C49.1732 74.4759 54.2243 72.5184 58.703 69.578C63.1817 66.6376 66.9861 62.7812 69.8654 58.2631C72.7447 53.7449 74.6335 48.6677 75.4071 43.3662L69.5939 43.3676Z" fill="white"/>
<path d="M37.9502 11.146C32.8579 11.146 27.88 12.656 23.6459 15.4852C19.4118 18.3143 16.1118 22.3354 14.163 27.0401C12.2143 31.7448 11.7044 36.9217 12.6979 41.9161C13.6913 46.9106 16.1435 51.4983 19.7443 55.0991C23.3451 58.6999 27.9328 61.152 32.9272 62.1455C37.9217 63.139 43.0986 62.6291 47.8032 60.6803C52.5079 58.7316 56.5291 55.4315 59.3582 51.1974C62.1873 46.9633 63.6974 41.9854 63.6974 36.8931C63.6974 30.0645 60.9847 23.5157 56.1562 18.6871C51.3277 13.8586 44.7788 11.146 37.9502 11.146ZM53.9271 46.6435C54.044 46.7604 54.1368 46.8991 54.2001 47.0518C54.2633 47.2045 54.2959 47.3681 54.2959 47.5334C54.2959 47.6987 54.2633 47.8624 54.2001 48.0151C54.1368 48.1678 54.044 48.3065 53.9271 48.4233L49.4818 52.8686C49.2458 53.1044 48.9259 53.2368 48.5923 53.2368C48.2587 53.2368 47.9387 53.1044 47.7027 52.8686L37.9502 43.1161L28.1971 52.8686C27.9612 53.1033 27.642 53.2351 27.3092 53.2351C26.9765 53.2351 26.6573 53.1033 26.4214 52.8686L21.9761 48.4233C21.8592 48.3065 21.7664 48.1678 21.7032 48.0151C21.6399 47.8624 21.6073 47.6987 21.6073 47.5334C21.6073 47.3681 21.6399 47.2045 21.7032 47.0518C21.7664 46.8991 21.8592 46.7604 21.9761 46.6435L31.7286 36.8911L21.9727 27.1352C21.7376 26.8995 21.6057 26.5802 21.6057 26.2473C21.6057 25.9145 21.7376 25.5952 21.9727 25.3595L26.418 20.9135C26.6537 20.6785 26.973 20.5465 27.3058 20.5465C27.6387 20.5465 27.958 20.6785 28.1937 20.9135L37.9502 30.666L47.7027 20.9135C47.8195 20.7966 47.9582 20.7039 48.1108 20.6406C48.2634 20.5773 48.427 20.5448 48.5923 20.5448C48.7575 20.5448 48.9211 20.5773 49.0737 20.6406C49.2264 20.7039 49.365 20.7966 49.4818 20.9135L53.9271 25.3595C54.1622 25.5952 54.2942 25.9145 54.2942 26.2473C54.2942 26.5802 54.1622 26.8995 53.9271 27.1352L44.1746 36.8911L53.9271 46.6435Z" fill="white"/>
</svg>
