<svg xmlns="http://www.w3.org/2000/svg" xmlns:xlink="http://www.w3.org/1999/xlink" width="134" height="134" viewBox="0 0 134 134">
  <defs>
    <style>
      .cls-1 {
        clip-path: url(#clip-End_of_life_cycle);
      }

      .cls-2 {
        fill: #fff;
      }
    </style>
    <clipPath id="clip-End_of_life_cycle">
      <rect width="134" height="134"/>
    </clipPath>
  </defs>
  <g id="End_of_life_cycle" data-name="End of life cycle" class="cls-1">
    <g id="Group_60" data-name="Group 60" transform="translate(-2.193 -3.568)">
      <g id="Group_59" data-name="Group 59">
        <g id="Group_56" data-name="Group 56">
          <path id="Path_42" data-name="Path 42" class="cls-2" d="M129.337,51.59l-5.1-3.109-3.018,4.953A55.483,55.483,0,0,0,47.162,16.507l4.056,7.024a46.984,46.984,0,0,1,63.49,39.8l5.452,3.319Z"/>
        </g>
        <g id="Group_57" data-name="Group 57">
          <path id="Path_43" data-name="Path 43" class="cls-2" d="M35.748,33.2l.02-.019q.793-.744,1.62-1.451l.01-.008q1.665-1.422,3.461-2.688h0l.6-5.226L23.939,21.8l-.683,5.936,5.676.653a55.448,55.448,0,0,0,4.38,83.235L37.8,103.84A46.975,46.975,0,0,1,34.212,34.6l-.014.122h0Q34.955,33.945,35.748,33.2Z"/>
        </g>
        <g id="Group_58" data-name="Group 58">
          <path id="Path_44" data-name="Path 44" class="cls-2" d="M114.1,76.068a46.665,46.665,0,0,1-4.347,12.775l-.014.028a47.161,47.161,0,0,1-9.5,12.683l-.01.009a47.051,47.051,0,0,1-12.375,8.46h0c-.293.139-.592.268-.889.4-.279.124-.555.256-.838.375-.8.343-1.615.673-2.441.972a47.044,47.044,0,0,1-27.4,1.387l.216-.091c-.7-.175-1.4-.368-2.087-.574l-.085-.024q-1.044-.315-2.065-.677l-.045-.015q-2.089-.739-4.083-1.668l-5.308,2.234L49.661,128.6l5.508-2.315-1.957-4.656a55.5,55.5,0,0,0,69.4-45.563Z"/>
        </g>
      </g>
      <path id="Path_45" data-name="Path 45" class="cls-2" d="M67.766,28.888a37.7,37.7,0,1,0,37.7,37.7A37.7,37.7,0,0,0,67.766,28.888ZM91.16,80.865a1.842,1.842,0,0,1,0,2.606L84.651,89.98a1.843,1.843,0,0,1-2.605,0L67.766,75.7,53.485,89.98a1.843,1.843,0,0,1-2.6,0l-6.509-6.509a1.842,1.842,0,0,1,0-2.606l14.28-14.28L44.371,52.3a1.841,1.841,0,0,1,0-2.6L50.88,43.19a1.841,1.841,0,0,1,2.6,0L67.766,57.47l14.28-14.28a1.841,1.841,0,0,1,2.605,0L91.16,49.7a1.841,1.841,0,0,1,0,2.6L76.88,66.585Z"/>
    </g>
  </g>
</svg>
