<svg id="export" xmlns="http://www.w3.org/2000/svg" xmlns:xlink="http://www.w3.org/1999/xlink" width="13.949" height="11.741" viewBox="0 0 13.949 11.741">
  <defs>
    <clipPath id="clip-path">
      <path id="Path_2012" data-name="Path 2012" d="M0,0H13.949V11.741H0Z" fill="#fff"/>
    </clipPath>
  </defs>
  <g id="Mask_Group_1" data-name="Mask Group 1" clip-path="url(#clip-path)">
    <path id="Union_29" data-name="Union 29" d="M.342,11.741A.348.348,0,0,1,0,11.388V.353A.348.348,0,0,1,.342,0H11.056A.348.348,0,0,1,11.4.353V2.286a.042.042,0,0,1-.073.031l-.706-.727a.045.045,0,0,1-.012-.031v-.39a.348.348,0,0,0-.343-.353H1.134a.348.348,0,0,0-.343.353v9.4a.348.348,0,0,0,.342.353h9.131a.348.348,0,0,0,.343-.353v-.39a.045.045,0,0,1,.012-.031l.706-.727a.042.042,0,0,1,.073.031v1.933a.348.348,0,0,1-.342.353ZM10.122,9.6l-.95-.979a.161.161,0,0,1,0-.223l1.477-1.522H7.071a.155.155,0,0,1-.153-.158v-1.7a.155.155,0,0,1,.153-.158h3.578L9.172,3.34a.161.161,0,0,1,0-.223l.95-.979a.15.15,0,0,1,.216,0l3.61,3.719-.013.013.013.013L10.339,9.6a.15.15,0,0,1-.216,0Z" transform="translate(0 0)" fill="#fff"/>
  </g>
</svg>
