<svg width="14" height="11" viewBox="0 0 14 11" fill="none" xmlns="http://www.w3.org/2000/svg">
    <path d="M0.320234 10.5485C0.235301 10.5485 0.153842 10.5151 0.0937851 10.4557C0.0337285 10.3962 0 10.3156 0 10.2316V0.317031C-4.36856e-09 0.232965 0.0337315 0.152346 0.0937851 0.0928925C0.153839 0.033439 0.235292 2.69616e-05 0.320234 0H10.3381C10.3801 -2.14241e-09 10.4218 0.00819525 10.4607 0.0241292C10.4995 0.0400632 10.5348 0.0634265 10.5646 0.0928677C10.5943 0.122309 10.6179 0.15725 10.634 0.195715C10.6501 0.234179 10.6583 0.275402 10.6583 0.317031V2.05364C10.6583 2.06143 10.656 2.06904 10.6516 2.07551C10.6472 2.08198 10.641 2.08704 10.6337 2.09002C10.6264 2.093 10.6184 2.09378 10.6107 2.09227C10.603 2.09075 10.5959 2.087 10.5903 2.08149L9.92988 1.42799C9.92243 1.42055 9.91824 1.41051 9.9182 1.40003V1.04955C9.9182 1.00792 9.90989 0.966689 9.89379 0.92823C9.87769 0.889771 9.85411 0.854827 9.82436 0.825395C9.79461 0.795964 9.75928 0.772628 9.72042 0.756707C9.68155 0.740785 9.6399 0.732589 9.59784 0.732602H1.06018C0.975248 0.732602 0.893788 0.765995 0.833732 0.825433C0.773675 0.88487 0.739922 0.965489 0.739922 1.04955V9.49918C0.739908 9.54081 0.74819 9.58203 0.764277 9.62049C0.780365 9.65896 0.803943 9.69391 0.833682 9.72335C0.86342 9.75279 0.89874 9.77614 0.9376 9.79208C0.97646 9.80801 1.01812 9.81621 1.06018 9.81621H9.59784C9.63991 9.81622 9.68157 9.80803 9.72044 9.7921C9.75931 9.77618 9.79464 9.75283 9.82439 9.72339C9.85413 9.69395 9.87772 9.65899 9.89382 9.62052C9.90991 9.58205 9.91821 9.54082 9.9182 9.49918V9.14868C9.91823 9.1382 9.92242 9.12815 9.92988 9.12072L10.5903 8.46722C10.5959 8.46171 10.603 8.45797 10.6107 8.45646C10.6185 8.45494 10.6265 8.45572 10.6338 8.45872C10.641 8.46171 10.6472 8.46677 10.6516 8.47326C10.656 8.47975 10.6583 8.48738 10.6583 8.49518V10.2318C10.6583 10.3158 10.6246 10.3965 10.5645 10.4559C10.5045 10.5153 10.423 10.5487 10.3381 10.5487L0.320234 10.5485ZM9.46407 8.62737L8.57558 7.74803C8.54877 7.72146 8.53372 7.68544 8.53372 7.64788C8.53372 7.61032 8.54877 7.5743 8.57558 7.54773L9.95672 6.18074H6.61088C6.5921 6.18075 6.57349 6.1771 6.55613 6.16999C6.53877 6.16288 6.52299 6.15247 6.5097 6.13932C6.49641 6.12618 6.48587 6.11056 6.47867 6.09338C6.47148 6.0762 6.46776 6.05779 6.46776 6.03919V4.50952C6.46775 4.49091 6.47146 4.47249 6.47865 4.45529C6.48583 4.43809 6.49636 4.42247 6.50965 4.4093C6.52294 4.39614 6.53873 4.3857 6.5561 4.37857C6.57347 4.37145 6.59208 4.36777 6.61088 4.36777H9.95682L8.57558 3.00088C8.54877 2.97433 8.53372 2.93832 8.53372 2.90078C8.53372 2.86324 8.54877 2.82724 8.57558 2.80068L9.46407 1.92155C9.47734 1.90836 9.49311 1.8979 9.51047 1.89075C9.52784 1.88361 9.54647 1.87994 9.56528 1.87994C9.58408 1.87994 9.60269 1.88361 9.62006 1.89075C9.63743 1.8979 9.65319 1.90836 9.66646 1.92155L13.0423 5.26247L13.0302 5.27446L13.0423 5.28646L9.66646 8.62757C9.65317 8.64071 9.6374 8.65114 9.62004 8.65824C9.60267 8.66534 9.58407 8.66898 9.56528 8.66895C9.52744 8.66884 9.49121 8.65389 9.4645 8.62737H9.46407Z" fill="#3491FF"/>
</svg>
