<svg width="14" height="9" viewBox="0 0 14 9" fill="none" xmlns="http://www.w3.org/2000/svg">
    <path d="M6.88351 8.51573C2.37981 8.51573 0.146971 4.63001 0.0541975 4.46468C0.0186535 4.40141 0 4.33021 0 4.25781C0 4.18542 0.0186535 4.11422 0.0541975 4.05094C0.146971 3.88571 2.37981 0 6.88351 0C11.3872 0 13.6201 3.88571 13.7128 4.05105C13.7484 4.11432 13.767 4.18552 13.767 4.25791C13.767 4.33031 13.7484 4.40151 13.7128 4.46478C13.6201 4.63001 11.3872 8.51573 6.88351 8.51573ZM0.936423 4.25725C1.44858 5.02484 3.45745 7.66415 6.88351 7.66415C10.3205 7.66415 12.3208 5.02697 12.8306 4.25847C12.3184 3.49089 10.3096 0.851573 6.88351 0.851573C3.44656 0.851573 1.44622 3.48875 0.936423 4.25725ZM6.88351 6.81258C6.37297 6.81258 5.8739 6.66275 5.4494 6.38203C5.0249 6.10132 4.69404 5.70233 4.49867 5.23551C4.30329 4.7687 4.25217 4.25503 4.35178 3.75946C4.45138 3.2639 4.69723 2.80869 5.05823 2.45141C5.41924 2.09412 5.87919 1.85081 6.37992 1.75223C6.88065 1.65366 7.39967 1.70425 7.87135 1.89761C8.34302 2.09097 8.74617 2.41842 9.02981 2.83854C9.31345 3.25866 9.46485 3.75259 9.46485 4.25786C9.46409 4.93519 9.19188 5.58455 8.70795 6.06349C8.22402 6.54243 7.56789 6.81183 6.88351 6.81258ZM6.88351 2.55472C6.54315 2.55472 6.21044 2.65461 5.92744 2.84175C5.64444 3.02889 5.42387 3.29489 5.29362 3.6061C5.16337 3.91731 5.12929 4.25975 5.19569 4.59013C5.26209 4.92051 5.42599 5.22398 5.66666 5.46217C5.90733 5.70036 6.21396 5.86257 6.54778 5.92828C6.8816 5.994 7.22762 5.96027 7.54207 5.83136C7.85652 5.70246 8.12529 5.48416 8.31438 5.20408C8.50347 4.924 8.6044 4.59471 8.6044 4.25786C8.60386 3.80633 8.42238 3.37344 8.09976 3.05415C7.77715 2.73487 7.33975 2.55526 6.88351 2.55472Z" fill="#4B4B4B" />
</svg>
    