<svg width="22" height="23" viewBox="0 0 22 23" fill="none" xmlns="http://www.w3.org/2000/svg">
<path d="M3.64732 0.0691386C3.29893 0.163764 3.07957 0.292798 2.8172 0.559468C2.4387 0.933667 2.25806 1.41539 2.25806 2.03476V2.28422H4.46454C6.9635 2.28852 7.12264 2.30143 7.69469 2.5767C8.13341 2.78746 8.4818 3.07133 8.72266 3.41542C8.82589 3.56166 9.12697 4.06489 9.39364 4.53372C9.75493 5.16598 9.90977 5.39824 10.0001 5.44556C10.1076 5.50147 10.6496 5.51007 13.9012 5.51007C18.1292 5.51007 18.0088 5.50577 18.6454 5.81545C19.2733 6.12514 19.7809 6.70579 20.0303 7.40257L20.1293 7.68215L20.1508 11.5317C20.1723 15.3683 20.1723 15.3812 20.2669 15.5532C20.439 15.8801 20.7185 16.0479 21.0755 16.0479C21.4411 16.0479 21.7637 15.8414 21.9185 15.5102C21.996 15.3468 22.0003 15.0629 22.0003 8.51226C22.0003 3.61757 21.9874 1.62185 21.953 1.4584C21.811 0.800331 21.2734 0.241184 20.6067 0.0648375C20.2755 -0.0254863 3.97851 -0.016884 3.64732 0.0691386Z" fill="white"/>
<path d="M1.23873 3.31184C0.722591 3.48818 0.253767 3.9484 0.0774204 4.44734C0.00430113 4.65809 0 4.95057 0 10.1119V15.5529L0.103227 15.8023C0.292477 16.2841 0.718289 16.6927 1.21292 16.8776C1.44518 16.9636 1.54841 16.9722 2.89896 16.9851L4.33554 16.998L4.185 16.8131C3.7979 16.34 3.66887 15.7421 3.83231 15.183C3.87102 15.0539 4.14629 14.5249 4.44307 14.0045C5.05813 12.9378 5.23448 12.7227 5.6904 12.5077C5.96137 12.3786 6.00438 12.37 6.48611 12.37C6.8216 12.37 6.98934 12.3528 6.98934 12.3227C6.98934 12.2066 7.26462 11.7421 7.44096 11.5657C7.91839 11.0797 8.17646 11.0152 9.61303 11.0152C11.0539 11.0152 11.2991 11.0754 11.7808 11.5657C11.9615 11.7464 12.2367 12.2066 12.2367 12.3227C12.2367 12.3528 12.4045 12.37 12.74 12.37C13.2217 12.37 13.2647 12.3786 13.5357 12.5077C13.7034 12.5851 13.9142 12.7313 14.0346 12.8518C14.2927 13.1141 15.2948 14.8346 15.3981 15.2045C15.5443 15.712 15.411 16.3486 15.0712 16.7787L14.9034 16.9937L17.8583 16.9894C20.7487 16.9894 20.8132 16.9851 20.6024 16.912C20.254 16.7873 20.1809 16.7529 19.9917 16.6109C19.7465 16.4303 19.4884 16.0991 19.368 15.8023L19.2691 15.5529L19.2476 11.7034L19.2261 7.85383L19.1228 7.60437C18.9336 7.12694 18.5078 6.71403 18.0131 6.52909C17.7637 6.43446 17.7508 6.43446 13.8066 6.41295L9.8496 6.39145L9.60443 6.27102C9.4668 6.2022 9.29475 6.07317 9.21303 5.98284C9.13561 5.89252 8.84313 5.41939 8.56786 4.93767C8.28829 4.45164 8.00441 3.98281 7.93129 3.89249C7.72914 3.63872 7.39795 3.41076 7.08827 3.31614C6.8216 3.23442 6.69687 3.23012 4.13339 3.23012C1.67314 3.23442 1.44518 3.23872 1.23873 3.31184Z" fill="white"/>
<path d="M8.49513 11.9703C8.30158 12.0219 8.08222 12.194 7.979 12.3617C7.93598 12.4305 7.86717 12.637 7.82846 12.8176C7.65641 13.6133 7.67362 13.6004 7.03275 13.3897C6.66285 13.2693 6.53812 13.2478 6.34887 13.265C5.93596 13.308 5.84563 13.4069 5.23487 14.4693C4.72304 15.3596 4.69723 15.4198 4.69293 15.6521C4.68863 15.9876 4.81766 16.194 5.30799 16.6284L5.69509 16.9725L5.26498 17.3768C5.02842 17.5962 4.80906 17.8285 4.77895 17.893C4.68003 18.0865 4.65852 18.3403 4.72304 18.5338C4.78755 18.7231 5.59617 20.1468 5.77251 20.3833C6.02198 20.7188 6.40048 20.7704 7.06285 20.5597C7.63491 20.3747 7.65641 20.3876 7.79405 20.9898C7.92308 21.5704 8.03921 21.7683 8.33169 21.9145C8.55535 22.0264 8.55965 22.0264 9.61343 22.0264C10.6672 22.0264 10.6715 22.0264 10.8952 21.9145C11.1876 21.7683 11.3038 21.5704 11.4328 20.9898C11.5704 20.3876 11.5919 20.3747 12.164 20.5597C12.6414 20.7102 12.9124 20.7274 13.1662 20.6113C13.3898 20.5081 13.4629 20.4134 14.0006 19.4758C14.5081 18.5984 14.5769 18.4263 14.5339 18.1812C14.4909 17.9059 14.4178 17.8027 13.9619 17.3768L13.5361 16.9725L13.9189 16.6284C14.4092 16.1897 14.5382 15.9833 14.5339 15.6521C14.5296 15.4198 14.5038 15.3596 14.0178 14.5166C13.7382 14.0263 13.4414 13.5617 13.3683 13.4886C13.2178 13.3424 12.9812 13.2521 12.7576 13.2521C12.6844 13.2521 12.4221 13.3166 12.1812 13.394C11.8457 13.5058 11.7167 13.5273 11.6436 13.4972C11.536 13.4499 11.5403 13.4542 11.4199 12.9123C11.3167 12.452 11.2866 12.3789 11.1059 12.1854C10.8823 11.9531 10.6758 11.9187 9.59622 11.923C9.07148 11.923 8.57685 11.9445 8.49513 11.9703ZM10.3231 14.8048C10.7919 14.9467 11.2952 15.3424 11.5661 15.7768C11.6264 15.88 11.7296 16.1123 11.7898 16.293C11.8887 16.5897 11.9016 16.6801 11.8844 17.0586C11.8629 17.5489 11.764 17.8715 11.5317 18.2199C10.6973 19.4715 8.97256 19.622 7.94029 18.5381C7.12737 17.6865 7.13167 16.2758 7.95319 15.4069C8.55965 14.7661 9.45859 14.5381 10.3231 14.8048Z" fill="white"/>
<path d="M9.19987 15.6608C8.98481 15.7296 8.66223 15.9662 8.50739 16.1684C7.84501 17.0458 8.50308 18.3447 9.61278 18.3447C10.1332 18.3447 10.6537 18.0092 10.8644 17.5447C11.0149 17.2006 11.0106 16.7146 10.8472 16.3834C10.7139 16.1167 10.4859 15.8845 10.2063 15.7425C9.99988 15.635 9.43213 15.5877 9.19987 15.6608Z" fill="white"/>
</svg>
