<svg width="34" height="42" viewBox="0 0 34 42" fill="none" xmlns="http://www.w3.org/2000/svg">
<path d="M34 12.1597C33.8076 11.6944 33.4949 11.2876 33.0934 10.9803L22.1967 0.451248C22.0824 0.310073 21.9375 0.196211 21.7728 0.118098C21.6081 0.0399855 21.4278 -0.000376606 21.2453 2.6668e-06H2.21657C1.92536 -0.000447508 1.63692 0.0561011 1.36779 0.166407C1.09866 0.276713 0.854125 0.438607 0.648208 0.642811C0.44229 0.847014 0.279036 1.08951 0.167804 1.3564C0.0565721 1.62329 -0.000451265 1.90933 2.68919e-06 2.19811V39.8019C-0.000451265 40.0907 0.0565721 40.3767 0.167804 40.6436C0.279036 40.9105 0.44229 41.153 0.648208 41.3572C0.854125 41.5614 1.09866 41.7233 1.36779 41.8336C1.63692 41.9439 1.92536 42.0004 2.21657 42H31.7869C32.3732 41.9982 32.9349 41.7657 33.3486 41.3536C33.7622 40.9414 33.994 40.3834 33.9931 39.8019V21.6632V12.1597H34ZM22.4759 4.29709L29.8806 11.1752H22.4759V4.29709ZM17.15 39.5523H2.47511V2.44425H19.9939V12.3956C19.9939 12.7229 20.125 13.0368 20.3584 13.2682C20.5918 13.4996 20.9083 13.6297 21.2384 13.6297H31.5249V21.6632V39.5523H17.15ZM7.05648 18.1182C7.13721 18.0267 7.23616 17.9527 7.34709 17.901C7.45802 17.8492 7.57855 17.8207 7.70111 17.8174H22.245C22.3697 17.8178 22.4929 17.8445 22.6065 17.8958C22.72 17.947 22.8212 18.0217 22.9034 18.1148C23.0725 18.303 23.1657 18.5464 23.1654 18.7985C23.1623 19.0505 23.0681 19.2931 22.8999 19.4822C22.8182 19.5751 22.7176 19.6499 22.6047 19.7017C22.4919 19.7536 22.3693 19.7813 22.245 19.783H7.71145C7.58674 19.7824 7.46358 19.7556 7.35009 19.7043C7.2366 19.653 7.13535 19.5785 7.05303 19.4856C6.88283 19.2925 6.78903 19.0447 6.78903 18.7882C6.78903 18.5317 6.88283 18.284 7.05303 18.0908L7.05648 18.1182ZM7.05648 32.0555C7.13767 31.9619 7.23813 31.8866 7.35111 31.8347C7.46408 31.7829 7.58695 31.7556 7.71145 31.7547H26.2851C26.4101 31.7555 26.5335 31.7828 26.647 31.8347C26.7606 31.8865 26.8617 31.9618 26.9435 32.0555C27.1137 32.2486 27.2075 32.4964 27.2075 32.7529C27.2075 33.0094 27.1137 33.2571 26.9435 33.4503C26.8601 33.5425 26.7581 33.6163 26.6441 33.6669C26.53 33.7175 26.4066 33.7439 26.2817 33.7443H7.71145C7.58711 33.7434 7.46431 33.7168 7.35093 33.6662C7.23755 33.6156 7.13608 33.542 7.05303 33.4503C6.88283 33.2571 6.78903 33.0094 6.78903 32.7529C6.78903 32.4964 6.88283 32.2486 7.05303 32.0555H7.05648ZM26.2851 24.7911C26.41 24.7928 26.5331 24.8205 26.6465 24.8723C26.7599 24.9241 26.8611 24.999 26.9435 25.092C27.1137 25.2851 27.2075 25.5329 27.2075 25.7894C27.2075 26.0458 27.1137 26.2936 26.9435 26.4867C26.8607 26.5799 26.7588 26.6546 26.6448 26.7058C26.5307 26.7571 26.4069 26.7838 26.2817 26.7841H7.71145C7.58674 26.7835 7.46358 26.7567 7.35009 26.7054C7.2366 26.6542 7.13535 26.5796 7.05303 26.4867C6.88283 26.2936 6.78903 26.0458 6.78903 25.7894C6.78903 25.5329 6.88283 25.2851 7.05303 25.092C7.1348 24.9991 7.23537 24.9242 7.34822 24.8724C7.46107 24.8206 7.58365 24.7929 7.708 24.7911H26.2851ZM7.05648 11.1546C7.13824 11.0617 7.23882 10.9869 7.35167 10.9351C7.46451 10.8833 7.5871 10.8556 7.71145 10.8538H14.4301C14.5548 10.8544 14.678 10.8813 14.7915 10.9325C14.9049 10.9838 15.0062 11.0583 15.0885 11.1512C15.2576 11.3395 15.3509 11.5828 15.3505 11.8349C15.3496 12.0862 15.2579 12.3288 15.092 12.5186C15.0101 12.6114 14.9094 12.6861 14.7966 12.7379C14.6838 12.7897 14.5613 12.8175 14.437 12.8195H7.71145C7.58674 12.8188 7.46358 12.792 7.35009 12.7408C7.2366 12.6895 7.13535 12.615 7.05303 12.5221C6.88283 12.3289 6.78903 12.0812 6.78903 11.8247C6.78903 11.5682 6.88283 11.3204 7.05303 11.1273L7.05648 11.1546Z" fill="#4B4B4B"/>
</svg>
