<svg xmlns="http://www.w3.org/2000/svg" width="16.432" height="15.289" viewBox="0 0 16.432 15.289">
    <g id="Icon_feather-calendar" data-name="Icon feather-calendar" transform="translate(0.15 0.15)">
        <path id="Path_7" data-name="Path 7" d="M5.136,4.5H17a2.264,2.264,0,0,1,1.488.538,1.8,1.8,0,0,1,.649,1.373V16.694a1.8,1.8,0,0,1-.649,1.373A2.264,2.264,0,0,1,17,18.605H5.136a2.264,2.264,0,0,1-1.488-.538A1.8,1.8,0,0,1,3,16.694V6.411a1.8,1.8,0,0,1,.649-1.373A2.264,2.264,0,0,1,5.136,4.5ZM17,17.721a1.158,1.158,0,0,0,1.252-1.027V6.411A1.158,1.158,0,0,0,17,5.384H5.136A1.158,1.158,0,0,0,3.884,6.411V16.694a1.158,1.158,0,0,0,1.252,1.027Z" transform="translate(-3 -3.616)" fill="#595959" stroke="#595959" stroke-linecap="round" stroke-width="0.3"/>
        <path id="Path_8" data-name="Path 8" d="M22.942,4.152A.442.442,0,0,1,22.5,3.71V1.942a.442.442,0,0,1,.884,0V3.71A.442.442,0,0,1,22.942,4.152Z" transform="translate(-11.488 -1.5)" fill="#595959" stroke="#595959" stroke-linecap="round" stroke-width="0.3"/>
        <path id="Path_9" data-name="Path 9" d="M10.942,4.152A.442.442,0,0,1,10.5,3.71V1.942a.442.442,0,1,1,.884,0V3.71A.442.442,0,0,1,10.942,4.152Z" transform="translate(-6.264 -1.5)" fill="#595959" stroke="#595959" stroke-linecap="round" stroke-width="0.3"/>
        <path id="Path_10" data-name="Path 10" d="M18.69,14.384H3.442a.442.442,0,1,1,0-.884H18.69a.442.442,0,1,1,0,.884Z" transform="translate(-3 -7.858)" fill="#595959" stroke="#595959" stroke-linecap="round" stroke-width="0.3"/>
        <g id="Path_16" data-name="Path 16" transform="translate(2.762 7.936)" fill="#595959">
            <path d="M 1.767894744873047 1.028597354888916 L 0.5892947316169739 1.028597354888916 C 0.3470647037029266 1.028597354888916 0.1500047147274017 0.8315273523330688 0.1500047147274017 0.589297354221344 C 0.1500047147274017 0.3470673561096191 0.3470647037029266 0.149997353553772 0.5892947316169739 0.149997353553772 L 1.767894744873047 0.149997353553772 C 2.010124683380127 0.149997353553772 2.207184791564941 0.3470673561096191 2.207184791564941 0.589297354221344 C 2.207184791564941 0.8315273523330688 2.010124683380127 1.028597354888916 1.767894744873047 1.028597354888916 Z" stroke="none"/>
            <path d="M 0.5892946720123291 0.2999973297119141 C 0.4297747611999512 0.2999973297119141 0.3000047206878662 0.4297773838043213 0.3000047206878662 0.589297354221344 C 0.3000047206878662 0.7488173246383667 0.4297747611999512 0.8785973787307739 0.5892946720123291 0.8785973787307739 L 1.767894744873047 0.8785973787307739 C 1.927414655685425 0.8785973787307739 2.05718469619751 0.7488173246383667 2.05718469619751 0.589297354221344 C 2.05718469619751 0.4297773838043213 1.927414655685425 0.2999973297119141 1.767894744873047 0.2999973297119141 L 0.5892946720123291 0.2999973297119141 M 0.5892946720123291 -2.622604370117188e-06 L 1.767894744873047 -2.622604370117188e-06 C 2.09335470199585 -2.622604370117188e-06 2.357184648513794 0.2638373374938965 2.357184648513794 0.589297354221344 C 2.357184648513794 0.9147573709487915 2.09335470199585 1.178597331047058 1.767894744873047 1.178597331047058 L 0.5892946720123291 1.178597331047058 C 0.2638347148895264 1.178597331047058 4.76837158203125e-06 0.9147573709487915 4.76837158203125e-06 0.589297354221344 C 4.76837158203125e-06 0.2638373374938965 0.2638347148895264 -2.622604370117188e-06 0.5892946720123291 -2.622604370117188e-06 Z" stroke="none" fill="#595959"/>
        </g>
        <g id="Path_17" data-name="Path 17" transform="translate(6.887 7.936)" fill="#595959">
            <path d="M 1.767894744873047 1.028597354888916 L 0.5892947316169739 1.028597354888916 C 0.3470647037029266 1.028597354888916 0.1500047147274017 0.8315273523330688 0.1500047147274017 0.589297354221344 C 0.1500047147274017 0.3470673561096191 0.3470647037029266 0.149997353553772 0.5892947316169739 0.149997353553772 L 1.767894744873047 0.149997353553772 C 2.010124683380127 0.149997353553772 2.207184791564941 0.3470673561096191 2.207184791564941 0.589297354221344 C 2.207184791564941 0.8315273523330688 2.010124683380127 1.028597354888916 1.767894744873047 1.028597354888916 Z" stroke="none"/>
            <path d="M 0.5892946720123291 0.2999973297119141 C 0.4297747611999512 0.2999973297119141 0.3000047206878662 0.4297773838043213 0.3000047206878662 0.589297354221344 C 0.3000047206878662 0.7488173246383667 0.4297747611999512 0.8785973787307739 0.5892946720123291 0.8785973787307739 L 1.767894744873047 0.8785973787307739 C 1.927414655685425 0.8785973787307739 2.05718469619751 0.7488173246383667 2.05718469619751 0.589297354221344 C 2.05718469619751 0.4297773838043213 1.927414655685425 0.2999973297119141 1.767894744873047 0.2999973297119141 L 0.5892946720123291 0.2999973297119141 M 0.5892946720123291 -2.622604370117188e-06 L 1.767894744873047 -2.622604370117188e-06 C 2.09335470199585 -2.622604370117188e-06 2.357184648513794 0.2638373374938965 2.357184648513794 0.589297354221344 C 2.357184648513794 0.9147573709487915 2.09335470199585 1.178597331047058 1.767894744873047 1.178597331047058 L 0.5892946720123291 1.178597331047058 C 0.2638347148895264 1.178597331047058 4.76837158203125e-06 0.9147573709487915 4.76837158203125e-06 0.589297354221344 C 4.76837158203125e-06 0.2638373374938965 0.2638347148895264 -2.622604370117188e-06 0.5892946720123291 -2.622604370117188e-06 Z" stroke="none" fill="#595959"/>
        </g>
        <g id="Path_18" data-name="Path 18" transform="translate(11.012 7.936)" fill="#595959">
            <path d="M 1.767894744873047 1.028597354888916 L 0.5892947316169739 1.028597354888916 C 0.3470647037029266 1.028597354888916 0.1500047147274017 0.8315273523330688 0.1500047147274017 0.589297354221344 C 0.1500047147274017 0.3470673561096191 0.3470647037029266 0.149997353553772 0.5892947316169739 0.149997353553772 L 1.767894744873047 0.149997353553772 C 2.010124683380127 0.149997353553772 2.207184791564941 0.3470673561096191 2.207184791564941 0.589297354221344 C 2.207184791564941 0.8315273523330688 2.010124683380127 1.028597354888916 1.767894744873047 1.028597354888916 Z" stroke="none"/>
            <path d="M 0.5892946720123291 0.2999973297119141 C 0.4297747611999512 0.2999973297119141 0.3000047206878662 0.4297773838043213 0.3000047206878662 0.589297354221344 C 0.3000047206878662 0.7488173246383667 0.4297747611999512 0.8785973787307739 0.5892946720123291 0.8785973787307739 L 1.767894744873047 0.8785973787307739 C 1.927414655685425 0.8785973787307739 2.05718469619751 0.7488173246383667 2.05718469619751 0.589297354221344 C 2.05718469619751 0.4297773838043213 1.927414655685425 0.2999973297119141 1.767894744873047 0.2999973297119141 L 0.5892946720123291 0.2999973297119141 M 0.5892946720123291 -2.622604370117188e-06 L 1.767894744873047 -2.622604370117188e-06 C 2.09335470199585 -2.622604370117188e-06 2.357184648513794 0.2638373374938965 2.357184648513794 0.589297354221344 C 2.357184648513794 0.9147573709487915 2.09335470199585 1.178597331047058 1.767894744873047 1.178597331047058 L 0.5892946720123291 1.178597331047058 C 0.2638347148895264 1.178597331047058 4.76837158203125e-06 0.9147573709487915 4.76837158203125e-06 0.589297354221344 C 4.76837158203125e-06 0.2638373374938965 0.2638347148895264 -2.622604370117188e-06 0.5892946720123291 -2.622604370117188e-06 Z" stroke="none" fill="#595959"/>
        </g>
        <g id="Path_19" data-name="Path 19" transform="translate(2.762 9.999)" fill="#595959">
            <path d="M 1.767894744873047 1.028597354888916 L 0.5892947316169739 1.028597354888916 C 0.3470647037029266 1.028597354888916 0.1500047147274017 0.8315273523330688 0.1500047147274017 0.589297354221344 C 0.1500047147274017 0.3470673561096191 0.3470647037029266 0.149997353553772 0.5892947316169739 0.149997353553772 L 1.767894744873047 0.149997353553772 C 2.010124683380127 0.149997353553772 2.207184791564941 0.3470673561096191 2.207184791564941 0.589297354221344 C 2.207184791564941 0.8315273523330688 2.010124683380127 1.028597354888916 1.767894744873047 1.028597354888916 Z" stroke="none"/>
            <path d="M 0.5892946720123291 0.2999973297119141 C 0.4297747611999512 0.2999973297119141 0.3000047206878662 0.4297773838043213 0.3000047206878662 0.589297354221344 C 0.3000047206878662 0.7488173246383667 0.4297747611999512 0.8785973787307739 0.5892946720123291 0.8785973787307739 L 1.767894744873047 0.8785973787307739 C 1.927414655685425 0.8785973787307739 2.05718469619751 0.7488173246383667 2.05718469619751 0.589297354221344 C 2.05718469619751 0.4297773838043213 1.927414655685425 0.2999973297119141 1.767894744873047 0.2999973297119141 L 0.5892946720123291 0.2999973297119141 M 0.5892946720123291 -2.622604370117188e-06 L 1.767894744873047 -2.622604370117188e-06 C 2.09335470199585 -2.622604370117188e-06 2.357184648513794 0.2638373374938965 2.357184648513794 0.589297354221344 C 2.357184648513794 0.9147573709487915 2.09335470199585 1.178597331047058 1.767894744873047 1.178597331047058 L 0.5892946720123291 1.178597331047058 C 0.2638347148895264 1.178597331047058 4.76837158203125e-06 0.9147573709487915 4.76837158203125e-06 0.589297354221344 C 4.76837158203125e-06 0.2638373374938965 0.2638347148895264 -2.622604370117188e-06 0.5892946720123291 -2.622604370117188e-06 Z" stroke="none" fill="#595959"/>
        </g>
        <g id="Path_20" data-name="Path 20" transform="translate(6.887 9.999)" fill="#595959">
            <path d="M 1.767894744873047 1.028597354888916 L 0.5892947316169739 1.028597354888916 C 0.3470647037029266 1.028597354888916 0.1500047147274017 0.8315273523330688 0.1500047147274017 0.589297354221344 C 0.1500047147274017 0.3470673561096191 0.3470647037029266 0.149997353553772 0.5892947316169739 0.149997353553772 L 1.767894744873047 0.149997353553772 C 2.010124683380127 0.149997353553772 2.207184791564941 0.3470673561096191 2.207184791564941 0.589297354221344 C 2.207184791564941 0.8315273523330688 2.010124683380127 1.028597354888916 1.767894744873047 1.028597354888916 Z" stroke="none"/>
            <path d="M 0.5892946720123291 0.2999973297119141 C 0.4297747611999512 0.2999973297119141 0.3000047206878662 0.4297773838043213 0.3000047206878662 0.589297354221344 C 0.3000047206878662 0.7488173246383667 0.4297747611999512 0.8785973787307739 0.5892946720123291 0.8785973787307739 L 1.767894744873047 0.8785973787307739 C 1.927414655685425 0.8785973787307739 2.05718469619751 0.7488173246383667 2.05718469619751 0.589297354221344 C 2.05718469619751 0.4297773838043213 1.927414655685425 0.2999973297119141 1.767894744873047 0.2999973297119141 L 0.5892946720123291 0.2999973297119141 M 0.5892946720123291 -2.622604370117188e-06 L 1.767894744873047 -2.622604370117188e-06 C 2.09335470199585 -2.622604370117188e-06 2.357184648513794 0.2638373374938965 2.357184648513794 0.589297354221344 C 2.357184648513794 0.9147573709487915 2.09335470199585 1.178597331047058 1.767894744873047 1.178597331047058 L 0.5892946720123291 1.178597331047058 C 0.2638347148895264 1.178597331047058 4.76837158203125e-06 0.9147573709487915 4.76837158203125e-06 0.589297354221344 C 4.76837158203125e-06 0.2638373374938965 0.2638347148895264 -2.622604370117188e-06 0.5892946720123291 -2.622604370117188e-06 Z" stroke="none" fill="#595959"/>
        </g>
        <g id="Path_21" data-name="Path 21" transform="translate(11.012 9.999)" fill="#595959">
            <path d="M 1.767894744873047 1.028597354888916 L 0.5892947316169739 1.028597354888916 C 0.3470647037029266 1.028597354888916 0.1500047147274017 0.8315273523330688 0.1500047147274017 0.589297354221344 C 0.1500047147274017 0.3470673561096191 0.3470647037029266 0.149997353553772 0.5892947316169739 0.149997353553772 L 1.767894744873047 0.149997353553772 C 2.010124683380127 0.149997353553772 2.207184791564941 0.3470673561096191 2.207184791564941 0.589297354221344 C 2.207184791564941 0.8315273523330688 2.010124683380127 1.028597354888916 1.767894744873047 1.028597354888916 Z" stroke="none"/>
            <path d="M 0.5892946720123291 0.2999973297119141 C 0.4297747611999512 0.2999973297119141 0.3000047206878662 0.4297773838043213 0.3000047206878662 0.589297354221344 C 0.3000047206878662 0.7488173246383667 0.4297747611999512 0.8785973787307739 0.5892946720123291 0.8785973787307739 L 1.767894744873047 0.8785973787307739 C 1.927414655685425 0.8785973787307739 2.05718469619751 0.7488173246383667 2.05718469619751 0.589297354221344 C 2.05718469619751 0.4297773838043213 1.927414655685425 0.2999973297119141 1.767894744873047 0.2999973297119141 L 0.5892946720123291 0.2999973297119141 M 0.5892946720123291 -2.622604370117188e-06 L 1.767894744873047 -2.622604370117188e-06 C 2.09335470199585 -2.622604370117188e-06 2.357184648513794 0.2638373374938965 2.357184648513794 0.589297354221344 C 2.357184648513794 0.9147573709487915 2.09335470199585 1.178597331047058 1.767894744873047 1.178597331047058 L 0.5892946720123291 1.178597331047058 C 0.2638347148895264 1.178597331047058 4.76837158203125e-06 0.9147573709487915 4.76837158203125e-06 0.589297354221344 C 4.76837158203125e-06 0.2638373374938965 0.2638347148895264 -2.622604370117188e-06 0.5892946720123291 -2.622604370117188e-06 Z" stroke="none" fill="#595959"/>
        </g>
        <g id="Path_22" data-name="Path 22" transform="translate(2.762 12.062)" fill="#595959">
            <path d="M 1.767894744873047 1.028597354888916 L 0.5892947316169739 1.028597354888916 C 0.3470647037029266 1.028597354888916 0.1500047147274017 0.8315273523330688 0.1500047147274017 0.589297354221344 C 0.1500047147274017 0.3470673561096191 0.3470647037029266 0.149997353553772 0.5892947316169739 0.149997353553772 L 1.767894744873047 0.149997353553772 C 2.010124683380127 0.149997353553772 2.207184791564941 0.3470673561096191 2.207184791564941 0.589297354221344 C 2.207184791564941 0.8315273523330688 2.010124683380127 1.028597354888916 1.767894744873047 1.028597354888916 Z" stroke="none"/>
            <path d="M 0.5892946720123291 0.2999973297119141 C 0.4297747611999512 0.2999973297119141 0.3000047206878662 0.4297773838043213 0.3000047206878662 0.589297354221344 C 0.3000047206878662 0.7488173246383667 0.4297747611999512 0.8785973787307739 0.5892946720123291 0.8785973787307739 L 1.767894744873047 0.8785973787307739 C 1.927414655685425 0.8785973787307739 2.05718469619751 0.7488173246383667 2.05718469619751 0.589297354221344 C 2.05718469619751 0.4297773838043213 1.927414655685425 0.2999973297119141 1.767894744873047 0.2999973297119141 L 0.5892946720123291 0.2999973297119141 M 0.5892946720123291 -2.622604370117188e-06 L 1.767894744873047 -2.622604370117188e-06 C 2.09335470199585 -2.622604370117188e-06 2.357184648513794 0.2638373374938965 2.357184648513794 0.589297354221344 C 2.357184648513794 0.9147573709487915 2.09335470199585 1.178597331047058 1.767894744873047 1.178597331047058 L 0.5892946720123291 1.178597331047058 C 0.2638347148895264 1.178597331047058 4.76837158203125e-06 0.9147573709487915 4.76837158203125e-06 0.589297354221344 C 4.76837158203125e-06 0.2638373374938965 0.2638347148895264 -2.622604370117188e-06 0.5892946720123291 -2.622604370117188e-06 Z" stroke="none" fill="#595959"/>
        </g>
        <g id="Path_23" data-name="Path 23" transform="translate(6.887 12.062)" fill="#595959">
            <path d="M 1.767894744873047 1.028597354888916 L 0.5892947316169739 1.028597354888916 C 0.3470647037029266 1.028597354888916 0.1500047147274017 0.8315273523330688 0.1500047147274017 0.589297354221344 C 0.1500047147274017 0.3470673561096191 0.3470647037029266 0.149997353553772 0.5892947316169739 0.149997353553772 L 1.767894744873047 0.149997353553772 C 2.010124683380127 0.149997353553772 2.207184791564941 0.3470673561096191 2.207184791564941 0.589297354221344 C 2.207184791564941 0.8315273523330688 2.010124683380127 1.028597354888916 1.767894744873047 1.028597354888916 Z" stroke="none"/>
            <path d="M 0.5892946720123291 0.2999973297119141 C 0.4297747611999512 0.2999973297119141 0.3000047206878662 0.4297773838043213 0.3000047206878662 0.589297354221344 C 0.3000047206878662 0.7488173246383667 0.4297747611999512 0.8785973787307739 0.5892946720123291 0.8785973787307739 L 1.767894744873047 0.8785973787307739 C 1.927414655685425 0.8785973787307739 2.05718469619751 0.7488173246383667 2.05718469619751 0.589297354221344 C 2.05718469619751 0.4297773838043213 1.927414655685425 0.2999973297119141 1.767894744873047 0.2999973297119141 L 0.5892946720123291 0.2999973297119141 M 0.5892946720123291 -2.622604370117188e-06 L 1.767894744873047 -2.622604370117188e-06 C 2.09335470199585 -2.622604370117188e-06 2.357184648513794 0.2638373374938965 2.357184648513794 0.589297354221344 C 2.357184648513794 0.9147573709487915 2.09335470199585 1.178597331047058 1.767894744873047 1.178597331047058 L 0.5892946720123291 1.178597331047058 C 0.2638347148895264 1.178597331047058 4.76837158203125e-06 0.9147573709487915 4.76837158203125e-06 0.589297354221344 C 4.76837158203125e-06 0.2638373374938965 0.2638347148895264 -2.622604370117188e-06 0.5892946720123291 -2.622604370117188e-06 Z" stroke="none" fill="#595959"/>
        </g>
        <g id="Path_24" data-name="Path 24" transform="translate(11.012 12.062)" fill="#595959">
            <path d="M 1.767894744873047 1.028597354888916 L 0.5892947316169739 1.028597354888916 C 0.3470647037029266 1.028597354888916 0.1500047147274017 0.8315273523330688 0.1500047147274017 0.589297354221344 C 0.1500047147274017 0.3470673561096191 0.3470647037029266 0.149997353553772 0.5892947316169739 0.149997353553772 L 1.767894744873047 0.149997353553772 C 2.010124683380127 0.149997353553772 2.207184791564941 0.3470673561096191 2.207184791564941 0.589297354221344 C 2.207184791564941 0.8315273523330688 2.010124683380127 1.028597354888916 1.767894744873047 1.028597354888916 Z" stroke="none"/>
            <path d="M 0.5892946720123291 0.2999973297119141 C 0.4297747611999512 0.2999973297119141 0.3000047206878662 0.4297773838043213 0.3000047206878662 0.589297354221344 C 0.3000047206878662 0.7488173246383667 0.4297747611999512 0.8785973787307739 0.5892946720123291 0.8785973787307739 L 1.767894744873047 0.8785973787307739 C 1.927414655685425 0.8785973787307739 2.05718469619751 0.7488173246383667 2.05718469619751 0.589297354221344 C 2.05718469619751 0.4297773838043213 1.927414655685425 0.2999973297119141 1.767894744873047 0.2999973297119141 L 0.5892946720123291 0.2999973297119141 M 0.5892946720123291 -2.622604370117188e-06 L 1.767894744873047 -2.622604370117188e-06 C 2.09335470199585 -2.622604370117188e-06 2.357184648513794 0.2638373374938965 2.357184648513794 0.589297354221344 C 2.357184648513794 0.9147573709487915 2.09335470199585 1.178597331047058 1.767894744873047 1.178597331047058 L 0.5892946720123291 1.178597331047058 C 0.2638347148895264 1.178597331047058 4.76837158203125e-06 0.9147573709487915 4.76837158203125e-06 0.589297354221344 C 4.76837158203125e-06 0.2638373374938965 0.2638347148895264 -2.622604370117188e-06 0.5892946720123291 -2.622604370117188e-06 Z" stroke="none" fill="#595959"/>
        </g>
    </g>
</svg>