<svg xmlns="http://www.w3.org/2000/svg" width="60" height="68" viewBox="0 0 60 68" fill="none">
<path d="M36.5805 23.0825C36.5805 30.1717 30.8835 35.901 23.8774 35.901C16.8714 35.901 11.1743 30.1717 11.1743 23.0825C11.1743 15.9932 16.8714 10.2639 23.8774 10.2639C30.8835 10.2639 36.5805 15.9932 36.5805 23.0825Z" stroke="#4B4B4B" stroke-width="2.5"/>
<path d="M10.1021 38.0497C17.9363 45.6865 30.3835 45.528 38.0067 37.7273C39.4115 38.0512 40.7136 39.1351 41.8891 40.9237C43.1086 42.7791 44.0824 45.2338 44.8169 47.8654C46.2913 53.1476 46.7037 58.7692 46.4231 60.953C46.1979 62.3675 45.4866 63.6162 44.3958 64.496L44.3824 64.5068L44.3693 64.518C42.6551 65.9805 40.4681 66.7761 38.2338 66.7496L38.2264 66.7495H38.219H9.56581H9.55848L9.55115 66.7496C7.28503 66.7761 5.09836 65.9793 3.38561 64.518L3.37774 64.5113L3.36976 64.5047C2.29015 63.6141 1.55541 62.3558 1.33181 60.9529C1.05122 58.7692 1.46362 53.1478 2.94149 47.8661C3.67776 45.2348 4.65418 42.7805 5.87743 40.9252C7.05567 39.1382 8.36218 38.053 9.77429 37.7279C9.78774 37.7425 9.80354 37.7595 9.8225 37.7797C9.88954 37.8513 9.98456 37.9497 10.1021 38.0497Z" stroke="#4B4B4B" stroke-width="2.5"/>
<path d="M25.9769 6.84323C27.9743 3.89195 31.0997 1.89666 34.6287 1.38502L34.6303 1.38479C41.5568 0.371457 48.0118 5.19015 49.0481 12.2295L49.0482 12.2302C49.9897 18.6003 46.0874 24.5722 40.1675 26.3673C40.3311 25.4132 40.4201 24.4414 40.4201 23.465C40.4201 14.967 34.1463 7.92227 25.9769 6.84323Z" stroke="#4B4B4B" stroke-width="2.5"/>
<path d="M41.7143 34.5233C44.9584 33.599 47.9285 31.8275 50.2794 29.3496C51.6736 29.6814 52.9663 30.7628 54.134 32.5395C55.3535 34.395 56.3273 36.8496 57.0618 39.4812C58.5362 44.7635 58.9486 50.385 58.668 52.5689C58.4427 53.9834 57.7315 55.232 56.6407 56.1119L56.6273 56.1227L56.6142 56.1339C54.9 57.5963 52.713 58.3919 50.4787 58.3654L50.4713 58.3653H50.4639H50.3558C50.0695 52.2848 48.7132 46.3013 46.3106 40.6936C45.4203 38.184 43.8068 36.043 41.7143 34.5233Z" stroke="#4B4B4B" stroke-width="2.5"/>
</svg>