<svg width="28" height="28" viewBox="0 0 28 28" fill="none" xmlns="http://www.w3.org/2000/svg">
<path d="M14.3504 1.6317V14.006C14.3504 14.0513 14.3415 14.0961 14.3242 14.1378C14.3069 14.1796 14.2816 14.2176 14.2496 14.2496C14.2176 14.2816 14.1796 14.3069 14.1378 14.3242C14.0961 14.3415 14.0513 14.3504 14.006 14.3504H1.6317C1.5858 14.3502 1.54034 14.3593 1.49798 14.377C1.45562 14.3946 1.41721 14.4206 1.38499 14.4533C1.35278 14.486 1.3274 14.5248 1.31035 14.5674C1.2933 14.61 1.28492 14.6556 1.28569 14.7015C1.35431 17.2556 2.17005 19.7335 3.63204 21.8289C5.09404 23.9243 7.13815 25.5453 9.5116 26.4912C11.885 27.4372 14.4837 27.6668 16.9862 27.1515C19.4888 26.6362 21.7854 25.3987 23.592 23.592C25.3987 21.7854 26.6362 19.4888 27.1515 16.9862C27.6668 14.4837 27.4372 11.885 26.4912 9.5116C25.5453 7.13815 23.9243 5.09404 21.8289 3.63204C19.7335 2.17005 17.2556 1.35431 14.7015 1.28569C14.6556 1.28492 14.61 1.2933 14.5674 1.31035C14.5248 1.3274 14.486 1.35278 14.4533 1.38499C14.4206 1.41721 14.3946 1.45562 14.377 1.49798C14.3593 1.54034 14.3502 1.5858 14.3504 1.6317Z" fill="#666569"/>
<path d="M14.3504 1.6317V14.006C14.3504 14.0513 14.3415 14.0961 14.3242 14.1378C14.3069 14.1796 14.2816 14.2176 14.2496 14.2496C14.2176 14.2816 14.1796 14.3069 14.1378 14.3242C14.0961 14.3415 14.0513 14.3504 14.006 14.3504H1.6317C1.5858 14.3503 1.54034 14.3593 1.49798 14.377C1.45562 14.3946 1.41721 14.4206 1.38499 14.4533C1.35278 14.486 1.3274 14.5248 1.31035 14.5674C1.2933 14.61 1.28492 14.6556 1.28569 14.7015C1.35431 17.2556 2.17005 19.7335 3.63204 21.8289C5.09404 23.9243 7.13815 25.5453 9.5116 26.4912C11.885 27.4372 14.4837 27.6668 16.9862 27.1515C19.4888 26.6362 21.7854 25.3987 23.592 23.592C25.3987 21.7854 26.6362 19.4888 27.1515 16.9862C27.6668 14.4837 27.4372 11.885 26.4912 9.5116C25.5453 7.13815 23.9243 5.09404 21.8289 3.63204C19.7335 2.17005 17.2556 1.35431 14.7015 1.28569C14.6556 1.28492 14.61 1.2933 14.5674 1.31035C14.5248 1.3274 14.486 1.35278 14.4533 1.38499C14.4206 1.41721 14.3946 1.45562 14.377 1.49798C14.3593 1.54034 14.3503 1.5858 14.3504 1.6317Z" fill="#666569"/>
<path d="M12.7143 5.35973e-05C9.37063 0.0898265 6.1886 1.45818 3.82339 3.82339C1.45818 6.1886 0.0898265 9.37063 5.35973e-05 12.7143C-0.000755333 12.7602 0.00759969 12.8057 0.0246286 12.8483C0.0416575 12.8909 0.0670175 12.9297 0.0992218 12.9623C0.131426 12.995 0.169826 13.0209 0.212171 13.0385C0.254516 13.0561 0.299953 13.0651 0.345817 13.065H12.7197C12.765 13.0651 12.81 13.0562 12.8519 13.0389C12.8939 13.0216 12.932 12.9961 12.964 12.964C12.9961 12.932 13.0216 12.8939 13.0389 12.8519C13.0562 12.81 13.0651 12.765 13.065 12.7197V0.345817C13.0651 0.299953 13.0561 0.254516 13.0385 0.212171C13.0209 0.169826 12.995 0.131426 12.9623 0.0992218C12.9297 0.0670175 12.8909 0.0416575 12.8483 0.0246286C12.8057 0.00759969 12.7602 -0.000755333 12.7143 5.35973e-05Z" fill="#666569"/>
</svg>
