<svg id="Icon_feather-calendar" data-name="Icon feather-calendar" xmlns="http://www.w3.org/2000/svg" width="21.593" height="20.063" viewBox="0 0 21.593 20.063">
  <path id="Path_7" data-name="Path 7" d="M5.859,4.5H21.733a3.03,3.03,0,0,1,1.991.721,2.415,2.415,0,0,1,.868,1.837V20.822a2.415,2.415,0,0,1-.868,1.837,3.03,3.03,0,0,1-1.991.721H5.859a3.03,3.03,0,0,1-1.991-.721A2.415,2.415,0,0,1,3,20.822V7.058a2.415,2.415,0,0,1,.868-1.837A3.03,3.03,0,0,1,5.859,4.5ZM21.733,22.2a1.55,1.55,0,0,0,1.676-1.375V7.058a1.55,1.55,0,0,0-1.676-1.375H5.859A1.55,1.55,0,0,0,4.183,7.058V20.822A1.55,1.55,0,0,0,5.859,22.2Z" transform="translate(-3 -3.317)" fill="#595959"/>
  <path id="Path_8" data-name="Path 8" d="M23.092,5.05a.592.592,0,0,1-.592-.592V2.092a.592.592,0,0,1,1.183,0V4.458A.592.592,0,0,1,23.092,5.05Z" transform="translate(-7.76 -1.5)" fill="#595959"/>
  <path id="Path_9" data-name="Path 9" d="M11.092,5.05a.592.592,0,0,1-.592-.592V2.092a.592.592,0,1,1,1.183,0V4.458A.592.592,0,0,1,11.092,5.05Z" transform="translate(-4.831 -1.5)" fill="#595959"/>
  <path id="Path_10" data-name="Path 10" d="M24,14.683H3.592a.592.592,0,1,1,0-1.183H24a.592.592,0,1,1,0,1.183Z" transform="translate(-3 -5.948)" fill="#595959"/>
  <path id="Path_16" data-name="Path 16" d="M.789,0H2.366a.789.789,0,0,1,0,1.578H.789A.789.789,0,0,1,.789,0Z" transform="translate(3.697 10.623)" fill="#595959"/>
  <path id="Path_17" data-name="Path 17" d="M.789,0H2.366a.789.789,0,0,1,0,1.578H.789A.789.789,0,0,1,.789,0Z" transform="translate(9.219 10.623)" fill="#595959"/>
  <path id="Path_18" data-name="Path 18" d="M.789,0H2.366a.789.789,0,0,1,0,1.578H.789A.789.789,0,0,1,.789,0Z" transform="translate(14.74 10.623)" fill="#595959"/>
  <path id="Path_19" data-name="Path 19" d="M.789,0H2.366a.789.789,0,0,1,0,1.578H.789A.789.789,0,0,1,.789,0Z" transform="translate(3.697 13.384)" fill="#595959"/>
  <path id="Path_20" data-name="Path 20" d="M.789,0H2.366a.789.789,0,0,1,0,1.578H.789A.789.789,0,0,1,.789,0Z" transform="translate(9.219 13.384)" fill="#595959"/>
  <path id="Path_21" data-name="Path 21" d="M.789,0H2.366a.789.789,0,0,1,0,1.578H.789A.789.789,0,0,1,.789,0Z" transform="translate(14.74 13.384)" fill="#595959"/>
  <path id="Path_22" data-name="Path 22" d="M.789,0H2.366a.789.789,0,0,1,0,1.578H.789A.789.789,0,0,1,.789,0Z" transform="translate(3.697 16.145)" fill="#595959"/>
  <path id="Path_23" data-name="Path 23" d="M.789,0H2.366a.789.789,0,0,1,0,1.578H.789A.789.789,0,0,1,.789,0Z" transform="translate(9.219 16.145)" fill="#595959"/>
  <path id="Path_24" data-name="Path 24" d="M.789,0H2.366a.789.789,0,0,1,0,1.578H.789A.789.789,0,0,1,.789,0Z" transform="translate(14.74 16.145)" fill="#595959"/>
</svg>
