<svg width="6" height="11" viewBox="0 0 6 11" fill="none" xmlns="http://www.w3.org/2000/svg">
<path d="M0.244413 6.62309C0.274731 6.58568 0.31268 6.55557 0.355573 6.53491C0.398466 6.51425 0.445252 6.50354 0.492619 6.50354C0.539986 6.50354 0.586772 6.51425 0.629665 6.53491C0.672558 6.55557 0.710507 6.58568 0.740825 6.62309L2.38448 8.53804L2.38448 1.2328C2.37976 1.13135 2.41376 1.03201 2.47924 0.955963C2.54471 0.879911 2.63648 0.833154 2.735 0.825652C2.83351 0.833154 2.92528 0.879911 2.99076 0.955963C3.05623 1.03201 3.09023 1.13135 3.08552 1.2328L3.08552 8.53804L4.72917 6.61628C4.75967 6.57916 4.79768 6.54933 4.84055 6.52887C4.88342 6.50841 4.93011 6.49781 4.97737 6.49781C5.02464 6.49781 5.07133 6.50841 5.1142 6.52887C5.15707 6.54933 5.19508 6.57916 5.22558 6.61628C5.29174 6.69733 5.328 6.79975 5.328 6.90556C5.328 7.01138 5.29174 7.1138 5.22558 7.19485L2.9832 9.80136C2.95176 9.83636 2.91456 9.86537 2.87331 9.88708C2.83114 9.9082 2.78474 9.91888 2.73784 9.91825C2.69124 9.91765 2.64529 9.90692 2.603 9.88678C2.56072 9.86663 2.52305 9.83753 2.49248 9.80136L0.25294 7.19777C0.185158 7.11874 0.147053 7.01741 0.14549 6.91205C0.143927 6.80669 0.179008 6.70422 0.244413 6.62309Z" fill="#888888" stroke="#888888" stroke-width="0.25"/>
</svg>
