<svg xmlns="http://www.w3.org/2000/svg" width="144.283" height="144.283" viewBox="0 0 144.283 144.283"><defs><style>.a{fill:none;stroke:#000;stroke-linecap:round;stroke-linejoin:round;stroke-width:8px;}</style></defs><g transform="translate(4.157 4.157)"><path class="a" d="M36.317,31.5a12.088,12.088,0,0,1-20.912,0" transform="translate(42.123 90.881)"/><path class="a" d="M30.818,42.22A108.129,108.129,0,0,1,27.01,12" transform="translate(77.239 31.808)"/><path class="a" d="M24.2,9.39a35.418,35.418,0,0,0-1.571,10.517C22.632,62.215,4.5,74.3,4.5,74.3H89.117" transform="translate(9.088 23.902)"/><path class="a" d="M69.4,39.3A36.264,36.264,0,0,0,13.005,9.085" transform="translate(34.853 4.504)"/><path class="a" d="M1.5,1.5,134.469,134.469" transform="translate(0 0)"/></g></svg>