<svg xmlns="http://www.w3.org/2000/svg" viewBox="0 0 512 512"><defs><style>.cls-1{fill:#fff;}</style></defs><g id="Layer_1" data-name="Layer 1"><path id="Shape" class="cls-1" d="M133.85,307.05V451.9a28.72,28.72,0,0,0,28.71,28.72h28.72A28.72,28.72,0,0,0,220,451.9V307.05a86.22,86.22,0,0,0,71.78-84.84V136.08a28.72,28.72,0,0,0-28.71-28.72H234.34V49.94a14.36,14.36,0,0,0-28.71,0v57.42H148.21V49.94a14.36,14.36,0,0,0-28.71,0v57.42H90.79a28.72,28.72,0,0,0-28.72,28.72v86.13A86.22,86.22,0,0,0,133.85,307.05ZM191.28,451.9H162.56V308.35h28.72Zm71.78-315.82v28.71H234.34a14.36,14.36,0,0,0,0,28.71h28.72v28.71a57.42,57.42,0,0,1-57.43,57.42H148.21a57.42,57.42,0,0,1-57.42-57.42V193.5h86.13a14.36,14.36,0,1,0,0-28.71H90.79V136.08Z"/><path class="cls-1" d="M358.93,416.63a8.92,8.92,0,0,0,8.92-8.92V351.16a8.92,8.92,0,0,0-17.84,0v56.55a8.92,8.92,0,0,0,8.92,8.92Zm-75.93,64H434.86a29.77,29.77,0,0,0,25.83-44.56L384.76,303.53c-11.16-19.89-40.68-19.56-51.66,0l-23.31,40.68a8.92,8.92,0,0,0,15.48,8.87l23.31-40.68c4.39-7.89,16.23-8,20.7,0l75.93,132.53c4.51,7.71-1.35,17.93-10.35,17.85H283c-9,.08-14.88-10.12-10.35-17.85l36-62.75a8.92,8.92,0,0,0-15.48-8.87l-35.95,62.75A29.77,29.77,0,0,0,283,480.62Zm75.93-35.07a9,9,0,1,0-9-9A9,9,0,0,0,358.93,445.55Z"/></g></svg>