<?xml version="1.0"?>
<svg xmlns="http://www.w3.org/2000/svg" xmlns:xlink="http://www.w3.org/1999/xlink" xmlns:svgjs="http://svgjs.com/svgjs" version="1.1" width="512" height="512" x="0" y="0" viewBox="0 0 24 24" style="enable-background:new 0 0 512 512" xml:space="preserve" class=""><g><g xmlns="http://www.w3.org/2000/svg"><path d="m20.5 24h-17c-1.93 0-3.5-1.57-3.5-3.5s1.57-3.5 3.5-3.5h17c1.93 0 3.5 1.57 3.5 3.5s-1.57 3.5-3.5 3.5zm-17-6c-1.379 0-2.5 1.122-2.5 2.5s1.121 2.5 2.5 2.5h17c1.379 0 2.5-1.122 2.5-2.5s-1.121-2.5-2.5-2.5z" fill="#ffffff" data-original="#000000" style="" class=""/></g><g xmlns="http://www.w3.org/2000/svg"><path d="m5 21.5c-.552 0-1-.449-1-1s.448-1 1-1 1 .449 1 1-.448 1-1 1z" fill="#ffffff" data-original="#000000" style="" class=""/></g><g xmlns="http://www.w3.org/2000/svg"><path d="m10 21.5c-.552 0-1-.449-1-1s.448-1 1-1 1 .449 1 1-.448 1-1 1z" fill="#ffffff" data-original="#000000" style="" class=""/></g><g xmlns="http://www.w3.org/2000/svg"><path d="m15 21.5c-.552 0-1-.449-1-1s.448-1 1-1 1 .449 1 1-.448 1-1 1z" fill="#ffffff" data-original="#000000" style="" class=""/></g><g xmlns="http://www.w3.org/2000/svg"><path d="m20 21.5c-.552 0-1-.449-1-1s.448-1 1-1 1 .449 1 1-.448 1-1 1z" fill="#ffffff" data-original="#000000" style="" class=""/></g><g xmlns="http://www.w3.org/2000/svg"><path d="m18.5 4h-13c-.827 0-1.5-.673-1.5-1.5v-2c0-.276.224-.5.5-.5h15c.276 0 .5.224.5.5v2c0 .827-.673 1.5-1.5 1.5zm-13.5-3v1.5c0 .276.225.5.5.5h13c.275 0 .5-.224.5-.5v-1.5z" fill="#ffffff" data-original="#000000" style="" class=""/></g><g xmlns="http://www.w3.org/2000/svg"><path d="m12 7c-1.654 0-3-1.346-3-3v-.5h1v.5c0 1.103.897 2 2 2s2-.897 2-2v-.5h1v.5c0 1.654-1.346 3-3 3z" fill="#ffffff" data-original="#000000" style="" class=""/></g><g xmlns="http://www.w3.org/2000/svg"><path d="m19.25 11c-1.103 0-2-.897-2-2s.897-2 2-2 2 .897 2 2-.897 2-2 2zm0-3c-.552 0-1 .449-1 1s.448 1 1 1 1-.449 1-1-.448-1-1-1z" fill="#ffffff" data-original="#000000" style="" class=""/></g><g xmlns="http://www.w3.org/2000/svg"><path d="m14.5 16h-4c-.276 0-.5-.224-.5-.5s.224-.5.5-.5h4c.276 0 .5.224.5.5s-.224.5-.5.5z" fill="#ffffff" data-original="#000000" style="" class=""/></g><g xmlns="http://www.w3.org/2000/svg"><path d="m12.5 14.5c-.276 0-.5-.224-.5-.5v-2.5c0-.209.13-.396.326-.469l5.35-1.98c.26-.097.548.036.643.295.096.259-.036.546-.295.642l-5.024 1.86v2.152c0 .276-.224.5-.5.5z" fill="#ffffff" data-original="#000000" style="" class=""/></g><g xmlns="http://www.w3.org/2000/svg"><path d="m15.29 4.624h1v4.932h-1z" transform="matrix(.483 -.876 .876 .483 1.961 17.5)" fill="#ffffff" data-original="#000000" style="" class=""/></g></g></svg>
