<svg width="108" height="108" viewBox="0 0 108 108" fill="none" xmlns="http://www.w3.org/2000/svg">
<path d="M42.4328 0.251093C42.0905 0.361604 41.7588 0.502237 41.4413 0.671342C40.8279 1.02435 39.9749 1.9531 39.9749 2.25988C39.9749 2.39857 40.4413 5.1512 41.0127 8.3661C41.5841 11.581 42.0505 14.4429 42.0505 14.6698C42.051 14.978 41.9682 15.2805 41.8106 15.5453C41.6531 15.8101 41.4268 16.0273 41.1558 16.1739C40.8848 16.3204 40.5792 16.3908 40.2714 16.3775C39.9636 16.3643 39.6652 16.2679 39.4077 16.0987C38.7733 15.7036 38.7439 15.607 37.7271 9.8748C37.2146 6.93305 36.7692 4.46199 36.7482 4.41156C36.6978 4.27288 36.0549 4.60067 34.7188 5.45798C30.4173 8.21902 27.1634 12.3406 25.4755 17.1661C24.7764 19.1551 24.366 21.2341 24.257 23.3396L24.1898 24.4953L23.3496 24.5541C22.7157 24.5664 22.0973 24.7523 21.5617 25.0917C21.0261 25.431 20.5938 25.9108 20.3118 26.4788C20.0926 26.9079 19.9966 27.3895 20.0346 27.8699C19.9897 28.3483 20.0783 28.8299 20.2908 29.2609C20.6465 29.9879 21.2393 30.5719 21.9714 30.9167L22.526 31.173H71.6082L72.1712 30.8957C72.9454 30.4937 73.5548 29.8336 73.8938 29.0297C74.0181 28.6314 74.0777 28.2157 74.0702 27.7984C74.0929 27.3253 73.9792 26.8555 73.7425 26.4452C73.464 25.8705 73.0277 25.3871 72.4845 25.0514C71.9414 24.7158 71.3138 24.5418 70.6754 24.5499L69.8939 24.4827L69.8267 23.5371C69.6728 20.4102 68.8777 17.3484 67.4906 14.5418C66.1036 11.7353 64.1543 9.24413 61.764 7.22302C60.4402 6.04706 58.9366 5.09079 57.3104 4.39055C57.3104 4.77717 55.3903 15.2204 55.2937 15.4263C55.1691 15.6708 54.9886 15.8826 54.767 16.0444C54.5453 16.2062 54.2887 16.3136 54.0179 16.3578C53.7471 16.402 53.4696 16.3818 53.2081 16.2988C52.9465 16.2158 52.7081 16.0724 52.5123 15.8802C51.84 15.2078 51.8316 15.4347 53.0459 8.5342C53.6509 5.13018 54.1425 2.27249 54.1425 2.19264C53.8041 1.60448 53.3284 1.10702 52.756 0.742785C51.7182 0.0703861 51.4955 0.0535759 47.0377 0.0619809C45.5007 -0.0626632 43.9544 0.000843753 42.4328 0.251093Z" fill="#4B4B4B"/>
<path d="M24.4419 34.7914C24.4419 34.8922 24.5133 35.531 24.6015 36.2034C25.3944 44.08 28.6966 51.4934 34.0214 57.3504C36.7127 60.2109 40.2082 62.1876 44.0462 63.0195C45.0353 63.2229 46.0461 63.2991 47.0544 63.2464C48.0655 63.2983 49.0792 63.2221 50.0712 63.0195C54.0294 62.1485 57.6165 60.062 60.3312 57.0519C65.542 51.1622 68.7568 43.775 69.5158 35.947C69.5956 35.2956 69.6628 34.7242 69.6628 34.6863C69.209 34.6108 68.7485 34.584 68.289 34.6064H66.9151L66.8478 35.22C66.32 40.4502 64.666 45.5041 61.9992 50.0339C60.1742 53.0866 57.6679 55.6756 54.6761 57.5983C53.0304 58.5738 51.2254 59.2511 49.3443 59.5987C47.9132 59.7879 46.4645 59.8048 45.0293 59.6491C42.4519 59.137 40.0118 58.0861 37.8686 56.5652C35.7254 55.0444 33.9277 53.0879 32.5929 50.8239C29.7465 46.3317 27.9498 41.2552 27.3367 35.9723L27.1603 34.6527L25.8032 34.6232C24.5091 34.5854 24.4419 34.5854 24.4419 34.7914Z" fill="#4B4B4B"/>
<path d="M93.0652 48.9411C90.5718 49.3864 88.2685 50.567 86.4508 52.3312C84.6331 54.0955 83.384 56.3628 82.864 58.8422C82.7085 59.6732 82.6478 60.5191 82.6832 61.3637C82.6216 62.6478 82.807 63.9318 83.2294 65.146L83.4394 65.7678L71.0198 78.1652C57.6211 91.5376 58.3143 90.7979 57.9362 92.2309C57.7053 93.2071 57.7599 94.2291 58.0929 95.1753C58.4259 96.1215 59.0235 96.9521 59.8149 97.5683C60.6062 98.1845 61.5577 98.5604 62.5565 98.6512C63.5552 98.7421 64.5591 98.5442 65.4486 98.0809C65.9738 97.8161 67.7469 96.0889 78.4314 85.4482L90.809 73.1307L91.4601 73.3366C92.7141 73.7299 94.0246 73.9131 95.3383 73.8787C96.6856 73.9119 98.0276 73.6952 99.2962 73.2399C101.287 72.5706 103.078 71.4117 104.504 69.8697C105.931 68.3276 106.947 66.4519 107.46 64.4147C107.609 63.8137 107.724 63.2048 107.804 62.5908L107.863 61.8512L106.674 60.6661L105.476 59.4809L102.536 62.4227L99.5944 65.3645H94.75L92.9895 63.6079L91.2375 61.8638V56.9343L94.1576 54.0262L97.0777 51.118L95.9181 49.9623C94.7711 48.8066 94.7499 48.7983 94.3046 48.8067C93.8888 48.8232 93.4748 48.8681 93.0652 48.9411ZM63.9656 91.1341C64.4057 91.335 64.7821 91.6529 65.0539 92.053C65.3258 92.4532 65.4826 92.9203 65.5073 93.4035C65.5212 93.7228 65.4697 94.0416 65.3555 94.3401C65.2413 94.6386 65.0671 94.9106 64.8437 95.1391C64.5493 95.4673 64.1731 95.7115 63.7535 95.8468C63.334 95.9821 62.886 96.0037 62.4554 95.9092C62.0248 95.8148 61.627 95.6078 61.3025 95.3093C60.978 95.0108 60.7386 94.6316 60.6086 94.2103C60.4199 93.728 60.4199 93.1924 60.6086 92.7101C60.7627 92.1984 61.0821 91.7524 61.5171 91.442C61.9521 91.1317 62.4778 90.9746 63.0117 90.9955C63.3349 90.9911 63.657 91.0379 63.9656 91.1341Z" fill="#4B4B4B"/>
<path d="M27.7568 60.2332C24.7759 60.6024 21.8638 61.3995 19.1101 62.5994C14.7805 64.5086 10.9562 67.4022 7.94161 71.05C4.92698 74.6979 2.80523 78.9994 1.74519 83.6118C0.868516 87.349 0.764155 91.2258 1.43849 95.0048C1.86633 97.5704 3.07193 99.9426 4.89213 101.8C8.10629 105.007 12.9464 106.457 21.7738 106.881C24.6225 107.011 69.3518 107.02 72.2383 106.881C83.095 106.368 88.4351 104.179 91.2165 99.0895C92.5042 95.5771 93.0714 91.8414 92.8844 88.1049C92.6975 84.3685 91.7602 80.708 90.1283 77.3417C90.0779 77.2829 85.6075 81.6703 78.7842 88.4489C70.335 96.8539 67.3939 99.7198 66.9696 99.9678C65.5986 100.802 63.9992 101.182 62.3996 101.053C60.7999 100.924 59.282 100.292 58.0626 99.2488C56.8432 98.2053 55.9846 96.803 55.6096 95.2423C55.2345 93.6816 55.3621 92.0422 55.9742 90.5584C56.5876 89.1085 56.5876 89.1085 68.6418 77.0852L80.1707 65.5745L79.301 64.9946C75.289 62.3567 70.7057 60.7145 65.9318 60.2039C65.5116 60.1535 65.5116 60.1535 65.457 60.5107C65.1091 62.1461 64.5081 63.717 63.6756 65.1669C60.2818 71.393 56.5014 77.4004 52.3567 83.1537C51.5164 84.3766 51.0962 84.8683 51.0962 84.7297C51.0458 84.2842 50.2853 73.2105 50.2853 72.8155C50.2853 72.4205 50.3148 72.3952 50.6215 72.2145C51.8169 71.4619 52.7855 70.3987 53.4239 69.1383C53.7637 68.3946 53.9686 67.5964 54.0289 66.7808C53.7912 66.813 53.5601 66.8825 53.344 66.9868C51.987 67.4582 50.5888 67.8013 49.1677 68.012C48.2632 68.1026 47.3532 68.1266 46.4451 68.0836C44.6741 68.0699 42.9181 67.7558 41.2521 67.1548L40.0925 66.7598V67.016C40.1727 67.7443 40.3729 68.4543 40.6849 69.1173C41.1138 69.9682 41.6899 70.7367 42.3865 71.3868C42.8111 71.7598 43.2762 72.0839 43.773 72.3533C43.8612 72.3827 43.1217 84.3641 42.9999 84.7507C42.9201 85.007 37.4875 77.018 34.6767 72.5298C32.1795 68.9684 30.1793 65.0832 28.7315 60.9814C28.7066 60.6752 28.6148 60.3782 28.4627 60.1113L27.7568 60.2332Z" fill="#4B4B4B" stroke="#4B4B4B"/>
</svg>
