<svg width="5" height="17" viewBox="0 0 5 17" fill="none" xmlns="http://www.w3.org/2000/svg">
    <path fill-rule="evenodd" clip-rule="evenodd" d="M2.49996 13.6C1.56108 13.6 0.799964 14.3611 0.799964 15.3C0.799964 16.2389 1.56108 17 2.49996 17C3.43883 17 4.19995 16.2389 4.19995 15.3C4.19995 14.3611 3.43883 13.6 2.49996 13.6ZM2.49996 6.80003C1.56108 6.80003 0.799964 7.56115 0.799964 8.50003C0.799964 9.4389 1.56108 10.2 2.49996 10.2C3.43883 10.2 4.19995 9.4389 4.19995 8.50003C4.19995 7.56115 3.43883 6.80003 2.49996 6.80003ZM2.49996 0C1.56108 0 0.799964 0.761119 0.799964 1.69999C0.799964 2.63887 1.56108 3.39999 2.49996 3.39999C3.43883 3.39999 4.19995 2.63887 4.19995 1.69999C4.19995 0.761119 3.43883 0 2.49996 0Z" fill="#3491FF"/>
</svg>
