<svg width="14" height="12" viewBox="0 0 14 12" fill="none" xmlns="http://www.w3.org/2000/svg">
<path d="M0.342037 11.741C0.249913 11.7394 0.162175 11.7014 0.0980635 11.6352C0.0339518 11.569 -0.00130063 11.4801 3.67067e-05 11.388V0.353C-0.00130063 0.260872 0.0339518 0.171975 0.0980635 0.105801C0.162175 0.039627 0.249913 0.00157887 0.342037 0L11.056 0C11.1018 0.000521542 11.1471 0.0100738 11.1891 0.0281092C11.2312 0.0461447 11.2693 0.0723088 11.3013 0.105102C11.3333 0.137895 11.3584 0.176673 11.3754 0.219212C11.3923 0.261751 11.4007 0.307216 11.4 0.353V2.286C11.4006 2.2947 11.3985 2.30335 11.3939 2.31078C11.3893 2.3182 11.3826 2.32401 11.3745 2.32742C11.3665 2.33083 11.3576 2.33165 11.3491 2.32979C11.3406 2.32792 11.3329 2.32345 11.327 2.317L10.621 1.59C10.6132 1.58158 10.6089 1.57049 10.609 1.559V1.169C10.6097 1.1233 10.6013 1.07791 10.5845 1.03544C10.5676 0.992965 10.5425 0.954232 10.5107 0.921452C10.4788 0.888672 10.4408 0.862487 10.3988 0.844394C10.3569 0.8263 10.3117 0.816652 10.266 0.816H1.13404C1.08834 0.816652 1.04321 0.8263 1.00124 0.844394C0.959266 0.862487 0.921269 0.888672 0.889417 0.921452C0.857566 0.954232 0.832484 0.992965 0.815604 1.03544C0.798723 1.07791 0.790375 1.1233 0.791037 1.169V10.569C0.789699 10.6611 0.824952 10.75 0.889064 10.8162C0.953175 10.8824 1.04091 10.9204 1.13304 10.922H10.264C10.3097 10.9213 10.3549 10.9117 10.3968 10.8936C10.4388 10.8755 10.4768 10.8493 10.5087 10.8165C10.5405 10.7838 10.5656 10.745 10.5825 10.7026C10.5993 10.6601 10.6077 10.6147 10.607 10.569V10.179C10.6069 10.1675 10.6112 10.1564 10.619 10.148L11.325 9.421C11.3309 9.41455 11.3386 9.41008 11.3471 9.40821C11.3556 9.40635 11.3645 9.40717 11.3725 9.41058C11.3806 9.41399 11.3873 9.4198 11.3919 9.42722C11.3965 9.43465 11.3986 9.4433 11.398 9.452V11.385C11.3994 11.4771 11.3641 11.566 11.3 11.6322C11.2359 11.6984 11.1482 11.7364 11.056 11.738L0.342037 11.741ZM10.122 9.6L9.17204 8.621C9.14325 8.59102 9.12718 8.55106 9.12718 8.5095C9.12718 8.46794 9.14325 8.42798 9.17204 8.398L10.649 6.876H7.07104C7.0506 6.87574 7.03041 6.87144 7.01164 6.86335C6.99286 6.85525 6.97588 6.84352 6.96166 6.82884C6.94744 6.81415 6.93626 6.7968 6.92878 6.77778C6.92129 6.75875 6.91764 6.73844 6.91804 6.718V5.018C6.91764 4.99756 6.92129 4.97725 6.92878 4.95822C6.93626 4.9392 6.94744 4.92185 6.96166 4.90716C6.97588 4.89248 6.99286 4.88075 7.01164 4.87265C7.03041 4.86456 7.0506 4.86026 7.07104 4.86H10.649L9.17204 3.34C9.14325 3.31002 9.12718 3.27006 9.12718 3.2285C9.12718 3.18694 9.14325 3.14698 9.17204 3.117L10.122 2.138C10.136 2.12348 10.1528 2.11194 10.1714 2.10405C10.1899 2.09616 10.2099 2.0921 10.23 2.0921C10.2502 2.0921 10.2702 2.09616 10.2887 2.10405C10.3073 2.11194 10.324 2.12348 10.338 2.138L13.948 5.857L13.935 5.87L13.948 5.883L10.339 9.6C10.325 9.61452 10.3083 9.62607 10.2897 9.63395C10.2712 9.64184 10.2512 9.6459 10.231 9.6459C10.2109 9.6459 10.1909 9.64184 10.1724 9.63395C10.1538 9.62607 10.137 9.61452 10.123 9.6H10.122Z" fill="white"/>
</svg>
