<svg width="18" height="28" viewBox="0 0 18 28" fill="none" xmlns="http://www.w3.org/2000/svg">
<path d="M16.4711 4.7835C15.7751 3.22349 14.5811 1.93855 13.0763 1.13018C11.733 0.388831 10.2238 0 8.68956 0C7.1553 0 5.64607 0.388831 4.30281 1.13018C2.79798 1.93855 1.60398 3.22349 0.90803 4.7835C-1.21414 9.55873 0.90803 12.742 1.96912 14.5105C2.94679 16.14 6.02682 20.1936 8.16489 22.1941C8.30699 22.3275 8.49461 22.4018 8.68956 22.4018C8.88451 22.4018 9.07213 22.3275 9.21423 22.1941C11.3523 20.1936 14.4323 16.14 15.41 14.5105C16.4711 12.7422 18.5944 9.55873 16.4711 4.7835ZM8.68956 11.5993C7.9212 11.5993 7.1701 11.3715 6.53123 10.9446C5.89236 10.5177 5.39443 9.911 5.10039 9.20113C4.80635 8.49126 4.72942 7.71013 4.87932 6.95654C5.02922 6.20295 5.39922 5.51072 5.94253 4.96741C6.48584 4.4241 7.17806 4.0541 7.93165 3.9042C8.68525 3.7543 9.46637 3.83124 10.1762 4.12527C10.8861 4.41931 11.4928 4.91725 11.9197 5.55612C12.3466 6.19498 12.5744 6.94609 12.5744 7.71444C12.5745 8.22462 12.474 8.72981 12.2788 9.20116C12.0836 9.67251 11.7974 10.1008 11.4367 10.4615C11.0759 10.8223 10.6476 11.1085 10.1763 11.3037C9.70493 11.4989 9.19974 11.5994 8.68956 11.5993Z" fill="#666569"/>
<path d="M8.68969 27.42C11.9348 27.42 14.5654 26.5947 14.5654 25.5766C14.5654 24.5586 11.9348 23.7333 8.68969 23.7333C5.44461 23.7333 2.81396 24.5586 2.81396 25.5766C2.81396 26.5947 5.44461 27.42 8.68969 27.42Z" fill="#666569"/>
</svg>
