<svg xmlns="http://www.w3.org/2000/svg" width="21.893" height="20.363" viewBox="0 0 21.893 20.363">
  <g id="Icon_feather-calendar" data-name="Icon feather-calendar" transform="translate(0.15 0.15)">
    <path id="Subtraction_1" data-name="Subtraction 1" d="M-3980,6h-18a1,1,0,0,1-1-1V1a1,1,0,0,1,1-1h18a1,1,0,0,1,1,1V5A1,1,0,0,1-3980,6Zm-15-4a1,1,0,0,0-1,1,1,1,0,0,0,1,1h12a1,1,0,0,0,1-1,1,1,0,0,0-1-1Z" transform="translate(4000 2)" fill="#595959"/>
    <path id="Path_7" data-name="Path 7" d="M5.859,4.5H21.733a3.03,3.03,0,0,1,1.991.721,2.415,2.415,0,0,1,.868,1.837V20.822a2.415,2.415,0,0,1-.868,1.837,3.03,3.03,0,0,1-1.991.721H5.859a3.03,3.03,0,0,1-1.991-.721A2.415,2.415,0,0,1,3,20.822V7.058a2.415,2.415,0,0,1,.868-1.837A3.03,3.03,0,0,1,5.859,4.5ZM21.733,22.2a1.55,1.55,0,0,0,1.676-1.375V7.058a1.55,1.55,0,0,0-1.676-1.375H5.859A1.55,1.55,0,0,0,4.183,7.058V20.822A1.55,1.55,0,0,0,5.859,22.2Z" transform="translate(-3 -3.317)" fill="#595959" stroke="#595959" stroke-linecap="round" stroke-width="0.3"/>
    <path id="Path_8" data-name="Path 8" d="M23.092,5.05a.592.592,0,0,1-.592-.592V2.092a.592.592,0,0,1,1.183,0V4.458A.592.592,0,0,1,23.092,5.05Z" transform="translate(-7.76 -1.5)" fill="#595959" stroke="#595959" stroke-linecap="round" stroke-width="0.3"/>
    <path id="Path_9" data-name="Path 9" d="M11.092,5.05a.592.592,0,0,1-.592-.592V2.092a.592.592,0,1,1,1.183,0V4.458A.592.592,0,0,1,11.092,5.05Z" transform="translate(-4.831 -1.5)" fill="#595959" stroke="#595959" stroke-linecap="round" stroke-width="0.3"/>
    <path id="Path_10" data-name="Path 10" d="M24,14.683H3.592a.592.592,0,1,1,0-1.183H24a.592.592,0,1,1,0,1.183Z" transform="translate(-3 -5.948)" fill="#595959" stroke="#595959" stroke-linecap="round" stroke-width="0.3"/>
    <g id="Path_16" data-name="Path 16" transform="translate(3.697 10.623)" fill="#595959" opacity="0">
      <path d="M 2.366348505020142 1.427564263343811 L 0.7887885570526123 1.427564263343811 C 0.4365585446357727 1.427564263343811 0.1499985307455063 1.141004323959351 0.1499985307455063 0.7887842655181885 C 0.1499985307455063 0.4365642666816711 0.4365585446357727 0.1500042676925659 0.7887885570526123 0.1500042676925659 L 2.366348505020142 0.1500042676925659 C 2.718578577041626 0.1500042676925659 3.005138635635376 0.4365642666816711 3.005138635635376 0.7887842655181885 C 3.005138635635376 1.141004323959351 2.718578577041626 1.427564263343811 2.366348505020142 1.427564263343811 Z" stroke="none"/>
      <path d="M 0.7887885570526123 0.300004243850708 C 0.5192685127258301 0.300004243850708 0.2999985218048096 0.5192742347717285 0.2999985218048096 0.7887842655181885 C 0.2999985218048096 1.058294296264648 0.5192685127258301 1.277564287185669 0.7887885570526123 1.277564287185669 L 2.366348505020142 1.277564287185669 C 2.635868549346924 1.277564287185669 2.855138540267944 1.058294296264648 2.855138540267944 0.7887842655181885 C 2.855138540267944 0.5192742347717285 2.635868549346924 0.300004243850708 2.366348505020142 0.300004243850708 L 0.7887885570526123 0.300004243850708 M 0.7887885570526123 4.291534423828125e-06 L 2.366348505020142 4.291534423828125e-06 C 2.80198860168457 4.291534423828125e-06 3.155138492584229 0.3531543016433716 3.155138492584229 0.7887842655181885 C 3.155138492584229 1.224414229393005 2.80198860168457 1.577564239501953 2.366348505020142 1.577564239501953 L 0.7887885570526123 1.577564239501953 C 0.3531484603881836 1.577564239501953 -1.430511474609375e-06 1.224414229393005 -1.430511474609375e-06 0.7887842655181885 C -1.430511474609375e-06 0.3531543016433716 0.3531484603881836 4.291534423828125e-06 0.7887885570526123 4.291534423828125e-06 Z" stroke="none" fill="#595959"/>
    </g>
    <g id="Path_17" data-name="Path 17" transform="translate(9.219 10.623)" fill="#595959" opacity="0">
      <path d="M 2.366348505020142 1.427564263343811 L 0.7887885570526123 1.427564263343811 C 0.4365585446357727 1.427564263343811 0.1499985307455063 1.141004323959351 0.1499985307455063 0.7887842655181885 C 0.1499985307455063 0.4365642666816711 0.4365585446357727 0.1500042676925659 0.7887885570526123 0.1500042676925659 L 2.366348505020142 0.1500042676925659 C 2.718578577041626 0.1500042676925659 3.005138635635376 0.4365642666816711 3.005138635635376 0.7887842655181885 C 3.005138635635376 1.141004323959351 2.718578577041626 1.427564263343811 2.366348505020142 1.427564263343811 Z" stroke="none"/>
      <path d="M 0.7887885570526123 0.300004243850708 C 0.5192685127258301 0.300004243850708 0.2999985218048096 0.5192742347717285 0.2999985218048096 0.7887842655181885 C 0.2999985218048096 1.058294296264648 0.5192685127258301 1.277564287185669 0.7887885570526123 1.277564287185669 L 2.366348505020142 1.277564287185669 C 2.635868549346924 1.277564287185669 2.855138540267944 1.058294296264648 2.855138540267944 0.7887842655181885 C 2.855138540267944 0.5192742347717285 2.635868549346924 0.300004243850708 2.366348505020142 0.300004243850708 L 0.7887885570526123 0.300004243850708 M 0.7887885570526123 4.291534423828125e-06 L 2.366348505020142 4.291534423828125e-06 C 2.80198860168457 4.291534423828125e-06 3.155138492584229 0.3531543016433716 3.155138492584229 0.7887842655181885 C 3.155138492584229 1.224414229393005 2.80198860168457 1.577564239501953 2.366348505020142 1.577564239501953 L 0.7887885570526123 1.577564239501953 C 0.3531484603881836 1.577564239501953 -1.430511474609375e-06 1.224414229393005 -1.430511474609375e-06 0.7887842655181885 C -1.430511474609375e-06 0.3531543016433716 0.3531484603881836 4.291534423828125e-06 0.7887885570526123 4.291534423828125e-06 Z" stroke="none" fill="#595959"/>
    </g>
    <g id="Path_18" data-name="Path 18" transform="translate(14.74 10.623)" fill="#595959" opacity="0">
      <path d="M 2.366348505020142 1.427564263343811 L 0.7887885570526123 1.427564263343811 C 0.4365585446357727 1.427564263343811 0.1499985307455063 1.141004323959351 0.1499985307455063 0.7887842655181885 C 0.1499985307455063 0.4365642666816711 0.4365585446357727 0.1500042676925659 0.7887885570526123 0.1500042676925659 L 2.366348505020142 0.1500042676925659 C 2.718578577041626 0.1500042676925659 3.005138635635376 0.4365642666816711 3.005138635635376 0.7887842655181885 C 3.005138635635376 1.141004323959351 2.718578577041626 1.427564263343811 2.366348505020142 1.427564263343811 Z" stroke="none"/>
      <path d="M 0.7887885570526123 0.300004243850708 C 0.5192685127258301 0.300004243850708 0.2999985218048096 0.5192742347717285 0.2999985218048096 0.7887842655181885 C 0.2999985218048096 1.058294296264648 0.5192685127258301 1.277564287185669 0.7887885570526123 1.277564287185669 L 2.366348505020142 1.277564287185669 C 2.635868549346924 1.277564287185669 2.855138540267944 1.058294296264648 2.855138540267944 0.7887842655181885 C 2.855138540267944 0.5192742347717285 2.635868549346924 0.300004243850708 2.366348505020142 0.300004243850708 L 0.7887885570526123 0.300004243850708 M 0.7887885570526123 4.291534423828125e-06 L 2.366348505020142 4.291534423828125e-06 C 2.80198860168457 4.291534423828125e-06 3.155138492584229 0.3531543016433716 3.155138492584229 0.7887842655181885 C 3.155138492584229 1.224414229393005 2.80198860168457 1.577564239501953 2.366348505020142 1.577564239501953 L 0.7887885570526123 1.577564239501953 C 0.3531484603881836 1.577564239501953 -1.430511474609375e-06 1.224414229393005 -1.430511474609375e-06 0.7887842655181885 C -1.430511474609375e-06 0.3531543016433716 0.3531484603881836 4.291534423828125e-06 0.7887885570526123 4.291534423828125e-06 Z" stroke="none" fill="#595959"/>
    </g>
    <g id="Path_19" data-name="Path 19" transform="translate(3.697 13.384)" fill="#595959" opacity="0">
      <path d="M 2.366348505020142 1.427564263343811 L 0.7887885570526123 1.427564263343811 C 0.4365585446357727 1.427564263343811 0.1499985307455063 1.141004323959351 0.1499985307455063 0.7887842655181885 C 0.1499985307455063 0.4365642666816711 0.4365585446357727 0.1500042676925659 0.7887885570526123 0.1500042676925659 L 2.366348505020142 0.1500042676925659 C 2.718578577041626 0.1500042676925659 3.005138635635376 0.4365642666816711 3.005138635635376 0.7887842655181885 C 3.005138635635376 1.141004323959351 2.718578577041626 1.427564263343811 2.366348505020142 1.427564263343811 Z" stroke="none"/>
      <path d="M 0.7887885570526123 0.300004243850708 C 0.5192685127258301 0.300004243850708 0.2999985218048096 0.5192742347717285 0.2999985218048096 0.7887842655181885 C 0.2999985218048096 1.058294296264648 0.5192685127258301 1.277564287185669 0.7887885570526123 1.277564287185669 L 2.366348505020142 1.277564287185669 C 2.635868549346924 1.277564287185669 2.855138540267944 1.058294296264648 2.855138540267944 0.7887842655181885 C 2.855138540267944 0.5192742347717285 2.635868549346924 0.300004243850708 2.366348505020142 0.300004243850708 L 0.7887885570526123 0.300004243850708 M 0.7887885570526123 4.291534423828125e-06 L 2.366348505020142 4.291534423828125e-06 C 2.80198860168457 4.291534423828125e-06 3.155138492584229 0.3531543016433716 3.155138492584229 0.7887842655181885 C 3.155138492584229 1.224414229393005 2.80198860168457 1.577564239501953 2.366348505020142 1.577564239501953 L 0.7887885570526123 1.577564239501953 C 0.3531484603881836 1.577564239501953 -1.430511474609375e-06 1.224414229393005 -1.430511474609375e-06 0.7887842655181885 C -1.430511474609375e-06 0.3531543016433716 0.3531484603881836 4.291534423828125e-06 0.7887885570526123 4.291534423828125e-06 Z" stroke="none" fill="#595959"/>
    </g>
    <g id="Path_20" data-name="Path 20" transform="translate(9.219 13.384)" fill="#595959" opacity="0">
      <path d="M 2.366348505020142 1.427564263343811 L 0.7887885570526123 1.427564263343811 C 0.4365585446357727 1.427564263343811 0.1499985307455063 1.141004323959351 0.1499985307455063 0.7887842655181885 C 0.1499985307455063 0.4365642666816711 0.4365585446357727 0.1500042676925659 0.7887885570526123 0.1500042676925659 L 2.366348505020142 0.1500042676925659 C 2.718578577041626 0.1500042676925659 3.005138635635376 0.4365642666816711 3.005138635635376 0.7887842655181885 C 3.005138635635376 1.141004323959351 2.718578577041626 1.427564263343811 2.366348505020142 1.427564263343811 Z" stroke="none"/>
      <path d="M 0.7887885570526123 0.300004243850708 C 0.5192685127258301 0.300004243850708 0.2999985218048096 0.5192742347717285 0.2999985218048096 0.7887842655181885 C 0.2999985218048096 1.058294296264648 0.5192685127258301 1.277564287185669 0.7887885570526123 1.277564287185669 L 2.366348505020142 1.277564287185669 C 2.635868549346924 1.277564287185669 2.855138540267944 1.058294296264648 2.855138540267944 0.7887842655181885 C 2.855138540267944 0.5192742347717285 2.635868549346924 0.300004243850708 2.366348505020142 0.300004243850708 L 0.7887885570526123 0.300004243850708 M 0.7887885570526123 4.291534423828125e-06 L 2.366348505020142 4.291534423828125e-06 C 2.80198860168457 4.291534423828125e-06 3.155138492584229 0.3531543016433716 3.155138492584229 0.7887842655181885 C 3.155138492584229 1.224414229393005 2.80198860168457 1.577564239501953 2.366348505020142 1.577564239501953 L 0.7887885570526123 1.577564239501953 C 0.3531484603881836 1.577564239501953 -1.430511474609375e-06 1.224414229393005 -1.430511474609375e-06 0.7887842655181885 C -1.430511474609375e-06 0.3531543016433716 0.3531484603881836 4.291534423828125e-06 0.7887885570526123 4.291534423828125e-06 Z" stroke="none" fill="#595959"/>
    </g>
    <g id="Path_21" data-name="Path 21" transform="translate(14.74 13.384)" fill="#595959" opacity="0">
      <path d="M 2.366348505020142 1.427564263343811 L 0.7887885570526123 1.427564263343811 C 0.4365585446357727 1.427564263343811 0.1499985307455063 1.141004323959351 0.1499985307455063 0.7887842655181885 C 0.1499985307455063 0.4365642666816711 0.4365585446357727 0.1500042676925659 0.7887885570526123 0.1500042676925659 L 2.366348505020142 0.1500042676925659 C 2.718578577041626 0.1500042676925659 3.005138635635376 0.4365642666816711 3.005138635635376 0.7887842655181885 C 3.005138635635376 1.141004323959351 2.718578577041626 1.427564263343811 2.366348505020142 1.427564263343811 Z" stroke="none"/>
      <path d="M 0.7887885570526123 0.300004243850708 C 0.5192685127258301 0.300004243850708 0.2999985218048096 0.5192742347717285 0.2999985218048096 0.7887842655181885 C 0.2999985218048096 1.058294296264648 0.5192685127258301 1.277564287185669 0.7887885570526123 1.277564287185669 L 2.366348505020142 1.277564287185669 C 2.635868549346924 1.277564287185669 2.855138540267944 1.058294296264648 2.855138540267944 0.7887842655181885 C 2.855138540267944 0.5192742347717285 2.635868549346924 0.300004243850708 2.366348505020142 0.300004243850708 L 0.7887885570526123 0.300004243850708 M 0.7887885570526123 4.291534423828125e-06 L 2.366348505020142 4.291534423828125e-06 C 2.80198860168457 4.291534423828125e-06 3.155138492584229 0.3531543016433716 3.155138492584229 0.7887842655181885 C 3.155138492584229 1.224414229393005 2.80198860168457 1.577564239501953 2.366348505020142 1.577564239501953 L 0.7887885570526123 1.577564239501953 C 0.3531484603881836 1.577564239501953 -1.430511474609375e-06 1.224414229393005 -1.430511474609375e-06 0.7887842655181885 C -1.430511474609375e-06 0.3531543016433716 0.3531484603881836 4.291534423828125e-06 0.7887885570526123 4.291534423828125e-06 Z" stroke="none" fill="#595959"/>
    </g>
    <g id="Path_22" data-name="Path 22" transform="translate(3.697 16.145)" fill="#595959" opacity="0">
      <path d="M 2.366348505020142 1.427564263343811 L 0.7887885570526123 1.427564263343811 C 0.4365585446357727 1.427564263343811 0.1499985307455063 1.141004323959351 0.1499985307455063 0.7887842655181885 C 0.1499985307455063 0.4365642666816711 0.4365585446357727 0.1500042676925659 0.7887885570526123 0.1500042676925659 L 2.366348505020142 0.1500042676925659 C 2.718578577041626 0.1500042676925659 3.005138635635376 0.4365642666816711 3.005138635635376 0.7887842655181885 C 3.005138635635376 1.141004323959351 2.718578577041626 1.427564263343811 2.366348505020142 1.427564263343811 Z" stroke="none"/>
      <path d="M 0.7887885570526123 0.300004243850708 C 0.5192685127258301 0.300004243850708 0.2999985218048096 0.5192742347717285 0.2999985218048096 0.7887842655181885 C 0.2999985218048096 1.058294296264648 0.5192685127258301 1.277564287185669 0.7887885570526123 1.277564287185669 L 2.366348505020142 1.277564287185669 C 2.635868549346924 1.277564287185669 2.855138540267944 1.058294296264648 2.855138540267944 0.7887842655181885 C 2.855138540267944 0.5192742347717285 2.635868549346924 0.300004243850708 2.366348505020142 0.300004243850708 L 0.7887885570526123 0.300004243850708 M 0.7887885570526123 4.291534423828125e-06 L 2.366348505020142 4.291534423828125e-06 C 2.80198860168457 4.291534423828125e-06 3.155138492584229 0.3531543016433716 3.155138492584229 0.7887842655181885 C 3.155138492584229 1.224414229393005 2.80198860168457 1.577564239501953 2.366348505020142 1.577564239501953 L 0.7887885570526123 1.577564239501953 C 0.3531484603881836 1.577564239501953 -1.430511474609375e-06 1.224414229393005 -1.430511474609375e-06 0.7887842655181885 C -1.430511474609375e-06 0.3531543016433716 0.3531484603881836 4.291534423828125e-06 0.7887885570526123 4.291534423828125e-06 Z" stroke="none" fill="#595959"/>
    </g>
    <g id="Path_23" data-name="Path 23" transform="translate(9.219 16.145)" fill="#595959" opacity="0">
      <path d="M 2.366348505020142 1.427564263343811 L 0.7887885570526123 1.427564263343811 C 0.4365585446357727 1.427564263343811 0.1499985307455063 1.141004323959351 0.1499985307455063 0.7887842655181885 C 0.1499985307455063 0.4365642666816711 0.4365585446357727 0.1500042676925659 0.7887885570526123 0.1500042676925659 L 2.366348505020142 0.1500042676925659 C 2.718578577041626 0.1500042676925659 3.005138635635376 0.4365642666816711 3.005138635635376 0.7887842655181885 C 3.005138635635376 1.141004323959351 2.718578577041626 1.427564263343811 2.366348505020142 1.427564263343811 Z" stroke="none"/>
      <path d="M 0.7887885570526123 0.300004243850708 C 0.5192685127258301 0.300004243850708 0.2999985218048096 0.5192742347717285 0.2999985218048096 0.7887842655181885 C 0.2999985218048096 1.058294296264648 0.5192685127258301 1.277564287185669 0.7887885570526123 1.277564287185669 L 2.366348505020142 1.277564287185669 C 2.635868549346924 1.277564287185669 2.855138540267944 1.058294296264648 2.855138540267944 0.7887842655181885 C 2.855138540267944 0.5192742347717285 2.635868549346924 0.300004243850708 2.366348505020142 0.300004243850708 L 0.7887885570526123 0.300004243850708 M 0.7887885570526123 4.291534423828125e-06 L 2.366348505020142 4.291534423828125e-06 C 2.80198860168457 4.291534423828125e-06 3.155138492584229 0.3531543016433716 3.155138492584229 0.7887842655181885 C 3.155138492584229 1.224414229393005 2.80198860168457 1.577564239501953 2.366348505020142 1.577564239501953 L 0.7887885570526123 1.577564239501953 C 0.3531484603881836 1.577564239501953 -1.430511474609375e-06 1.224414229393005 -1.430511474609375e-06 0.7887842655181885 C -1.430511474609375e-06 0.3531543016433716 0.3531484603881836 4.291534423828125e-06 0.7887885570526123 4.291534423828125e-06 Z" stroke="none" fill="#595959"/>
    </g>
    <g id="Path_24" data-name="Path 24" transform="translate(14.74 16.145)" fill="#595959" opacity="0">
      <path d="M 2.366348505020142 1.427564263343811 L 0.7887885570526123 1.427564263343811 C 0.4365585446357727 1.427564263343811 0.1499985307455063 1.141004323959351 0.1499985307455063 0.7887842655181885 C 0.1499985307455063 0.4365642666816711 0.4365585446357727 0.1500042676925659 0.7887885570526123 0.1500042676925659 L 2.366348505020142 0.1500042676925659 C 2.718578577041626 0.1500042676925659 3.005138635635376 0.4365642666816711 3.005138635635376 0.7887842655181885 C 3.005138635635376 1.141004323959351 2.718578577041626 1.427564263343811 2.366348505020142 1.427564263343811 Z" stroke="none"/>
      <path d="M 0.7887885570526123 0.300004243850708 C 0.5192685127258301 0.300004243850708 0.2999985218048096 0.5192742347717285 0.2999985218048096 0.7887842655181885 C 0.2999985218048096 1.058294296264648 0.5192685127258301 1.277564287185669 0.7887885570526123 1.277564287185669 L 2.366348505020142 1.277564287185669 C 2.635868549346924 1.277564287185669 2.855138540267944 1.058294296264648 2.855138540267944 0.7887842655181885 C 2.855138540267944 0.5192742347717285 2.635868549346924 0.300004243850708 2.366348505020142 0.300004243850708 L 0.7887885570526123 0.300004243850708 M 0.7887885570526123 4.291534423828125e-06 L 2.366348505020142 4.291534423828125e-06 C 2.80198860168457 4.291534423828125e-06 3.155138492584229 0.3531543016433716 3.155138492584229 0.7887842655181885 C 3.155138492584229 1.224414229393005 2.80198860168457 1.577564239501953 2.366348505020142 1.577564239501953 L 0.7887885570526123 1.577564239501953 C 0.3531484603881836 1.577564239501953 -1.430511474609375e-06 1.224414229393005 -1.430511474609375e-06 0.7887842655181885 C -1.430511474609375e-06 0.3531543016433716 0.3531484603881836 4.291534423828125e-06 0.7887885570526123 4.291534423828125e-06 Z" stroke="none" fill="#595959"/>
    </g>
  </g>
</svg>
