<svg width="19" height="28" viewBox="0 0 19 28" fill="none" xmlns="http://www.w3.org/2000/svg">
<path d="M18.0171 24.6006H2.42365C2.25305 24.6006 2.11475 24.7389 2.11475 24.9095V27.1111C2.11475 27.2817 2.25305 27.42 2.42365 27.42H18.0171C18.1877 27.42 18.326 27.2817 18.326 27.1111V24.9095C18.326 24.7389 18.1877 24.6006 18.0171 24.6006Z" fill="#666569"/>
<path d="M6.25065 15.761C6.07773 16.5076 5.66598 17.1773 5.07792 17.6686C4.48985 18.1598 3.75756 18.4459 2.99219 18.4832L6.00671 23.6608H14.1504L6.25065 15.761Z" fill="#666569"/>
<path d="M2.81941 17.7871C4.37653 17.7871 5.63882 16.5248 5.63882 14.9677C5.63882 13.4106 4.37653 12.1483 2.81941 12.1483C1.26229 12.1483 0 13.4106 0 14.9677C0 16.5248 1.26229 17.7871 2.81941 17.7871Z" fill="#666569"/>
<path d="M8.78929 6.86267L3.36084 11.4893C4.13391 11.6095 4.84496 11.9836 5.3818 12.5527C5.91865 13.1218 6.25073 13.8535 6.32566 14.6322L11.0423 8.86022L11.0123 8.82992C10.4901 8.75498 10.0013 8.52874 9.60622 8.17914C9.21117 7.82953 8.92717 7.37187 8.78929 6.86267Z" fill="#666569"/>
<path d="M11.2605 8.17114C12.2985 8.17114 13.1401 7.32961 13.1401 6.29153C13.1401 5.25346 12.2985 4.41193 11.2605 4.41193C10.2224 4.41193 9.38086 5.25346 9.38086 6.29153C9.38086 7.32961 10.2224 8.17114 11.2605 8.17114Z" fill="#666569"/>
<path d="M12.3671 4.18148L12.2901 2.55498C12.2879 2.50863 12.2954 2.46234 12.3121 2.41905C12.3288 2.37577 12.3543 2.33645 12.3871 2.30362L14.4647 0.227376C14.4833 0.208747 14.496 0.185015 14.5011 0.15918C14.5063 0.133344 14.5036 0.106565 14.4935 0.0822284C14.4835 0.0578917 14.4664 0.0370903 14.4445 0.022454C14.4226 0.00781765 14.3968 3.64246e-06 14.3705 4.79714e-10H12.3706C12.2823 -4.73463e-06 12.1976 0.0350449 12.1351 0.0974466L10.1912 2.04137C10.1288 2.10383 10.0937 2.18851 10.0938 2.27681V4.24296C10.44 4.05125 10.8273 3.94559 11.2229 3.93489C11.6185 3.92419 12.011 4.00876 12.3671 4.18148Z" fill="#666569"/>
<path d="M17.4623 3.22403L15.3849 5.30137C15.3522 5.33419 15.3129 5.35979 15.2696 5.37653C15.2264 5.39328 15.1801 5.40079 15.1338 5.3986L13.5071 5.32143C13.68 5.67767 13.7647 6.07027 13.754 6.46611C13.7433 6.86195 13.6376 7.24942 13.4458 7.59583H15.413C15.4568 7.59582 15.5001 7.58719 15.5405 7.57043C15.5809 7.55367 15.6176 7.52912 15.6485 7.49817L17.5922 5.55447C17.6231 5.52356 17.6477 5.48686 17.6644 5.44647C17.6812 5.40607 17.6898 5.36276 17.6899 5.31903V3.31821C17.6898 3.29187 17.6819 3.26614 17.6673 3.24426C17.6526 3.22238 17.6318 3.20533 17.6074 3.19526C17.5831 3.18519 17.5563 3.18254 17.5305 3.18767C17.5047 3.19279 17.4809 3.20544 17.4623 3.22403Z" fill="#666569"/>
</svg>
