<svg width="28" height="28" viewBox="0 0 28 28" fill="none" xmlns="http://www.w3.org/2000/svg">
<path d="M11.2785 0H0.988323C0.442487 0 0 0.446403 0 0.997069V11.3783C0 11.929 0.442487 12.3754 0.988323 12.3754H11.2785C11.8244 12.3754 12.2668 11.929 12.2668 11.3783V0.997069C12.2668 0.446403 11.8244 0 11.2785 0Z" fill="#666569"/>
<path d="M11.2785 15.0446H0.988323C0.442487 15.0446 0 15.491 0 16.0417V26.4229C0 26.9736 0.442487 27.42 0.988323 27.42H11.2785C11.8244 27.42 12.2668 26.9736 12.2668 26.4229V16.0417C12.2668 15.491 11.8244 15.0446 11.2785 15.0446Z" fill="#666569"/>
<path d="M26.4318 0H16.1416C15.5958 0 15.1533 0.446403 15.1533 0.997069V11.3783C15.1533 11.929 15.5958 12.3754 16.1416 12.3754H26.4318C26.9777 12.3754 27.4202 11.929 27.4202 11.3783V0.997069C27.4202 0.446403 26.9777 0 26.4318 0Z" fill="#666569"/>
<path d="M26.4318 15.0446H16.1416C15.5958 15.0446 15.1533 15.491 15.1533 16.0417V26.4229C15.1533 26.9736 15.5958 27.42 16.1416 27.42H26.4318C26.9777 27.42 27.4202 26.9736 27.4202 26.4229V16.0417C27.4202 15.491 26.9777 15.0446 26.4318 15.0446Z" fill="#666569"/>
</svg>
