<svg width="17" height="14" viewBox="0 0 17 14" fill="none" xmlns="http://www.w3.org/2000/svg">
<path d="M11.0994 9.74941L8.40736 7.05641L5.71436 9.74941" stroke="white" stroke-linecap="round" stroke-linejoin="round"/>
<path d="M8.40735 7.05641V13.1144" stroke="white" stroke-linecap="round" stroke-linejoin="round"/>
<path d="M14.0554 11.3574C14.7118 10.9994 15.2303 10.4329 15.5291 9.74752C15.8279 9.0621 15.89 8.29669 15.7056 7.57208C15.5211 6.84746 15.1006 6.20489 14.5105 5.74575C13.9204 5.28661 13.1941 5.03703 12.4464 5.03641H11.5984C11.3946 4.24843 11.0148 3.5169 10.4875 2.89682C9.96031 2.27674 9.29939 1.78423 8.55444 1.45633C7.80949 1.12843 6.9999 0.973662 6.18654 1.00366C5.37317 1.03366 4.57718 1.24764 3.85841 1.62952C3.13964 2.01141 2.51679 2.55125 2.03667 3.20849C1.55655 3.86572 1.23166 4.62323 1.08643 5.42409C0.941189 6.22495 0.979382 7.04831 1.19813 7.83229C1.41688 8.61626 1.8105 9.34045 2.3494 9.95041" stroke="white" stroke-linecap="round" stroke-linejoin="round"/>
<path d="M11.0994 9.74941L8.40736 7.05641L5.71436 9.74941" stroke="white" stroke-linecap="round" stroke-linejoin="round"/>
</svg>
