<svg width="19" height="19" viewBox="0 0 19 19" fill="none" xmlns="http://www.w3.org/2000/svg">
<circle cx="9.5" cy="9.5" r="9.5" fill="#3491FF"/>
<path d="M14.6094 5.51742C14.373 5.49587 14.164 5.67 14.1424 5.90633L14.0855 6.53086C13.1196 5.01393 11.4428 4 9.49998 4C7.40993 4 5.56802 5.19285 4.65368 6.98319C4.54574 7.19453 4.62957 7.45335 4.84092 7.56129C5.0523 7.66923 5.31109 7.58542 5.41903 7.37405C6.19284 5.85889 7.74676 4.85937 9.49998 4.85937C11.0979 4.85937 12.54 5.69149 13.3662 6.99509L12.7535 6.55752C12.5604 6.41961 12.292 6.46434 12.1541 6.65744C12.0162 6.85057 12.061 7.11891 12.2541 7.25684L14.1119 8.58373C14.3842 8.77784 14.7598 8.60014 14.7896 8.27309L14.9982 5.98436C15.0198 5.74801 14.8457 5.53897 14.6094 5.51742Z" fill="white"/>
<path d="M14.1591 11.4387C13.9478 11.3308 13.689 11.4146 13.581 11.6259C12.8072 13.1411 11.2533 14.1406 9.50006 14.1406C7.90209 14.1406 6.46 13.3085 5.63382 12.0049L6.2465 12.4425C6.43963 12.5804 6.70797 12.5356 6.8459 12.3425C6.98381 12.1494 6.93908 11.8811 6.74598 11.7431L4.88809 10.4162C4.61912 10.2241 4.24052 10.3965 4.21044 10.7269L4.0018 13.0156C3.98025 13.2519 4.15439 13.461 4.3907 13.4825C4.62733 13.504 4.8361 13.3297 4.85762 13.0936L4.91456 12.4691C5.88047 13.986 7.55722 15 9.50006 15C11.5901 15 13.432 13.8071 14.3464 12.0168C14.4543 11.8054 14.3705 11.5466 14.1591 11.4387Z" fill="white"/>
</svg>
