<svg width="73" height="61" viewBox="0 0 73 61" fill="none" xmlns="http://www.w3.org/2000/svg">
    <path d="M49.3025 42.974L36.6925 30.365L24.0835 42.974" stroke="#4B4B4B" stroke-width="3" stroke-linecap="round" stroke-linejoin="round"/>
    <path d="M36.6936 30.365V58.736" stroke="#4B4B4B" stroke-width="3" stroke-linecap="round" stroke-linejoin="round"/>
    <path d="M63.1416 50.509C66.2161 48.8328 68.645 46.1805 70.0448 42.9707C71.4446 39.7609 71.7356 36.1763 70.872 32.7827C70.0084 29.3891 68.0393 26.3797 65.2754 24.2295C62.5116 22.0792 59.1103 20.9106 55.6086 20.908H51.6356C50.6816 17.2171 48.9033 13.7906 46.4344 10.886C43.9654 7.98133 40.8701 5.67422 37.3812 4.13809C33.8922 2.60196 30.1004 1.87679 26.2908 2.01709C22.4813 2.15739 18.7531 3.15952 15.3866 4.94813C12.0201 6.73673 9.10287 9.26528 6.85428 12.3436C4.6057 15.422 3.08426 18.9701 2.40435 22.7211C1.72444 26.4721 1.90376 30.3285 2.92882 34.0002C3.95389 37.672 5.79802 41.0636 8.32258 43.92" stroke="#4B4B4B" stroke-width="3" stroke-linecap="round" stroke-linejoin="round"/>
    <path d="M49.3025 42.974L36.6925 30.365L24.0835 42.974" stroke="#4B4B4B" stroke-width="3" stroke-linecap="round" stroke-linejoin="round"/>
    </svg>
    