<svg width="19" height="24" viewBox="0 0 19 24" fill="none" xmlns="http://www.w3.org/2000/svg">
    <mask id="path-1-inside-1_12205_3531" fill="white">
        <path d="M18.7581 17.5893C18.6031 17.4344 18.3931 17.3474 18.174 17.3474C17.955 17.3474 17.7449 17.4344 17.59 17.5893L16.5218 18.6575V14.0429C16.5218 13.8238 16.4348 13.6137 16.2799 13.4588C16.1249 13.3038 15.9148 13.2168 15.6957 13.2168C15.4766 13.2168 15.2665 13.3038 15.1116 13.4588C14.9567 13.6137 14.8696 13.8238 14.8696 14.0429V18.6575L13.8015 17.5893C13.6457 17.4388 13.437 17.3556 13.2204 17.3575C13.0038 17.3593 12.7966 17.4462 12.6434 17.5994C12.4903 17.7525 12.4034 17.9597 12.4015 18.1763C12.3996 18.3929 12.4829 18.6016 12.6334 18.7574L15.1117 21.2357C15.2666 21.3906 15.4767 21.4776 15.6957 21.4776C15.9148 21.4776 16.1249 21.3906 16.2798 21.2357L18.7581 18.7574C18.9129 18.6025 18.9999 18.3924 18.9999 18.1734C18.9999 17.9543 18.9129 17.7442 18.7581 17.5893Z" />
    </mask>
    <path d="M18.7581 17.5893C18.6031 17.4344 18.3931 17.3474 18.174 17.3474C17.955 17.3474 17.7449 17.4344 17.59 17.5893L16.5218 18.6575V14.0429C16.5218 13.8238 16.4348 13.6137 16.2799 13.4588C16.1249 13.3038 15.9148 13.2168 15.6957 13.2168C15.4766 13.2168 15.2665 13.3038 15.1116 13.4588C14.9567 13.6137 14.8696 13.8238 14.8696 14.0429V18.6575L13.8015 17.5893C13.6457 17.4388 13.437 17.3556 13.2204 17.3575C13.0038 17.3593 12.7966 17.4462 12.6434 17.5994C12.4903 17.7525 12.4034 17.9597 12.4015 18.1763C12.3996 18.3929 12.4829 18.6016 12.6334 18.7574L15.1117 21.2357C15.2666 21.3906 15.4767 21.4776 15.6957 21.4776C15.9148 21.4776 16.1249 21.3906 16.2798 21.2357L18.7581 18.7574C18.9129 18.6025 18.9999 18.3924 18.9999 18.1734C18.9999 17.9543 18.9129 17.7442 18.7581 17.5893Z" stroke="#3585E5" stroke-width="2" mask="url(#path-1-inside-1_12205_3531)" />
    <mask id="path-2-inside-2_12205_3531" fill="white">
        <path d="M9.08704 8.26095C14.1057 8.26095 18.1741 6.41167 18.1741 4.13047C18.1741 1.84928 14.1057 0 9.08704 0C4.06841 0 0 1.84928 0 4.13047C0 6.41167 4.06841 8.26095 9.08704 8.26095Z" />
    </mask>
    <path d="M9.08704 8.26095C14.1057 8.26095 18.1741 6.41167 18.1741 4.13047C18.1741 1.84928 14.1057 0 9.08704 0C4.06841 0 0 1.84928 0 4.13047C0 6.41167 4.06841 8.26095 9.08704 8.26095Z" stroke="#3585E5" stroke-width="2" mask="url(#path-2-inside-2_12205_3531)" />
    <mask id="path-3-inside-3_12205_3531" fill="white">
        <path d="M13.4929 15.0484V13.7927C13.4921 13.2063 13.6995 12.6387 14.0783 12.1911C14.4571 11.7434 14.9825 11.4449 15.561 11.3487C16.1394 11.2524 16.7332 11.3647 17.2365 11.6656C17.7398 11.9665 18.1199 12.4363 18.309 12.9914C18.3594 12.9574 18.4064 12.9187 18.4494 12.8758V7.15918C16.409 8.86093 12.799 9.66225 9.3624 9.66225C5.92585 9.66225 2.31581 8.86093 0.27536 7.15918V12.8758C1.74581 14.2719 5.07497 15.4449 9.3624 15.4449C10.7489 15.4495 12.1325 15.3167 13.4929 15.0484Z" />
    </mask>
    <path d="M13.4929 15.0484V13.7927C13.4921 13.2063 13.6995 12.6387 14.0783 12.1911C14.4571 11.7434 14.9825 11.4449 15.561 11.3487C16.1394 11.2524 16.7332 11.3647 17.2365 11.6656C17.7398 11.9665 18.1199 12.4363 18.309 12.9914C18.3594 12.9574 18.4064 12.9187 18.4494 12.8758V7.15918C16.409 8.86093 12.799 9.66225 9.3624 9.66225C5.92585 9.66225 2.31581 8.86093 0.27536 7.15918V12.8758C1.74581 14.2719 5.07497 15.4449 9.3624 15.4449C10.7489 15.4495 12.1325 15.3167 13.4929 15.0484Z" stroke="#3585E5" stroke-width="2" mask="url(#path-3-inside-3_12205_3531)" />
    <mask id="path-4-inside-4_12205_3531" fill="white">
        <path d="M11.4662 19.9258C11.235 19.6967 11.0517 19.4238 10.9269 19.1232C10.8021 18.8225 10.7383 18.5 10.7392 18.1745C10.7377 17.8659 10.7966 17.56 10.9127 17.2741C10.3179 17.3236 9.71487 17.3484 9.08704 17.3484C5.36135 17.3484 2.09828 16.5058 0 15.1758V19.0006C0 21.6854 4.68396 23.1311 9.08704 23.1311C10.758 23.1413 12.4227 22.9245 14.0353 22.4867C14.0031 22.4615 13.9727 22.4339 13.9445 22.4041L11.4662 19.9258Z" />
    </mask>
    <path d="M11.4662 19.9258C11.235 19.6967 11.0517 19.4238 10.9269 19.1232C10.8021 18.8225 10.7383 18.5 10.7392 18.1745C10.7377 17.8659 10.7966 17.56 10.9127 17.2741C10.3179 17.3236 9.71487 17.3484 9.08704 17.3484C5.36135 17.3484 2.09828 16.5058 0 15.1758V19.0006C0 21.6854 4.68396 23.1311 9.08704 23.1311C10.758 23.1413 12.4227 22.9245 14.0353 22.4867C14.0031 22.4615 13.9727 22.4339 13.9445 22.4041L11.4662 19.9258Z" stroke="#3585E5" stroke-width="2" mask="url(#path-4-inside-4_12205_3531)" />
</svg>
    