<?xml version="1.0"?>
<svg xmlns="http://www.w3.org/2000/svg" xmlns:xlink="http://www.w3.org/1999/xlink" xmlns:svgjs="http://svgjs.com/svgjs" version="1.1" width="512" height="512" x="0" y="0" viewBox="0 0 512 512" style="enable-background:new 0 0 512 512" xml:space="preserve" class=""><g>
<g xmlns="http://www.w3.org/2000/svg">
	<g>
		<path d="M256,0C114.84,0,0,114.84,0,256s114.84,256,256,256s256-114.84,256-256S397.16,0,256,0z M256,480    C132.488,480,32,379.512,32,256S132.48,32,256,32c123.512,0,224,100.488,224,224S379.512,480,256,480z" fill="#8b8b8b" data-original="#000000" style="" class=""/>
	</g>
</g>
<g xmlns="http://www.w3.org/2000/svg">
	<g>
		<path d="M280.792,127.52c-5.8-5.896-12.888-8.848-21.288-8.848c-8.288,0-15.352,2.952-21.208,8.848    c-5.848,5.896-8.784,12.976-8.784,21.232c0,8.144,2.952,15.16,8.864,21.056c5.912,5.896,12.968,8.848,21.128,8.848    c8.272,0,15.344-2.912,21.2-8.76c5.856-5.832,8.784-12.88,8.784-21.144S286.592,133.416,280.792,127.52z" fill="#8b8b8b" data-original="#000000" style="" class=""/>
	</g>
</g>
<g xmlns="http://www.w3.org/2000/svg">
	<g>
		<polygon points="286.296,330.216 286.296,198 205.376,198 205.376,237.568 231.464,237.568 231.464,330.216 205.376,330.216     205.376,369.784 311.848,369.784 311.848,330.216   " fill="#8b8b8b" data-original="#000000" style="" class=""/>
	</g>
</g>
<g xmlns="http://www.w3.org/2000/svg">
</g>
<g xmlns="http://www.w3.org/2000/svg">
</g>
<g xmlns="http://www.w3.org/2000/svg">
</g>
<g xmlns="http://www.w3.org/2000/svg">
</g>
<g xmlns="http://www.w3.org/2000/svg">
</g>
<g xmlns="http://www.w3.org/2000/svg">
</g>
<g xmlns="http://www.w3.org/2000/svg">
</g>
<g xmlns="http://www.w3.org/2000/svg">
</g>
<g xmlns="http://www.w3.org/2000/svg">
</g>
<g xmlns="http://www.w3.org/2000/svg">
</g>
<g xmlns="http://www.w3.org/2000/svg">
</g>
<g xmlns="http://www.w3.org/2000/svg">
</g>
<g xmlns="http://www.w3.org/2000/svg">
</g>
<g xmlns="http://www.w3.org/2000/svg">
</g>
<g xmlns="http://www.w3.org/2000/svg">
</g>
</g></svg>
