<svg width="19" height="28" viewBox="0 0 19 28" fill="none" xmlns="http://www.w3.org/2000/svg">
    <path d="M1.30901 15.73L14.809 26.98C15.1377 27.2536 15.5376 27.4279 15.9619 27.4825C16.3861 27.537 16.8171 27.4696 17.2043 27.2881C17.5916 27.1066 17.9192 26.8185 18.1486 26.4575C18.3781 26.0966 18.5 25.6777 18.5 25.25V2.75C18.5 2.32229 18.3781 1.90344 18.1486 1.54249C17.9192 1.18155 17.5916 0.893447 17.2043 0.711926C16.8171 0.530404 16.3861 0.462976 15.9619 0.517537C15.5376 0.572098 15.1377 0.746389 14.809 1.02L1.30901 12.27C1.05635 12.4818 0.853176 12.7465 0.713776 13.0453C0.574377 13.3441 0.502136 13.6698 0.502136 13.9995C0.502136 14.3292 0.574377 14.6549 0.713776 14.9537C0.853176 15.2525 1.05635 15.5172 1.30901 15.729V15.73Z" fill="#C4C4C4"/>
</svg>
