<svg width="19" height="28" viewBox="0 0 19 28" fill="none" xmlns="http://www.w3.org/2000/svg">
    <path d="M1.30901 15.7371L14.809 26.9871C15.1377 27.2607 15.5376 27.435 15.9619 27.4895C16.3861 27.5441 16.8171 27.4767 17.2043 27.2952C17.5916 27.1136 17.9192 26.8255 18.1486 26.4646C18.3781 26.1036 18.5 25.6848 18.5 25.2571V2.75708C18.5 2.32937 18.3781 1.91052 18.1486 1.54957C17.9192 1.18863 17.5916 0.900527 17.2043 0.719006C16.8171 0.537484 16.3861 0.470056 15.9619 0.524617C15.5376 0.579178 15.1377 0.753469 14.809 1.02708L1.30901 12.2771C1.05635 12.4889 0.853176 12.7536 0.713776 13.0524C0.574377 13.3512 0.502136 13.6769 0.502136 14.0066C0.502136 14.3363 0.574377 14.662 0.713776 14.9608C0.853176 15.2596 1.05635 15.5242 1.30901 15.7361V15.7371Z" fill="#3585E5"/>
</svg>
