<svg id="svg" version="1.1" xmlns="http://www.w3.org/2000/svg" xmlns:xlink="http://www.w3.org/1999/xlink" width="400" height="316.27906976744185" viewBox="0, 0, 400,316.27906976744185"><g id="svgg"><path id="path0" d="M188.355 28.250 L 188.449 36.564 187.421 36.443 C 186.855 36.377,186.392 36.466,186.392 36.642 C 186.392 36.817,185.585 36.970,184.598 36.981 C 183.519 36.994,182.690 37.165,182.517 37.410 C 182.341 37.660,182.178 37.692,182.093 37.492 C 181.929 37.101,179.430 37.288,179.430 37.691 C 179.430 37.847,179.280 37.975,179.095 37.975 C 178.911 37.975,178.855 37.822,178.970 37.635 C 179.181 37.294,179.016 37.354,177.299 38.242 C 176.422 38.695,176.168 38.706,176.432 38.278 C 176.688 37.864,175.036 38.228,174.385 38.730 C 174.022 39.011,173.983 38.986,174.195 38.608 C 174.410 38.222,174.380 38.207,174.034 38.528 C 173.799 38.746,173.351 38.924,173.038 38.924 C 172.725 38.924,172.468 39.035,172.468 39.170 C 172.468 39.305,171.863 39.368,171.123 39.309 C 170.119 39.230,169.899 39.287,170.253 39.533 C 170.626 39.793,170.507 39.865,169.699 39.869 C 169.134 39.871,168.671 39.991,168.671 40.135 C 168.671 40.279,168.244 40.334,167.722 40.257 C 167.152 40.174,166.772 40.259,166.772 40.470 C 166.772 40.664,166.665 40.796,166.535 40.763 C 166.042 40.640,163.608 41.205,163.608 41.443 C 163.608 41.580,163.007 41.787,162.272 41.905 C 161.538 42.022,160.861 42.240,160.769 42.388 C 160.677 42.537,160.054 42.745,159.385 42.851 C 158.715 42.957,157.865 43.256,157.495 43.516 C 157.124 43.775,156.580 43.987,156.285 43.987 C 155.990 43.987,155.677 44.165,155.589 44.383 C 155.482 44.649,155.422 44.658,155.405 44.413 C 155.376 43.991,154.114 44.230,154.114 44.657 C 154.114 44.811,153.829 44.937,153.481 44.937 C 153.133 44.937,152.848 45.094,152.848 45.287 C 152.848 45.480,152.634 45.555,152.373 45.455 C 152.112 45.355,151.899 45.395,151.899 45.544 C 151.899 45.694,151.396 45.910,150.782 46.025 C 150.168 46.140,149.740 46.355,149.831 46.502 C 150.038 46.836,149.079 47.272,148.339 47.181 C 148.034 47.143,147.785 47.252,147.785 47.423 C 147.785 47.594,147.358 47.828,146.835 47.943 C 146.313 48.058,145.886 48.271,145.886 48.418 C 145.886 48.564,145.459 48.778,144.937 48.892 C 144.415 49.007,143.987 49.221,143.987 49.367 C 143.987 49.513,143.572 49.724,143.064 49.836 C 142.557 49.947,142.063 50.244,141.967 50.494 C 141.871 50.744,141.586 50.949,141.334 50.949 C 141.082 50.949,140.828 51.088,140.770 51.257 C 140.712 51.426,140.380 51.625,140.032 51.699 C 138.548 52.016,137.984 52.320,137.798 52.905 C 137.680 53.277,137.420 53.457,137.150 53.354 C 136.629 53.154,134.707 54.222,135.022 54.537 C 135.138 54.652,134.990 54.747,134.695 54.747 C 134.399 54.747,134.075 54.960,133.975 55.222 C 133.875 55.483,133.605 55.696,133.375 55.696 C 133.145 55.696,132.762 55.891,132.524 56.129 C 132.286 56.367,131.775 56.662,131.389 56.785 C 131.003 56.907,130.759 57.125,130.848 57.268 C 130.936 57.410,130.647 57.618,130.206 57.729 C 129.765 57.839,129.490 58.068,129.594 58.237 C 129.699 58.406,129.498 58.544,129.149 58.544 C 128.799 58.544,128.129 58.900,127.660 59.335 C 127.190 59.771,126.649 60.128,126.457 60.130 C 126.265 60.131,125.609 60.700,125.000 61.392 C 124.391 62.085,123.736 62.653,123.545 62.655 C 123.060 62.659,121.835 63.765,121.835 64.199 C 121.835 64.396,121.581 64.557,121.270 64.557 C 120.959 64.557,120.069 65.266,119.292 66.132 C 118.515 66.999,117.713 67.711,117.510 67.715 C 117.164 67.721,112.525 72.224,110.759 74.267 C 110.324 74.770,109.616 75.426,109.186 75.724 C 108.699 76.061,108.579 76.268,108.869 76.271 C 109.126 76.273,108.538 77.021,107.563 77.932 C 106.587 78.843,105.852 79.767,105.928 79.984 C 106.003 80.202,105.856 80.380,105.601 80.380 C 105.145 80.380,103.994 81.814,103.950 82.437 C 103.937 82.611,103.745 82.714,103.522 82.666 C 103.300 82.618,103.203 82.718,103.308 82.888 C 103.413 83.057,103.210 83.351,102.857 83.540 C 102.504 83.728,102.215 84.139,102.215 84.451 C 102.215 84.764,101.859 85.210,101.424 85.443 C 100.989 85.676,100.633 86.122,100.633 86.435 C 100.633 86.747,100.329 87.166,99.957 87.365 C 99.460 87.631,99.387 87.792,99.683 87.974 C 99.979 88.157,99.928 88.275,99.488 88.425 C 99.160 88.537,98.359 89.415,97.707 90.376 C 97.055 91.338,96.663 92.037,96.837 91.930 C 97.010 91.822,97.152 91.870,97.152 92.036 C 97.152 92.202,96.938 92.419,96.677 92.520 C 96.416 92.620,96.203 92.915,96.203 93.175 C 96.203 93.436,95.772 94.089,95.246 94.628 C 94.720 95.166,94.373 95.742,94.475 95.907 C 94.577 96.072,94.446 96.289,94.185 96.389 C 93.923 96.490,93.618 96.988,93.506 97.498 C 93.394 98.007,93.172 98.342,93.012 98.244 C 92.852 98.145,92.722 98.362,92.722 98.725 C 92.722 99.089,92.517 99.466,92.266 99.562 C 92.016 99.658,91.720 100.152,91.608 100.659 C 91.497 101.167,91.286 101.582,91.139 101.582 C 90.993 101.582,90.779 102.009,90.665 102.532 C 90.550 103.054,90.336 103.481,90.190 103.481 C 90.043 103.481,89.830 103.908,89.715 104.430 C 89.601 104.953,89.386 105.380,89.238 105.380 C 89.090 105.380,88.809 106.151,88.613 107.093 C 88.418 108.035,88.052 108.885,87.800 108.982 C 87.548 109.078,87.342 109.415,87.342 109.730 C 87.342 110.045,87.133 110.600,86.878 110.964 C 86.623 111.328,86.484 111.695,86.569 111.780 C 86.655 111.866,86.507 112.115,86.242 112.335 C 85.977 112.556,85.759 113.047,85.759 113.428 C 85.759 113.808,85.550 114.396,85.295 114.734 C 85.039 115.072,84.826 115.637,84.820 115.990 C 84.815 116.343,84.582 116.957,84.304 117.354 C 84.025 117.752,83.869 118.353,83.958 118.691 C 84.046 119.028,83.989 119.304,83.831 119.304 C 83.673 119.304,83.544 119.660,83.544 120.095 C 83.544 120.530,83.414 120.886,83.256 120.886 C 83.097 120.886,82.871 121.456,82.753 122.152 C 82.636 122.848,82.391 123.418,82.209 123.418 C 82.008 123.418,81.950 123.854,82.060 124.532 C 82.167 125.194,82.120 125.572,81.943 125.463 C 81.657 125.286,81.506 125.955,81.629 126.851 C 81.662 127.086,81.552 127.194,81.385 127.091 C 81.051 126.885,80.839 127.865,80.519 131.088 C 80.402 132.261,80.181 133.142,80.027 133.047 C 79.873 132.952,79.740 133.132,79.731 133.447 C 79.722 133.761,79.637 134.624,79.543 135.364 C 79.342 136.941,79.498 137.012,80.579 135.839 C 81.020 135.360,81.289 135.146,81.178 135.364 C 80.835 136.034,81.468 135.800,81.909 135.093 C 82.254 134.542,82.253 134.471,81.906 134.682 C 81.676 134.821,82.045 134.344,82.726 133.621 C 83.408 132.897,84.074 132.373,84.207 132.455 C 84.339 132.537,84.533 132.337,84.636 132.011 C 84.857 131.315,87.063 129.232,87.444 129.359 C 87.588 129.407,87.631 129.326,87.540 129.178 C 87.302 128.794,92.858 123.348,93.184 123.645 C 93.334 123.781,93.380 123.750,93.287 123.576 C 93.194 123.402,94.239 122.149,95.609 120.793 C 96.980 119.436,98.113 118.510,98.126 118.736 C 98.140 118.961,98.290 118.766,98.460 118.303 C 99.074 116.625,99.436 116.922,111.532 129.010 C 122.162 139.634,123.480 140.849,123.956 140.463 C 124.322 140.167,124.414 140.156,124.251 140.427 C 124.115 140.654,124.172 140.823,124.384 140.823 C 124.638 140.823,124.686 140.462,124.538 139.669 C 124.407 138.971,124.452 138.434,124.653 138.310 C 124.994 138.099,125.252 137.098,125.293 135.820 C 125.308 135.355,125.448 135.171,125.679 135.313 C 125.929 135.468,125.991 135.276,125.879 134.691 C 125.791 134.226,125.841 133.769,125.992 133.676 C 126.143 133.583,126.266 133.292,126.266 133.028 C 126.266 132.765,126.466 132.349,126.712 132.104 C 126.957 131.859,127.254 131.086,127.372 130.386 C 127.491 129.686,127.717 129.114,127.876 129.114 C 128.035 129.114,128.165 128.753,128.165 128.313 C 128.165 127.872,128.364 127.435,128.608 127.342 C 128.852 127.248,129.143 126.683,129.255 126.086 C 129.367 125.489,129.584 125.000,129.736 125.000 C 129.888 125.000,130.107 124.573,130.222 124.051 C 130.336 123.528,130.561 123.101,130.721 123.101 C 130.882 123.101,131.013 122.907,131.013 122.669 C 131.013 122.432,131.298 121.874,131.647 121.430 C 132.112 120.840,132.175 120.581,131.885 120.463 C 131.569 120.336,131.568 120.298,131.883 120.278 C 132.100 120.264,132.278 120.055,132.278 119.812 C 132.278 119.570,132.492 119.290,132.753 119.189 C 133.014 119.089,133.228 118.850,133.228 118.658 C 133.228 118.466,133.448 118.089,133.718 117.819 C 133.988 117.549,134.288 116.928,134.386 116.438 C 134.485 115.948,134.762 115.471,135.004 115.378 C 135.245 115.286,135.443 115.056,135.443 114.868 C 135.443 114.680,135.835 114.164,136.313 113.720 C 136.792 113.277,137.184 112.810,137.184 112.684 C 137.184 112.558,137.433 112.206,137.737 111.901 C 138.042 111.596,138.291 111.144,138.291 110.895 C 138.291 110.646,138.505 110.443,138.766 110.443 C 139.027 110.443,139.241 110.245,139.241 110.002 C 139.241 109.760,139.454 109.479,139.715 109.379 C 139.976 109.279,140.190 108.979,140.190 108.712 C 140.190 108.446,140.403 108.228,140.665 108.228 C 140.926 108.228,141.139 108.073,141.139 107.883 C 141.139 107.451,148.239 100.316,148.668 100.316 C 148.841 100.316,149.071 99.960,149.181 99.525 C 149.290 99.090,149.579 98.734,149.824 98.734 C 150.068 98.734,150.691 98.378,151.208 97.943 C 151.725 97.508,152.241 97.152,152.355 97.152 C 152.469 97.152,152.892 96.796,153.295 96.361 C 153.698 95.926,154.189 95.570,154.385 95.570 C 154.581 95.570,154.919 95.285,155.137 94.937 C 155.354 94.589,155.767 94.304,156.055 94.304 C 156.343 94.304,156.668 94.070,156.777 93.784 C 156.887 93.498,157.064 93.351,157.170 93.457 C 157.276 93.563,157.719 93.370,158.155 93.028 C 158.590 92.685,159.176 92.403,159.457 92.400 C 159.872 92.396,159.886 92.343,159.531 92.118 C 159.209 91.914,159.356 91.783,160.087 91.623 C 160.634 91.502,161.010 91.288,160.922 91.147 C 160.738 90.848,161.497 90.506,162.345 90.506 C 162.666 90.506,163.136 90.300,163.389 90.047 C 163.641 89.795,164.221 89.495,164.677 89.380 C 165.133 89.266,165.506 89.067,165.506 88.938 C 165.506 88.597,168.221 87.457,169.225 87.376 C 169.700 87.338,169.711 87.289,169.304 87.025 C 168.927 86.782,168.993 86.717,169.620 86.709 C 170.869 86.695,171.942 86.337,171.520 86.077 C 171.312 85.948,171.697 85.761,172.401 85.649 C 173.088 85.539,174.061 85.235,174.563 84.973 C 175.064 84.712,175.787 84.497,176.168 84.496 C 176.549 84.495,176.942 84.364,177.040 84.205 C 177.138 84.046,177.787 83.820,178.483 83.702 C 179.178 83.585,179.747 83.359,179.747 83.200 C 179.747 83.041,179.898 82.911,180.082 82.911 C 180.266 82.911,180.310 83.089,180.179 83.307 C 179.990 83.622,180.040 83.623,180.426 83.310 C 180.693 83.095,181.539 82.840,182.307 82.744 C 183.074 82.648,183.740 82.464,183.785 82.335 C 183.830 82.206,184.500 82.137,185.274 82.183 C 186.047 82.228,186.766 82.126,186.871 81.955 C 186.977 81.785,187.339 81.646,187.677 81.646 C 188.268 81.646,188.291 81.934,188.291 89.241 C 188.291 94.534,188.396 96.835,188.638 96.835 C 189.112 96.835,202.707 83.618,202.796 83.070 C 202.825 82.896,203.026 82.753,203.244 82.753 C 203.461 82.753,203.639 82.575,203.639 82.358 C 203.639 82.140,203.746 81.962,203.877 81.962 C 204.217 81.962,205.380 80.752,205.380 80.398 C 205.380 80.235,205.544 79.999,205.745 79.875 C 205.992 79.722,206.025 79.794,205.849 80.094 C 205.705 80.338,205.893 80.270,206.267 79.942 C 206.641 79.614,206.856 79.187,206.746 78.993 C 206.635 78.798,206.649 78.733,206.778 78.848 C 207.060 79.101,209.785 76.524,209.592 76.187 C 209.517 76.056,209.662 75.949,209.913 75.949 C 210.164 75.949,210.445 75.660,210.537 75.307 C 210.629 74.954,210.889 74.705,211.113 74.754 C 211.338 74.802,211.528 74.664,211.536 74.446 C 211.544 74.229,211.660 74.054,211.794 74.057 C 212.117 74.066,212.933 73.303,212.816 73.101 C 212.711 72.919,213.508 72.130,213.771 72.157 C 214.135 72.194,214.834 71.268,214.621 71.031 C 214.499 70.896,214.561 70.877,214.758 70.990 C 215.204 71.245,215.904 70.460,215.583 70.066 C 215.454 69.908,215.470 69.877,215.619 69.997 C 215.939 70.255,216.848 69.442,217.378 68.425 C 217.584 68.028,217.889 67.787,218.054 67.890 C 218.219 67.992,218.354 67.882,218.354 67.646 C 218.354 67.410,218.798 66.868,219.339 66.441 C 220.809 65.282,222.785 63.280,222.785 62.949 C 222.785 62.789,222.967 62.658,223.189 62.658 C 223.567 62.658,223.952 62.259,225.935 59.817 C 226.361 59.291,226.896 58.861,227.121 58.861 C 228.084 58.861,227.339 57.784,224.327 54.818 C 222.564 53.082,220.766 51.306,220.331 50.871 C 219.896 50.436,218.116 48.656,216.376 46.916 C 214.635 45.175,212.855 43.395,212.420 42.960 C 211.985 42.525,210.205 40.745,208.464 39.004 C 206.724 37.264,204.944 35.484,204.508 35.049 C 203.777 34.317,197.841 28.379,197.033 27.570 C 196.838 27.374,195.062 25.576,193.087 23.575 C 187.969 18.389,188.241 18.120,188.355 28.250 M221.519 38.279 C 221.519 38.446,224.403 41.434,227.927 44.919 C 231.452 48.404,234.442 51.364,234.572 51.498 C 234.703 51.631,236.240 53.193,237.990 54.969 L 241.170 58.197 229.288 70.073 C 216.878 82.477,216.664 82.732,218.582 82.861 C 219.229 82.905,219.835 83.062,219.927 83.211 C 220.019 83.360,220.579 83.558,221.171 83.651 C 221.764 83.744,222.367 84.008,222.512 84.236 C 222.720 84.565,222.777 84.552,222.785 84.177 C 222.791 83.861,222.872 83.822,223.027 84.059 C 223.155 84.256,223.865 84.517,224.604 84.641 C 225.344 84.765,225.949 84.996,225.949 85.154 C 225.949 85.313,226.224 85.443,226.560 85.443 C 226.895 85.443,227.384 85.657,227.645 85.918 C 227.906 86.179,228.404 86.392,228.752 86.392 C 229.100 86.392,229.581 86.589,229.821 86.829 C 230.061 87.068,230.748 87.370,231.347 87.498 C 231.946 87.626,232.608 87.870,232.818 88.038 C 233.028 88.207,233.349 88.254,233.530 88.141 C 233.712 88.029,233.861 88.088,233.861 88.272 C 233.861 88.457,234.074 88.608,234.335 88.608 C 234.597 88.608,234.810 88.765,234.810 88.958 C 234.810 89.151,235.016 89.229,235.269 89.132 C 235.548 89.025,235.806 89.204,235.928 89.591 C 236.039 89.939,236.294 90.170,236.496 90.103 C 236.697 90.036,237.036 90.135,237.249 90.323 C 238.328 91.275,238.634 91.464,239.253 91.558 C 239.623 91.615,240.021 91.809,240.137 91.990 C 240.253 92.171,240.669 92.420,241.060 92.542 C 241.452 92.664,241.772 92.897,241.772 93.059 C 241.772 93.222,241.990 93.354,242.257 93.354 C 242.523 93.354,242.823 93.568,242.924 93.829 C 243.024 94.090,243.309 94.304,243.556 94.304 C 243.804 94.304,244.089 94.517,244.189 94.778 C 244.290 95.040,244.636 95.253,244.959 95.253 C 245.283 95.253,245.700 95.538,245.886 95.886 C 246.072 96.234,246.442 96.519,246.707 96.519 C 246.972 96.519,247.101 96.661,246.994 96.835 C 246.886 97.009,247.025 97.152,247.301 97.152 C 247.578 97.152,247.887 97.366,247.987 97.627 C 248.087 97.888,248.356 98.101,248.585 98.101 C 248.815 98.101,249.547 98.648,250.213 99.316 C 250.879 99.984,251.890 100.800,252.459 101.129 C 253.060 101.475,253.426 101.902,253.333 102.145 C 253.244 102.376,253.309 102.480,253.477 102.376 C 253.850 102.146,256.081 104.380,255.850 104.753 C 255.760 104.900,255.831 105.109,256.007 105.218 C 256.184 105.328,256.329 105.261,256.329 105.069 C 256.329 104.846,256.486 104.868,256.769 105.130 C 257.087 105.426,257.109 105.602,256.848 105.770 C 256.618 105.919,256.688 106.005,257.041 106.008 C 257.346 106.010,257.595 106.143,257.595 106.302 C 257.595 106.578,258.362 107.583,259.573 108.894 C 259.877 109.224,260.127 109.621,260.127 109.776 C 260.127 109.932,260.340 110.141,260.601 110.241 C 260.862 110.341,261.076 110.650,261.076 110.926 C 261.076 111.203,261.219 111.341,261.395 111.233 C 261.570 111.124,261.811 111.294,261.931 111.610 C 262.050 111.925,262.334 112.372,262.561 112.602 C 262.789 112.832,262.975 113.199,262.975 113.418 C 262.975 113.638,263.331 114.008,263.766 114.241 C 264.201 114.473,264.557 114.843,264.557 115.063 C 264.557 115.282,264.749 115.653,264.984 115.888 C 265.219 116.123,265.586 116.846,265.801 117.496 C 266.015 118.145,266.310 118.603,266.455 118.513 C 266.601 118.423,266.813 118.771,266.927 119.287 C 267.044 119.823,267.400 120.309,267.757 120.423 C 268.215 120.568,268.326 120.793,268.176 121.268 C 268.039 121.699,268.087 121.843,268.321 121.698 C 268.513 121.579,268.681 121.668,268.694 121.896 C 268.756 122.989,269.040 123.887,269.391 124.104 C 269.773 124.341,269.814 124.457,269.902 125.554 C 269.940 126.029,269.990 126.040,270.253 125.633 C 270.516 125.226,270.566 125.237,270.604 125.712 C 270.691 126.793,270.731 126.924,271.044 127.148 C 271.218 127.272,271.407 127.729,271.463 128.165 C 271.519 128.600,271.768 129.114,272.017 129.307 C 272.265 129.500,272.468 130.024,272.468 130.471 C 272.468 130.918,272.649 131.472,272.870 131.702 C 273.091 131.932,273.253 132.437,273.230 132.824 C 273.207 133.211,273.311 133.452,273.461 133.359 C 273.611 133.266,273.734 133.484,273.734 133.842 C 273.734 134.200,273.860 134.494,274.014 134.494 C 274.168 134.494,274.259 134.935,274.216 135.474 C 274.142 136.415,274.644 137.967,275.024 137.972 C 275.125 137.974,275.144 138.402,275.068 138.924 C 274.984 139.494,275.069 139.873,275.281 139.873 C 275.474 139.873,275.633 140.301,275.633 140.823 C 275.633 141.345,275.756 141.772,275.905 141.772 C 276.055 141.772,276.113 142.111,276.034 142.526 C 275.955 142.941,276.046 143.377,276.236 143.494 C 276.426 143.612,276.582 143.851,276.582 144.025 C 276.582 144.199,276.404 144.234,276.187 144.103 C 275.886 143.923,275.875 143.975,276.142 144.322 C 276.335 144.573,276.581 145.241,276.688 145.807 L 276.883 146.835 272.856 146.840 C 270.139 146.844,268.984 146.945,269.304 147.152 C 269.674 147.391,269.586 147.460,268.908 147.464 C 268.430 147.466,268.038 147.326,268.038 147.152 C 268.038 146.962,266.772 146.835,264.873 146.835 C 262.555 146.835,261.708 146.941,261.704 147.231 C 261.701 147.495,261.597 147.468,261.392 147.152 C 261.205 146.862,261.084 146.825,261.081 147.057 C 261.071 147.818,299.325 185.759,300.102 185.759 C 300.616 185.759,302.002 184.572,304.811 181.725 C 307.000 179.506,313.863 172.660,320.060 166.513 C 326.258 160.366,331.329 155.203,331.329 155.041 C 331.329 154.879,331.543 154.747,331.804 154.747 C 332.065 154.747,332.278 154.533,332.278 154.272 C 332.278 154.011,332.428 153.797,332.610 153.797 C 333.074 153.797,334.494 152.213,334.494 151.694 C 334.494 151.459,334.656 151.266,334.854 151.266 C 335.243 151.266,338.018 148.819,337.892 148.586 C 337.851 148.508,338.101 148.223,338.449 147.952 C 338.797 147.681,338.940 147.478,338.766 147.501 C 338.592 147.524,337.595 147.502,336.551 147.451 L 334.652 147.359 336.709 147.152 C 338.048 147.017,336.480 146.926,332.218 146.890 C 328.134 146.856,325.597 146.955,325.475 147.152 C 325.367 147.326,324.540 147.466,323.636 147.464 C 322.459 147.460,322.128 147.372,322.468 147.152 C 322.858 146.900,322.825 146.844,322.284 146.840 C 321.921 146.838,321.620 146.657,321.614 146.440 C 321.542 143.743,321.070 139.985,320.780 139.796 C 320.508 139.620,320.525 139.484,320.843 139.279 C 321.087 139.121,321.135 138.950,320.955 138.883 C 320.779 138.819,320.551 137.921,320.447 136.888 C 320.344 135.855,320.130 134.929,319.973 134.831 C 319.724 134.675,319.361 132.330,319.318 130.598 C 319.310 130.284,319.170 130.109,319.006 130.210 C 318.831 130.318,318.779 129.962,318.879 129.344 C 318.997 128.613,318.845 127.930,318.378 127.098 C 318.008 126.440,317.887 126.014,318.109 126.151 C 318.331 126.288,318.260 126.013,317.952 125.542 C 317.606 125.012,317.529 124.684,317.753 124.684 C 318.002 124.684,318.016 124.560,317.797 124.288 C 317.622 124.070,317.379 123.430,317.258 122.864 C 317.137 122.298,316.917 121.835,316.770 121.835 C 316.622 121.835,316.406 121.074,316.290 120.143 C 316.158 119.085,315.871 118.301,315.526 118.052 C 315.173 117.797,315.026 117.382,315.119 116.897 C 315.202 116.464,315.112 116.139,314.910 116.139 C 314.716 116.139,314.557 115.793,314.557 115.371 C 314.557 114.948,314.361 114.406,314.121 114.166 C 313.881 113.926,313.585 113.275,313.463 112.719 C 313.341 112.164,313.121 111.709,312.975 111.709 C 312.828 111.709,312.617 111.246,312.505 110.680 C 312.282 109.555,311.364 107.496,311.015 107.337 C 310.894 107.282,310.873 107.033,310.969 106.783 C 311.065 106.534,310.986 106.329,310.793 106.329 C 310.601 106.329,310.443 106.116,310.443 105.854 C 310.443 105.593,310.292 105.380,310.108 105.380 C 309.924 105.380,309.861 105.238,309.968 105.064 C 310.075 104.890,309.941 104.431,309.670 104.044 C 309.399 103.657,309.175 103.051,309.172 102.699 C 309.168 102.168,309.114 102.139,308.861 102.532 C 308.611 102.918,308.553 102.878,308.549 102.317 C 308.546 101.938,308.329 101.412,308.065 101.149 C 307.802 100.885,307.500 100.237,307.394 99.709 C 307.289 99.181,307.006 98.585,306.766 98.386 C 306.526 98.187,306.329 97.828,306.329 97.588 C 306.329 97.348,306.189 97.152,306.019 97.152 C 305.848 97.152,305.619 96.796,305.510 96.361 C 305.400 95.926,305.184 95.570,305.029 95.570 C 304.874 95.570,304.747 95.352,304.747 95.085 C 304.747 94.818,304.521 94.514,304.246 94.408 C 303.915 94.281,303.863 94.142,304.093 94.000 C 304.308 93.867,304.131 93.618,303.634 93.352 C 303.190 93.114,302.895 92.739,302.980 92.518 C 303.065 92.297,302.500 91.256,301.725 90.203 C 300.950 89.150,300.316 88.147,300.316 87.974 C 300.316 87.800,300.170 87.658,299.990 87.658 C 299.811 87.658,299.572 87.409,299.460 87.104 C 299.348 86.800,298.942 86.252,298.557 85.888 C 298.173 85.524,297.761 84.918,297.642 84.543 C 297.523 84.168,297.289 83.861,297.123 83.861 C 296.956 83.861,296.684 83.505,296.519 83.070 C 296.354 82.634,296.088 82.278,295.928 82.278 C 295.769 82.278,295.542 81.894,295.424 81.425 C 295.256 80.755,295.147 80.670,294.920 81.029 C 294.677 81.413,294.629 81.402,294.625 80.961 C 294.620 80.384,292.611 78.165,292.094 78.165 C 291.917 78.165,291.772 77.939,291.772 77.664 C 291.772 77.388,291.060 76.447,290.190 75.572 C 289.320 74.698,288.608 73.855,288.608 73.700 C 288.608 73.545,288.386 73.418,288.114 73.418 C 287.843 73.418,287.715 73.266,287.830 73.080 C 287.944 72.894,287.741 72.664,287.377 72.569 C 287.014 72.474,286.788 72.280,286.875 72.139 C 286.963 71.997,286.748 71.790,286.397 71.679 C 286.046 71.567,285.759 71.339,285.759 71.171 C 285.759 71.004,285.250 70.408,284.628 69.848 C 284.006 69.288,282.920 68.295,282.215 67.642 C 281.511 66.990,280.738 66.456,280.499 66.456 C 280.259 66.456,280.063 66.327,280.063 66.171 C 280.063 65.741,277.211 63.016,276.537 62.802 C 276.214 62.700,275.949 62.492,275.949 62.342 C 275.949 62.191,275.662 61.977,275.312 61.866 C 274.961 61.754,274.756 61.531,274.856 61.370 C 274.956 61.208,274.822 61.076,274.560 61.076 C 274.297 61.076,273.943 60.828,273.774 60.525 C 273.604 60.222,273.376 60.062,273.268 60.171 C 273.086 60.353,272.311 59.808,270.884 58.496 C 270.571 58.209,270.017 57.879,269.651 57.763 C 269.286 57.647,268.987 57.419,268.987 57.257 C 268.987 57.095,268.769 56.962,268.503 56.962 C 268.236 56.962,267.936 56.748,267.836 56.487 C 267.736 56.226,267.466 56.013,267.236 56.013 C 267.006 56.013,266.595 55.790,266.322 55.518 C 266.050 55.246,265.694 55.105,265.532 55.206 C 265.369 55.307,265.144 55.102,265.033 54.752 C 264.922 54.402,264.449 54.027,263.982 53.918 C 263.515 53.810,262.991 53.550,262.816 53.340 C 262.342 52.768,260.589 51.680,260.866 52.130 C 261.002 52.352,260.692 52.284,260.143 51.972 C 259.614 51.670,259.180 51.317,259.179 51.187 C 259.178 51.056,258.974 50.949,258.725 50.949 C 258.476 50.949,258.046 50.723,257.769 50.446 C 257.326 50.003,256.794 49.791,255.915 49.708 C 255.774 49.694,255.742 49.548,255.845 49.383 C 255.947 49.218,255.533 48.989,254.925 48.875 C 254.317 48.761,253.655 48.469,253.454 48.226 C 253.252 47.984,252.820 47.785,252.493 47.785 C 252.166 47.785,251.899 47.654,251.899 47.493 C 251.899 47.333,251.472 47.108,250.949 46.994 C 250.427 46.879,250.000 46.674,250.000 46.537 C 250.000 46.401,249.680 46.309,249.288 46.335 C 248.896 46.360,248.330 46.109,248.030 45.778 C 247.694 45.406,247.239 45.239,246.844 45.343 C 246.491 45.435,246.203 45.381,246.203 45.224 C 246.203 45.066,245.989 44.937,245.728 44.937 C 245.467 44.937,245.253 44.778,245.253 44.583 C 245.253 44.388,244.975 44.303,244.632 44.392 C 244.290 44.482,243.846 44.356,243.644 44.113 C 243.442 43.870,242.879 43.671,242.393 43.671 C 241.906 43.671,241.458 43.521,241.397 43.337 C 241.288 43.009,240.582 42.793,239.459 42.746 C 239.144 42.732,238.963 42.598,239.056 42.447 C 239.150 42.296,238.567 42.082,237.762 41.972 C 236.957 41.862,236.118 41.622,235.898 41.439 C 235.504 41.113,234.160 40.760,233.228 40.738 C 232.967 40.732,232.668 40.597,232.563 40.437 C 232.350 40.112,231.596 39.933,230.282 39.898 C 229.775 39.884,229.477 39.738,229.589 39.557 C 229.696 39.383,229.456 39.230,229.053 39.216 C 228.652 39.203,228.038 39.135,227.690 39.066 C 227.342 38.996,226.665 38.906,226.187 38.864 C 225.708 38.823,225.316 38.666,225.316 38.516 C 225.316 38.366,224.826 38.285,224.226 38.337 C 223.626 38.388,223.033 38.328,222.907 38.203 C 222.572 37.867,221.519 37.925,221.519 38.279 M129.892 88.946 C 129.791 89.108,129.487 89.241,129.215 89.241 C 128.812 89.241,128.793 89.152,129.111 88.769 C 129.520 88.277,130.209 88.433,129.892 88.946 M79.980 150.048 C 67.780 162.293,61.154 169.163,61.309 169.404 C 61.485 169.676,63.756 169.778,69.620 169.778 L 77.690 169.778 77.788 170.965 C 77.842 171.618,78.020 172.152,78.184 172.152 C 78.347 172.152,78.481 172.445,78.481 172.803 C 78.481 173.241,78.351 173.377,78.085 173.217 C 77.780 173.034,77.773 173.083,78.056 173.436 C 78.257 173.687,78.518 174.960,78.635 176.266 C 78.752 177.571,78.979 178.687,79.139 178.745 C 79.299 178.803,79.430 179.060,79.430 179.317 C 79.430 179.607,79.280 179.694,79.035 179.547 C 78.729 179.363,78.722 179.412,79.006 179.765 C 79.207 180.016,79.458 180.997,79.563 181.945 C 79.668 182.894,79.873 183.748,80.019 183.844 C 80.165 183.940,80.299 184.233,80.318 184.494 C 80.355 185.011,80.949 188.790,81.114 189.557 C 81.290 190.377,81.744 191.288,82.097 191.530 C 82.339 191.695,82.338 191.764,82.096 191.767 C 81.898 191.770,81.814 192.170,81.895 192.722 C 81.971 193.244,82.160 193.671,82.314 193.671 C 82.469 193.671,82.595 193.884,82.595 194.146 C 82.595 194.407,82.718 194.620,82.868 194.620 C 83.017 194.620,83.072 194.976,82.989 195.411 C 82.901 195.873,82.985 196.203,83.191 196.203 C 83.385 196.203,83.544 196.487,83.544 196.835 C 83.544 197.184,83.722 197.471,83.940 197.473 C 84.238 197.477,84.233 197.543,83.916 197.744 C 83.573 197.961,83.581 198.093,83.959 198.471 C 84.213 198.725,84.505 199.536,84.608 200.273 C 84.711 201.010,85.013 201.923,85.278 202.301 C 85.543 202.679,85.759 203.242,85.759 203.551 C 85.759 203.861,85.886 204.114,86.041 204.114 C 86.195 204.114,86.422 204.648,86.544 205.301 C 86.666 205.953,86.924 206.679,87.118 206.914 C 87.312 207.148,87.514 207.622,87.566 207.967 C 87.619 208.311,87.875 208.806,88.135 209.066 C 88.395 209.326,88.608 209.803,88.608 210.127 C 88.608 210.450,88.831 210.938,89.105 211.212 C 89.378 211.485,89.499 211.709,89.372 211.709 C 89.246 211.709,89.414 212.018,89.745 212.396 C 90.077 212.774,90.170 212.979,89.953 212.852 C 89.338 212.493,89.485 212.872,90.269 213.672 C 90.661 214.072,90.987 214.541,90.995 214.715 C 91.013 215.120,91.826 216.813,92.243 217.315 C 92.419 217.526,92.741 217.912,92.959 218.172 C 93.176 218.432,93.400 218.942,93.455 219.305 C 93.511 219.669,93.921 220.383,94.368 220.892 C 94.815 221.401,95.272 222.183,95.384 222.630 C 95.496 223.078,95.726 223.358,95.895 223.254 C 96.064 223.149,96.203 223.337,96.203 223.671 C 96.203 224.005,96.559 224.803,96.994 225.445 C 97.429 226.086,97.785 226.755,97.785 226.931 C 97.785 227.108,97.912 227.174,98.068 227.078 C 98.223 226.982,98.441 227.264,98.551 227.705 C 98.662 228.146,98.876 228.431,99.026 228.338 C 99.177 228.245,99.386 228.514,99.492 228.937 C 99.598 229.359,99.988 229.801,100.359 229.919 C 100.876 230.083,100.933 230.194,100.604 230.397 C 100.261 230.609,100.284 230.704,100.721 230.871 C 101.021 230.986,101.266 231.279,101.266 231.521 C 101.266 231.764,101.515 231.973,101.820 231.987 C 102.142 232.002,102.210 232.078,101.983 232.170 C 101.732 232.271,101.931 232.613,102.537 233.122 C 103.056 233.559,103.481 234.111,103.481 234.348 C 103.481 234.585,103.662 234.893,103.884 235.032 C 104.106 235.171,104.515 235.641,104.794 236.076 C 105.537 237.237,107.353 239.082,107.991 239.326 C 108.295 239.442,108.544 239.753,108.544 240.018 C 108.544 240.652,117.866 250.000,118.498 250.000 C 118.767 250.000,118.987 250.143,118.987 250.318 C 118.987 250.493,119.628 251.268,120.411 252.040 C 121.195 252.813,121.835 253.296,121.835 253.114 C 121.835 252.932,122.223 253.225,122.697 253.765 C 123.171 254.305,123.812 254.747,124.121 254.747 C 124.430 254.747,124.684 254.899,124.684 255.086 C 124.684 255.612,125.591 256.392,125.947 256.172 C 126.122 256.064,126.266 256.197,126.266 256.469 C 126.266 256.740,126.464 256.962,126.707 256.962 C 126.949 256.962,127.230 257.177,127.331 257.440 C 127.432 257.702,127.628 257.880,127.766 257.835 C 127.905 257.790,128.358 258.069,128.772 258.454 C 129.187 258.840,129.632 259.090,129.762 259.010 C 129.891 258.930,130.079 259.077,130.178 259.337 C 130.278 259.597,130.578 259.810,130.844 259.810 C 131.111 259.810,131.329 259.950,131.329 260.121 C 131.329 260.291,131.675 260.518,132.097 260.624 C 132.520 260.730,132.943 261.017,133.037 261.263 C 133.131 261.508,133.392 261.709,133.617 261.709 C 133.842 261.709,134.409 262.065,134.879 262.500 C 135.348 262.935,135.956 263.291,136.230 263.291 C 136.504 263.291,136.814 263.513,136.918 263.784 C 137.022 264.055,137.293 264.205,137.520 264.118 C 137.748 264.031,137.986 264.117,138.050 264.308 C 138.114 264.500,138.511 264.710,138.933 264.774 C 139.355 264.839,139.817 265.101,139.961 265.357 C 140.104 265.613,140.367 265.823,140.545 265.823 C 140.722 265.823,141.082 266.036,141.343 266.297 C 141.604 266.559,142.100 266.772,142.446 266.772 C 142.792 266.772,142.987 266.915,142.880 267.089 C 142.772 267.263,142.835 267.423,143.019 267.445 C 143.371 267.486,143.825 267.590,144.225 267.719 C 144.355 267.762,144.579 267.776,144.723 267.751 C 144.866 267.726,144.902 267.838,144.802 267.999 C 144.586 268.350,146.362 269.028,146.701 268.724 C 146.831 268.608,146.841 268.680,146.723 268.885 C 146.595 269.109,146.797 269.341,147.226 269.464 C 147.621 269.578,148.370 269.862,148.892 270.095 C 149.415 270.329,150.052 270.567,150.309 270.624 C 150.566 270.681,150.968 270.906,151.202 271.123 C 151.436 271.341,151.836 271.519,152.091 271.519 C 152.345 271.519,152.935 271.768,153.401 272.073 C 153.867 272.377,154.138 272.449,154.004 272.231 C 153.667 271.685,154.058 271.734,154.634 272.310 C 154.895 272.571,155.490 272.787,155.956 272.790 C 156.540 272.793,156.673 272.878,156.382 273.062 C 156.106 273.237,156.542 273.406,157.642 273.552 C 158.567 273.675,159.408 273.912,159.511 274.079 C 159.614 274.245,160.023 274.444,160.419 274.521 C 160.816 274.597,161.304 274.795,161.504 274.961 C 161.704 275.127,162.507 275.358,163.289 275.474 C 164.071 275.591,164.804 275.836,164.917 276.019 C 165.030 276.202,165.850 276.422,166.738 276.508 C 167.627 276.593,168.354 276.769,168.354 276.899 C 168.354 277.028,168.953 277.230,169.684 277.347 C 170.415 277.464,171.162 277.680,171.345 277.828 C 171.528 277.975,172.532 278.193,173.576 278.311 C 174.620 278.429,175.522 278.658,175.580 278.820 C 175.638 278.982,175.825 279.114,175.994 279.114 C 176.164 279.114,176.215 278.972,176.108 278.797 C 176.000 278.623,176.063 278.481,176.247 278.481 C 176.431 278.481,176.582 278.623,176.582 278.797 C 176.582 278.972,176.872 279.114,177.226 279.114 C 177.892 279.114,178.004 277.868,177.387 277.306 C 177.234 277.166,177.232 277.265,177.383 277.532 C 177.615 277.940,177.579 277.946,177.121 277.575 C 176.829 277.338,176.657 277.033,176.740 276.899 C 176.824 276.764,176.594 276.576,176.230 276.481 C 175.867 276.386,175.657 276.166,175.764 275.993 C 175.872 275.819,175.793 275.574,175.589 275.448 C 175.358 275.305,175.303 275.356,175.444 275.584 C 175.569 275.785,175.519 275.949,175.335 275.949 C 175.151 275.949,174.982 275.807,174.960 275.633 C 174.939 275.459,174.903 275.186,174.881 275.026 C 174.860 274.867,174.712 274.618,174.554 274.473 C 174.386 274.319,174.361 274.375,174.493 274.604 C 174.921 275.348,174.315 275.001,173.224 273.877 C 172.624 273.260,172.219 272.615,172.324 272.445 C 172.429 272.275,172.398 272.157,172.255 272.182 C 171.528 272.308,171.152 272.107,171.316 271.681 C 171.420 271.409,171.334 271.242,171.112 271.285 C 170.901 271.327,170.769 271.165,170.820 270.926 C 170.878 270.650,170.735 270.560,170.424 270.679 C 170.156 270.782,169.919 270.728,169.897 270.560 C 169.875 270.391,169.840 270.075,169.818 269.858 C 169.796 269.640,169.565 269.462,169.304 269.462 C 169.043 269.462,168.829 269.296,168.829 269.093 C 168.829 268.890,168.699 268.605,168.541 268.460 C 168.374 268.307,168.348 268.362,168.481 268.592 C 168.606 268.809,168.557 268.987,168.373 268.987 C 168.189 268.987,168.020 268.845,167.998 268.671 C 167.977 268.497,167.941 268.224,167.919 268.064 C 167.898 267.905,167.750 267.656,167.592 267.511 C 167.424 267.357,167.399 267.413,167.531 267.642 C 167.656 267.860,167.608 268.038,167.424 268.038 C 167.239 268.038,167.071 267.896,167.049 267.722 C 167.027 267.547,166.992 267.275,166.970 267.115 C 166.948 266.955,166.801 266.706,166.642 266.561 C 166.475 266.408,166.450 266.463,166.582 266.693 C 166.707 266.911,166.659 267.089,166.474 267.089 C 166.170 267.089,166.011 266.658,166.098 266.072 C 166.116 265.947,165.896 265.936,165.609 266.046 C 165.274 266.175,165.163 266.122,165.301 265.899 C 165.420 265.706,165.240 265.464,164.894 265.355 C 164.476 265.222,164.336 264.982,164.465 264.620 C 164.571 264.324,164.552 264.178,164.422 264.294 C 164.089 264.593,162.638 263.264,162.876 262.878 C 162.984 262.703,162.942 262.641,162.783 262.739 C 162.358 263.002,161.292 262.127,161.542 261.722 C 161.661 261.530,161.570 261.415,161.337 261.464 C 161.105 261.512,160.965 261.339,161.023 261.076 C 161.081 260.815,161.032 260.697,160.915 260.815 C 160.602 261.128,158.842 259.463,159.080 259.079 C 159.202 258.880,159.075 258.832,158.754 258.955 C 158.465 259.066,158.228 259.019,158.228 258.851 C 158.228 258.682,158.450 258.544,158.721 258.544 C 158.993 258.544,159.137 258.418,159.041 258.264 C 158.814 257.896,159.640 257.214,159.945 257.519 C 160.074 257.648,160.132 257.611,160.074 257.437 C 160.016 257.263,160.094 257.120,160.249 257.120 C 160.403 257.120,160.651 256.791,160.800 256.388 C 160.949 255.985,161.214 255.744,161.390 255.853 C 161.565 255.961,161.709 255.815,161.709 255.527 C 161.709 255.239,161.994 254.930,162.342 254.839 C 162.690 254.747,162.975 254.555,162.975 254.410 C 162.975 253.986,164.605 252.365,164.935 252.460 C 165.101 252.508,165.141 252.392,165.023 252.202 C 164.903 252.006,165.097 251.781,165.471 251.683 C 165.835 251.588,166.067 251.405,165.987 251.276 C 165.908 251.147,166.194 250.711,166.624 250.307 C 167.053 249.904,167.415 249.705,167.427 249.866 C 167.440 250.027,167.561 249.873,167.697 249.525 C 167.832 249.177,168.143 248.892,168.386 248.892 C 168.630 248.892,168.829 248.714,168.829 248.497 C 168.829 248.279,168.955 248.137,169.109 248.180 C 169.263 248.224,169.509 247.937,169.655 247.543 C 169.800 247.149,170.250 246.701,170.653 246.547 C 171.436 246.250,172.081 245.613,172.125 245.095 C 172.140 244.921,172.330 244.778,172.547 244.778 C 172.765 244.778,172.943 244.565,172.943 244.304 C 172.943 244.043,173.157 243.829,173.418 243.829 C 173.679 243.829,173.892 243.616,173.892 243.354 C 173.892 243.093,174.106 242.880,174.367 242.880 C 174.628 242.880,174.848 242.666,174.856 242.405 C 174.864 242.144,175.033 241.963,175.232 242.003 C 175.431 242.043,175.684 241.792,175.795 241.445 C 175.905 241.098,176.127 240.895,176.289 240.995 C 176.450 241.095,176.582 240.972,176.582 240.722 C 176.582 240.472,176.823 240.072,177.118 239.833 C 177.580 239.458,177.615 239.464,177.373 239.873 C 177.133 240.282,177.168 240.288,177.626 239.917 C 177.918 239.679,178.066 239.337,177.954 239.156 C 177.842 238.975,177.899 238.918,178.080 239.030 C 178.490 239.283,179.195 238.486,178.874 238.132 C 178.745 237.990,178.801 237.966,178.999 238.079 C 179.197 238.192,179.535 238.072,179.750 237.813 C 179.965 237.554,180.017 237.332,179.865 237.320 C 179.713 237.307,179.873 237.186,180.222 237.050 C 180.570 236.914,180.854 236.604,180.854 236.361 C 180.854 236.117,181.068 235.918,181.329 235.918 C 181.590 235.918,181.822 235.740,181.843 235.522 C 181.959 234.364,181.974 234.339,182.278 234.810 C 182.447 235.071,182.587 235.124,182.590 234.928 C 182.593 234.732,182.354 234.376,182.060 234.137 C 181.696 233.842,181.600 233.829,181.762 234.098 C 181.911 234.347,181.816 234.494,181.506 234.494 C 181.235 234.494,181.013 234.356,181.013 234.188 C 181.013 234.020,180.301 233.788,179.430 233.673 C 178.560 233.557,177.848 233.339,177.848 233.187 C 177.848 233.035,177.524 232.911,177.127 232.911 C 176.731 232.911,176.126 232.718,175.782 232.482 C 175.265 232.125,172.846 231.489,172.536 231.628 C 172.486 231.650,172.227 231.449,171.960 231.182 C 171.692 230.915,171.189 230.696,170.841 230.696 C 170.493 230.696,169.994 230.483,169.733 230.222 C 169.472 229.960,168.984 229.747,168.648 229.747 C 168.313 229.747,168.038 229.611,168.038 229.445 C 168.038 229.279,167.538 229.049,166.926 228.934 C 166.314 228.819,165.678 228.492,165.512 228.208 C 165.260 227.777,165.206 227.769,165.188 228.165 C 165.176 228.455,164.992 228.333,164.715 227.848 C 164.438 227.363,164.255 227.241,164.242 227.532 C 164.226 227.908,164.154 227.891,163.899 227.453 C 163.721 227.148,163.370 226.899,163.117 226.899 C 162.865 226.899,162.658 226.762,162.658 226.594 C 162.658 226.427,162.089 226.137,161.392 225.949 C 160.696 225.762,160.127 225.474,160.127 225.310 C 160.127 225.146,159.743 224.916,159.274 224.798 C 158.806 224.681,158.129 224.273,157.771 223.892 C 157.135 223.215,155.774 222.370,154.668 221.965 C 154.363 221.853,154.114 221.565,154.114 221.324 C 154.114 221.083,153.900 220.886,153.639 220.886 C 153.378 220.886,153.165 220.728,153.165 220.536 C 153.165 220.343,152.951 220.267,152.690 220.368 C 152.429 220.468,152.215 220.433,152.215 220.289 C 152.215 219.896,150.623 218.259,150.429 218.453 C 150.336 218.546,149.454 217.796,148.469 216.787 C 147.483 215.778,146.357 214.854,145.965 214.733 C 145.307 214.531,145.102 214.185,145.229 213.490 C 145.256 213.338,145.067 213.295,144.808 213.394 C 144.515 213.507,144.262 213.341,144.141 212.959 C 144.033 212.620,143.340 211.711,142.600 210.939 C 141.860 210.166,141.095 209.205,140.902 208.802 C 140.708 208.399,140.540 208.265,140.528 208.504 C 140.511 208.846,140.409 208.858,140.050 208.560 C 139.800 208.352,139.666 207.997,139.752 207.771 C 139.839 207.545,139.688 207.275,139.417 207.171 C 139.146 207.067,138.924 206.764,138.924 206.497 C 138.924 206.231,138.702 206.013,138.431 206.013 C 138.159 206.013,138.021 205.877,138.123 205.712 C 138.225 205.547,138.021 205.258,137.670 205.070 C 137.319 204.882,137.047 204.625,137.066 204.500 C 137.189 203.682,137.010 203.331,136.709 203.797 C 136.448 204.201,136.401 204.188,136.397 203.708 C 136.395 203.398,136.192 203.068,135.946 202.973 C 135.701 202.879,135.413 202.457,135.307 202.034 C 135.201 201.612,134.975 201.266,134.804 201.266 C 134.633 201.266,134.494 201.048,134.494 200.781 C 134.494 200.515,134.278 200.214,134.013 200.112 C 133.749 200.011,133.558 199.766,133.588 199.568 C 133.684 198.940,132.692 197.023,132.519 197.503 C 132.431 197.745,132.254 197.409,132.126 196.756 C 131.997 196.104,131.765 195.570,131.610 195.570 C 131.456 195.570,131.329 195.366,131.329 195.118 C 131.329 194.869,131.151 194.477,130.934 194.247 C 130.378 193.660,129.114 191.009,129.114 190.431 C 129.114 190.167,128.902 189.775,128.643 189.560 C 128.384 189.345,128.244 189.051,128.333 188.908 C 128.422 188.764,128.294 188.531,128.049 188.390 C 127.803 188.248,127.434 187.312,127.227 186.309 C 127.021 185.306,126.720 184.567,126.559 184.666 C 126.398 184.766,126.266 184.483,126.266 184.038 C 126.266 183.592,126.123 183.228,125.949 183.228 C 125.775 183.228,125.633 183.077,125.633 182.893 C 125.633 182.708,125.762 182.637,125.920 182.735 C 126.267 182.950,125.951 181.557,125.599 181.321 C 125.462 181.229,125.264 180.666,125.159 180.068 C 125.054 179.470,124.837 178.824,124.677 178.631 C 124.517 178.439,124.291 177.472,124.175 176.482 C 124.059 175.493,123.841 174.684,123.691 174.684 C 123.541 174.684,123.418 174.533,123.418 174.348 C 123.418 174.164,123.571 174.108,123.758 174.223 C 124.000 174.373,124.000 174.242,123.758 173.767 C 123.571 173.401,123.274 172.816,123.099 172.468 C 122.923 172.120,122.889 171.835,123.023 171.835 C 123.156 171.835,123.264 171.373,123.263 170.807 L 123.259 169.778 130.775 169.873 C 135.668 169.935,138.291 169.857,138.291 169.649 C 138.291 169.048,100.031 131.012,99.453 131.039 C 99.145 131.054,90.382 139.608,79.980 150.048 M127.848 139.848 C 127.848 140.007,127.935 140.363,128.040 140.639 C 128.257 141.203,129.430 141.330,129.430 140.789 C 129.430 140.596,129.221 140.519,128.966 140.617 C 128.710 140.715,128.417 140.659,128.314 140.493 C 128.211 140.326,128.278 140.190,128.462 140.190 C 128.647 140.190,128.797 140.047,128.797 139.873 C 128.797 139.699,128.584 139.557,128.323 139.557 C 128.062 139.557,127.848 139.688,127.848 139.848 M129.747 142.886 C 129.747 143.164,129.604 143.304,129.430 143.196 C 129.256 143.089,129.114 143.151,129.114 143.336 C 129.114 143.710,129.343 143.728,130.109 143.411 C 130.553 143.228,130.565 143.136,130.189 142.788 C 129.825 142.452,129.747 142.469,129.747 142.886 M127.620 143.393 C 126.991 144.022,127.495 144.652,128.139 144.042 C 128.672 143.536,128.707 143.038,128.209 143.038 C 128.080 143.038,127.815 143.198,127.620 143.393 M124.367 143.683 C 124.367 143.901,124.586 143.971,124.896 143.852 C 125.186 143.741,125.553 143.832,125.711 144.056 C 125.930 144.366,125.967 144.350,125.870 143.987 C 125.717 143.421,124.367 143.147,124.367 143.683 M323.659 147.059 C 324.052 147.135,324.622 147.132,324.925 147.053 C 325.227 146.974,324.905 146.912,324.209 146.915 C 323.513 146.919,323.265 146.984,323.659 147.059 M275.583 176.187 C 275.556 176.491,275.540 176.917,275.547 177.133 C 275.555 177.348,275.451 177.457,275.317 177.374 C 275.182 177.291,275.006 177.572,274.924 177.999 C 274.842 178.426,274.933 178.840,275.125 178.920 C 275.350 179.012,275.334 179.073,275.079 179.089 C 274.850 179.103,274.682 179.547,274.679 180.142 C 274.675 180.831,274.585 181.030,274.405 180.746 C 274.208 180.436,274.094 180.539,273.981 181.132 C 273.895 181.578,273.947 181.868,274.096 181.776 C 274.245 181.684,274.367 181.759,274.367 181.943 C 274.367 182.128,274.225 182.278,274.051 182.278 C 273.877 182.278,273.734 182.563,273.734 182.911 C 273.734 183.259,273.608 183.544,273.455 183.544 C 273.301 183.544,273.101 183.829,273.009 184.178 C 272.918 184.526,272.973 184.731,273.131 184.634 C 273.587 184.352,273.464 184.810,272.943 185.330 C 272.682 185.591,272.464 186.115,272.458 186.494 C 272.453 186.873,272.239 187.460,271.984 187.798 C 271.728 188.136,271.519 188.670,271.519 188.985 C 271.519 189.299,271.388 189.557,271.228 189.557 C 271.067 189.557,270.843 189.983,270.729 190.503 C 270.614 191.023,270.390 191.529,270.230 191.628 C 270.070 191.727,269.590 192.570,269.164 193.501 C 268.739 194.432,268.225 195.296,268.022 195.421 C 267.746 195.592,267.752 195.709,268.046 195.891 C 268.327 196.065,268.267 196.188,267.833 196.325 C 267.175 196.534,266.314 198.231,266.401 199.148 C 266.430 199.463,266.317 199.635,266.148 199.531 C 265.979 199.427,265.753 199.693,265.645 200.122 C 265.537 200.552,265.248 200.981,265.003 201.075 C 264.758 201.169,264.557 201.449,264.557 201.697 C 264.557 201.945,264.343 202.229,264.082 202.330 C 263.821 202.430,263.608 202.777,263.608 203.101 C 263.608 203.425,263.247 203.884,262.805 204.120 C 262.364 204.356,262.066 204.712,262.142 204.912 C 262.219 205.111,261.939 205.532,261.521 205.846 C 261.102 206.161,260.759 206.611,260.759 206.848 C 260.759 207.085,260.546 207.278,260.285 207.278 C 260.024 207.278,259.846 207.404,259.889 207.557 C 259.933 207.710,259.577 208.202,259.098 208.649 C 258.619 209.097,258.228 209.585,258.228 209.735 C 258.228 209.884,258.004 210.282,257.730 210.620 C 257.456 210.958,257.322 211.056,257.432 210.839 C 257.542 210.621,257.481 210.443,257.297 210.443 C 257.113 210.443,256.962 210.732,256.962 211.086 C 256.962 211.439,256.737 211.815,256.462 211.921 C 255.895 212.138,252.848 215.156,252.848 215.500 C 252.848 215.624,252.563 215.982,252.215 216.297 C 251.867 216.612,251.582 216.711,251.582 216.515 C 251.582 216.320,251.089 216.654,250.485 217.257 C 249.882 217.861,249.233 218.354,249.043 218.354 C 248.852 218.354,248.785 218.497,248.892 218.671 C 249.000 218.845,248.862 218.987,248.585 218.987 C 248.308 218.987,247.999 219.201,247.899 219.462 C 247.799 219.723,247.519 219.937,247.276 219.937 C 247.034 219.937,246.835 220.134,246.835 220.374 C 246.835 220.769,245.769 221.323,245.174 221.237 C 245.044 221.218,244.937 221.333,244.937 221.493 C 244.937 221.653,244.403 222.108,243.750 222.504 C 243.097 222.901,242.449 223.411,242.310 223.638 C 242.171 223.865,241.871 224.051,241.644 224.051 C 241.417 224.051,240.855 224.400,240.394 224.827 C 239.934 225.253,239.557 225.457,239.557 225.279 C 239.557 225.101,239.333 225.178,239.060 225.452 C 238.787 225.725,238.222 226.034,237.806 226.139 C 237.389 226.243,236.962 226.600,236.857 226.931 C 236.710 227.395,236.471 227.491,235.817 227.348 C 235.160 227.206,235.076 227.240,235.443 227.501 C 235.853 227.792,235.842 227.839,235.364 227.843 C 235.059 227.846,234.810 227.991,234.810 228.165 C 234.810 228.339,234.659 228.481,234.475 228.481 C 234.291 228.481,234.220 228.352,234.317 228.194 C 234.415 228.036,234.197 227.985,233.834 228.080 C 233.333 228.211,233.276 228.317,233.597 228.520 C 233.920 228.725,233.890 228.789,233.465 228.793 C 233.161 228.795,232.911 228.935,232.911 229.104 C 232.911 229.273,232.698 229.329,232.437 229.228 C 232.176 229.128,231.962 229.188,231.962 229.361 C 231.962 229.534,231.297 229.775,230.485 229.897 C 229.586 230.031,229.163 230.214,229.404 230.363 C 229.850 230.639,228.833 231.001,227.592 231.008 C 227.190 231.011,226.940 231.139,227.035 231.294 C 227.131 231.448,226.569 231.671,225.788 231.788 C 225.006 231.905,224.367 232.121,224.367 232.268 C 224.367 232.415,223.637 232.636,222.744 232.759 C 221.638 232.911,221.260 233.070,221.557 233.258 C 221.877 233.460,221.781 233.543,221.203 233.565 C 219.673 233.625,218.522 233.906,218.286 234.277 C 218.136 234.513,218.046 234.525,218.043 234.311 C 218.040 234.113,217.640 234.029,217.089 234.110 C 216.566 234.186,216.139 234.344,216.139 234.461 C 216.139 234.577,215.756 234.704,215.287 234.743 C 214.818 234.781,214.352 234.946,214.252 235.108 C 214.152 235.270,213.486 235.324,212.773 235.228 L 211.475 235.054 211.272 233.114 C 211.161 232.047,211.164 228.645,211.280 225.555 C 211.446 221.141,211.406 219.937,211.093 219.937 C 210.425 219.937,172.468 258.102,172.468 258.774 C 172.468 259.112,173.654 260.552,175.164 262.047 C 176.647 263.514,178.534 265.399,179.357 266.235 C 180.181 267.071,181.964 268.851,183.321 270.191 C 184.678 271.530,186.458 273.311,187.277 274.147 C 188.096 274.982,189.876 276.763,191.232 278.102 C 192.589 279.442,194.369 281.220,195.188 282.054 C 197.681 284.593,201.169 288.076,202.276 289.133 C 202.852 289.683,204.621 291.463,206.208 293.088 C 211.845 298.864,211.493 299.154,211.350 288.845 L 211.234 280.538 212.496 280.435 C 213.190 280.379,213.948 280.174,214.181 279.981 C 214.462 279.748,214.677 279.737,214.818 279.949 C 215.075 280.332,217.722 280.118,217.722 279.714 C 217.722 279.558,218.350 279.430,219.119 279.430 C 219.941 279.430,220.583 279.267,220.676 279.035 C 220.783 278.770,220.844 278.760,220.861 279.005 C 220.890 279.421,223.377 279.217,223.877 278.757 C 224.042 278.605,224.505 278.481,224.905 278.481 C 225.305 278.481,225.633 278.363,225.633 278.219 C 225.633 278.075,226.072 278.022,226.608 278.101 C 227.144 278.180,227.892 278.094,228.269 277.911 C 228.647 277.727,229.490 277.489,230.142 277.382 C 230.795 277.274,231.329 277.051,231.329 276.884 C 231.329 276.718,231.480 276.582,231.664 276.582 C 231.849 276.582,231.915 276.719,231.812 276.885 C 231.709 277.052,232.021 276.982,232.505 276.729 C 232.990 276.476,233.635 276.269,233.940 276.268 C 234.244 276.267,234.494 276.100,234.494 275.897 C 234.494 275.694,234.569 275.603,234.662 275.696 C 234.906 275.939,237.749 275.365,237.957 275.030 C 238.054 274.874,238.641 274.666,239.263 274.568 C 239.884 274.469,240.810 274.171,241.320 273.905 C 241.830 273.639,242.425 273.421,242.642 273.420 C 242.860 273.419,243.038 273.291,243.038 273.136 C 243.038 272.982,243.536 272.762,244.146 272.647 C 244.755 272.533,245.253 272.304,245.253 272.138 C 245.253 271.971,245.404 271.835,245.588 271.835 C 245.773 271.835,245.836 271.976,245.730 272.148 C 245.397 272.688,246.641 272.079,247.231 271.413 C 247.536 271.070,247.785 270.940,247.785 271.124 C 247.785 271.309,248.070 271.385,248.418 271.294 C 248.766 271.203,249.051 271.019,249.051 270.884 C 249.051 270.750,249.553 270.546,250.167 270.431 C 250.781 270.315,251.200 270.086,251.098 269.921 C 250.996 269.755,251.134 269.620,251.405 269.620 C 251.677 269.620,251.899 269.469,251.899 269.285 C 251.899 269.101,252.042 269.039,252.218 269.147 C 252.393 269.255,252.759 269.121,253.031 268.849 C 253.304 268.577,253.783 268.354,254.098 268.354 C 254.412 268.354,254.847 268.141,255.063 267.880 C 255.280 267.619,255.653 267.405,255.893 267.405 C 256.133 267.405,256.329 267.274,256.329 267.114 C 256.329 266.954,256.756 266.729,257.278 266.614 C 257.801 266.499,258.228 266.274,258.228 266.114 C 258.228 265.954,258.502 265.823,258.838 265.823 C 259.174 265.823,259.662 265.609,259.923 265.348 C 260.184 265.087,260.504 264.873,260.633 264.873 C 260.762 264.873,261.153 264.624,261.501 264.320 C 261.849 264.015,262.031 263.942,261.905 264.158 C 261.750 264.423,261.835 264.489,262.167 264.361 C 262.437 264.258,262.658 264.046,262.658 263.890 C 262.658 263.735,262.883 263.608,263.157 263.608 C 263.432 263.608,264.083 263.180,264.606 262.658 C 265.128 262.136,265.736 261.709,265.957 261.709 C 266.178 261.709,266.687 261.424,267.089 261.076 C 267.490 260.728,267.945 260.443,268.100 260.443 C 268.406 260.443,268.837 260.115,270.281 258.782 C 270.800 258.303,271.362 257.911,271.530 257.911 C 271.698 257.911,272.089 257.662,272.399 257.358 C 272.709 257.053,273.350 256.602,273.823 256.355 C 274.296 256.108,274.684 255.721,274.684 255.494 C 274.684 255.268,274.879 255.158,275.117 255.250 C 275.356 255.341,275.636 255.194,275.740 254.923 C 275.844 254.652,276.148 254.430,276.414 254.430 C 276.681 254.430,276.899 254.217,276.899 253.956 C 276.899 253.695,277.068 253.481,277.276 253.481 C 277.483 253.481,278.184 252.911,278.833 252.215 C 279.483 251.519,280.111 250.949,280.229 250.949 C 280.348 250.949,281.011 250.415,281.702 249.763 C 283.808 247.775,284.172 247.465,284.309 247.547 C 284.382 247.591,284.560 247.497,284.705 247.339 C 284.858 247.171,284.803 247.146,284.573 247.278 C 283.894 247.669,284.139 247.101,284.990 246.313 C 285.437 245.898,285.926 245.635,286.076 245.728 C 286.226 245.821,286.452 245.730,286.578 245.526 C 286.721 245.294,286.669 245.240,286.441 245.381 C 286.240 245.505,286.076 245.480,286.076 245.324 C 286.076 244.891,288.599 242.722,289.102 242.722 C 289.346 242.722,289.634 242.366,289.743 241.930 C 289.853 241.495,290.037 241.139,290.154 241.139 C 290.597 241.139,292.410 239.249,292.331 238.870 C 292.284 238.651,292.567 238.327,292.959 238.149 C 293.350 237.970,293.677 237.680,293.684 237.504 C 293.692 237.328,294.119 236.834,294.634 236.407 C 295.148 235.980,295.570 235.446,295.570 235.221 C 295.570 234.995,295.702 234.810,295.865 234.810 C 296.027 234.810,296.261 234.490,296.384 234.098 C 296.507 233.706,297.078 232.940,297.654 232.394 C 298.230 231.849,298.617 231.318,298.514 231.215 C 298.411 231.112,298.561 230.938,298.847 230.828 C 299.133 230.718,299.367 230.431,299.367 230.190 C 299.367 229.949,299.759 229.359,300.237 228.879 C 301.149 227.965,301.641 227.265,302.297 225.954 C 302.513 225.521,302.939 224.916,303.244 224.609 C 303.548 224.302,303.797 223.719,303.797 223.313 C 303.797 222.849,304.093 222.417,304.595 222.149 C 305.174 221.839,305.282 221.652,304.990 221.467 C 304.674 221.266,304.673 221.211,304.984 221.207 C 305.202 221.205,305.380 221.021,305.380 220.798 C 305.380 220.576,305.665 220.150,306.013 219.852 C 306.361 219.554,306.646 219.024,306.646 218.674 C 306.646 218.324,306.777 218.038,306.937 218.038 C 307.097 218.038,307.326 217.592,307.446 217.046 C 307.591 216.388,307.747 216.190,307.911 216.456 C 308.076 216.722,308.232 216.523,308.377 215.865 C 308.497 215.320,308.714 214.873,308.861 214.873 C 309.007 214.873,309.221 214.446,309.335 213.924 C 309.450 213.402,309.664 212.975,309.810 212.975 C 309.957 212.975,310.170 212.547,310.285 212.025 C 310.399 211.503,310.616 211.076,310.766 211.076 C 310.917 211.076,310.979 210.762,310.905 210.379 C 310.832 209.996,310.875 209.604,311.003 209.509 C 311.391 209.218,312.243 207.491,312.473 206.528 C 312.592 206.029,312.896 205.413,313.149 205.161 C 313.401 204.908,313.608 204.356,313.608 203.933 C 313.608 203.510,313.739 203.165,313.899 203.165 C 314.059 203.165,314.284 202.737,314.399 202.215 C 314.513 201.693,314.722 201.266,314.862 201.266 C 315.267 201.266,315.451 199.721,315.065 199.561 C 314.840 199.469,314.856 199.408,315.111 199.392 C 315.328 199.378,315.506 199.074,315.506 198.716 C 315.506 198.310,315.642 198.148,315.865 198.286 C 316.114 198.439,316.179 198.202,316.078 197.513 C 315.998 196.966,316.050 196.519,316.194 196.519 C 316.338 196.519,316.460 196.270,316.466 195.965 C 316.471 195.661,316.685 195.135,316.940 194.797 C 317.305 194.315,317.320 194.129,317.009 193.932 C 316.693 193.731,316.693 193.680,317.009 193.676 C 317.227 193.673,317.405 193.306,317.405 192.861 C 317.405 192.408,317.543 192.136,317.718 192.245 C 317.893 192.353,317.953 192.235,317.855 191.979 C 317.758 191.726,317.846 191.416,318.050 191.290 C 318.326 191.119,318.312 190.990,317.993 190.788 C 317.677 190.588,317.668 190.515,317.959 190.511 C 318.188 190.508,318.354 190.099,318.354 189.538 C 318.354 188.886,318.474 188.644,318.720 188.796 C 318.983 188.959,319.033 188.697,318.898 187.866 C 318.795 187.229,318.839 186.709,318.996 186.709 C 319.281 186.709,319.818 183.743,319.670 182.991 C 319.628 182.773,319.726 182.595,319.888 182.595 C 320.051 182.595,320.242 182.097,320.313 181.487 C 320.516 179.747,319.864 180.079,316.425 183.465 C 314.702 185.162,313.146 186.693,312.967 186.867 C 312.788 187.041,310.029 189.818,306.836 193.038 C 300.901 199.023,299.398 200.460,299.806 199.763 C 299.933 199.545,299.887 199.367,299.702 199.367 C 299.518 199.367,299.356 199.118,299.342 198.813 C 299.328 198.509,299.250 198.424,299.168 198.625 C 298.997 199.041,297.468 197.771,297.468 197.213 C 297.468 197.026,297.304 196.771,297.103 196.647 C 296.859 196.496,296.820 196.569,296.987 196.866 C 297.124 197.110,296.790 196.839,296.244 196.262 C 295.699 195.686,295.253 195.072,295.253 194.899 C 295.253 194.725,295.111 194.671,294.937 194.778 C 294.763 194.886,294.620 194.752,294.620 194.481 C 294.620 194.209,294.407 193.987,294.146 193.987 C 293.884 193.987,293.706 193.816,293.750 193.606 C 293.794 193.397,293.651 193.201,293.434 193.171 C 292.625 193.061,292.571 193.023,292.897 192.796 C 293.115 192.644,293.033 192.371,292.660 192.009 C 292.281 191.643,292.084 191.589,292.074 191.851 C 292.066 192.069,291.864 191.820,291.625 191.297 C 291.386 190.775,291.173 190.562,291.151 190.823 C 291.129 191.084,290.915 190.870,290.676 190.348 C 290.437 189.826,290.221 189.612,290.196 189.873 C 290.168 190.161,290.034 190.059,289.856 189.616 C 289.679 189.175,289.416 188.974,289.194 189.111 C 288.958 189.257,288.912 189.200,289.065 188.952 C 289.217 188.706,289.063 188.502,288.643 188.392 C 288.279 188.297,288.060 188.093,288.155 187.939 C 288.250 187.784,288.205 187.658,288.054 187.658 C 287.903 187.658,287.503 187.434,287.165 187.160 C 286.827 186.886,286.764 186.766,287.025 186.892 C 287.299 187.025,287.232 186.851,286.867 186.481 C 286.519 186.129,286.105 185.915,285.948 186.007 C 285.791 186.099,285.753 186.025,285.865 185.844 C 286.084 185.491,285.340 184.702,285.056 184.986 C 284.963 185.079,284.788 184.765,284.668 184.288 C 284.498 183.608,284.387 183.519,284.160 183.877 C 283.920 184.256,283.870 184.240,283.866 183.782 C 283.863 183.477,283.663 183.228,283.420 183.228 C 283.178 183.228,282.893 182.881,282.787 182.458 C 282.680 182.034,282.295 181.593,281.930 181.477 C 281.186 181.241,278.764 178.936,279.006 178.695 C 279.092 178.609,278.866 178.445,278.505 178.330 C 278.144 178.216,277.848 177.953,277.848 177.747 C 277.848 176.800,275.663 175.296,275.583 176.187 " stroke="none" fill="#fcfcfc" fill-rule="evenodd"></path><path id="path1" d="M226.086 59.578 C 225.726 59.967,225.323 60.498,225.192 60.759 C 224.980 61.181,225.001 61.181,225.387 60.759 C 225.626 60.498,226.140 59.964,226.530 59.573 C 226.921 59.181,227.127 58.863,226.990 58.866 C 226.853 58.869,226.446 59.190,226.086 59.578 M219.262 66.447 C 218.696 66.965,218.295 67.444,218.372 67.513 C 218.450 67.582,218.996 67.158,219.587 66.572 C 220.915 65.255,220.670 65.161,219.262 66.447 M117.953 67.089 C 117.655 67.437,117.521 67.722,117.654 67.722 C 117.788 67.722,118.141 67.437,118.439 67.089 C 118.737 66.741,118.872 66.456,118.738 66.456 C 118.604 66.456,118.251 66.741,117.953 67.089 M108.060 77.136 L 107.504 78.006 108.340 77.239 C 109.245 76.410,109.327 76.266,108.897 76.266 C 108.743 76.266,108.367 76.657,108.060 77.136 M291.772 77.788 C 291.772 77.958,291.998 78.183,292.273 78.289 C 292.581 78.407,292.726 78.337,292.649 78.105 C 292.491 77.632,291.772 77.372,291.772 77.788 M129.111 88.769 C 128.793 89.152,128.812 89.241,129.215 89.241 C 129.806 89.241,130.192 88.724,129.788 88.475 C 129.631 88.378,129.326 88.510,129.111 88.769 M253.533 102.555 C 255.646 104.565,256.013 104.872,256.013 104.634 C 256.013 104.317,252.485 100.949,252.153 100.949 C 251.983 100.949,252.604 101.672,253.533 102.555 M91.218 125.126 C 87.520 128.808,84.494 131.957,84.494 132.125 C 84.494 132.293,85.080 131.826,85.796 131.089 C 86.512 130.351,87.248 129.747,87.431 129.747 C 87.614 129.747,87.686 129.669,87.591 129.575 C 87.424 129.407,87.945 128.857,91.551 125.396 C 92.503 124.482,93.232 123.734,93.172 123.734 C 93.112 123.734,94.227 122.602,95.651 121.218 C 97.074 119.835,98.172 118.642,98.091 118.567 C 98.009 118.493,94.917 121.444,91.218 125.126 M82.829 133.505 C 82.204 134.165,81.860 134.699,82.064 134.691 C 82.573 134.673,84.520 132.649,84.212 132.458 C 84.077 132.374,83.454 132.846,82.829 133.505 M80.587 135.705 C 80.010 136.343,79.883 136.858,80.378 136.552 C 80.708 136.348,81.439 135.127,81.231 135.127 C 81.165 135.127,80.875 135.387,80.587 135.705 M130.274 141.983 C 129.839 142.419,130.086 143.038,130.696 143.038 C 131.118 143.038,131.329 142.827,131.329 142.405 C 131.329 141.795,130.710 141.548,130.274 141.983 M128.391 143.117 C 128.599 143.387,128.519 143.681,128.138 144.042 C 127.689 144.469,127.548 144.488,127.415 144.139 C 127.225 143.644,125.952 143.639,125.945 144.134 C 125.942 144.314,125.807 144.253,125.645 143.997 C 125.271 143.405,124.920 143.726,125.185 144.417 C 125.294 144.703,125.708 144.937,126.105 144.937 C 126.585 144.937,126.887 145.173,127.011 145.649 C 127.192 146.340,127.229 146.328,128.298 145.227 C 129.439 144.052,129.580 142.722,128.564 142.722 C 128.231 142.722,128.179 142.841,128.391 143.117 M268.038 147.170 C 268.038 147.334,268.418 147.468,268.882 147.468 C 269.834 147.468,269.736 147.199,268.714 147.002 C 268.342 146.930,268.038 147.006,268.038 147.170 M322.359 147.226 C 322.158 147.354,322.733 147.461,323.636 147.464 C 324.540 147.466,325.345 147.362,325.426 147.231 C 325.615 146.924,322.840 146.920,322.359 147.226 M336.709 147.152 L 334.652 147.359 336.408 147.414 C 337.374 147.444,338.305 147.609,338.477 147.781 C 338.683 147.987,338.806 147.879,338.837 147.465 C 338.863 147.119,338.858 146.860,338.825 146.890 C 338.793 146.920,337.840 147.038,336.709 147.152 M65.585 169.857 C 67.805 169.911,71.436 169.911,73.655 169.857 C 75.874 169.802,74.059 169.758,69.620 169.758 C 65.182 169.758,63.366 169.802,65.585 169.857 M125.382 169.855 C 126.549 169.915,128.543 169.916,129.812 169.856 C 131.082 169.795,130.127 169.746,127.690 169.745 C 125.253 169.745,124.214 169.794,125.382 169.855 M77.848 172.608 C 77.848 172.859,77.991 173.152,78.165 173.259 C 78.339 173.367,78.481 173.162,78.481 172.803 C 78.481 172.445,78.339 172.152,78.165 172.152 C 77.991 172.152,77.848 172.357,77.848 172.608 M280.063 180.063 C 280.759 180.759,281.425 181.329,281.543 181.329 C 281.834 181.329,279.333 178.809,279.035 178.803 C 278.904 178.800,279.367 179.367,280.063 180.063 M295.253 195.005 C 295.253 195.120,295.680 195.682,296.203 196.254 C 296.725 196.825,297.152 197.199,297.152 197.084 C 297.152 196.969,296.725 196.407,296.203 195.835 C 295.680 195.263,295.253 194.890,295.253 195.005 M297.468 197.298 C 297.468 197.439,297.824 197.884,298.259 198.287 C 298.695 198.690,299.051 198.910,299.051 198.774 C 299.051 198.639,298.695 198.194,298.259 197.785 C 297.824 197.376,297.468 197.157,297.468 197.298 M144.040 212.807 C 144.236 213.236,144.512 213.516,144.654 213.428 C 144.796 213.341,144.672 212.989,144.379 212.647 C 143.680 211.830,143.610 211.863,144.040 212.807 M145.127 214.050 C 145.331 214.583,146.203 214.994,146.203 214.558 C 146.203 214.396,145.921 214.112,145.577 213.928 C 145.075 213.659,144.986 213.683,145.127 214.050 M252.057 215.823 C 251.740 216.173,251.552 216.531,251.639 216.618 C 251.726 216.705,252.056 216.489,252.373 216.139 C 252.690 215.789,252.879 215.431,252.791 215.344 C 252.704 215.257,252.374 215.473,252.057 215.823 M211.188 229.905 C 211.187 231.472,211.241 232.152,211.307 231.418 C 211.374 230.683,211.374 229.402,211.309 228.570 C 211.244 227.738,211.189 228.339,211.188 229.905 M181.013 234.177 C 181.013 234.351,181.242 234.494,181.521 234.494 C 181.875 234.494,181.966 234.662,181.819 235.047 C 181.654 235.481,181.691 235.518,181.993 235.219 C 182.296 234.919,182.291 234.732,181.973 234.349 C 181.513 233.795,181.013 233.705,181.013 234.177 M213.291 235.127 C 213.291 235.301,213.505 235.443,213.766 235.443 C 214.027 235.443,214.241 235.301,214.241 235.127 C 214.241 234.953,214.027 234.810,213.766 234.810 C 213.505 234.810,213.291 234.953,213.291 235.127 M292.405 238.449 C 292.133 238.777,292.121 238.924,292.366 238.924 C 292.562 238.924,292.722 238.773,292.722 238.589 C 292.722 238.405,292.864 238.342,293.038 238.449 C 293.212 238.557,293.354 238.494,293.354 238.310 C 293.354 237.826,292.863 237.898,292.405 238.449 M107.976 239.859 C 108.412 240.558,108.720 240.471,108.435 239.729 C 108.332 239.460,108.100 239.241,107.919 239.241 C 107.710 239.241,107.731 239.468,107.976 239.859 M286.204 245.095 C 284.915 246.400,283.861 247.575,283.862 247.706 C 283.863 247.836,284.281 247.498,284.791 246.954 C 285.301 246.409,286.048 245.690,286.451 245.355 C 287.542 244.448,289.079 242.722,288.795 242.722 C 288.658 242.722,287.492 243.790,286.204 245.095 M164.121 252.888 C 163.477 253.606,162.999 254.243,163.059 254.304 C 163.120 254.365,163.752 253.777,164.463 252.998 C 165.175 252.219,165.653 251.582,165.525 251.582 C 165.398 251.582,164.766 252.170,164.121 252.888 M159.477 257.454 C 159.059 257.899,158.931 258.181,159.191 258.081 C 159.603 257.923,160.628 256.646,160.343 256.646 C 160.284 256.646,159.895 257.009,159.477 257.454 M160.443 260.715 C 160.443 261.039,163.336 263.924,163.662 263.924 C 163.790 263.924,163.510 263.545,163.039 263.082 C 162.569 262.619,161.792 261.837,161.313 261.345 C 160.835 260.852,160.443 260.568,160.443 260.715 M165.396 265.789 C 165.345 265.894,166.419 267.067,167.783 268.395 C 169.147 269.723,170.297 270.720,170.340 270.611 C 170.441 270.346,165.515 265.541,165.396 265.789 M170.886 271.349 C 171.625 272.315,175.992 276.582,176.242 276.582 C 176.485 276.582,172.016 271.979,171.020 271.203 C 170.444 270.754,170.437 270.761,170.886 271.349 M177.097 277.532 C 177.466 277.967,177.831 278.529,177.908 278.782 C 177.996 279.068,178.126 279.116,178.254 278.909 C 178.366 278.727,178.001 278.164,177.442 277.659 C 176.628 276.922,176.559 276.897,177.097 277.532 M211.198 284.494 C 211.198 286.669,211.248 287.559,211.310 286.472 C 211.372 285.384,211.372 283.604,211.310 282.516 C 211.248 281.428,211.198 282.318,211.198 284.494 " stroke="none" fill="#f4f4f4" fill-rule="evenodd"></path><path id="path2" d="" stroke="none" fill="#fc100f8" fill-rule="evenodd"></path><path id="path3" d="" stroke="none" fill="#fc100f8" fill-rule="evenodd"></path><path id="path4" d="" stroke="none" fill="#fc100f8" fill-rule="evenodd"></path></g></svg>