<svg xmlns="http://www.w3.org/2000/svg" xmlns:xlink="http://www.w3.org/1999/xlink" width="134" height="134" viewBox="0 0 134 134">
  <defs>
    <style>
      .cls-1 {
        clip-path: url(#clip-Location);
      }

      .cls-2 {
        fill: #fff;
      }
    </style>
    <clipPath id="clip-Location">
      <rect width="134" height="134"/>
    </clipPath>
  </defs>
  <g id="Location" class="cls-1">
    <g id="Group_77" data-name="Group 77" transform="translate(-4.402 -4)">
      <path id="Path_69" data-name="Path 69" class="cls-2" d="M105.885,32.76A33.483,33.483,0,0,0,91.152,16.905a39.4,39.4,0,0,0-38.076,0A33.483,33.483,0,0,0,38.343,32.76c-9.21,20.724,0,34.539,4.605,42.214,4.243,7.072,17.61,24.664,26.889,33.346a3.326,3.326,0,0,0,4.554,0c9.279-8.682,22.646-26.274,26.889-33.346C105.885,67.3,115.1,53.484,105.885,32.76ZM72.114,62.34a16.86,16.86,0,1,1,16.86-16.86A16.859,16.859,0,0,1,72.114,62.34Z"/>
      <ellipse id="Ellipse_3" data-name="Ellipse 3" class="cls-2" cx="25.5" cy="8" rx="25.5" ry="8" transform="translate(46.614 115)"/>
    </g>
  </g>
</svg>
