<svg xmlns="http://www.w3.org/2000/svg" width="22.745" height="27.825" viewBox="0 0 22.745 27.825">
    <path id="Path_2152" data-name="Path 2152" d="M54.707,17.583a9.23,9.23,0,0,0-4.185-4.264,11.745,11.745,0,0,0-10.816,0,9.23,9.23,0,0,0-4.185,4.264c-2.616,5.573,0,9.288,1.308,11.352A57.007,57.007,0,0,0,44.468,37.9a.984.984,0,0,0,1.294,0A57.007,57.007,0,0,0,53.4,28.934C54.707,26.87,57.323,23.155,54.707,17.583Zm-9.593,7.954A4.667,4.667,0,0,1,40.325,21,4.8,4.8,0,0,1,49.9,21,4.667,4.667,0,0,1,45.114,25.537Z" transform="translate(-33.742 -11.144)" fill="none" stroke="#5d43f7" stroke-width="1.5"/>
</svg>