<svg width="76" height="91" viewBox="0 0 76 91" fill="none" xmlns="http://www.w3.org/2000/svg">
	<path d="M38 0C24.7266 0 14 10.3842 14 23.234V32.9149H6C2.71094 32.9149 0 35.5393 0 38.7234V85.1915C0 88.3756 2.71094 91 6 91H70C73.2891 91 76 88.3756 76 85.1915V38.7234C76 35.5393 73.2891 32.9149 70 32.9149H62V23.234C62 10.3842 51.2734 0 38 0ZM38 3.87234C49.1328 3.87234 58 12.4565 58 23.234V32.9149H18V23.234C18 12.4565 26.8672 3.87234 38 3.87234ZM6 36.7872H70C71.1094 36.7872 72 37.6494 72 38.7234V85.1915C72 86.2655 71.1094 87.1277 70 87.1277H6C4.89063 87.1277 4 86.2655 4 85.1915V38.7234C4 37.6494 4.89063 36.7872 6 36.7872ZM38 52.2766C34.6016 52.2766 32 54.7951 32 58.0851C32 59.8246 32.7969 61.3524 34 62.3205V67.766C34 69.8988 35.7969 71.6383 38 71.6383C40.2031 71.6383 42 69.8988 42 67.766V62.3205C43.2031 61.3524 44 59.8246 44 58.0851C44 54.7951 41.3984 52.2766 38 52.2766Z" fill="white"/>
	</svg>
	