<svg width="16" height="19" viewBox="0 0 16 19" fill="none" xmlns="http://www.w3.org/2000/svg">
	<path d="M8 0C5.20559 0 2.94737 2.16813 2.94737 4.85106V6.87234H1.26316C0.570724 6.87234 0 7.4203 0 8.08511V17.7872C0 18.452 0.570724 19 1.26316 19H14.7368C15.4293 19 16 18.452 16 17.7872V8.08511C16 7.4203 15.4293 6.87234 14.7368 6.87234H13.0526V4.85106C13.0526 2.16813 10.7944 0 8 0ZM8 0.808511C10.3438 0.808511 12.2105 2.60081 12.2105 4.85106V6.87234H3.78947V4.85106C3.78947 2.60081 5.65625 0.808511 8 0.808511ZM1.26316 7.68085H14.7368C14.9704 7.68085 15.1579 7.86087 15.1579 8.08511V17.7872C15.1579 18.0115 14.9704 18.1915 14.7368 18.1915H1.26316C1.02961 18.1915 0.842105 18.0115 0.842105 17.7872V8.08511C0.842105 7.86087 1.02961 7.68085 1.26316 7.68085ZM8 10.9149C7.28454 10.9149 6.73684 11.4407 6.73684 12.1277C6.73684 12.4909 6.90461 12.8098 7.15789 13.012V14.1489C7.15789 14.5942 7.53618 14.9574 8 14.9574C8.46382 14.9574 8.8421 14.5942 8.8421 14.1489V13.012C9.09539 12.8098 9.26316 12.4909 9.26316 12.1277C9.26316 11.4407 8.71546 10.9149 8 10.9149Z" fill="#363D57"/>
	</svg>
	