<svg xmlns="http://www.w3.org/2000/svg" width="46" height="69" viewBox="0 0 46 69" fill="none">
<path d="M6.55811 67.7501V63.1553H44.7502V67.7501H6.55811Z" stroke="#4B4B4B" stroke-width="2.5"/>
<path d="M13.5483 45.4198C14.6846 44.4681 15.5908 43.2835 16.2124 41.9557L32.5062 58.2903H15.7966L9.51427 47.4731C10.9887 47.1056 12.3697 46.4069 13.5483 45.4198Z" stroke="#4B4B4B" stroke-width="2.5"/>
<path d="M12.9041 37.6651C12.9041 40.8961 10.2923 43.5099 7.07705 43.5099C3.86181 43.5099 1.25 40.8961 1.25 37.6651C1.25 34.4342 3.86181 31.8203 7.07705 31.8203C10.2923 31.8203 12.9041 34.4342 12.9041 37.6651Z" stroke="#4B4B4B" stroke-width="2.5"/>
<path d="M14.4197 30.7312C13.454 29.7049 12.2912 28.8992 11.011 28.3562L21.557 19.3454C22.0003 20.1599 22.5831 20.8957 23.2836 21.5171C23.9656 22.1222 24.7417 22.6034 25.5769 22.9442L16.5083 34.0697C16.0403 32.8386 15.3337 31.7026 14.4197 30.7312Z" stroke="#4B4B4B" stroke-width="2.5"/>
<path d="M31.7329 15.8322C31.7329 17.757 30.1773 19.312 28.2649 19.312C26.3525 19.312 24.7969 17.757 24.7969 15.8322C24.7969 13.9073 26.3525 12.3523 28.2649 12.3523C30.1773 12.3523 31.7329 13.9073 31.7329 15.8322Z" stroke="#4B4B4B" stroke-width="2.5"/>
<path d="M30.9052 6.08733L29.7386 5.63824C29.6343 5.90922 29.5876 6.19897 29.6015 6.48897L29.6014 6.4883L30.9052 6.08733ZM30.9052 6.08733L29.7386 5.63823C29.843 5.36717 30.0028 5.1207 30.2079 4.91472L30.2088 4.9138L33.8658 1.25M30.9052 6.08733L33.8658 1.25M33.8658 1.25H31.2243L26.5869 5.89898V8.85894C27.0933 8.73614 27.6129 8.66647 28.1374 8.65225C28.6662 8.63792 29.1931 8.68013 29.7094 8.77702L29.6015 6.48921L33.8658 1.25ZM36.0713 0.33483L36.0711 0.335217L36.0713 0.33483ZM35.1738 0.157323L35.1738 0.15734C35.1738 0.157334 35.1738 0.157329 35.1738 0.157323Z" stroke="#4B4B4B" stroke-width="2.5"/>
<path d="M44.0688 8.34985L44.0688 8.34983M44.0688 8.34985L44.0688 8.35005M44.0688 8.34985L44.0688 8.34983M44.0688 8.34985L44.0688 8.34983M44.0688 8.34983L44.069 8.35005H44.0688M44.0688 8.35005H44.0685H44.0688ZM37.9281 14.8337L37.9282 14.8338C38.219 14.8476 38.5095 14.8003 38.7808 14.6949C39.0519 14.5897 39.2978 14.429 39.5029 14.2233C39.503 14.2232 39.5031 14.2231 39.5032 14.2229C39.5033 14.2228 39.5034 14.2227 39.5035 14.2226L43.1535 10.5635V13.2148L38.5157 17.8643H35.5663C35.6896 17.3551 35.7595 16.8325 35.7736 16.305C35.7879 15.7736 35.7455 15.2441 35.6481 14.7253L37.9281 14.8337ZM44.0685 8.35005H44.0684H43.5959H44.0685ZM44.0698 8.35086L44.4035 8.68489L44.0698 8.35086ZM38.3939 17.9864C38.3941 17.9862 38.3943 17.986 38.3945 17.9858L38.3939 17.9864Z" stroke="#4B4B4B" stroke-width="2.5"/>
</svg>