<svg xmlns="http://www.w3.org/2000/svg" width="20.062" height="31.779" viewBox="0 0 20.062 31.779">
    <g id="machine" transform="translate(0.5 0.5)">
        <path id="Union_396" data-name="Union 396" d="M3.616,30.779A1.418,1.418,0,0,1,2.2,29.363v-.33a1.418,1.418,0,0,1,1.418-1.417H17.645a1.417,1.417,0,0,1,1.417,1.417v.33a1.417,1.417,0,0,1-1.417,1.417ZM6.248,26.56,3.112,20.749A3.752,3.752,0,0,0,6.5,17.692l8.217,8.868ZM0,16.8a3.055,3.055,0,0,1,2.932-3.165A3.056,3.056,0,0,1,5.865,16.8a3.055,3.055,0,0,1-2.933,3.164A3.054,3.054,0,0,1,0,16.8Zm3.5-3.9L9.142,7.7a2.89,2.89,0,0,0,2.312,2.207l.032.034L6.581,16.426A3.839,3.839,0,0,0,3.5,12.9ZM9.758,7.063a2.037,2.037,0,0,1,1.955-2.11,2.037,2.037,0,0,1,1.956,2.11,2.038,2.038,0,0,1-1.956,2.111A2.038,2.038,0,0,1,9.758,7.063Zm4.228,1.463a2.967,2.967,0,0,0,.064-2.552l1.692.087A.333.333,0,0,0,16,5.952L18.164,3.62a.138.138,0,0,1,.237.106V5.971a.387.387,0,0,1-.1.265L16.277,8.417a.334.334,0,0,1-.245.11ZM10.5,2.556a.391.391,0,0,1,.1-.265L12.623.11A.334.334,0,0,1,12.867,0h2.081a.152.152,0,0,1,.1.256L12.885,2.587a.387.387,0,0,0-.1.283L12.864,4.7a2.4,2.4,0,0,0-2.364.068Z" fill="none" stroke="#5d43f7" stroke-width="1"/>
    </g>
</svg>