<svg xmlns="http://www.w3.org/2000/svg" xmlns:xlink="http://www.w3.org/1999/xlink" width="134" height="134" viewBox="0 0 134 134">
  <defs>
    <style>
      .cls-1 {
        clip-path: url(#clip-Maintenance);
      }

      .cls-2 {
        fill: #fff;
      }
    </style>
    <clipPath id="clip-Maintenance">
      <rect width="134" height="134"/>
    </clipPath>
  </defs>
  <g id="Maintenance" class="cls-1">
    <g id="Group_26" data-name="Group 26" transform="translate(-4.085 -4.126)">
      <g id="Group_24" data-name="Group 24">
        <path id="Path_19" data-name="Path 19" class="cls-2" d="M131.337,87.857c-.169-.333-.39-.722-.678-1.174a43.74,43.74,0,0,0-5.537-5.954,54.957,54.957,0,0,0-.16-19.537,40.378,40.378,0,0,0,5.128-5.59c.288-.453.508-.842.677-1.175a2.882,2.882,0,0,0-.111-2.791l-6.84-11.372L123.6,39.9l-6.841-11.372a2.881,2.881,0,0,0-2.414-1.406c-.373-.007-.82.005-1.355.047a37.971,37.971,0,0,0-6.933,1.774A55.259,55.259,0,0,0,89.1,19.254a42.337,42.337,0,0,0-2.216-7.6c-.24-.48-.46-.869-.658-1.185a2.882,2.882,0,0,0-2.449-1.344H56.8a2.88,2.88,0,0,0-2.449,1.344c-.2.316-.418.7-.658,1.185a43.7,43.7,0,0,0-2.263,7.819A55.275,55.275,0,0,0,35.269,28.8a35.94,35.94,0,0,0-6.545-1.634c-.535-.041-.982-.052-1.355-.044a2.882,2.882,0,0,0-2.412,1.409L18.136,39.916l-.22.367L11.094,51.666a2.881,2.881,0,0,0-.1,2.792c.169.332.389.721.678,1.174a36.42,36.42,0,0,0,4.616,5.086A55.1,55.1,0,0,0,16.122,81.2a39.612,39.612,0,0,0-5.052,5.517c-.288.453-.508.842-.676,1.175a2.879,2.879,0,0,0,.11,2.791l6.84,11.372.221.367,6.841,11.372A2.881,2.881,0,0,0,26.82,115.2c.373.007.82,0,1.355-.047a35.749,35.749,0,0,0,6.515-1.636,55.268,55.268,0,0,0,17,9.922,36.835,36.835,0,0,0,2.006,6.642c.24.48.46.869.658,1.185a2.88,2.88,0,0,0,2.449,1.344h26.97a2.883,2.883,0,0,0,2.449-1.344c.2-.316.418-.7.658-1.185a35.732,35.732,0,0,0,1.957-6.428,55.249,55.249,0,0,0,17.792-10.275,38.325,38.325,0,0,0,6.971,1.774c.535.04.982.052,1.355.044a2.883,2.883,0,0,0,2.412-1.41l6.821-11.383.22-.367,6.822-11.384A2.879,2.879,0,0,0,131.337,87.857ZM93.192,105.339a40.679,40.679,0,0,1-41.552,2.152c-1.127-.594-2.235-1.219-3.3-1.912A40.736,40.736,0,0,1,29.852,73.295c-.029-.626-.048-1.254-.048-1.887,0-.809.03-1.61.076-2.406A40.749,40.749,0,0,1,49.005,36.811c1.028-.642,2.1-1.222,3.182-1.773a40.757,40.757,0,0,1,59.094,33.978c.046.792.075,1.588.075,2.392,0,.664-.019,1.324-.05,1.98A40.737,40.737,0,0,1,93.192,105.339Z"/>
      </g>
      <g id="Group_25" data-name="Group 25">
        <path id="Path_20" data-name="Path 20" class="cls-2" d="M94.8,68.4A23.906,23.906,0,0,0,80.652,46.576,2.311,2.311,0,0,0,77.414,48.7V66.052a1.215,1.215,0,0,1-.522,1l-4.935,3.431a1.183,1.183,0,0,1-1.349,0l-4.991-3.445a1.174,1.174,0,0,1-.506-.966V48.429a2.355,2.355,0,0,0-3.229-2.188A23.913,23.913,0,0,0,59.393,89.4l-.266-.019V99.442l.078.017a1.006,1.006,0,0,0-.048.275c0,1.848,5.242,3.346,11.709,3.346s11.71-1.5,11.71-3.346a1.007,1.007,0,0,0-.049-.275l.078-.017V89.38l-.266.019A23.921,23.921,0,0,0,94.8,68.4Z"/>
      </g>
    </g>
  </g>
</svg>
