<svg xmlns="http://www.w3.org/2000/svg" xmlns:xlink="http://www.w3.org/1999/xlink" width="134" height="134" viewBox="0 0 134 134">
  <defs>
    <style>
      .cls-1 {
        clip-path: url(#clip-Maintenance_checklist);
      }

      .cls-2 {
        fill: #fff;
      }
    </style>
    <clipPath id="clip-Maintenance_checklist">
      <rect width="134" height="134"/>
    </clipPath>
  </defs>
  <g id="Maintenance_checklist" data-name="Maintenance checklist" class="cls-1">
    <path id="Path_77" data-name="Path 77" class="cls-2" d="M113.686,17.8h-85.5a2.251,2.251,0,0,0-2.251,2.251V124.409l7.17-7.192-.007-.011,5.759-5.758.134.134a19.353,19.353,0,0,1,26.13-23.247,1.907,1.907,0,0,1,.6,3.1l-10.1,10.1a.951.951,0,0,0-.263.843l.885,4.828a.959.959,0,0,0,.773.771l4.788.861a.984.984,0,0,0,.87-.273l9.932-9.932a1.87,1.87,0,0,1,3.067.639,19.356,19.356,0,0,1-23.513,25.48l.134.134L46.586,130.8h67.1a2.251,2.251,0,0,0,2.251-2.251V20.054A2.251,2.251,0,0,0,113.686,17.8ZM60.308,64.219,47.051,77.475l-3.833,3.833a.808.808,0,0,1-1.145,0L38.24,77.475l-5.961-5.96a.811.811,0,0,1,0-1.146l3.261-3.26a.808.808,0,0,1,1.145,0l5.731,5.731a.324.324,0,0,0,.459,0L55.9,59.813a.81.81,0,0,1,1.145,0l3.261,3.26A.811.811,0,0,1,60.308,64.219Zm1-30L48.051,47.475l-3.833,3.833a.808.808,0,0,1-1.145,0L39.24,47.475l-5.961-5.96a.811.811,0,0,1,0-1.146l3.261-3.26a.808.808,0,0,1,1.145,0l5.731,5.731a.324.324,0,0,0,.459,0L56.9,29.813a.81.81,0,0,1,1.145,0l3.261,3.26A.811.811,0,0,1,61.308,34.219Zm41.96,38.063a.779.779,0,0,1-.779.779H68.935a.778.778,0,0,1-.778-.779V68.839a.778.778,0,0,1,.778-.778h33.554a.778.778,0,0,1,.779.778Zm0-30a.779.779,0,0,1-.779.779H68.935a.778.778,0,0,1-.778-.779V38.839a.778.778,0,0,1,.778-.778h33.554a.778.778,0,0,1,.779.778Z" transform="translate(-3.937 -6.803)"/>
  </g>
</svg>
