<svg width="39" height="51" viewBox="0 0 39 51" fill="none" xmlns="http://www.w3.org/2000/svg">
    <g filter="url(#filter0_d_2974_33057)">
        <path fill-rule="evenodd" clip-rule="evenodd" d="M19.5959 10.5073C23.0078 10.5073 25.7494 13.0461 25.7494 16.4223C25.7494 19.6633 23.0078 22.365 19.5959 22.365C16.1577 22.365 13.4144 19.6633 13.4144 16.4223C13.4144 13.0461 16.1577 10.5073 19.5959 10.5073ZM35 14.9097C35 6.61713 28.1549 0 19.5959 0C11.0258 0 4 6.61713 4 14.9097C4 15.2608 4 15.7748 4.17734 16.0981H4C4 24.2287 19.5959 43 19.5959 43C19.5959 43 35 24.2287 35 16.0981V14.9097Z" fill="#DA2D08"/>
    </g>
    <defs>
        <filter id="filter0_d_2974_33057" x="0" y="0" width="39" height="51" filterUnits="userSpaceOnUse" color-interpolation-filters="sRGB">
            <feFlood flood-opacity="0" result="BackgroundImageFix"/>
            <feColorMatrix in="SourceAlpha" type="matrix" values="0 0 0 0 0 0 0 0 0 0 0 0 0 0 0 0 0 0 127 0" result="hardAlpha"/>
            <feOffset dy="4"/>
            <feGaussianBlur stdDeviation="2"/>
            <feComposite in2="hardAlpha" operator="out"/>
            <feColorMatrix type="matrix" values="0 0 0 0 0 0 0 0 0 0 0 0 0 0 0 0 0 0 0.25 0"/>
            <feBlend mode="normal" in2="BackgroundImageFix" result="effect1_dropShadow_2974_33057"/>
            <feBlend mode="normal" in="SourceGraphic" in2="effect1_dropShadow_2974_33057" result="shape"/>
        </filter>
    </defs>
</svg>
