<svg width="20" height="20" viewBox="0 0 17 17" fill="none" xmlns="http://www.w3.org/2000/svg">
    <path d="M12.0173 10.6087C11.8471 10.4382 11.616 10.3424 11.3751 10.3424H11.1185C11.0485 10.3424 10.9812 10.3153 10.9308 10.2668C10.8273 10.1672 10.8201 10.0046 10.909 9.89182C11.8306 8.72244 12.2953 7.25376 12.2101 5.76143C12.1199 4.18378 11.422 2.70241 10.2629 1.62834C9.10384 0.554269 7.57369 -0.0289578 5.99375 0.0011072C4.41381 0.0311722 2.90697 0.672191 1.78958 1.78958C0.67219 2.90697 0.0311722 4.41381 0.0011072 5.99375C-0.0289578 7.57369 0.554269 9.10384 1.62834 10.2629C2.70241 11.422 4.18377 12.1199 5.76143 12.21C7.25376 12.2953 8.72244 11.8306 9.89182 10.909C10.0046 10.8201 10.1672 10.8273 10.2668 10.9308C10.3153 10.9812 10.3424 11.0485 10.3424 11.1185V11.3745C10.3424 11.6152 10.4382 11.8459 10.6085 12.0159L14.3348 15.7343C14.7219 16.1205 15.3486 16.1202 15.7353 15.7335C16.1221 15.3468 16.1223 14.7198 15.7358 14.3328L12.0173 10.6087ZM6.12042 10.3424C5.28495 10.3426 4.46818 10.095 3.77342 9.63103C3.07865 9.16701 2.53709 8.50738 2.21724 7.73556C1.89738 6.96375 1.81359 6.11441 1.97646 5.29497C2.13933 4.47553 2.54155 3.72279 3.13224 3.13195C3.72294 2.54111 4.47558 2.13872 5.29499 1.97565C6.11439 1.81259 6.96375 1.89618 7.73564 2.21585C8.50753 2.53553 9.16729 3.07693 9.63147 3.77158C10.0957 4.46624 10.3434 5.28295 10.3434 6.11842C10.3442 6.67334 10.2355 7.22297 10.0235 7.73581C9.8115 8.24864 9.50039 8.71461 9.108 9.107C8.71561 9.49939 8.24964 9.8105 7.73681 10.0225C7.22397 10.2345 6.67434 10.3432 6.11942 10.3424H6.12042Z" fill="#9D9D9D"></path>
</svg>