<svg xmlns="http://www.w3.org/2000/svg" width="11.608" height="8.856" viewBox="0 0 11.608 8.856"><defs><style>.a{fill:none;stroke:#4b4b4b;stroke-width:0.6px;}</style></defs><g transform="translate(-392.554 220.591) rotate(-90)"><path class="a" d="M5.5,3.1V.688a.688.688,0,1,1,1.376,0V3.1Zm2.408.344H.344A.344.344,0,0,0,0,3.784v.688a.344.344,0,0,0,.344.344H.688V5.5A3.441,3.441,0,0,0,3.44,8.875v2.133H4.816V8.875A3.441,3.441,0,0,0,7.568,5.5V4.816h.344a.344.344,0,0,0,.344-.344V3.784A.344.344,0,0,0,7.912,3.44ZM2.752,3.1V.688a.688.688,0,1,0-1.376,0V3.1Z" transform="translate(212.035 392.854)"/></g></svg>