<svg width="23" height="9" viewBox="0 0 23 9" fill="none" xmlns="http://www.w3.org/2000/svg">
<g clip-path="url(#clip0_16107_3137)">
<path d="M13.0414 3.12531H10.6348C10.4524 3.12531 10.2776 3.05288 10.1486 2.92395C10.0197 2.79503 9.94727 2.62017 9.94727 2.43784C9.94727 2.25552 10.0197 2.08066 10.1486 1.95173C10.2776 1.82281 10.4524 1.75038 10.6348 1.75038H13.0411L13.0414 3.12531ZM13.3851 0.719189V8.28127C13.3851 8.37243 13.4214 8.45986 13.4858 8.52432C13.5503 8.58879 13.6377 8.625 13.7289 8.625H14.4164C14.5076 8.625 14.595 8.58879 14.6595 8.52432C14.724 8.45986 14.7602 8.37243 14.7602 8.28127V7.93754H15.4475C16.2399 7.93746 17.0079 7.66376 17.6218 7.1627C18.2356 6.66164 18.6576 5.96398 18.8163 5.18769L20.9476 5.18769V3.81277H18.8166C18.6579 3.03639 18.2359 2.33864 17.622 1.83753C17.0081 1.33642 16.2399 1.0627 15.4475 1.06267H14.7599V0.718939C14.7599 0.627862 14.7237 0.540535 14.6592 0.476134C14.5948 0.411734 14.5075 0.375524 14.4164 0.375458H13.7289C13.6378 0.375458 13.5504 0.411603 13.486 0.475957C13.4215 0.540311 13.3853 0.627612 13.3851 0.718688V0.719189ZM13.0414 5.87515H10.6348C10.4524 5.87515 10.2776 5.94758 10.1486 6.07651C10.0197 6.20543 9.94727 6.38029 9.94727 6.56261C9.94727 6.74494 10.0197 6.9198 10.1486 7.04872C10.2776 7.17765 10.4524 7.25008 10.6348 7.25008H13.0411L13.0414 5.87515Z" fill="#3491FF"/>
<path d="M8.4375 8.28131V0.718731C8.4375 0.627568 8.40128 0.540138 8.33681 0.475676C8.27235 0.411214 8.18491 0.375 8.09374 0.375L7.40621 0.375C7.31504 0.375 7.22761 0.411214 7.16314 0.475676C7.09867 0.540138 7.06245 0.627568 7.06245 0.718731V1.06246H6.37493C5.58252 1.06254 4.81444 1.33624 4.20059 1.8373C3.58674 2.33836 3.16478 3.03602 3.00607 3.81231H0.874493V5.18723L3.00582 5.18723C3.16453 5.96352 3.58649 6.66118 4.20034 7.16224C4.81419 7.6633 5.58227 7.93701 6.37468 7.93708H7.06245V8.28081C7.06245 8.37197 7.09867 8.4594 7.16314 8.52387C7.22761 8.58833 7.31504 8.62454 7.40621 8.62454H8.09374C8.18482 8.62454 8.27218 8.5884 8.33664 8.52404C8.40109 8.45969 8.43737 8.37239 8.4375 8.28131V8.28131Z" fill="#3491FF"/>
</g>
<defs>
<clipPath id="clip0_16107_3137">
<rect width="22" height="9" fill="white" transform="translate(0.5)"/>
</clipPath>
</defs>
</svg>
