<svg xmlns="http://www.w3.org/2000/svg" width="15.383" height="19.878" viewBox="0 0 15.383 19.878">
    <path id="Icon_material-lock" data-name="Icon material-lock" d="M18.585,7.793h-.9v-1.8a4.495,4.495,0,1,0-8.989,0v1.8H7.8A1.8,1.8,0,0,0,6,9.59V18.58a1.8,1.8,0,0,0,1.8,1.8H18.585a1.8,1.8,0,0,0,1.8-1.8V9.59A1.8,1.8,0,0,0,18.585,7.793Zm-5.394,8.09a1.8,1.8,0,1,1,1.8-1.8A1.8,1.8,0,0,1,13.191,15.883Zm2.787-8.09H10.4v-1.8a2.787,2.787,0,1,1,5.573,0Z" transform="translate(-5.5 -1)" fill="none" stroke="#363d57" stroke-width="1" />
</svg>