<?xml version="1.0"?>
<svg xmlns="http://www.w3.org/2000/svg" xmlns:xlink="http://www.w3.org/1999/xlink" version="1.1" id="Layer_1" x="0px" y="0px" viewBox="0 0 512 512" style="enable-background:new 0 0 512 512;" xml:space="preserve" width="512px" height="512px"><g><g>
	<g>
		<g>
			<path d="M96.061,0v512h319.879V0H96.061z M400.251,496.312h-39.143c16.08-9.575,29.567-23.063,39.143-39.143V496.312z      M311.873,495.995v-88.061h88.06C396.14,454.753,358.691,492.202,311.873,495.995z M400.252,56.035h-0.001h-8.167v15.688h8.167     v320.523H296.186v104.066H111.748V71.723h8.166V56.035h-8.166V15.688h288.503V56.035z" data-original="#000000" class="active-path" data-old_color="#000000" fill="#4A555F"/>
			<rect x="135.919" y="56.037" width="16.01" height="15.688" data-original="#000000" class="active-path" data-old_color="#000000" fill="#4A555F"/>
			<rect x="167.943" y="56.037" width="16.01" height="15.688" data-original="#000000" class="active-path" data-old_color="#000000" fill="#4A555F"/>
			<rect x="199.968" y="56.037" width="16.01" height="15.688" data-original="#000000" class="active-path" data-old_color="#000000" fill="#4A555F"/>
			<rect x="231.981" y="56.037" width="16.01" height="15.688" data-original="#000000" class="active-path" data-old_color="#000000" fill="#4A555F"/>
			<rect x="264.006" y="56.037" width="16.01" height="15.688" data-original="#000000" class="active-path" data-old_color="#000000" fill="#4A555F"/>
			<rect x="296.03" y="56.037" width="16.01" height="15.688" data-original="#000000" class="active-path" data-old_color="#000000" fill="#4A555F"/>
			<rect x="328.043" y="56.037" width="16.01" height="15.688" data-original="#000000" class="active-path" data-old_color="#000000" fill="#4A555F"/>
			<rect x="360.068" y="56.037" width="16.01" height="15.688" data-original="#000000" class="active-path" data-old_color="#000000" fill="#4A555F"/>
			<rect x="135.919" y="120.075" width="240.15" height="15.688" data-original="#000000" class="active-path" data-old_color="#000000" fill="#4A555F"/>
			<rect x="135.919" y="160.1" width="240.15" height="15.688" data-original="#000000" class="active-path" data-old_color="#000000" fill="#4A555F"/>
			<rect x="135.919" y="200.125" width="240.15" height="15.688" data-original="#000000" class="active-path" data-old_color="#000000" fill="#4A555F"/>
			<rect x="135.919" y="240.15" width="240.15" height="15.688" data-original="#000000" class="active-path" data-old_color="#000000" fill="#4A555F"/>
			<rect x="135.919" y="280.175" width="240.15" height="15.688" data-original="#000000" class="active-path" data-old_color="#000000" fill="#4A555F"/>
			<rect x="135.919" y="320.2" width="240.15" height="15.688" data-original="#000000" class="active-path" data-old_color="#000000" fill="#4A555F"/>
			<rect x="135.919" y="360.225" width="240.15" height="15.688" data-original="#000000" class="active-path" data-old_color="#000000" fill="#4A555F"/>
			<rect x="135.919" y="400.25" width="152.099" height="15.688" data-original="#000000" class="active-path" data-old_color="#000000" fill="#4A555F"/>
			<rect x="135.919" y="440.275" width="152.099" height="15.688" data-original="#000000" class="active-path" data-old_color="#000000" fill="#4A555F"/>
		</g>
	</g>
</g></g> </svg>
