<svg width="12" height="12" viewBox="0 0 12 12" fill="none" xmlns="http://www.w3.org/2000/svg">
    <path d="M0.288 12C0.211618 12 0.138362 11.9697 0.0843516 11.9156C0.0303411 11.8616 0 11.7884 0 11.712V0.288C0 0.211618 0.0303411 0.138362 0.0843516 0.0843516C0.138362 0.0303411 0.211618 0 0.288 0H11.712C11.7884 0 11.8616 0.0303411 11.9156 0.0843516C11.9697 0.138362 12 0.211618 12 0.288V7.79587L11.983 7.81286H8.07197C8.01086 7.81286 7.95226 7.83714 7.90905 7.88035C7.86585 7.92356 7.84158 7.98216 7.84158 8.04326V11.9541L7.79616 11.9995L0.288 12ZM8.05305 8.24496C8.05305 8.18699 8.07609 8.13139 8.11709 8.09039C8.15808 8.0494 8.21368 8.02637 8.27166 8.02637H11.7696L8.05315 11.7429L8.05305 8.24496Z" fill="#3491FF"/>
    <path d="M7.6704 11.4014L7.62921 11.4426H7.6704V11.4014Z" fill="white"/>
    <path d="M11.4425 7.64485V7.62939L11.4271 7.64485H11.4425Z" fill="white"/>
</svg>
