<svg xmlns="http://www.w3.org/2000/svg" width="11.031" height="16.166" viewBox="0 0 11.031 16.166">
  <path id="Icon_metro-pin" data-name="Icon metro-pin" d="M13.8,15.427l5.425-3.115a1.4,1.4,0,0,1,1.9.506,1.381,1.381,0,0,1-.509,1.891L15.2,17.824a1.4,1.4,0,0,1-1.9-.507,1.378,1.378,0,0,1,.509-1.891Zm4.474-3.369-4.219,2.423-1.435-3.972,2.914-1.673,2.741,3.222Zm3.111,10.2-4.036-4.876,1.808-1.038,2.228,5.915ZM10.879,8.312l3.616-2.077a1.047,1.047,0,0,1,1.426.38,1.035,1.035,0,0,1-.382,1.418l-3.617,2.077a1.047,1.047,0,0,1-1.426-.38A1.035,1.035,0,0,1,10.879,8.312Z" transform="translate(-10.356 -6.096)" fill="#3491ff"/>
</svg>
