<svg width="58" height="67" viewBox="0 0 58 67" fill="none" xmlns="http://www.w3.org/2000/svg">
<path d="M12.2563 4.30005H40.3943" stroke="#4B4B4B" stroke-width="3" stroke-linecap="round"/>
<path d="M12.1279 56.3909H53.3607" stroke="#4B4B4B" stroke-width="3" stroke-linecap="round"/>
<path d="M2 64.8481H42.4977" stroke="#4B4B4B" stroke-width="3" stroke-linecap="round"/>
<path d="M42.5122 64.3625L42.5122 59.7886" stroke="#4B4B4B" stroke-width="3" stroke-linecap="round"/>
<path d="M2 12.0886H7.22742" stroke="#4B4B4B" stroke-width="3" stroke-linecap="round"/>
<path d="M53.4253 56.1282L53.4253 17.3157" stroke="#4B4B4B" stroke-width="3" stroke-linecap="round"/>
<path d="M11.9927 4.3938L11.9927 56.1949" stroke="#4B4B4B" stroke-width="3" stroke-linecap="round"/>
<path d="M2 12.3989L2 64.8482" stroke="#4B4B4B" stroke-width="3" stroke-linecap="round"/>
<path d="M39 4.93546C39 3.13878 41.185 2.25333 42.4358 3.54317L48.5 9.79688L54.4527 15.5635C55.7435 16.814 54.8582 19 53.0611 19H41C39.8954 19 39 18.1046 39 17V4.93546Z" fill="#4B4B4B"/>
<line x1="20.3306" y1="17.0549" x2="33.1089" y2="17.0549" stroke="#4B4B4B" stroke-width="3" stroke-linecap="round"/>
<path d="M19.8823 24.3242H45.1276" stroke="#4B4B4B" stroke-width="3" stroke-linecap="round"/>
<path d="M19.8823 30.6184H45.1276" stroke="#4B4B4B" stroke-width="3" stroke-linecap="round"/>
<path d="M19.8823 36.9124H45.1276" stroke="#4B4B4B" stroke-width="3" stroke-linecap="round"/>
<path d="M19.8823 44.2554H45.1276" stroke="#4B4B4B" stroke-width="3" stroke-linecap="round"/>
</svg>
