<svg width="15" height="15" viewBox="0 0 15 15" fill="none" xmlns="http://www.w3.org/2000/svg">
    <path d="M0 7.5C0.00216569 5.51154 0.793043 3.60515 2.1991 2.1991C3.60515 0.793043 5.51154 0.00216569 7.5 0C9.48846 0.00216569 11.3948 0.793043 12.8009 2.1991C14.207 3.60515 14.9978 5.51154 15 7.5C14.9978 9.48846 14.207 11.3948 12.8009 12.8009C11.3948 14.207 9.48846 14.9978 7.5 15C5.51154 14.9978 3.60515 14.207 2.1991 12.8009C0.793043 11.3948 0.00216569 9.48846 0 7.5ZM0.938166 7.5C0.940331 9.23964 1.63233 10.9075 2.86244 12.1376C4.09255 13.3677 5.76036 14.0597 7.5 14.0618C9.23975 14.06 10.9077 13.3681 12.1379 12.1379C13.3681 10.9077 14.06 9.23975 14.0618 7.5C14.0597 5.76036 13.3677 4.09255 12.1376 2.86244C10.9075 1.63233 9.23964 0.940331 7.5 0.938166C5.76036 0.940331 4.09255 1.63233 2.86244 2.86244C1.63233 4.09255 0.940331 5.76036 0.938166 7.5ZM6.01768 10.834V9.67496H6.78273V6.96134H6.01768V5.80095H8.38906V9.67363H9.1378V10.8327L6.01768 10.834ZM6.98448 4.97048C6.90098 4.89091 6.83486 4.79494 6.79005 4.68867C6.74524 4.58239 6.72281 4.46808 6.72413 4.35275C6.72262 4.23704 6.74458 4.12224 6.78889 4.01534C6.83319 3.90843 6.89889 3.81158 6.98181 3.73086C7.06181 3.64727 7.15819 3.58118 7.26496 3.5366C7.37173 3.49201 7.48652 3.46997 7.60221 3.47185C7.71837 3.46943 7.83383 3.49116 7.94112 3.53577C8.04841 3.58037 8.14522 3.64679 8.22543 3.73086C8.30773 3.8119 8.37287 3.9088 8.41669 4.01567C8.46052 4.12254 8.48215 4.23725 8.48045 4.35275C8.48214 4.46809 8.46019 4.58251 8.41586 4.689C8.37153 4.79549 8.30581 4.89175 8.22277 4.97181C8.14214 5.05439 8.04545 5.11967 7.93879 5.16374C7.83212 5.20781 7.71761 5.22974 7.60221 5.22816C7.48744 5.22988 7.37364 5.20834 7.26746 5.16474C7.16128 5.12114 7.06492 5.05635 6.98448 4.97448V4.97048Z" fill="#8B8B8B"/>
    </svg>
    