<svg width="7" height="13" viewBox="0 0 7 13" fill="none" xmlns="http://www.w3.org/2000/svg">
    <path d="M4.89162 6.90066L0.26962 11.5187C0.10967 11.6833 0.0209899 11.9043 0.0227799 12.1338C0.02458 12.3634 0.1167 12.5829 0.2792 12.7451C0.44171 12.9072 0.66152 12.9988 0.89106 13C1.12059 13.0012 1.34138 12.912 1.50562 12.7517L6.74762 7.51966C6.90487 7.361 6.99516 7.14799 6.99981 6.92465C7.00446 6.70131 6.92313 6.48473 6.77262 6.31966L1.51462 1.0507C1.35038 0.8903 1.12959 0.801101 0.90006 0.8023C0.67052 0.8036 0.45071 0.8951 0.2882 1.0573C0.1257 1.2194 0.0335798 1.439 0.0317798 1.6685C0.0299897 1.898 0.11867 2.119 0.27862 2.2837L4.89162 6.90066Z" fill="white"/>
</svg>
