<?xml version="1.0" encoding="utf-8"?>
<!-- Generator: Adobe Illustrator 24.2.0, SVG Export Plug-In . SVG Version: 6.00 Build 0)  -->
<svg version="1.1" id="Layer_1" xmlns="http://www.w3.org/2000/svg" xmlns:xlink="http://www.w3.org/1999/xlink" x="0px" y="0px"
	 viewBox="0 0 512 512" style="enable-background:new 0 0 512 512;" xml:space="preserve">
<style type="text/css">
	.st0{fill:#C8C9FB;}
	.st1{fill:#D6E2FA;}
	.st2{fill:#878787;}
</style>
<g>
	<g>
		<g>
			<path class="st0" d="M259.5,164l-123,47.7l123,47.7l123-47.7L259.5,164z"/>
			<path class="st0" d="M136.5,211.7v150.9l123,47.7V259.4L136.5,211.7z"/>
			<path class="st0" d="M259.5,410.3V259.4l123-47.7v150.9L259.5,410.3z"/>
			<path class="st0" d="M303.8,242.9v51.6l22.8-24.1l14.8,9.6v-51.6L303.8,242.9z"/>
			<path class="st0" d="M303.8,242.9l-123.4-48.2l36.6-14.2l124.3,47.9L303.8,242.9z"/>
			<circle class="st0" cx="259.5" cy="158.8" r="57.1"/>
			<path class="st1" d="M251.5,181.1c-1.7,0-3.3-0.6-4.5-1.7l-18.1-15.3c-3-2.5-3.3-6.9-0.8-9.9s6.9-3.3,9.9-0.8l0,0l13.4,11.3
				l29.4-26.4c2.8-2.7,7.2-2.6,9.9,0.2c2.7,2.8,2.6,7.2-0.2,9.9c-0.1,0.1-0.2,0.2-0.4,0.3l-34,30.5
				C254.9,180.5,253.2,181.1,251.5,181.1L251.5,181.1z"/>
		</g>
		<g>
			<path class="st2" d="M385,205.2l-48.9-19c-3.6-1.4-7.7,0.4-9.1,4s0.4,7.7,4,9.1l32.1,12.4l-22.7,8.8L302.8,206
				c26.1-23.9,27.9-64.4,4.1-90.5c-12.2-13.3-29.3-20.9-47.4-20.8c-3.6,0-7.2,0.3-10.7,0.9c-3.8,0.7-6.3,4.4-5.6,8.2
				c0.7,3.7,4.2,6.2,7.9,5.6c2.8-0.5,5.6-0.7,8.4-0.7c27.7,0,50.1,22.5,50.1,50.1c0,27.7-22.5,50.1-50.1,50.1s-50.1-22.5-50.1-50.1
				c0-8.6,2.2-17,6.4-24.5c1.9-3.4,0.7-7.6-2.6-9.5c-3.4-1.9-7.6-0.7-9.5,2.6c0,0,0,0,0,0c-9,16-10.7,35.1-4.6,52.5l-65.1,25.2
				c-3.6,1.4-5.4,5.4-4,9.1c0.7,1.8,2.2,3.3,4,4l118.5,46v135.9l-109-42.3V237.5c0-3.9-3.1-7-7-7s-7,3.1-7,7v125.1
				c0,2.9,1.8,5.5,4.5,6.5l123,47.7c0.8,0.3,1.7,0.5,2.5,0.5c0.8,0,1.7-0.2,2.5-0.5c0,0,0.1,0,0.1,0l44.3-17.2
				c3.6-1.3,5.5-5.4,4.1-9c-1.3-3.6-5.4-5.5-9-4.1c-0.1,0-0.1,0-0.2,0.1L266.5,400V264.2l30.3-11.8v42.1c0,3.9,3.1,7,7,7
				c1.9,0,3.8-0.8,5.1-2.2l18.7-19.9l9.9,6.4c3.2,2.1,7.6,1.2,9.7-2.1c0.7-1.1,1.1-2.4,1.1-3.8v-26.4c0-3.9-3.1-7-7-7s-7,3.1-7,7
				V267l-3.9-2.6c-2.8-1.8-6.6-1.4-8.9,1.1l-10.6,11.3V247l64.7-25.1v135.9l-25.6,9.9c-3.6,1.4-5.4,5.4-4,9.1c1.4,3.6,5.4,5.4,9.1,4
				l30.1-11.7c2.7-1,4.5-3.6,4.5-6.5V211.7C389.5,208.8,387.7,206.2,385,205.2L385,205.2z M209.1,198.4l-9.4-3.7l5.4-2.1
				C206.3,194.6,207.6,196.5,209.1,198.4L209.1,198.4z M180.4,202.2l91.7,35.8c3.5,1.6,7.7,0,9.2-3.5c1.6-3.5,0-7.7-3.5-9.2
				c-0.2-0.1-0.4-0.2-0.6-0.2l-7.4-2.9c6.7-1.1,13.2-3.2,19.2-6.4l32,12.3l-61.5,23.8l-103.6-40.2L180.4,202.2z"/>
			<path class="st2" d="M327.5,376.4l-4.7,1.8c-3.6,1.4-5.4,5.5-4,9.1s5.5,5.4,9.1,4l0,0l4.7-1.8c3.6-1.4,5.4-5.5,4-9.1
				S331.1,375,327.5,376.4z"/>
			<path class="st2" d="M225.6,119.9c1.5,0,3-0.5,4.2-1.4c0.7-0.5,1.4-1,2.1-1.5c3.2-2.1,4.2-6.4,2-9.7c-2.1-3.2-6.4-4.2-9.7-2
				c0,0-0.1,0-0.1,0.1c-0.9,0.6-1.8,1.3-2.7,1.9c-3.1,2.3-3.8,6.7-1.5,9.8C221.3,118.8,223.4,119.9,225.6,119.9z"/>
			<path class="st2" d="M228.1,154.3c-2.5,3-2.1,7.4,0.8,9.9l18.1,15.3c2.7,2.3,6.6,2.2,9.2-0.1l33.9-30.5c3-2.5,3.3-6.9,0.9-9.9
				c-2.5-3-6.9-3.3-9.9-0.9c-0.1,0.1-0.2,0.2-0.4,0.3l-29.4,26.4L238,153.5C235.1,151,230.6,151.4,228.1,154.3
				C228.1,154.3,228.1,154.3,228.1,154.3L228.1,154.3z"/>
		</g>
	</g>
</g>
</svg>
