<svg width="19" height="15" viewBox="0 0 19 15" fill="none" xmlns="http://www.w3.org/2000/svg">
    <path d="M12.5531 7.50095C12.5531 6.58798 11.7999 5.84101 10.8792 5.84101C9.95859 5.84101 9.20535 6.58798 9.20535 7.50095C9.20535 8.41391 9.95859 9.16088 10.8792 9.16088C11.7999 9.16088 12.5531 8.41391 12.5531 7.50095ZM10.8792 0.03125C6.71963 0.03125 3.34676 3.37601 3.34676 7.50095H0.835938L4.1837 10.8208L7.53146 7.50095H5.02064C5.02064 4.28898 7.64027 1.69118 10.8792 1.69118C14.1182 1.69118 16.7378 4.28898 16.7378 7.50095C16.7378 10.7129 14.1182 13.3107 10.8792 13.3107C9.61545 13.3107 8.44373 12.904 7.48125 12.2318L6.29279 13.4269C7.56494 14.3897 9.15513 14.9706 10.8792 14.9706C15.0388 14.9706 18.4117 11.6259 18.4117 7.50095C18.4117 3.37601 15.0388 0.03125 10.8792 0.03125Z" fill="#3491FF"/>
</svg>
