<svg width="44" height="70" viewBox="0 0 44 70" fill="none" xmlns="http://www.w3.org/2000/svg">
<path d="M7.67003 69.0818C7.32965 69.082 6.99255 69.0152 6.67801 68.8851C6.36346 68.755 6.07764 68.5642 5.83686 68.3236C5.59609 68.083 5.40509 67.7973 5.27477 67.4829C5.14446 67.1684 5.07738 66.8314 5.07738 66.491V64.5712C5.07762 64.231 5.14488 63.8941 5.2753 63.5799C5.40572 63.2656 5.59676 62.9801 5.83751 62.7397C6.07826 62.4993 6.364 62.3087 6.67843 62.1787C6.99285 62.0487 7.3298 61.982 7.67003 61.9822H41.4074C41.7477 61.982 42.0848 62.0488 42.3994 62.1789C42.7139 62.309 42.9997 62.4998 43.2405 62.7404C43.4813 62.981 43.6723 63.2667 43.8026 63.5811C43.9329 63.8956 44 64.2326 44 64.573V66.491C44 66.8314 43.9329 67.1684 43.8026 67.4829C43.6723 67.7973 43.4813 68.083 43.2405 68.3236C42.9997 68.5642 42.7139 68.755 42.3994 68.8851C42.0848 69.0152 41.7477 69.082 41.4074 69.0818H7.67003ZM14.4222 59.6053L7.18551 46.5671C9.06078 46.4396 10.8422 45.6996 12.2558 44.4608C13.6694 43.2219 14.6368 41.553 15.0092 39.7107L33.9731 59.6053H14.4222ZM0.00179374 37.7104C-0.0394675 35.8725 0.649325 34.0932 1.91731 32.7622C3.18529 31.4311 4.92911 30.6569 6.76681 30.609C8.59134 30.6968 10.3121 31.4834 11.5723 32.8058C12.8325 34.1281 13.5354 35.8847 13.5354 37.7113C13.5354 39.538 12.8325 41.2945 11.5723 42.6169C10.3121 43.9392 8.59134 44.7258 6.76681 44.8137C4.92878 44.7658 3.18469 43.9912 1.91665 42.6598C0.648616 41.3284 -0.0399584 39.5486 0.00179374 37.7104ZM8.07045 28.947L21.1032 17.2892C21.409 18.5477 22.0782 19.6885 23.0275 20.5695C23.9768 21.4505 25.1642 22.0329 26.442 22.2441L26.5133 22.3191L15.1902 36.8657C15.0476 34.944 14.2711 33.124 12.9826 31.6911C11.694 30.2583 9.96632 29.2938 8.07045 28.9488V28.947ZM22.5147 15.8521C22.4845 15.2408 22.5789 14.6297 22.7921 14.056C23.0052 13.4823 23.3327 12.9579 23.7547 12.5145C24.1767 12.0712 24.6844 11.7183 25.2469 11.4771C25.8094 11.2359 26.4151 11.1116 27.0271 11.1116C27.6392 11.1116 28.2448 11.2359 28.8074 11.4771C29.3699 11.7183 29.8775 12.0712 30.2995 12.5145C30.7215 12.9579 31.049 13.4823 31.2622 14.056C31.4753 14.6297 31.5697 15.2408 31.5396 15.8521C31.5697 16.4634 31.4753 17.0744 31.2622 17.6482C31.049 18.2219 30.7215 18.7463 30.2995 19.1896C29.8775 19.6329 29.3699 19.9859 28.8074 20.2271C28.2448 20.4682 27.6392 20.5926 27.0271 20.5926C26.4151 20.5926 25.8094 20.4682 25.2469 20.2271C24.6844 19.9859 24.1767 19.6329 23.7547 19.1896C23.3327 18.7463 23.0052 18.2219 22.7921 17.6482C22.5789 17.0744 22.4845 16.4634 22.5147 15.8521ZM32.2746 19.1432C32.7353 18.2634 32.988 17.2897 33.0134 16.2969C33.0388 15.3042 32.8361 14.3188 32.4209 13.4167L36.3263 13.6105C36.4385 13.6154 36.5505 13.596 36.6547 13.5537C36.7588 13.5114 36.8526 13.4472 36.9296 13.3655L41.9156 8.13265C41.9609 8.0863 42.0192 8.05479 42.0828 8.0423C42.1464 8.0298 42.2123 8.03691 42.2717 8.06267C42.3312 8.08844 42.3814 8.13165 42.4158 8.18659C42.4501 8.24153 42.467 8.3056 42.4642 8.37034V13.402C42.464 13.6224 42.3797 13.8343 42.2283 13.9944L37.5623 18.8909C37.4898 18.9681 37.4023 19.0297 37.3051 19.0719C37.208 19.114 37.1032 19.1358 36.9973 19.1359L32.2746 19.1432ZM24.2297 5.74295C24.229 5.52227 24.3128 5.30969 24.4637 5.14873L29.1352 0.245003C29.208 0.168164 29.2956 0.106845 29.3927 0.0647393C29.4898 0.0226337 29.5944 0.000611971 29.7002 0L34.5015 0C34.5662 0.00360298 34.6285 0.0256837 34.6809 0.0636198C34.7334 0.101556 34.7739 0.153754 34.7975 0.214013C34.8212 0.274273 34.8271 0.340064 34.8145 0.403571C34.8019 0.467078 34.7713 0.525634 34.7264 0.572284L29.7404 5.80512C29.6609 5.88969 29.5993 5.98952 29.5594 6.09856C29.5195 6.20761 29.5021 6.32361 29.5082 6.43957L29.6911 10.537C28.8413 10.103 27.8959 9.88994 26.9421 9.91742C25.9883 9.9449 25.0568 10.212 24.2334 10.6942L24.2297 5.74295Z" fill="#4B4B4B"/>
</svg>
