<svg width="31" height="23" viewBox="0 0 31 23" fill="none" xmlns="http://www.w3.org/2000/svg">
<path d="M11.6299 10.592H18.9979V11.974H11.6299V10.592Z" fill="white"/>
<path d="M15.3149 6.90697C15.4462 6.90625 15.5758 6.87745 15.695 6.82252C15.8143 6.76759 15.9204 6.6878 16.0063 6.58849C16.0922 6.48919 16.1559 6.37266 16.1931 6.24673C16.2302 6.12081 16.24 5.98839 16.2219 5.85835C16.2037 5.72832 16.1579 5.60368 16.0876 5.49279C16.0172 5.38191 15.924 5.28733 15.8142 5.21542C15.7043 5.1435 15.5804 5.09591 15.4506 5.07583C15.3209 5.05574 15.1883 5.06364 15.0619 5.09897L13.1419 3.69897L13.0269 3.79897L14.4339 5.71897C14.4071 5.80578 14.3936 5.89613 14.3939 5.98697C14.3939 6.10788 14.4177 6.22759 14.464 6.33927C14.5103 6.45096 14.5781 6.55242 14.6637 6.63787C14.7492 6.72331 14.8507 6.79106 14.9625 6.83723C15.0742 6.88341 15.194 6.90711 15.3149 6.90697V6.90697Z" fill="white"/>
<path d="M15.3139 2.54563e-07C14.1921 -0.000326872 13.0928 0.314632 12.1414 0.908952C11.1899 1.50327 10.4247 2.35302 9.9329 3.36129C9.44112 4.36955 9.24262 5.49573 9.36002 6.61137C9.47742 7.72701 9.90601 8.78719 10.5969 9.671H12.2889L12.4039 9.556L13.0399 8.92L12.3809 8.261L11.7449 8.894C11.174 8.19564 10.8217 7.34451 10.7319 6.447H11.6319V5.525H10.7319C10.8221 4.62819 11.1744 3.7778 11.7449 3.08L12.3809 3.713L13.0399 3.054L12.4069 2.418C13.1047 1.8475 13.9551 1.49517 14.8519 1.405V2.305H15.7729V1.405C16.6701 1.49498 17.5208 1.84732 18.2189 2.418L17.5859 3.054L18.2449 3.713L18.8809 3.08C19.4521 3.77757 19.8052 4.62797 19.8959 5.525H18.9959V6.446H19.8959C19.8059 7.34316 19.4536 8.19392 18.8829 8.892L18.2469 8.259L17.5879 8.918L18.2239 9.554L18.3389 9.669H20.0309C20.7212 8.78518 21.1493 7.72519 21.2664 6.60986C21.3835 5.49454 21.1848 4.36876 20.6931 3.36085C20.2014 2.35294 19.4364 1.50346 18.4853 0.909237C17.5343 0.315016 16.4353 -3.3909e-05 15.3139 2.54563e-07Z" fill="white"/>
<path d="M21.26 21.0981H28.628V22.4801H21.26V21.0981Z" fill="white"/>
<path d="M24.945 17.4131C25.0763 17.4123 25.2059 17.3836 25.3252 17.3286C25.4444 17.2737 25.5506 17.1939 25.6365 17.0946C25.7223 16.9953 25.786 16.8788 25.8232 16.7528C25.8604 16.6269 25.8702 16.4945 25.852 16.3645C25.8338 16.2344 25.788 16.1098 25.7177 15.9989C25.6474 15.888 25.5542 15.7934 25.4443 15.7215C25.3345 15.6496 25.2105 15.602 25.0807 15.5819C24.951 15.5618 24.8184 15.5697 24.692 15.6051L22.772 14.2051L22.657 14.3051L24.064 16.2251C24.0372 16.3119 24.0237 16.4022 24.024 16.4931C24.024 16.614 24.0478 16.7337 24.0941 16.8454C24.1404 16.9571 24.2083 17.0585 24.2938 17.144C24.3793 17.2294 24.4809 17.2972 24.5926 17.3433C24.7043 17.3895 24.8241 17.4132 24.945 17.4131V17.4131Z" fill="white"/>
<path d="M24.944 10.5061C23.8222 10.5058 22.7229 10.8207 21.7715 11.4151C20.8201 12.0094 20.0548 12.8591 19.563 13.8674C19.0712 14.8757 18.8727 16.0018 18.9901 17.1175C19.1075 18.2331 19.5361 19.2933 20.227 20.1771H21.919L22.034 20.0621L22.67 19.4261L22.011 18.7671L21.375 19.4001C20.8042 18.7017 20.4518 17.8506 20.362 16.9531H21.262V16.0311H20.362C20.4522 15.1343 20.8045 14.2839 21.375 13.5861L22.011 14.2191L22.67 13.5601L22.037 12.9241C22.7348 12.3536 23.5852 12.0013 24.482 11.9111V12.8111H25.403V11.9111C26.3002 12.0011 27.1509 12.3534 27.849 12.9241L27.216 13.5601L27.875 14.2191L28.511 13.5861C29.0822 14.2837 29.4353 15.1341 29.526 16.0311H28.626V16.9521H29.526C29.436 17.8493 29.0837 18.7 28.513 19.3981L27.877 18.7651L27.218 19.4241L27.854 20.0601L27.969 20.1751H29.661C30.3513 19.2913 30.7794 18.2313 30.8965 17.116C31.0136 16.0006 30.815 14.8749 30.3232 13.867C29.8315 12.859 29.0665 12.0096 28.1155 11.4153C27.1644 10.8211 26.0655 10.5061 24.944 10.5061Z" fill="white"/>
<path d="M2.73291 21.0981H10.1009V22.4801H2.73291V21.0981Z" fill="white"/>
<path d="M6.41788 17.4131C6.54918 17.4123 6.67881 17.3836 6.79806 17.3286C6.91732 17.2737 7.02346 17.1939 7.10935 17.0946C7.19525 16.9953 7.25891 16.8788 7.29609 16.7528C7.33326 16.6269 7.34308 16.4945 7.32488 16.3645C7.30668 16.2344 7.2609 16.1098 7.19059 15.9989C7.12027 15.888 7.02707 15.7934 6.91721 15.7215C6.80736 15.6496 6.6834 15.602 6.55364 15.5819C6.42389 15.5618 6.29134 15.5697 6.16488 15.6051L4.24488 14.2051L4.12988 14.3051L5.53688 16.2251C5.5101 16.3119 5.49662 16.4022 5.49688 16.4931C5.49688 16.614 5.52071 16.7337 5.56701 16.8454C5.61331 16.9571 5.68116 17.0585 5.7667 17.144C5.85223 17.2294 5.95377 17.2972 6.06551 17.3433C6.17724 17.3895 6.29698 17.4132 6.41788 17.4131V17.4131Z" fill="white"/>
<path d="M6.41692 10.5061C5.29512 10.5058 4.19581 10.8207 3.24438 11.4151C2.29295 12.0094 1.5277 12.8591 1.03593 13.8674C0.54415 14.8757 0.345642 16.0018 0.463046 17.1175C0.580449 18.2331 1.00904 19.2933 1.69992 20.1771H3.39192L3.50692 20.0621L4.14292 19.4261L3.48392 18.7671L2.84792 19.4001C2.27706 18.7017 1.92471 17.8506 1.83492 16.9531H2.73492V16.0311H1.83492C1.9251 15.1343 2.27742 14.2839 2.84792 13.5861L3.48392 14.2191L4.14292 13.5601L3.50992 12.9241C4.20773 12.3536 5.05811 12.0013 5.95492 11.9111V12.8111H6.87592V11.9111C7.77309 12.0011 8.62384 12.3534 9.32192 12.9241L8.68892 13.5601L9.34792 14.2191L9.98392 13.5861C10.5551 14.2837 10.9082 15.1341 10.9989 16.0311H10.0989V16.9521H10.9989C10.9089 17.8493 10.5566 18.7 9.98592 19.3981L9.34992 18.7651L8.69092 19.4241L9.32692 20.0601L9.44192 20.1751H11.1339C11.8242 19.2913 12.2523 18.2313 12.3694 17.116C12.4865 16.0006 12.2879 14.8749 11.7961 13.867C11.3044 12.859 10.5394 12.0096 9.58836 11.4153C8.63728 10.8211 7.53838 10.5061 6.41692 10.5061Z" fill="white"/>
</svg>
