<svg xmlns="http://www.w3.org/2000/svg" width="34.349" height="34.346" viewBox="0 0 34.349 34.346">
    <g id="part" transform="translate(0.75 0.75)">
        <path id="Union_392" data-name="Union 392" d="M1.493,17.075a.4.4,0,0,1,.4-.408H16.267a.4.4,0,0,0,.4-.4V1.895a.4.4,0,0,1,.408-.4,15.179,15.179,0,0,1,.184,30.342c-.2.008-.4.011-.592.011A15.18,15.18,0,0,1,1.493,17.075ZM-.6,14.174a.4.4,0,0,1-.4-.408A15.18,15.18,0,0,1,13.767-1a.4.4,0,0,1,.407.4V13.774a.4.4,0,0,1-.4.4Z" transform="translate(1 1)" fill="none" stroke="#5d43f7" stroke-miterlimit="10" stroke-width="1.5"/>
    </g>
</svg>