<svg width="80" height="59" viewBox="0 0 80 59" fill="none" xmlns="http://www.w3.org/2000/svg">
<path d="M25.1429 0H0V18.2857H25.1429V0Z" fill="white"/>
<path d="M52.2857 0H27.1429V18.2857H52.2857V0Z" fill="white"/>
<path d="M79.4286 0H54.2857V18.2857H79.4286V0Z" fill="white"/>
<path d="M25.1429 20.2857H0V38.5714H25.1429V20.2857Z" fill="white"/>
<path fill-rule="evenodd" clip-rule="evenodd" d="M50.2857 22.2857H29.1429V36.5714H50.2857V22.2857ZM52.2857 20.2857V38.5714H27.1429V20.2857H52.2857Z" fill="white"/>
<path fill-rule="evenodd" clip-rule="evenodd" d="M77.4286 22.2857H56.2857V36.5714H77.4286V22.2857ZM79.4286 20.2857V38.5714H54.2857V20.2857H79.4286Z" fill="white"/>
<path d="M25.1429 40.5714H0V58.8571H25.1429V40.5714Z" fill="white"/>
<path d="M52.2857 40.5714H27.1429V58.8571H52.2857V40.5714Z" fill="white"/>
<path fill-rule="evenodd" clip-rule="evenodd" d="M77.4286 42.5714H56.2857V56.8571H77.4286V42.5714ZM79.4286 40.5714V58.8571H54.2857V40.5714H79.4286Z" fill="white"/>
</svg>
