<svg xmlns="http://www.w3.org/2000/svg" width="64" height="64" viewBox="0 0 64 64" fill="none">
<mask id="path-1-inside-1_8568_179720" fill="white">
<path d="M33.4943 3.80845V32.691C33.4944 32.7965 33.4737 32.901 33.4333 32.9986C33.393 33.0961 33.3338 33.1847 33.2591 33.2594C33.1845 33.334 33.0959 33.3932 32.9983 33.4336C32.9008 33.4739 32.7963 33.4947 32.6907 33.4946H3.8082C3.70107 33.4943 3.59497 33.5155 3.4961 33.5567C3.39723 33.598 3.30757 33.6585 3.23237 33.7348C3.15718 33.8111 3.09795 33.9016 3.05815 34.0011C3.01836 34.1006 2.99879 34.207 3.0006 34.3141C3.16075 40.2755 5.06474 46.0593 8.47713 50.9501C11.8895 55.8409 16.6606 59.6242 22.2004 61.8321C27.7402 64.0401 33.8056 64.5759 39.6467 63.3732C45.4877 62.1705 50.8481 59.2822 55.065 55.0653C59.2819 50.8484 62.1703 45.488 63.373 39.6469C64.5757 33.8059 64.0399 27.7404 61.8319 22.2006C59.6239 16.6609 55.8406 11.8898 50.9498 8.47737C46.059 5.06499 40.2753 3.16099 34.3138 3.00085C34.2067 2.99904 34.1003 3.0186 34.0009 3.0584C33.9014 3.09819 33.8109 3.15742 33.7346 3.23262C33.6583 3.30782 33.5977 3.39747 33.5565 3.49634C33.5152 3.59521 33.4941 3.70132 33.4943 3.80845Z"/>
</mask>
<path d="M33.4943 32.691H30.9943L30.9943 32.6927L33.4943 32.691ZM32.6907 33.4946L32.6925 30.9946H32.6907V33.4946ZM3.8082 33.4946L3.80257 35.9946H3.8082V33.4946ZM3.0006 34.3141L0.50096 34.3563L0.50117 34.3688L0.501505 34.3812L3.0006 34.3141ZM34.3138 3.00085L34.381 0.501749L34.3685 0.501415L34.3561 0.501204L34.3138 3.00085ZM30.9943 3.80845V32.691H35.9943V3.80845H30.9943ZM30.9943 32.6927C30.9942 32.4697 31.038 32.2488 31.1233 32.0427L35.7434 33.9545C35.9093 33.5533 35.9946 33.1234 35.9943 32.6892L30.9943 32.6927ZM31.1233 32.0427C31.2086 31.8365 31.3337 31.6493 31.4914 31.4916L35.0269 35.0271C35.3338 34.7202 35.5773 34.3557 35.7434 33.9545L31.1233 32.0427ZM31.4914 31.4916C31.649 31.3339 31.8363 31.2088 32.0424 31.1235L33.9542 35.7436C34.3554 35.5776 34.7199 35.3341 35.0269 35.0271L31.4914 31.4916ZM32.0424 31.1235C32.2485 31.0382 32.4694 30.9944 32.6925 30.9946L32.6889 35.9946C33.1231 35.9949 33.5531 35.9096 33.9542 35.7436L32.0424 31.1235ZM32.6907 30.9946H3.8082V35.9946H32.6907V30.9946ZM3.81384 30.9946C3.3744 30.9936 2.93915 31.0802 2.53354 31.2494L4.45865 35.864C4.25079 35.9507 4.02775 35.9951 3.80257 35.9946L3.81384 30.9946ZM2.53354 31.2494C2.12796 31.4186 1.76018 31.667 1.45172 31.98L5.01303 35.4896C4.85496 35.65 4.66649 35.7773 4.45865 35.864L2.53354 31.2494ZM1.45172 31.98C1.14325 32.293 0.900289 32.6644 0.737043 33.0724L5.37927 34.9298C5.29561 35.1389 5.17111 35.3292 5.01303 35.4896L1.45172 31.98ZM0.737043 33.0724C0.573792 33.4805 0.493537 33.9169 0.50096 34.3563L5.50025 34.2719C5.50405 34.497 5.46292 34.7207 5.37927 34.9298L0.737043 33.0724ZM0.501505 34.3812C0.674772 40.8312 2.73481 47.089 6.42685 52.3806L10.5274 49.5195C7.39468 45.0296 5.64672 39.7198 5.4997 34.247L0.501505 34.3812ZM6.42685 52.3806C10.1189 57.6722 15.281 61.7656 21.2748 64.1545L23.126 59.5098C18.0402 57.4828 13.6601 54.0095 10.5274 49.5195L6.42685 52.3806ZM21.2748 64.1545C27.2686 66.5434 33.8311 67.1231 40.1508 65.8218L39.1425 60.9246C33.7801 62.0287 28.2118 61.5368 23.126 59.5098L21.2748 64.1545ZM40.1508 65.8218C46.4706 64.5206 52.2703 61.3955 56.8328 56.833L53.2973 53.2975C49.426 57.1688 44.5048 59.8205 39.1425 60.9246L40.1508 65.8218ZM56.8328 56.833C61.3953 52.2706 64.5204 46.4708 65.8216 40.1511L60.9243 39.1427C59.8202 44.5051 57.1686 49.4262 53.2973 53.2975L56.8328 56.833ZM65.8216 40.1511C67.1228 33.8314 66.5432 27.2688 64.1542 21.275L59.5096 23.1262C61.5366 28.212 62.0285 33.7804 60.9243 39.1427L65.8216 40.1511ZM64.1542 21.275C61.7653 15.2812 57.6719 10.1191 52.3803 6.42709L49.5193 10.5276C54.0093 13.6604 57.4825 18.0405 59.5096 23.1262L64.1542 21.275ZM52.3803 6.42709C47.0887 2.73505 40.831 0.675016 34.381 0.501749L34.2467 5.49995C39.7196 5.64696 45.0293 7.39492 49.5193 10.5276L52.3803 6.42709ZM34.3561 0.501204C33.9167 0.493781 33.4802 0.574036 33.0722 0.737287L34.9295 5.37951C34.7204 5.46317 34.4968 5.50429 34.2716 5.50049L34.3561 0.501204ZM33.0722 0.737287C32.6642 0.900533 32.2928 1.14349 31.9798 1.45196L35.4893 5.01328C35.3289 5.17135 35.1386 5.29586 34.9295 5.37951L33.0722 0.737287ZM31.9798 1.45196C31.6668 1.76043 31.4184 2.12821 31.2492 2.53379L35.8637 4.4589C35.777 4.66674 35.6497 4.8552 35.4893 5.01328L31.9798 1.45196ZM31.2492 2.53379C31.08 2.93939 30.9934 3.37464 30.9943 3.81408L35.9943 3.80281C35.9948 4.02799 35.9504 4.25104 35.8637 4.4589L31.2492 2.53379Z" fill="#4B4B4B" mask="url(#path-1-inside-1_8568_179720)"/>
<mask id="path-3-inside-2_8568_179720" fill="white">
<path d="M29.6761 0.0001251C21.8716 0.209661 14.4446 3.40349 8.92403 8.92403C3.40349 14.4446 0.209661 21.8716 0.0001251 29.6761C-0.001763 29.7831 0.0177382 29.8894 0.0574846 29.9888C0.0972311 30.0882 0.156423 30.1787 0.23159 30.2549C0.306757 30.3311 0.396386 30.3916 0.495221 30.4327C0.594056 30.4738 0.700108 30.4948 0.807159 30.4944H29.6885C29.7944 30.4947 29.8993 30.474 29.9972 30.4335C30.0951 30.3931 30.184 30.3338 30.2589 30.2589C30.3338 30.184 30.3931 30.0951 30.4335 29.9972C30.474 29.8993 30.4947 29.7944 30.4944 29.6885V0.807159C30.4948 0.700108 30.4738 0.594056 30.4327 0.495221C30.3916 0.396386 30.3311 0.306757 30.2549 0.23159C30.1787 0.156423 30.0882 0.0972311 29.9888 0.0574846C29.8894 0.0177382 29.7831 -0.001763 29.6761 0.0001251Z"/>
</mask>
<path d="M0.0001251 29.6761L-2.49897 29.609L-2.49928 29.6205L-2.49949 29.632L0.0001251 29.6761ZM0.807159 30.4944V27.9944L0.797955 27.9944L0.807159 30.4944ZM29.6885 30.4944L29.6938 27.9944H29.6885V30.4944ZM30.4944 29.6885H27.9944L27.9944 29.6938L30.4944 29.6885ZM30.4944 0.807159L27.9944 0.797955V0.807159H30.4944ZM29.609 -2.49897C21.1649 -2.27227 13.1292 1.1833 7.15627 7.15627L10.6918 10.6918C15.7599 5.62367 22.5783 2.69159 29.7431 2.49922L29.609 -2.49897ZM7.15627 7.15627C1.1833 13.1292 -2.27227 21.1649 -2.49897 29.609L2.49922 29.7431C2.69159 22.5783 5.62367 15.7599 10.6918 10.6918L7.15627 7.15627ZM-2.49949 29.632C-2.50724 30.0717 -2.42712 30.5086 -2.26381 30.917L2.37878 29.0606C2.4626 29.2702 2.50372 29.4944 2.49974 29.7201L-2.49949 29.632ZM-2.26381 30.917C-2.10051 31.3254 -1.85731 31.6971 -1.54847 32.0103L2.01165 28.4995C2.17016 28.6603 2.29497 28.851 2.37878 29.0606L-2.26381 30.917ZM-1.54847 32.0103C-1.23962 32.3235 -0.871362 32.5718 -0.465293 32.7408L1.45574 28.1246C1.66413 28.2113 1.85314 28.3388 2.01165 28.4995L-1.54847 32.0103ZM-0.465293 32.7408C-0.0592134 32.9098 0.376522 32.996 0.816363 32.9944L0.797955 27.9944C1.02369 27.9936 1.24733 28.0379 1.45574 28.1246L-0.465293 32.7408ZM0.807159 32.9944H29.6885V27.9944H0.807159V32.9944ZM29.6832 32.9944C30.1183 32.9953 30.5493 32.9103 30.9515 32.7443L29.0429 28.1228C29.2493 28.0376 29.4705 27.994 29.6938 27.9944L29.6832 32.9944ZM30.9515 32.7443C31.3536 32.5782 31.719 32.3343 32.0267 32.0267L28.4911 28.4911C28.649 28.3332 28.8365 28.2081 29.0429 28.1228L30.9515 32.7443ZM32.0267 32.0267C32.3343 31.719 32.5782 31.3536 32.7443 30.9515L28.1228 29.0429C28.2081 28.8365 28.3332 28.649 28.4911 28.4911L32.0267 32.0267ZM32.7443 30.9515C32.9103 30.5493 32.9953 30.1183 32.9944 29.6832L27.9944 29.6938C27.994 29.4705 28.0376 29.2493 28.1228 29.0429L32.7443 30.9515ZM32.9944 29.6885V0.807159H27.9944V29.6885H32.9944ZM32.9944 0.816363C32.996 0.376522 32.9098 -0.0592134 32.7408 -0.465293L28.1246 1.45574C28.0379 1.24733 27.9936 1.02369 27.9944 0.797955L32.9944 0.816363ZM32.7408 -0.465293C32.5718 -0.871362 32.3235 -1.23962 32.0103 -1.54847L28.4995 2.01165C28.3388 1.85314 28.2113 1.66413 28.1246 1.45574L32.7408 -0.465293ZM32.0103 -1.54847C31.6971 -1.85731 31.3254 -2.10051 30.917 -2.26381L29.0606 2.37878C28.851 2.29497 28.6603 2.17016 28.4995 2.01165L32.0103 -1.54847ZM30.917 -2.26381C30.5086 -2.42712 30.0717 -2.50724 29.632 -2.49949L29.7201 2.49974C29.4944 2.50372 29.2702 2.4626 29.0606 2.37878L30.917 -2.26381Z" fill="#4B4B4B" mask="url(#path-3-inside-2_8568_179720)"/>
</svg>