<svg width="22" height="22" viewBox="0 0 22 22" fill="none" xmlns="http://www.w3.org/2000/svg">
    <path d="M11 22C17.0751 22 22 17.0751 22 11C22 4.92487 17.0751 0 11 0C4.92487 0 0 4.92487 0 11C0 17.0751 4.92487 22 11 22Z" fill="#3491FF"/>
    <path d="M5.86603 13.878V15.986H7.97403L14.191 9.77L12.083 7.661L5.86603 13.878ZM15.821 8.139C15.8732 8.08698 15.9146 8.02518 15.9428 7.95714C15.971 7.8891 15.9856 7.81616 15.9856 7.7425C15.9856 7.66883 15.971 7.59589 15.9428 7.52785C15.9146 7.45982 15.8732 7.39802 15.821 7.346L14.506 6.031C14.454 5.97884 14.3922 5.93746 14.3242 5.90922C14.2561 5.88099 14.1832 5.86646 14.1095 5.86646C14.0359 5.86646 13.9629 5.88099 13.8949 5.90922C13.8268 5.93746 13.765 5.97884 13.713 6.031L12.685 7.059L14.793 9.17L15.821 8.139Z" fill="white"/>
    </svg>
    