<svg width="46" height="72" viewBox="0 0 46 72" fill="none" xmlns="http://www.w3.org/2000/svg">
<mask id="path-1-inside-1_11384_170269" fill="white">
<path d="M43.5953 12.5606C41.7533 8.46429 38.593 5.09029 34.6101 2.96765C31.0548 1.021 27.0602 0 22.9993 0C18.9385 0 14.9439 1.021 11.3886 2.96765C7.40564 5.09029 4.24538 8.46429 2.40335 12.5606C-3.21356 25.0995 2.40335 33.4582 5.21181 38.1019C7.7995 42.3807 15.9516 53.0246 21.6106 58.2776C21.9868 58.6281 22.4833 58.8232 22.9993 58.8232C23.5153 58.8232 24.0119 58.6281 24.388 58.2776C30.047 53.0246 38.1992 42.3807 40.7868 38.1019C43.5953 33.4588 49.2153 25.0995 43.5953 12.5606ZM22.9993 30.4578C20.9657 30.4578 18.9776 29.8595 17.2867 28.7386C15.5958 27.6177 14.2778 26.0245 13.4996 24.1605C12.7213 22.2965 12.5177 20.2454 12.9145 18.2666C13.3112 16.2878 14.2905 14.4702 15.7285 13.0435C17.1666 11.6169 18.9987 10.6453 20.9933 10.2517C22.9879 9.85813 25.0554 10.0601 26.9342 10.8322C28.8131 11.6043 30.419 12.9118 31.5489 14.5894C32.6787 16.2669 33.2818 18.2392 33.2818 20.2567C33.2818 21.5964 33.0159 22.9229 32.4992 24.1606C31.9825 25.3983 31.2251 26.5229 30.2703 27.4701C29.3155 28.4174 28.1819 29.1688 26.9343 29.6814C25.6868 30.194 24.3497 30.4578 22.9993 30.4578V30.4578Z"/>
</mask>
<path d="M43.5953 12.5606C41.7533 8.46429 38.593 5.09029 34.6101 2.96765C31.0548 1.021 27.0602 0 22.9993 0C18.9385 0 14.9439 1.021 11.3886 2.96765C7.40564 5.09029 4.24538 8.46429 2.40335 12.5606C-3.21356 25.0995 2.40335 33.4582 5.21181 38.1019C7.7995 42.3807 15.9516 53.0246 21.6106 58.2776C21.9868 58.6281 22.4833 58.8232 22.9993 58.8232C23.5153 58.8232 24.0119 58.6281 24.388 58.2776C30.047 53.0246 38.1992 42.3807 40.7868 38.1019C43.5953 33.4588 49.2153 25.0995 43.5953 12.5606ZM22.9993 30.4578C20.9657 30.4578 18.9776 29.8595 17.2867 28.7386C15.5958 27.6177 14.2778 26.0245 13.4996 24.1605C12.7213 22.2965 12.5177 20.2454 12.9145 18.2666C13.3112 16.2878 14.2905 14.4702 15.7285 13.0435C17.1666 11.6169 18.9987 10.6453 20.9933 10.2517C22.9879 9.85813 25.0554 10.0601 26.9342 10.8322C28.8131 11.6043 30.419 12.9118 31.5489 14.5894C32.6787 16.2669 33.2818 18.2392 33.2818 20.2567C33.2818 21.5964 33.0159 22.9229 32.4992 24.1606C31.9825 25.3983 31.2251 26.5229 30.2703 27.4701C29.3155 28.4174 28.1819 29.1688 26.9343 29.6814C25.6868 30.194 24.3497 30.4578 22.9993 30.4578V30.4578Z" stroke="#4B4B4B" stroke-width="5" mask="url(#path-1-inside-1_11384_170269)"/>
<mask id="path-2-inside-2_11384_170269" fill="white">
<path d="M22.9995 72C31.5885 72 38.5512 69.8329 38.5512 67.1597C38.5512 64.4864 31.5885 62.3193 22.9995 62.3193C14.4105 62.3193 7.44775 64.4864 7.44775 67.1597C7.44775 69.8329 14.4105 72 22.9995 72Z"/>
</mask>
<path d="M22.9995 72C31.5885 72 38.5512 69.8329 38.5512 67.1597C38.5512 64.4864 31.5885 62.3193 22.9995 62.3193C14.4105 62.3193 7.44775 64.4864 7.44775 67.1597C7.44775 69.8329 14.4105 72 22.9995 72Z" stroke="#4B4B4B" stroke-width="5" mask="url(#path-2-inside-2_11384_170269)"/>
</svg>
