<svg width="11" height="12" viewBox="0 0 11 12" fill="none" xmlns="http://www.w3.org/2000/svg">
    <path d="M8.69254 7.36403C7.48735 7.36403 6.51074 8.34063 6.51074 9.54583C6.51074 10.751 7.48735 11.7288 8.69254 11.7288C9.89774 11.7288 10.8743 10.7522 10.8743 9.54703C10.8743 8.34183 9.89774 7.36403 8.69254 7.36403ZM9.74215 9.51591C9.56143 9.72296 9.28377 9.79596 9.02167 9.74091L8.0307 10.8755L7.66088 10.8875C7.60344 10.8899 7.53402 10.8252 7.52804 10.7738L7.48017 10.3166L7.48256 10.3118L7.75543 10.301L7.72791 10.0377L7.99001 10.0281L7.96488 9.76724L8.24373 9.73253L8.22578 9.44769L8.42206 9.22269C8.32512 8.96896 8.36102 8.67814 8.54414 8.46869C8.81581 8.15752 9.26701 8.10606 9.59614 8.39329C9.92526 8.68173 10.0138 9.20354 9.74215 9.51591Z" fill="#4B4B4B"/>
    <path d="M7.62134 6.48795C7.60458 6.46641 7.58783 6.45085 7.56748 6.4317C6.79793 5.66933 5.76986 5.18821 4.63528 5.14632C6.01521 5.03621 7.09833 3.92796 7.09833 2.57795C7.09833 1.15373 5.89433 0 4.40788 0C2.92263 0 1.71743 1.15373 1.71743 2.57795C1.71743 3.94352 2.82688 5.06135 4.22836 5.14991C2.04058 5.26959 0.265694 7.02173 0.00598409 9.25978C0.00359046 9.27415 0.00239362 9.28851 0.0011968 9.30287C-1.82798e-08 9.31484 0 9.32561 0 9.33758C0 9.59848 0.202262 9.81152 0.458381 9.82827C0.469153 9.82947 0.481121 9.82947 0.493089 9.82947C0.505057 9.82947 0.515829 9.82947 0.527797 9.82827C0.527797 9.82827 4.47251 9.82947 5.50536 9.82947C5.67053 9.80194 5.80098 9.67269 5.8321 9.50872C5.85843 8.38132 6.48556 7.41549 7.47533 6.97266C7.49448 6.96668 7.51243 6.9583 7.52918 6.94873C7.62493 6.89607 7.68956 6.79314 7.68956 6.67705C7.68836 6.60524 7.66203 6.54061 7.62134 6.48795Z" fill="#4B4B4B"/>
</svg>