<svg xmlns="http://www.w3.org/2000/svg" xmlns:xlink="http://www.w3.org/1999/xlink" width="134" height="134" viewBox="0 0 134 134">
  <defs>
    <style>
      .cls-1 {
        clip-path: url(#clip-Predictive_Maintenance);
      }

      .cls-2 {
        fill: #fff;
      }
    </style>
    <clipPath id="clip-Predictive_Maintenance">
      <rect width="134" height="134"/>
    </clipPath>
  </defs>
  <g id="Predictive_Maintenance" data-name="Predictive Maintenance" class="cls-1">
    <g id="Group_62" data-name="Group 62" transform="translate(-3.712 -3.526)">
      <g id="Group_61" data-name="Group 61">
        <path id="Path_46" data-name="Path 46" class="cls-2" d="M130.712,123.541,99.171,92a51,51,0,1,0-8.9,8.072l31.954,31.954a6,6,0,0,0,8.485-8.485Zm-108-65.015a38,38,0,1,1,38,38A38,38,0,0,1,22.712,58.526Z"/>
      </g>
      <path id="Path_47" data-name="Path 47" class="cls-2" d="M86.77,65.43c-.073-.145-.17-.315-.3-.513a19.089,19.089,0,0,0-2.421-2.6,24.067,24.067,0,0,0-.07-8.544,17.633,17.633,0,0,0,2.242-2.444c.126-.2.223-.369.3-.514a1.26,1.26,0,0,0-.048-1.221l-2.992-4.973-.1-.16-2.992-4.974a1.257,1.257,0,0,0-1.055-.614c-.163,0-.359,0-.593.02a16.717,16.717,0,0,0-3.032.776A24.178,24.178,0,0,0,68.3,35.429a18.523,18.523,0,0,0-.97-3.323c-.105-.21-.2-.38-.288-.518A1.258,1.258,0,0,0,65.97,31H54.176a1.26,1.26,0,0,0-1.071.588c-.086.138-.183.308-.288.518a19.111,19.111,0,0,0-.989,3.419A24.176,24.176,0,0,0,44.759,39.6,15.717,15.717,0,0,0,41.9,38.89c-.233-.018-.429-.023-.592-.02a1.26,1.26,0,0,0-1.055.617l-2.983,4.978-.1.161L34.187,49.6a1.258,1.258,0,0,0-.047,1.22c.074.146.171.316.3.514a15.942,15.942,0,0,0,2.019,2.224,24.092,24.092,0,0,0-.071,8.955,17.4,17.4,0,0,0-2.209,2.413c-.126.2-.222.368-.3.514a1.263,1.263,0,0,0,.048,1.221l2.992,4.973.1.16,2.992,4.973a1.258,1.258,0,0,0,1.056.615c.163,0,.358,0,.592-.021a15.6,15.6,0,0,0,2.85-.715,24.155,24.155,0,0,0,7.434,4.339,16.174,16.174,0,0,0,.877,2.9c.1.21.2.38.288.518A1.26,1.26,0,0,0,54.176,85H65.97a1.258,1.258,0,0,0,1.071-.588c.087-.138.183-.308.288-.518a15.609,15.609,0,0,0,.856-2.811,24.161,24.161,0,0,0,7.781-4.494,16.65,16.65,0,0,0,3.048.776,5.906,5.906,0,0,0,.593.019,1.261,1.261,0,0,0,1.055-.616l2.983-4.978.1-.161,2.983-4.978A1.258,1.258,0,0,0,86.77,65.43ZM60.326,74.377A16.377,16.377,0,1,1,76.7,58,16.377,16.377,0,0,1,60.326,74.377Z"/>
    </g>
  </g>
</svg>
