<?xml version="1.0"?>
<svg xmlns="http://www.w3.org/2000/svg" xmlns:xlink="http://www.w3.org/1999/xlink" xmlns:svgjs="http://svgjs.com/svgjs" version="1.1" width="512" height="512" x="0" y="0" viewBox="0 0 512 512" style="enable-background:new 0 0 512 512" xml:space="preserve" class=""><g><path xmlns="http://www.w3.org/2000/svg" d="m467 0h-422c-24.813 0-45 20.187-45 45v390c0 24.813 20.187 45 45 45h136v17c0 8.284 6.716 15 15 15s15-6.716 15-15v-78.06c0-5.354-2.854-10.303-7.489-12.984-32.39-18.736-52.511-53.589-52.511-90.956 0-27.713 11.069-54.044 30-73.442v43.442c0 4.722 2.223 9.167 6 12l60 45c5.333 4 12.667 4 18 0l60-45c3.777-2.833 6-7.278 6-12v-43.442c18.931 19.398 30 45.729 30 73.442 0 37.367-20.121 72.22-52.511 90.956-4.635 2.682-7.489 7.63-7.489 12.984v78.06c0 8.284 6.716 15 15 15s15-6.716 15-15v-17h136c24.813 0 45-20.187 45-45v-390c0-24.813-20.187-45-45-45zm-422 30h422c8.271 0 15 6.729 15 15v75h-452v-75c0-8.271 6.729-15 15-15zm422 420h-136v-22.743c37.22-24.929 60-67.166 60-112.257 0-48.04-25.86-92.843-67.489-116.924-9.995-5.783-22.511 1.458-22.511 12.984v66.44l-45 33.75-45-33.75v-66.44c0-11.546-12.534-18.758-22.511-12.984-41.629 24.081-67.489 68.884-67.489 116.924 0 45.091 22.78 87.328 60 112.257v22.743h-136c-8.271 0-15-6.729-15-15v-285h452v285c0 8.271-6.729 15-15 15z" fill="#ffffff" data-original="#000000" style="" class=""/><circle xmlns="http://www.w3.org/2000/svg" cx="76" cy="75" r="15" fill="#ffffff" data-original="#000000" style="" class=""/><circle xmlns="http://www.w3.org/2000/svg" cx="136" cy="75" r="15" fill="#ffffff" data-original="#000000" style="" class=""/><circle xmlns="http://www.w3.org/2000/svg" cx="196" cy="75" r="15" fill="#ffffff" data-original="#000000" style="" class=""/><path xmlns="http://www.w3.org/2000/svg" d="m346 90h90c8.284 0 15-6.716 15-15s-6.716-15-15-15h-90c-8.284 0-15 6.716-15 15s6.716 15 15 15z" fill="#ffffff" data-original="#000000" style="" class=""/></g></svg>
