<svg width="79" height="46" viewBox="0 0 79 46" fill="none" xmlns="http://www.w3.org/2000/svg">
<path d="M14.5 25.25C14.5 28.7018 11.7018 31.5 8.25 31.5C4.79822 31.5 2 28.7018 2 25.25C2 21.7982 4.79822 19 8.25 19C11.7018 19 14.5 21.7982 14.5 25.25Z" fill="white"/>
<path d="M54.5 25.25C54.5 28.7018 51.7018 31.5 48.25 31.5C44.7982 31.5 42 28.7018 42 25.25C42 21.7982 44.7982 19 48.25 19C51.7018 19 54.5 21.7982 54.5 25.25Z" fill="white"/>
<path d="M77.5 25.25C77.5 28.7018 74.7018 31.5 71.25 31.5C67.7982 31.5 65 28.7018 65 25.25C65 21.7982 67.7982 19 71.25 19C74.7018 19 77.5 21.7982 77.5 25.25Z" fill="white"/>
<path fill-rule="evenodd" clip-rule="evenodd" d="M27.9208 13.5035C27.9301 13.5032 27.9394 13.5029 27.9487 13.5026C29.9463 13.4377 32.2169 12.2125 33.4724 10.1648C34.1165 9.11438 34.4935 7.84753 34.4296 6.40979C34.3032 2.83116 31.048 -0.151031 27.4451 0.00592625C23.7474 0.162884 20.8398 3.36482 20.9346 7.03762C20.9971 9.29353 22.5158 11.4539 24.5307 12.6102C25.5541 13.1975 26.7056 13.5258 27.8593 13.4758C27.8685 13.4754 27.8777 13.475 27.8869 13.4745C27.8977 13.474 27.9084 13.4735 27.9192 13.4729L27.8876 13.5043C27.8986 13.504 27.9097 13.5038 27.9208 13.5035ZM28.3431 10.4452C29.8764 10.13 31.5242 8.60623 31.4326 6.54291L31.432 6.52931L31.4315 6.5157C31.3647 4.62547 29.5367 2.91765 27.5757 3.00308L27.5723 3.00323C25.5527 3.08896 23.8816 4.88107 23.9336 6.95714C23.9551 7.7014 24.3696 8.63227 25.2066 9.40566C26.0434 10.1789 27.0032 10.5185 27.7554 10.4774L28.3431 10.4452Z" fill="white"/>
<path fill-rule="evenodd" clip-rule="evenodd" d="M62.4575 25.8081H57.0558V22.8081H62.4575V25.8081Z" fill="white"/>
<path fill-rule="evenodd" clip-rule="evenodd" d="M39.1552 21.0947L33.3123 14.4986L35.558 12.5094L41.4008 19.1054L39.1552 21.0947Z" fill="white"/>
<path fill-rule="evenodd" clip-rule="evenodd" d="M14.3656 19.1498L19.768 12.5537L22.0889 14.4546L16.6865 21.0507L14.3656 19.1498Z" fill="white"/>
<path fill-rule="evenodd" clip-rule="evenodd" d="M79 45.5386H0V39.5386H79V45.5386Z" fill="white"/>
</svg>
