<svg width="28" height="16" viewBox="0 0 28 16" fill="none" xmlns="http://www.w3.org/2000/svg">
    <path fill-rule="evenodd" clip-rule="evenodd" d="M0.666016 15.6641V0.664062H5.76405V0.689747V5.59248L1.53929 8.35956C1.46662 8.40716 1.43244 8.51827 1.45963 8.61857C1.48681 8.71887 1.56682 8.77687 1.64614 8.75379L5.76405 7.55508V15.6641H0.666016ZM6.54837 15.6641H14.3915V10.8298L14.3915 4.67359L14.3915 0.664062H6.54837L6.54837 0.689747L6.54837 5.07878L10.8706 2.24788C10.9178 2.21695 10.9736 2.21834 11.0199 2.25159L14.3915 4.67359L14.3915 10.8298C14.3869 10.8257 14.3824 10.8212 14.3781 10.8164L10.256 6.24749L6.54837 7.32677V15.6641ZM15.1758 0.689647V0.664062H27.3327V15.6641H15.1758V10.5363L26.4445 4.93951C26.5198 4.90212 26.5624 4.79761 26.5442 4.69488C26.526 4.59215 26.4527 4.52282 26.3725 4.53261L15.9641 5.80325L15.1758 5.237L15.1758 0.689647Z" fill="white"/>
</svg>
