<svg width="15" height="11" viewBox="0 0 15 11" fill="none" xmlns="http://www.w3.org/2000/svg">
    <path d="M14.5 0.874024L10.3174 1.99474L13.3793 5.0566L14.5 0.874024ZM8.10335 7.30264L7.86546 7.59252L8.12943 7.80915L8.36976 7.56656L8.10335 7.30264ZM5.73119 5.3559L5.96908 5.06602L5.70632 4.85039L5.46599 5.09077L5.73119 5.3559ZM11.5 3.87402L11.2348 3.60886L11.2336 3.6101L11.5 3.87402ZM1.49701 10.1214L5.99638 5.62104L5.46599 5.09077L0.96662 9.59108L1.49701 10.1214ZM5.49329 5.64578L7.86546 7.59252L8.34125 7.01276L5.96908 5.06602L5.49329 5.64578ZM8.36976 7.56656L11.7664 4.13794L11.2336 3.6101L7.83695 7.03872L8.36976 7.56656ZM11.7652 4.13919L12.3787 3.52567L11.8483 2.99534L11.2348 3.60886L11.7652 4.13919Z" fill="#4B4B4B"/>
</svg>
