<svg width="129" height="136" viewBox="0 0 129 136" fill="none" xmlns="http://www.w3.org/2000/svg">
    <path d="M53.8556 0C62.3279 0 69.9959 3.43364 75.5486 8.9863C81.1012 14.539 84.5349 22.2069 84.5349 30.6793C84.5349 39.1517 81.1012 46.8196 75.5486 52.3723C69.9959 57.925 62.3279 61.3586 53.8556 61.3586C45.3832 61.3586 37.7152 57.925 32.1626 52.3723C26.6099 46.8196 23.1763 39.1517 23.1763 30.6793C23.1763 22.2069 26.6099 14.539 32.1626 8.9863C37.7152 3.43364 45.3869 0 53.8556 0Z" fill="white"/>
    <path d="M2.04564 116.129C0.879989 116.092 -0.0361448 115.116 0.00109635 113.951C0.276681 105.568 0.0197169 95.9967 2.32495 87.9898C6.66355 72.9257 22.6065 67.4997 36.1325 63.1871C36.7693 62.9451 37.5142 63.0158 38.11 63.4404C47.2602 69.9464 60.451 69.9464 69.6049 63.4404C70.2008 63.0158 70.9456 62.9451 71.5824 63.1871C84.196 67.2055 98.9063 72.1958 104.355 85.0626L99.2787 90.3509L78.0512 112.457L75.6529 116.803C50.9769 117.12 25.3065 116.896 2.04564 116.126V116.129Z" fill="white"/>
    <path d="M115.665 79.51L128.074 91.4272C128.938 92.2539 128.964 93.6281 128.137 94.4884L117.847 105.206L102.314 90.2913L112.604 79.5733C113.43 78.7093 114.805 78.6832 115.665 79.51ZM116.346 106.771L100.813 91.8554L79.6153 113.932L95.1486 128.847L116.346 106.771ZM93.4765 130.247C93.4244 130.266 93.3722 130.281 93.3164 130.296L75.232 135.904C74.0887 136.254 72.8784 135.614 72.5283 134.471C72.3756 133.979 72.4092 133.472 72.5879 133.029L78.2858 115.664L93.4765 130.251V130.247Z" fill="white"/>
</svg>
