<svg xmlns="http://www.w3.org/2000/svg" xmlns:xlink="http://www.w3.org/1999/xlink" width="134" height="134" viewBox="0 0 134 134">
  <defs>
    <style>
      .cls-1 {
        clip-path: url(#clip-Quality_Management);
      }

      .cls-2 {
        fill: #fff;
      }
    </style>
    <clipPath id="clip-Quality_Management">
      <rect width="134" height="134"/>
    </clipPath>
  </defs>
  <g id="Quality_Management" data-name="Quality Management" class="cls-1">
    <g id="Group_67" data-name="Group 67" transform="translate(-3.294 -3.849)">
      <g id="Group_66" data-name="Group 66">
        <g id="Group_63" data-name="Group 63">
          <path id="Path_48" data-name="Path 48" class="cls-2" d="M129.438,51.871l-5.1-3.109-3.018,4.954A55.482,55.482,0,0,0,47.263,16.788l4.056,7.024a46.984,46.984,0,0,1,63.49,39.8l5.452,3.319Z"/>
        </g>
        <g id="Group_64" data-name="Group 64">
          <path id="Path_49" data-name="Path 49" class="cls-2" d="M35.848,33.484l.02-.019q.793-.744,1.621-1.45l.009-.009q1.667-1.422,3.462-2.688h0l.6-5.226L24.039,22.076l-.683,5.936,5.677.653A55.321,55.321,0,0,0,12.876,60.349,55.468,55.468,0,0,0,33.413,111.9l4.491-7.779a46.975,46.975,0,0,1-3.592-69.236l-.014.121h0Q35.057,34.226,35.848,33.484Z"/>
        </g>
        <g id="Group_65" data-name="Group 65">
          <path id="Path_50" data-name="Path 50" class="cls-2" d="M114.2,76.349a46.649,46.649,0,0,1-4.347,12.776l-.014.027a47.125,47.125,0,0,1-9.5,12.683l-.009.009a47.1,47.1,0,0,1-12.375,8.461h0c-.293.139-.591.269-.888.4-.28.125-.555.256-.838.376-.8.343-1.615.672-2.441.971a47.061,47.061,0,0,1-27.405,1.388l.217-.091q-1.053-.262-2.087-.575l-.086-.024q-1.042-.315-2.065-.677l-.044-.015q-2.09-.739-4.084-1.668l-5.308,2.234,6.834,16.258,5.508-2.315-1.957-4.656a55.5,55.5,0,0,0,69.4-45.563Z"/>
        </g>
      </g>
      <path id="Path_51" data-name="Path 51" class="cls-2" d="M100.677,77.085c-.092-.18-.211-.391-.368-.637a23.759,23.759,0,0,0-3-3.23,29.782,29.782,0,0,0-.087-10.6A21.888,21.888,0,0,0,100,59.584c.156-.246.275-.457.367-.638a1.563,1.563,0,0,0-.06-1.514L96.6,51.261l-.119-.2-3.712-6.17a1.566,1.566,0,0,0-1.31-.763c-.2,0-.445,0-.735.026a20.607,20.607,0,0,0-3.762.962,29.981,29.981,0,0,0-9.2-5.255,22.968,22.968,0,0,0-1.2-4.124c-.13-.26-.25-.471-.357-.642a1.564,1.564,0,0,0-1.329-.73H60.236a1.564,1.564,0,0,0-1.329.73c-.107.171-.227.382-.357.642a23.788,23.788,0,0,0-1.228,4.243,29.994,29.994,0,0,0-8.771,5.061A19.526,19.526,0,0,0,45,44.155c-.29-.022-.533-.028-.735-.024a1.565,1.565,0,0,0-1.309.765l-3.7,6.177-.12.2-3.7,6.176a1.565,1.565,0,0,0-.057,1.515c.092.181.211.392.368.637a19.807,19.807,0,0,0,2.5,2.76,29.9,29.9,0,0,0-.087,11.111,21.559,21.559,0,0,0-2.741,2.993c-.156.246-.276.457-.367.638a1.562,1.562,0,0,0,.06,1.515l3.711,6.17.12.2,3.712,6.17a1.562,1.562,0,0,0,1.31.763c.2,0,.445,0,.735-.025a19.379,19.379,0,0,0,3.535-.888,30.008,30.008,0,0,0,9.225,5.384,19.947,19.947,0,0,0,1.088,3.6c.13.26.25.471.357.643a1.565,1.565,0,0,0,1.329.729H74.87a1.565,1.565,0,0,0,1.329-.729c.107-.172.227-.383.357-.643a19.5,19.5,0,0,0,1.062-3.488,30,30,0,0,0,9.654-5.575,20.783,20.783,0,0,0,3.782.962c.29.022.533.028.735.024a1.562,1.562,0,0,0,1.309-.765l3.7-6.176.119-.2,3.7-6.176A1.565,1.565,0,0,0,100.677,77.085Zm-32.811,11.1a20.32,20.32,0,1,1,20.32-20.32A20.321,20.321,0,0,1,67.866,88.186Z"/>
    </g>
  </g>
</svg>
