<?xml version="1.0"?>
<svg xmlns="http://www.w3.org/2000/svg" xmlns:xlink="http://www.w3.org/1999/xlink" xmlns:svgjs="http://svgjs.com/svgjs" version="1.1" width="512" height="512" x="0" y="0" viewBox="0 0 510 510" style="enable-background:new 0 0 512 512" xml:space="preserve"><g><g xmlns="http://www.w3.org/2000/svg"><path d="m330 0c-99.252 0-180 80.748-180 180 0 44.238 16.051 84.791 42.622 116.165l-35.122 35.122-22.5-22.5-121.286 121.286c-8.844 8.843-13.714 20.601-13.714 33.107 0 25.817 21.004 46.82 46.82 46.82 12.505 0 24.263-4.87 33.106-13.713l121.287-121.287-22.5-22.5 35.122-35.122c31.374 26.571 71.928 42.622 116.165 42.622 99.252 0 180-80.748 180-180s-80.748-180-180-180zm-271.286 475.073c-3.177 3.177-7.402 4.927-11.895 4.927-9.274 0-16.819-7.545-16.819-16.82 0-4.493 1.75-8.716 4.927-11.894l100.073-100.073 23.787 23.787zm271.286-145.073c-82.71 0-150-67.29-150-150s67.29-150 150-150 150 67.29 150 150-67.29 150-150 150z" fill="#ffffff" data-original="#000000" style=""/><path d="m330 60c-66.168 0-120 53.831-120 120s53.832 120 120 120 120-53.831 120-120-53.832-120-120-120zm0 210c-49.626 0-90-40.374-90-90s40.374-90 90-90 90 40.374 90 90-40.374 90-90 90z" fill="#ffffff" data-original="#000000" style=""/><path d="m315 188.787-19.394-19.393-21.212 21.212 40.606 40.607 70.606-70.607-21.212-21.212z" fill="#ffffff" data-original="#000000" style=""/></g></g></svg>
