<svg id="svg" version="1.1" xmlns="http://www.w3.org/2000/svg" xmlns:xlink="http://www.w3.org/1999/xlink" width="400" height="400" viewBox="0, 0, 400,400"><g id="svgg"><path id="path0" d="M190.000 67.667 C 189.010 67.872,187.210 68.223,186.000 68.449 C 182.655 69.073,177.483 70.554,174.900 71.626 C 174.405 71.832,173.595 72.161,173.100 72.358 C 147.258 82.625,127.925 111.883,129.725 138.000 C 130.471 148.821,142.713 153.586,150.312 146.013 C 152.753 143.580,153.522 141.292,153.996 135.054 C 156.177 106.320,182.839 85.921,209.700 92.436 C 213.942 93.465,214.636 93.680,217.500 94.849 C 229.908 99.916,240.105 110.999,243.951 123.600 C 246.538 132.076,246.906 138.894,245.130 145.400 C 244.339 148.295,243.113 151.793,242.753 152.180 C 242.559 152.389,242.400 152.884,242.400 153.280 C 242.400 153.676,242.220 154.000,242.000 154.000 C 241.780 154.000,241.596 154.315,241.591 154.700 C 241.586 155.085,241.230 155.850,240.800 156.400 C 240.370 156.950,240.014 157.549,240.009 157.732 C 239.965 159.384,230.338 170.776,226.546 173.664 C 222.193 176.978,218.647 178.942,211.810 181.828 C 199.673 186.949,192.154 195.461,188.866 207.800 C 187.824 211.715,187.297 232.892,188.160 236.200 C 191.414 248.671,208.505 248.351,211.950 235.754 C 212.227 234.738,212.402 230.217,212.406 223.954 C 212.415 209.443,213.287 207.707,222.546 203.779 C 228.512 201.247,236.400 196.956,238.330 195.191 C 238.699 194.854,239.630 194.138,240.400 193.601 C 246.081 189.633,260.000 174.147,260.000 171.794 C 260.000 171.657,260.506 170.792,261.125 169.872 C 262.969 167.132,265.947 160.577,267.380 156.104 C 271.803 142.294,271.160 124.596,265.786 112.200 C 265.500 111.540,264.945 110.190,264.554 109.200 C 263.259 105.926,260.717 101.371,257.966 97.400 C 250.492 86.608,238.562 76.991,226.900 72.358 C 226.405 72.161,225.595 71.832,225.100 71.626 C 221.417 70.097,216.170 68.721,210.400 67.773 C 206.547 67.139,192.901 67.069,190.000 67.667 M195.519 284.372 C 179.961 289.347,179.735 310.492,195.186 315.564 C 207.471 319.597,219.597 307.471,215.564 295.186 C 212.748 286.609,203.734 281.746,195.519 284.372 " stroke="none" fill="#fbfbfb" fill-rule="evenodd"></path><path id="path1" d="M178.300 0.275 C 176.375 0.361,174.800 0.604,174.800 0.816 C 174.800 1.029,173.380 1.200,171.600 1.200 C 169.733 1.200,168.400 1.367,168.400 1.600 C 168.400 1.820,167.500 2.000,166.400 2.000 C 165.300 2.000,164.400 2.180,164.400 2.400 C 164.400 2.622,163.333 2.800,162.000 2.800 C 160.667 2.800,159.600 2.978,159.600 3.200 C 159.600 3.420,158.790 3.600,157.800 3.600 C 156.810 3.600,156.000 3.780,156.000 4.000 C 156.000 4.220,155.280 4.400,154.400 4.400 C 153.520 4.400,152.800 4.580,152.800 4.800 C 152.800 5.020,152.080 5.200,151.200 5.200 C 150.320 5.200,149.600 5.380,149.600 5.600 C 149.600 5.820,148.880 6.000,148.000 6.000 C 147.120 6.000,146.400 6.180,146.400 6.400 C 146.400 6.620,145.860 6.800,145.200 6.800 C 144.540 6.800,144.000 6.980,144.000 7.200 C 144.000 7.420,143.370 7.600,142.600 7.600 C 141.830 7.600,141.200 7.762,141.200 7.961 C 141.200 8.159,140.120 8.447,138.800 8.600 C 137.480 8.753,136.400 9.041,136.400 9.239 C 136.400 9.438,135.860 9.600,135.200 9.600 C 134.540 9.600,134.000 9.780,134.000 10.000 C 134.000 10.220,133.460 10.400,132.800 10.400 C 132.140 10.400,131.600 10.580,131.600 10.800 C 131.600 11.020,131.060 11.200,130.400 11.200 C 129.740 11.200,129.200 11.380,129.200 11.600 C 129.200 11.820,128.840 12.000,128.400 12.000 C 127.960 12.000,127.600 12.180,127.600 12.400 C 127.600 12.620,127.150 12.800,126.600 12.800 C 126.050 12.800,125.600 12.980,125.600 13.200 C 125.600 13.420,125.240 13.600,124.800 13.600 C 124.360 13.600,124.000 13.780,124.000 14.000 C 124.000 14.220,123.460 14.400,122.800 14.400 C 122.140 14.400,121.600 14.580,121.600 14.800 C 121.600 15.020,121.240 15.200,120.800 15.200 C 120.360 15.200,120.000 15.380,120.000 15.600 C 120.000 15.820,119.640 16.000,119.200 16.000 C 118.760 16.000,118.400 16.180,118.400 16.400 C 118.400 16.620,118.040 16.800,117.600 16.800 C 117.160 16.800,116.800 16.980,116.800 17.200 C 116.800 17.420,116.260 17.600,115.600 17.600 C 114.940 17.600,114.400 17.780,114.400 18.000 C 114.400 18.220,114.040 18.400,113.600 18.400 C 113.160 18.400,112.800 18.580,112.800 18.800 C 112.800 19.020,112.440 19.200,112.000 19.200 C 111.560 19.200,111.200 19.380,111.200 19.600 C 111.200 19.820,110.840 20.000,110.400 20.000 C 109.960 20.000,109.600 20.180,109.600 20.400 C 109.600 20.620,109.330 20.800,109.000 20.800 C 108.670 20.800,108.400 20.980,108.400 21.200 C 108.400 21.420,108.080 21.600,107.688 21.600 C 107.297 21.600,106.717 21.960,106.400 22.400 C 106.083 22.840,105.503 23.200,105.112 23.200 C 104.720 23.200,104.400 23.380,104.400 23.600 C 104.400 23.820,104.040 24.000,103.600 24.000 C 103.160 24.000,102.800 24.157,102.800 24.350 C 102.800 24.677,100.566 25.372,99.900 25.254 C 99.735 25.224,99.600 25.380,99.600 25.600 C 99.600 25.820,99.364 26.000,99.075 26.000 C 98.787 26.000,98.164 26.360,97.692 26.800 C 97.220 27.240,96.556 27.600,96.217 27.600 C 95.878 27.600,95.600 27.780,95.600 28.000 C 95.600 28.220,95.364 28.400,95.075 28.400 C 94.787 28.400,94.164 28.760,93.692 29.200 C 93.220 29.640,92.647 30.000,92.420 30.000 C 92.193 30.000,91.782 30.360,91.507 30.800 C 91.232 31.240,90.731 31.600,90.392 31.600 C 90.054 31.600,89.517 31.960,89.200 32.400 C 88.883 32.840,88.343 33.200,88.000 33.200 C 87.657 33.200,87.117 33.560,86.800 34.000 C 86.483 34.440,85.975 34.800,85.672 34.800 C 85.369 34.800,84.617 35.340,84.000 36.000 C 83.383 36.660,82.631 37.200,82.328 37.200 C 82.025 37.200,81.517 37.560,81.200 38.000 C 80.883 38.440,80.387 38.800,80.098 38.800 C 79.810 38.800,78.943 39.430,78.173 40.200 C 77.403 40.970,76.530 41.600,76.232 41.600 C 75.934 41.600,75.265 42.138,74.745 42.796 C 74.225 43.454,73.565 43.994,73.278 43.996 C 72.991 43.998,71.696 45.080,70.400 46.400 C 69.104 47.720,67.843 48.800,67.596 48.800 C 67.350 48.800,65.181 50.825,62.776 53.300 C 57.523 58.706,58.706 57.523,53.300 62.776 C 50.825 65.181,48.800 67.350,48.800 67.596 C 48.800 67.843,47.720 69.104,46.400 70.400 C 45.080 71.696,43.998 72.991,43.996 73.278 C 43.994 73.565,43.454 74.225,42.796 74.745 C 42.138 75.265,41.600 75.934,41.600 76.232 C 41.600 76.530,40.970 77.403,40.200 78.173 C 39.430 78.943,38.800 79.810,38.800 80.098 C 38.800 80.387,38.440 80.883,38.000 81.200 C 37.560 81.517,37.200 82.025,37.200 82.328 C 37.200 82.631,36.660 83.383,36.000 84.000 C 35.340 84.617,34.800 85.369,34.800 85.672 C 34.800 85.975,34.440 86.483,34.000 86.800 C 33.560 87.117,33.200 87.657,33.200 88.000 C 33.200 88.343,32.840 88.883,32.400 89.200 C 31.960 89.517,31.600 90.054,31.600 90.392 C 31.600 90.731,31.240 91.232,30.800 91.507 C 30.360 91.782,30.000 92.275,30.000 92.603 C 30.000 92.932,29.820 93.200,29.600 93.200 C 29.380 93.200,29.200 93.520,29.200 93.912 C 29.200 94.303,28.840 94.883,28.400 95.200 C 27.960 95.517,27.600 96.014,27.600 96.305 C 27.600 96.596,27.240 97.220,26.800 97.692 C 26.360 98.164,26.000 98.787,26.000 99.075 C 26.000 99.364,25.820 99.600,25.600 99.600 C 25.380 99.600,25.224 99.735,25.254 99.900 C 25.372 100.566,24.677 102.800,24.350 102.800 C 24.158 102.800,24.000 103.160,24.000 103.600 C 24.000 104.040,23.820 104.400,23.600 104.400 C 23.380 104.400,23.200 104.720,23.200 105.112 C 23.200 105.503,22.840 106.083,22.400 106.400 C 21.960 106.717,21.600 107.297,21.600 107.688 C 21.600 108.080,21.420 108.400,21.200 108.400 C 20.980 108.400,20.800 108.670,20.800 109.000 C 20.800 109.330,20.620 109.600,20.400 109.600 C 20.180 109.600,20.000 109.960,20.000 110.400 C 20.000 110.840,19.820 111.200,19.600 111.200 C 19.380 111.200,19.200 111.560,19.200 112.000 C 19.200 112.440,19.020 112.800,18.800 112.800 C 18.580 112.800,18.400 113.160,18.400 113.600 C 18.400 114.040,18.220 114.400,18.000 114.400 C 17.780 114.400,17.600 114.940,17.600 115.600 C 17.600 116.260,17.420 116.800,17.200 116.800 C 16.980 116.800,16.800 117.160,16.800 117.600 C 16.800 118.040,16.620 118.400,16.400 118.400 C 16.180 118.400,16.000 118.760,16.000 119.200 C 16.000 119.640,15.820 120.000,15.600 120.000 C 15.380 120.000,15.200 120.360,15.200 120.800 C 15.200 121.240,15.020 121.600,14.800 121.600 C 14.580 121.600,14.400 122.140,14.400 122.800 C 14.400 123.460,14.220 124.000,14.000 124.000 C 13.780 124.000,13.600 124.360,13.600 124.800 C 13.600 125.240,13.420 125.600,13.200 125.600 C 12.980 125.600,12.800 126.050,12.800 126.600 C 12.800 127.150,12.620 127.600,12.400 127.600 C 12.180 127.600,12.000 128.140,12.000 128.800 C 12.000 129.460,11.820 130.000,11.600 130.000 C 11.380 130.000,11.200 130.360,11.200 130.800 C 11.200 131.240,11.020 131.600,10.800 131.600 C 10.580 131.600,10.400 132.140,10.400 132.800 C 10.400 133.460,10.220 134.000,10.000 134.000 C 9.780 134.000,9.600 134.540,9.600 135.200 C 9.600 135.860,9.438 136.400,9.239 136.400 C 9.041 136.400,8.753 137.480,8.600 138.800 C 8.447 140.120,8.159 141.200,7.961 141.200 C 7.762 141.200,7.600 141.830,7.600 142.600 C 7.600 143.370,7.420 144.000,7.200 144.000 C 6.980 144.000,6.800 144.540,6.800 145.200 C 6.800 145.860,6.620 146.400,6.400 146.400 C 6.180 146.400,6.000 147.120,6.000 148.000 C 6.000 148.880,5.820 149.600,5.600 149.600 C 5.380 149.600,5.200 150.320,5.200 151.200 C 5.200 152.080,5.020 152.800,4.800 152.800 C 4.580 152.800,4.400 153.520,4.400 154.400 C 4.400 155.280,4.220 156.000,4.000 156.000 C 3.780 156.000,3.600 156.810,3.600 157.800 C 3.600 158.790,3.420 159.600,3.200 159.600 C 2.980 159.600,2.800 160.500,2.800 161.600 C 2.800 162.700,2.620 163.600,2.400 163.600 C 2.178 163.600,2.000 164.667,2.000 166.000 C 2.000 167.333,1.822 168.400,1.600 168.400 C 1.367 168.400,1.200 169.722,1.200 171.567 C 1.200 173.744,1.044 174.785,0.700 174.900 C -0.032 175.144,-0.032 224.856,0.700 225.100 C 1.044 225.215,1.200 226.256,1.200 228.433 C 1.200 230.278,1.367 231.600,1.600 231.600 C 1.822 231.600,2.000 232.667,2.000 234.000 C 2.000 235.333,2.178 236.400,2.400 236.400 C 2.620 236.400,2.800 237.300,2.800 238.400 C 2.800 239.500,2.980 240.400,3.200 240.400 C 3.420 240.400,3.600 241.210,3.600 242.200 C 3.600 243.190,3.780 244.000,4.000 244.000 C 4.220 244.000,4.400 244.720,4.400 245.600 C 4.400 246.480,4.580 247.200,4.800 247.200 C 5.020 247.200,5.200 247.920,5.200 248.800 C 5.200 249.680,5.380 250.400,5.600 250.400 C 5.820 250.400,6.000 251.120,6.000 252.000 C 6.000 252.880,6.180 253.600,6.400 253.600 C 6.620 253.600,6.800 254.140,6.800 254.800 C 6.800 255.460,6.980 256.000,7.200 256.000 C 7.420 256.000,7.600 256.630,7.600 257.400 C 7.600 258.170,7.762 258.800,7.961 258.800 C 8.159 258.800,8.447 259.880,8.600 261.200 C 8.753 262.520,9.041 263.600,9.239 263.600 C 9.438 263.600,9.600 264.140,9.600 264.800 C 9.600 265.460,9.780 266.000,10.000 266.000 C 10.220 266.000,10.400 266.540,10.400 267.200 C 10.400 267.860,10.580 268.400,10.800 268.400 C 11.020 268.400,11.200 268.760,11.200 269.200 C 11.200 269.640,11.380 270.000,11.600 270.000 C 11.820 270.000,12.000 270.540,12.000 271.200 C 12.000 271.860,12.180 272.400,12.400 272.400 C 12.620 272.400,12.800 272.940,12.800 273.600 C 12.800 274.260,12.980 274.800,13.200 274.800 C 13.420 274.800,13.600 275.070,13.600 275.400 C 13.600 275.730,13.780 276.000,14.000 276.000 C 14.220 276.000,14.400 276.540,14.400 277.200 C 14.400 277.860,14.580 278.400,14.800 278.400 C 15.020 278.400,15.200 278.760,15.200 279.200 C 15.200 279.640,15.380 280.000,15.600 280.000 C 15.820 280.000,16.000 280.360,16.000 280.800 C 16.000 281.240,16.180 281.600,16.400 281.600 C 16.620 281.600,16.800 281.960,16.800 282.400 C 16.800 282.840,16.980 283.200,17.200 283.200 C 17.420 283.200,17.600 283.560,17.600 284.000 C 17.600 284.440,17.780 284.800,18.000 284.800 C 18.220 284.800,18.400 285.340,18.400 286.000 C 18.400 286.660,18.580 287.200,18.800 287.200 C 19.020 287.200,19.200 287.560,19.200 288.000 C 19.200 288.440,19.380 288.800,19.600 288.800 C 19.820 288.800,20.000 289.160,20.000 289.600 C 20.000 290.040,20.180 290.400,20.400 290.400 C 20.620 290.400,20.800 290.670,20.800 291.000 C 20.800 291.330,20.980 291.600,21.200 291.600 C 21.420 291.600,21.600 291.920,21.600 292.312 C 21.600 292.703,21.960 293.283,22.400 293.600 C 22.840 293.917,23.200 294.497,23.200 294.888 C 23.200 295.280,23.380 295.600,23.600 295.600 C 23.820 295.600,24.000 295.960,24.000 296.400 C 24.000 296.840,24.158 297.200,24.350 297.200 C 24.543 297.200,24.808 297.741,24.940 298.402 C 25.073 299.063,25.209 299.738,25.244 299.902 C 25.279 300.066,25.643 300.435,26.054 300.723 C 26.464 301.010,26.800 301.595,26.800 302.023 C 26.800 302.450,26.980 302.800,27.200 302.800 C 27.420 302.800,27.600 303.120,27.600 303.512 C 27.600 303.903,27.960 304.483,28.400 304.800 C 28.840 305.117,29.200 305.697,29.200 306.088 C 29.200 306.480,29.380 306.800,29.600 306.800 C 29.820 306.800,30.000 307.148,30.000 307.573 C 30.000 307.998,30.360 308.460,30.800 308.600 C 31.240 308.740,31.600 309.162,31.600 309.539 C 31.600 309.915,31.960 310.483,32.400 310.800 C 32.840 311.117,33.200 311.657,33.200 312.000 C 33.200 312.343,33.560 312.883,34.000 313.200 C 34.440 313.517,34.800 314.025,34.800 314.328 C 34.800 314.631,35.340 315.383,36.000 316.000 C 36.660 316.617,37.200 317.369,37.200 317.672 C 37.200 317.975,37.560 318.483,38.000 318.800 C 38.440 319.117,38.800 319.613,38.800 319.902 C 38.800 320.190,39.430 321.057,40.200 321.827 C 40.970 322.597,41.600 323.470,41.600 323.768 C 41.600 324.066,42.138 324.735,42.796 325.255 C 43.454 325.775,43.994 326.434,43.996 326.719 C 43.998 327.005,45.260 328.481,46.800 330.000 C 48.340 331.519,49.600 332.956,49.600 333.195 C 49.600 333.527,53.992 338.029,58.104 341.913 C 58.271 342.071,60.194 344.045,62.376 346.300 C 64.559 348.555,66.547 350.400,66.794 350.400 C 67.042 350.400,68.304 351.480,69.600 352.800 C 70.896 354.120,72.191 355.204,72.478 355.209 C 72.765 355.214,73.619 355.934,74.376 356.809 C 75.133 357.684,75.982 358.400,76.263 358.400 C 76.544 358.400,77.403 359.030,78.173 359.800 C 78.943 360.570,79.810 361.200,80.098 361.200 C 80.387 361.200,80.883 361.560,81.200 362.000 C 81.517 362.440,82.025 362.800,82.328 362.800 C 82.631 362.800,83.383 363.340,84.000 364.000 C 84.617 364.660,85.369 365.200,85.672 365.200 C 85.975 365.200,86.483 365.560,86.800 366.000 C 87.117 366.440,87.657 366.800,88.000 366.800 C 88.343 366.800,88.883 367.160,89.200 367.600 C 89.517 368.040,90.054 368.400,90.392 368.400 C 90.731 368.400,91.232 368.760,91.507 369.200 C 91.782 369.640,92.275 370.000,92.603 370.000 C 92.932 370.000,93.200 370.180,93.200 370.400 C 93.200 370.620,93.520 370.800,93.912 370.800 C 94.303 370.800,94.883 371.160,95.200 371.600 C 95.517 372.040,96.097 372.400,96.488 372.400 C 96.880 372.400,97.200 372.580,97.200 372.800 C 97.200 373.020,97.520 373.200,97.912 373.200 C 98.303 373.200,98.875 373.550,99.183 373.977 C 99.491 374.404,100.431 374.870,101.272 375.012 C 102.112 375.154,102.800 375.434,102.800 375.635 C 102.800 375.836,103.120 376.000,103.512 376.000 C 103.903 376.000,104.483 376.360,104.800 376.800 C 105.117 377.240,105.697 377.600,106.088 377.600 C 106.480 377.600,106.800 377.780,106.800 378.000 C 106.800 378.220,107.160 378.400,107.600 378.400 C 108.040 378.400,108.400 378.580,108.400 378.800 C 108.400 379.020,108.670 379.200,109.000 379.200 C 109.330 379.200,109.600 379.380,109.600 379.600 C 109.600 379.820,109.960 380.000,110.400 380.000 C 110.840 380.000,111.200 380.180,111.200 380.400 C 111.200 380.620,111.560 380.800,112.000 380.800 C 112.440 380.800,112.800 380.980,112.800 381.200 C 112.800 381.420,113.340 381.600,114.000 381.600 C 114.660 381.600,115.200 381.780,115.200 382.000 C 115.200 382.220,115.560 382.400,116.000 382.400 C 116.440 382.400,116.800 382.580,116.800 382.800 C 116.800 383.020,117.160 383.200,117.600 383.200 C 118.040 383.200,118.400 383.380,118.400 383.600 C 118.400 383.820,118.760 384.000,119.200 384.000 C 119.640 384.000,120.000 384.180,120.000 384.400 C 120.000 384.620,120.360 384.800,120.800 384.800 C 121.240 384.800,121.600 384.980,121.600 385.200 C 121.600 385.420,122.140 385.600,122.800 385.600 C 123.460 385.600,124.000 385.780,124.000 386.000 C 124.000 386.220,124.360 386.400,124.800 386.400 C 125.240 386.400,125.600 386.580,125.600 386.800 C 125.600 387.020,126.050 387.200,126.600 387.200 C 127.150 387.200,127.600 387.380,127.600 387.600 C 127.600 387.820,128.140 388.000,128.800 388.000 C 129.460 388.000,130.000 388.180,130.000 388.400 C 130.000 388.620,130.360 388.800,130.800 388.800 C 131.240 388.800,131.600 388.980,131.600 389.200 C 131.600 389.420,132.140 389.600,132.800 389.600 C 133.460 389.600,134.000 389.780,134.000 390.000 C 134.000 390.220,134.540 390.400,135.200 390.400 C 135.860 390.400,136.400 390.562,136.400 390.761 C 136.400 390.959,137.480 391.247,138.800 391.400 C 140.120 391.553,141.200 391.841,141.200 392.039 C 141.200 392.238,141.830 392.400,142.600 392.400 C 143.370 392.400,144.000 392.580,144.000 392.800 C 144.000 393.020,144.540 393.200,145.200 393.200 C 145.860 393.200,146.400 393.380,146.400 393.600 C 146.400 393.820,147.120 394.000,148.000 394.000 C 148.880 394.000,149.600 394.180,149.600 394.400 C 149.600 394.620,150.320 394.800,151.200 394.800 C 152.080 394.800,152.800 394.980,152.800 395.200 C 152.800 395.420,153.700 395.600,154.800 395.600 C 155.900 395.600,156.800 395.780,156.800 396.000 C 156.800 396.220,157.430 396.400,158.200 396.400 C 158.970 396.400,159.600 396.580,159.600 396.800 C 159.600 397.022,160.667 397.200,162.000 397.200 C 163.333 397.200,164.400 397.378,164.400 397.600 C 164.400 397.822,165.467 398.000,166.800 398.000 C 168.133 398.000,169.200 398.178,169.200 398.400 C 169.200 398.628,170.389 398.800,171.967 398.800 C 173.824 398.800,174.788 398.964,174.900 399.300 C 175.144 400.032,224.856 400.032,225.100 399.300 C 225.212 398.964,226.176 398.800,228.033 398.800 C 229.611 398.800,230.800 398.628,230.800 398.400 C 230.800 398.171,232.000 398.000,233.600 398.000 C 235.200 398.000,236.400 397.829,236.400 397.600 C 236.400 397.380,237.300 397.200,238.400 397.200 C 239.500 397.200,240.400 397.020,240.400 396.800 C 240.400 396.580,241.030 396.400,241.800 396.400 C 242.570 396.400,243.200 396.220,243.200 396.000 C 243.200 395.780,244.100 395.600,245.200 395.600 C 246.300 395.600,247.200 395.420,247.200 395.200 C 247.200 394.980,247.920 394.800,248.800 394.800 C 249.680 394.800,250.400 394.620,250.400 394.400 C 250.400 394.180,251.120 394.000,252.000 394.000 C 252.880 394.000,253.600 393.820,253.600 393.600 C 253.600 393.380,254.140 393.200,254.800 393.200 C 255.460 393.200,256.000 393.020,256.000 392.800 C 256.000 392.580,256.630 392.400,257.400 392.400 C 258.170 392.400,258.800 392.238,258.800 392.039 C 258.800 391.841,259.880 391.553,261.200 391.400 C 262.520 391.247,263.600 390.959,263.600 390.761 C 263.600 390.562,264.140 390.400,264.800 390.400 C 265.460 390.400,266.000 390.220,266.000 390.000 C 266.000 389.780,266.540 389.600,267.200 389.600 C 267.860 389.600,268.400 389.420,268.400 389.200 C 268.400 388.980,268.760 388.800,269.200 388.800 C 269.640 388.800,270.000 388.620,270.000 388.400 C 270.000 388.180,270.540 388.000,271.200 388.000 C 271.860 388.000,272.400 387.820,272.400 387.600 C 272.400 387.380,272.940 387.200,273.600 387.200 C 274.260 387.200,274.800 387.020,274.800 386.800 C 274.800 386.580,275.070 386.400,275.400 386.400 C 275.730 386.400,276.000 386.220,276.000 386.000 C 276.000 385.780,276.540 385.600,277.200 385.600 C 277.860 385.600,278.400 385.420,278.400 385.200 C 278.400 384.980,278.760 384.800,279.200 384.800 C 279.640 384.800,280.000 384.620,280.000 384.400 C 280.000 384.180,280.360 384.000,280.800 384.000 C 281.240 384.000,281.600 383.820,281.600 383.600 C 281.600 383.380,281.960 383.200,282.400 383.200 C 282.840 383.200,283.200 383.020,283.200 382.800 C 283.200 382.580,283.560 382.400,284.000 382.400 C 284.440 382.400,284.800 382.220,284.800 382.000 C 284.800 381.780,285.340 381.600,286.000 381.600 C 286.660 381.600,287.200 381.420,287.200 381.200 C 287.200 380.980,287.560 380.800,288.000 380.800 C 288.440 380.800,288.800 380.620,288.800 380.400 C 288.800 380.180,289.160 380.000,289.600 380.000 C 290.040 380.000,290.400 379.820,290.400 379.600 C 290.400 379.380,290.670 379.200,291.000 379.200 C 291.330 379.200,291.600 379.020,291.600 378.800 C 291.600 378.580,291.960 378.400,292.400 378.400 C 292.840 378.400,293.200 378.220,293.200 378.000 C 293.200 377.780,293.520 377.600,293.912 377.600 C 294.303 377.600,294.883 377.240,295.200 376.800 C 295.517 376.360,296.097 376.000,296.488 376.000 C 296.880 376.000,297.200 375.836,297.200 375.635 C 297.200 375.434,297.888 375.154,298.728 375.012 C 299.569 374.870,300.509 374.404,300.817 373.977 C 301.125 373.550,301.697 373.200,302.088 373.200 C 302.480 373.200,302.800 373.020,302.800 372.800 C 302.800 372.580,303.120 372.400,303.512 372.400 C 303.903 372.400,304.483 372.040,304.800 371.600 C 305.117 371.160,305.697 370.800,306.088 370.800 C 306.480 370.800,306.800 370.620,306.800 370.400 C 306.800 370.180,307.148 370.000,307.573 370.000 C 307.998 370.000,308.460 369.640,308.600 369.200 C 308.740 368.760,309.162 368.400,309.539 368.400 C 309.915 368.400,310.483 368.040,310.800 367.600 C 311.117 367.160,311.657 366.800,312.000 366.800 C 312.343 366.800,312.883 366.440,313.200 366.000 C 313.517 365.560,314.025 365.200,314.328 365.200 C 314.631 365.200,315.383 364.660,316.000 364.000 C 316.617 363.340,317.369 362.800,317.672 362.800 C 317.975 362.800,318.483 362.440,318.800 362.000 C 319.117 361.560,319.613 361.200,319.902 361.200 C 320.190 361.200,321.057 360.570,321.827 359.800 C 322.597 359.030,323.456 358.400,323.737 358.400 C 324.018 358.400,324.867 357.684,325.624 356.809 C 326.381 355.934,327.235 355.214,327.522 355.209 C 327.809 355.204,329.104 354.120,330.400 352.800 C 331.696 351.480,332.952 350.400,333.192 350.400 C 333.432 350.400,335.427 348.555,337.627 346.300 C 342.434 341.372,341.372 342.434,346.300 337.627 C 348.555 335.427,350.400 333.432,350.400 333.192 C 350.400 332.952,351.480 331.696,352.800 330.400 C 354.120 329.104,355.204 327.809,355.209 327.522 C 355.214 327.235,355.934 326.381,356.809 325.624 C 357.684 324.867,358.400 324.018,358.400 323.737 C 358.400 323.456,359.030 322.597,359.800 321.827 C 360.570 321.057,361.200 320.190,361.200 319.902 C 361.200 319.613,361.560 319.117,362.000 318.800 C 362.440 318.483,362.800 317.975,362.800 317.672 C 362.800 317.369,363.340 316.617,364.000 316.000 C 364.660 315.383,365.200 314.631,365.200 314.328 C 365.200 314.025,365.560 313.517,366.000 313.200 C 366.440 312.883,366.800 312.343,366.800 312.000 C 366.800 311.657,367.160 311.117,367.600 310.800 C 368.040 310.483,368.400 309.915,368.400 309.539 C 368.400 309.162,368.760 308.740,369.200 308.600 C 369.640 308.460,370.000 307.998,370.000 307.573 C 370.000 307.148,370.180 306.800,370.400 306.800 C 370.620 306.800,370.800 306.480,370.800 306.088 C 370.800 305.697,371.160 305.117,371.600 304.800 C 372.040 304.483,372.400 303.903,372.400 303.512 C 372.400 303.120,372.580 302.800,372.800 302.800 C 373.020 302.800,373.200 302.480,373.200 302.088 C 373.200 301.697,373.550 301.125,373.977 300.817 C 374.404 300.509,374.870 299.569,375.012 298.728 C 375.154 297.888,375.434 297.200,375.635 297.200 C 375.836 297.200,376.000 296.880,376.000 296.488 C 376.000 296.097,376.360 295.517,376.800 295.200 C 377.240 294.883,377.600 294.303,377.600 293.912 C 377.600 293.520,377.780 293.200,378.000 293.200 C 378.220 293.200,378.400 292.840,378.400 292.400 C 378.400 291.960,378.580 291.600,378.800 291.600 C 379.020 291.600,379.200 291.330,379.200 291.000 C 379.200 290.670,379.380 290.400,379.600 290.400 C 379.820 290.400,380.000 290.040,380.000 289.600 C 380.000 289.160,380.180 288.800,380.400 288.800 C 380.620 288.800,380.800 288.440,380.800 288.000 C 380.800 287.560,380.980 287.200,381.200 287.200 C 381.420 287.200,381.600 286.660,381.600 286.000 C 381.600 285.340,381.780 284.800,382.000 284.800 C 382.220 284.800,382.400 284.440,382.400 284.000 C 382.400 283.560,382.580 283.200,382.800 283.200 C 383.020 283.200,383.200 282.840,383.200 282.400 C 383.200 281.960,383.380 281.600,383.600 281.600 C 383.820 281.600,384.000 281.240,384.000 280.800 C 384.000 280.360,384.180 280.000,384.400 280.000 C 384.620 280.000,384.800 279.640,384.800 279.200 C 384.800 278.760,384.980 278.400,385.200 278.400 C 385.420 278.400,385.600 277.860,385.600 277.200 C 385.600 276.540,385.780 276.000,386.000 276.000 C 386.220 276.000,386.400 275.730,386.400 275.400 C 386.400 275.070,386.580 274.800,386.800 274.800 C 387.020 274.800,387.200 274.260,387.200 273.600 C 387.200 272.940,387.380 272.400,387.600 272.400 C 387.820 272.400,388.000 271.860,388.000 271.200 C 388.000 270.540,388.180 270.000,388.400 270.000 C 388.620 270.000,388.800 269.640,388.800 269.200 C 388.800 268.760,388.980 268.400,389.200 268.400 C 389.420 268.400,389.600 267.860,389.600 267.200 C 389.600 266.540,389.780 266.000,390.000 266.000 C 390.220 266.000,390.400 265.460,390.400 264.800 C 390.400 264.140,390.562 263.600,390.761 263.600 C 390.959 263.600,391.247 262.520,391.400 261.200 C 391.553 259.880,391.841 258.800,392.039 258.800 C 392.238 258.800,392.400 258.170,392.400 257.400 C 392.400 256.630,392.580 256.000,392.800 256.000 C 393.020 256.000,393.200 255.460,393.200 254.800 C 393.200 254.140,393.380 253.600,393.600 253.600 C 393.820 253.600,394.000 252.880,394.000 252.000 C 394.000 251.120,394.180 250.400,394.400 250.400 C 394.620 250.400,394.800 249.680,394.800 248.800 C 394.800 247.920,394.980 247.200,395.200 247.200 C 395.420 247.200,395.600 246.300,395.600 245.200 C 395.600 244.100,395.780 243.200,396.000 243.200 C 396.220 243.200,396.400 242.570,396.400 241.800 C 396.400 241.030,396.580 240.400,396.800 240.400 C 397.022 240.400,397.200 239.333,397.200 238.000 C 397.200 236.667,397.378 235.600,397.600 235.600 C 397.820 235.600,398.000 234.700,398.000 233.600 C 398.000 232.500,398.180 231.600,398.400 231.600 C 398.633 231.600,398.800 230.278,398.800 228.433 C 398.800 226.256,398.956 225.215,399.300 225.100 C 399.693 224.969,399.800 219.591,399.800 200.000 C 399.800 180.409,399.693 175.031,399.300 174.900 C 398.956 174.785,398.800 173.744,398.800 171.567 C 398.800 169.722,398.633 168.400,398.400 168.400 C 398.178 168.400,398.000 167.333,398.000 166.000 C 398.000 164.667,397.822 163.600,397.600 163.600 C 397.380 163.600,397.200 162.700,397.200 161.600 C 397.200 160.500,397.020 159.600,396.800 159.600 C 396.580 159.600,396.400 158.970,396.400 158.200 C 396.400 157.430,396.220 156.800,396.000 156.800 C 395.780 156.800,395.600 155.900,395.600 154.800 C 395.600 153.700,395.420 152.800,395.200 152.800 C 394.980 152.800,394.800 152.080,394.800 151.200 C 394.800 150.320,394.620 149.600,394.400 149.600 C 394.180 149.600,394.000 148.880,394.000 148.000 C 394.000 147.120,393.820 146.400,393.600 146.400 C 393.380 146.400,393.200 145.860,393.200 145.200 C 393.200 144.540,393.020 144.000,392.800 144.000 C 392.580 144.000,392.400 143.370,392.400 142.600 C 392.400 141.830,392.238 141.200,392.039 141.200 C 391.841 141.200,391.553 140.120,391.400 138.800 C 391.247 137.480,390.959 136.400,390.761 136.400 C 390.562 136.400,390.400 135.860,390.400 135.200 C 390.400 134.540,390.220 134.000,390.000 134.000 C 389.780 134.000,389.600 133.460,389.600 132.800 C 389.600 132.140,389.420 131.600,389.200 131.600 C 388.980 131.600,388.800 131.240,388.800 130.800 C 388.800 130.360,388.620 130.000,388.400 130.000 C 388.180 130.000,388.000 129.460,388.000 128.800 C 388.000 128.140,387.820 127.600,387.600 127.600 C 387.380 127.600,387.200 127.150,387.200 126.600 C 387.200 126.050,387.020 125.600,386.800 125.600 C 386.580 125.600,386.400 125.240,386.400 124.800 C 386.400 124.360,386.220 124.000,386.000 124.000 C 385.780 124.000,385.600 123.460,385.600 122.800 C 385.600 122.140,385.420 121.600,385.200 121.600 C 384.980 121.600,384.800 121.240,384.800 120.800 C 384.800 120.360,384.620 120.000,384.400 120.000 C 384.180 120.000,384.000 119.640,384.000 119.200 C 384.000 118.760,383.820 118.400,383.600 118.400 C 383.380 118.400,383.200 118.040,383.200 117.600 C 383.200 117.160,383.020 116.800,382.800 116.800 C 382.580 116.800,382.400 116.260,382.400 115.600 C 382.400 114.940,382.220 114.400,382.000 114.400 C 381.780 114.400,381.600 114.040,381.600 113.600 C 381.600 113.160,381.420 112.800,381.200 112.800 C 380.980 112.800,380.800 112.440,380.800 112.000 C 380.800 111.560,380.620 111.200,380.400 111.200 C 380.180 111.200,380.000 110.840,380.000 110.400 C 380.000 109.960,379.820 109.600,379.600 109.600 C 379.380 109.600,379.200 109.330,379.200 109.000 C 379.200 108.670,379.020 108.400,378.800 108.400 C 378.580 108.400,378.400 108.040,378.400 107.600 C 378.400 107.160,378.220 106.800,378.000 106.800 C 377.780 106.800,377.600 106.480,377.600 106.088 C 377.600 105.697,377.240 105.117,376.800 104.800 C 376.360 104.483,376.000 103.903,376.000 103.512 C 376.000 103.120,375.836 102.800,375.635 102.800 C 375.434 102.800,375.149 102.080,375.000 101.200 C 374.851 100.320,374.566 99.600,374.365 99.600 C 374.164 99.600,374.000 99.280,374.000 98.888 C 374.000 98.497,373.640 97.917,373.200 97.600 C 372.760 97.283,372.400 96.743,372.400 96.400 C 372.400 96.057,372.040 95.517,371.600 95.200 C 371.160 94.883,370.800 94.303,370.800 93.912 C 370.800 93.520,370.620 93.200,370.400 93.200 C 370.180 93.200,370.000 92.932,370.000 92.603 C 370.000 92.275,369.640 91.782,369.200 91.507 C 368.760 91.232,368.400 90.731,368.400 90.392 C 368.400 90.054,368.040 89.517,367.600 89.200 C 367.160 88.883,366.800 88.343,366.800 88.000 C 366.800 87.657,366.440 87.117,366.000 86.800 C 365.560 86.483,365.200 85.975,365.200 85.672 C 365.200 85.369,364.660 84.617,364.000 84.000 C 363.340 83.383,362.800 82.631,362.800 82.328 C 362.800 82.025,362.440 81.517,362.000 81.200 C 361.560 80.883,361.200 80.387,361.200 80.098 C 361.200 79.810,360.570 78.943,359.800 78.173 C 359.030 77.403,358.400 76.544,358.400 76.263 C 358.400 75.982,357.684 75.133,356.809 74.376 C 355.934 73.619,355.214 72.765,355.209 72.478 C 355.204 72.191,354.120 70.896,352.800 69.600 C 351.480 68.304,350.400 67.042,350.400 66.794 C 350.400 66.547,348.555 64.559,346.300 62.376 C 344.045 60.194,342.071 58.271,341.914 58.104 C 338.081 54.038,332.720 48.800,332.391 48.800 C 332.151 48.800,330.896 47.720,329.600 46.400 C 328.304 45.080,327.009 43.998,326.722 43.996 C 326.435 43.994,325.775 43.454,325.255 42.796 C 324.735 42.138,324.066 41.600,323.768 41.600 C 323.470 41.600,322.597 40.970,321.827 40.200 C 321.057 39.430,320.190 38.800,319.902 38.800 C 319.613 38.800,319.117 38.440,318.800 38.000 C 318.483 37.560,317.975 37.200,317.672 37.200 C 317.369 37.200,316.617 36.660,316.000 36.000 C 315.383 35.340,314.631 34.800,314.328 34.800 C 314.025 34.800,313.517 34.440,313.200 34.000 C 312.883 33.560,312.343 33.200,312.000 33.200 C 311.657 33.200,311.117 32.840,310.800 32.400 C 310.483 31.960,309.915 31.600,309.539 31.600 C 309.162 31.600,308.740 31.240,308.600 30.800 C 308.460 30.360,307.998 30.000,307.573 30.000 C 307.148 30.000,306.800 29.820,306.800 29.600 C 306.800 29.380,306.480 29.200,306.088 29.200 C 305.697 29.200,305.117 28.840,304.800 28.400 C 304.483 27.960,303.903 27.600,303.512 27.600 C 303.120 27.600,302.800 27.420,302.800 27.200 C 302.800 26.980,302.450 26.800,302.023 26.800 C 301.595 26.800,300.962 26.395,300.615 25.900 C 300.268 25.405,299.899 25.041,299.794 25.090 C 299.367 25.293,297.200 24.675,297.200 24.350 C 297.200 24.157,296.880 24.000,296.488 24.000 C 296.097 24.000,295.517 23.640,295.200 23.200 C 294.883 22.760,294.303 22.400,293.912 22.400 C 293.520 22.400,293.200 22.220,293.200 22.000 C 293.200 21.780,292.840 21.600,292.400 21.600 C 291.960 21.600,291.600 21.420,291.600 21.200 C 291.600 20.980,291.330 20.800,291.000 20.800 C 290.670 20.800,290.400 20.620,290.400 20.400 C 290.400 20.180,290.040 20.000,289.600 20.000 C 289.160 20.000,288.800 19.820,288.800 19.600 C 288.800 19.380,288.440 19.200,288.000 19.200 C 287.560 19.200,287.200 19.020,287.200 18.800 C 287.200 18.580,286.840 18.400,286.400 18.400 C 285.960 18.400,285.600 18.220,285.600 18.000 C 285.600 17.780,285.060 17.600,284.400 17.600 C 283.740 17.600,283.200 17.420,283.200 17.200 C 283.200 16.980,282.840 16.800,282.400 16.800 C 281.960 16.800,281.600 16.620,281.600 16.400 C 281.600 16.180,281.240 16.000,280.800 16.000 C 280.360 16.000,280.000 15.820,280.000 15.600 C 280.000 15.380,279.640 15.200,279.200 15.200 C 278.760 15.200,278.400 15.020,278.400 14.800 C 278.400 14.580,277.860 14.400,277.200 14.400 C 276.540 14.400,276.000 14.220,276.000 14.000 C 276.000 13.780,275.730 13.600,275.400 13.600 C 275.070 13.600,274.800 13.420,274.800 13.200 C 274.800 12.980,274.260 12.800,273.600 12.800 C 272.940 12.800,272.400 12.620,272.400 12.400 C 272.400 12.180,271.860 12.000,271.200 12.000 C 270.540 12.000,270.000 11.820,270.000 11.600 C 270.000 11.380,269.640 11.200,269.200 11.200 C 268.760 11.200,268.400 11.020,268.400 10.800 C 268.400 10.580,267.860 10.400,267.200 10.400 C 266.540 10.400,266.000 10.220,266.000 10.000 C 266.000 9.780,265.460 9.600,264.800 9.600 C 264.140 9.600,263.600 9.438,263.600 9.239 C 263.600 9.041,262.520 8.753,261.200 8.600 C 259.880 8.447,258.800 8.159,258.800 7.961 C 258.800 7.762,258.170 7.600,257.400 7.600 C 256.630 7.600,256.000 7.420,256.000 7.200 C 256.000 6.980,255.460 6.800,254.800 6.800 C 254.140 6.800,253.600 6.620,253.600 6.400 C 253.600 6.180,252.880 6.000,252.000 6.000 C 251.120 6.000,250.400 5.820,250.400 5.600 C 250.400 5.380,249.680 5.200,248.800 5.200 C 247.920 5.200,247.200 5.020,247.200 4.800 C 247.200 4.580,246.300 4.400,245.200 4.400 C 244.100 4.400,243.200 4.220,243.200 4.000 C 243.200 3.780,242.570 3.600,241.800 3.600 C 241.030 3.600,240.400 3.420,240.400 3.200 C 240.400 2.980,239.500 2.800,238.400 2.800 C 237.300 2.800,236.400 2.620,236.400 2.400 C 236.400 2.178,235.333 2.000,234.000 2.000 C 232.667 2.000,231.600 1.822,231.600 1.600 C 231.600 1.367,230.278 1.200,228.433 1.200 C 226.282 1.200,225.214 1.042,225.103 0.708 C 224.941 0.222,187.291 -0.126,178.300 0.275 M206.870 66.797 C 213.462 67.439,221.995 69.562,227.109 71.833 C 231.941 73.979,236.503 76.381,236.733 76.900 C 236.807 77.065,237.044 77.200,237.261 77.200 C 237.639 77.200,241.184 79.482,241.600 79.993 C 241.710 80.128,242.430 80.676,243.200 81.210 C 246.899 83.777,253.753 90.638,256.402 94.428 C 256.930 95.182,257.472 95.890,257.607 96.000 C 258.923 97.071,262.826 103.978,265.541 110.040 C 269.576 119.047,271.811 132.564,270.847 142.130 C 269.858 151.940,265.980 163.648,261.525 170.272 C 260.906 171.192,260.400 172.137,260.400 172.372 C 260.400 172.607,260.220 172.800,260.000 172.800 C 259.780 172.800,259.600 173.036,259.600 173.325 C 259.600 173.613,259.240 174.236,258.800 174.708 C 258.360 175.180,257.997 175.709,257.993 175.883 C 257.951 177.704,245.364 190.825,240.243 194.386 C 239.779 194.708,239.094 195.254,238.719 195.598 C 236.571 197.572,226.961 202.670,221.300 204.838 C 219.925 205.365,218.800 205.932,218.800 206.098 C 218.800 206.264,218.545 206.400,218.234 206.400 C 217.280 206.400,214.473 209.957,213.613 212.256 C 212.873 214.236,212.800 215.353,212.800 224.755 C 212.800 237.422,212.496 238.704,208.576 242.588 C 204.092 247.029,195.908 247.029,191.424 242.588 C 187.499 238.700,187.200 237.431,187.200 224.673 C 187.200 212.307,187.645 208.777,189.984 202.600 C 190.674 200.775,193.451 195.591,193.946 195.200 C 194.086 195.090,194.614 194.410,195.120 193.689 C 198.855 188.367,204.966 183.910,212.800 180.793 C 216.575 179.291,221.776 176.680,222.400 175.974 C 222.510 175.849,223.500 175.142,224.600 174.402 C 229.023 171.425,239.600 159.331,239.600 157.249 C 239.600 157.039,239.735 156.807,239.900 156.733 C 240.190 156.604,241.687 153.645,242.497 151.600 C 242.715 151.050,243.052 150.287,243.247 149.905 C 243.441 149.523,243.600 148.859,243.600 148.429 C 243.600 147.999,243.760 147.548,243.956 147.427 C 244.321 147.202,244.447 146.637,245.208 141.800 C 245.675 138.836,245.430 130.685,244.810 128.600 C 244.615 127.940,244.244 126.590,243.988 125.600 C 243.732 124.610,243.360 123.487,243.161 123.105 C 242.962 122.723,242.800 122.144,242.800 121.818 C 242.800 121.491,242.440 120.583,242.000 119.800 C 241.560 119.017,241.200 118.111,241.200 117.788 C 241.200 117.465,241.064 117.200,240.898 117.200 C 240.731 117.200,240.341 116.615,240.030 115.900 C 236.331 107.392,224.456 97.339,214.600 94.371 C 213.720 94.106,212.640 93.746,212.200 93.572 C 210.467 92.884,203.239 91.885,200.000 91.885 C 197.712 91.885,196.183 92.056,189.497 93.059 C 188.671 93.183,187.895 93.445,187.774 93.642 C 187.652 93.839,187.124 94.000,186.600 94.000 C 186.076 94.000,185.536 94.180,185.400 94.400 C 185.264 94.620,184.832 94.800,184.441 94.800 C 178.825 94.800,163.328 108.162,159.969 115.900 C 159.659 116.615,159.269 117.200,159.102 117.200 C 158.936 117.200,158.800 117.436,158.800 117.725 C 158.800 118.014,158.440 118.995,158.000 119.906 C 157.560 120.816,157.200 121.752,157.200 121.986 C 157.200 122.220,157.038 122.723,156.839 123.105 C 156.470 123.816,155.967 125.609,155.241 128.800 C 155.016 129.790,154.636 133.008,154.397 135.952 C 153.892 142.152,153.179 144.012,150.282 146.682 C 144.108 152.373,136.522 151.387,130.820 144.153 C 127.329 139.724,128.969 123.971,134.310 110.624 C 136.193 105.918,141.088 97.063,142.393 96.000 C 142.528 95.890,143.071 95.170,143.600 94.400 C 144.129 93.630,144.843 92.730,145.186 92.400 C 145.529 92.070,146.797 90.642,148.005 89.228 C 149.797 87.128,153.227 84.049,158.009 80.248 C 159.593 78.989,162.388 77.200,162.772 77.200 C 163.007 77.200,163.201 77.065,163.203 76.900 C 163.205 76.735,163.610 76.396,164.103 76.147 C 168.889 73.727,170.836 72.777,172.200 72.198 C 173.080 71.824,174.160 71.364,174.600 71.176 C 183.174 67.506,196.111 65.750,206.870 66.797 M207.308 284.916 C 217.956 290.178,220.173 303.438,211.806 311.806 C 203.428 320.183,190.180 317.956,184.904 307.285 C 177.901 293.121,193.135 277.911,207.308 284.916 " stroke="none" fill="#4c4ce4" fill-rule="evenodd"></path><path id="path2" d="M197.700 66.696 C 198.965 66.775,201.035 66.775,202.300 66.696 C 203.565 66.616,202.530 66.551,200.000 66.551 C 197.470 66.551,196.435 66.616,197.700 66.696 M191.705 67.087 C 192.314 67.179,193.214 67.177,193.705 67.082 C 194.197 66.987,193.700 66.911,192.600 66.914 C 191.500 66.917,191.097 66.995,191.705 67.087 M206.505 67.087 C 207.114 67.179,208.014 67.177,208.505 67.082 C 208.997 66.987,208.500 66.911,207.400 66.914 C 206.300 66.917,205.897 66.995,206.505 67.087 M183.400 68.400 C 182.293 68.682,182.277 68.709,183.200 68.747 C 183.750 68.769,184.470 68.613,184.800 68.400 C 185.481 67.960,185.129 67.960,183.400 68.400 M151.185 86.032 L 147.800 89.263 151.300 86.147 C 154.527 83.274,155.006 82.800,154.685 82.800 C 154.622 82.800,153.047 84.254,151.185 86.032 M250.014 87.410 C 251.436 88.956,252.682 90.164,252.781 90.095 C 252.881 90.027,251.718 88.762,250.196 87.285 L 247.428 84.600 250.014 87.410 M196.500 91.876 C 196.885 91.976,197.515 91.976,197.900 91.876 C 198.285 91.775,197.970 91.693,197.200 91.693 C 196.430 91.693,196.115 91.775,196.500 91.876 M202.100 91.876 C 202.485 91.976,203.115 91.976,203.500 91.876 C 203.885 91.775,203.570 91.693,202.800 91.693 C 202.030 91.693,201.715 91.775,202.100 91.876 M141.364 97.329 C 140.909 98.028,140.215 99.095,139.822 99.700 C 139.429 100.305,139.193 100.800,139.297 100.800 C 139.566 100.800,142.486 96.353,142.324 96.191 C 142.251 96.117,141.818 96.629,141.364 97.329 M178.489 97.065 C 177.768 97.420,177.243 97.777,177.324 97.857 C 177.495 98.028,180.000 96.824,180.000 96.571 C 180.000 96.329,179.947 96.346,178.489 97.065 M221.200 97.164 C 221.750 97.614,222.380 97.983,222.600 97.985 C 223.028 97.988,222.305 97.434,221.000 96.760 C 220.469 96.485,220.536 96.621,221.200 97.164 M223.800 98.607 C 224.240 98.966,224.960 99.435,225.400 99.651 L 226.200 100.044 225.400 99.393 C 224.960 99.034,224.240 98.565,223.800 98.349 L 223.000 97.956 223.800 98.607 M170.175 102.900 L 169.000 104.200 170.300 103.025 C 171.512 101.930,171.784 101.600,171.475 101.600 C 171.406 101.600,170.821 102.185,170.175 102.900 M165.004 107.996 C 164.374 108.654,163.935 109.256,164.029 109.334 C 164.123 109.412,164.713 108.874,165.339 108.138 C 166.754 106.477,166.545 106.388,165.004 107.996 M265.913 111.819 C 266.284 112.820,266.639 113.482,266.703 113.291 C 266.831 112.906,265.693 110.000,265.414 110.000 C 265.317 110.000,265.542 110.819,265.913 111.819 M268.006 117.833 C 268.009 118.255,268.195 118.870,268.418 119.200 C 268.715 119.638,268.752 119.476,268.556 118.600 C 268.227 117.129,267.998 116.810,268.006 117.833 M270.509 131.200 C 270.509 132.190,270.587 132.595,270.682 132.100 C 270.778 131.605,270.778 130.795,270.682 130.300 C 270.587 129.805,270.509 130.210,270.509 131.200 M129.301 131.800 C 129.305 132.680,129.387 132.993,129.483 132.495 C 129.579 131.998,129.575 131.278,129.475 130.895 C 129.375 130.513,129.296 130.920,129.301 131.800 M154.256 133.445 C 154.115 134.472,154.024 136.142,154.054 137.156 C 154.089 138.351,154.229 137.743,154.451 135.430 C 154.816 131.640,154.685 130.313,154.256 133.445 M270.944 137.200 C 270.944 139.290,271.012 140.145,271.094 139.100 C 271.176 138.055,271.176 136.345,271.094 135.300 C 271.012 134.255,270.944 135.110,270.944 137.200 M128.928 136.400 C 128.928 137.830,129.001 138.415,129.089 137.700 C 129.178 136.985,129.178 135.815,129.089 135.100 C 129.001 134.385,128.928 134.970,128.928 136.400 M245.679 136.650 C 245.636 138.218,245.511 140.108,245.401 140.850 L 245.203 142.200 245.618 140.878 C 245.847 140.151,245.972 138.261,245.897 136.678 L 245.759 133.800 245.679 136.650 M270.501 143.000 C 270.505 143.880,270.587 144.193,270.683 143.695 C 270.779 143.198,270.775 142.478,270.675 142.095 C 270.575 141.713,270.496 142.120,270.501 143.000 M150.400 146.200 C 149.428 147.190,148.723 148.000,148.833 148.000 C 148.943 148.000,149.828 147.190,150.800 146.200 C 151.772 145.210,152.477 144.400,152.367 144.400 C 152.257 144.400,151.372 145.210,150.400 146.200 M131.612 145.053 C 131.599 145.527,134.587 148.400,135.092 148.400 C 135.252 148.400,134.714 147.849,133.898 147.176 C 133.081 146.503,132.236 145.648,132.019 145.276 C 131.802 144.904,131.619 144.804,131.612 145.053 M269.800 147.600 C 269.648 148.291,269.607 148.941,269.709 149.042 C 269.811 149.144,270.009 148.653,270.150 147.950 C 270.483 146.283,270.160 145.960,269.800 147.600 M141.105 150.283 C 141.602 150.379,142.322 150.375,142.705 150.275 C 143.087 150.175,142.680 150.096,141.800 150.101 C 140.920 150.105,140.607 150.187,141.105 150.283 M269.029 151.029 C 268.881 151.615,268.838 152.172,268.932 152.266 C 269.027 152.360,269.224 151.958,269.371 151.371 C 269.519 150.785,269.562 150.228,269.468 150.134 C 269.373 150.040,269.176 150.442,269.029 151.029 M237.455 160.800 C 236.431 162.340,235.678 163.600,235.782 163.600 C 235.885 163.600,236.666 162.565,237.515 161.300 C 239.398 158.499,239.695 158.000,239.482 158.000 C 239.392 158.000,238.480 159.260,237.455 160.800 M230.388 169.500 L 227.800 172.200 230.500 169.612 C 231.985 168.188,233.200 166.973,233.200 166.912 C 233.200 166.617,232.793 166.992,230.388 169.500 M252.575 182.500 L 251.400 183.800 252.700 182.625 C 253.415 181.979,254.000 181.394,254.000 181.325 C 254.000 181.016,253.670 181.288,252.575 182.500 M248.400 187.000 C 246.761 188.650,245.510 190.000,245.620 190.000 C 245.730 190.000,247.161 188.650,248.800 187.000 C 250.439 185.350,251.690 184.000,251.580 184.000 C 251.470 184.000,250.039 185.350,248.400 187.000 M198.778 189.500 L 197.400 191.000 198.900 189.622 C 200.296 188.338,200.584 188.000,200.278 188.000 C 200.212 188.000,199.537 188.675,198.778 189.500 M236.687 196.568 C 234.469 198.104,233.645 198.902,235.400 197.815 C 237.873 196.283,239.373 195.201,238.993 195.222 C 238.777 195.234,237.739 195.840,236.687 196.568 M215.847 208.001 C 215.051 208.882,214.400 209.728,214.400 209.881 C 214.400 210.035,214.535 209.989,214.701 209.780 C 214.867 209.571,215.622 208.725,216.380 207.900 C 217.137 207.075,217.653 206.400,217.525 206.400 C 217.397 206.400,216.642 207.121,215.847 208.001 M187.376 224.400 C 187.376 230.670,187.432 233.235,187.499 230.100 C 187.567 226.965,187.567 221.835,187.499 218.700 C 187.432 215.565,187.376 218.130,187.376 224.400 M212.575 225.200 C 212.575 231.030,212.631 233.415,212.699 230.500 C 212.767 227.585,212.767 222.815,212.699 219.900 C 212.631 216.985,212.575 219.370,212.575 225.200 M198.112 283.495 C 199.164 283.577,200.784 283.576,201.712 283.492 C 202.640 283.408,201.780 283.341,199.800 283.342 C 197.820 283.343,197.060 283.412,198.112 283.495 M190.160 286.348 C 188.278 287.734,186.742 289.381,185.821 291.000 C 185.152 292.177,185.153 292.181,185.854 291.200 C 186.832 289.833,189.980 286.716,191.200 285.906 C 191.750 285.541,192.092 285.233,191.960 285.221 C 191.828 285.209,191.018 285.717,190.160 286.348 M209.000 285.869 C 210.865 287.727,213.629 289.991,212.400 288.653 C 211.630 287.816,210.460 286.757,209.800 286.300 C 209.140 285.844,208.780 285.650,209.000 285.869 M183.342 299.800 C 183.341 301.780,183.408 302.640,183.492 301.712 C 183.576 300.784,183.577 299.164,183.495 298.112 C 183.412 297.060,183.343 297.820,183.342 299.800 M216.544 300.000 C 216.544 302.090,216.612 302.945,216.694 301.900 C 216.776 300.855,216.776 299.145,216.694 298.100 C 216.612 297.055,216.544 297.910,216.544 300.000 M186.300 309.800 C 186.757 310.460,187.816 311.630,188.653 312.400 C 189.870 313.518,189.783 313.358,188.222 311.600 C 185.596 308.644,185.326 308.391,186.300 309.800 M211.600 311.800 C 210.628 312.790,209.923 313.600,210.033 313.600 C 210.143 313.600,211.028 312.790,212.000 311.800 C 212.972 310.810,213.677 310.000,213.567 310.000 C 213.457 310.000,212.572 310.810,211.600 311.800 M198.100 316.694 C 199.145 316.776,200.855 316.776,201.900 316.694 C 202.945 316.612,202.090 316.544,200.000 316.544 C 197.910 316.544,197.055 316.612,198.100 316.694 " stroke="none" fill="#8d8df1" fill-rule="evenodd"></path><path id="path3" d="" stroke="none" fill="#a4a4f4" fill-rule="evenodd"></path><path id="path4" d="M197.700 67.096 C 198.965 67.175,201.035 67.175,202.300 67.096 C 203.565 67.016,202.530 66.951,200.000 66.951 C 197.470 66.951,196.435 67.016,197.700 67.096 M189.200 67.600 C 188.408 67.854,188.367 67.920,189.000 67.920 C 189.440 67.920,190.250 67.776,190.800 67.600 C 191.592 67.346,191.633 67.280,191.000 67.280 C 190.560 67.280,189.750 67.424,189.200 67.600 M185.000 68.400 C 184.496 68.617,184.422 68.744,184.800 68.744 C 185.130 68.744,185.760 68.589,186.200 68.400 C 186.704 68.183,186.778 68.056,186.400 68.056 C 186.070 68.056,185.440 68.211,185.000 68.400 M153.775 84.100 L 152.600 85.400 153.900 84.225 C 155.112 83.130,155.384 82.800,155.075 82.800 C 155.006 82.800,154.421 83.385,153.775 84.100 M249.600 87.400 C 250.795 88.610,251.863 89.600,251.973 89.600 C 252.083 89.600,251.195 88.610,250.000 87.400 C 248.805 86.190,247.737 85.200,247.627 85.200 C 247.517 85.200,248.405 86.190,249.600 87.400 M146.607 91.193 C 145.752 92.069,145.130 92.845,145.226 92.918 C 145.322 92.991,146.098 92.274,146.952 91.325 C 148.901 89.159,148.677 89.073,146.607 91.193 M253.429 91.638 C 254.073 92.429,254.681 93.008,254.779 92.925 C 254.878 92.842,254.351 92.195,253.609 91.487 L 252.258 90.200 253.429 91.638 M198.100 91.494 C 199.145 91.576,200.855 91.576,201.900 91.494 C 202.945 91.412,202.090 91.344,200.000 91.344 C 197.910 91.344,197.055 91.412,198.100 91.494 M229.087 102.009 C 229.795 102.751,230.442 103.278,230.525 103.179 C 230.608 103.081,230.029 102.473,229.238 101.829 L 227.800 100.658 229.087 102.009 M232.400 105.000 C 233.146 105.770,233.847 106.400,233.957 106.400 C 234.067 106.400,233.546 105.770,232.800 105.000 C 232.054 104.230,231.353 103.600,231.243 103.600 C 231.133 103.600,231.654 104.230,232.400 105.000 M269.058 123.600 C 269.375 125.325,269.602 125.651,269.594 124.367 C 269.591 123.835,269.411 123.130,269.194 122.800 C 268.918 122.378,268.877 122.615,269.058 123.600 M130.493 124.800 C 130.493 125.570,130.575 125.885,130.676 125.500 C 130.776 125.115,130.776 124.485,130.676 124.100 C 130.575 123.715,130.493 124.030,130.493 124.800 M244.258 125.600 C 244.575 127.325,244.802 127.651,244.794 126.367 C 244.791 125.835,244.611 125.130,244.394 124.800 C 244.118 124.378,244.077 124.615,244.258 125.600 M270.109 129.600 C 270.109 130.590,270.187 130.995,270.282 130.500 C 270.378 130.005,270.378 129.195,270.282 128.700 C 270.187 128.205,270.109 128.610,270.109 129.600 M129.720 130.400 C 129.720 131.610,129.795 132.105,129.887 131.500 C 129.978 130.895,129.978 129.905,129.887 129.300 C 129.795 128.695,129.720 129.190,129.720 130.400 M245.293 129.600 C 245.293 130.370,245.375 130.685,245.476 130.300 C 245.576 129.915,245.576 129.285,245.476 128.900 C 245.375 128.515,245.293 128.830,245.293 129.600 M154.493 130.000 C 154.493 130.770,154.575 131.085,154.676 130.700 C 154.776 130.315,154.776 129.685,154.676 129.300 C 154.575 128.915,154.493 129.230,154.493 130.000 M270.540 137.200 C 270.540 139.070,270.609 139.835,270.693 138.900 C 270.777 137.965,270.777 136.435,270.693 135.500 C 270.609 134.565,270.540 135.330,270.540 137.200 M129.324 136.600 C 129.326 137.920,129.401 138.412,129.490 137.693 C 129.579 136.974,129.577 135.894,129.486 135.293 C 129.395 134.692,129.322 135.280,129.324 136.600 M246.114 137.000 C 246.117 138.100,246.195 138.503,246.287 137.895 C 246.379 137.286,246.377 136.386,246.282 135.895 C 246.187 135.403,246.111 135.900,246.114 137.000 M153.693 139.200 C 153.693 139.970,153.775 140.285,153.876 139.900 C 153.976 139.515,153.976 138.885,153.876 138.500 C 153.775 138.115,153.693 138.430,153.693 139.200 M270.101 144.600 C 270.105 145.480,270.187 145.793,270.283 145.295 C 270.379 144.798,270.375 144.078,270.275 143.695 C 270.175 143.313,270.096 143.720,270.101 144.600 M269.246 148.867 C 269.221 149.234,269.096 149.864,268.970 150.267 C 268.752 150.962,268.763 150.963,269.197 150.287 C 269.448 149.896,269.573 149.266,269.473 148.887 C 269.311 148.268,269.288 148.266,269.246 148.867 M230.591 169.700 L 227.400 173.000 230.700 169.809 C 233.765 166.846,234.182 166.400,233.891 166.400 C 233.830 166.400,232.345 167.885,230.591 169.700 M251.775 182.900 L 250.600 184.200 251.900 183.025 C 252.615 182.379,253.200 181.794,253.200 181.725 C 253.200 181.416,252.870 181.688,251.775 182.900 M248.181 186.900 L 246.600 188.600 248.300 187.019 C 249.881 185.548,250.184 185.200,249.881 185.200 C 249.816 185.200,249.051 185.965,248.181 186.900 M187.818 212.218 C 187.665 213.239,187.622 214.155,187.722 214.255 C 187.822 214.355,188.029 213.602,188.182 212.582 C 188.335 211.561,188.378 210.645,188.278 210.545 C 188.178 210.445,187.971 211.198,187.818 212.218 M197.700 245.476 C 198.085 245.576,198.715 245.576,199.100 245.476 C 199.485 245.375,199.170 245.293,198.400 245.293 C 197.630 245.293,197.315 245.375,197.700 245.476 M200.900 245.476 C 201.285 245.576,201.915 245.576,202.300 245.476 C 202.685 245.375,202.370 245.293,201.600 245.293 C 200.830 245.293,200.515 245.375,200.900 245.476 M188.181 288.500 L 186.600 290.200 188.300 288.619 C 189.881 287.148,190.184 286.800,189.881 286.800 C 189.816 286.800,189.051 287.565,188.181 288.500 M211.400 288.400 C 212.259 289.280,213.052 290.000,213.162 290.000 C 213.272 290.000,212.659 289.280,211.800 288.400 C 210.941 287.520,210.148 286.800,210.038 286.800 C 209.928 286.800,210.541 287.520,211.400 288.400 M188.200 311.600 C 189.059 312.480,189.852 313.200,189.962 313.200 C 190.072 313.200,189.459 312.480,188.600 311.600 C 187.741 310.720,186.948 310.000,186.838 310.000 C 186.728 310.000,187.341 310.720,188.200 311.600 M211.381 311.700 L 209.800 313.400 211.500 311.819 C 212.435 310.949,213.200 310.184,213.200 310.119 C 213.200 309.816,212.852 310.119,211.381 311.700 " stroke="none" fill="#acacf4" fill-rule="evenodd"></path></g></svg>