<svg xmlns="http://www.w3.org/2000/svg" xmlns:xlink="http://www.w3.org/1999/xlink" width="134" height="134" viewBox="0 0 134 134">
  <defs>
    <style>
      .cls-1 {
        clip-path: url(#clip-refurbishment);
      }

      .cls-2 {
        fill: #fff;
      }
    </style>
    <clipPath id="clip-refurbishment">
      <rect width="134" height="134"/>
    </clipPath>
  </defs>
  <g id="refurbishment" class="cls-1">
    <path id="Path_38" data-name="Path 38" class="cls-2" d="M127.457,11.1a1.32,1.32,0,0,0-1.318-1.239H100.662A1.322,1.322,0,0,0,99.344,11.1l-2.99,47.848a1.322,1.322,0,0,1-1.319,1.239H89.559a1.321,1.321,0,0,1-1.321-1.321V38.358a1.32,1.32,0,0,0-1.946-1.163L66.052,48.07l-14.16,7.609V38.358a1.32,1.32,0,0,0-1.946-1.163L29.706,48.07,7.854,59.812a1.319,1.319,0,0,0-.7,1.163v66.854a1.32,1.32,0,0,0,1.321,1.321h.327l21.552-21.616-.01-.016L39.066,98.8l.2.2A29.3,29.3,0,0,1,78.833,63.8a2.887,2.887,0,0,1,.9,4.695L64.448,83.787a1.439,1.439,0,0,0-.4,1.276l1.339,7.31a1.451,1.451,0,0,0,1.17,1.167l7.25,1.3a1.491,1.491,0,0,0,1.317-.413L90.164,79.393a2.832,2.832,0,0,1,4.644.967,29.308,29.308,0,0,1-35.6,38.58l.2.2L49.758,129.15H133.43a1.32,1.32,0,0,0,1.318-1.4Z" transform="translate(-4.158 -2.86)"/>
  </g>
</svg>
