<svg width="14" height="12" viewBox="0 0 14 12" fill="none" xmlns="http://www.w3.org/2000/svg">
    <path d="M11.1988 5.73308V9.50146C11.1926 9.79291 11.0698 10.07 10.8573 10.2719C10.6448 10.4738 10.36 10.5839 10.0655 10.578H2.13322C1.83873 10.5839 1.55395 10.4738 1.34146 10.2719C1.12897 10.07 1.00615 9.79291 1 9.50146V1.96461C1.00612 1.67314 1.12893 1.39601 1.34142 1.19411C1.55392 0.992219 1.83871 0.882085 2.13322 0.887916H8.36582" stroke="#3491FF" stroke-linecap="round" stroke-linejoin="round"/>
    <path d="M11.6816 0L10.9393 0.73464L12.4239 2.20392L13.1662 1.46928L11.6816 0ZM10.1971 1.46928L7.22787 4.40784V5.87712H8.71246L11.6816 2.93856L10.1971 1.46928Z" fill="#3491FF"/>
</svg>
