<svg id="Layer_2" data-name="Layer 2" xmlns="http://www.w3.org/2000/svg" viewBox="0 0 330.6 513.48"><defs><style>.cls-1{fill:#fff;}</style></defs><ellipse class="cls-1" cx="167.74" cy="33" rx="17.04" ry="8.09"/><path class="cls-1" d="M421.55,422.07V405.88H340l52.89-54.16a5.93,5.93,0,0,0-4.25-10.07H377a5.32,5.32,0,0,0-.69,0h-68l-.14-.21L268.49,287.6a5.51,5.51,0,0,0,.82-.85,4.77,4.77,0,0,1,3.12-1.9c5.67-.86,23.43-1.82,55.63,11.5,33.26,13.76,37.61,8.35,38.13,6.17a5.27,5.27,0,0,1,.71-1.73l26.49-39.86a4.47,4.47,0,0,0,.48-.92c.71-1.89,2-8-6.42-15.92a4.5,4.5,0,0,0-1.11-.77l-44.78-22.89a4.83,4.83,0,0,1,.61-8.86l76.52-26.68a4.84,4.84,0,0,0,3.24-4.57v-73.5a4.9,4.9,0,0,0-.49-2.12,10.9,10.9,0,0,0,.59-3.5V90.7a11.67,11.67,0,0,0-.78-4.09l-.42-1A23.05,23.05,0,0,0,415.89,79c-7.5-7.35-15.07-14.64-22.26-22.29l-19.79-21a10.36,10.36,0,0,0,.89-4.12c0-18.22-51.74-33-115.56-33s-115.56,14.78-115.56,33L92,86.42l.86.46a12.4,12.4,0,0,0-1.34,5.41V469.52a11.17,11.17,0,0,0-.08,1.29,10.19,10.19,0,0,0,.08,1.24v1.34h.25c5.36,21.55,77.16,38.61,165,38.61C348,512,422,493.56,422,470.81a10.67,10.67,0,0,0-.48-3.11ZM259.17,8.28c51.47,0,93.19,10.41,93.19,23.24s-41.72,23.25-93.19,23.25S166,44.36,166,31.52,207.7,8.28,259.17,8.28ZM156.78,46.84C176.1,57.35,214.7,64.53,259.17,64.53c42.53,0,79.68-6.57,99.75-16.34a139.1,139.1,0,0,1,16.47,13L402.8,94.72c-27.95,34.74-254.14,44.2-293.86,1.44v-3l12.3-14.8C137.82,59.81,150.52,50.7,156.78,46.84ZM108.94,469.68V200.09l27.66,4.19a5.24,5.24,0,0,1,4.46,5.06l2.1,89.89a5.23,5.23,0,0,0,4.22,5l52.89,10.48a5.25,5.25,0,0,1,4.22,4.93l1.41,34.41a5.25,5.25,0,0,1-3.05,5l-60.47,27.71a5.24,5.24,0,0,0-2.24,7.57l21.45,33.86a5.28,5.28,0,0,0,3.56,2.36l99.59,16.87A5.24,5.24,0,0,0,270.1,445l4-6.56a5.24,5.24,0,0,0-3.55-7.88l-92.72-16.66a5.26,5.26,0,0,1-3.52-2.4l-6-9.68a5.24,5.24,0,0,1,2.26-7.52l49.16-22.61a5.25,5.25,0,0,0,3.05-4.77V307.77a5.25,5.25,0,0,0-4.26-5.15l-54.84-10.47a5.24,5.24,0,0,1-4.26-5.15V198.6a5.24,5.24,0,0,0-3.9-5.06l-46.55-12.35v-61.5c27.17,13.48,83.23,22.73,147.83,22.73,62,0,115.92-8.51,144.22-21.08V169.2a4.85,4.85,0,0,1-3.29,4.58L296.18,208.05a4.83,4.83,0,0,0-.55,8.93l72.79,35a4.83,4.83,0,0,1,2.07,6.79l-12,20.53a4.82,4.82,0,0,1-5.85,2.08c-14.93-5.58-70.29-24.94-97.28-15.82a30.17,30.17,0,0,1-6,1.27,5.87,5.87,0,0,0-5.09,4.91l-1.89,11.47a6,6,0,0,0,1.08,4.49L296.71,360a5.81,5.81,0,0,0,5.68,2.33h51.9L305.78,412A5.93,5.93,0,0,0,310,422.07h94.09v47.81c-27.32,13.37-83.06,22.53-147.39,22.53C192.08,492.41,136.11,483.16,108.94,469.68Z" transform="translate(-91.43 1.48)"/></svg>