<svg xmlns="http://www.w3.org/2000/svg" xmlns:xlink="http://www.w3.org/1999/xlink" width="134" height="134" viewBox="0 0 134 134">
  <defs>
    <style>
      .cls-1 {
        clip-path: url(#clip-Reject_rate);
      }

      .cls-2 {
        fill: #fff;
      }
    </style>
    <clipPath id="clip-Reject_rate">
      <rect width="134" height="134"/>
    </clipPath>
  </defs>
  <g id="Reject_rate" data-name="Reject rate" class="cls-1">
    <g id="Group_83" data-name="Group 83" transform="translate(-7.848 -6.535)">
      <path id="Path_70" data-name="Path 70" class="cls-2" d="M122.242,65.841c-.1-2.492-1.668-4.852-4.395-6.977,2.578-2.116,4.022-4.455,4.022-6.918V36.63c0,3.371-2.693,6.51-7.324,9.158A56.33,56.33,0,0,1,98.9,51.311c-1.347.293-2.731.564-4.161.807V67.437c8.074-1.372,14.892-3.554,19.676-6.259a7.19,7.19,0,0,1,2.258,4.9c0,5.756-8.884,10.754-21.934,13.289v9.163H109.8l-19,35.3v-21.3h-15v-21.4c-.186,0-.368.007-.555.007q-1.107,0-2.2-.021c-21.854-.417-39.223-6.992-39.223-15.042a6.981,6.981,0,0,1,1.989-4.615c8.439,4.567,22.776,7.573,39.045,7.573.317,0,.63-.007.945-.009V53.725l-.012-.011c-.312,0-.619.011-.933.011A121.8,121.8,0,0,1,57.346,52.5c-2.135-.312-4.184-.684-6.15-1.1a56.893,56.893,0,0,1-16.025-5.606C30.541,43.14,27.848,40,27.848,36.63V51.946c0,2.583,1.585,5.031,4.406,7.227-2.486,2.044-3.909,4.3-4,6.668,0,.081-.017.161-.017.242v48.358c0,9.441,21.048,17.094,47.011,17.094s47.01-7.653,47.01-17.094V66.083C122.258,66,122.245,65.922,122.242,65.841Z"/>
      <g id="Group_82" data-name="Group 82">
        <path id="Path_71" data-name="Path 71" class="cls-2" d="M92.89,49.417c.645-.1,1.281-.2,1.912-.309l.742-.128q1.032-.185,2.035-.386l.615-.128c.694-.145,1.382-.293,2.053-.45l.246-.06q1.019-.242,2-.5l.357-.094q1.034-.281,2.022-.579l.285-.087c1.428-.439,2.786-.906,4.06-1.4q.982-.383,1.9-.787l.028-.013a36.543,36.543,0,0,0,3.4-1.7,21.729,21.729,0,0,0,4.336-3.157l.028-.027c.176-.171.343-.343.5-.517l.065-.07c.148-.162.288-.324.423-.488.031-.037.061-.075.091-.112q.183-.229.35-.46l.106-.153c.1-.143.195-.288.285-.433.039-.063.075-.127.112-.191.079-.135.155-.27.225-.406.039-.077.074-.154.111-.231.059-.126.118-.251.17-.378.037-.09.068-.181.1-.272.042-.116.086-.231.122-.347s.058-.216.085-.323.056-.2.077-.306c.027-.132.044-.264.063-.4.011-.081.027-.161.036-.242a6.361,6.361,0,0,0,.034-.648c0-9.441-21.047-17.1-47.011-17.1a124.53,124.53,0,0,0-14.311.81L92.656,49.453C92.735,49.442,92.811,49.429,92.89,49.417Z"/>
        <path id="Path_72" data-name="Path 72" class="cls-2" d="M72.614,50.7l-1.723-1.634L41.818,21.473c-8.623,3.1-13.97,7.4-13.97,12.157a6.491,6.491,0,0,0,.051.764c.01.077.023.154.035.23.029.185.067.369.112.553.019.077.036.154.058.231a7.145,7.145,0,0,0,.242.714c.028.07.064.139.094.208.075.171.155.34.242.508.056.106.115.211.175.316.076.131.158.262.243.393.072.111.141.223.219.334.113.161.238.321.364.48.031.04.058.08.09.119.112.137.233.272.354.407.072.081.143.162.218.243q.2.218.423.433c.056.055.115.11.173.165.351.333.727.663,1.133.986.211.168.431.334.656.5l.08.058a26,26,0,0,0,2.361,1.516,36.959,36.959,0,0,0,3.4,1.7l.043.019a54.722,54.722,0,0,0,6.007,2.2l.229.069q.972.294,1.986.568l.247.068q2.2.588,4.6,1.082c.178.037.359.073.539.109q.927.184,1.878.356c.2.036.406.074.612.109q1.208.21,2.449.4l.063.009c.791.116,1.6.223,2.408.324.214.027.43.051.645.076l.2.025q.865.1,1.745.19c.309.031.617.063.929.092q1.044.1,2.106.177l.75.056q1.154.08,2.328.139c.349.017.7.031,1.054.046q.849.036,1.707.061c.367.01.734.021,1.1.028.141,0,.28.009.421.011Z"/>
      </g>
    </g>
  </g>
</svg>
