<svg xmlns="http://www.w3.org/2000/svg" xmlns:xlink="http://www.w3.org/1999/xlink" width="134" height="134" viewBox="0 0 134 134">
  <defs>
    <style>
      .cls-1 {
        clip-path: url(#clip-Relocation);
      }

      .cls-2 {
        fill: #fff;
      }
    </style>
    <clipPath id="clip-Relocation">
      <rect width="134" height="134"/>
    </clipPath>
  </defs>
  <g id="Relocation" class="cls-1">
    <g id="Group_35" data-name="Group 35" transform="translate(-3.272 -3.806)">
      <g id="Group_31" data-name="Group 31">
        <path id="Path_27" data-name="Path 27" class="cls-2" d="M112.591,36.456a41.369,41.369,0,0,0-18.2-19.59,48.681,48.681,0,0,0-47.044,0,41.374,41.374,0,0,0-18.2,19.59c-11.38,25.6,0,42.674,5.69,52.157,5.242,8.737,21.757,30.472,33.222,41.2a4.109,4.109,0,0,0,5.626,0c11.465-10.728,27.98-32.463,33.223-41.2C112.591,79.13,123.971,62.06,112.591,36.456Zm-41.725,55a33.665,33.665,0,1,1,33.665-33.665A33.666,33.666,0,0,1,70.866,91.458Z"/>
      </g>
      <g id="Group_34" data-name="Group 34">
        <g id="Group_32" data-name="Group 32">
          <path id="Path_28" data-name="Path 28" class="cls-2" d="M87.782,39.305v3.427A21.809,21.809,0,0,0,49.151,59.145a.569.569,0,0,0,.761.455l2.981-1.085a.56.56,0,0,0,.365-.581c-.046-.509-.074-1.023-.074-1.544A17.6,17.6,0,0,1,84.812,45.762H81.325a.567.567,0,0,0-.567.567v1.636a.567.567,0,0,0,.567.567h8.66a.567.567,0,0,0,.567-.567v-8.66a.567.567,0,0,0-.567-.567H88.349A.567.567,0,0,0,87.782,39.305Z"/>
        </g>
        <g id="Group_33" data-name="Group 33">
          <path id="Path_29" data-name="Path 29" class="cls-2" d="M92.536,54.765a.571.571,0,0,0-.766-.485l-3.424,1.246c.014.288.044.573.044.864a17.585,17.585,0,0,1-31,11.389h3.864a.567.567,0,0,0,.567-.567V65.576a.567.567,0,0,0-.567-.567H52.594a.567.567,0,0,0-.567.567v8.661a.567.567,0,0,0,.567.567h1.637a.567.567,0,0,0,.567-.567V71.209A21.8,21.8,0,0,0,92.6,56.39Q92.6,55.569,92.536,54.765Z"/>
        </g>
      </g>
    </g>
  </g>
</svg>
