<svg width="14" height="12" viewBox="0 0 14 12" fill="none" xmlns="http://www.w3.org/2000/svg">
    <path d="M6.924 1C5.95013 1 4.99812 1.28879 4.18837 1.82984C3.37863 2.3709 2.74751 3.13992 2.37482 4.03967C2.00213 4.93941 1.90462 5.92946 2.09462 6.88462C2.28461 7.83979 2.75357 8.71716 3.44221 9.40579C4.13084 10.0944 5.00821 10.5634 5.96338 10.7534C6.91854 10.9434 7.90859 10.8459 8.80834 10.4732C9.70808 10.1005 10.4771 9.46938 11.0182 8.65963C11.5592 7.84988 11.848 6.89787 11.848 5.924C11.8475 4.61824 11.3285 3.36611 10.4052 2.44279C9.4819 1.51948 8.22977 1.00053 6.924 1ZM9.386 6.416H4.462V5.431H9.386V6.416Z" fill="#3491FF"/>
</svg>
