<svg xmlns="http://www.w3.org/2000/svg" width="10.144" height="11.138" viewBox="0 0 10.144 11.138">
  <g id="Group_343" data-name="Group 343" transform="translate(1997.153 6359.029)">
    <path id="Path_2028" data-name="Path 2028" d="M-1952.914-6337.768l-.134,2.172a4.472,4.472,0,0,1,5.546-1.1l.062.032a5.162,5.162,0,0,1,1.18.9,4.891,4.891,0,0,1,.855,4.954" transform="translate(-42.433 -20.837)" fill="none" stroke="#fff" stroke-linecap="round" stroke-linejoin="round" stroke-width="0.8"/>
    <path id="Path_2029" data-name="Path 2029" d="M.134,0,0,2.173a4.472,4.472,0,0,1,5.547-1.1l.061.032a5.181,5.181,0,0,1,1.18.9,4.892,4.892,0,0,1,.855,4.955" transform="translate(-1988.68 -6348.314) rotate(180)" fill="none" stroke="#fff" stroke-linecap="round" stroke-linejoin="round" stroke-width="0.8"/>
    <path id="Path_2030" data-name="Path 2030" d="M-1940.179-6299.427v-2.887a3.374,3.374,0,0,0-2.314,1.273,2.765,2.765,0,0,0,1.412,4.155,2.818,2.818,0,0,0,3.644-2.012,2.937,2.937,0,0,0-1.066-2.83" transform="translate(-51.871 -53.976)" fill="none" stroke="#fff" stroke-linecap="round" stroke-linejoin="round" stroke-width="0.8"/>
  </g>
</svg>
