<svg xmlns="http://www.w3.org/2000/svg" xmlns:xlink="http://www.w3.org/1999/xlink" width="134" height="134" viewBox="0 0 134 134">
  <defs>
    <style>
      .cls-1 {
        clip-path: url(#clip-reset);
      }

      .cls-2 {
        fill: #fff;
      }
    </style>
    <clipPath id="clip-reset">
      <rect width="134" height="134"/>
    </clipPath>
  </defs>
  <g id="reset" class="cls-1">
    <g id="Group_49" data-name="Group 49" transform="translate(-4.243 -5.838)">
      <g id="Group_46" data-name="Group 46">
        <g id="Group_44" data-name="Group 44">
          <rect id="Rectangle_6" data-name="Rectangle 6" class="cls-2" width="9.654" height="37.412" rx="1.417" transform="translate(66.039 34.728)"/>
        </g>
        <g id="Group_45" data-name="Group 45">
          <path id="Path_33" data-name="Path 33" class="cls-2" d="M79.88,41.083a1.344,1.344,0,0,0-.6-.027v32.4a2.428,2.428,0,0,1-2.428,2.428H63.774a1.326,1.326,0,0,1-1.326-1.326V41.1l-.169-.131a33.563,33.563,0,1,0,17.6.119Z"/>
        </g>
      </g>
      <g id="Group_47" data-name="Group 47">
        <path id="Path_34" data-name="Path 34" class="cls-2" d="M71.363,24.5a48.5,48.5,0,0,1,44.076,28.268h5.32a1.46,1.46,0,0,0,1.459-1.46V29a1.46,1.46,0,0,0-1.459-1.46h-4.21A1.46,1.46,0,0,0,115.09,29v8.823a56.122,56.122,0,0,0-99.4,42.26,1.466,1.466,0,0,0,1.958,1.172l5.622-2.047A48.428,48.428,0,0,1,71.363,24.5Z"/>
      </g>
      <g id="Group_48" data-name="Group 48">
        <path id="Path_35" data-name="Path 35" class="cls-2" d="M127.323,68.81a1.469,1.469,0,0,0-1.971-1.247l-5.62,2.047c.077,1.12.131,2.246.131,3.386A48.5,48.5,0,0,1,28.242,95.188H24.553a1.459,1.459,0,0,0-1.459,1.459v22.3a1.46,1.46,0,0,0,1.459,1.46h4.21a1.46,1.46,0,0,0,1.459-1.46v-7.8A56.085,56.085,0,0,0,127.482,73Q127.482,70.882,127.323,68.81Z"/>
      </g>
    </g>
  </g>
</svg>
