<svg width="12" height="12" viewBox="0 0 12 12" fill="none" xmlns="http://www.w3.org/2000/svg">
    <path d="M1.53895 9.59054V10.3836C1.53896 10.4032 1.53509 10.4225 1.52756 10.4405C1.52003 10.4585 1.50898 10.4749 1.49505 10.4887C1.48112 10.5025 1.46457 10.5134 1.44637 10.5209C1.42816 10.5284 1.40866 10.5322 1.38895 10.5322H0.956522C0.936824 10.5322 0.917326 10.5283 0.899132 10.5209C0.880939 10.5134 0.864391 10.5024 0.850471 10.4886C0.836552 10.4748 0.825515 10.4585 0.817989 10.4405C0.810463 10.4224 0.806613 10.4031 0.806626 10.3836V8.11617C0.806613 8.09669 0.810461 8.07739 0.817989 8.05939C0.825517 8.04138 0.836574 8.02502 0.850496 8.01124C0.864418 7.99746 0.88094 7.98653 0.899132 7.97908C0.917325 7.97163 0.936833 7.96781 0.956522 7.96782H1.33563C1.75438 8.77356 2.38942 9.4495 3.17097 9.92141C3.95252 10.3933 4.85036 10.6429 5.76588 10.6428C7.08742 10.6428 8.35483 10.1233 9.2893 9.19843C10.2238 8.27359 10.7488 7.01925 10.7488 5.71133C10.7488 5.59542 10.7432 5.48093 10.7353 5.36704L11.3127 5.15881C11.3344 5.1509 11.3577 5.14804 11.3807 5.15046C11.4038 5.15289 11.4259 5.16052 11.4455 5.17278C11.4651 5.18504 11.4816 5.20159 11.4936 5.22115C11.5057 5.24071 11.5131 5.26276 11.5152 5.2856C11.5258 5.42605 11.5312 5.56793 11.5314 5.71123C11.5317 6.46084 11.3828 7.20316 11.0932 7.89581C10.8036 8.58846 10.3789 9.21788 9.84353 9.74812C9.30814 10.2784 8.67246 10.699 7.9728 10.9861C7.27313 11.2732 6.5232 11.4211 5.76578 11.4214C4.97164 11.4219 4.18601 11.2595 3.4585 10.9444C2.73098 10.6292 2.07737 10.1683 1.53895 9.59054ZM2.26696 5.75455C2.26693 5.00142 2.51851 4.26939 2.98252 3.67246C3.44653 3.07553 4.09692 2.64718 4.83246 2.4541L4.84975 2.46732V5.86955C4.84975 5.88726 4.85325 5.9048 4.86011 5.92116C4.86696 5.93752 4.87702 5.9524 4.88968 5.96492C4.90234 5.97745 4.91736 5.98737 4.9339 5.99414C4.95044 6.00091 4.96817 6.00438 4.98607 6.00437H6.33002C6.39616 6.00437 6.4596 5.97837 6.50637 5.93209C6.55315 5.88582 6.57944 5.82305 6.57947 5.75759V2.46315C6.59996 2.45945 6.62102 2.4604 6.64109 2.4659C7.3665 2.66645 8.00567 3.09643 8.46099 3.69021C8.91631 4.28399 9.16278 5.00893 9.16276 5.75434C9.16308 6.65962 8.80002 7.52794 8.15347 8.1683C7.50692 8.80867 6.62981 9.16862 5.71511 9.16897C5.26216 9.16887 4.81367 9.08046 4.39524 8.9088C3.97682 8.73714 3.59664 8.4856 3.27644 8.16853C2.95625 7.85146 2.70231 7.47507 2.5291 7.06086C2.35589 6.64665 2.26681 6.20272 2.26696 5.75444V5.75455ZM0.0461365 6.43224C-0.0451115 5.72326 -0.000748802 5.00362 0.176919 4.31088C0.468227 3.17831 1.10281 2.16111 1.99541 1.39596C2.888 0.630813 3.99585 0.154372 5.17008 0.0306526C6.12839 -0.0681489 7.09643 0.0727894 7.98539 0.440539C8.87435 0.808288 9.65576 1.39108 10.258 2.13544V1.23832C10.2579 1.21883 10.2618 1.19952 10.2693 1.18151C10.2769 1.1635 10.2879 1.14713 10.3018 1.13335C10.3157 1.11956 10.3323 1.10862 10.3505 1.10116C10.3687 1.0937 10.3882 1.08986 10.4079 1.08986H10.8403C10.86 1.08986 10.8795 1.0937 10.8977 1.10116C10.9159 1.10862 10.9324 1.11956 10.9463 1.13335C10.9602 1.14713 10.9713 1.1635 10.9788 1.18151C10.9863 1.19952 10.9902 1.21883 10.9902 1.23832V3.50578C10.9902 3.52527 10.9863 3.54458 10.9788 3.56259C10.9713 3.5806 10.9602 3.59696 10.9463 3.61075C10.9324 3.62454 10.9159 3.63547 10.8977 3.64293C10.8795 3.6504 10.86 3.65424 10.8403 3.65424H10.2937C9.89591 2.79654 9.25782 2.0698 8.45514 1.56031C7.65247 1.05083 6.71892 0.779986 5.76535 0.779937C4.44381 0.779937 3.17639 1.2995 2.24192 2.22434C1.30745 3.14917 0.782471 4.40352 0.782471 5.71143C0.782879 5.92282 0.796907 6.13397 0.824485 6.34358L0.247001 6.55172C0.230545 6.55771 0.213162 6.5608 0.195631 6.56087C0.159154 6.56109 0.123846 6.54814 0.0963275 6.52444C0.068809 6.50074 0.0509611 6.46793 0.0461365 6.43214V6.43224ZM5.36435 5.62399C5.32574 5.62399 5.28871 5.60881 5.26141 5.58179C5.23411 5.55477 5.21877 5.51812 5.21877 5.47991V1.96401C5.21877 1.92579 5.23411 1.88915 5.26141 1.86213C5.28871 1.83511 5.32574 1.81993 5.36435 1.81993H6.06494C6.10355 1.81993 6.14058 1.83511 6.16788 1.86213C6.19518 1.88915 6.21052 1.92579 6.21052 1.96401V5.47991C6.21052 5.51812 6.19518 5.55477 6.16788 5.58179C6.14058 5.60881 6.10355 5.62399 6.06494 5.62399H5.36435Z" fill="#3491FF"/>
</svg>
