<svg xmlns="http://www.w3.org/2000/svg" width="6.522" height="6.526" viewBox="0 0 6.522 6.526">
    <g id="Group_8665" data-name="Group 8665" transform="translate(-490 -204.894)">
        <rect id="Rectangle_16913" data-name="Rectangle 16913" width="0.6" height="2.324" rx="0.3" transform="translate(493.013 205.746)" fill="#595959"/>
        <path id="Path_2155" data-name="Path 2155" d="M38.986,38.208a.09.09,0,0,0-.037,0v2.011a.151.151,0,0,1-.151.151h-.814a.083.083,0,0,1-.083-.083V38.208l-.01-.008a2.086,2.086,0,1,0,1.094.008Z" transform="translate(454.888 167.933)" fill="#595959"/>
        <path id="Path_2156" data-name="Path 2156" d="M18.5,17.336a2.819,2.819,0,0,1,2.562,1.642h.309a.085.085,0,0,0,.085-.085V17.6a.085.085,0,0,0-.085-.085H21.13a.085.085,0,0,0-.085.085v.513a3.262,3.262,0,0,0-5.776,2.456.085.085,0,0,0,.116.068l.327-.119A2.814,2.814,0,0,1,18.5,17.336Z" transform="translate(474.757 188)" fill="#595959"/>
        <path id="Path_2157" data-name="Path 2157" d="M29.147,67.538a.085.085,0,0,0-.116-.073l-.327.116c0,.065.008.131.008.2a2.818,2.818,0,0,1-5.322,1.292h-.214a.085.085,0,0,0-.085.085v1.3a.085.085,0,0,0,.085.085h.245a.085.085,0,0,0,.085-.085V70a3.259,3.259,0,0,0,5.652-2.22C29.156,67.7,29.153,67.618,29.147,67.538Z" transform="translate(467.366 140.374)" fill="#595959"/>
    </g>
</svg>
