<svg width="12" height="13" viewBox="0 0 12 13" fill="none" xmlns="http://www.w3.org/2000/svg">
    <path d="M10.4357 9.61471C10.3339 9.52495 10.1819 9.52973 10.097 9.62668C10.012 9.72362 10.0288 9.87442 10.1305 9.96418C10.231 10.0515 10.383 10.048 10.468 9.95101C10.553 9.85407 10.5362 9.70208 10.4357 9.61471Z" fill="#3491FF"/>
    <path d="M9.69248 8.36401C8.48728 8.36401 7.51068 9.34062 7.51068 10.5458C7.51068 11.751 8.48728 12.7288 9.69248 12.7288C10.8977 12.7288 11.8743 11.7522 11.8743 10.547C11.8743 9.34181 10.8977 8.36401 9.69248 8.36401ZM10.7421 10.5159C10.5614 10.7229 10.2837 10.7959 10.0216 10.7409L9.03064 11.8755L8.66082 11.8874C8.60338 11.8898 8.53396 11.8252 8.52798 11.7737L8.4801 11.3166L8.4825 11.3118L8.75537 11.301L8.72785 11.0377L8.98995 11.0281L8.96482 10.7672L9.24367 10.7325L9.22572 10.4477L9.422 10.2227C9.32506 9.96895 9.36096 9.67812 9.54408 9.46868C9.81575 9.1575 10.267 9.10604 10.5961 9.39328C10.9252 9.68171 11.0138 10.2035 10.7421 10.5159Z" fill="#3491FF"/>
    <path d="M8.62134 7.48795C8.60458 7.46641 8.58783 7.45085 8.56748 7.4317C7.79793 6.66933 6.76986 6.18821 5.63528 6.14632C7.01521 6.03621 8.09833 4.92796 8.09833 3.57795C8.09833 2.15373 6.89433 1 5.40788 1C3.92263 1 2.71743 2.15373 2.71743 3.57795C2.71743 4.94352 3.82688 6.06135 5.22836 6.14991C3.04058 6.26959 1.26569 8.02173 1.00598 10.2598C1.00359 10.2741 1.00239 10.2885 1.0012 10.3029C1 10.3148 1 10.3256 1 10.3376C1 10.5985 1.20226 10.8115 1.45838 10.8283C1.46915 10.8295 1.48112 10.8295 1.49309 10.8295C1.50506 10.8295 1.51583 10.8295 1.5278 10.8283C1.5278 10.8283 5.47251 10.8295 6.50536 10.8295C6.67053 10.8019 6.80098 10.6727 6.8321 10.5087C6.85843 9.38132 7.48556 8.41549 8.47533 7.97266C8.49448 7.96668 8.51243 7.9583 8.52918 7.94873C8.62493 7.89607 8.68956 7.79314 8.68956 7.67705C8.68836 7.60524 8.66203 7.54061 8.62134 7.48795Z" fill="#3491FF"/>
</svg>
