<svg width="15" height="13" viewBox="0 0 15 13" fill="none" xmlns="http://www.w3.org/2000/svg">
    <path d="M5.40881 6.65393C6.9926 6.65393 8.27652 5.38826 8.27652 3.82697C8.27652 2.26568 6.9926 1 5.40881 1C3.82502 1 2.54111 2.26568 2.54111 3.82697C2.54111 5.38826 3.82502 6.65393 5.40881 6.65393Z" stroke="#3491FF" stroke-miterlimit="10"/>
    <path d="M6.98123 7.84982C6.98123 7.84982 4.61135 8.4954 2.52743 6.95156C2.45853 6.90044 2.36 6.91724 2.31185 6.98735C1.8807 7.61029 0.149405 10.3336 1.51621 12.0351H6.98123" stroke="#3491FF" stroke-miterlimit="10"/>
    <path d="M10.4662 5.78051C10.3936 5.78051 10.3322 5.83236 10.3203 5.9032L10.1758 6.77298C10.0025 6.82264 9.83729 6.88983 9.68172 6.97308L8.9535 6.46041C8.89497 6.41879 8.81422 6.42536 8.76311 6.47575L8.18675 7.04319C8.13563 7.09358 8.12897 7.17245 8.17045 7.23014L8.68236 7.9524C8.59642 8.10649 8.52679 8.27081 8.47493 8.44316L7.59632 8.58703C7.5252 8.59871 7.4726 8.66006 7.4726 8.73089V9.53422C7.4726 9.60506 7.52372 9.66567 7.59484 9.67809L8.47419 9.83145C8.5253 10.0038 8.59494 10.1674 8.68088 10.3222L8.1623 11.0372C8.12008 11.0949 8.12674 11.1745 8.17786 11.2248L8.75422 11.793C8.80533 11.8434 8.8846 11.85 8.94387 11.8098L9.67802 11.303C9.83433 11.387 9.99953 11.4549 10.1736 11.5045L10.3203 12.3758C10.3322 12.4459 10.3936 12.4977 10.4662 12.4977H11.2811C11.353 12.4977 11.4145 12.4466 11.4271 12.3773L11.5841 11.5031C11.7575 11.452 11.922 11.3833 12.0775 11.2993L12.8169 11.8105C12.8754 11.8514 12.9561 11.8441 13.0065 11.7945L13.5829 11.2256C13.634 11.1752 13.6406 11.0949 13.5984 11.0372L13.0717 10.3156C13.1562 10.163 13.2236 10.0016 13.2739 9.83218L14.1659 9.67809C14.237 9.66567 14.2881 9.60506 14.2881 9.53422V8.73089C14.2881 8.65933 14.2355 8.59871 14.1637 8.58703L13.2732 8.44389C13.2221 8.27446 13.1547 8.11307 13.0702 7.96117L13.5903 7.23087C13.6318 7.17318 13.6244 7.09358 13.574 7.04392L12.9976 6.47575C12.9465 6.42536 12.865 6.41879 12.8065 6.46041L12.0768 6.97746C11.9212 6.89348 11.756 6.82483 11.5827 6.77444L11.4278 5.90028C11.4152 5.83017 11.3537 5.77905 11.2819 5.77905H10.467L10.4662 5.78051ZM10.8804 6.2981H11.1571L11.2611 7.13228C11.27 7.1834 11.3086 7.2243 11.3597 7.23671C11.5545 7.28418 11.7367 7.36013 11.9034 7.45945C11.9494 7.48648 12.0064 7.48428 12.0501 7.45361L12.6724 7.01251L13.031 7.36598L12.5879 7.98819C12.5576 8.03054 12.5554 8.08678 12.5828 8.13132C12.6828 8.29564 12.7583 8.47456 12.8072 8.66517C12.8198 8.71629 12.8621 8.75426 12.9146 8.76303L13.674 8.88572V9.38524L12.9132 9.51669C12.8613 9.52545 12.8198 9.56416 12.8072 9.61455C12.7591 9.80516 12.6835 9.98408 12.5835 10.1477C12.5561 10.1922 12.5583 10.2492 12.5894 10.2915L13.0391 10.9064L12.6806 11.2599L12.0501 10.8239C12.0071 10.794 11.9501 10.7925 11.9049 10.8195C11.739 10.9189 11.556 10.9948 11.3626 11.0437C11.3115 11.0561 11.273 11.097 11.2641 11.1482L11.13 11.8938H10.6226L10.4974 11.1511C10.4885 11.0992 10.4499 11.0576 10.3981 11.0452C10.2033 10.9977 10.0203 10.9225 9.85211 10.8232C9.80692 10.7969 9.75062 10.7984 9.70765 10.8283L9.0824 11.2606L8.72384 10.9064L9.16611 10.2974C9.19722 10.255 9.19945 10.1981 9.1713 10.1535C9.06906 9.98773 8.99202 9.80662 8.94387 9.61382C8.93127 9.56343 8.88979 9.52545 8.83793 9.51669L8.08896 9.38524V8.88499L8.83719 8.7623C8.88979 8.75353 8.93127 8.71556 8.94461 8.66444C8.9935 8.47091 9.07055 8.29053 9.17204 8.12475C9.19945 8.0802 9.19722 8.02397 9.16759 7.98161L8.73051 7.36598L9.08907 7.01251L9.70913 7.44923C9.7521 7.47917 9.80914 7.48209 9.85507 7.45507C10.0218 7.35648 10.2062 7.28126 10.4011 7.23379C10.4529 7.22138 10.4922 7.17975 10.5003 7.12717L10.5921 6.2981H10.8804ZM10.8804 7.87415C10.2277 7.87415 9.61604 8.49647 9.61604 9.13986C9.61604 9.78325 10.1963 10.3625 10.8489 10.3625C11.5016 10.3625 12.0775 9.78325 12.0775 9.13986C12.0775 8.49647 11.533 7.87415 10.8804 7.87415ZM10.8804 8.26351C11.373 8.26351 11.7027 8.65421 11.7027 9.13986C11.7027 9.6255 11.373 10.0162 10.8804 10.0162C10.3877 10.0162 10.0075 9.6255 10.0075 9.13986C10.0075 8.65421 10.3877 8.26351 10.8804 8.26351Z" fill="#3491FF"/>
</svg>
