<?xml version="1.0" encoding="utf-8"?>
<!-- Generator: Adobe Illustrator 23.1.1, SVG Export Plug-In . SVG Version: 6.00 Build 0)  -->
<svg version="1.1" id="Layer_1" xmlns="http://www.w3.org/2000/svg" xmlns:xlink="http://www.w3.org/1999/xlink" x="0px" y="0px"
	 viewBox="0 0 400 400" style="enable-background:new 0 0 400 400;" xml:space="preserve">
<g>
	<circle cx="293.3" cy="107.7" r="33.7"/>
	<path d="M378.6,194.4L378.6,194.4c-3.7-7.4-12.7-10.5-20.1-6.8l-29.9,14.7L314,172.4c-0.7-1.4-1.5-2.6-2.5-3.7l0.2-0.5
		c0,0-24.5-19.5-50.9-23.9s-57.9,6.5-68.9,9.5c-11,3-24.5,21.9-24.5,21.9l-20.2,28c-4.9,6.7-3.3,16.1,3.4,20.9
		c6.7,4.9,16.1,3.3,20.9-3.4l20.2-28c0,0,5.6-6,6.1-10.5c0.5-4.5,22-6,22-6l-10.5,18c-15.5,25.9-19.1,66.7-19.8,77.3l-5.7,31.8
		c-0.7,0.6-1.3,1.3-1.9,2.1l-40.7,52.6c-5.7,7.4-4.4,18,3,23.7s18,4.4,23.7-3l40.7-52.6c1.3-1.6,2.2-3.5,2.8-5.4
		c2.7-2.4,4.7-5.7,5.4-9.6l7.4-41.5l35.3,26.7l-18.8,68.7c-2.5,9,2.8,18.3,11.8,20.8l0,0c9,2.5,18.3-2.8,20.8-11.8l20-73
		c0-0.1,0.1-0.1,0.1-0.2l0,0c5.6-7.4,4.2-18-3.3-23.7l-16.3-12.3l0.4-0.3c0,0-16.5-13.5-17-17c-0.5-3.5,30.4-57.4,30.4-57.4l8.7,14
		l11.1,22.6c0.2,0.6,0.4,1.1,0.7,1.7c1.4,2.8,3.6,5,6.1,6.4c4.2,2.4,9.5,2.8,14.2,0.5l0,0c0.7-0.3,1.3-0.7,1.9-1.1l41.3-20.4
		C379.3,210.8,382.3,201.8,378.6,194.4z"/>
</g>
<path d="M145.8,157.5H67.5c-4.7,0-8.5-3.8-8.5-8.5l0,0c0-4.7,3.8-8.5,8.5-8.5h78.3c4.7,0,8.5,3.8,8.5,8.5l0,0
	C154.3,153.7,150.5,157.5,145.8,157.5z"/>
<path d="M126.4,189.3H48.1c-4.7,0-8.5-3.8-8.5-8.5l0,0c0-4.7,3.8-8.5,8.5-8.5h78.3c4.7,0,8.5,3.8,8.5,8.5l0,0
	C134.9,185.5,131.1,189.3,126.4,189.3z"/>
<path d="M107,221.1H28.8c-4.7,0-8.5-3.8-8.5-8.5l0,0c0-4.7,3.8-8.5,8.5-8.5H107c4.7,0,8.5,3.8,8.5,8.5l0,0
	C115.6,217.2,111.7,221.1,107,221.1z"/>
<path d="M184.4,12.3c-24.3,0-43.9,19.7-43.9,44s19.7,44,43.9,44s43.9-19.7,43.9-44C228.3,32,208.6,12.3,184.4,12.3z M184.4,83.5
	c-15.1,0-27.3-12.2-27.3-27.3c0-15.1,12.2-27.3,27.3-27.3c15.1,0,27.3,12.2,27.3,27.3S199.4,83.5,184.4,83.5z"/>
<path d="M202.5,49h-13.2V36.3c0-2.7-2.1-4.8-4.8-4.8s-4.8,2.2-4.8,4.8v17.8c0,2.7,2.1,4.8,4.8,4.8c0.5,0,1.1-0.1,1.5-0.3h16.5
	c2.6,0,4.8-2.2,4.8-4.8C207.3,51.2,205.2,49,202.5,49z"/>
</svg>
