<svg width="12" height="12" viewBox="0 0 12 12" fill="none" xmlns="http://www.w3.org/2000/svg">
    <path d="M11.9223 5.03189C11.8746 4.73795 11.8056 4.45116 11.7168 4.17319L11.2744 4.35666L11.0829 3.8948C10.7483 3.08793 10.2267 2.37734 9.57183 1.81751L9.19178 1.49261L9.50318 1.12834C8.76593 0.597254 7.90327 0.229396 6.96811 0.0776962L6.93099 0.555457L6.43249 0.51673C6.28988 0.50565 6.14565 0.5 6 0.5C5.85435 0.5 5.71012 0.50565 5.56751 0.51673L5.06901 0.555457L5.03189 0.0776963C4.73795 0.12538 4.45116 0.19442 4.17319 0.283172L4.35666 0.725619L3.8948 0.917146C3.08793 1.25174 2.37734 1.77329 1.81751 2.42817L1.49261 2.80822L1.12834 2.49682C0.597254 3.23406 0.229396 4.09673 0.0776962 5.03189L0.555457 5.06901L0.51673 5.56751C0.50565 5.71012 0.5 5.85435 0.5 6C0.5 6.14565 0.50565 6.28988 0.51673 6.43249L0.555457 6.93099L0.0776964 6.96811C0.12538 7.26205 0.19442 7.54884 0.283172 7.82681L0.725619 7.64334L0.917146 8.1052C1.25174 8.91207 1.77329 9.62265 2.42817 10.1825L2.80822 10.5074L2.49682 10.8717C3.23406 11.4027 4.09673 11.7706 5.03189 11.9223L5.06901 11.4445L5.56751 11.4833C5.71012 11.4943 5.85435 11.5 6 11.5C6.14565 11.5 6.28988 11.4943 6.43249 11.4833L6.93099 11.4445L6.96811 11.9223C7.26205 11.8746 7.54884 11.8056 7.82681 11.7168L7.64334 11.2744L8.1052 11.0829C8.91207 10.7483 9.62265 10.2267 10.1825 9.57183L10.5074 9.19178L10.8717 9.50318C11.4027 8.76593 11.7706 7.90327 11.9223 6.96811L11.4445 6.93099L11.4833 6.43249C11.4943 6.28988 11.5 6.14565 11.5 6C11.5 5.85435 11.4943 5.71012 11.4833 5.56751L11.4445 5.06901L11.9223 5.03189Z" stroke="#E34537" stroke-linecap="square" stroke-dasharray="2 4 6 8"/>
</svg>
