<svg width="13" height="14" viewBox="0 0 13 14" fill="none" xmlns="http://www.w3.org/2000/svg">
    <path d="M5.58815 4.50244C5.3263 4.50244 5.10916 4.71734 5.10916 4.97649V7.94085C5.10916 8.16207 5.22412 8.36433 5.40933 8.4781L7.734 9.89392C7.94475 10.0203 8.21937 9.96345 8.35348 9.76119C8.50037 9.54629 8.43012 9.25554 8.2066 9.12281L6.06713 7.85236V4.97649C6.06713 4.71734 5.84999 4.50244 5.58815 4.50244Z" fill="#3491FF"/>
    <path d="M10.1672 7.03061C10.1992 7.23919 10.2183 7.44777 10.2183 7.66267C10.2183 10.1277 8.23854 12.0871 5.74782 12.0871C3.2571 12.0871 1.27729 10.1277 1.27729 7.66267C1.27729 5.19763 3.2571 3.23824 5.74782 3.23824C6.19487 3.23824 6.62276 3.30145 7.02511 3.42154V2.1195C6.61637 2.02469 6.18848 1.97412 5.74782 1.97412C2.55458 1.97412 0 4.50236 0 7.66267C0 10.823 2.55458 13.3512 5.74782 13.3512C8.94105 13.3512 11.4956 10.823 11.4956 7.66267C11.4956 7.44777 11.4829 7.23919 11.4573 7.03061H10.1672Z" fill="#3491FF"/>
    <path d="M11.8156 1.06763C11.6587 0.719448 11.3894 0.432665 11.0501 0.252244C10.7471 0.086783 10.4068 0 10.0608 0C9.71479 0 9.37444 0.086783 9.07151 0.252244C8.73215 0.432665 8.46289 0.719448 8.30594 1.06763C7.82736 2.13341 8.30594 2.84388 8.54523 3.23858C8.76571 3.60228 9.4603 4.50699 9.94247 4.95348C9.97451 4.98327 10.0168 4.99985 10.0608 4.99985C10.1048 4.99985 10.1471 4.98327 10.1791 4.95348C10.6613 4.50699 11.3559 3.60228 11.5763 3.23858C11.8156 2.84393 12.2945 2.13341 11.8156 1.06763ZM10.0608 2.58885C9.88751 2.58885 9.71813 2.538 9.57405 2.44272C9.42998 2.34745 9.31769 2.21203 9.25138 2.05359C9.18507 1.89516 9.16772 1.72082 9.20152 1.55263C9.23533 1.38443 9.31877 1.22994 9.44129 1.10867C9.56382 0.987413 9.71992 0.904832 9.88987 0.871377C10.0598 0.837921 10.236 0.855091 10.3961 0.920718C10.5561 0.986344 10.693 1.09748 10.7892 1.24007C10.8855 1.38265 10.9369 1.55029 10.9369 1.72178C10.9369 1.83565 10.9142 1.9484 10.8702 2.0536C10.8262 2.1588 10.7617 2.25439 10.6803 2.33491C10.5989 2.41542 10.5024 2.47929 10.3961 2.52286C10.2898 2.56643 10.1758 2.58885 10.0608 2.58885Z" fill="#3491FF"/>
    <path d="M10.0608 6.11996C10.7926 6.11996 11.3859 5.93576 11.3859 5.70854C11.3859 5.48132 10.7926 5.29712 10.0608 5.29712C9.329 5.29712 8.73575 5.48132 8.73575 5.70854C8.73575 5.93576 9.329 6.11996 10.0608 6.11996Z" fill="#3491FF"/>
</svg>
