<svg width="27" height="27" viewBox="0 0 27 27" fill="none" xmlns="http://www.w3.org/2000/svg">
    <path d="M5.98535 0.0626431C5.40527 0.268312 5.08359 0.848406 5.21543 1.45487C5.27344 1.70272 5.33144 1.80292 5.54238 2.01386C5.67949 2.15097 5.83242 2.26699 5.87988 2.26699C5.94844 2.26699 5.95898 2.35665 5.95898 2.82072C5.95898 3.3428 5.96953 3.38499 6.09082 3.50628L6.21738 3.63812H8.06836H9.91406V4.03364V4.42916H5.44746C1.05996 4.42916 0.970312 4.43443 0.738281 4.5399C0.421875 4.68229 0.274219 4.82467 0.126563 5.14109L0 5.40477V13.2624C0 21.0567 0.00527344 21.12 0.110742 21.3573C0.242578 21.6526 0.390234 21.8108 0.65918 21.9532C0.870117 22.0692 0.89121 22.0692 5.33144 22.0956L9.79277 22.122L9.71895 22.4858C9.58184 23.1609 9.14941 23.9255 8.62734 24.4054L8.38477 24.6269H7.41445C6.45469 24.6269 6.44414 24.6269 6.16465 24.7746C5.98535 24.8642 5.82187 25.0066 5.72168 25.149C5.57402 25.3547 5.56348 25.4127 5.56348 25.8135C5.56348 26.2143 5.57402 26.2723 5.72168 26.4779C5.82187 26.6203 5.98535 26.7627 6.16465 26.8524L6.44414 27H13.4947H20.5453L20.8354 26.8524C21.0199 26.7574 21.1729 26.6309 21.2783 26.4832C21.4207 26.2723 21.4365 26.2143 21.4365 25.8135C21.4365 25.4127 21.4207 25.3547 21.2783 25.1437C21.1729 24.9961 21.0199 24.8695 20.8354 24.7693C20.5506 24.6269 20.5295 24.6269 19.5803 24.6269H18.6152L18.3727 24.4054C17.8506 23.9255 17.4182 23.1609 17.2811 22.4858L17.2072 22.122L21.6686 22.0956C26.1088 22.0692 26.1299 22.0692 26.3408 21.9532C26.6098 21.8108 26.7574 21.6526 26.8893 21.3573C26.9947 21.12 27 21.0567 27 13.2624C27 5.46805 26.9947 5.40477 26.8893 5.16746C26.7469 4.85104 26.6045 4.70338 26.2881 4.55572L26.0244 4.42916H23.066C20.1656 4.42916 17.9783 4.42916 17.8676 4.53463C17.7094 4.68229 17.75 5.01204 17.9082 5.15971C18.0189 5.26518 20.1656 5.22019 23.0291 5.22019H25.9506L26.0771 5.35203L26.209 5.4786V13.2624V21.0462L26.0771 21.1727L25.9506 21.3046H13.5H1.04941L0.922852 21.1727L0.791016 21.0462V13.2624V5.4786L0.922852 5.35203L1.04941 5.22019H5.48437H9.91406V5.61571V6.01123H5.87988H1.84043L1.71387 6.14306L1.58203 6.26963V11.617C1.58203 16.9486 1.58203 18.7932 1.69277 18.9355C1.84043 19.1254 2.22539 20.3652 2.37305 20.1754C2.48379 20.033 2.37305 16.9433 2.37305 11.886V6.80226H6.14355H9.91406V7.86225V8.91696L8.99648 9.35994C8.09473 9.79237 8.07363 9.80292 8.0209 10.0033C7.93652 10.2986 7.94707 16.4212 8.03145 16.6586C8.09473 16.8379 8.1791 16.88 10.7262 18.0982C12.1711 18.7891 13.4209 19.3533 13.5 19.3533C13.5791 19.3533 13.9377 19.2162 14.2963 19.0422C16.1209 18.1773 16.6324 17.9189 16.6957 17.8346C16.8486 17.6342 16.759 17.3388 16.5164 17.2545C16.3371 17.1912 16.2 17.2492 14.8078 17.9189L13.9219 18.3461V15.5617V12.7772L15.9891 11.7858C17.1281 11.2426 18.0879 10.7891 18.1248 10.7733C18.1828 10.7522 18.1934 11.2584 18.1934 13.5208V16.2947L17.8822 16.4529C17.4076 16.6902 15.2176 17.7023 15.4286 17.9712C15.5868 18.1716 15.9209 18.3461 18.4465 17.0646C18.8895 16.8484 18.9264 16.8115 18.9791 16.6269C19.0582 16.3474 19.0582 10.2775 18.9791 10.0033C18.9264 9.80292 18.9053 9.79237 18.0035 9.35994L17.0859 8.91696V7.85697V6.80226H20.8564H24.627V13.2624V19.7225H13.5H2.37305V19.0633C2.37305 18.4305 2.36777 18.3936 2.24121 18.2723C2.07773 18.1035 1.87734 18.1035 1.71387 18.2723C1.58203 18.3988 1.58203 18.4147 1.58203 19.327C1.58203 20.2393 1.58203 20.2551 1.71387 20.3817L1.84043 20.5135H13.5H25.1596L25.2861 20.3817L25.418 20.2551V13.2624V6.26963L25.2861 6.14306L25.1596 6.01123H21.1201H17.0859V5.61571V5.22019H17.8928C18.6311 5.22019 18.7102 5.20964 18.8156 5.11472C18.8895 5.04089 18.9316 4.94069 18.9316 4.82467C18.9316 4.70865 18.8895 4.60846 18.8156 4.53463C18.7102 4.4397 18.6311 4.42916 17.8928 4.42916H17.0859V4.03364V3.63812H18.9316H20.7826L20.9092 3.50628C21.0305 3.38499 21.041 3.3428 21.041 2.82072C21.041 2.40938 21.0568 2.26699 21.1096 2.26699C21.2309 2.26699 21.5684 1.94531 21.6844 1.72382C21.8426 1.42322 21.8426 0.948603 21.6844 0.64801C21.3258 -0.0428276 20.4398 -0.211582 19.8703 0.305227C19.5012 0.637463 19.3799 1.05935 19.517 1.54452C19.5803 1.77128 19.8756 2.12988 20.1023 2.2459C20.2342 2.31446 20.25 2.35137 20.25 2.58341V2.84709H18.4043H16.5533L16.4268 2.97893C16.3002 3.10022 16.2949 3.13713 16.2949 3.76996V4.42916H15.1084H13.9219L13.9271 3.35862V2.29336L14.175 2.13515C14.5336 1.90312 14.6707 1.6078 14.6496 1.12263C14.6285 0.637463 14.4492 0.357964 14.0326 0.141747C13.6477 -0.0481014 13.3418 -0.0481014 12.9674 0.14702C12.5455 0.363237 12.3715 0.642736 12.3504 1.12263C12.3293 1.6078 12.4664 1.90312 12.825 2.13515L13.0729 2.29336V3.35862L13.0781 4.42916H11.8916H10.7051V3.76996C10.7051 3.13713 10.6998 3.10022 10.5732 2.97893L10.4467 2.84709H8.5957H6.75V2.58341C6.75 2.35137 6.76582 2.31446 6.89766 2.2459C7.27734 2.05078 7.54102 1.59198 7.54102 1.13318C7.53574 0.389605 6.69727 -0.185215 5.98535 0.0626431ZM6.61816 0.922235C6.69199 0.990791 6.75 1.11208 6.75 1.18591C6.75 1.35994 6.52852 1.58143 6.35449 1.58143C6.18047 1.58143 5.95898 1.35994 5.95898 1.18591C5.95898 1.01189 6.18047 0.790396 6.35449 0.790396C6.42832 0.790396 6.54961 0.848406 6.61816 0.922235ZM13.7531 0.895868C14.001 1.1279 13.8322 1.58143 13.5 1.58143C13.2996 1.58143 13.1309 1.40213 13.1309 1.18591C13.1309 0.969698 13.2996 0.790396 13.5 0.790396C13.5738 0.790396 13.6898 0.837858 13.7531 0.895868ZM20.9092 0.922235C20.983 0.990791 21.041 1.11208 21.041 1.18591C21.041 1.25974 20.983 1.38103 20.9092 1.44959C20.8406 1.52342 20.7193 1.58143 20.6455 1.58143C20.5717 1.58143 20.4504 1.52342 20.3818 1.44959C20.308 1.38103 20.25 1.25974 20.25 1.18591C20.25 1.11208 20.308 0.990791 20.3818 0.922235C20.4504 0.848406 20.5717 0.790396 20.6455 0.790396C20.7193 0.790396 20.8406 0.848406 20.9092 0.922235ZM13.0781 5.61571V6.01123H11.8916H10.7051V5.61571V5.22019H11.8916H13.0781V5.61571ZM16.2949 5.61571V6.01123H15.1084H13.9219V5.61571V5.22019H15.1084H16.2949V5.61571ZM13.0781 7.10813V7.41927L12.5139 7.68295C12.1975 7.8306 11.6648 8.08374 11.3273 8.24194L10.7051 8.53726V7.6724V6.80226H11.8916H13.0781V7.10813ZM16.2949 7.6724V8.53726L15.467 8.14175C15.0082 7.92026 14.4756 7.6724 14.2805 7.58275L13.9219 7.41927V7.1134V6.80226H15.1084H16.2949V7.6724ZM15.583 9.07517C16.6852 9.60252 17.6027 10.0508 17.6291 10.0666C17.6607 10.0982 14.0326 11.8754 13.6055 12.0336C13.4895 12.0758 13.1889 11.9493 11.417 11.1002C10.2885 10.557 9.3498 10.1035 9.33926 10.093C9.32871 10.0824 9.47109 10.0033 9.65566 9.91894C9.84023 9.83456 10.7631 9.39685 11.707 8.94333C12.651 8.4898 13.4578 8.12065 13.5 8.12065C13.5422 8.12065 14.4809 8.55309 15.583 9.07517ZM10.9582 11.7594L13.0518 12.7561L13.0676 15.5511L13.0781 18.3461L12.4875 18.0613C12.1605 17.9084 11.2061 17.4496 10.3623 17.0488L8.83301 16.3158L8.81719 13.5366C8.81191 12.0073 8.81719 10.7574 8.83301 10.7574C8.84883 10.7574 9.80332 11.2057 10.9582 11.7594ZM16.4268 22.2907C16.5533 23.0343 16.8117 23.6829 17.2125 24.2578L17.4498 24.6005L15.4775 24.6164C14.3912 24.6216 12.6088 24.6216 11.5225 24.6164L9.54492 24.6005L9.75059 24.3105C10.1672 23.7251 10.4098 23.1081 10.5732 22.238L10.5996 22.0956H13.5H16.3951L16.4268 22.2907ZM20.5559 25.5234C20.7141 25.6711 20.7141 25.9558 20.5559 26.1035C20.4398 26.209 20.4135 26.209 13.5 26.209C6.58652 26.209 6.56016 26.209 6.44414 26.1035C6.37031 26.0297 6.32812 25.9295 6.32812 25.8135C6.32812 25.6974 6.37031 25.5972 6.44414 25.5234C6.56016 25.4179 6.58652 25.4179 13.5 25.4179C20.4135 25.4179 20.4398 25.4179 20.5559 25.5234Z" fill="#666569" />
</svg>
    