<svg id="Sort_ascending" data-name="Sort ascending" xmlns="http://www.w3.org/2000/svg" width="22.691" height="21.75" viewBox="0 0 22.691 21.75">
  <path id="Icon_ionic-ios-arrow-round-up" data-name="Icon ionic-ios-arrow-round-up" d="M12.5,7.88a.794.794,0,0,1-1.221.008L7.234,3.3V20.775a.924.924,0,0,1-.862.975.924.924,0,0,1-.862-.975V3.3L1.469,7.895A.8.8,0,0,1,.248,7.887,1.076,1.076,0,0,1,.255,6.5L5.761.28h0a.968.968,0,0,1,.272-.2A.737.737,0,0,1,6.365,0a.813.813,0,0,1,.6.28L12.475,6.5A1.058,1.058,0,0,1,12.5,7.88Z" transform="translate(12.739 21.75) rotate(180)" fill="#4b4b4b"/>
  <g id="Numbers" transform="translate(-189.843 -212.372)">
    <path id="Path_6" data-name="Path 6" d="M321.49,292.369h-1.415l-2.209,2.128.944.989.713-.667a2.094,2.094,0,0,0,.3-.357l.081-.138h.023v.184c0,.038,0,.1-.006.2s-.006.165-.006.219v4.969h-1.92V301.2h5.394v-1.311h-1.9v-7.522Z" transform="translate(-111.199 -79.997)" fill="#4b4b4b"/>
    <path id="Path_7" data-name="Path 7" d="M314.571,1.087A2.993,2.993,0,0,0,312.213,0a2.8,2.8,0,0,0-2.082.84,2.806,2.806,0,0,0-.828,2.047,2.8,2.8,0,0,0,.771,1.984,2.6,2.6,0,0,0,1.99.822,2.954,2.954,0,0,0,.972-.161,1.687,1.687,0,0,0,.707-.426h.023A3.464,3.464,0,0,1,313,6.78a1.941,1.941,0,0,1-1.547.673,2.582,2.582,0,0,1-.862-.149,1.967,1.967,0,0,1-.356-.126l-.449,1.3q.207.08.483.173a4.1,4.1,0,0,0,2.708-.1,3.384,3.384,0,0,0,1.133-.753,4.5,4.5,0,0,0,.782-1.1,5.35,5.35,0,0,0,.471-1.311,6.507,6.507,0,0,0,.15-1.4A4.279,4.279,0,0,0,314.571,1.087ZM313.5,4.106a1.552,1.552,0,0,1-.977.311,1.591,1.591,0,0,1-1.2-.437,1.516,1.516,0,0,1-.42-1.093,1.626,1.626,0,0,1,.357-1.081,1.181,1.181,0,0,1,.955-.426,1.5,1.5,0,0,1,1.185.61,2.044,2.044,0,0,1,.506,1.334A.95.95,0,0,1,313.5,4.106Z" transform="translate(-102.981 224.372)" fill="#4b4b4b"/>
  </g>
</svg>
