<?xml version="1.0"?>
<svg xmlns="http://www.w3.org/2000/svg" xmlns:xlink="http://www.w3.org/1999/xlink" xmlns:svgjs="http://svgjs.com/svgjs" version="1.1" width="512" height="512" x="0" y="0" viewBox="0 0 607.838 607.838" style="enable-background:new 0 0 512 512" xml:space="preserve"><g><g xmlns="http://www.w3.org/2000/svg"><g id="Page-1_7_"><g id="_x30_08---Holding-Spanner" transform="translate(0 -1)"><path id="Shape_26_" d="m50.708 132.741h-30.227c-7.755-.001-14.843 4.385-18.304 11.325-3.426 6.674-2.77 14.714 1.692 20.745 12.234 16.559 31.069 26.974 51.598 28.53s40.719-5.9 55.309-20.426l20.907.051v68.354c-.004 17.37 6.373 34.136 17.919 47.112l50.323 56.614c8.248 9.268 12.801 21.244 12.794 33.65v9.117c-12.109 4.281-20.219 15.712-20.259 28.555v172.201c0 11.189 9.07 20.259 20.259 20.259h202.59c11.189 0 20.259-9.07 20.259-20.259v-172.202c-.053-12.832-8.161-24.247-20.259-28.525v-7.769c.011-7.865 1.841-15.62 5.348-22.66l27.684-55.368c4.91-9.852 7.472-20.708 7.486-31.715v-97.162l31.118-.273c27.689 27.522 72.416 27.484 100.058-.085s27.799-72.295.351-100.057-72.173-28.114-100.055-.788l-33.174.294c-4.288-17.078-19.082-29.455-36.649-30.662-8.886-.543-17.698 1.915-25.02 6.979-5.342-15.455-19.439-26.193-35.757-27.238-10.41-.61-20.646 2.864-28.535 9.684-5.995-10.292-16.261-17.379-28.01-19.337-11.748-1.958-23.758 1.417-32.767 9.208-6.177-10.603-16.874-17.786-29.024-19.493s-24.412 2.251-33.272 10.739c-8.059 7.672-12.624 18.31-12.631 29.436v30.753l-82.049-.365c-14.622-14.371-34.759-21.695-55.198-20.074s-39.17 12.026-51.344 28.523c-4.462 6.031-5.117 14.071-1.692 20.745 3.461 6.94 10.549 11.326 18.304 11.325h29.092c5.517-.189 10.315 3.75 11.203 9.198.283 3.024-.837 6.011-3.039 8.104-1.838 1.907-4.38 2.976-7.029 2.957zm162.011 455.827v-172.201c0-5.594 4.535-10.13 10.13-10.13h182.331c5.594 0 10.13 4.535 10.13 10.13v172.201zm279.058-496.345c2.866-.028 5.586-1.268 7.486-3.414 14.048-15.659 36.314-21.004 55.939-13.428 19.626 7.576 32.525 26.495 32.408 47.532s-13.227 39.811-32.936 47.167-41.914 1.764-55.786-14.051c-1.924-2.185-4.696-3.436-7.607-3.434h-.091l-35.362.314v-60.372zm-279.058-50.648c-.008-5.568 2.276-10.894 6.315-14.726s9.478-5.833 15.038-5.533c11.149 1.196 19.499 10.773 19.165 21.981v8.407c0 5.594 4.535 10.13 10.13 10.13s10.129-4.535 10.129-10.13c-.008-5.568 2.276-10.894 6.315-14.726s9.478-5.833 15.038-5.533c11.149 1.196 19.499 10.773 19.165 21.981v8.407c0 5.594 4.535 10.13 10.13 10.13s10.129-4.535 10.129-10.13c-.018-5.563 2.27-10.885 6.321-14.698 4.037-3.835 9.471-5.845 15.032-5.561 11.149 1.196 19.499 10.773 19.165 21.981v18.537c0 5.594 4.535 10.13 10.13 10.13 5.594 0 10.129-4.535 10.129-10.13-.008-5.568 2.276-10.894 6.315-14.726s9.478-5.833 15.038-5.533c11.149 1.196 19.499 10.773 19.165 21.981v186.516c-.011 7.865-1.841 15.62-5.348 22.66l-27.684 55.368c-4.91 9.852-7.472 20.708-7.486 31.715v5.905h-162.072v-7.283c.004-17.37-6.373-34.136-17.919-47.112l-50.323-56.614c-8.248-9.267-12.801-21.244-12.794-33.65v-68.273l40.518.213v40.518c0 5.594 4.535 10.129 10.13 10.129s10.13-4.535 10.13-10.129v-172.202zm-163.146 50.648-29.376.233c9.559-12.855 24.62-20.45 40.64-20.492 14.365-.019 28.052 6.113 37.601 16.845 1.912 2.159 4.653 3.4 7.536 3.414l86.486.365v60.412l-85.999-.365c-2.905.079-5.658 1.315-7.648 3.434-10.024 11.456-24.688 17.767-39.899 17.171s-29.336-8.036-38.433-20.24h30.226c8.015.063 15.713-3.128 21.333-8.843 6.469-6.31 9.751-15.199 8.934-24.199-1.775-15.946-15.358-27.943-31.401-27.735z" fill="#ffffff" data-original="#000000" style=""/><path id="Shape_25_" d="m536.863 153c16.783 0 30.388-13.605 30.388-30.389s-13.605-30.388-30.388-30.388-30.389 13.605-30.389 30.388 13.606 30.389 30.389 30.389zm0-40.518c5.594 0 10.13 4.535 10.13 10.13s-4.535 10.13-10.13 10.13-10.13-4.535-10.13-10.13 4.536-10.13 10.13-10.13z" fill="#ffffff" data-original="#000000" style=""/><path id="Shape_24_" d="m263.366 426.496c-16.783 0-30.389 13.605-30.389 30.388s13.605 30.389 30.389 30.389 30.388-13.605 30.388-30.389c.001-16.782-13.604-30.388-30.388-30.388zm0 40.518c-5.594 0-10.13-4.535-10.13-10.13 0-5.594 4.535-10.129 10.13-10.129s10.129 4.535 10.129 10.129c.001 5.595-4.534 10.13-10.129 10.13z" fill="#ffffff" data-original="#000000" style=""/></g></g></g></g></svg>
