<svg id="Layer_1" data-name="Layer 1" xmlns="http://www.w3.org/2000/svg" viewBox="0 0 63.31 63.31"><defs><style>.cls-1{fill:#ffae21;}.cls-2{fill:#fff;}</style></defs><title>squareicon</title><rect class="cls-1" width="63.31" height="63.31" rx="7.57"/><path class="cls-2" d="M7202.25,7182.8l-.36,23.29a2.46,2.46,0,0,1-2.46,2.43h-1.88a2.46,2.46,0,0,1-2.46-2.42l-.42-23.3a2.46,2.46,0,0,1,2.46-2.49h2.66A2.46,2.46,0,0,1,7202.25,7182.8Zm-2.43,38.39h-2.73a2.46,2.46,0,0,1-2.46-2.45v-2.25a2.46,2.46,0,0,1,2.46-2.46h2.73a2.46,2.46,0,0,1,2.46,2.46v2.25A2.46,2.46,0,0,1,7199.82,7221.19Z" transform="translate(-7166.59 -7167.96)"/></svg>