<svg xmlns="http://www.w3.org/2000/svg" xmlns:xlink="http://www.w3.org/1999/xlink" width="134" height="134" viewBox="0 0 134 134">
  <defs>
    <style>
      .cls-1 {
        clip-path: url(#clip-terminal);
      }

      .cls-2 {
        fill: #fff;
      }
    </style>
    <clipPath id="clip-terminal">
      <rect width="134" height="134"/>
    </clipPath>
  </defs>
  <g id="terminal" class="cls-1">
    <g id="Group_84" data-name="Group 84" transform="translate(-4.609 -0.268)">
      <path id="Path_73" data-name="Path 73" class="cls-2" d="M15.535,92.518H9.026a1.417,1.417,0,0,1-1.415-1.489l3.856-76.166a1.417,1.417,0,0,1,1.416-1.345h1.235a1.416,1.416,0,0,1,1.417,1.417Z"/>
      <rect id="Rectangle_15" data-name="Rectangle 15" class="cls-2" width="6" height="10" transform="translate(18.535 82.518)"/>
      <path id="Path_74" data-name="Path 74" class="cls-2" d="M128.535,92.268h6.51a1.417,1.417,0,0,0,1.415-1.489L132.6,14.613a1.418,1.418,0,0,0-1.416-1.345h-1.235a1.417,1.417,0,0,0-1.418,1.417Z"/>
      <rect id="Rectangle_16" data-name="Rectangle 16" class="cls-2" width="6" height="10" transform="translate(125.535 92.268) rotate(-180)"/>
      <path id="Path_75" data-name="Path 75" class="cls-2" d="M112.959,53.018H30.943a3.407,3.407,0,0,0-3.408,3.407v62.186a3.408,3.408,0,0,0,3.408,3.407h82.016a3.407,3.407,0,0,0,3.407-3.407V56.425A3.407,3.407,0,0,0,112.959,53.018ZM61.124,66.1l4,8.686a13.082,13.082,0,0,0-5.841,5.662L49.74,77.722C52.309,72.463,55.655,68.307,61.124,66.1ZM93.653,91.117H57.794a17.5,17.5,0,0,0,2.6,7.214,12.413,12.413,0,0,0,20.634,0H92.1c-3.193,8.486-10.89,14.357-21.183,14.3-12.082-.072-22.3-8.478-23.166-21.478-.034-.508-.052-1.012-.06-1.514a28.139,28.139,0,0,1,.663-6.546H83.4A13.026,13.026,0,0,0,67.88,73.818l-1.042-9.182a25.676,25.676,0,0,1,5.518-.342,20.7,20.7,0,0,1,10.027,3.071A23.95,23.95,0,0,1,93.126,83.089h.05c.145.731.269,2.005.355,2.753A28.714,28.714,0,0,1,93.653,91.117Z"/>
    </g>
  </g>
</svg>
