<svg width="26" height="23" viewBox="0 0 26 23" fill="none" xmlns="http://www.w3.org/2000/svg">
<g clip-path="url(#clip0_9545_16612)">
<path d="M5.1911 22.009C5.01198 22.0051 4.84175 21.9302 4.71781 21.8008C4.59386 21.6714 4.52634 21.4981 4.53009 21.319V8.73401C4.52634 8.55488 4.59386 8.38158 4.71781 8.2522C4.84175 8.12282 5.01198 8.04794 5.1911 8.04401H21.1041C21.2832 8.04794 21.4535 8.12282 21.5774 8.2522C21.7013 8.38158 21.7689 8.55488 21.7651 8.73401V21.319C21.7689 21.4981 21.7013 21.6714 21.5774 21.8008C21.4535 21.9302 21.2832 22.0051 21.1041 22.009H5.1911ZM8.4401 15.455C8.4401 15.555 8.44509 15.655 8.45209 15.761C8.48524 16.9291 8.97409 18.0378 9.81409 18.8502C10.6541 19.6625 11.7786 20.114 12.9471 20.108C13.8516 20.1291 14.739 19.8595 15.4788 19.3387C16.2186 18.818 16.7718 18.0736 17.0571 17.215H14.9091C14.7069 17.5551 14.4197 17.8368 14.0757 18.0323C13.7317 18.2278 13.3428 18.3304 12.9471 18.33C12.5381 18.3445 12.1328 18.2487 11.7737 18.0525C11.4145 17.8563 11.1149 17.567 10.9061 17.215C10.637 16.7696 10.4665 16.2718 10.4061 15.755H17.3631C17.3865 15.399 17.3785 15.0416 17.3391 14.687C17.3221 14.536 17.2981 14.278 17.2701 14.13H17.2601C17.1449 13.4866 16.9009 12.8732 16.5428 12.3264C16.1846 11.7796 15.7198 11.3108 15.1761 10.948C14.5944 10.572 13.9231 10.3576 13.2311 10.327C12.8726 10.3098 12.5134 10.3329 12.1601 10.396L12.3601 12.254C12.5471 12.2089 12.7387 12.186 12.9311 12.186C13.4958 12.1941 14.0419 12.3895 14.4835 12.7415C14.9251 13.0936 15.2373 13.5823 15.3711 14.131H8.57111C8.47789 14.566 8.43393 15.0102 8.4401 15.455ZM8.84009 13.044L10.6921 13.596C10.9383 13.1032 11.3352 12.7018 11.8251 12.45L11.0481 10.692C10.0352 11.161 9.24317 12.0039 8.83811 13.044H8.84009ZM2.7861 16.038V14.014H3.9501V16.038H2.7861ZM0.941102 16.038C0.903098 16.0371 0.865645 16.0286 0.831025 16.0129C0.796405 15.9972 0.765313 15.9746 0.739625 15.9466C0.713938 15.9186 0.694188 15.8857 0.68155 15.8498C0.668912 15.814 0.663672 15.7759 0.666108 15.738L1.41409 0.322998C1.41614 0.25099 1.44585 0.182555 1.49707 0.131897C1.54829 0.0812389 1.61706 0.0522522 1.68909 0.0509949H1.92911C1.96601 0.0517744 2.0024 0.0598299 2.0362 0.0746765C2.06999 0.0895231 2.1005 0.110891 2.12604 0.137543C2.15158 0.164195 2.17164 0.195613 2.18503 0.230011C2.19842 0.264409 2.2049 0.301109 2.2041 0.338013V16.038H0.941102ZM24.1281 15.987V0.287018C24.1273 0.250114 24.1338 0.213414 24.1472 0.179016C24.1605 0.144618 24.1806 0.113169 24.2061 0.0865173C24.2317 0.0598652 24.2622 0.0385283 24.296 0.0236816C24.3298 0.00883501 24.3662 0.000779569 24.4031 0H24.6431C24.7151 0.00125729 24.7839 0.030244 24.8351 0.0809021C24.8863 0.13156 24.9161 0.199995 24.9181 0.272003L25.6641 15.686C25.6665 15.7239 25.6613 15.7618 25.6487 15.7976C25.6361 15.8334 25.6165 15.8663 25.5909 15.8943C25.5653 15.9223 25.5344 15.9448 25.4998 15.9606C25.4653 15.9764 25.428 15.985 25.3901 15.986L24.1281 15.987ZM22.3821 15.987V13.963H23.5461V15.987H22.3821Z" fill="white"/>
<path d="M7 10H19V21H7V10Z" fill="white"/>
</g>
<defs>
<clipPath id="clip0_9545_16612">
<rect width="26" height="23" fill="white"/>
</clipPath>
</defs>
</svg>
