<svg xmlns="http://www.w3.org/2000/svg" viewBox="0 0 47.96 47.86"><defs><style>.cls-1{fill:#fff;}</style></defs><g id="Layer_2" data-name="Layer 2"><g id="Layer_20" data-name="Layer 20"><path class="cls-1" d="M15.25,5.45a1.09,1.09,0,0,0-1.09,1.09v7.62H6.54a1.09,1.09,0,1,0,0,2.18h8.71a1.09,1.09,0,0,0,1.09-1.09V6.54A1.09,1.09,0,0,0,15.25,5.45Z"/><path class="cls-1" d="M8.4,27.7h0a1.08,1.08,0,0,0-.29-1.5A13.07,13.07,0,1,1,28,12.48a1.09,1.09,0,0,0,1.44.78h0a1.07,1.07,0,0,0,.68-1.21A15.24,15.24,0,1,0,6.87,28,1.11,1.11,0,0,0,8.4,27.7Z"/><path class="cls-1" d="M24,47.86H20.63l-2.3-7H8.16l-2.3,7H2.69l8.55-25h4.17Zm-6.6-9.81L13.25,25.79,9.11,38.05Z"/><path class="cls-1" d="M36.42,33H48v2.66H36.42v5.18a3.45,3.45,0,0,1-.64,2.33,3.55,3.55,0,0,1-2.65.73H29l-.64-2.79,4.32.12c.64,0,1-.31,1-.92V35.64H21.13V33H33.66V30.73l2.91-1.34a13,13,0,0,0,2.27-1.45H26.23V25.28H43.16v2.39a27.55,27.55,0,0,1-6.74,4.6ZM33.25,19.44l-.47-1.12a4.87,4.87,0,0,0-.61-1.16l3-.35a8.37,8.37,0,0,1,.62,1.27l.49,1.36H47.73v7.88H45V22.11H24.54v5.21H21.8V19.44Z"/></g></g></svg>