<svg id="Information_icon" data-name="Information icon" xmlns="http://www.w3.org/2000/svg" width="14.75" height="14.75" viewBox="0 0 14.75 14.75">
  <g id="Group_314" data-name="Group 314">
    <g id="Group_313" data-name="Group 313">
      <path id="Path_1071" data-name="Path 1071" d="M7.375,0A7.375,7.375,0,1,0,14.75,7.375,7.383,7.383,0,0,0,7.375,0Zm0,13.828a6.453,6.453,0,1,1,6.453-6.453A6.461,6.461,0,0,1,7.375,13.828Z" fill="#8b8b8b"/>
    </g>
  </g>
  <g id="Group_316" data-name="Group 316" transform="translate(6.612 3.419)">
    <g id="Group_315" data-name="Group 315">
      <path id="Path_1072" data-name="Path 1072" d="M230.989,118.927a.863.863,0,0,0-1.224,0,.838.838,0,0,0-.253.612.864.864,0,0,0,1.728,0A.841.841,0,0,0,230.989,118.927Z" transform="translate(-229.512 -118.672)" fill="#8b8b8b"/>
    </g>
  </g>
  <g id="Group_318" data-name="Group 318" transform="translate(5.917 5.704)">
    <g id="Group_317" data-name="Group 317">
      <path id="Path_1073" data-name="Path 1073" d="M207.707,201.809V198h-2.331v1.14h.751v2.669h-.751v1.14h3.067v-1.14Z" transform="translate(-205.376 -198)" fill="#8b8b8b"/>
    </g>
  </g>
</svg>
