<svg xmlns="http://www.w3.org/2000/svg" width="27" height="27" viewBox="0 0 27 27">
    <path id="Union_393" data-name="Union 393" d="M15.092,25.5a1,1,0,0,1-1-1V14.991a1,1,0,0,1,1-1H24.5a1,1,0,0,1,1,1V24.5a1,1,0,0,1-1,1ZM1,25.5a1,1,0,0,1-1-1V14.991a1,1,0,0,1,1-1h9.408a1,1,0,0,1,1,1V24.5a1,1,0,0,1-1,1ZM15.092,11.509a1,1,0,0,1-1-1V1a1,1,0,0,1,1-1H24.5a1,1,0,0,1,1,1v9.508a1,1,0,0,1-1,1ZM1,11.509a1,1,0,0,1-1-1V1A1,1,0,0,1,1,0h9.408a1,1,0,0,1,1,1v9.508a1,1,0,0,1-1,1Z" transform="translate(0.75 0.75)" fill="none" stroke="#5d43f7" stroke-miterlimit="10" stroke-width="1.5"/>
</svg>