<svg xmlns="http://www.w3.org/2000/svg" width="63" height="62" viewBox="0 0 63 62" fill="none">
<path d="M2.27076 1.25H25.9134C26.4857 1.25 26.9342 1.70819 26.9342 2.2545V25.7278C26.9342 26.2741 26.4857 26.7323 25.9134 26.7323H2.27076C1.69852 26.7323 1.25 26.2741 1.25 25.7278V2.2545C1.25 1.70819 1.69852 1.25 2.27076 1.25Z" stroke="#4B4B4B" stroke-width="2.5"/>
<path d="M2.27076 35.2676H25.9134C26.4857 35.2676 26.9342 35.7258 26.9342 36.2721V59.7454C26.9342 60.2917 26.4857 60.7499 25.9134 60.7499H2.27076C1.69852 60.7499 1.25 60.2917 1.25 59.7454V36.2721C1.25 35.7258 1.69852 35.2676 2.27076 35.2676Z" stroke="#4B4B4B" stroke-width="2.5"/>
<path d="M37.0867 1.25H60.7294C61.3016 1.25 61.7501 1.70819 61.7501 2.2545V25.7278C61.7501 26.2741 61.3016 26.7323 60.7294 26.7323H37.0867C36.5144 26.7323 36.0659 26.2741 36.0659 25.7278V2.2545C36.0659 1.70819 36.5144 1.25 37.0867 1.25Z" stroke="#4B4B4B" stroke-width="2.5"/>
<path d="M37.0867 35.2676H60.7294C61.3016 35.2676 61.7501 35.7258 61.7501 36.2721V59.7454C61.7501 60.2917 61.3016 60.7499 60.7294 60.7499H37.0867C36.5144 60.7499 36.0659 60.2917 36.0659 59.7454V36.2721C36.0659 35.7258 36.5144 35.2676 37.0867 35.2676Z" stroke="#4B4B4B" stroke-width="2.5"/>
</svg>