<?xml version="1.0" encoding="utf-8"?>
<!-- Generator: Adobe Illustrator 24.2.0, SVG Export Plug-In . SVG Version: 6.00 Build 0)  -->
<svg version="1.1" id="Layer_1" xmlns="http://www.w3.org/2000/svg" xmlns:xlink="http://www.w3.org/1999/xlink" x="0px" y="0px"
	 viewBox="0 0 512 512" style="enable-background:new 0 0 512 512;" xml:space="preserve">
<style type="text/css">
	.st0{fill:#C8C9FB;}
	.st1{fill:#878787;}
</style>
<g>
	<path class="st0" d="M486.4,193.9l5.6-16.7L479.9,165l-16.7,5.6c-1-0.4-2-0.9-3-1.3l-7.9-15.8h-17.1l-7.9,15.8c-1,0.4-2,0.9-3,1.3
		l-16.7-5.6l-12.1,12.1l5.6,16.7c-0.4,1-0.9,2-1.3,3l-15.8,7.9v17.1l15.8,7.9c0.4,1,0.9,2,1.3,3l-5.6,16.7l12.1,12.1l16.7-5.6
		c1,0.4,2,0.9,3,1.3l7.9,15.8h17.1l7.9-15.8c1-0.4,2-0.9,3-1.3l16.7,5.6l12.1-12.1l-5.6-16.7c0.4-1,0.9-2,1.3-3l15.8-7.9v-17.1
		l-15.8-7.9C487.3,195.8,486.8,194.9,486.4,193.9z M443.7,230.4c-9.4,0-17.1-7.6-17.1-17.1c0-9.4,7.6-17.1,17.1-17.1
		c9.4,0,17.1,7.6,17.1,17.1C460.8,222.7,453.1,230.4,443.7,230.4z"/>
	<path class="st0" d="M103.6,441.3c-0.1,0.7-0.2,1.5-0.2,2.2c-0.2,9.1,6.9,16.8,16.1,17.3c9.1,0.5,17.1-6.2,18-15.4
		c7.3-56.7,53.8-100.3,110.9-103.9c57.1-3.6,108.7,33.7,123.2,89c-34.9,0.8-110.8,2.9-121.3,5.4c-9.3,1.6-17,8.3-19.9,17.3
		c-2.9,9-0.7,18.9,5.9,25.7c6.6,6.8,16.4,9.5,25.5,6.9c10.6-2.4,79.7-33.8,111.4-48.3c0.6,2.6,1,5.3,1.4,8c1.2,9.4,9.7,16,19,14.8
		c9.4-1.2,16-9.7,14.8-19c-9.9-76.7-75.1-134.1-152.4-134.1S113.5,364.6,103.6,441.3z"/>
	<path class="st0" d="M273.1,59.7v17.1l15.8,7.9c0.4,1,0.9,2,1.3,3l-5.6,16.7l12.1,12.1l16.7-5.6c1,0.4,2,0.9,3,1.3l7.9,15.8h17.1
		l7.9-15.8c1-0.4,2-0.9,3-1.3l16.7,5.6l12.1-12.1l-5.6-16.7c0.4-1,0.9-2,1.3-3l15.8-7.9V59.7l-15.8-7.9c-0.4-1-0.9-2-1.3-3l5.6-16.7
		L369,20l-16.7,5.6c-1-0.4-2-0.9-3-1.3l-7.9-15.8h-17.1l-7.9,15.8c-1,0.4-2,0.9-3,1.3L296.6,20l-12.1,12.1l5.6,16.7
		c-0.4,1-0.9,2-1.3,3L273.1,59.7z M332.8,51.2c9.4,0,17.1,7.6,17.1,17.1s-7.6,17.1-17.1,17.1c-9.4,0-17.1-7.6-17.1-17.1
		C315.8,58.9,323.4,51.2,332.8,51.2z"/>
	<path class="st0" d="M93.9,179.2v17.1l15.8,7.9c0.4,1,0.9,2,1.3,3l-5.6,16.7l12.1,12.1l16.7-5.6c1,0.4,2,0.9,3,1.3l7.9,15.8h17.1
		l7.9-15.8c1-0.4,2-0.9,3-1.3l16.7,5.6l12.1-12.1l-5.6-16.7c0.4-1,0.9-2,1.3-3l15.8-7.9v-17.1l-15.8-7.9c-0.4-1-0.9-2-1.3-3
		l5.6-16.7l-12.1-12.1l-16.7,5.6c-1-0.4-2-0.9-3-1.3l-7.9-15.8h-17.1l-7.9,15.8c-1,0.4-2,0.9-3,1.3l-16.7-5.6l-12.1,12.1l5.6,16.7
		c-0.4,1-0.9,2-1.3,3L93.9,179.2z M153.6,170.7c9.4,0,17.1,7.6,17.1,17.1c0,9.4-7.6,17.1-17.1,17.1c-9.4,0-17.1-7.6-17.1-17.1
		C136.6,178.3,144.2,170.7,153.6,170.7z"/>
	<g>
		<path class="st1" d="M452.3,460.8c0-108.4-87.9-196.3-196.3-196.3S59.7,352.4,59.7,460.8c0,11.4,1,22.9,3,34.1H0V512h512v-17.1
			h-62.7C451.3,483.7,452.3,472.2,452.3,460.8z M76.8,460.8c0-99,80.2-179.2,179.2-179.2s179.2,80.2,179.2,179.2
			c0,11.5-1.1,22.9-3.4,34.1H256c2.6,0,5.2-0.3,7.7-0.9c10.4-2.4,68.1-28.4,103.1-44.4c2.2,9.3,9.3,16.5,18.5,18.9
			c9.2,2.3,19-0.7,25.3-7.9c5-5.6,7.3-13.1,6.3-20.5c-10.4-81-79.4-141.6-161.1-141.5S105.3,359.5,95.1,440.5
			c-1.7,14,8.4,26.8,22.4,28.4c14,1.7,26.8-8.4,28.4-22.4c6.6-50.6,46.8-90.1,97.5-95.9c50.7-5.7,98.7,23.8,116.5,71.6
			c-38.5,1-101.3,2.9-111.6,5.3c-16.9,3.9-28.3,19.8-26.3,37c1.9,17.2,16.5,30.3,33.8,30.4H80.2C77.9,483.7,76.8,472.3,76.8,460.8z
			 M247,475.3c-5.9-3.7-8.9-10.5-7.8-17.3c1.1-6.8,6.3-12.3,13-13.8c7-1.6,52.8-3.4,95.5-4.5c-38.9,17.7-80.8,36.2-87.8,37.8
			C255.4,478.5,250.8,477.7,247,475.3z M397.3,428.2c-1-3.9-4.5-6.6-8.5-6.6l-11.1,0.2c-18.3-57.1-73.7-93.9-133.4-88.5
			c-59.7,5.4-107.7,51.6-115.3,111c-0.2,4.7-4.2,8.3-9,8.1c-4.7-0.2-8.3-4.2-8.1-9c0-0.4,0-0.8,0.1-1.1
			C121.3,370,183,315.8,256,315.8S390.6,370,399.9,442.4c0.3,2.6-0.5,5.1-2.2,7.1c-1.6,1.8-3.9,2.8-6.3,2.8c-4.4-0.1-8-3.5-8.4-7.9
			c-0.1-0.7-0.2-1.3-0.3-2l10-4.6C396.3,436.1,398.3,432.1,397.3,428.2L397.3,428.2z"/>
		<path class="st1" d="M332.8,93.9c14.1,0,25.6-11.5,25.6-25.6s-11.5-25.6-25.6-25.6c-14.1,0-25.6,11.5-25.6,25.6
			S318.7,93.9,332.8,93.9z M332.8,59.7c4.7,0,8.5,3.8,8.5,8.5s-3.8,8.5-8.5,8.5s-8.5-3.8-8.5-8.5S328.1,59.7,332.8,59.7z"/>
		<path class="st1" d="M269.3,84.5l11.1,5.5l-3.9,11.7c-1,3.1-0.2,6.4,2.1,8.7l12.1,12.1c2.3,2.3,5.7,3.1,8.7,2.1l11.8-3.9l5.5,11.1
			c1.4,2.9,4.4,4.7,7.6,4.7h17.1c3.2,0,6.2-1.8,7.7-4.7l5.5-11.1l11.8,3.9c3.1,1,6.4,0.2,8.7-2.1l12.1-12.1c2.3-2.3,3.1-5.7,2.1-8.7
			L385.3,90l11.1-5.5c2.9-1.5,4.7-4.4,4.7-7.6V59.7c0-3.2-1.8-6.2-4.7-7.6l-11.1-5.5l3.9-11.8c1-3.1,0.2-6.4-2.1-8.7L375,14
			c-2.3-2.3-5.7-3.1-8.7-2l-11.8,3.9L349,4.8c-1.4-2.9-4.4-4.8-7.6-4.8h-17.1c-3.2,0-6.2,1.8-7.7,4.7L311,15.8l-11.7-3.9
			c-3.1-1-6.4-0.2-8.7,2.1l-12.1,12c-2.3,2.3-3,5.7-2,8.7l3.9,11.8l-11.1,5.5c-2.9,1.4-4.8,4.4-4.8,7.6v17.1
			C264.5,80,266.3,83,269.3,84.5z M281.6,65l11.1-5.5c1.9-1,3.4-2.6,4.2-4.6c0.3-0.8,0.7-1.7,1-2.5c0.9-2,1-4.2,0.3-6.2l-3.9-11.8
			l4.6-4.6l11.8,3.9c2.1,0.7,4.3,0.6,6.3-0.3c0.8-0.4,1.6-0.7,2.4-1c2-0.8,3.7-2.2,4.6-4.2l5.6-11.1h6.5l5.5,11.1
			c1,1.9,2.6,3.4,4.6,4.2c0.9,0.3,1.7,0.7,2.5,1c2,0.9,4.2,1,6.2,0.3l11.8-3.9l4.6,4.6l-3.9,11.8c-0.7,2.1-0.6,4.3,0.3,6.3
			c0.4,0.8,0.7,1.6,1,2.4c0.8,2,2.2,3.7,4.2,4.6L384,65v6.5l-11.1,5.6c-1.9,1-3.4,2.6-4.2,4.6c-0.3,0.9-0.7,1.7-1,2.5
			c-0.9,2-1,4.2-0.3,6.2l3.9,11.8l-4.6,4.6l-11.8-3.9c-2.1-0.7-4.3-0.6-6.3,0.3c-0.8,0.4-1.6,0.7-2.4,1c-2,0.8-3.7,2.2-4.6,4.2
			l-5.5,11.1h-6.5l-5.6-11.1c-1-1.9-2.6-3.4-4.6-4.2c-0.8-0.3-1.7-0.7-2.5-1c-2-0.9-4.2-1-6.2-0.3l-11.8,3.9l-4.6-4.6l3.9-11.8
			c0.7-2.1,0.6-4.3-0.3-6.3c-0.4-0.8-0.7-1.6-1-2.4c-0.8-2-2.2-3.7-4.2-4.6l-11.1-5.6V65z"/>
		<path class="st1" d="M153.6,213.3c14.1,0,25.6-11.5,25.6-25.6s-11.5-25.6-25.6-25.6S128,173.6,128,187.7S139.5,213.3,153.6,213.3z
			 M153.6,179.2c4.7,0,8.5,3.8,8.5,8.5c0,4.7-3.8,8.5-8.5,8.5c-4.7,0-8.5-3.8-8.5-8.5C145.1,183,148.9,179.2,153.6,179.2z"/>
		<path class="st1" d="M85.3,196.3c0,3.2,1.8,6.2,4.7,7.6l11.1,5.5l-3.9,11.8c-1,3.1-0.2,6.4,2.1,8.7l12.1,12.1
			c2.3,2.3,5.7,3.1,8.7,2.1l11.8-3.9l5.5,11.1c1.4,2.9,4.4,4.7,7.6,4.7h17.1c3.2,0,6.2-1.8,7.6-4.7l5.5-11.1l11.8,3.9
			c3.1,1,6.5,0.2,8.7-2.1l12.1-12.1c2.3-2.3,3.1-5.7,2.1-8.7l-3.9-11.8l11.1-5.5c2.9-1.4,4.7-4.4,4.7-7.6v-17.1
			c0-3.2-1.8-6.2-4.7-7.6l-11.1-5.5l3.9-11.8c1-3.1,0.2-6.4-2.1-8.7l-12.1-12.1c-2.3-2.3-5.7-3.1-8.7-2.1l-11.8,3.9l-5.5-11.1
			c-1.4-2.9-4.4-4.7-7.6-4.7h-17.1c-3.2,0-6.2,1.8-7.6,4.7l-5.5,11.1l-11.8-3.9c-3.1-1-6.5-0.2-8.7,2.1l-12.1,12
			c-2.3,2.3-3.1,5.7-2.1,8.7l3.9,11.8l-11.1,5.5c-2.9,1.4-4.7,4.4-4.7,7.6V196.3z M102.4,184.5l11.1-5.6c1.9-1,3.4-2.6,4.2-4.6
			c0.3-0.9,0.7-1.7,1-2.5c0.9-2,1-4.2,0.3-6.2l-3.9-11.8l4.6-4.6l11.8,3.9c2.1,0.7,4.3,0.6,6.3-0.3c0.8-0.4,1.6-0.7,2.4-1
			c2-0.8,3.7-2.2,4.6-4.2l5.6-11.1h6.5l5.5,11.1c1,1.9,2.6,3.4,4.6,4.2c0.9,0.3,1.7,0.7,2.5,1c2,0.9,4.2,1,6.2,0.3l11.8-3.9l4.6,4.6
			l-3.9,11.8c-0.7,2.1-0.6,4.3,0.3,6.3c0.4,0.8,0.7,1.6,1,2.4c0.8,2,2.2,3.7,4.2,4.6l11.1,5.6v6.5l-11.1,5.6c-1.9,1-3.4,2.6-4.2,4.6
			c-0.3,0.9-0.7,1.7-1,2.5c-0.9,2-1,4.2-0.3,6.2l3.9,11.8l-4.6,4.6l-11.8-3.9c-2.1-0.7-4.3-0.6-6.3,0.3c-0.8,0.4-1.6,0.7-2.4,1
			c-2,0.8-3.7,2.2-4.6,4.2l-5.5,11.1h-6.5l-5.6-11.1c-1-1.9-2.6-3.4-4.6-4.2c-0.9-0.3-1.7-0.7-2.5-1c-2-0.9-4.2-1-6.2-0.3l-11.8,3.9
			l-4.6-4.6l3.9-11.8c0.7-2.1,0.6-4.3-0.3-6.3c-0.4-0.8-0.7-1.6-1-2.4c-0.8-2-2.2-3.7-4.2-4.6l-11.1-5.6V184.5z"/>
		<path class="st1" d="M443.7,187.7c-14.1,0-25.6,11.5-25.6,25.6s11.5,25.6,25.6,25.6c14.1,0,25.6-11.5,25.6-25.6
			S457.9,187.7,443.7,187.7z M443.7,221.9c-4.7,0-8.5-3.8-8.5-8.5c0-4.7,3.8-8.5,8.5-8.5s8.5,3.8,8.5,8.5
			C452.3,218,448.4,221.9,443.7,221.9z"/>
		<path class="st1" d="M507.3,197.2l-11.1-5.5l3.9-11.8c1-3.1,0.2-6.4-2.1-8.7L486,159c-2.3-2.3-5.7-3.1-8.7-2.1l-11.8,3.9
			l-5.5-11.1c-1.4-2.9-4.4-4.7-7.6-4.7h-17.1c-3.2,0-6.2,1.8-7.7,4.7l-5.5,11.1l-11.7-3.9c-3.1-1-6.4-0.2-8.7,2.1l-12.1,12.1
			c-2.3,2.3-3.1,5.7-2.1,8.7l3.9,11.8l-11.1,5.5c-2.9,1.4-4.7,4.4-4.7,7.6v17.1c0,3.2,1.8,6.2,4.7,7.6l11.1,5.5l-3.9,11.8
			c-1,3.1-0.2,6.4,2.1,8.7l12.1,12.1c2.3,2.3,5.7,3.1,8.7,2.1l11.8-3.9l5.5,11.1c1.4,2.9,4.4,4.7,7.6,4.7h17.1
			c3.2,0,6.2-1.8,7.7-4.7l5.5-11.1l11.8,3.9c3.1,1,6.4,0.2,8.7-2.1l12.1-12.1c2.3-2.3,3.1-5.7,2.1-8.7l-3.9-11.8l11.1-5.5
			c2.9-1.5,4.7-4.4,4.7-7.6v-17.1C512,201.6,510.2,198.6,507.3,197.2z M494.9,216.6l-11.1,5.6c-1.9,1-3.4,2.6-4.2,4.6
			c-0.3,0.9-0.6,1.6-1,2.4c-0.9,2-1,4.2-0.3,6.3l3.9,11.8l-4.6,4.6l-11.8-3.9c-2.1-0.7-4.3-0.6-6.3,0.3c-0.8,0.4-1.6,0.7-2.4,1
			c-2,0.8-3.7,2.2-4.6,4.2l-5.6,11.1h-6.5l-5.5-11.1c-1-1.9-2.6-3.4-4.6-4.2c-0.9-0.3-1.6-0.6-2.4-1c-2-0.9-4.2-1-6.3-0.3l-11.8,3.9
			l-4.6-4.6l3.9-11.8c0.7-2,0.6-4.3-0.3-6.2c-0.4-0.8-0.7-1.6-1-2.5c-0.8-2-2.2-3.7-4.2-4.6l-11.1-5.6v-6.5l11.1-5.5
			c1.9-1,3.4-2.6,4.2-4.6c0.3-0.9,0.7-1.7,1-2.5c0.9-2,1-4.2,0.3-6.2l-3.9-11.8l4.6-4.6l11.8,3.9c2,0.7,4.3,0.6,6.2-0.3
			c0.8-0.4,1.6-0.7,2.5-1c2-0.8,3.7-2.2,4.6-4.2l5.5-11.1h6.5l5.6,11.1c1,1.9,2.6,3.4,4.6,4.2c0.8,0.3,1.7,0.7,2.5,1
			c2,0.9,4.2,1,6.2,0.3l11.8-3.9l4.6,4.6l-3.9,11.8c-0.7,2.1-0.6,4.3,0.3,6.3c0.4,0.8,0.7,1.6,1,2.4c0.8,2,2.2,3.7,4.2,4.6l11.1,5.5
			V216.6z"/>
		<path class="st1" d="M196.3,59.7h51.2v17.1h-51.2V59.7z"/>
		<path class="st1" d="M170.7,59.7h17.1v17.1h-17.1V59.7z"/>
		<path class="st1" d="M204.8,25.6H256v17.1h-51.2V25.6z"/>
		<path class="st1" d="M179.2,25.6h17.1v17.1h-17.1V25.6z"/>
		<path class="st1" d="M204.8,93.9H256v17.1h-51.2V93.9z"/>
		<path class="st1" d="M179.2,93.9h17.1v17.1h-17.1V93.9z"/>
		<path class="st1" d="M25.6,179.2h51.2v17.1H25.6V179.2z"/>
		<path class="st1" d="M0,179.2h17.1v17.1H0V179.2z"/>
		<path class="st1" d="M34.1,145.1h51.2v17.1H34.1V145.1z"/>
		<path class="st1" d="M8.5,145.1h17.1v17.1H8.5V145.1z"/>
		<path class="st1" d="M34.1,213.3h51.2v17.1H34.1V213.3z"/>
		<path class="st1" d="M8.5,213.3h17.1v17.1H8.5V213.3z"/>
		<path class="st1" d="M307.2,204.8h51.2v17.1h-51.2V204.8z"/>
		<path class="st1" d="M281.6,204.8h17.1v17.1h-17.1V204.8z"/>
		<path class="st1" d="M315.7,170.7h51.2v17.1h-51.2V170.7z"/>
		<path class="st1" d="M290.1,170.7h17.1v17.1h-17.1V170.7z"/>
		<path class="st1" d="M315.7,238.9h51.2V256h-51.2V238.9z"/>
		<path class="st1" d="M290.1,238.9h17.1V256h-17.1V238.9z"/>
	</g>
</g>
</svg>
