<?xml version="1.0" encoding="utf-8"?>
<!-- Generator: Adobe Illustrator 24.2.0, SVG Export Plug-In . SVG Version: 6.00 Build 0)  -->
<svg version="1.1" id="Layer_1" xmlns="http://www.w3.org/2000/svg" xmlns:xlink="http://www.w3.org/1999/xlink" x="0px" y="0px"
	 viewBox="0 0 512 512" style="enable-background:new 0 0 512 512;" xml:space="preserve">
<style type="text/css">
	.st0{fill:#C8C9FB;}
	.st1{fill:#878787;}
</style>
<g>
	<path class="st0" d="M24,56h72h160h160h72V24H24V56z"/>
	<path class="st0" d="M368,144c-8.8,0-16,7.2-16,16v96c0,8.8,7.2,16,16,16h96c8.8,0,16-7.2,16-16v-96c0-8.8-7.2-16-16-16h-32v64
		l-16-16l-16,16v-64H368z"/>
	<path class="st0" d="M432,376c-30.9,0-56,25.1-56,56s25.1,56,56,56s56-25.1,56-56l0,0C488,401.1,463,376,432,376
		C432.1,376,432,376,432,376z M432,456c-13.3,0-24-10.7-24-24s10.7-24,24-24s24,10.7,24,24S445.3,456,432,456z"/>
	<path class="st0" d="M208,144c-8.8,0-16,7.2-16,16v96c0,8.8,7.2,16,16,16h96c8.8,0,16-7.2,16-16v-96c0-8.8-7.2-16-16-16h-32v64
		l-16-16l-16,16v-64H208z"/>
	<path class="st0" d="M256,376c-30.9,0-56,25.1-56,56s25.1,56,56,56s56-25.1,56-56l0,0C312,401.1,287,376,256,376
		C256.1,376,256,376,256,376z M256,456c-13.3,0-24-10.7-24-24s10.7-24,24-24c13.3,0,24,10.7,24,24S269.3,456,256,456z"/>
	<path class="st0" d="M48,144c-8.8,0-16,7.2-16,16v96c0,8.8,7.2,16,16,16h96c8.8,0,16-7.2,16-16v-96c0-8.8-7.2-16-16-16h-32v64
		l-16-16l-16,16v-64H48z"/>
	<path class="st0" d="M136,432c0-30.9-25.1-56-56-56s-56,25.1-56,56s25.1,56,56,56C110.9,488,136,463,136,432
		C136,432.1,136,432,136,432z M56,432c0-13.3,10.7-24,24-24s24,10.7,24,24s-10.7,24-24,24S56,445.3,56,432z"/>
	<g>
		<path class="st1" d="M304,280c13.3,0,24-10.7,24-24v-96c0-13.3-10.7-24-24-24h-96c-13.3,0-24,10.7-24,24v96c0,13.3,10.7,24,24,24
			H304z M248,152h16v36.7l-2.3-2.3c-3.1-3.1-8.2-3.1-11.3,0l-2.3,2.3L248,152z M200,256v-96c0-4.4,3.6-8,8-8h24v56c0,4.4,3.6,8,8,8
			c2.1,0,4.2-0.8,5.7-2.3l10.3-10.3l10.3,10.3c3.1,3.1,8.2,3.1,11.3,0c1.5-1.5,2.3-3.5,2.3-5.7v-56h24c4.4,0,8,3.6,8,8v96
			c0,4.4-3.6,8-8,8h-96C203.6,264,200,260.4,200,256z"/>
		<path class="st1" d="M464,280c13.3,0,24-10.7,24-24v-96c0-13.3-10.7-24-24-24h-96c-13.3,0-24,10.7-24,24v96c0,13.3,10.7,24,24,24
			H464z M408,152h16v36.7l-2.3-2.3c-3.1-3.1-8.2-3.1-11.3,0l-2.3,2.3V152z M360,256v-96c0-4.4,3.6-8,8-8h24v56c0,4.4,3.6,8,8,8
			c2.1,0,4.2-0.8,5.7-2.3l10.3-10.3l10.3,10.3c3.1,3.1,8.2,3.1,11.3,0c1.5-1.5,2.3-3.5,2.3-5.7v-56h24c4.4,0,8,3.6,8,8v96
			c0,4.4-3.6,8-8,8h-96C363.6,264,360,260.4,360,256z"/>
		<path class="st1" d="M144,280c13.3,0,24-10.7,24-24v-96c0-13.3-10.7-24-24-24H48c-13.3,0-24,10.7-24,24v96c0,13.3,10.7,24,24,24
			H144z M88,152h16v36.7l-2.3-2.3c-3.1-3.1-8.2-3.1-11.3,0l-2.3,2.3L88,152z M40,256v-96c0-4.4,3.6-8,8-8h24v56c0,4.4,3.6,8,8,8
			c2.1,0,4.2-0.8,5.7-2.3L96,203.3l10.3,10.3c3.1,3.1,8.2,3.1,11.3,0c1.5-1.5,2.3-3.5,2.3-5.7v-56h24c4.4,0,8,3.6,8,8v96
			c0,4.4-3.6,8-8,8H48C43.6,264,40,260.4,40,256z"/>
		<path class="st1" d="M256,400c-17.7,0-32,14.3-32,32s14.3,32,32,32s32-14.3,32-32S273.7,400,256,400z M256,448
			c-8.8,0-16-7.2-16-16s7.2-16,16-16c8.8,0,16,7.2,16,16S264.8,448,256,448z"/>
		<path class="st1" d="M400,432c0,17.7,14.3,32,32,32s32-14.3,32-32s-14.3-32-32-32S400,414.3,400,432z M448,432c0,8.8-7.2,16-16,16
			s-16-7.2-16-16s7.2-16,16-16S448,423.2,448,432z"/>
		<path class="st1" d="M80,400c-17.7,0-32,14.3-32,32s14.3,32,32,32s32-14.3,32-32S97.7,400,80,400z M80,448c-8.8,0-16-7.2-16-16
			s7.2-16,16-16s16,7.2,16,16S88.8,448,80,448z"/>
		<path class="st1" d="M16,376h33.1c-30.9,17-42.2,55.8-25.2,86.7c3.6,6.5,8.3,12.4,13.9,17.3H16v16h480v-16h-21.8
			c26.5-23.2,29.2-63.6,6-90.1c-4.9-5.6-10.8-10.3-17.3-13.9H496v-16H16V376z M32,432c0-26.5,21.5-48,48-48s48,21.5,48,48
			s-21.5,48-48,48C53.5,480,32,458.5,32,432z M122.2,480c26.5-23.2,29.2-63.6,6-90.1c-4.9-5.6-10.8-10.3-17.3-13.9h114.2
			c-30.9,17-42.2,55.8-25.2,86.7c3.6,6.5,8.3,12.4,13.9,17.3H122.2z M256,480c-26.5,0-48-21.5-48-48s21.5-48,48-48s48,21.5,48,48
			C304,458.5,282.5,480,256,480z M480,432c0,26.5-21.5,48-48,48s-48-21.5-48-48s21.5-48,48-48C458.5,384,480,405.5,480,432z
			 M368,432c0,18.4,8,35.9,21.8,48h-91.6c26.5-23.2,29.2-63.6,6-90.1c-4.9-5.6-10.8-10.3-17.3-13.9h114.2
			C380.7,387.3,368,408.7,368,432z"/>
		<path class="st1" d="M16,296h480v16H16V296z"/>
		<path class="st1" d="M48,328h32v16H48V328z"/>
		<path class="st1" d="M96,328h32v16H96V328z"/>
		<path class="st1" d="M144,328h32v16h-32V328z"/>
		<path class="st1" d="M192,328h32v16h-32V328z"/>
		<path class="st1" d="M240,328h32v16h-32V328z"/>
		<path class="st1" d="M288,328h32v16h-32V328z"/>
		<path class="st1" d="M336,328h32v16h-32V328z"/>
		<path class="st1" d="M384,328h32v16h-32V328z"/>
		<path class="st1" d="M432,328h32v16h-32V328z"/>
		<path class="st1" d="M488,16H24c-4.4,0-8,3.6-8,8v32c0,4.4,3.6,8,8,8h64v16H64c-4.4,0-8,3.6-8,8v32h16V96h48v24h16V88
			c0-4.4-3.6-8-8-8h-24V64h144v16h-24c-4.4,0-8,3.6-8,8v32h16V96h48v24h16V88c0-4.4-3.6-8-8-8h-24V64h144v16h-24c-4.4,0-8,3.6-8,8
			v32h16V96h48v24h16V88c0-4.4-3.6-8-8-8h-24V64h64c4.4,0,8-3.6,8-8V24C496,19.6,492.4,16,488,16z M480,48H32V32h448V48z"/>
	</g>
</g>
</svg>
