<svg width="10" height="12" viewBox="0 0 10 12" fill="none" xmlns="http://www.w3.org/2000/svg">
    <path d="M9.556 0.708002H6.9L6.694 0.294002C6.64988 0.205551 6.58196 0.131169 6.49786 0.0792279C6.41377 0.0272869 6.31684 -0.00015108 6.218 2.28908e-06H3.69C3.59152 -0.000288472 3.49494 0.0271259 3.4113 0.0791138C3.32766 0.131102 3.26033 0.205567 3.217 0.294002L3.008 0.708002H0.354C0.260113 0.708002 0.170072 0.745299 0.103684 0.811686C0.0372963 0.878074 0 0.968116 0 1.062L0 1.77C0 1.86389 0.0372963 1.95393 0.103684 2.02032C0.170072 2.08671 0.260113 2.124 0.354 2.124H9.554C9.60066 2.12427 9.6469 2.1153 9.69008 2.09763C9.73326 2.07996 9.77253 2.05393 9.80561 2.02103C9.83869 1.98813 9.86495 1.94902 9.88286 1.90594C9.90078 1.86286 9.91 1.81666 9.91 1.77V1.062C9.91 1.01551 9.90084 0.969482 9.88305 0.926532C9.86526 0.883583 9.83919 0.844558 9.80632 0.811686C9.77344 0.778814 9.73442 0.752739 9.69147 0.734949C9.64852 0.717159 9.60249 0.708002 9.556 0.708002ZM1.177 10.33C1.19281 10.6004 1.31138 10.8546 1.50842 11.0405C1.70547 11.2264 1.96611 11.33 2.237 11.33H7.674C7.94489 11.33 8.20553 11.2264 8.40258 11.0405C8.59962 10.8546 8.71819 10.6004 8.734 10.33L9.203 2.83H0.708L1.177 10.33Z" fill="#3585E5"/>
</svg>
