<?xml version="1.0" encoding="utf-8"?>
<!-- Generator: Adobe Illustrator 24.2.0, SVG Export Plug-In . SVG Version: 6.00 Build 0)  -->
<svg version="1.1" id="Layer_1" xmlns="http://www.w3.org/2000/svg" xmlns:xlink="http://www.w3.org/1999/xlink" x="0px" y="0px"
	 viewBox="0 0 512 512" style="enable-background:new 0 0 512 512;" xml:space="preserve">
<style type="text/css">
	.st0{fill:#C8C9FB;}
	.st1{fill:#878787;}
</style>
<g>
	<path class="st0" d="M408,136h80v352h-80V136z"/>
	<path class="st0" d="M152,264h80v224h-80V264z"/>
	<path class="st0" d="M448,20.2L436.4,56h-37.7l30.5,22.1l-11.6,35.8L448,91.8l30.4,22.2l-11.6-35.8L497.3,56h-37.7L448,20.2z"/>
	<path class="st0" d="M280,200h80v288h-80V200z"/>
	<path class="st0" d="M119.7,180.6l2.8-22.6c2.3-0.7,4.5-1.6,6.6-2.7l18,14c1.5,1.2,3.7,1.1,5-0.3l16.8-16.8c1.4-1.4,1.5-3.5,0.3-5
		l-14-18c1.1-2.1,2-4.4,2.7-6.6l22.6-2.8c1.9-0.3,3.4-1.9,3.4-3.8V92.2c0-1.9-1.4-3.6-3.4-3.8L158,85.5c-0.7-2.3-1.6-4.5-2.7-6.6
		l14-18c1.2-1.5,1.1-3.7-0.3-5L152.2,39c-1.4-1.4-3.5-1.5-5-0.3l-18,14c-2.1-1.1-4.4-2-6.6-2.7l-2.8-22.6c-0.3-1.9-1.9-3.4-3.8-3.4
		H92.2c-1.9,0-3.6,1.4-3.8,3.4L85.5,50c-2.3,0.7-4.5,1.6-6.6,2.7l-18-14c-1.5-1.2-3.7-1.1-5,0.3L39,55.8c-1.4,1.4-1.5,3.5-0.3,5
		l14,18c-1.1,2.1-2,4.4-2.7,6.6l-22.6,2.8c-1.9,0.3-3.4,1.9-3.4,3.8v23.7c0,1.9,1.4,3.6,3.4,3.8l22.6,2.8c0.7,2.3,1.6,4.5,2.7,6.6
		l-14,18c-1.2,1.5-1.1,3.7,0.3,5L55.8,169c1.4,1.4,3.5,1.5,5,0.3l18-14c2.1,1.1,4.4,2,6.6,2.7l2.8,22.6c0.3,1.9,1.9,3.4,3.8,3.4
		h23.7C117.8,184,119.4,182.6,119.7,180.6z M72,104c0-17.7,14.3-32,32-32s32,14.3,32,32s-14.3,32-32,32S72,121.7,72,104z"/>
	<path class="st0" d="M24,328h80v160H24V328z"/>
	<g>
		<path class="st1" d="M360,192h-80c-4.4,0-8,3.6-8,8v288c0,4.4,3.6,8,8,8h80c4.4,0,8-3.6,8-8V200C368,195.6,364.4,192,360,192z
			 M352,480h-64V208h64V480z"/>
		<path class="st1" d="M26.3,127.6l15.9,2l-9.8,12.6c-3.6,4.7-3.2,11.4,1,15.6l16.8,16.8c4.2,4.2,10.9,4.6,15.6,1l12.6-9.8l2,15.9
			c0.7,5.9,5.8,10.3,11.7,10.3h23.7c6,0,11-4.4,11.7-10.3l2-15.9l12.6,9.8c4.7,3.6,11.4,3.2,15.6-1l16.8-16.8
			c4.2-4.2,4.6-10.9,1-15.6l-9.9-12.6l15.9-2c5.9-0.8,10.3-5.8,10.3-11.7V92.1c0-5.9-4.4-11-10.3-11.7l-15.9-2l9.8-12.6
			c3.6-4.7,3.2-11.4-1-15.6l-16.8-16.8c-4.2-4.2-10.9-4.6-15.6-1l-12.6,9.8l-2-15.9c-0.7-5.9-5.8-10.3-11.7-10.3H92.1
			c-6,0-11,4.4-11.7,10.3l-2,15.9l-12.6-9.8c-4.7-3.6-11.4-3.2-15.6,1L33.4,50.2c-4.2,4.2-4.6,10.9-1,15.6l9.8,12.6l-15.9,2
			C20.4,81.1,16,86.2,16,92.1v23.7C16,121.8,20.4,126.8,26.3,127.6L26.3,127.6z M32,95.8l19-2.4c3-0.4,5.6-2.5,6.6-5.3
			c0.7-2,1.5-3.9,2.4-5.7c1.3-2.7,1-6-0.9-8.4L47.3,58.9l11.6-11.6L74,59c2.4,1.9,5.7,2.2,8.4,0.9c1.8-0.9,3.7-1.7,5.7-2.4
			c2.9-1,5-3.5,5.4-6.6l2.4-19h16.4l2.4,19c0.4,3,2.5,5.6,5.4,6.6c1.9,0.7,3.8,1.5,5.7,2.4c2.7,1.4,6,1,8.4-0.9l15.1-11.7l11.6,11.6
			L149,74c-1.9,2.4-2.2,5.7-0.9,8.4c0.9,1.9,1.7,3.8,2.4,5.7c1,2.9,3.5,5,6.6,5.3l19,2.4v16.4l-19,2.4c-3,0.4-5.6,2.5-6.6,5.3
			c-0.7,2-1.5,3.9-2.4,5.7c-1.3,2.7-1,6,0.9,8.4l11.7,15.1l-11.6,11.6L134,149c-2.4-1.9-5.7-2.2-8.4-0.9c-1.9,0.9-3.8,1.7-5.7,2.4
			c-2.9,1-4.9,3.5-5.3,6.6l-2.4,19H95.8l-2.4-19c-0.4-3-2.4-5.6-5.3-6.6c-2-0.7-3.9-1.5-5.7-2.4c-2.7-1.4-6-1-8.4,0.9l-15.1,11.7
			l-11.6-11.6L59,134c1.9-2.4,2.2-5.7,0.9-8.4c-0.9-1.9-1.7-3.8-2.4-5.7c-1-2.9-3.5-5-6.6-5.3L32,112.2L32,95.8z"/>
		<path class="st1" d="M104,144c22.1,0,40-17.9,40-40s-17.9-40-40-40s-40,17.9-40,40C64,126.1,81.9,144,104,144z M104,80
			c13.3,0,24,10.7,24,24s-10.7,24-24,24s-24-10.7-24-24S90.7,80,104,80z"/>
		<path class="st1" d="M488,128h-80c-4.4,0-8,3.6-8,8v352c0,4.4,3.6,8,8,8h80c4.4,0,8-3.6,8-8V136C496,131.6,492.4,128,488,128z
			 M480,480h-64V144h64V480z"/>
		<path class="st1" d="M232,256h-80c-4.4,0-8,3.6-8,8v224c0,4.4,3.6,8,8,8h80c4.4,0,8-3.6,8-8V264C240,259.6,236.4,256,232,256z
			 M224,480h-64V272h64V480z"/>
		<path class="st1" d="M104,320H24c-4.4,0-8,3.6-8,8v160c0,4.4,3.6,8,8,8h80c4.4,0,8-3.6,8-8V328C112,323.6,108.4,320,104,320z
			 M96,480H32V336h64V480z"/>
		<path class="st1" d="M400,80h-16c-2.1,0-4.2,0.8-5.7,2.3L316.7,144H256c-2.1,0-4.2,0.8-5.7,2.3L188.7,208H128
			c-2.1,0-4.2,0.8-5.7,2.3L60.7,272H16v16h48c2.1,0,4.2-0.8,5.7-2.3l61.7-61.7H192c2.1,0,4.2-0.8,5.7-2.3l61.7-61.7H320
			c2.1,0,4.2-0.8,5.7-2.3L387.3,96H400L400,80z"/>
		<path class="st1" d="M504.8,53.5c-1.1-3.3-4.1-5.5-7.6-5.5h-31.8l-9.8-30.2c-1.4-4.2-5.9-6.5-10.1-5.1c-2.4,0.8-4.3,2.7-5.1,5.1
			L430.6,48h-31.8c-4.4,0-8,3.6-8,8c0,2.6,1.2,5,3.3,6.5l25.7,18.7l-9.8,30.3c-1.4,4.2,0.9,8.7,5.1,10.1c2.4,0.8,5.1,0.4,7.2-1.1
			l25.7-18.7l25.7,18.7c3.6,2.6,8.6,1.8,11.2-1.8c1.5-2.1,1.9-4.7,1.1-7.2l-9.8-30.3l25.7-18.7C504.7,60.4,505.9,56.8,504.8,53.5z
			 M459.2,80.6l4,12.4l-10.5-7.6c-2.8-2-6.6-2-9.4,0l-10.5,7.6l4-12.4c1.1-3.3-0.1-6.9-2.9-8.9L423.4,64h13c3.5,0,6.5-2.2,7.6-5.5
			l4-12.4l4,12.4c1.1,3.3,4.2,5.5,7.6,5.5h13l-10.5,7.6C459.3,73.7,458.1,77.3,459.2,80.6L459.2,80.6z"/>
	</g>
</g>
</svg>
