<?xml version="1.0"?>
<svg xmlns="http://www.w3.org/2000/svg" height="512px" viewBox="0 0 496 496" width="512px" class=""><g><path d="m488 0h-480c-4.425781 0-8 3.585938-8 8v480c0 4.425781 3.574219 8 8 8h480c4.425781 0 8-3.574219 8-8v-480c0-4.414062-3.574219-8-8-8zm-8 16v80h-464v-80zm-464 464v-368h464v368zm0 0" data-original="#000000" class="active-path" data-old_color="#000000" fill="#FFFFFF"/><path d="m56 80c13.230469 0 24-10.769531 24-24s-10.769531-24-24-24-24 10.769531-24 24 10.769531 24 24 24zm0-32c4.414062 0 8 3.59375 8 8s-3.585938 8-8 8-8-3.59375-8-8 3.585938-8 8-8zm0 0" data-original="#000000" class="active-path" data-old_color="#000000" fill="#FFFFFF"/><path d="m120 80c13.230469 0 24-10.769531 24-24s-10.769531-24-24-24-24 10.769531-24 24 10.769531 24 24 24zm0-32c4.414062 0 8 3.59375 8 8s-3.585938 8-8 8-8-3.59375-8-8 3.585938-8 8-8zm0 0" data-original="#000000" class="active-path" data-old_color="#000000" fill="#FFFFFF"/><path d="m184 80c13.230469 0 24-10.769531 24-24s-10.769531-24-24-24-24 10.769531-24 24 10.769531 24 24 24zm0-32c4.414062 0 8 3.59375 8 8s-3.585938 8-8 8-8-3.59375-8-8 3.585938-8 8-8zm0 0" data-original="#000000" class="active-path" data-old_color="#000000" fill="#FFFFFF"/><path d="m248 368c66.167969 0 120-53.832031 120-120s-53.832031-120-120-120-120 53.832031-120 120 53.832031 120 120 120zm0-224c57.34375 0 104 46.65625 104 104s-46.65625 104-104 104-104-46.65625-104-104 46.65625-104 104-104zm0 0" data-original="#000000" class="active-path" data-old_color="#000000" fill="#FFFFFF"/><path d="m220.054688 302.960938c1.226562.695312 2.585937 1.039062 3.945312 1.039062 1.425781 0 2.847656-.382812 4.121094-1.144531l80-48c2.398437-1.441407 3.878906-4.046875 3.878906-6.855469s-1.480469-5.414062-3.878906-6.855469l-80-48c-2.480469-1.496093-5.546875-1.519531-8.066406-.105469-2.511719 1.417969-4.054688 4.082032-4.054688 6.960938v96c0 2.878906 1.542969 5.535156 4.054688 6.960938zm11.945312-88.832032 56.457031 33.871094-56.457031 33.863281zm0 0" data-original="#000000" class="active-path" data-old_color="#000000" fill="#FFFFFF"/><path d="m144 384c-19.3125 0-35.472656 13.769531-39.191406 32h-72.808594v16h72.808594c3.71875 18.230469 19.871094 32 39.191406 32s35.472656-13.769531 39.191406-32h280.808594v-16h-280.808594c-3.71875-18.230469-19.878906-32-39.191406-32zm0 64c-13.230469 0-24-10.769531-24-24s10.769531-24 24-24 24 10.769531 24 24-10.769531 24-24 24zm0 0" data-original="#000000" class="active-path" data-old_color="#000000" fill="#FFFFFF"/></g> </svg>
