<svg xmlns="http://www.w3.org/2000/svg" width="20.598" height="8.746" viewBox="0 0 20.598 8.746">
    <defs>
        <style>.a{fill:none;stroke:#4b4b4b;stroke-width:0.6px;}</style>
    </defs>
    <g transform="translate(-394.438 216.786) rotate(-90)">
        <path class="a" d="M2.715,3.055V.679a.679.679,0,0,0-1.358,0V3.055ZM.339,3.394H7.807a.339.339,0,0,1,.339.339v.679a.339.339,0,0,1-.339.339H7.467v.679A3.4,3.4,0,0,1,4.752,8.757v2.1H3.394v-2.1A3.4,3.4,0,0,1,.679,5.431V4.752H.339A.339.339,0,0,1,0,4.412V3.734A.339.339,0,0,1,.339,3.394Zm5.091-.339V.679a.679.679,0,1,1,1.358,0V3.055Z" transform="translate(208.339 403.875)" />
        <path class="a" d="M7.807,7.467H.339A.339.339,0,0,1,0,7.128V6.449a.339.339,0,0,1,.339-.339H.679V5.431A3.4,3.4,0,0,1,3.394,2.1V0H4.752V2.1A3.4,3.4,0,0,1,7.467,5.431v.679h.339a.339.339,0,0,1,.339.339v.679A.339.339,0,0,1,7.807,7.467Z" transform="translate(208.34 394.738)" />
        <path class="a" d="M7.807,7.467H.339A.339.339,0,0,1,0,7.128V6.449a.339.339,0,0,1,.339-.339H.679V5.431A3.4,3.4,0,0,1,3.394,2.1V0H4.752V2.1A3.4,3.4,0,0,1,7.467,5.431v.679h.339a.339.339,0,0,1,.339.339v.679A.339.339,0,0,1,7.807,7.467Z" transform="translate(208.34 394.738)" />
    </g>
</svg>