<svg width="34" height="42" viewBox="0 0 34 42" fill="none" xmlns="http://www.w3.org/2000/svg">
<path d="M22.1791 4.44336L29.7723 12.3765H22.1791V4.44336ZM14.6099 24.4966C14.4165 24.7196 14.1422 24.8569 13.8471 24.8784C13.5521 24.8999 13.2606 24.8037 13.0367 24.6111C12.8129 24.4185 12.675 24.1451 12.6534 23.8512C12.6319 23.5573 12.7284 23.2669 12.9218 23.0439L16.1539 19.3149C16.3481 19.0924 16.6228 18.9556 16.918 18.9345C17.2132 18.9133 17.5048 19.0096 17.7289 19.2021C17.7772 19.2463 17.823 19.2931 17.8661 19.3423L21.0571 22.856C21.255 23.074 21.3579 23.3614 21.3431 23.655C21.3283 23.9485 21.197 24.2242 20.9782 24.4214C20.7593 24.6185 20.4708 24.721 20.1761 24.7063C19.8814 24.6915 19.6046 24.5608 19.4067 24.3428L18.1166 22.9243V28.2051C18.1166 28.3514 18.0876 28.4963 18.0314 28.6315C17.9752 28.7667 17.8928 28.8895 17.789 28.993C17.6851 29.0964 17.5618 29.1785 17.4261 29.2345C17.2904 29.2905 17.1449 29.3193 16.998 29.3193C16.8511 29.3193 16.7057 29.2905 16.57 29.2345C16.4342 29.1785 16.3109 29.0964 16.2071 28.993C16.1032 28.8895 16.0208 28.7667 15.9646 28.6315C15.9084 28.4963 15.8795 28.3514 15.8795 28.2051V23.0303L14.6099 24.4966ZM8.31029 29.1963C8.31029 28.9008 8.42814 28.6174 8.63791 28.4084C8.84768 28.1994 9.13219 28.082 9.42885 28.082C9.72551 28.082 10.01 28.1994 10.2198 28.4084C10.4296 28.6174 10.5474 28.9008 10.5474 29.1963V31.7461H23.4555V29.1963C23.4471 29.045 23.4697 28.8936 23.522 28.7513C23.5743 28.609 23.6552 28.4789 23.7598 28.3688C23.8643 28.2588 23.9903 28.1711 24.13 28.1112C24.2697 28.0512 24.4202 28.0203 24.5723 28.0203C24.7244 28.0203 24.8749 28.0512 25.0146 28.1112C25.1544 28.1711 25.2803 28.2588 25.3849 28.3688C25.4894 28.4789 25.5703 28.609 25.6226 28.7513C25.6749 28.8936 25.6976 29.045 25.6892 29.1963V32.8604C25.6892 33.1559 25.5713 33.4393 25.3615 33.6483C25.1518 33.8572 24.8673 33.9746 24.5706 33.9746H9.42885C9.13219 33.9746 8.84768 33.8572 8.63791 33.6483C8.42814 33.4393 8.31029 33.1559 8.31029 32.8604V29.1963ZM33.996 13.395C34.0475 13.2002 33.5911 12.6875 33.0765 12.1782L21.8909 0.464844C21.7753 0.32124 21.6292 0.20503 21.4631 0.124632C21.2969 0.044234 21.1149 0.001662 20.9301 0L2.27143 0C1.66901 0 1.09126 0.23839 0.665288 0.662728C0.239311 1.08707 0 1.66259 0 2.2627L0 39.7373C0 40.0344 0.0587524 40.3287 0.172903 40.6032C0.287053 40.8777 0.454366 41.1272 0.665288 41.3373C0.87621 41.5474 1.12661 41.7141 1.40219 41.8278C1.67778 41.9415 1.97315 42 2.27143 42H31.7246C32.0229 42 32.3182 41.9415 32.5938 41.8278C32.8694 41.7141 33.1198 41.5474 33.3307 41.3373C33.5417 41.1272 33.709 40.8777 33.8231 40.6032C33.9373 40.3287 33.996 40.0344 33.996 39.7373V13.395ZM31.457 14.9058V39.4707H2.53907V2.51904H19.6434V13.6377C19.6434 13.8054 19.6768 13.9714 19.7416 14.1261C19.8065 14.2809 19.9015 14.4213 20.0211 14.5392C20.1408 14.6572 20.2827 14.7503 20.4388 14.8132C20.5948 14.8761 20.7618 14.9076 20.9301 14.9058H31.457Z" fill="#4B4B4B"/>
</svg>
