<svg xmlns="http://www.w3.org/2000/svg" xmlns:xlink="http://www.w3.org/1999/xlink" width="134" height="134" viewBox="0 0 134 134">
  <defs>
    <style>
      .cls-1 {
        clip-path: url(#clip-uptime);
      }

      .cls-2 {
        fill: #fff;
      }
    </style>
    <clipPath id="clip-uptime">
      <rect width="134" height="134"/>
    </clipPath>
  </defs>
  <g id="uptime" class="cls-1">
    <g id="Group_23" data-name="Group 23" transform="translate(-3.522 -3.741)">
      <path id="Path_16" data-name="Path 16" class="cls-2" d="M133.992,47.4,113.223,15.36a1.358,1.358,0,0,0-2.278,0L90.176,47.4a1.357,1.357,0,0,0,.4,1.876l5.605,3.648a1.358,1.358,0,0,0,1.878-.4L104.9,42.013v82.371a1.358,1.358,0,0,0,1.357,1.357h11.65a1.357,1.357,0,0,0,1.357-1.357V42.013l6.844,10.515a1.358,1.358,0,0,0,1.878.4l5.606-3.648A1.358,1.358,0,0,0,133.992,47.4Z"/>
      <path id="Path_17" data-name="Path 17" class="cls-2" d="M79.1,91.584,65.584,78.068V44.741a4,4,0,0,0-8,0v34a3.9,3.9,0,0,0,.048.474,3.987,3.987,0,0,0,1.119,3.334L73.443,97.241A4,4,0,0,0,79.1,91.584Z"/>
      <path id="Path_18" data-name="Path 18" class="cls-2" d="M63.022,114.866A43.375,43.375,0,1,1,89.986,37.529l6.621-10.214a55.5,55.5,0,1,0,3.941,85.059V93.234A43.346,43.346,0,0,1,63.022,114.866Z"/>
    </g>
  </g>
</svg>
