<svg width="200" height="200" viewBox="0 0 130 118" fill="none" xmlns="http://www.w3.org/2000/svg">
    <path d="M46.9123 59.605C62.3279 59.605 74.8247 47.1574 74.8247 31.8025C74.8247 16.4476 62.3279 4 46.9123 4C31.4968 4 19 16.4476 19 31.8025C19 47.1574 31.4968 59.605 46.9123 59.605Z" stroke="#4B4B4B" stroke-width="8" stroke-miterlimit="10"/>
    <path d="M62.2173 71.3659C62.2173 71.3659 39.1505 77.715 18.867 62.5317C18.1964 62.029 17.2374 62.1942 16.7687 62.8837C12.5721 69.0101 -4.27913 95.7927 9.02448 112.527H62.2173" stroke="#4B4B4B" stroke-width="8" stroke-miterlimit="10"/>
    <path d="M96.1382 51.0143C95.4316 51.0143 94.8331 51.5243 94.7177 52.2209L93.3116 60.775C91.6243 61.2634 90.0164 61.9242 88.5021 62.7429L81.4141 57.701C80.8445 57.2916 80.0585 57.3563 79.561 57.8518L73.9511 63.4324C73.4536 63.928 73.3887 64.7037 73.7925 65.2711L78.775 72.3743C77.9386 73.8898 77.2608 75.5058 76.756 77.2008L68.2042 78.6157C67.512 78.7306 67.0001 79.3339 67.0001 80.0306V87.9311C67.0001 88.6278 67.4976 89.2239 68.1898 89.346L76.7488 90.8543C77.2464 92.5493 77.9242 94.1581 78.7606 95.6807L73.7132 102.712C73.3021 103.28 73.367 104.062 73.8646 104.558L79.4744 110.146C79.972 110.641 80.7435 110.706 81.3204 110.311L88.4661 105.326C89.9875 106.152 91.5955 106.82 93.29 107.309L94.7177 115.877C94.8331 116.567 95.4316 117.077 96.1382 117.077H104.07C104.769 117.077 105.368 116.574 105.49 115.892L107.019 107.294C108.706 106.792 110.307 106.117 111.821 105.291L119.018 110.318C119.587 110.72 120.373 110.649 120.863 110.16L126.473 104.565C126.971 104.07 127.036 103.28 126.625 102.712L121.498 95.6161C122.32 94.115 122.976 92.5277 123.466 90.8615L132.148 89.346C132.84 89.2239 133.338 88.6278 133.338 87.9311V80.0306C133.338 79.3268 132.826 78.7306 132.126 78.6157L123.459 77.208C122.962 75.5417 122.306 73.9544 121.484 72.4605L126.545 65.2783C126.949 64.7109 126.877 63.928 126.387 63.4396L120.777 57.8518C120.279 57.3563 119.486 57.2916 118.917 57.701L111.814 62.786C110.3 61.9601 108.692 61.2849 107.005 60.7894L105.498 52.1922C105.375 51.5027 104.777 51 104.077 51H96.1454L96.1382 51.0143ZM100.169 56.1047H102.863L103.875 64.3087C103.962 64.8114 104.337 65.2136 104.834 65.3357C106.731 65.8026 108.504 66.5495 110.127 67.5263C110.574 67.7921 111.129 67.7705 111.555 67.4689L117.611 63.1308L121.101 66.607L116.789 72.7263C116.494 73.1428 116.472 73.6959 116.739 74.134C117.712 75.75 118.448 77.5096 118.924 79.3842C119.046 79.887 119.457 80.2604 119.969 80.3466L127.36 81.5533V86.4659L119.955 87.7587C119.45 87.8449 119.046 88.2256 118.924 88.7211C118.455 90.5957 117.72 92.3554 116.746 93.9642C116.479 94.4023 116.501 94.9625 116.804 95.3791L121.181 101.427L117.691 104.903L111.555 100.615C111.136 100.32 110.581 100.306 110.141 100.572C108.526 101.549 106.745 102.296 104.863 102.777C104.366 102.899 103.991 103.301 103.904 103.804L102.599 111.137H97.6596L96.441 103.833C96.3545 103.323 95.9796 102.913 95.4748 102.791C93.5784 102.324 91.7974 101.585 90.1606 100.608C89.7207 100.349 89.1727 100.364 88.7545 100.658L82.6687 104.91L79.1788 101.427L83.4835 95.4365C83.7864 95.02 83.808 94.4598 83.534 94.0216C82.539 92.3913 81.7891 90.6101 81.3204 88.714C81.1978 88.2184 80.794 87.8449 80.2892 87.7587L72.9993 86.4659V81.5461L80.282 80.3395C80.794 80.2533 81.1978 79.8798 81.3276 79.377C81.8035 77.4737 82.5534 75.6997 83.5412 74.0694C83.808 73.6312 83.7864 73.0782 83.498 72.6616L79.2437 66.607L82.7336 63.1308L88.7689 67.4258C89.1872 67.7202 89.7424 67.749 90.1894 67.4832C91.8118 66.5136 93.6073 65.7738 95.5037 65.307C96.0084 65.1849 96.3906 64.7755 96.4699 64.2584L97.3629 56.1047H100.169ZM100.169 71.6047C93.8164 71.6047 87.8629 77.7251 87.8629 84.0527C87.8629 90.3802 93.5103 96.0767 99.8629 96.0767C106.215 96.0767 111.821 90.3802 111.821 84.0527C111.821 77.7251 106.521 71.6047 100.169 71.6047ZM100.169 75.434C104.964 75.434 108.173 79.2765 108.173 84.0527C108.173 88.8289 104.964 92.6714 100.169 92.6714C95.3739 92.6714 91.6731 88.8289 91.6731 84.0527C91.6731 79.2765 95.3739 75.434 100.169 75.434Z" fill="#4B4B4B"/>
</svg>