<svg xmlns="http://www.w3.org/2000/svg" xmlns:xlink="http://www.w3.org/1999/xlink" width="134" height="134" viewBox="0 0 134 134">
  <defs>
    <style>
      .cls-1 {
        clip-path: url(#clip-User);
      }

      .cls-2 {
        fill: #fff;
      }
    </style>
    <clipPath id="clip-User">
      <rect width="134" height="134"/>
    </clipPath>
  </defs>
  <g id="User" class="cls-1">
    <g id="Group_70" data-name="Group 70" transform="translate(-7.583 -2)">
      <g id="Group_68" data-name="Group 68">
        <circle id="Ellipse_1" data-name="Ellipse 1" class="cls-2" cx="23.039" cy="23.039" r="23.039" transform="translate(39.972 29)"/>
        <path id="Path_52" data-name="Path 52" class="cls-2" d="M86.4,73.985a1.441,1.441,0,0,0-1.345.46c-1.824,2.079-8.969,9.139-22.044,9.33-13.075-.191-20.221-7.251-22.044-9.33a1.442,1.442,0,0,0-1.346-.46C26.7,76.276,22.716,106.514,23.735,114.371a11.385,11.385,0,0,0,4.106,7.082A17.5,17.5,0,0,0,39.359,125.6H86.665a17.5,17.5,0,0,0,11.517-4.144,11.387,11.387,0,0,0,4.107-7.082C103.308,106.514,99.321,76.276,86.4,73.985Z"/>
      </g>
      <g id="Group_69" data-name="Group 69">
        <path id="Path_53" data-name="Path 53" class="cls-2" d="M90.727,51.4a25.385,25.385,0,0,1-1.108,7.434A23.039,23.039,0,1,0,65.53,26,25.4,25.4,0,0,1,90.727,51.4Z"/>
        <path id="Path_54" data-name="Path 54" class="cls-2" d="M109.139,58.985a1.441,1.441,0,0,0-1.345.46c-1.682,1.917-7.9,8.06-19.117,9.154,5.385,1.261,9.219,5.945,11.943,11.766,4.58,9.438,6.524,22.756,6.592,30.232H109.4a17.5,17.5,0,0,0,11.518-4.144,11.39,11.39,0,0,0,4.106-7.082C126.046,91.514,122.059,61.276,109.139,58.985Z"/>
      </g>
    </g>
  </g>
</svg>
