<svg xmlns="http://www.w3.org/2000/svg" width="21.834" height="19.52" viewBox="0 0 21.834 19.52">
  <g id="Icon_awesome-edit" data-name="Icon awesome-edit" transform="translate(0.5 0.5)">
    <path id="Icon_awesome-edit-2" data-name="Icon awesome-edit" d="M14.482,3.013l3.245,3.263a.355.355,0,0,1,0,.5l-7.856,7.9-3.338.373a.7.7,0,0,1-.773-.778l.371-3.357,7.856-7.9A.35.35,0,0,1,14.482,3.013Zm5.828-.828L18.555.419a1.4,1.4,0,0,0-1.986,0L15.3,1.7a.355.355,0,0,0,0,.5L18.54,5.463a.35.35,0,0,0,.5,0L20.31,4.182A1.421,1.421,0,0,0,20.31,2.185Zm-6.5,10.343v3.683H2.3V4.634h8.266a.441.441,0,0,0,.306-.127l1.439-1.447a.434.434,0,0,0-.306-.742H1.727A1.732,1.732,0,0,0,0,4.055V16.79a1.732,1.732,0,0,0,1.727,1.737H14.389a1.732,1.732,0,0,0,1.727-1.737V11.081a.432.432,0,0,0-.737-.308l-1.439,1.447A.446.446,0,0,0,13.813,12.528Z" transform="translate(0 -0.007)" fill="none" stroke="#fff" stroke-width="1" opacity="0.7"/>
  </g>
</svg>