<svg id="View" xmlns="http://www.w3.org/2000/svg" width="12.667" height="7.917" viewBox="0 0 12.667 7.917">
  <path id="Show" d="M6.333,31.917A7.61,7.61,0,0,1,.05,28.151a.4.4,0,0,1,0-.385A7.61,7.61,0,0,1,6.333,24a7.61,7.61,0,0,1,6.283,3.766.4.4,0,0,1,0,.385A7.61,7.61,0,0,1,6.333,31.917ZM.862,27.958a6.834,6.834,0,0,0,5.472,3.167,6.81,6.81,0,0,0,5.472-3.166,6.834,6.834,0,0,0-5.472-3.167A6.81,6.81,0,0,0,.862,27.958Zm5.472,2.376a2.375,2.375,0,1,1,2.375-2.375A2.378,2.378,0,0,1,6.333,30.333Zm0-3.958a1.583,1.583,0,1,0,1.583,1.583A1.585,1.585,0,0,0,6.333,26.375Z" transform="translate(0 -24)" fill="#595959"/>
</svg>
