<svg width="14" height="12" viewBox="0 0 14 12" fill="none" xmlns="http://www.w3.org/2000/svg">
    <path d="M3.87616 11.0173C3.86909 11.0128 3.86314 11.0068 3.85873 10.9997C3.85431 10.9926 3.85157 10.9846 3.85067 10.9763C3.84978 10.968 3.85076 10.9596 3.85356 10.9517C3.85635 10.9439 3.86089 10.9367 3.86683 10.9308L4.4469 10.3568C4.46175 10.3421 4.48113 10.3327 4.50198 10.3301C4.52283 10.3275 4.54396 10.3318 4.56205 10.3424C5.82277 11.0677 7.42325 11.2785 9.07089 10.6786C9.70473 10.45 10.2825 10.091 10.7661 9.62552C11.2498 9.16 11.6283 8.59842 11.8769 7.97772C13.5927 3.63932 9.4872 -0.433077 5.10432 1.24831C4.49909 1.48162 3.9486 1.83521 3.48682 2.28727C3.02504 2.73932 2.66176 3.28024 2.41942 3.87664C1.85435 5.26671 1.89638 6.62476 2.34936 7.78025L2.94453 6.71525C2.95171 6.70233 2.9614 6.69095 2.97305 6.68175C2.98469 6.67255 2.99805 6.66572 3.01238 6.66166C3.0267 6.6576 3.0417 6.65638 3.0565 6.65807C3.0713 6.65977 3.08563 6.66434 3.09864 6.67153L3.56312 6.92573C3.58928 6.94011 3.60859 6.96416 3.61685 6.99262C3.62511 7.02108 3.62165 7.05161 3.60719 7.07754L2.39805 9.2413C2.38354 9.26725 2.3592 9.28644 2.3304 9.29464C2.30159 9.30284 2.27069 9.29938 2.24446 9.28502L0.0582593 8.08834C0.0320607 8.07398 0.0126896 8.04991 0.00440619 8.02143C-0.0038772 7.99295 -0.000388472 7.96238 0.0140882 7.93643L0.270938 7.47663C0.285465 7.45072 0.309783 7.43157 0.338561 7.42339C0.36734 7.41522 0.398216 7.41868 0.42442 7.43301L1.41926 7.97751C0.950767 6.6821 0.918714 5.1813 1.5144 3.64491C1.80669 2.89515 2.25872 2.21649 2.83978 1.65512C3.42084 1.09376 4.11728 0.662862 4.88168 0.391752C9.956 -1.40982 14.642 3.30591 12.6729 8.33563C12.3903 9.05272 11.9597 9.70367 11.4088 10.247C10.8579 10.7903 10.1986 11.2141 9.47302 11.4913C8.71685 11.7853 7.91215 11.9381 7.09972 11.9418C5.95824 11.9433 4.84 11.6226 3.87616 11.0173ZM4.51542 8.71937L4.54542 8.2675L4.58826 7.62071L4.58959 7.62203L8.42003 3.83119L9.63874 5.03732L5.8084 8.82827L5.80973 8.82959L5.15619 8.87209L4.69963 8.90178C4.69573 8.90178 4.69182 8.90178 4.68792 8.90178C4.66427 8.90175 4.64088 8.89692 4.61919 8.88759C4.5975 8.87827 4.57796 8.86464 4.5618 8.84756C4.54564 8.83048 4.53319 8.8103 4.52521 8.78827C4.51723 8.76624 4.51391 8.74283 4.51542 8.71947V8.71937ZM8.83511 3.4205L9.45267 2.8094C9.46875 2.79349 9.48783 2.78088 9.50883 2.77227C9.52984 2.76365 9.55234 2.75922 9.57508 2.75922C9.59781 2.75922 9.62034 2.76365 9.64135 2.77227C9.66235 2.78088 9.68143 2.79349 9.69751 2.8094L10.6715 3.77334C10.6876 3.78924 10.7003 3.80812 10.709 3.82891C10.7177 3.8497 10.7222 3.87198 10.7222 3.89448C10.7222 3.91699 10.7177 3.93927 10.709 3.96006C10.7003 3.98085 10.6876 3.99974 10.6715 4.01564L10.0539 4.62684L8.83511 3.4205Z" fill="#3491FF"/>
</svg>
