<svg width="17" height="14" viewBox="0 0 17 14" fill="none" xmlns="http://www.w3.org/2000/svg">
<path d="M7.41714 1.19908L1.45488 11.1683C1.33197 11.3815 1.26699 11.6232 1.26639 11.8693C1.26579 12.1155 1.32958 12.3575 1.45144 12.5713C1.5733 12.7851 1.74897 12.9633 1.96098 13.0881C2.173 13.2129 2.41397 13.28 2.65995 13.2827H14.5931C14.8391 13.28 15.0801 13.2129 15.2921 13.0881C15.5041 12.9633 15.6798 12.7851 15.8016 12.5713C15.9235 12.3575 15.9873 12.1155 15.9867 11.8693C15.9861 11.6232 15.9211 11.3815 15.7982 11.1683L9.83223 1.19908C9.70665 0.991798 9.52977 0.820408 9.31868 0.701459C9.10759 0.58251 8.86942 0.52002 8.62716 0.52002C8.3849 0.52002 8.14673 0.58251 7.93564 0.701459C7.72455 0.820408 7.54768 0.991798 7.42209 1.19908H7.41714Z" stroke="#DB3B21" stroke-linecap="round" stroke-linejoin="round"/>
<path d="M8.62722 4.82227V7.64232" stroke="#DB3B21" stroke-linecap="round" stroke-linejoin="round"/>
<rect x="8.02713" y="8.90137" width="1.23724" height="1.23795" rx="0.61862" fill="#E34537"/>
</svg>
