<?xml version="1.0"?>
<svg color="#c8ced3" xmlns="http://www.w3.org/2000/svg" fill="#c8ced3" height="512px" viewBox="0 0 480 480" width="512px"><g><path d="m153.191406 276.207031c1.460938 2.359375 4.035156 3.792969 6.808594 3.792969h160c2.78125.015625 5.367188-1.414062 6.835938-3.773438 1.46875-2.363281 1.605468-5.316406.363281-7.800781l-80-160c-1.503907-2.523437-4.222657-4.070312-7.160157-4.070312-2.933593 0-5.65625 1.546875-7.160156 4.070312l-80 160c-1.25 2.472657-1.132812 5.417969.3125 7.78125zm86.808594-146.320312 67.054688 134.113281h-134.109376zm0 0" data-original="#000000" class="active-path" data-old_color="#000000" fill="#c8ced3"/><path d="m232 168h16v48h-16zm0 0" data-original="#000000" class="active-path" data-old_color="#000000" fill="#c8ced3"/><path d="m232 232h16v16h-16zm0 0" data-original="#000000" class="active-path" data-old_color="#000000" fill="#c8ced3"/><path d="m440 0h-400c-22.082031.0273438-39.9726562 17.917969-40 40v304c.0273438 22.082031 17.917969 39.972656 40 40h134.9375l-6 48h-16.9375c-13.253906 0-24 10.746094-24 24s10.746094 24 24 24h176c13.253906 0 24-10.746094 24-24s-10.746094-24-24-24h-16.9375l-6-48h134.9375c22.082031-.027344 39.972656-17.917969 40-40v-304c-.027344-22.082031-17.917969-39.9726562-40-40zm-400 16h400c13.253906 0 24 10.746094 24 24v24h-448v-24c0-13.253906 10.746094-24 24-24zm424 64v224h-448v-224zm-128 376c0 4.417969-3.582031 8-8 8h-176c-4.417969 0-8-3.582031-8-8s3.582031-8 8-8h176c4.417969 0 8 3.582031 8 8zm-41.0625-24h-109.875l6-48h97.875zm145.0625-64h-400c-13.253906 0-24-10.746094-24-24v-24h448v24c0 13.253906-10.746094 24-24 24zm0 0" data-original="#000000" class="active-path" data-old_color="#000000" fill="#c8ced3"/><path d="m416 336h16v16h-16zm0 0" data-original="#000000" class="active-path" data-old_color="#000000" fill="#c8ced3"/><path d="m48 32h16v16h-16zm0 0" data-original="#000000" class="active-path" data-old_color="#000000" fill="#c8ced3"/><path d="m80 32h16v16h-16zm0 0" data-original="#000000" class="active-path" data-old_color="#000000" fill="#c8ced3"/><path d="m112 32h16v16h-16zm0 0" data-original="#000000" class="active-path" data-old_color="#000000" fill="#c8ced3"/></g> </svg>
