<?xml version="1.0" encoding="utf-8"?>
<!-- Generator: Adobe Illustrator 23.1.1, SVG Export Plug-In . SVG Version: 6.00 Build 0)  -->
<svg version="1.1" id="Layer_1" xmlns="http://www.w3.org/2000/svg" xmlns:xlink="http://www.w3.org/1999/xlink" x="0px" y="0px"
	 viewBox="0 0 512 512" style="enable-background:new 0 0 512 512;" xml:space="preserve">
<style type="text/css">
	.st0{fill:#FFFFFF;}
</style>
<g>
	<path class="st0" d="M163.4,294.6c1.6,2.5,4.3,4,7.3,4h170.7c3,0,5.7-1.5,7.3-4c1.6-2.5,1.7-5.7,0.4-8.3l-85.3-170.7
		c-1.6-2.7-4.5-4.3-7.6-4.3c-3.1,0-6,1.7-7.6,4.3l-85.3,170.7C161.7,289,161.9,292.1,163.4,294.6z M256,138.5l71.5,143.1H184.5
		L256,138.5z"/>
	<path class="st0" d="M247.5,179.2h17.1v51.2h-17.1V179.2z"/>
	<path class="st0" d="M247.5,247.5h17.1v17.1h-17.1V247.5z"/>
	<path class="st0" d="M469.3,0H42.7C19.1,0,0,19.1,0,42.7v324.3c0,23.6,19.1,42.6,42.7,42.7h143.9l-6.4,51.2h-18.1
		c-14.1,0-25.6,11.5-25.6,25.6S148,512,162.1,512h187.7c14.1,0,25.6-11.5,25.6-25.6s-11.5-25.6-25.6-25.6h-18.1l-6.4-51.2h143.9
		c23.6,0,42.6-19.1,42.7-42.7V42.7C512,19.1,492.9,0,469.3,0z M42.7,17.1h426.7c14.1,0,25.6,11.5,25.6,25.6v25.6H17.1V42.7
		C17.1,28.5,28.5,17.1,42.7,17.1z M494.9,85.3v238.9H17.1V85.3H494.9z M358.4,486.4c0,4.7-3.8,8.5-8.5,8.5H162.1
		c-4.7,0-8.5-3.8-8.5-8.5s3.8-8.5,8.5-8.5h187.7C354.6,477.9,358.4,481.7,358.4,486.4z M314.6,460.8H197.4l6.4-51.2h104.4
		L314.6,460.8z M469.3,392.5H42.7c-14.1,0-25.6-11.5-25.6-25.6v-25.6h477.9v25.6C494.9,381.1,483.5,392.5,469.3,392.5z"/>
	<path class="st0" d="M443.7,358.4h17.1v17.1h-17.1V358.4z"/>
	<path class="st0" d="M51.2,34.1h17.1v17.1H51.2V34.1z"/>
	<path class="st0" d="M85.3,34.1h17.1v17.1H85.3V34.1z"/>
	<path class="st0" d="M119.5,34.1h17.1v17.1h-17.1V34.1z"/>
</g>
</svg>
