<svg width="28" height="28" viewBox="0 0 28 28" fill="none" xmlns="http://www.w3.org/2000/svg">
<path d="M10.8561 0.0657177C10.7664 0.0946414 10.6795 0.131449 10.5963 0.175708C10.4356 0.2681 10.2121 0.511179 10.2121 0.591472C10.2121 0.627769 10.3343 1.34821 10.484 2.18963C10.6337 3.03106 10.7559 3.78009 10.7559 3.83949C10.7561 3.92014 10.7343 3.99932 10.6931 4.06863C10.6518 4.13793 10.5925 4.19478 10.5215 4.23313C10.4505 4.27148 10.3704 4.2899 10.2898 4.28644C10.2091 4.28297 10.1309 4.25775 10.0635 4.21346C9.89723 4.11006 9.88953 4.08477 9.62312 2.5845C9.48881 1.81457 9.37212 1.16782 9.36661 1.15462C9.3534 1.11833 9.18497 1.20412 8.83489 1.4285C7.70781 2.15114 6.85522 3.22988 6.41298 4.49283C6.22979 5.0134 6.12227 5.55752 6.09372 6.10859L6.07611 6.41106L5.85594 6.42646C5.68985 6.42967 5.52781 6.47833 5.38748 6.56716C5.24714 6.65598 5.13387 6.78155 5.06 6.93022C5.00255 7.04253 4.97741 7.16855 4.98735 7.29429C4.97559 7.41951 4.99883 7.54554 5.05449 7.65836C5.14769 7.84863 5.30302 8.00149 5.49485 8.09172L5.64015 8.15881H18.5005L18.6481 8.08622C18.8509 7.98101 19.0106 7.80826 19.0994 7.59786C19.132 7.4936 19.1476 7.38479 19.1456 7.27559C19.1516 7.15175 19.1218 7.02881 19.0598 6.92142C18.9868 6.77101 18.8725 6.64448 18.7302 6.55663C18.5878 6.46878 18.4234 6.42325 18.2561 6.42536L18.0514 6.40776L18.0338 6.16029C17.9934 5.34189 17.7851 4.54053 17.4217 3.80599C17.0582 3.07145 16.5475 2.41944 15.9212 1.89046C15.5743 1.58268 15.1804 1.3324 14.7543 1.14912C14.7543 1.25031 14.2512 3.98358 14.2259 4.03747C14.1932 4.10147 14.1459 4.1569 14.0878 4.19925C14.0298 4.24161 13.9625 4.2697 13.8916 4.28127C13.8206 4.29284 13.7479 4.28755 13.6794 4.26583C13.6109 4.24411 13.5484 4.20658 13.4971 4.15626C13.3209 3.98028 13.3187 4.03967 13.6369 2.23363C13.7954 1.34271 13.9242 0.594772 13.9242 0.573873C13.8356 0.419935 13.7109 0.289736 13.5609 0.194407C13.289 0.0184219 13.2307 0.0140222 12.0626 0.0162221C11.6599 -0.0164006 11.2548 0.000220833 10.8561 0.0657177Z" fill="white"/>
<path d="M6.14215 9.10608C6.14215 9.13247 6.16086 9.29966 6.18398 9.47564C6.39171 11.5372 7.25696 13.4774 8.65214 15.0104C9.35731 15.759 10.2732 16.2764 11.2788 16.4941C11.538 16.5474 11.8028 16.5673 12.067 16.5535C12.332 16.5671 12.5976 16.5472 12.8575 16.4941C13.8946 16.2662 14.8345 15.7201 15.5458 14.9323C16.9111 13.3908 17.7534 11.4573 17.9523 9.40854C17.9732 9.23806 17.9908 9.08848 17.9908 9.07858C17.8719 9.05882 17.7512 9.0518 17.6309 9.05767H17.2709L17.2532 9.21825C17.115 10.5871 16.6816 11.9099 15.9828 13.0954C15.5047 13.8944 14.8479 14.572 14.064 15.0753C13.6328 15.3306 13.1599 15.5078 12.667 15.5988C12.292 15.6483 11.9125 15.6528 11.5364 15.612C10.8611 15.478 10.2217 15.2029 9.66018 14.8049C9.09864 14.4068 8.62759 13.8948 8.27784 13.3022C7.53204 12.1265 7.06129 10.7978 6.90065 9.41515L6.85442 9.06979L6.49884 9.06207C6.15977 9.05217 6.14215 9.05218 6.14215 9.10608Z" fill="white"/>
<path d="M24.1227 12.8089C23.4694 12.9255 22.8659 13.2345 22.3896 13.6962C21.9134 14.1579 21.5861 14.7514 21.4498 15.4003C21.4091 15.6178 21.3932 15.8392 21.4024 16.0603C21.3863 16.3963 21.4349 16.7324 21.5456 17.0502L21.6006 17.2129L18.3464 20.4577C14.8357 23.9576 15.0174 23.764 14.9183 24.139C14.8578 24.3945 14.8721 24.662 14.9593 24.9096C15.0466 25.1573 15.2032 25.3747 15.4105 25.536C15.6179 25.6972 15.8672 25.7956 16.1289 25.8194C16.3906 25.8432 16.6536 25.7914 16.8867 25.6701C17.0243 25.6008 17.4889 25.1487 20.2884 22.3638L23.5315 19.14L23.7022 19.1939C24.0307 19.2968 24.3741 19.3448 24.7183 19.3358C25.0713 19.3444 25.4229 19.2877 25.7553 19.1686C26.277 18.9934 26.7462 18.6901 27.1199 18.2865C27.4937 17.8829 27.76 17.392 27.8943 16.8588C27.9334 16.7015 27.9635 16.5421 27.9846 16.3814L28 16.1878L27.6884 15.8777L27.3747 15.5675L26.6041 16.3374L25.8335 17.1074H24.5642L24.1029 16.6476L23.6438 16.1911V14.9009L24.4089 14.1398L25.1741 13.3787L24.8702 13.0762C24.5697 12.7737 24.5641 12.7715 24.4474 12.7737C24.3385 12.7781 24.23 12.7898 24.1227 12.8089ZM16.4981 23.852C16.6134 23.9045 16.712 23.9877 16.7833 24.0925C16.8545 24.1972 16.8956 24.3195 16.9021 24.4459C16.9057 24.5295 16.8922 24.6129 16.8623 24.6911C16.8324 24.7692 16.7867 24.8404 16.7282 24.9002C16.651 24.9861 16.5525 25.05 16.4425 25.0854C16.3326 25.1208 16.2152 25.1265 16.1024 25.1017C15.9896 25.077 15.8853 25.0228 15.8003 24.9447C15.7153 24.8666 15.6526 24.7673 15.6185 24.6571C15.5691 24.5309 15.5691 24.3907 15.6185 24.2644C15.6589 24.1305 15.7426 24.0138 15.8566 23.9326C15.9705 23.8513 16.1083 23.8102 16.2482 23.8157C16.3328 23.8145 16.4172 23.8268 16.4981 23.852Z" fill="white"/>
<path d="M7.01075 15.7643C6.22971 15.861 5.46668 16.0696 4.74516 16.3836C3.61074 16.8833 2.60871 17.6406 1.81882 18.5954C1.02894 19.5501 0.473001 20.6759 0.195253 21.8831C-0.0344511 22.8612 -0.0617956 23.8759 0.114892 24.865C0.226992 25.5365 0.542883 26.1573 1.01981 26.6435C1.86197 27.4827 3.13018 27.8622 5.44311 27.9733C6.1895 28.0074 17.9094 28.0096 18.6657 27.9733C21.5103 27.8391 22.9095 27.266 23.6383 25.9341C23.9757 25.0148 24.1243 24.037 24.0753 23.0591C24.0263 22.0812 23.7807 21.1231 23.3532 20.2421C23.34 20.2267 22.1686 21.375 20.3808 23.1491C18.167 25.3489 17.3964 26.099 17.2852 26.1639C16.926 26.3823 16.5069 26.4818 16.0878 26.448C15.6686 26.4142 15.2709 26.2489 14.9514 25.9757C14.6319 25.7026 14.4069 25.3356 14.3087 24.9271C14.2104 24.5186 14.2438 24.0896 14.4042 23.7012C14.5649 23.3218 14.5649 23.3218 17.7233 20.1749L20.7441 17.1623L20.5162 17.0105C19.465 16.3201 18.2641 15.8903 17.0133 15.7567C16.9032 15.7435 16.9032 15.7435 16.8889 15.8369C16.7977 16.265 16.6402 16.6761 16.4221 17.0556C15.5329 18.6851 14.5423 20.2574 13.4564 21.7632C13.2362 22.0833 13.1261 22.212 13.1261 22.1757C13.1129 22.0591 12.9136 19.1608 12.9136 19.0574C12.9136 18.9541 12.9213 18.9474 13.0017 18.9002C13.3149 18.7032 13.5687 18.4249 13.736 18.095C13.825 17.9004 13.8787 17.6915 13.8945 17.478C13.8322 17.4864 13.7717 17.5046 13.7151 17.5319C13.3595 17.6553 12.9931 17.7451 12.6208 17.8002C12.3838 17.8239 12.1454 17.8302 11.9074 17.819C11.4434 17.8154 10.9833 17.7332 10.5467 17.5759L10.2429 17.4725V17.5396C10.2639 17.7302 10.3164 17.916 10.3981 18.0895C10.5105 18.3122 10.6615 18.5134 10.844 18.6835C10.9552 18.7811 11.0771 18.866 11.2073 18.9365C11.2304 18.9442 11.0366 22.08 11.0047 22.1812C10.9838 22.2483 9.56037 20.1574 8.82388 18.9827C8.16957 18.0506 7.6455 17.0337 7.26615 15.9601C7.2596 15.88 7.23556 15.8023 7.1957 15.7324L7.01075 15.7643Z" fill="white"/>
</svg>
