<svg width="15" height="15" viewBox="0 0 15 15" fill="none" xmlns="http://www.w3.org/2000/svg">
<path d="M5.81573 0.0352059C5.76768 0.0507008 5.72111 0.070419 5.67655 0.0941293C5.59045 0.143625 5.47072 0.273846 5.47072 0.31686C5.47072 0.336305 5.53619 0.722253 5.61639 1.17302C5.6966 1.62378 5.76206 2.02505 5.76206 2.05687C5.76214 2.10007 5.7505 2.14249 5.72839 2.17962C5.70628 2.21675 5.67452 2.2472 5.63648 2.26775C5.59844 2.28829 5.55554 2.29816 5.51234 2.2963C5.46914 2.29445 5.42724 2.28094 5.39111 2.25721C5.30205 2.20182 5.29793 2.18827 5.15521 1.38455C5.08326 0.972088 5.02074 0.625619 5.01779 0.618548C5.01072 0.599103 4.92048 0.645063 4.73294 0.765267C4.12915 1.1524 3.67241 1.73029 3.43549 2.40687C3.33736 2.68575 3.27975 2.97725 3.26446 3.27246L3.25502 3.4345L3.13708 3.44275C3.0481 3.44447 2.96129 3.47054 2.88611 3.51812C2.81093 3.5657 2.75025 3.63297 2.71068 3.71262C2.6799 3.77278 2.66643 3.8403 2.67176 3.90765C2.66546 3.97474 2.67791 4.04226 2.70773 4.10269C2.75766 4.20462 2.84087 4.28651 2.94364 4.33485L3.02148 4.37079H9.91097L9.99 4.3319C10.0987 4.27554 10.1842 4.183 10.2318 4.07028C10.2492 4.01443 10.2576 3.95614 10.2566 3.89764C10.2597 3.83129 10.2438 3.76543 10.2106 3.7079C10.1715 3.62733 10.1102 3.55954 10.034 3.51248C9.95774 3.46542 9.86966 3.44103 9.78004 3.44216L9.67035 3.43273L9.66092 3.30015C9.63931 2.86173 9.5277 2.43243 9.33301 2.03892C9.13831 1.64542 8.8647 1.29613 8.52918 1.01275C8.34336 0.847863 8.13231 0.713784 7.90404 0.615602C7.90404 0.669811 7.63453 2.13406 7.62096 2.16293C7.60347 2.19722 7.57814 2.22691 7.54703 2.2496C7.51592 2.27229 7.4799 2.28734 7.44188 2.29354C7.40387 2.29973 7.36493 2.2969 7.32821 2.28527C7.29149 2.27363 7.25804 2.25352 7.23055 2.22657C7.13619 2.13229 7.135 2.16411 7.30544 1.19659C7.39037 0.719307 7.45937 0.318628 7.45937 0.307432C7.41188 0.224965 7.3451 0.155216 7.26475 0.104146C7.11908 0.00986889 7.08782 0.00751192 6.46209 0.00869038C6.24636 -0.00878606 6.0293 0.000118303 5.81573 0.0352059Z" fill="#3491FF"/>
<path d="M3.29041 4.87808C3.29041 4.89222 3.30043 4.98178 3.31281 5.07606C3.4241 6.18045 3.88763 7.21989 4.63504 8.0411C5.01281 8.44217 5.50347 8.71933 6.0422 8.83597C6.18103 8.86449 6.32291 8.87517 6.46445 8.86778C6.60637 8.87506 6.74866 8.86438 6.8879 8.83597C7.4435 8.71384 7.94702 8.4213 8.32807 7.99925C9.05948 7.17345 9.51074 6.13768 9.61727 5.04012C9.62847 4.94878 9.63791 4.86866 9.63791 4.86335C9.57421 4.85276 9.50956 4.849 9.44507 4.85215H9.25222L9.24277 4.93818C9.1687 5.67151 8.93652 6.38012 8.5622 7.01524C8.30603 7.44327 7.95422 7.80627 7.53427 8.07586C7.30328 8.21264 7.04992 8.3076 6.78587 8.35634C6.58499 8.38286 6.38164 8.38523 6.18019 8.36341C5.81841 8.2916 5.47589 8.14425 5.17506 7.93101C4.87424 7.71777 4.62189 7.44345 4.43453 7.12601C4.03499 6.49616 3.7828 5.78438 3.69674 5.04366L3.67198 4.85864L3.48149 4.85451C3.29984 4.8492 3.29041 4.84921 3.29041 4.87808Z" fill="#3491FF"/>
<path d="M12.9228 6.86227C12.5728 6.92471 12.2495 7.09024 11.9944 7.3376C11.7392 7.58496 11.5639 7.90287 11.4909 8.25051C11.4691 8.36702 11.4606 8.48563 11.4655 8.60406C11.4569 8.7841 11.4829 8.96412 11.5422 9.13436L11.5717 9.22156L9.82839 10.9598C7.94767 12.8347 8.04497 12.731 7.99189 12.932C7.95949 13.0688 7.96714 13.2121 8.01389 13.3448C8.06063 13.4775 8.14452 13.5939 8.2556 13.6803C8.36667 13.7667 8.50024 13.8194 8.64043 13.8322C8.78062 13.8449 8.92153 13.8172 9.04639 13.7522C9.12011 13.7151 9.369 13.4729 10.8687 11.981L12.6061 10.2539L12.6975 10.2828C12.8735 10.3379 13.0575 10.3636 13.2419 10.3588C13.431 10.3634 13.6194 10.3331 13.7975 10.2692C14.0769 10.1754 14.3283 10.0129 14.5285 9.79668C14.7287 9.58047 14.8714 9.31747 14.9433 9.03183C14.9643 8.94757 14.9804 8.86219 14.9917 8.77611L15 8.67241L14.833 8.50623L14.6649 8.34006L14.2521 8.75253L13.8393 9.165H13.1593L12.9122 8.91871L12.6663 8.67417V7.98299L13.0762 7.57525L13.4861 7.16749L13.3233 7.00546C13.1623 6.84342 13.1593 6.84224 13.0968 6.84342C13.0384 6.84574 12.9803 6.85203 12.9228 6.86227ZM8.83822 12.7782C8.89999 12.8064 8.95282 12.8509 8.99099 12.907C9.02915 12.9631 9.05115 13.0286 9.05463 13.0964C9.05658 13.1411 9.04935 13.1858 9.03332 13.2277C9.01729 13.2696 8.99284 13.3077 8.96147 13.3397C8.92015 13.3857 8.86735 13.42 8.80846 13.4389C8.74956 13.4579 8.68669 13.4609 8.62625 13.4477C8.5658 13.4345 8.50995 13.4054 8.46441 13.3636C8.41886 13.3217 8.38526 13.2686 8.367 13.2095C8.34053 13.1419 8.34053 13.0668 8.367 12.9991C8.38864 12.9274 8.43348 12.8649 8.49454 12.8214C8.55559 12.7778 8.62938 12.7558 8.70432 12.7587C8.74969 12.7581 8.7949 12.7647 8.83822 12.7782Z" fill="#3491FF"/>
<path d="M3.75576 8.44531C3.33734 8.49708 2.92858 8.60884 2.54205 8.77707C1.93432 9.04477 1.39752 9.45047 0.974369 9.96194C0.551217 10.4734 0.253393 11.0765 0.1046 11.7232C-0.0184559 12.2472 -0.0331048 12.7908 0.0615492 13.3207C0.121603 13.6804 0.29083 14.013 0.546325 14.2735C0.997486 14.723 1.67688 14.9263 2.91595 14.9858C3.3158 15.0041 9.59431 15.0053 9.99947 14.9858C11.5234 14.9139 12.273 14.6069 12.6634 13.8934C12.8441 13.4009 12.9237 12.8771 12.8975 12.3532C12.8713 11.8293 12.7397 11.3161 12.5106 10.8441C12.5036 10.8359 11.8761 11.451 10.9183 12.4015C9.73231 13.5799 9.31948 13.9818 9.25992 14.0165C9.06749 14.1335 8.84297 14.1868 8.61844 14.1687C8.39391 14.1506 8.18084 14.062 8.00968 13.9157C7.83851 13.7694 7.718 13.5728 7.66536 13.354C7.61271 13.1351 7.63062 12.9053 7.71654 12.6972C7.80264 12.4939 7.80264 12.4939 9.49464 10.8081L11.1129 9.19422L10.9908 9.11291C10.4277 8.74304 9.78435 8.51279 9.11425 8.44121C9.05527 8.43413 9.05527 8.43413 9.04761 8.48422C8.99878 8.71352 8.91441 8.93378 8.79755 9.13707C8.32117 10.01 7.79054 10.8523 7.20876 11.659C7.09081 11.8305 7.03183 11.8994 7.03183 11.88C7.02476 11.8175 6.91801 10.2649 6.91801 10.2095C6.91801 10.1541 6.92214 10.1506 6.96519 10.1252C7.13299 10.0197 7.26896 9.87062 7.35856 9.6939C7.40626 9.58962 7.43501 9.4777 7.44348 9.36336C7.41012 9.36786 7.37767 9.37762 7.34735 9.39224C7.15686 9.45833 6.9606 9.50644 6.76114 9.53599C6.63417 9.54868 6.50644 9.55204 6.37898 9.54602C6.13038 9.5441 5.8839 9.50007 5.65004 9.41579L5.48727 9.36041V9.39634C5.49854 9.49845 5.52664 9.598 5.57043 9.69096C5.63063 9.81026 5.7115 9.91801 5.80928 10.0092C5.86888 10.0615 5.93416 10.1069 6.0039 10.1447C6.01628 10.1488 5.91248 11.8287 5.89538 11.8829C5.88418 11.9189 5.12163 10.7987 4.72708 10.1694C4.37655 9.67008 4.0958 9.12533 3.89258 8.55021C3.88907 8.50729 3.87619 8.46563 3.85484 8.42822L3.75576 8.44531Z" fill="#3491FF"/>
</svg>
