<svg width="11" height="7" viewBox="0 0 11 7" fill="none" xmlns="http://www.w3.org/2000/svg">
<path d="M5.90374 6.15406C5.71681 6.32498 5.47155 6.41992 5.21693 6.41992C4.96231 6.41992 4.71705 6.32498 4.53013 6.15406L0.322309 2.31206C0.173814 2.17542 0.0703082 1.9978 0.0252323 1.80226C-0.0198435 1.60671 -0.00440507 1.40229 0.0695419 1.21553C0.143489 1.02878 0.272528 0.868318 0.4399 0.754995C0.607273 0.641672 0.805244 0.580722 1.0081 0.58006L9.42778 0.58006C9.6313 0.580074 9.83008 0.640783 9.99815 0.754254C10.1662 0.867725 10.2958 1.02868 10.3698 1.21609C10.4439 1.40349 10.4591 1.60863 10.4134 1.80469C10.3676 2.00076 10.2632 2.17863 10.1136 2.31506L5.90374 6.15406Z" fill="#3491FF"/>
</svg>
