<svg xmlns="http://www.w3.org/2000/svg" width="15" height="13" viewBox="0 0 15 13">
    <path id="Union_14" data-name="Union 14" d="M4.658,12a1.4,1.4,0,0,1,0-2.8H12.6a1.4,1.4,0,1,1,0,2.8ZM0,10.6A1.338,1.338,0,0,1,1.267,9.2a1.338,1.338,0,0,1,1.267,1.4A1.338,1.338,0,0,1,1.267,12,1.338,1.338,0,0,1,0,10.6ZM4.658,7.333a1.4,1.4,0,0,1,0-2.8H12.6a1.4,1.4,0,1,1,0,2.8ZM0,5.934a1.338,1.338,0,0,1,1.267-1.4,1.338,1.338,0,0,1,1.267,1.4,1.338,1.338,0,0,1-1.267,1.4A1.338,1.338,0,0,1,0,5.934ZM4.658,2.8a1.4,1.4,0,0,1,0-2.8H12.6a1.4,1.4,0,1,1,0,2.8ZM0,1.4A1.338,1.338,0,0,1,1.267,0,1.338,1.338,0,0,1,2.534,1.4,1.338,1.338,0,0,1,1.267,2.8,1.338,1.338,0,0,1,0,1.4Z" transform="translate(0.5 0.5)" fill="#595959" stroke="rgba(0,0,0,0)" stroke-miterlimit="10" stroke-width="1"/>
</svg>
