<svg xmlns="http://www.w3.org/2000/svg" width="10.263" height="10.263" viewBox="0 0 10.263 10.263">
	<path id="Icon_awesome-expand-arrows-alt" data-name="Icon awesome-expand-arrows-alt" d="M10.263,9.4v2.566a.548.548,0,0,1-.55.55H7.148a.551.551,0,0,1-.389-.939l.829-.829L5.132,8.289,2.675,10.747l.83.827a.551.551,0,0,1-.389.939H.55a.548.548,0,0,1-.55-.55V9.4a.551.551,0,0,1,.939-.389l.829.829L4.226,7.382,1.768,4.924l-.829.832A.551.551,0,0,1,0,5.366V2.8a.548.548,0,0,1,.55-.55H3.116a.551.551,0,0,1,.389.939l-.829.829L5.132,6.474,7.588,4.016l-.83-.827a.551.551,0,0,1,.389-.939H9.714a.548.548,0,0,1,.55.55V5.366a.551.551,0,0,1-.939.389L8.5,4.926,6.038,7.382,8.5,9.84l.829-.829A.549.549,0,0,1,10.263,9.4Z" transform="translate(0 -2.25)" fill="#3491ff" />
</svg>
