<svg xmlns="http://www.w3.org/2000/svg" width="13.974" height="12.664" viewBox="0 0 13.974 12.664">
    <g id="assign" transform="translate(-1 -2.5)">
        <g id="Group_9547" data-name="Group 9547" transform="translate(1 2.5)">
            <path id="Path_2216" data-name="Path 2216" d="M14.537,11.671h-.873V9.05a.413.413,0,0,0-.437-.437h-4.8V6.867h1.747a.413.413,0,0,0,.437-.437V2.937a.413.413,0,0,0-.437-.437H5.8a.413.413,0,0,0-.437.437V6.43a.413.413,0,0,0,.437.437H7.55V8.614h-4.8a.413.413,0,0,0-.437.437v2.62H1.437A.413.413,0,0,0,1,12.107v2.62a.413.413,0,0,0,.437.437h2.62a.413.413,0,0,0,.437-.437v-2.62a.413.413,0,0,0-.437-.437H3.183V9.487H7.55v2.183H6.677a.413.413,0,0,0-.437.437v2.62a.413.413,0,0,0,.437.437H9.3a.413.413,0,0,0,.437-.437v-2.62a.413.413,0,0,0-.437-.437H8.424V9.487h4.367v2.183h-.873a.413.413,0,0,0-.437.437v2.62a.413.413,0,0,0,.437.437h2.62a.413.413,0,0,0,.437-.437v-2.62A.413.413,0,0,0,14.537,11.671Zm-8.3-8.3H9.734v2.62H6.24ZM3.62,14.291H1.873V12.544H3.62Zm5.24,0H7.114V12.544H8.86Zm5.24,0H12.354V12.544H14.1Z" transform="translate(-1 -2.5)" fill="#595959"/>
        </g>
    </g>
</svg>
