<svg width="49" height="49" viewBox="0 0 49 49" fill="none" xmlns="http://www.w3.org/2000/svg">
<circle cx="24.5" cy="24.5" r="24.5" fill="#E6E6E6"/>
<path d="M18.9566 30.8211L15.2033 36.8827C15.1292 37.0019 14.9774 37.036 14.8636 36.9584C14.8347 36.9395 14.8094 36.913 14.7913 36.8827L11.0397 30.8211C10.9657 30.7019 10.9982 30.543 11.112 30.4654L12.1258 29.7749C12.2397 29.6973 12.3915 29.7314 12.4655 29.8505L13.7016 31.8389V16.2573C13.7016 16.1154 13.8118 16 13.9474 16H16.0526C16.1882 16 16.2984 16.1154 16.2984 16.2573V31.8408L17.5345 29.8524C17.6085 29.7332 17.7603 29.6992 17.8742 29.7768L18.888 30.4673C19.0018 30.5449 19.0343 30.7038 18.9603 30.823L18.9566 30.8211Z" fill="#4B4B4B"/>
<path d="M37.7002 18H20.7002V24H37.7002V18Z" fill="#4B4B4B"/>
<path d="M34.2054 26.4971H21.7129V30.432H34.2054V26.4971Z" stroke="#4B4B4B" stroke-width="2" stroke-miterlimit="10"/>
</svg>
