<svg width="49" height="49" viewBox="0 0 49 49" fill="none" xmlns="http://www.w3.org/2000/svg">
<circle cx="24.5" cy="24.5" r="24.5" fill="#E6E6E6"/>
<path d="M24.375 36.0277C29.5526 36.0277 33.75 31.8303 33.75 26.6527C33.75 21.475 29.5526 17.2777 24.375 17.2777C19.1973 17.2777 15 21.475 15 26.6527C15 31.8303 19.1973 36.0277 24.375 36.0277Z" stroke="#4B4B4B" stroke-width="2" stroke-miterlimit="10"/>
<path d="M33.0808 15L32 16.0807L35.0835 19.1643L36.1643 18.0835L33.0808 15Z" fill="#4B4B4B"/>
<path d="M31.9998 20.0835L33.0806 21.1643L36.1641 18.0808L35.0833 17L31.9998 20.0835Z" fill="#4B4B4B"/>
<path d="M24.8972 21.3101C24.8972 21.0211 24.6632 20.7869 24.3744 20.7869C24.0856 20.7869 23.8516 21.0211 23.8516 21.3101V30.8896C23.8516 31.1786 24.0856 31.4129 24.3744 31.4129C24.6632 31.4129 24.8972 31.1786 24.8972 30.8896V21.3101Z" fill="#4B4B4B"/>
<path d="M28.5476 28.0438C28.752 27.8394 28.7521 27.5083 28.5479 27.3041C28.3437 27.0999 28.0126 27.1 27.8082 27.3044L24.0473 31.0653C23.843 31.2697 23.8428 31.6008 24.047 31.805C24.2512 32.0092 24.5824 32.0091 24.7867 31.8047L28.5476 28.0438Z" fill="#4B4B4B"/>
<path d="M21.1211 27.4745C20.9168 27.2701 20.5856 27.27 20.3814 27.4742C20.1772 27.6783 20.1774 28.0095 20.3817 28.2139L23.973 31.8052C24.1774 32.0095 24.5086 32.0097 24.7127 31.8055C24.9169 31.6013 24.9168 31.2701 24.7124 31.0658L21.1211 27.4745Z" fill="#4B4B4B"/>
<path d="M29.9998 18.0835L31.0806 19.1643L34.1641 16.0808L33.0833 15L29.9998 18.0835Z" fill="#4B4B4B"/>
<path d="M21.9999 17.3608L23.5283 17.3608L23.5283 13L21.9999 13L21.9999 17.3608Z" fill="#4B4B4B"/>
<path d="M25.9999 17.3608L27.5283 17.3608L27.5283 13L25.9999 13L25.9999 17.3608Z" fill="#4B4B4B"/>
<path d="M29.2002 13.5284L29.2002 12L20.2002 12L20.2002 13.5284L29.2002 13.5284Z" fill="#4B4B4B"/>
<path d="M19.9999 13.53L21.5283 13.53L21.5283 9.00003L19.9999 9.00003L19.9999 13.53Z" fill="#4B4B4B"/>
<path d="M27.9999 13.53L29.5283 13.53L29.5283 9.00003L27.9999 9.00003L27.9999 13.53Z" fill="#4B4B4B"/>
<path d="M29 10.5284L29 9L20 9L20 10.5284L29 10.5284Z" fill="#4B4B4B"/>
</svg>
