<svg width="49" height="49" viewBox="0 0 49 49" fill="none" xmlns="http://www.w3.org/2000/svg">
<circle cx="24.5" cy="24.5" r="24.5" fill="#F2ECFB"/>
<path d="M24.6311 39C30.5025 39 35.2622 34.1858 35.2622 28.2471C35.2622 22.3085 30.5025 17.4943 24.6311 17.4943C18.7597 17.4943 14 22.3085 14 28.2471C14 34.1858 18.7597 39 24.6311 39Z" stroke="#5D43F7" stroke-width="2" stroke-miterlimit="10"/>
<path d="M34.5034 14.8818L33.2778 16.1214L36.7745 19.6582L38.0001 18.4186L34.5034 14.8818Z" fill="#5D43F7"/>
<path d="M33.2778 20.7125L34.5034 21.9521L38.0001 18.4154L36.7745 17.1758L33.2778 20.7125Z" fill="#5D43F7"/>
<path d="M25.2234 22.1194C25.2234 21.7879 24.9579 21.5192 24.6305 21.5192C24.303 21.5192 24.0376 21.7879 24.0376 22.1194V33.1068C24.0376 33.4383 24.303 33.707 24.6305 33.707C24.9579 33.707 25.2234 33.4383 25.2234 33.1068V22.1194Z" fill="#5D43F7"/>
<path d="M29.3628 29.8427C29.5945 29.6083 29.5946 29.2285 29.3631 28.9943C29.1315 28.7601 28.756 28.7602 28.5243 28.9946L24.2594 33.3083C24.0277 33.5427 24.0276 33.9225 24.2591 34.1567C24.4907 34.3909 24.8662 34.3908 25.0979 34.1564L29.3628 29.8427Z" fill="#5D43F7"/>
<path d="M20.9416 29.1897C20.7099 28.9553 20.3344 28.9552 20.1028 29.1894C19.8713 29.4236 19.8714 29.8034 20.1032 30.0378L24.1757 34.1569C24.4074 34.3913 24.7829 34.3915 25.0145 34.1573C25.246 33.9231 25.2459 33.5432 25.0141 33.3088L20.9416 29.1897Z" fill="#5D43F7"/>
<path d="M31.0098 18.4186L32.2354 19.6582L35.732 16.1214L34.5065 14.8818L31.0098 18.4186Z" fill="#5D43F7"/>
<path d="M21.9377 17.5896L23.6709 17.5896L23.6709 12.5879L21.9377 12.5879L21.9377 17.5896Z" fill="#5D43F7"/>
<path d="M26.4738 17.5896L28.207 17.5896L28.207 12.5879L26.4738 12.5879L26.4738 17.5896Z" fill="#5D43F7"/>
<path d="M30.1025 13.194L30.1025 11.4409L19.8967 11.4409L19.8967 13.194L30.1025 13.194Z" fill="#5D43F7"/>
<path d="M19.6701 13.1958L21.4033 13.1958L21.4033 8.00005L19.6701 8.00005L19.6701 13.1958Z" fill="#5D43F7"/>
<path d="M28.7419 13.1958L30.4751 13.1958L30.4751 8.00005L28.7419 8.00005L28.7419 13.1958Z" fill="#5D43F7"/>
<path d="M29.876 9.75308L29.876 8L19.6701 8L19.6701 9.75308L29.876 9.75308Z" fill="#5D43F7"/>
</svg>
