<svg width="49" height="49" viewBox="0 0 49 49" fill="none" xmlns="http://www.w3.org/2000/svg">
<circle cx="24.5" cy="24.5" r="24.5" fill="#F2ECFB"/>
<path d="M18.238 31.9384L13.8802 38.866C13.7942 39.0022 13.618 39.0411 13.4858 38.9524C13.4522 38.9308 13.4228 38.9006 13.4019 38.866L9.04615 31.9384C8.96013 31.8022 8.99789 31.6205 9.13007 31.5319L10.3071 30.7427C10.4393 30.6541 10.6155 30.693 10.7016 30.8292L12.1367 33.1016V15.2941C12.1367 15.1319 12.2647 15 12.422 15H14.8664C15.0237 15 15.1517 15.1319 15.1517 15.2941V33.1038L16.5868 30.8314C16.6728 30.6951 16.8491 30.6562 16.9813 30.7449L18.1583 31.5341C18.2905 31.6227 18.3283 31.8043 18.2422 31.9405L18.238 31.9384Z" fill="#5D43F7"/>
<path d="M40 17.2857H20.2622V24.1428H40V17.2857Z" fill="#5D43F7"/>
<path d="M35.9429 26.9967H21.4385V31.4937H35.9429V26.9967Z" stroke="#5D43F7" stroke-width="2" stroke-miterlimit="10"/>
</svg>
