<svg width="92" height="15" viewBox="0 0 92 15" fill="none" xmlns="http://www.w3.org/2000/svg">
<path d="M24.1179 13.6343V4.4459L20.5541 10.6205L16.9446 4.34198V13.6343H14.5392V1.26736H18.3413L20.5769 5.76903L22.8125 1.26736H26.5386V13.6343H24.1179Z" fill="#010101"/>
<path d="M33.8842 13.6343C30.7944 13.6165 28.1786 11.4645 27.958 8.13899C27.6995 4.30903 30.3964 1.095 34.2543 1.26736C37.2351 1.39917 39.3389 3.86799 39.6735 6.78038C40.1019 10.5267 37.6812 13.6571 33.8842 13.6343ZM33.8842 11.386C36.0184 11.386 37.2123 9.41903 37.2123 7.40392C37.2123 5.38882 35.988 3.60184 33.8842 3.60184C31.8868 3.60184 30.5206 5.46486 30.5206 7.40392C30.5206 9.5483 31.603 11.386 33.8842 11.386Z" fill="#010101"/>
<path d="M84.7459 13.6343C81.6536 13.6165 79.0377 11.4645 78.8172 8.13899C78.5612 4.30903 81.2556 1.095 85.1135 1.26736C88.0943 1.39917 90.1981 3.86799 90.5327 6.78038C90.9611 10.5267 88.5429 13.6571 84.7459 13.6343ZM84.7459 11.386C86.8827 11.386 88.074 9.41903 88.074 7.40392C88.074 5.38882 86.8497 3.60184 84.7459 3.60184C82.7486 3.60184 81.3824 5.46486 81.3824 7.40392C81.3798 9.5483 82.4647 11.386 84.7434 11.386H84.7459Z" fill="#010101"/>
<path d="M41.0625 13.6343V1.26736H43.653V11.3809H49.3586V13.6343H41.0625Z" fill="#010101"/>
<path d="M50.9048 13.6343V1.26736H53.6727C55.7765 1.26736 57.6826 1.26736 59.2491 2.88958C59.7681 3.4367 60.1708 4.08342 60.4328 4.79062C60.7303 5.60197 60.8756 6.46128 60.8611 7.32535C60.8719 8.20037 60.7427 9.07148 60.4784 9.90569C60.2512 10.6364 59.8807 11.3146 59.3885 11.9005C58.925 12.4453 58.3479 12.8822 57.6978 13.1806C57.0134 13.4903 56.2692 13.6461 55.518 13.6368L50.9048 13.6343ZM55.5661 11.5659C57.6674 11.3708 58.22 9.07684 58.22 7.31774C58.2293 6.71602 58.1672 6.11531 58.0349 5.52823C57.9332 5.07805 57.7245 4.65899 57.4266 4.30649C57.1557 4.02586 56.8318 3.80164 56.4738 3.64676C56.1157 3.49189 55.7306 3.40943 55.3405 3.40413H53.4192V11.5279C53.4446 11.5887 54.4686 11.5685 54.6055 11.5735C54.9255 11.5926 55.2464 11.59 55.5661 11.5659V11.5659Z" fill="#010101"/>
<path d="M75.048 13.6343L69.7556 5.32292V13.6343H67.3501V1.26736H70.0901L75.01 9.22639V1.26736H77.4332V13.6343H75.048Z" fill="#010101"/>
<path d="M63.8471 1.26736H63.8015C63.3981 1.26736 63.0113 1.42759 62.7261 1.7128C62.4409 1.99801 62.2806 2.38484 62.2806 2.78819V2.78819C62.2806 3.19154 62.4409 3.57837 62.7261 3.86359C63.0113 4.1488 63.3981 4.30903 63.8015 4.30903H63.8471C64.2504 4.30903 64.6373 4.1488 64.9225 3.86359C65.2077 3.57837 65.3679 3.19154 65.3679 2.78819C65.3679 2.38484 65.2077 1.99801 64.9225 1.7128C64.6373 1.42759 64.2504 1.26736 63.8471 1.26736Z" fill="#EE3028"/>
<path d="M65.0916 5.14549H62.5569V13.6495H65.0916V5.14549Z" fill="#010101"/>
<path d="M5.12272 3.91361L4.09362 1.68052C2.68685 2.2483 1.82758 3.31542 1.16602 4.66896L3.62216 5.37108C3.95558 4.73875 4.48095 4.22847 5.12272 3.91361V3.91361Z" fill="#FAA819"/>
<path d="M9.72315 8.11111H12.4581C12.487 7.65887 12.4742 7.20494 12.4201 6.75503C12.3998 6.56239 12.3669 6.24809 12.3288 6.04785C12.1689 5.22035 11.8407 4.43452 11.3646 3.73908C10.8884 3.04364 10.2745 2.4534 9.56093 2.00496C8.78241 1.52579 7.89397 1.25437 6.98058 1.21667C6.51077 1.19456 6.03993 1.22345 5.57635 1.30285C5.57635 1.30285 5.82982 3.5841 5.84249 3.66521C6.0919 3.60786 6.347 3.57895 6.60291 3.57903C7.33788 3.57881 8.0525 3.82042 8.63655 4.26659C9.22059 4.71275 9.64162 5.33869 9.83468 6.04785H0.811069C0.687659 6.60014 0.629806 7.16506 0.638708 7.7309C0.638708 7.86017 0.638708 7.98437 0.653916 8.12125C0.879507 11.462 3.50548 13.6241 6.61051 13.6419C9.25676 13.6596 11.2364 12.1489 12.0576 9.96652H9.21114C8.93429 10.4047 8.55007 10.7649 8.09492 11.0129C7.63977 11.2608 7.12881 11.3884 6.61051 11.3834C6.07482 11.4066 5.54253 11.2877 5.06758 11.0389C4.59262 10.7901 4.19188 10.4201 3.90596 9.96652C3.5491 9.40483 3.32061 8.77128 3.2368 8.11111H9.72315Z" fill="#EE3028"/>
</svg>
