<svg id="svg" version="1.1" xmlns="http://www.w3.org/2000/svg" xmlns:xlink="http://www.w3.org/1999/xlink" width="400" height="400" viewBox="0, 0, 400,400"><g id="svgg"><path id="path0" d="M152.800 125.300 C 152.800 125.465,152.260 125.600,151.600 125.600 C 150.940 125.600,150.400 125.780,150.400 126.000 C 150.400 126.220,150.229 126.355,150.021 126.300 C 149.440 126.147,147.202 127.734,147.201 128.300 C 147.201 128.575,146.903 128.800,146.539 128.800 C 145.663 128.800,141.095 133.487,141.723 133.743 C 142.013 133.861,141.958 133.949,141.581 133.968 C 140.845 134.006,138.000 136.825,138.000 137.517 C 138.000 137.783,137.767 138.000,137.481 138.000 C 136.895 138.000,134.212 140.682,133.880 141.600 C 133.743 141.979,133.652 142.013,133.632 141.692 C 133.614 141.412,132.565 142.205,131.300 143.454 C 130.035 144.703,129.045 145.877,129.100 146.062 C 129.155 146.248,128.930 146.400,128.600 146.400 C 128.267 146.400,128.000 146.756,128.000 147.200 C 128.000 147.640,127.820 148.000,127.600 148.000 C 127.380 148.000,127.200 148.236,127.200 148.525 C 127.200 148.813,126.849 149.426,126.420 149.886 C 125.926 150.416,125.606 151.396,125.546 152.561 C 125.493 153.573,125.304 154.400,125.125 154.400 C 124.946 154.400,124.803 154.985,124.806 155.700 C 124.811 156.693,124.905 156.858,125.205 156.400 C 125.482 155.976,125.565 156.422,125.486 157.916 C 125.400 159.529,125.541 160.185,126.077 160.670 C 126.464 161.020,126.685 161.463,126.567 161.653 C 126.449 161.844,126.554 162.000,126.800 162.000 C 127.046 162.000,127.153 162.153,127.037 162.340 C 126.764 162.781,128.595 165.272,128.939 164.928 C 129.082 164.784,129.200 164.879,129.200 165.138 C 129.200 165.755,136.656 173.211,136.964 172.903 C 137.094 172.773,137.200 172.927,137.200 173.245 C 137.200 173.563,137.587 174.088,138.061 174.412 C 139.039 175.081,142.116 178.122,144.853 181.126 C 145.872 182.245,146.817 183.049,146.953 182.914 C 147.089 182.778,147.200 182.887,147.200 183.156 C 147.200 183.424,149.045 185.427,151.300 187.605 C 164.078 199.951,163.864 199.667,161.837 201.512 C 161.087 202.195,160.156 203.289,159.769 203.945 C 159.381 204.601,158.600 205.376,158.032 205.669 C 156.738 206.335,156.335 206.738,155.669 208.032 C 155.376 208.600,154.656 209.351,154.069 209.701 C 152.980 210.350,148.626 214.400,149.017 214.400 C 149.135 214.400,148.999 214.651,148.716 214.958 C 148.432 215.265,148.065 215.434,147.900 215.334 C 147.735 215.235,147.600 215.463,147.600 215.843 C 147.600 216.223,147.486 216.419,147.347 216.280 C 147.208 216.141,146.743 216.473,146.315 217.017 C 145.886 217.562,145.343 217.888,145.106 217.742 C 144.856 217.587,144.792 217.664,144.954 217.925 C 145.106 218.172,144.864 218.603,144.416 218.883 C 143.967 219.163,143.600 219.531,143.600 219.700 C 143.600 220.155,141.526 222.400,141.105 222.400 C 140.595 222.400,139.600 223.454,139.600 223.995 C 139.600 224.244,139.420 224.336,139.200 224.200 C 138.980 224.064,138.800 224.320,138.800 224.769 C 138.800 225.305,138.458 225.671,137.803 225.835 C 137.254 225.973,136.906 226.247,137.028 226.445 C 137.151 226.644,136.924 226.928,136.525 227.076 C 136.126 227.225,135.563 227.677,135.273 228.080 C 134.981 228.486,134.534 228.687,134.273 228.530 C 134.013 228.374,134.055 228.561,134.368 228.946 C 134.858 229.550,134.858 229.628,134.368 229.523 C 134.055 229.455,133.845 229.625,133.900 229.900 C 133.955 230.175,133.865 230.379,133.700 230.353 C 132.903 230.227,132.378 230.440,132.600 230.800 C 132.736 231.020,132.550 231.200,132.186 231.200 C 131.823 231.200,131.431 231.558,131.317 231.996 C 131.203 232.433,130.950 232.692,130.755 232.572 C 130.426 232.369,130.228 232.955,130.363 233.730 C 130.394 233.911,130.235 233.945,130.010 233.806 C 129.784 233.667,129.600 233.763,129.600 234.019 C 129.600 234.287,129.321 234.378,128.943 234.234 C 128.394 234.023,128.370 234.082,128.792 234.591 C 129.211 235.095,129.183 235.200,128.628 235.200 C 128.244 235.200,127.780 235.711,127.540 236.400 C 127.310 237.059,126.982 237.513,126.811 237.407 C 125.729 236.738,124.841 247.584,125.891 248.634 C 126.171 248.914,126.400 249.426,126.400 249.771 C 126.400 250.117,126.591 250.400,126.824 250.400 C 127.057 250.400,127.140 250.573,127.009 250.785 C 126.878 250.997,127.137 251.537,127.585 251.985 C 128.033 252.433,128.400 252.980,128.400 253.200 C 128.400 253.420,128.536 253.600,128.701 253.600 C 128.867 253.600,130.575 255.130,132.496 257.000 C 134.417 258.870,136.201 260.400,136.461 260.400 C 136.721 260.400,136.832 260.501,136.708 260.625 C 136.584 260.749,138.697 263.083,141.403 265.811 C 144.109 268.539,146.386 270.916,146.462 271.093 C 146.715 271.683,148.889 273.192,149.205 272.997 C 149.376 272.891,149.614 273.060,149.734 273.371 C 149.860 273.701,150.273 273.854,150.720 273.737 C 151.190 273.614,151.583 273.778,151.729 274.159 C 152.050 274.995,159.604 274.827,160.648 273.961 C 161.019 273.652,161.340 273.458,161.361 273.528 C 161.613 274.364,166.800 270.203,166.800 269.165 C 166.800 268.891,166.908 268.775,167.041 268.907 C 167.352 269.219,169.149 267.495,168.924 267.100 C 168.830 266.935,168.994 266.800,169.288 266.800 C 169.583 266.800,170.088 266.427,170.412 265.971 C 171.424 264.544,174.041 262.000,174.497 262.000 C 174.737 262.000,174.829 261.895,174.701 261.767 C 174.396 261.463,178.181 257.600,178.784 257.600 C 179.039 257.600,179.136 257.420,179.000 257.200 C 178.864 256.980,179.044 256.800,179.400 256.800 C 179.756 256.800,179.936 256.620,179.800 256.400 C 179.664 256.180,179.833 256.000,180.176 256.000 C 180.519 256.000,180.800 255.700,180.800 255.333 C 180.800 254.967,180.919 254.786,181.064 254.931 C 181.210 255.076,181.539 254.791,181.797 254.298 C 182.055 253.804,182.476 253.445,182.733 253.500 C 182.990 253.555,183.200 253.319,183.200 252.976 C 183.200 252.633,183.354 252.448,183.542 252.564 C 183.729 252.680,184.078 252.346,184.317 251.822 C 184.556 251.298,185.125 250.751,185.581 250.606 C 186.038 250.461,186.308 250.175,186.182 249.971 C 186.056 249.767,186.233 249.600,186.576 249.600 C 186.919 249.600,187.155 249.390,187.100 249.133 C 187.045 248.876,187.375 248.469,187.832 248.230 C 188.290 247.990,188.588 247.565,188.495 247.284 C 188.401 247.004,188.567 246.826,188.862 246.887 C 189.158 246.949,189.351 246.762,189.290 246.470 C 189.230 246.179,189.366 246.055,189.593 246.196 C 189.820 246.336,190.113 246.170,190.245 245.828 C 190.376 245.485,190.645 245.304,190.842 245.426 C 191.039 245.548,191.200 245.461,191.200 245.234 C 191.200 245.007,192.055 244.000,193.100 242.996 C 196.531 239.699,197.199 239.003,197.200 238.727 C 197.200 238.577,197.560 238.340,198.000 238.200 C 198.440 238.060,198.800 237.678,198.800 237.349 C 198.800 237.021,198.965 236.855,199.166 236.979 C 199.367 237.103,199.609 236.979,199.704 236.702 C 199.814 236.382,200.315 236.667,201.085 237.486 C 201.751 238.193,202.408 238.658,202.547 238.519 C 202.686 238.380,202.800 238.555,202.800 238.906 C 202.800 239.258,203.160 239.660,203.600 239.800 C 204.040 239.940,204.400 240.312,204.400 240.627 C 204.400 240.942,204.573 241.200,204.784 241.200 C 205.164 241.200,207.793 243.777,212.800 249.060 C 214.230 250.568,215.895 252.121,216.500 252.510 C 217.105 252.900,217.600 253.495,217.600 253.833 C 217.600 254.171,217.780 254.336,218.000 254.200 C 218.220 254.064,218.400 254.244,218.400 254.600 C 218.400 254.956,218.580 255.136,218.800 255.000 C 219.020 254.864,219.200 255.063,219.200 255.443 C 219.200 255.823,219.311 256.022,219.448 255.886 C 219.726 255.607,220.800 256.558,220.800 257.083 C 220.800 257.270,221.188 257.688,221.662 258.012 C 222.650 258.686,226.306 262.256,227.200 263.419 C 227.530 263.849,228.160 264.408,228.600 264.663 C 229.040 264.917,229.378 265.277,229.350 265.463 C 229.282 265.924,233.515 269.951,233.785 269.682 C 233.903 269.564,234.000 269.690,234.000 269.962 C 234.000 270.563,234.985 271.600,235.557 271.600 C 235.785 271.600,236.170 271.971,236.413 272.424 C 236.656 272.878,237.051 273.183,237.291 273.103 C 237.532 273.023,238.185 273.380,238.742 273.897 C 239.300 274.414,240.126 274.809,240.578 274.774 C 241.030 274.740,241.490 274.752,241.600 274.801 C 242.387 275.155,244.229 275.079,244.481 274.683 C 244.718 274.310,244.789 274.313,244.794 274.696 C 244.801 275.280,247.853 275.020,248.637 274.369 C 248.972 274.092,249.187 274.127,249.330 274.483 C 249.488 274.879,249.544 274.883,249.568 274.500 C 249.586 274.225,249.879 274.000,250.219 274.000 C 250.560 274.000,251.280 273.524,251.819 272.942 C 252.359 272.359,252.800 272.008,252.800 272.161 C 252.800 272.314,253.475 271.778,254.300 270.972 C 255.125 270.165,255.751 269.333,255.690 269.123 C 255.630 268.912,255.737 268.837,255.928 268.956 C 256.318 269.197,259.600 265.810,259.600 265.166 C 259.600 264.939,259.735 264.826,259.900 264.916 C 260.296 265.132,265.210 260.143,264.903 259.837 C 264.773 259.707,264.872 259.600,265.123 259.600 C 265.797 259.600,269.206 256.334,268.956 255.928 C 268.837 255.737,268.900 255.630,269.095 255.690 C 269.590 255.844,271.997 253.519,271.753 253.124 C 271.643 252.946,271.833 252.800,272.176 252.800 C 272.522 252.800,272.800 252.462,272.800 252.043 C 272.800 251.626,273.070 251.182,273.400 251.055 C 273.730 250.929,274.000 250.549,274.000 250.213 C 274.000 249.876,274.150 249.600,274.333 249.600 C 275.077 249.600,275.220 239.860,274.487 239.127 C 274.219 238.859,274.000 238.382,274.000 238.067 C 274.000 237.752,273.651 237.191,273.225 236.822 C 272.799 236.452,272.394 235.900,272.325 235.596 C 272.256 235.292,270.609 233.503,268.664 231.621 C 258.022 221.324,256.289 219.600,256.575 219.600 C 256.747 219.600,255.751 218.532,254.362 217.227 C 252.974 215.921,251.666 214.959,251.457 215.089 C 251.248 215.218,251.190 215.139,251.330 214.913 C 251.663 214.374,250.252 212.766,249.326 212.630 C 248.927 212.572,248.599 212.361,248.598 212.162 C 248.595 211.618,241.308 204.425,241.036 204.697 C 240.906 204.827,240.800 204.633,240.800 204.267 C 240.800 203.900,240.609 203.600,240.376 203.600 C 240.143 203.600,240.064 203.420,240.200 203.200 C 240.336 202.980,240.077 202.800,239.624 202.800 C 239.128 202.800,238.800 202.540,238.800 202.147 C 238.800 201.788,238.473 201.203,238.072 200.847 C 237.064 199.951,236.678 198.800,237.386 198.800 C 237.694 198.800,238.060 198.440,238.200 198.000 C 238.340 197.560,238.577 197.200,238.727 197.200 C 238.877 197.199,239.488 196.704,240.085 196.100 C 242.143 194.014,245.002 191.172,245.688 190.529 C 246.067 190.175,246.278 189.726,246.158 189.533 C 246.039 189.339,246.179 189.230,246.470 189.290 C 246.762 189.351,246.949 189.158,246.887 188.862 C 246.826 188.567,247.004 188.401,247.284 188.495 C 247.565 188.588,247.990 188.290,248.230 187.832 C 248.469 187.375,248.876 187.045,249.133 187.100 C 249.390 187.155,249.600 186.919,249.600 186.576 C 249.600 186.233,249.754 186.048,249.942 186.164 C 250.129 186.280,250.478 185.946,250.717 185.422 C 250.956 184.898,251.525 184.351,251.981 184.206 C 252.438 184.061,252.708 183.775,252.582 183.571 C 252.456 183.367,252.633 183.200,252.976 183.200 C 253.319 183.200,253.555 182.990,253.500 182.733 C 253.445 182.476,253.804 182.055,254.298 181.797 C 254.791 181.539,255.076 181.210,254.931 181.064 C 254.786 180.919,254.967 180.800,255.333 180.800 C 255.700 180.800,256.000 180.519,256.000 180.176 C 256.000 179.833,256.180 179.664,256.400 179.800 C 256.620 179.936,256.800 179.756,256.800 179.400 C 256.800 179.044,256.980 178.864,257.200 179.000 C 257.420 179.136,257.600 179.039,257.600 178.784 C 257.600 178.181,261.463 174.396,261.767 174.701 C 261.895 174.829,262.000 174.737,262.000 174.497 C 262.000 174.041,264.544 171.424,265.971 170.412 C 266.427 170.088,266.800 169.583,266.800 169.288 C 266.800 168.994,266.935 168.830,267.100 168.924 C 267.495 169.149,269.219 167.352,268.907 167.041 C 268.775 166.908,268.895 166.800,269.173 166.800 C 269.832 166.800,273.200 163.234,273.200 162.536 C 273.200 162.241,273.344 162.000,273.520 162.000 C 274.105 162.000,274.862 159.200,275.040 156.382 C 275.136 154.852,275.060 153.600,274.869 153.600 C 274.678 153.600,274.566 152.957,274.618 152.171 C 274.682 151.223,274.519 150.667,274.134 150.519 C 273.815 150.397,273.649 150.048,273.766 149.745 C 273.882 149.441,273.623 148.971,273.189 148.700 C 272.755 148.429,272.400 147.941,272.400 147.614 C 272.400 146.976,264.115 138.819,263.793 139.140 C 263.687 139.246,263.600 139.064,263.600 138.734 C 263.600 138.405,263.191 137.916,262.690 137.648 C 262.190 137.381,261.432 136.643,261.006 136.009 C 260.580 135.375,260.090 134.945,259.916 135.052 C 259.742 135.159,259.600 135.037,259.600 134.780 C 259.600 133.049,250.312 125.600,248.154 125.600 C 247.717 125.600,247.118 125.375,246.821 125.100 C 246.390 124.700,246.339 124.700,246.565 125.100 C 246.720 125.375,246.657 125.600,246.424 125.600 C 246.191 125.600,246.000 125.449,246.000 125.265 C 246.000 125.080,245.363 124.906,244.584 124.876 C 243.574 124.838,243.246 124.964,243.442 125.312 C 243.648 125.677,243.582 125.674,243.179 125.300 C 242.535 124.703,241.200 124.635,241.200 125.200 C 241.200 125.420,240.840 125.600,240.400 125.600 C 239.960 125.600,239.600 125.780,239.600 126.000 C 239.600 126.220,239.082 126.400,238.449 126.400 C 237.816 126.400,237.074 126.670,236.800 127.000 C 236.526 127.330,236.094 127.600,235.840 127.600 C 235.233 127.600,233.992 129.059,234.321 129.387 C 234.461 129.528,234.237 129.512,233.822 129.353 C 233.298 129.152,233.157 129.206,233.358 129.532 C 233.532 129.813,233.398 130.000,233.024 130.000 C 232.681 130.000,232.445 130.225,232.500 130.500 C 232.555 130.775,232.381 130.957,232.114 130.905 C 231.814 130.846,231.726 131.063,231.884 131.474 C 232.076 131.975,231.975 132.076,231.474 131.884 C 231.063 131.726,230.846 131.814,230.905 132.114 C 230.957 132.381,230.775 132.555,230.500 132.500 C 230.225 132.445,230.000 132.681,230.000 133.024 C 230.000 133.398,229.813 133.532,229.532 133.358 C 229.206 133.157,229.152 133.298,229.353 133.822 C 229.512 134.237,229.525 134.458,229.381 134.314 C 229.074 134.007,226.400 136.583,226.400 137.187 C 226.400 137.414,226.265 137.600,226.100 137.601 C 225.656 137.602,220.800 142.390,220.800 142.826 C 220.800 143.032,220.665 143.203,220.500 143.206 C 220.335 143.210,219.591 143.750,218.846 144.406 C 218.101 145.063,217.317 145.600,217.103 145.600 C 216.889 145.600,216.808 145.844,216.922 146.141 C 217.140 146.708,216.245 147.667,215.082 148.113 C 214.707 148.257,214.400 148.651,214.400 148.987 C 214.400 149.344,214.047 149.600,213.557 149.600 C 212.986 149.600,212.786 149.786,212.937 150.180 C 213.095 150.592,212.963 150.689,212.480 150.516 C 212.106 150.382,211.920 150.407,212.068 150.571 C 212.215 150.734,211.945 151.318,211.468 151.866 C 210.990 152.415,210.657 152.965,210.727 153.088 C 210.797 153.211,210.302 153.579,209.627 153.906 C 208.952 154.233,208.400 154.679,208.400 154.897 C 208.400 155.414,205.414 158.400,204.897 158.400 C 204.679 158.400,204.212 158.985,203.859 159.700 C 203.507 160.415,203.214 160.843,203.209 160.651 C 203.204 160.459,202.932 160.524,202.604 160.796 C 202.277 161.068,202.125 161.478,202.266 161.707 C 202.408 161.936,202.335 162.007,202.106 161.865 C 201.876 161.723,201.394 162.055,201.035 162.602 L 200.383 163.597 199.025 162.199 C 198.278 161.429,197.442 160.800,197.167 160.800 C 196.892 160.800,196.774 160.692,196.906 160.561 C 197.038 160.429,195.493 158.667,193.473 156.644 C 191.453 154.622,189.135 152.192,188.323 151.245 C 187.397 150.166,186.666 149.636,186.362 149.824 C 186.062 150.009,185.980 149.956,186.147 149.686 C 186.467 149.168,183.392 146.000,182.568 146.000 C 182.256 146.000,182.045 145.790,182.100 145.533 C 182.155 145.276,181.825 144.869,181.368 144.630 C 180.902 144.386,180.618 143.931,180.722 143.597 C 180.825 143.269,180.766 143.134,180.591 143.297 C 180.293 143.575,177.541 140.894,170.398 133.365 C 166.772 129.543,164.462 127.514,164.036 127.778 C 163.863 127.885,163.491 127.543,163.210 127.018 C 162.929 126.493,162.470 126.152,162.190 126.259 C 161.910 126.367,161.562 126.262,161.417 126.027 C 161.272 125.792,160.634 125.600,160.000 125.600 C 159.366 125.600,158.741 125.428,158.611 125.218 C 158.337 124.775,152.800 124.853,152.800 125.300 " stroke="none" fill="#e4544c" fill-rule="evenodd"></path><path id="path1" d="" stroke="none" fill="#e45c4c" fill-rule="evenodd"></path><path id="path2" d="M146.400 128.200 C 145.992 128.691,146.020 128.800,146.551 128.800 C 146.908 128.800,147.200 128.530,147.200 128.200 C 147.200 127.870,147.132 127.600,147.049 127.600 C 146.966 127.600,146.674 127.870,146.400 128.200 M231.375 131.650 C 230.552 132.525,230.452 132.747,231.041 132.391 C 231.767 131.951,233.043 130.400,232.678 130.400 C 232.608 130.400,232.021 130.963,231.375 131.650 M215.829 147.009 C 215.405 147.329,215.168 147.702,215.303 147.836 C 215.437 147.970,215.953 147.702,216.449 147.240 C 217.469 146.290,217.007 146.118,215.829 147.009 M210.176 152.826 C 209.530 153.500,209.271 153.942,209.601 153.809 C 210.138 153.591,211.845 151.600,211.494 151.600 C 211.414 151.600,210.821 152.152,210.176 152.826 M202.378 160.672 L 201.000 162.145 202.273 161.172 C 203.333 160.362,204.272 159.200,203.866 159.200 C 203.806 159.200,203.137 159.863,202.378 160.672 M263.600 172.600 C 262.628 173.590,261.923 174.400,262.033 174.400 C 262.143 174.400,263.028 173.590,264.000 172.600 C 264.972 171.610,265.677 170.800,265.567 170.800 C 265.457 170.800,264.572 171.610,263.600 172.600 M259.691 176.260 C 258.751 177.217,258.129 178.000,258.310 178.000 C 258.731 178.000,261.805 174.863,261.574 174.668 C 261.478 174.587,260.631 175.303,259.691 176.260 M251.695 184.266 C 251.418 184.378,250.988 184.859,250.741 185.335 C 250.320 186.145,250.359 186.138,251.346 185.230 C 251.926 184.697,252.400 184.202,252.400 184.130 C 252.400 183.984,252.393 183.985,251.695 184.266 M246.900 188.900 C 246.955 189.175,246.730 189.340,246.400 189.267 C 246.070 189.193,245.933 189.267,246.097 189.430 C 246.260 189.593,246.175 190.013,245.909 190.363 C 245.642 190.713,245.914 190.564,246.512 190.030 C 247.634 189.031,247.900 188.400,247.200 188.400 C 246.980 188.400,246.845 188.625,246.900 188.900 M243.011 193.011 C 242.015 194.006,241.200 194.945,241.200 195.095 C 241.200 195.246,242.100 194.483,243.200 193.400 C 244.300 192.317,245.200 191.378,245.200 191.315 C 245.200 190.951,244.626 191.396,243.011 193.011 M238.243 197.833 C 237.867 198.811,237.949 198.908,238.600 198.257 C 239.280 197.577,239.367 197.200,238.843 197.200 C 238.646 197.200,238.376 197.485,238.243 197.833 M158.988 204.241 C 158.158 205.254,157.827 205.865,158.253 205.599 C 158.954 205.161,161.024 202.400,160.652 202.400 C 160.566 202.400,159.817 203.229,158.988 204.241 M154.000 209.235 C 152.304 210.753,152.284 210.794,153.658 209.937 C 154.459 209.437,155.316 208.706,155.561 208.314 C 156.179 207.325,156.048 207.402,154.000 209.235 M133.226 229.578 C 132.366 230.324,132.362 230.353,133.137 230.295 C 133.581 230.261,133.912 230.046,133.872 229.817 C 133.833 229.588,134.038 229.449,134.330 229.510 C 134.621 229.570,134.745 229.435,134.606 229.210 C 134.274 228.672,134.268 228.674,133.226 229.578 M129.782 232.915 C 128.907 233.930,128.594 234.642,129.260 234.103 C 129.597 233.830,129.954 233.688,130.053 233.786 C 130.152 233.885,130.259 233.613,130.291 233.183 C 130.359 232.278,130.340 232.268,129.782 232.915 M197.612 238.384 C 197.288 238.589,197.144 238.878,197.293 239.026 C 197.441 239.174,197.853 239.004,198.210 238.648 C 198.913 237.944,198.557 237.787,197.612 238.384 M193.011 243.011 C 192.015 244.006,191.200 244.945,191.200 245.095 C 191.200 245.246,192.100 244.483,193.200 243.400 C 194.300 242.317,195.200 241.378,195.200 241.315 C 195.200 240.951,194.626 241.396,193.011 243.011 M190.196 246.007 C 190.058 246.230,189.773 246.307,189.562 246.177 C 189.352 246.047,189.230 246.179,189.290 246.470 C 189.351 246.762,189.175 246.955,188.900 246.900 C 188.625 246.845,188.400 246.980,188.400 247.200 C 188.400 247.878,189.017 247.646,190.000 246.600 C 190.517 246.050,190.829 245.600,190.693 245.600 C 190.558 245.600,190.334 245.783,190.196 246.007 M185.295 250.666 C 185.018 250.778,184.588 251.259,184.341 251.735 C 183.920 252.545,183.959 252.538,184.946 251.630 C 185.526 251.097,186.000 250.602,186.000 250.530 C 186.000 250.384,185.993 250.385,185.295 250.666 M176.091 259.860 C 175.151 260.817,174.529 261.600,174.710 261.600 C 175.131 261.600,178.205 258.463,177.974 258.268 C 177.878 258.187,177.031 258.903,176.091 259.860 M172.400 263.800 C 171.428 264.790,170.723 265.600,170.833 265.600 C 170.943 265.600,171.828 264.790,172.800 263.800 C 173.772 262.810,174.477 262.000,174.367 262.000 C 174.257 262.000,173.372 262.810,172.400 263.800 " stroke="none" fill="#e8544c" fill-rule="evenodd"></path><path id="path3" d="M146.400 128.200 C 145.992 128.691,146.020 128.800,146.551 128.800 C 146.908 128.800,147.200 128.530,147.200 128.200 C 147.200 127.870,147.132 127.600,147.049 127.600 C 146.966 127.600,146.674 127.870,146.400 128.200 M231.375 131.650 C 230.552 132.525,230.452 132.747,231.041 132.391 C 231.767 131.951,233.043 130.400,232.678 130.400 C 232.608 130.400,232.021 130.963,231.375 131.650 M215.829 147.009 C 215.405 147.329,215.168 147.702,215.303 147.836 C 215.437 147.970,215.953 147.702,216.449 147.240 C 217.469 146.290,217.007 146.118,215.829 147.009 M210.176 152.826 C 209.530 153.500,209.271 153.942,209.601 153.809 C 210.138 153.591,211.845 151.600,211.494 151.600 C 211.414 151.600,210.821 152.152,210.176 152.826 M202.378 160.672 L 201.000 162.145 202.273 161.172 C 203.333 160.362,204.272 159.200,203.866 159.200 C 203.806 159.200,203.137 159.863,202.378 160.672 M263.600 172.600 C 262.628 173.590,261.923 174.400,262.033 174.400 C 262.143 174.400,263.028 173.590,264.000 172.600 C 264.972 171.610,265.677 170.800,265.567 170.800 C 265.457 170.800,264.572 171.610,263.600 172.600 M259.691 176.260 C 258.751 177.217,258.129 178.000,258.310 178.000 C 258.731 178.000,261.805 174.863,261.574 174.668 C 261.478 174.587,260.631 175.303,259.691 176.260 M251.695 184.266 C 251.418 184.378,250.988 184.859,250.741 185.335 C 250.320 186.145,250.359 186.138,251.346 185.230 C 251.926 184.697,252.400 184.202,252.400 184.130 C 252.400 183.984,252.393 183.985,251.695 184.266 M246.900 188.900 C 246.955 189.175,246.730 189.340,246.400 189.267 C 246.070 189.193,245.933 189.267,246.097 189.430 C 246.260 189.593,246.175 190.013,245.909 190.363 C 245.642 190.713,245.914 190.564,246.512 190.030 C 247.634 189.031,247.900 188.400,247.200 188.400 C 246.980 188.400,246.845 188.625,246.900 188.900 M243.011 193.011 C 242.015 194.006,241.200 194.945,241.200 195.095 C 241.200 195.246,242.100 194.483,243.200 193.400 C 244.300 192.317,245.200 191.378,245.200 191.315 C 245.200 190.951,244.626 191.396,243.011 193.011 M238.243 197.833 C 237.867 198.811,237.949 198.908,238.600 198.257 C 239.280 197.577,239.367 197.200,238.843 197.200 C 238.646 197.200,238.376 197.485,238.243 197.833 M158.988 204.241 C 158.158 205.254,157.827 205.865,158.253 205.599 C 158.954 205.161,161.024 202.400,160.652 202.400 C 160.566 202.400,159.817 203.229,158.988 204.241 M154.000 209.235 C 152.304 210.753,152.284 210.794,153.658 209.937 C 154.459 209.437,155.316 208.706,155.561 208.314 C 156.179 207.325,156.048 207.402,154.000 209.235 M133.226 229.578 C 132.366 230.324,132.362 230.353,133.137 230.295 C 133.581 230.261,133.912 230.046,133.872 229.817 C 133.833 229.588,134.038 229.449,134.330 229.510 C 134.621 229.570,134.745 229.435,134.606 229.210 C 134.274 228.672,134.268 228.674,133.226 229.578 M129.782 232.915 C 128.907 233.930,128.594 234.642,129.260 234.103 C 129.597 233.830,129.954 233.688,130.053 233.786 C 130.152 233.885,130.259 233.613,130.291 233.183 C 130.359 232.278,130.340 232.268,129.782 232.915 M197.612 238.384 C 197.288 238.589,197.144 238.878,197.293 239.026 C 197.441 239.174,197.853 239.004,198.210 238.648 C 198.913 237.944,198.557 237.787,197.612 238.384 M193.011 243.011 C 192.015 244.006,191.200 244.945,191.200 245.095 C 191.200 245.246,192.100 244.483,193.200 243.400 C 194.300 242.317,195.200 241.378,195.200 241.315 C 195.200 240.951,194.626 241.396,193.011 243.011 M190.196 246.007 C 190.058 246.230,189.773 246.307,189.562 246.177 C 189.352 246.047,189.230 246.179,189.290 246.470 C 189.351 246.762,189.175 246.955,188.900 246.900 C 188.625 246.845,188.400 246.980,188.400 247.200 C 188.400 247.878,189.017 247.646,190.000 246.600 C 190.517 246.050,190.829 245.600,190.693 245.600 C 190.558 245.600,190.334 245.783,190.196 246.007 M185.295 250.666 C 185.018 250.778,184.588 251.259,184.341 251.735 C 183.920 252.545,183.959 252.538,184.946 251.630 C 185.526 251.097,186.000 250.602,186.000 250.530 C 186.000 250.384,185.993 250.385,185.295 250.666 M176.091 259.860 C 175.151 260.817,174.529 261.600,174.710 261.600 C 175.131 261.600,178.205 258.463,177.974 258.268 C 177.878 258.187,177.031 258.903,176.091 259.860 M172.400 263.800 C 171.428 264.790,170.723 265.600,170.833 265.600 C 170.943 265.600,171.828 264.790,172.800 263.800 C 173.772 262.810,174.477 262.000,174.367 262.000 C 174.257 262.000,173.372 262.810,172.400 263.800 " stroke="none" fill="#e8544c" fill-rule="evenodd"></path><path id="path4" d="M146.400 128.200 C 145.992 128.691,146.020 128.800,146.551 128.800 C 146.908 128.800,147.200 128.530,147.200 128.200 C 147.200 127.870,147.132 127.600,147.049 127.600 C 146.966 127.600,146.674 127.870,146.400 128.200 M231.375 131.650 C 230.552 132.525,230.452 132.747,231.041 132.391 C 231.767 131.951,233.043 130.400,232.678 130.400 C 232.608 130.400,232.021 130.963,231.375 131.650 M215.829 147.009 C 215.405 147.329,215.168 147.702,215.303 147.836 C 215.437 147.970,215.953 147.702,216.449 147.240 C 217.469 146.290,217.007 146.118,215.829 147.009 M210.176 152.826 C 209.530 153.500,209.271 153.942,209.601 153.809 C 210.138 153.591,211.845 151.600,211.494 151.600 C 211.414 151.600,210.821 152.152,210.176 152.826 M202.378 160.672 L 201.000 162.145 202.273 161.172 C 203.333 160.362,204.272 159.200,203.866 159.200 C 203.806 159.200,203.137 159.863,202.378 160.672 M263.600 172.600 C 262.628 173.590,261.923 174.400,262.033 174.400 C 262.143 174.400,263.028 173.590,264.000 172.600 C 264.972 171.610,265.677 170.800,265.567 170.800 C 265.457 170.800,264.572 171.610,263.600 172.600 M259.691 176.260 C 258.751 177.217,258.129 178.000,258.310 178.000 C 258.731 178.000,261.805 174.863,261.574 174.668 C 261.478 174.587,260.631 175.303,259.691 176.260 M251.695 184.266 C 251.418 184.378,250.988 184.859,250.741 185.335 C 250.320 186.145,250.359 186.138,251.346 185.230 C 251.926 184.697,252.400 184.202,252.400 184.130 C 252.400 183.984,252.393 183.985,251.695 184.266 M246.900 188.900 C 246.955 189.175,246.730 189.340,246.400 189.267 C 246.070 189.193,245.933 189.267,246.097 189.430 C 246.260 189.593,246.175 190.013,245.909 190.363 C 245.642 190.713,245.914 190.564,246.512 190.030 C 247.634 189.031,247.900 188.400,247.200 188.400 C 246.980 188.400,246.845 188.625,246.900 188.900 M243.011 193.011 C 242.015 194.006,241.200 194.945,241.200 195.095 C 241.200 195.246,242.100 194.483,243.200 193.400 C 244.300 192.317,245.200 191.378,245.200 191.315 C 245.200 190.951,244.626 191.396,243.011 193.011 M238.243 197.833 C 237.867 198.811,237.949 198.908,238.600 198.257 C 239.280 197.577,239.367 197.200,238.843 197.200 C 238.646 197.200,238.376 197.485,238.243 197.833 M158.988 204.241 C 158.158 205.254,157.827 205.865,158.253 205.599 C 158.954 205.161,161.024 202.400,160.652 202.400 C 160.566 202.400,159.817 203.229,158.988 204.241 M154.000 209.235 C 152.304 210.753,152.284 210.794,153.658 209.937 C 154.459 209.437,155.316 208.706,155.561 208.314 C 156.179 207.325,156.048 207.402,154.000 209.235 M133.226 229.578 C 132.366 230.324,132.362 230.353,133.137 230.295 C 133.581 230.261,133.912 230.046,133.872 229.817 C 133.833 229.588,134.038 229.449,134.330 229.510 C 134.621 229.570,134.745 229.435,134.606 229.210 C 134.274 228.672,134.268 228.674,133.226 229.578 M129.782 232.915 C 128.907 233.930,128.594 234.642,129.260 234.103 C 129.597 233.830,129.954 233.688,130.053 233.786 C 130.152 233.885,130.259 233.613,130.291 233.183 C 130.359 232.278,130.340 232.268,129.782 232.915 M197.612 238.384 C 197.288 238.589,197.144 238.878,197.293 239.026 C 197.441 239.174,197.853 239.004,198.210 238.648 C 198.913 237.944,198.557 237.787,197.612 238.384 M193.011 243.011 C 192.015 244.006,191.200 244.945,191.200 245.095 C 191.200 245.246,192.100 244.483,193.200 243.400 C 194.300 242.317,195.200 241.378,195.200 241.315 C 195.200 240.951,194.626 241.396,193.011 243.011 M190.196 246.007 C 190.058 246.230,189.773 246.307,189.562 246.177 C 189.352 246.047,189.230 246.179,189.290 246.470 C 189.351 246.762,189.175 246.955,188.900 246.900 C 188.625 246.845,188.400 246.980,188.400 247.200 C 188.400 247.878,189.017 247.646,190.000 246.600 C 190.517 246.050,190.829 245.600,190.693 245.600 C 190.558 245.600,190.334 245.783,190.196 246.007 M185.295 250.666 C 185.018 250.778,184.588 251.259,184.341 251.735 C 183.920 252.545,183.959 252.538,184.946 251.630 C 185.526 251.097,186.000 250.602,186.000 250.530 C 186.000 250.384,185.993 250.385,185.295 250.666 M176.091 259.860 C 175.151 260.817,174.529 261.600,174.710 261.600 C 175.131 261.600,178.205 258.463,177.974 258.268 C 177.878 258.187,177.031 258.903,176.091 259.860 M172.400 263.800 C 171.428 264.790,170.723 265.600,170.833 265.600 C 170.943 265.600,171.828 264.790,172.800 263.800 C 173.772 262.810,174.477 262.000,174.367 262.000 C 174.257 262.000,173.372 262.810,172.400 263.800 " stroke="none" fill="#e8544c" fill-rule="evenodd"></path></g></svg>