<svg id="svg" version="1.1" xmlns="http://www.w3.org/2000/svg" xmlns:xlink="http://www.w3.org/1999/xlink" width="400" height="400" viewBox="0, 0, 400,400"><g id="svgg"><path id="path0" d="M263.600 123.600 C 263.600 123.820,262.880 124.000,262.000 124.000 C 261.120 124.000,260.400 124.160,260.400 124.355 C 260.400 124.551,259.787 124.826,259.039 124.966 C 258.290 125.107,257.581 125.473,257.463 125.781 C 257.345 126.088,256.609 126.643,255.828 127.014 C 255.046 127.384,254.506 127.848,254.627 128.044 C 254.748 128.240,254.652 128.400,254.413 128.400 C 253.823 128.400,250.400 131.860,250.400 132.456 C 250.400 132.719,250.293 132.827,250.163 132.696 C 249.867 132.400,244.800 137.427,244.800 138.016 C 244.800 138.253,244.633 138.344,244.429 138.218 C 244.225 138.092,243.943 138.351,243.802 138.794 C 243.661 139.237,243.399 139.600,243.220 139.600 C 242.795 139.600,239.600 142.795,239.600 143.220 C 239.600 143.399,239.237 143.661,238.794 143.802 C 238.351 143.943,238.092 144.225,238.218 144.429 C 238.344 144.633,238.253 144.800,238.016 144.800 C 237.427 144.800,232.400 149.867,232.696 150.163 C 232.827 150.293,232.719 150.400,232.456 150.400 C 231.835 150.400,228.400 153.835,228.400 154.456 C 228.400 154.719,228.302 154.835,228.183 154.716 C 227.957 154.490,225.430 156.935,224.427 158.349 C 224.112 158.794,223.707 159.066,223.527 158.955 C 223.347 158.844,223.200 159.021,223.200 159.349 C 223.200 159.678,222.837 160.061,222.394 160.202 C 221.951 160.343,221.692 160.625,221.818 160.829 C 221.944 161.033,221.756 161.200,221.400 161.200 C 221.044 161.200,220.864 161.380,221.000 161.600 C 221.136 161.820,221.054 162.000,220.819 162.000 C 220.260 162.000,212.000 170.260,212.000 170.819 C 212.000 171.054,211.820 171.136,211.600 171.000 C 211.380 170.864,211.200 171.044,211.200 171.400 C 211.200 171.756,211.033 171.944,210.829 171.818 C 210.625 171.692,210.343 171.951,210.202 172.394 C 210.061 172.837,209.678 173.200,209.349 173.200 C 209.021 173.200,208.844 173.347,208.955 173.527 C 209.066 173.707,208.794 174.112,208.349 174.427 C 206.935 175.430,204.490 177.957,204.716 178.183 C 204.835 178.302,204.719 178.400,204.456 178.400 C 204.194 178.400,203.174 179.205,202.189 180.189 C 201.205 181.174,200.400 182.194,200.400 182.456 C 200.400 182.719,200.293 182.827,200.163 182.696 C 199.867 182.400,194.800 187.427,194.800 188.016 C 194.800 188.253,194.633 188.344,194.429 188.218 C 194.225 188.092,193.943 188.351,193.802 188.794 C 193.661 189.237,193.399 189.600,193.220 189.600 C 192.795 189.600,189.600 192.795,189.600 193.220 C 189.600 193.399,189.237 193.661,188.794 193.802 C 188.351 193.943,188.092 194.225,188.218 194.429 C 188.344 194.633,188.245 194.800,187.998 194.800 C 187.750 194.800,186.671 195.700,185.600 196.800 C 183.163 199.302,183.303 199.318,180.185 196.200 C 178.755 194.770,177.409 193.600,177.193 193.600 C 176.977 193.600,176.800 193.451,176.800 193.268 C 176.800 192.734,170.509 186.425,170.242 186.691 C 170.109 186.824,170.000 186.633,170.000 186.267 C 170.000 185.900,169.700 185.600,169.333 185.600 C 168.967 185.600,168.773 185.494,168.903 185.363 C 169.212 185.055,163.358 179.200,162.740 179.200 C 162.480 179.200,162.360 179.107,162.474 178.993 C 162.760 178.706,154.273 170.090,153.900 170.288 C 153.735 170.375,153.600 170.251,153.600 170.012 C 153.600 169.219,144.013 160.000,143.188 160.000 C 142.741 160.000,142.400 159.730,142.400 159.376 C 142.400 159.033,142.220 158.864,142.000 159.000 C 141.780 159.136,141.600 159.057,141.600 158.824 C 141.600 158.591,141.330 158.400,141.000 158.400 C 140.670 158.400,140.400 158.220,140.400 158.000 C 140.400 157.780,139.860 157.600,139.200 157.600 C 138.540 157.600,138.000 157.420,138.000 157.200 C 138.000 156.956,136.133 156.800,133.200 156.800 C 130.267 156.800,128.400 156.956,128.400 157.200 C 128.400 157.420,128.076 157.600,127.680 157.600 C 126.761 157.600,124.807 158.499,124.803 158.924 C 124.801 159.102,124.620 159.136,124.400 159.000 C 124.180 158.864,124.000 159.038,124.000 159.386 C 124.000 159.770,123.528 160.114,122.806 160.259 C 122.150 160.390,121.711 160.655,121.830 160.849 C 121.950 161.042,121.756 161.200,121.400 161.200 C 121.044 161.200,120.864 161.380,121.000 161.600 C 121.136 161.820,121.054 162.000,120.819 162.000 C 120.260 162.000,112.000 170.260,112.000 170.819 C 112.000 171.054,111.820 171.136,111.600 171.000 C 111.380 170.864,111.200 171.044,111.200 171.400 C 111.200 171.756,111.033 171.944,110.829 171.818 C 110.625 171.692,110.343 171.951,110.202 172.394 C 110.061 172.837,109.678 173.200,109.349 173.200 C 109.021 173.200,108.844 173.347,108.955 173.527 C 109.066 173.707,108.794 174.112,108.349 174.427 C 106.935 175.430,104.490 177.957,104.716 178.183 C 104.835 178.302,104.719 178.400,104.456 178.400 C 103.835 178.400,100.400 181.835,100.400 182.456 C 100.400 182.719,100.293 182.827,100.163 182.696 C 99.867 182.400,94.800 187.427,94.800 188.016 C 94.800 188.253,94.618 188.335,94.395 188.197 C 94.170 188.058,93.882 188.492,93.745 189.173 C 93.610 189.848,93.273 190.400,92.996 190.400 C 92.395 190.400,91.200 192.770,91.200 193.960 C 91.200 194.422,91.020 194.800,90.800 194.800 C 90.554 194.800,90.400 196.800,90.400 200.000 C 90.400 203.200,90.554 205.200,90.800 205.200 C 91.020 205.200,91.200 205.667,91.200 206.238 C 91.200 207.500,92.378 209.600,93.086 209.600 C 93.369 209.600,93.600 209.932,93.600 210.339 C 93.600 211.200,94.959 212.907,95.341 212.526 C 95.483 212.383,95.600 212.481,95.600 212.743 C 95.600 213.238,105.683 223.447,107.889 225.187 C 108.577 225.729,109.053 226.314,108.947 226.487 C 108.840 226.659,109.033 226.800,109.376 226.800 C 109.719 226.800,110.000 226.979,110.000 227.197 C 110.000 227.493,121.786 239.445,124.459 241.859 C 124.666 242.047,125.713 243.129,126.786 244.265 C 127.858 245.401,128.840 246.226,128.968 246.099 C 129.096 245.971,129.200 246.086,129.200 246.354 C 129.200 246.905,142.693 260.400,143.244 260.400 C 143.440 260.400,143.600 260.552,143.600 260.739 C 143.600 261.303,145.062 262.804,145.341 262.526 C 145.483 262.383,145.600 262.481,145.600 262.743 C 145.600 263.238,155.683 273.447,157.889 275.187 C 158.577 275.729,159.053 276.314,158.947 276.487 C 158.840 276.659,159.033 276.800,159.376 276.800 C 159.719 276.800,160.000 276.976,160.000 277.190 C 160.000 277.747,171.886 289.600,172.444 289.600 C 172.698 289.600,173.197 289.928,173.553 290.330 C 174.354 291.233,176.670 292.400,177.661 292.400 C 178.068 292.400,178.400 292.580,178.400 292.800 C 178.400 293.044,180.267 293.200,183.200 293.200 C 186.133 293.200,188.000 293.044,188.000 292.800 C 188.000 292.580,188.540 292.400,189.200 292.400 C 189.860 292.400,190.400 292.240,190.400 292.043 C 190.400 291.847,190.850 291.574,191.400 291.436 C 191.950 291.298,192.400 291.008,192.400 290.792 C 192.400 290.577,192.670 290.400,193.001 290.400 C 193.331 290.400,204.409 279.555,217.619 266.300 C 230.828 253.045,241.790 242.047,241.977 241.859 C 242.923 240.916,291.567 192.270,291.859 191.976 C 292.047 191.787,295.665 188.208,299.900 184.024 C 304.135 179.839,307.600 176.142,307.600 175.808 C 307.600 175.473,307.772 175.200,307.982 175.200 C 308.192 175.200,308.482 174.570,308.626 173.800 C 308.771 173.030,309.049 172.400,309.245 172.400 C 309.440 172.400,309.600 169.880,309.600 166.800 C 309.600 163.333,309.448 161.200,309.200 161.200 C 308.980 161.200,308.800 160.654,308.800 159.987 C 308.800 159.279,308.551 158.679,308.200 158.545 C 307.870 158.418,307.600 158.060,307.600 157.749 C 307.600 157.066,303.376 152.758,303.038 153.096 C 302.907 153.226,302.800 153.118,302.800 152.854 C 302.800 152.287,294.152 143.600,293.587 143.600 C 293.374 143.600,293.200 143.440,293.200 143.245 C 293.200 142.695,286.918 136.415,286.643 136.690 C 286.509 136.824,286.400 136.714,286.400 136.446 C 286.400 135.535,275.542 125.168,274.334 124.927 C 273.710 124.802,273.200 124.543,273.200 124.350 C 273.200 124.158,272.480 124.000,271.600 124.000 C 270.720 124.000,270.000 123.820,270.000 123.600 C 270.000 123.367,268.667 123.200,266.800 123.200 C 264.933 123.200,263.600 123.367,263.600 123.600 " stroke="none" fill="#24ac5c" fill-rule="evenodd"></path><path id="path1" d="" stroke="none" fill="#28ac5c" fill-rule="evenodd"></path><path id="path2" d="" stroke="none" fill="#28ac5c" fill-rule="evenodd"></path><path id="path3" d="" stroke="none" fill="#28ac5c" fill-rule="evenodd"></path><path id="path4" d="" stroke="none" fill="#28ac5c" fill-rule="evenodd"></path></g></svg>