<svg xmlns="http://www.w3.org/2000/svg" viewBox="0 0 300 300"><defs><style>.cls-1,.cls-3{fill:#fff;}.cls-1{stroke:#443c99;stroke-miterlimit:10;stroke-width:3px;}.cls-2{fill:#443c99;}</style></defs><title>Artboard 21</title><g id="pressure_shit" data-name="pressure shit"><path class="cls-1" d="M240.72,71.41v173A14.6,14.6,0,0,1,226.12,259H73.88a14.6,14.6,0,0,1-14.6-14.59V35.16a14.6,14.6,0,0,1,14.6-14.6H187.1Z"/><path class="cls-1" d="M240.72,78.37H194.78a11.69,11.69,0,0,1-11.69-11.69V20.56h4l53.62,50.85Z"/><path class="cls-2" d="M116.55,139.87H97.16a4.69,4.69,0,0,1-4.69-4.69h0a4.69,4.69,0,0,1,4.69-4.69h48.15a4.69,4.69,0,0,1,4.69,4.69h0a4.69,4.69,0,0,1-4.69,4.69H125.92"/><path class="cls-2" d="M140.59,164.37H97.16a4.69,4.69,0,0,1-4.69-4.68h0A4.69,4.69,0,0,1,97.16,155H202.75a4.69,4.69,0,0,1,4.69,4.69h0a4.69,4.69,0,0,1-4.69,4.68H159.32"/><path class="cls-2" d="M140.59,188.88H97.16a4.69,4.69,0,0,1-4.69-4.69h0a4.69,4.69,0,0,1,4.69-4.68H202.75a4.69,4.69,0,0,1,4.69,4.68h0a4.69,4.69,0,0,1-4.69,4.69H159.32"/><circle class="cls-2" cx="218.6" cy="212.89" r="70.27"/><path class="cls-3" d="M263.84,185.29l-4.38-4.37a4.82,4.82,0,0,0-6.81,0l-40.06,40.29-14.67-14.67a4.82,4.82,0,0,0-6.81,0l-4.38,4.38a4.82,4.82,0,0,0,0,6.81l25.52,25.52.34-.33.33.33,50.92-51.15A4.82,4.82,0,0,0,263.84,185.29Z"/></g></svg>