<svg id="svg" version="1.1" xmlns="http://www.w3.org/2000/svg" xmlns:xlink="http://www.w3.org/1999/xlink" width="400" height="400" viewBox="0, 0, 400,400"><g id="svgg"><path id="path0" d="M288.400 99.983 C 288.070 100.206,287.303 100.391,286.695 100.394 C 286.087 100.397,285.277 100.573,284.895 100.784 C 284.513 100.996,283.121 101.660,281.803 102.260 C 280.484 102.859,279.055 103.676,278.627 104.075 C 278.199 104.474,277.724 104.800,277.571 104.800 C 277.418 104.800,253.512 128.560,224.445 157.600 C 177.240 204.763,171.466 210.400,170.371 210.400 C 169.189 210.400,156.059 197.474,129.000 169.669 C 123.050 163.555,117.623 159.600,115.183 159.600 C 114.778 159.600,114.336 159.420,114.200 159.200 C 114.064 158.980,113.164 158.800,112.200 158.800 C 111.236 158.800,110.323 158.599,110.171 158.354 C 109.991 158.062,109.257 158.003,108.048 158.185 C 107.032 158.337,105.524 158.557,104.697 158.673 C 103.871 158.789,103.095 159.045,102.974 159.242 C 102.852 159.439,102.324 159.600,101.800 159.600 C 101.276 159.600,100.736 159.780,100.600 160.000 C 100.464 160.220,100.085 160.400,99.758 160.400 C 97.137 160.400,73.322 183.350,71.071 188.046 C 67.117 196.293,67.794 207.051,72.566 211.823 C 72.921 212.179,73.652 213.039,74.189 213.735 C 76.185 216.320,158.370 298.400,158.963 298.400 C 159.301 298.400,160.348 298.750,161.289 299.178 C 164.828 300.788,167.284 301.269,171.023 301.083 C 179.793 300.648,182.167 299.083,196.600 284.231 C 207.529 272.984,264.302 216.129,299.928 180.754 C 326.575 154.294,328.055 152.718,329.554 149.200 C 330.069 147.990,330.638 146.707,330.818 146.350 C 331.382 145.228,331.678 138.304,331.244 136.400 C 331.019 135.410,330.720 134.060,330.580 133.400 C 330.215 131.675,328.888 128.861,327.980 127.886 C 327.551 127.426,327.200 126.903,327.200 126.725 C 327.200 126.299,305.162 104.330,304.166 103.764 C 300.669 101.774,299.469 101.200,298.809 101.200 C 298.390 101.200,297.948 101.039,297.826 100.842 C 297.357 100.083,289.336 99.352,288.400 99.983 " stroke="none" fill="#fcfcfc" fill-rule="evenodd"></path><path id="path1" d="M178.300 0.275 C 176.375 0.361,174.800 0.604,174.800 0.816 C 174.800 1.029,173.380 1.200,171.600 1.200 C 169.733 1.200,168.400 1.367,168.400 1.600 C 168.400 1.820,167.500 2.000,166.400 2.000 C 165.300 2.000,164.400 2.180,164.400 2.400 C 164.400 2.622,163.333 2.800,162.000 2.800 C 160.667 2.800,159.600 2.978,159.600 3.200 C 159.600 3.420,158.790 3.600,157.800 3.600 C 156.810 3.600,156.000 3.780,156.000 4.000 C 156.000 4.220,155.280 4.400,154.400 4.400 C 153.520 4.400,152.800 4.580,152.800 4.800 C 152.800 5.020,152.080 5.200,151.200 5.200 C 150.320 5.200,149.600 5.380,149.600 5.600 C 149.600 5.820,148.880 6.000,148.000 6.000 C 147.120 6.000,146.400 6.180,146.400 6.400 C 146.400 6.620,145.860 6.800,145.200 6.800 C 144.540 6.800,144.000 6.980,144.000 7.200 C 144.000 7.420,143.370 7.600,142.600 7.600 C 141.830 7.600,141.200 7.762,141.200 7.961 C 141.200 8.159,140.120 8.447,138.800 8.600 C 137.480 8.753,136.400 9.041,136.400 9.239 C 136.400 9.438,135.860 9.600,135.200 9.600 C 134.540 9.600,134.000 9.780,134.000 10.000 C 134.000 10.220,133.460 10.400,132.800 10.400 C 132.140 10.400,131.600 10.580,131.600 10.800 C 131.600 11.020,131.060 11.200,130.400 11.200 C 129.740 11.200,129.200 11.380,129.200 11.600 C 129.200 11.820,128.840 12.000,128.400 12.000 C 127.960 12.000,127.600 12.180,127.600 12.400 C 127.600 12.620,127.276 12.800,126.880 12.800 C 125.986 12.800,124.007 13.694,124.003 14.100 C 124.001 14.265,123.460 14.400,122.800 14.400 C 122.140 14.400,121.600 14.580,121.600 14.800 C 121.600 15.020,121.240 15.200,120.800 15.200 C 120.360 15.200,120.000 15.380,120.000 15.600 C 120.000 15.820,119.640 16.000,119.200 16.000 C 118.760 16.000,118.400 16.180,118.400 16.400 C 118.400 16.620,117.860 16.800,117.200 16.800 C 116.540 16.800,116.000 16.980,116.000 17.200 C 116.000 17.420,115.640 17.600,115.200 17.600 C 114.760 17.600,114.400 17.780,114.400 18.000 C 114.400 18.220,114.040 18.400,113.600 18.400 C 113.160 18.400,112.800 18.580,112.800 18.800 C 112.800 19.020,112.440 19.200,112.000 19.200 C 111.560 19.200,111.200 19.380,111.200 19.600 C 111.200 19.820,110.840 20.000,110.400 20.000 C 109.960 20.000,109.600 20.180,109.600 20.400 C 109.600 20.620,109.330 20.800,109.000 20.800 C 108.670 20.800,108.400 20.980,108.400 21.200 C 108.400 21.420,108.040 21.600,107.600 21.600 C 107.160 21.600,106.800 21.780,106.800 22.000 C 106.800 22.220,106.440 22.400,106.000 22.400 C 105.560 22.400,105.200 22.580,105.200 22.800 C 105.200 23.020,104.906 23.200,104.547 23.200 C 104.188 23.200,103.603 23.531,103.247 23.936 C 102.653 24.612,100.614 25.422,99.900 25.266 C 99.735 25.230,99.600 25.380,99.600 25.600 C 99.600 25.820,99.280 26.000,98.888 26.000 C 98.497 26.000,97.917 26.360,97.600 26.800 C 97.283 27.240,96.703 27.600,96.312 27.600 C 95.920 27.600,95.600 27.780,95.600 28.000 C 95.600 28.220,95.280 28.400,94.888 28.400 C 94.497 28.400,93.917 28.760,93.600 29.200 C 93.283 29.640,92.795 30.000,92.515 30.000 C 92.236 30.000,91.782 30.360,91.507 30.800 C 91.232 31.240,90.731 31.600,90.392 31.600 C 90.054 31.600,89.517 31.960,89.200 32.400 C 88.883 32.840,88.343 33.200,88.000 33.200 C 87.657 33.200,87.117 33.560,86.800 34.000 C 86.483 34.440,85.943 34.800,85.600 34.800 C 85.257 34.800,84.717 35.160,84.400 35.600 C 84.083 36.040,83.575 36.400,83.272 36.400 C 82.969 36.400,82.217 36.940,81.600 37.600 C 80.983 38.260,80.263 38.800,80.000 38.800 C 79.737 38.800,79.017 39.340,78.400 40.000 C 77.783 40.660,77.014 41.200,76.690 41.200 C 76.367 41.200,75.564 41.830,74.906 42.600 C 74.248 43.370,73.494 44.000,73.229 44.000 C 72.965 44.000,71.871 44.900,70.800 46.000 C 69.729 47.100,68.649 48.000,68.402 48.000 C 68.154 48.000,65.803 50.205,63.176 52.900 C 57.446 58.780,58.780 57.446,52.900 63.176 C 50.205 65.803,48.000 68.154,48.000 68.402 C 48.000 68.649,47.100 69.729,46.000 70.800 C 44.900 71.871,44.000 72.965,44.000 73.229 C 44.000 73.494,43.370 74.248,42.600 74.906 C 41.830 75.564,41.200 76.367,41.200 76.690 C 41.200 77.014,40.660 77.783,40.000 78.400 C 39.340 79.017,38.800 79.737,38.800 80.000 C 38.800 80.263,38.260 80.983,37.600 81.600 C 36.940 82.217,36.400 82.969,36.400 83.272 C 36.400 83.575,36.040 84.083,35.600 84.400 C 35.160 84.717,34.800 85.257,34.800 85.600 C 34.800 85.943,34.440 86.483,34.000 86.800 C 33.560 87.117,33.200 87.657,33.200 88.000 C 33.200 88.343,32.840 88.883,32.400 89.200 C 31.960 89.517,31.600 90.054,31.600 90.392 C 31.600 90.731,31.240 91.232,30.800 91.507 C 30.360 91.782,30.000 92.236,30.000 92.515 C 30.000 92.795,29.640 93.283,29.200 93.600 C 28.760 93.917,28.400 94.497,28.400 94.888 C 28.400 95.280,28.220 95.600,28.000 95.600 C 27.780 95.600,27.600 95.920,27.600 96.312 C 27.600 96.703,27.240 97.283,26.800 97.600 C 26.360 97.917,26.000 98.497,26.000 98.888 C 26.000 99.280,25.820 99.600,25.600 99.600 C 25.380 99.600,25.230 99.735,25.266 99.900 C 25.422 100.614,24.612 102.653,23.936 103.247 C 23.531 103.603,23.200 104.188,23.200 104.547 C 23.200 104.906,23.020 105.200,22.800 105.200 C 22.580 105.200,22.400 105.560,22.400 106.000 C 22.400 106.440,22.220 106.800,22.000 106.800 C 21.780 106.800,21.600 107.160,21.600 107.600 C 21.600 108.040,21.420 108.400,21.200 108.400 C 20.980 108.400,20.800 108.670,20.800 109.000 C 20.800 109.330,20.620 109.600,20.400 109.600 C 20.180 109.600,20.000 109.960,20.000 110.400 C 20.000 110.840,19.820 111.200,19.600 111.200 C 19.380 111.200,19.200 111.560,19.200 112.000 C 19.200 112.440,19.020 112.800,18.800 112.800 C 18.580 112.800,18.400 113.160,18.400 113.600 C 18.400 114.040,18.220 114.400,18.000 114.400 C 17.780 114.400,17.600 114.760,17.600 115.200 C 17.600 115.640,17.420 116.000,17.200 116.000 C 16.980 116.000,16.800 116.540,16.800 117.200 C 16.800 117.860,16.620 118.400,16.400 118.400 C 16.180 118.400,16.000 118.760,16.000 119.200 C 16.000 119.640,15.820 120.000,15.600 120.000 C 15.380 120.000,15.200 120.360,15.200 120.800 C 15.200 121.240,15.020 121.600,14.800 121.600 C 14.580 121.600,14.400 122.140,14.400 122.800 C 14.400 123.460,14.265 124.001,14.100 124.003 C 13.694 124.007,12.800 125.986,12.800 126.880 C 12.800 127.276,12.620 127.600,12.400 127.600 C 12.180 127.600,12.000 127.960,12.000 128.400 C 12.000 128.840,11.820 129.200,11.600 129.200 C 11.380 129.200,11.200 129.740,11.200 130.400 C 11.200 131.060,11.020 131.600,10.800 131.600 C 10.580 131.600,10.400 132.140,10.400 132.800 C 10.400 133.460,10.220 134.000,10.000 134.000 C 9.780 134.000,9.600 134.540,9.600 135.200 C 9.600 135.860,9.438 136.400,9.239 136.400 C 9.041 136.400,8.753 137.480,8.600 138.800 C 8.447 140.120,8.159 141.200,7.961 141.200 C 7.762 141.200,7.600 141.830,7.600 142.600 C 7.600 143.370,7.420 144.000,7.200 144.000 C 6.980 144.000,6.800 144.540,6.800 145.200 C 6.800 145.860,6.620 146.400,6.400 146.400 C 6.180 146.400,6.000 147.120,6.000 148.000 C 6.000 148.880,5.820 149.600,5.600 149.600 C 5.380 149.600,5.200 150.320,5.200 151.200 C 5.200 152.080,5.020 152.800,4.800 152.800 C 4.580 152.800,4.400 153.520,4.400 154.400 C 4.400 155.280,4.220 156.000,4.000 156.000 C 3.780 156.000,3.600 156.810,3.600 157.800 C 3.600 158.790,3.420 159.600,3.200 159.600 C 2.980 159.600,2.800 160.500,2.800 161.600 C 2.800 162.700,2.620 163.600,2.400 163.600 C 2.178 163.600,2.000 164.667,2.000 166.000 C 2.000 167.333,1.822 168.400,1.600 168.400 C 1.372 168.400,1.200 169.589,1.200 171.167 C 1.200 173.024,1.036 173.988,0.700 174.100 C 0.307 174.231,0.200 179.689,0.200 199.600 C 0.200 219.511,0.307 224.969,0.700 225.100 C 1.036 225.212,1.200 226.176,1.200 228.033 C 1.200 229.611,1.372 230.800,1.600 230.800 C 1.822 230.800,2.000 231.867,2.000 233.200 C 2.000 234.533,2.178 235.600,2.400 235.600 C 2.622 235.600,2.800 236.667,2.800 238.000 C 2.800 239.333,2.978 240.400,3.200 240.400 C 3.420 240.400,3.600 241.030,3.600 241.800 C 3.600 242.570,3.780 243.200,4.000 243.200 C 4.220 243.200,4.400 244.100,4.400 245.200 C 4.400 246.300,4.580 247.200,4.800 247.200 C 5.020 247.200,5.200 247.920,5.200 248.800 C 5.200 249.680,5.380 250.400,5.600 250.400 C 5.820 250.400,6.000 251.120,6.000 252.000 C 6.000 252.880,6.180 253.600,6.400 253.600 C 6.620 253.600,6.800 254.140,6.800 254.800 C 6.800 255.460,6.980 256.000,7.200 256.000 C 7.420 256.000,7.600 256.630,7.600 257.400 C 7.600 258.170,7.762 258.800,7.961 258.800 C 8.159 258.800,8.447 259.880,8.600 261.200 C 8.753 262.520,9.041 263.600,9.239 263.600 C 9.438 263.600,9.600 264.140,9.600 264.800 C 9.600 265.460,9.780 266.000,10.000 266.000 C 10.220 266.000,10.400 266.540,10.400 267.200 C 10.400 267.860,10.580 268.400,10.800 268.400 C 11.020 268.400,11.200 268.760,11.200 269.200 C 11.200 269.640,11.380 270.000,11.600 270.000 C 11.820 270.000,12.000 270.540,12.000 271.200 C 12.000 271.860,12.180 272.400,12.400 272.400 C 12.620 272.400,12.800 272.940,12.800 273.600 C 12.800 274.260,12.980 274.800,13.200 274.800 C 13.420 274.800,13.600 275.070,13.600 275.400 C 13.600 275.730,13.780 276.000,14.000 276.000 C 14.220 276.000,14.400 276.540,14.400 277.200 C 14.400 277.860,14.580 278.400,14.800 278.400 C 15.020 278.400,15.200 278.760,15.200 279.200 C 15.200 279.640,15.380 280.000,15.600 280.000 C 15.820 280.000,16.000 280.360,16.000 280.800 C 16.000 281.240,16.180 281.600,16.400 281.600 C 16.620 281.600,16.800 281.960,16.800 282.400 C 16.800 282.840,16.980 283.200,17.200 283.200 C 17.420 283.200,17.600 283.740,17.600 284.400 C 17.600 285.060,17.780 285.600,18.000 285.600 C 18.220 285.600,18.400 285.960,18.400 286.400 C 18.400 286.840,18.580 287.200,18.800 287.200 C 19.020 287.200,19.200 287.560,19.200 288.000 C 19.200 288.440,19.380 288.800,19.600 288.800 C 19.820 288.800,20.000 289.160,20.000 289.600 C 20.000 290.040,20.180 290.400,20.400 290.400 C 20.620 290.400,20.800 290.670,20.800 291.000 C 20.800 291.330,20.980 291.600,21.200 291.600 C 21.420 291.600,21.600 291.960,21.600 292.400 C 21.600 292.840,21.780 293.200,22.000 293.200 C 22.220 293.200,22.400 293.520,22.400 293.912 C 22.400 294.303,22.760 294.883,23.200 295.200 C 23.640 295.517,24.000 296.097,24.000 296.488 C 24.000 296.880,24.158 297.200,24.350 297.200 C 24.677 297.200,25.372 299.434,25.254 300.100 C 25.224 300.265,25.380 300.400,25.600 300.400 C 25.820 300.400,26.000 300.720,26.000 301.112 C 26.000 301.503,26.360 302.083,26.800 302.400 C 27.240 302.717,27.600 303.297,27.600 303.688 C 27.600 304.080,27.780 304.400,28.000 304.400 C 28.220 304.400,28.400 304.720,28.400 305.112 C 28.400 305.503,28.760 306.083,29.200 306.400 C 29.640 306.717,30.000 307.285,30.000 307.661 C 30.000 308.038,30.360 308.460,30.800 308.600 C 31.240 308.740,31.600 309.162,31.600 309.539 C 31.600 309.915,31.960 310.483,32.400 310.800 C 32.840 311.117,33.200 311.657,33.200 312.000 C 33.200 312.343,33.560 312.883,34.000 313.200 C 34.440 313.517,34.800 314.057,34.800 314.400 C 34.800 314.743,35.160 315.283,35.600 315.600 C 36.040 315.917,36.400 316.425,36.400 316.728 C 36.400 317.031,36.940 317.783,37.600 318.400 C 38.260 319.017,38.800 319.737,38.800 320.000 C 38.800 320.263,39.340 320.983,40.000 321.600 C 40.660 322.217,41.200 322.986,41.200 323.310 C 41.200 323.633,41.830 324.436,42.600 325.094 C 43.370 325.752,44.000 326.506,44.000 326.771 C 44.000 327.035,44.900 328.129,46.000 329.200 C 47.100 330.271,48.000 331.345,48.000 331.586 C 48.000 331.918,53.399 337.440,58.100 341.914 C 58.266 342.071,60.550 344.405,63.176 347.100 C 65.803 349.795,68.154 352.000,68.402 352.000 C 68.649 352.000,69.729 352.900,70.800 354.000 C 71.871 355.100,72.965 356.000,73.229 356.000 C 73.494 356.000,74.248 356.630,74.906 357.400 C 75.564 358.170,76.367 358.800,76.690 358.800 C 77.014 358.800,77.783 359.340,78.400 360.000 C 79.017 360.660,79.737 361.200,80.000 361.200 C 80.263 361.200,80.983 361.740,81.600 362.400 C 82.217 363.060,82.969 363.600,83.272 363.600 C 83.575 363.600,84.083 363.960,84.400 364.400 C 84.717 364.840,85.257 365.200,85.600 365.200 C 85.943 365.200,86.483 365.560,86.800 366.000 C 87.117 366.440,87.657 366.800,88.000 366.800 C 88.343 366.800,88.883 367.160,89.200 367.600 C 89.517 368.040,90.054 368.400,90.392 368.400 C 90.731 368.400,91.232 368.760,91.507 369.200 C 91.782 369.640,92.236 370.000,92.515 370.000 C 92.795 370.000,93.283 370.360,93.600 370.800 C 93.917 371.240,94.497 371.600,94.888 371.600 C 95.280 371.600,95.600 371.780,95.600 372.000 C 95.600 372.220,95.920 372.400,96.312 372.400 C 96.703 372.400,97.283 372.760,97.600 373.200 C 97.917 373.640,98.497 374.000,98.888 374.000 C 99.280 374.000,99.600 374.164,99.600 374.365 C 99.600 374.566,100.320 374.851,101.200 375.000 C 102.080 375.149,102.800 375.434,102.800 375.635 C 102.800 375.836,103.120 376.000,103.512 376.000 C 103.903 376.000,104.483 376.360,104.800 376.800 C 105.117 377.240,105.697 377.600,106.088 377.600 C 106.480 377.600,106.800 377.780,106.800 378.000 C 106.800 378.220,107.160 378.400,107.600 378.400 C 108.040 378.400,108.400 378.580,108.400 378.800 C 108.400 379.020,108.670 379.200,109.000 379.200 C 109.330 379.200,109.600 379.380,109.600 379.600 C 109.600 379.820,109.960 380.000,110.400 380.000 C 110.840 380.000,111.200 380.180,111.200 380.400 C 111.200 380.620,111.560 380.800,112.000 380.800 C 112.440 380.800,112.800 380.980,112.800 381.200 C 112.800 381.420,113.160 381.600,113.600 381.600 C 114.040 381.600,114.400 381.780,114.400 382.000 C 114.400 382.220,114.940 382.400,115.600 382.400 C 116.260 382.400,116.800 382.580,116.800 382.800 C 116.800 383.020,117.160 383.200,117.600 383.200 C 118.040 383.200,118.400 383.380,118.400 383.600 C 118.400 383.820,118.760 384.000,119.200 384.000 C 119.640 384.000,120.000 384.180,120.000 384.400 C 120.000 384.620,120.360 384.800,120.800 384.800 C 121.240 384.800,121.600 384.980,121.600 385.200 C 121.600 385.420,122.140 385.600,122.800 385.600 C 123.460 385.600,124.001 385.735,124.003 385.900 C 124.007 386.306,125.986 387.200,126.880 387.200 C 127.276 387.200,127.600 387.380,127.600 387.600 C 127.600 387.820,128.140 388.000,128.800 388.000 C 129.460 388.000,130.000 388.180,130.000 388.400 C 130.000 388.620,130.360 388.800,130.800 388.800 C 131.240 388.800,131.600 388.980,131.600 389.200 C 131.600 389.420,132.140 389.600,132.800 389.600 C 133.460 389.600,134.000 389.780,134.000 390.000 C 134.000 390.220,134.540 390.400,135.200 390.400 C 135.860 390.400,136.400 390.566,136.400 390.768 C 136.400 390.971,137.573 391.262,139.006 391.415 C 140.439 391.569,141.709 391.853,141.829 392.047 C 141.949 392.241,142.487 392.400,143.024 392.400 C 143.561 392.400,144.000 392.580,144.000 392.800 C 144.000 393.020,144.540 393.200,145.200 393.200 C 145.860 393.200,146.400 393.380,146.400 393.600 C 146.400 393.820,147.120 394.000,148.000 394.000 C 148.880 394.000,149.600 394.180,149.600 394.400 C 149.600 394.620,150.320 394.800,151.200 394.800 C 152.080 394.800,152.800 394.980,152.800 395.200 C 152.800 395.420,153.700 395.600,154.800 395.600 C 155.900 395.600,156.800 395.780,156.800 396.000 C 156.800 396.220,157.610 396.400,158.600 396.400 C 159.590 396.400,160.400 396.580,160.400 396.800 C 160.400 397.020,161.300 397.200,162.400 397.200 C 163.500 397.200,164.400 397.380,164.400 397.600 C 164.400 397.822,165.467 398.000,166.800 398.000 C 168.133 398.000,169.200 398.178,169.200 398.400 C 169.200 398.628,170.389 398.800,171.967 398.800 C 173.824 398.800,174.788 398.964,174.900 399.300 C 175.144 400.032,224.856 400.032,225.100 399.300 C 225.215 398.956,226.256 398.800,228.433 398.800 C 230.278 398.800,231.600 398.633,231.600 398.400 C 231.600 398.178,232.667 398.000,234.000 398.000 C 235.333 398.000,236.400 397.822,236.400 397.600 C 236.400 397.380,237.300 397.200,238.400 397.200 C 239.500 397.200,240.400 397.020,240.400 396.800 C 240.400 396.580,241.210 396.400,242.200 396.400 C 243.190 396.400,244.000 396.220,244.000 396.000 C 244.000 395.780,244.720 395.600,245.600 395.600 C 246.480 395.600,247.200 395.420,247.200 395.200 C 247.200 394.980,247.920 394.800,248.800 394.800 C 249.680 394.800,250.400 394.620,250.400 394.400 C 250.400 394.180,251.120 394.000,252.000 394.000 C 252.880 394.000,253.600 393.820,253.600 393.600 C 253.600 393.380,254.140 393.200,254.800 393.200 C 255.460 393.200,256.000 393.020,256.000 392.800 C 256.000 392.580,256.630 392.400,257.400 392.400 C 258.170 392.400,258.800 392.238,258.800 392.039 C 258.800 391.841,259.880 391.553,261.200 391.400 C 262.520 391.247,263.600 390.959,263.600 390.761 C 263.600 390.562,264.140 390.400,264.800 390.400 C 265.460 390.400,266.000 390.220,266.000 390.000 C 266.000 389.780,266.540 389.600,267.200 389.600 C 267.860 389.600,268.400 389.420,268.400 389.200 C 268.400 388.980,268.940 388.800,269.600 388.800 C 270.260 388.800,270.800 388.620,270.800 388.400 C 270.800 388.180,271.160 388.000,271.600 388.000 C 272.040 388.000,272.400 387.820,272.400 387.600 C 272.400 387.380,272.940 387.200,273.600 387.200 C 274.260 387.200,274.800 387.020,274.800 386.800 C 274.800 386.580,275.070 386.400,275.400 386.400 C 275.730 386.400,276.000 386.220,276.000 386.000 C 276.000 385.780,276.540 385.600,277.200 385.600 C 277.860 385.600,278.400 385.420,278.400 385.200 C 278.400 384.980,278.760 384.800,279.200 384.800 C 279.640 384.800,280.000 384.620,280.000 384.400 C 280.000 384.180,280.360 384.000,280.800 384.000 C 281.240 384.000,281.600 383.820,281.600 383.600 C 281.600 383.380,282.140 383.200,282.800 383.200 C 283.460 383.200,284.000 383.020,284.000 382.800 C 284.000 382.580,284.360 382.400,284.800 382.400 C 285.240 382.400,285.600 382.220,285.600 382.000 C 285.600 381.780,285.960 381.600,286.400 381.600 C 286.840 381.600,287.200 381.420,287.200 381.200 C 287.200 380.980,287.560 380.800,288.000 380.800 C 288.440 380.800,288.800 380.620,288.800 380.400 C 288.800 380.180,289.160 380.000,289.600 380.000 C 290.040 380.000,290.400 379.820,290.400 379.600 C 290.400 379.380,290.670 379.200,291.000 379.200 C 291.330 379.200,291.600 379.020,291.600 378.800 C 291.600 378.580,291.960 378.400,292.400 378.400 C 292.840 378.400,293.200 378.220,293.200 378.000 C 293.200 377.780,293.560 377.600,294.000 377.600 C 294.440 377.600,294.800 377.420,294.800 377.200 C 294.800 376.980,295.120 376.800,295.512 376.800 C 295.903 376.800,296.475 376.450,296.783 376.023 C 297.091 375.596,298.031 375.130,298.872 374.988 C 299.712 374.846,300.400 374.566,300.400 374.365 C 300.400 374.164,300.720 374.000,301.112 374.000 C 301.503 374.000,302.083 373.640,302.400 373.200 C 302.717 372.760,303.297 372.400,303.688 372.400 C 304.080 372.400,304.400 372.220,304.400 372.000 C 304.400 371.780,304.720 371.600,305.112 371.600 C 305.503 371.600,306.083 371.240,306.400 370.800 C 306.717 370.360,307.285 370.000,307.661 370.000 C 308.038 370.000,308.460 369.640,308.600 369.200 C 308.740 368.760,309.162 368.400,309.539 368.400 C 309.915 368.400,310.483 368.040,310.800 367.600 C 311.117 367.160,311.657 366.800,312.000 366.800 C 312.343 366.800,312.883 366.440,313.200 366.000 C 313.517 365.560,314.057 365.200,314.400 365.200 C 314.743 365.200,315.283 364.840,315.600 364.400 C 315.917 363.960,316.425 363.600,316.728 363.600 C 317.031 363.600,317.783 363.060,318.400 362.400 C 319.017 361.740,319.737 361.200,320.000 361.200 C 320.263 361.200,320.983 360.660,321.600 360.000 C 322.217 359.340,322.986 358.800,323.310 358.800 C 323.633 358.800,324.436 358.170,325.094 357.400 C 325.752 356.630,326.505 356.000,326.767 356.000 C 327.030 356.000,328.304 354.920,329.600 353.600 C 330.896 352.280,332.151 351.200,332.391 351.200 C 332.630 351.200,334.806 349.175,337.226 346.700 C 342.479 341.329,341.189 342.619,347.100 336.826 C 349.795 334.185,352.000 331.827,352.000 331.586 C 352.000 331.345,352.900 330.271,354.000 329.200 C 355.100 328.129,356.000 327.035,356.000 326.771 C 356.000 326.506,356.630 325.752,357.400 325.094 C 358.170 324.436,358.800 323.633,358.800 323.310 C 358.800 322.986,359.340 322.217,360.000 321.600 C 360.660 320.983,361.200 320.263,361.200 320.000 C 361.200 319.737,361.740 319.017,362.400 318.400 C 363.060 317.783,363.600 317.031,363.600 316.728 C 363.600 316.425,363.960 315.917,364.400 315.600 C 364.840 315.283,365.200 314.743,365.200 314.400 C 365.200 314.057,365.560 313.517,366.000 313.200 C 366.440 312.883,366.800 312.343,366.800 312.000 C 366.800 311.657,367.160 311.117,367.600 310.800 C 368.040 310.483,368.400 309.915,368.400 309.539 C 368.400 309.162,368.760 308.740,369.200 308.600 C 369.640 308.460,370.000 308.038,370.000 307.661 C 370.000 307.285,370.360 306.717,370.800 306.400 C 371.240 306.083,371.600 305.503,371.600 305.112 C 371.600 304.720,371.780 304.400,372.000 304.400 C 372.220 304.400,372.400 304.080,372.400 303.688 C 372.400 303.297,372.760 302.717,373.200 302.400 C 373.640 302.083,374.000 301.503,374.000 301.112 C 374.000 300.720,374.164 300.400,374.365 300.400 C 374.566 300.400,374.846 299.712,374.988 298.872 C 375.130 298.031,375.596 297.091,376.023 296.783 C 376.450 296.475,376.800 295.903,376.800 295.512 C 376.800 295.120,376.980 294.800,377.200 294.800 C 377.420 294.800,377.600 294.440,377.600 294.000 C 377.600 293.560,377.780 293.200,378.000 293.200 C 378.220 293.200,378.400 292.840,378.400 292.400 C 378.400 291.960,378.580 291.600,378.800 291.600 C 379.020 291.600,379.200 291.330,379.200 291.000 C 379.200 290.670,379.380 290.400,379.600 290.400 C 379.820 290.400,380.000 290.040,380.000 289.600 C 380.000 289.160,380.180 288.800,380.400 288.800 C 380.620 288.800,380.800 288.440,380.800 288.000 C 380.800 287.560,380.980 287.200,381.200 287.200 C 381.420 287.200,381.600 286.840,381.600 286.400 C 381.600 285.960,381.780 285.600,382.000 285.600 C 382.220 285.600,382.400 285.240,382.400 284.800 C 382.400 284.360,382.580 284.000,382.800 284.000 C 383.020 284.000,383.200 283.460,383.200 282.800 C 383.200 282.140,383.380 281.600,383.600 281.600 C 383.820 281.600,384.000 281.240,384.000 280.800 C 384.000 280.360,384.180 280.000,384.400 280.000 C 384.620 280.000,384.800 279.640,384.800 279.200 C 384.800 278.760,384.980 278.400,385.200 278.400 C 385.420 278.400,385.600 277.860,385.600 277.200 C 385.600 276.540,385.780 276.000,386.000 276.000 C 386.220 276.000,386.400 275.730,386.400 275.400 C 386.400 275.070,386.580 274.800,386.800 274.800 C 387.020 274.800,387.200 274.260,387.200 273.600 C 387.200 272.940,387.380 272.400,387.600 272.400 C 387.820 272.400,388.000 272.040,388.000 271.600 C 388.000 271.160,388.180 270.800,388.400 270.800 C 388.620 270.800,388.800 270.260,388.800 269.600 C 388.800 268.940,388.980 268.400,389.200 268.400 C 389.420 268.400,389.600 267.860,389.600 267.200 C 389.600 266.540,389.780 266.000,390.000 266.000 C 390.220 266.000,390.400 265.460,390.400 264.800 C 390.400 264.140,390.562 263.600,390.761 263.600 C 390.959 263.600,391.247 262.520,391.400 261.200 C 391.553 259.880,391.841 258.800,392.039 258.800 C 392.238 258.800,392.400 258.170,392.400 257.400 C 392.400 256.630,392.580 256.000,392.800 256.000 C 393.020 256.000,393.200 255.460,393.200 254.800 C 393.200 254.140,393.380 253.600,393.600 253.600 C 393.820 253.600,394.000 252.880,394.000 252.000 C 394.000 251.120,394.180 250.400,394.400 250.400 C 394.620 250.400,394.800 249.680,394.800 248.800 C 394.800 247.920,394.980 247.200,395.200 247.200 C 395.420 247.200,395.600 246.480,395.600 245.600 C 395.600 244.720,395.780 244.000,396.000 244.000 C 396.220 244.000,396.400 243.190,396.400 242.200 C 396.400 241.210,396.580 240.400,396.800 240.400 C 397.020 240.400,397.200 239.500,397.200 238.400 C 397.200 237.300,397.380 236.400,397.600 236.400 C 397.822 236.400,398.000 235.333,398.000 234.000 C 398.000 232.667,398.178 231.600,398.400 231.600 C 398.633 231.600,398.800 230.278,398.800 228.433 C 398.800 226.256,398.956 225.215,399.300 225.100 C 400.032 224.856,400.032 175.144,399.300 174.900 C 398.956 174.785,398.800 173.744,398.800 171.567 C 398.800 169.722,398.633 168.400,398.400 168.400 C 398.178 168.400,398.000 167.333,398.000 166.000 C 398.000 164.667,397.822 163.600,397.600 163.600 C 397.380 163.600,397.200 162.700,397.200 161.600 C 397.200 160.500,397.020 159.600,396.800 159.600 C 396.580 159.600,396.400 158.790,396.400 157.800 C 396.400 156.810,396.220 156.000,396.000 156.000 C 395.780 156.000,395.600 155.280,395.600 154.400 C 395.600 153.520,395.420 152.800,395.200 152.800 C 394.980 152.800,394.800 152.080,394.800 151.200 C 394.800 150.320,394.620 149.600,394.400 149.600 C 394.180 149.600,394.000 148.880,394.000 148.000 C 394.000 147.120,393.820 146.400,393.600 146.400 C 393.380 146.400,393.200 145.860,393.200 145.200 C 393.200 144.540,393.020 144.000,392.800 144.000 C 392.580 144.000,392.400 143.370,392.400 142.600 C 392.400 141.830,392.238 141.200,392.039 141.200 C 391.841 141.200,391.553 140.120,391.400 138.800 C 391.247 137.480,390.959 136.400,390.761 136.400 C 390.562 136.400,390.400 135.860,390.400 135.200 C 390.400 134.540,390.220 134.000,390.000 134.000 C 389.780 134.000,389.600 133.460,389.600 132.800 C 389.600 132.140,389.420 131.600,389.200 131.600 C 388.980 131.600,388.800 131.060,388.800 130.400 C 388.800 129.740,388.620 129.200,388.400 129.200 C 388.180 129.200,388.000 128.840,388.000 128.400 C 388.000 127.960,387.820 127.600,387.600 127.600 C 387.380 127.600,387.200 127.276,387.200 126.880 C 387.200 125.986,386.306 124.007,385.900 124.003 C 385.735 124.001,385.600 123.460,385.600 122.800 C 385.600 122.140,385.420 121.600,385.200 121.600 C 384.980 121.600,384.800 121.240,384.800 120.800 C 384.800 120.360,384.620 120.000,384.400 120.000 C 384.180 120.000,384.000 119.640,384.000 119.200 C 384.000 118.760,383.820 118.400,383.600 118.400 C 383.380 118.400,383.200 118.040,383.200 117.600 C 383.200 117.160,383.020 116.800,382.800 116.800 C 382.580 116.800,382.400 116.260,382.400 115.600 C 382.400 114.940,382.220 114.400,382.000 114.400 C 381.780 114.400,381.600 114.040,381.600 113.600 C 381.600 113.160,381.420 112.800,381.200 112.800 C 380.980 112.800,380.800 112.440,380.800 112.000 C 380.800 111.560,380.620 111.200,380.400 111.200 C 380.180 111.200,380.000 110.840,380.000 110.400 C 380.000 109.960,379.820 109.600,379.600 109.600 C 379.380 109.600,379.200 109.330,379.200 109.000 C 379.200 108.670,379.020 108.400,378.800 108.400 C 378.580 108.400,378.400 108.040,378.400 107.600 C 378.400 107.160,378.220 106.800,378.000 106.800 C 377.780 106.800,377.600 106.440,377.600 106.000 C 377.600 105.560,377.420 105.200,377.200 105.200 C 376.980 105.200,376.800 104.880,376.800 104.488 C 376.800 104.097,376.450 103.525,376.023 103.217 C 375.596 102.909,375.130 101.969,374.988 101.128 C 374.846 100.288,374.566 99.600,374.365 99.600 C 374.164 99.600,374.000 99.280,374.000 98.888 C 374.000 98.497,373.640 97.917,373.200 97.600 C 372.760 97.283,372.400 96.703,372.400 96.312 C 372.400 95.920,372.220 95.600,372.000 95.600 C 371.780 95.600,371.600 95.280,371.600 94.888 C 371.600 94.497,371.240 93.917,370.800 93.600 C 370.360 93.283,370.000 92.795,370.000 92.515 C 370.000 92.236,369.640 91.782,369.200 91.507 C 368.760 91.232,368.400 90.731,368.400 90.392 C 368.400 90.054,368.040 89.517,367.600 89.200 C 367.160 88.883,366.800 88.343,366.800 88.000 C 366.800 87.657,366.440 87.117,366.000 86.800 C 365.560 86.483,365.200 85.943,365.200 85.600 C 365.200 85.257,364.840 84.717,364.400 84.400 C 363.960 84.083,363.600 83.575,363.600 83.272 C 363.600 82.969,363.060 82.217,362.400 81.600 C 361.740 80.983,361.200 80.263,361.200 80.000 C 361.200 79.737,360.660 79.017,360.000 78.400 C 359.340 77.783,358.800 77.014,358.800 76.690 C 358.800 76.367,358.170 75.564,357.400 74.906 C 356.630 74.248,356.000 73.494,356.000 73.229 C 356.000 72.965,355.100 71.871,354.000 70.800 C 352.900 69.729,352.000 68.649,352.000 68.402 C 352.000 68.154,349.795 65.803,347.100 63.176 C 344.405 60.550,342.071 58.266,341.914 58.100 C 337.440 53.399,331.918 48.000,331.586 48.000 C 331.345 48.000,330.271 47.100,329.200 46.000 C 328.129 44.900,327.035 44.000,326.771 44.000 C 326.506 44.000,325.752 43.370,325.094 42.600 C 324.436 41.830,323.633 41.200,323.310 41.200 C 322.986 41.200,322.217 40.660,321.600 40.000 C 320.983 39.340,320.263 38.800,320.000 38.800 C 319.737 38.800,319.017 38.260,318.400 37.600 C 317.783 36.940,317.031 36.400,316.728 36.400 C 316.425 36.400,315.917 36.040,315.600 35.600 C 315.283 35.160,314.743 34.800,314.400 34.800 C 314.057 34.800,313.517 34.440,313.200 34.000 C 312.883 33.560,312.343 33.200,312.000 33.200 C 311.657 33.200,311.117 32.840,310.800 32.400 C 310.483 31.960,309.915 31.600,309.539 31.600 C 309.162 31.600,308.740 31.240,308.600 30.800 C 308.460 30.360,308.038 30.000,307.661 30.000 C 307.285 30.000,306.717 29.640,306.400 29.200 C 306.083 28.760,305.503 28.400,305.112 28.400 C 304.720 28.400,304.400 28.220,304.400 28.000 C 304.400 27.780,304.080 27.600,303.688 27.600 C 303.297 27.600,302.717 27.240,302.400 26.800 C 302.083 26.360,301.503 26.000,301.112 26.000 C 300.720 26.000,300.400 25.820,300.400 25.600 C 300.400 25.380,300.265 25.230,300.100 25.266 C 299.386 25.422,297.347 24.612,296.753 23.936 C 296.397 23.531,295.812 23.200,295.453 23.200 C 295.094 23.200,294.800 23.020,294.800 22.800 C 294.800 22.580,294.440 22.400,294.000 22.400 C 293.560 22.400,293.200 22.220,293.200 22.000 C 293.200 21.780,292.840 21.600,292.400 21.600 C 291.960 21.600,291.600 21.420,291.600 21.200 C 291.600 20.980,291.330 20.800,291.000 20.800 C 290.670 20.800,290.400 20.620,290.400 20.400 C 290.400 20.180,290.040 20.000,289.600 20.000 C 289.160 20.000,288.800 19.820,288.800 19.600 C 288.800 19.380,288.440 19.200,288.000 19.200 C 287.560 19.200,287.200 19.020,287.200 18.800 C 287.200 18.580,286.840 18.400,286.400 18.400 C 285.960 18.400,285.600 18.220,285.600 18.000 C 285.600 17.780,285.240 17.600,284.800 17.600 C 284.360 17.600,284.000 17.420,284.000 17.200 C 284.000 16.980,283.460 16.800,282.800 16.800 C 282.140 16.800,281.600 16.620,281.600 16.400 C 281.600 16.180,281.240 16.000,280.800 16.000 C 280.360 16.000,280.000 15.820,280.000 15.600 C 280.000 15.380,279.640 15.200,279.200 15.200 C 278.760 15.200,278.400 15.020,278.400 14.800 C 278.400 14.580,277.860 14.400,277.200 14.400 C 276.540 14.400,276.000 14.220,276.000 14.000 C 276.000 13.780,275.730 13.600,275.400 13.600 C 275.070 13.600,274.800 13.420,274.800 13.200 C 274.800 12.980,274.260 12.800,273.600 12.800 C 272.940 12.800,272.400 12.620,272.400 12.400 C 272.400 12.180,272.040 12.000,271.600 12.000 C 271.160 12.000,270.800 11.820,270.800 11.600 C 270.800 11.380,270.260 11.200,269.600 11.200 C 268.940 11.200,268.400 11.020,268.400 10.800 C 268.400 10.580,267.860 10.400,267.200 10.400 C 266.540 10.400,266.000 10.220,266.000 10.000 C 266.000 9.780,265.460 9.600,264.800 9.600 C 264.140 9.600,263.600 9.438,263.600 9.239 C 263.600 9.041,262.520 8.753,261.200 8.600 C 259.880 8.447,258.800 8.159,258.800 7.961 C 258.800 7.762,258.170 7.600,257.400 7.600 C 256.630 7.600,256.000 7.420,256.000 7.200 C 256.000 6.980,255.460 6.800,254.800 6.800 C 254.140 6.800,253.600 6.620,253.600 6.400 C 253.600 6.180,252.880 6.000,252.000 6.000 C 251.120 6.000,250.400 5.820,250.400 5.600 C 250.400 5.380,249.680 5.200,248.800 5.200 C 247.920 5.200,247.200 5.020,247.200 4.800 C 247.200 4.580,246.480 4.400,245.600 4.400 C 244.720 4.400,244.000 4.220,244.000 4.000 C 244.000 3.780,243.190 3.600,242.200 3.600 C 241.210 3.600,240.400 3.420,240.400 3.200 C 240.400 2.980,239.500 2.800,238.400 2.800 C 237.300 2.800,236.400 2.620,236.400 2.400 C 236.400 2.178,235.333 2.000,234.000 2.000 C 232.667 2.000,231.600 1.822,231.600 1.600 C 231.600 1.367,230.278 1.200,228.433 1.200 C 226.282 1.200,225.214 1.042,225.103 0.708 C 224.941 0.222,187.291 -0.126,178.300 0.275 M298.975 100.196 C 303.879 101.991,305.084 102.976,317.013 114.947 C 329.209 127.184,330.290 128.542,331.542 133.188 C 332.284 135.941,332.625 143.935,332.026 144.534 C 331.792 144.768,331.592 145.419,331.582 145.980 C 331.562 147.181,329.498 151.489,327.797 153.884 C 327.138 154.811,315.094 166.961,301.030 180.884 C 271.589 210.032,211.386 270.298,196.400 285.624 C 185.565 296.704,184.586 297.556,180.200 299.718 C 176.311 301.636,174.362 302.100,170.179 302.105 C 166.332 302.109,164.603 301.711,160.340 299.841 C 159.536 299.488,158.773 299.200,158.644 299.200 C 157.765 299.200,152.508 294.374,144.642 286.346 C 139.606 281.206,121.246 262.623,103.842 245.052 C 86.439 227.480,71.880 212.630,71.488 212.052 C 66.446 204.602,66.030 196.190,70.285 187.726 C 72.529 183.262,93.569 162.397,98.005 160.236 C 105.053 156.803,111.697 156.748,118.800 160.064 L 122.200 161.651 146.129 185.649 C 159.291 198.848,170.215 209.591,170.405 209.524 C 170.820 209.375,190.026 190.378,235.809 144.833 C 278.831 102.033,277.963 102.864,281.200 101.342 C 283.481 100.269,284.548 99.917,288.200 99.032 C 290.192 98.549,296.268 99.206,298.975 100.196 " stroke="none" fill="#443ca4" fill-rule="evenodd"></path><path id="path2" d="M288.400 99.583 C 288.070 99.806,287.303 99.991,286.695 99.994 C 286.087 99.997,285.232 100.180,284.795 100.400 C 284.358 100.620,283.642 100.980,283.205 101.200 C 282.768 101.420,282.183 101.604,281.905 101.609 C 281.627 101.614,280.950 101.987,280.400 102.438 C 279.316 103.328,279.401 103.316,281.800 102.241 C 285.369 100.642,285.856 100.456,287.200 100.182 C 290.148 99.581,297.322 100.027,297.826 100.842 C 297.948 101.039,298.390 101.200,298.809 101.200 C 299.529 101.200,302.956 102.889,303.780 103.649 C 304.303 104.132,305.073 104.111,304.580 103.627 C 303.857 102.917,299.516 100.800,298.783 100.800 C 298.378 100.800,297.948 100.639,297.826 100.442 C 297.357 99.683,289.336 98.952,288.400 99.583 M305.200 104.110 C 305.200 104.277,310.150 109.359,316.200 115.404 C 322.250 121.448,327.200 126.541,327.200 126.721 C 327.200 126.902,327.544 127.418,327.964 127.869 C 328.970 128.949,330.398 131.935,330.406 132.975 C 330.409 133.429,330.603 134.070,330.836 134.400 C 331.550 135.411,330.831 132.028,329.975 130.351 C 329.558 129.534,328.684 128.086,328.032 127.133 C 326.820 125.360,305.200 103.559,305.200 104.110 M273.388 108.012 C 271.645 109.765,270.352 111.200,270.516 111.200 C 270.916 111.200,276.916 105.182,276.715 104.982 C 276.628 104.895,275.131 106.259,273.388 108.012 M265.650 115.835 C 264.247 117.264,263.177 118.510,263.272 118.605 C 263.366 118.700,264.689 117.522,266.211 115.989 C 267.733 114.455,268.803 113.209,268.589 113.219 C 268.375 113.229,267.052 114.407,265.650 115.835 M257.388 124.013 C 255.424 125.986,253.950 127.600,254.114 127.600 C 254.513 127.600,261.315 120.782,261.115 120.582 C 261.029 120.496,259.352 122.039,257.388 124.013 M249.262 132.245 C 247.425 134.121,245.998 135.732,246.090 135.823 C 246.182 135.915,247.844 134.373,249.783 132.395 C 251.722 130.418,253.149 128.808,252.954 128.817 C 252.759 128.826,251.098 130.369,249.262 132.245 M331.384 140.211 C 331.375 142.704,331.510 144.656,331.684 144.548 C 332.082 144.302,332.091 136.762,331.694 136.139 C 331.532 135.886,331.393 137.718,331.384 140.211 M240.588 140.812 C 238.845 142.565,237.552 144.000,237.716 144.000 C 238.116 144.000,244.116 137.982,243.915 137.782 C 243.828 137.695,242.331 139.059,240.588 140.812 M232.045 149.440 C 230.200 151.301,228.760 152.893,228.846 152.979 C 228.932 153.065,230.622 151.531,232.601 149.571 C 234.580 147.610,236.020 146.018,235.800 146.031 C 235.580 146.045,233.890 147.579,232.045 149.440 M329.472 149.419 C 328.532 151.389,328.664 151.724,329.647 149.862 C 330.093 149.016,330.387 148.254,330.301 148.167 C 330.214 148.081,329.841 148.644,329.472 149.419 M326.918 153.546 C 326.066 154.617,313.946 166.835,299.984 180.698 C 248.427 231.893,182.729 297.894,185.616 295.594 C 186.395 294.973,191.705 289.676,197.416 283.823 C 207.105 273.892,308.825 172.244,320.120 161.205 C 324.562 156.864,329.243 151.600,328.661 151.600 C 328.555 151.600,327.771 152.476,326.918 153.546 M223.788 157.613 C 221.824 159.586,220.350 161.200,220.514 161.200 C 220.913 161.200,227.715 154.382,227.515 154.182 C 227.429 154.096,225.752 155.639,223.788 157.613 M104.600 158.400 L 103.400 158.705 104.600 158.725 C 105.260 158.735,106.160 158.589,106.600 158.400 L 107.400 158.056 106.600 158.075 C 106.160 158.086,105.260 158.232,104.600 158.400 M110.224 158.438 C 110.347 158.637,111.187 158.800,112.090 158.800 C 114.121 158.800,113.952 158.581,111.700 158.293 C 110.730 158.169,110.096 158.232,110.224 158.438 M100.800 159.464 C 99.810 159.808,98.226 160.609,97.280 161.245 C 96.334 161.880,95.433 162.400,95.277 162.400 C 94.938 162.400,72.000 185.302,72.000 185.641 C 72.000 185.771,76.815 181.027,82.700 175.099 C 92.753 164.974,98.060 160.400,99.758 160.400 C 100.085 160.400,100.464 160.220,100.600 160.000 C 100.736 159.780,101.276 159.600,101.800 159.600 C 102.324 159.600,102.864 159.420,103.000 159.200 C 103.327 158.671,102.951 158.716,100.800 159.464 M114.190 159.184 C 114.332 159.413,114.778 159.600,115.183 159.600 C 117.632 159.600,123.073 163.571,128.984 169.674 C 139.033 180.048,162.958 203.975,163.120 203.813 C 163.370 203.564,162.142 202.400,161.629 202.400 C 161.393 202.400,161.200 202.186,161.200 201.925 C 161.200 201.252,123.767 163.794,121.660 162.358 C 118.447 160.169,113.500 158.067,114.190 159.184 M215.650 165.835 C 214.247 167.264,213.177 168.510,213.272 168.605 C 213.366 168.700,214.689 167.522,216.211 165.989 C 217.733 164.455,218.803 163.209,218.589 163.219 C 218.375 163.229,217.052 164.407,215.650 165.835 M207.388 174.013 C 205.424 175.986,203.950 177.600,204.114 177.600 C 204.513 177.600,211.315 170.782,211.115 170.582 C 211.029 170.496,209.352 172.039,207.388 174.013 M199.262 182.245 C 197.425 184.121,195.998 185.732,196.090 185.823 C 196.182 185.915,197.844 184.373,199.783 182.395 C 201.722 180.418,203.149 178.808,202.954 178.817 C 202.759 178.826,201.098 180.369,199.262 182.245 M190.588 190.812 C 188.845 192.565,187.552 194.000,187.716 194.000 C 188.116 194.000,194.116 187.982,193.915 187.782 C 193.828 187.695,192.331 189.059,190.588 190.812 M69.067 191.467 C 68.920 191.613,68.811 192.108,68.825 192.567 C 68.849 193.333,68.882 193.323,69.234 192.442 C 69.626 191.463,69.544 190.989,69.067 191.467 M68.267 193.867 C 67.898 194.235,67.929 203.109,68.300 203.338 C 68.465 203.440,68.600 201.291,68.600 198.562 C 68.600 195.833,68.585 193.600,68.567 193.600 C 68.548 193.600,68.413 193.720,68.267 193.867 M183.113 198.417 C 181.856 199.728,180.683 200.800,180.507 200.800 C 180.331 200.800,178.123 202.870,175.600 205.400 C 169.974 211.042,170.081 211.023,166.009 207.100 L 163.000 204.200 165.990 207.300 C 170.296 211.764,169.779 211.931,178.800 203.182 C 182.870 199.234,186.020 196.012,185.800 196.020 C 185.580 196.028,184.371 197.107,183.113 198.417 M68.828 205.076 C 68.813 205.558,68.980 206.064,69.200 206.200 C 69.673 206.492,69.673 206.101,69.200 205.000 C 68.869 204.229,68.855 204.231,68.828 205.076 M72.800 212.702 C 72.800 212.893,73.371 213.579,74.068 214.225 L 75.336 215.400 74.450 214.112 C 73.500 212.733,72.800 212.135,72.800 212.702 M76.851 217.071 C 77.624 218.016,83.670 224.000,85.051 225.187 C 85.683 225.731,84.043 223.976,81.406 221.287 C 77.002 216.797,75.457 215.367,76.851 217.071 M93.251 233.470 C 94.134 234.548,100.994 241.346,101.833 241.975 C 102.255 242.290,100.443 240.355,97.806 237.675 C 93.398 233.192,91.862 231.774,93.251 233.470 M110.451 250.667 C 111.345 251.753,117.401 257.751,118.233 258.375 C 118.655 258.691,117.023 256.936,114.607 254.475 C 110.571 250.364,109.068 248.987,110.451 250.667 M126.851 267.071 C 127.624 268.016,133.670 274.000,135.051 275.187 C 135.683 275.731,134.043 273.976,131.406 271.287 C 127.002 266.797,125.457 265.367,126.851 267.071 M143.657 284.200 C 144.480 285.581,155.080 296.254,155.355 295.979 C 155.455 295.878,152.703 292.917,149.239 289.398 C 145.775 285.879,143.263 283.540,143.657 284.200 M160.896 299.567 C 164.329 301.273,173.771 302.389,174.934 301.226 C 175.168 300.992,175.853 300.800,176.456 300.800 C 177.059 300.800,177.649 300.645,177.766 300.456 C 177.883 300.266,177.218 300.290,176.289 300.509 C 171.186 301.708,165.800 301.231,161.289 299.178 C 158.637 297.972,158.319 298.286,160.896 299.567 M179.600 299.241 C 178.830 299.686,178.560 299.928,179.000 299.779 C 179.440 299.631,180.115 299.419,180.500 299.308 C 180.885 299.197,181.200 298.948,181.200 298.753 C 181.200 298.304,181.252 298.288,179.600 299.241 " stroke="none" fill="#d4ccec" fill-rule="evenodd"></path><path id="path3" d="M289.891 99.089 C 290.601 99.177,291.861 99.179,292.691 99.092 C 293.521 99.005,292.940 98.933,291.400 98.931 C 289.860 98.929,289.181 99.000,289.891 99.089 M285.800 99.619 C 285.242 99.871,285.485 99.907,286.600 99.738 C 287.480 99.604,288.275 99.428,288.367 99.347 C 288.710 99.044,286.568 99.271,285.800 99.619 M294.833 99.343 C 294.925 99.421,295.630 99.601,296.400 99.742 C 297.385 99.923,297.622 99.882,297.200 99.606 C 296.658 99.250,294.437 99.003,294.833 99.343 M281.338 101.240 C 279.984 101.905,278.263 103.023,277.515 103.725 C 276.766 104.426,276.536 104.685,277.002 104.300 C 277.469 103.915,278.065 103.600,278.326 103.600 C 278.587 103.600,278.800 103.439,278.800 103.242 C 278.800 102.937,282.502 100.982,284.400 100.284 C 284.933 100.088,284.933 100.061,284.400 100.047 C 284.070 100.037,282.692 100.574,281.338 101.240 M306.000 104.078 C 306.000 104.227,310.770 109.107,316.600 114.922 C 322.430 120.736,327.200 125.381,327.200 125.244 C 327.200 125.107,322.430 120.227,316.600 114.400 C 310.770 108.573,306.000 103.928,306.000 104.078 M265.213 115.452 C 263.131 117.513,261.605 119.200,261.822 119.200 C 262.302 119.200,269.432 112.091,269.179 111.865 C 269.081 111.776,267.296 113.391,265.213 115.452 M256.998 123.602 C 255.958 124.751,256.420 124.880,257.514 123.746 C 258.017 123.226,258.270 122.800,258.076 122.800 C 257.882 122.800,257.397 123.161,256.998 123.602 M328.036 126.780 C 328.346 127.318,328.941 128.128,329.357 128.580 C 330.100 129.384,330.100 129.375,329.357 128.069 C 328.941 127.337,328.346 126.527,328.036 126.269 C 327.550 125.865,327.550 125.936,328.036 126.780 M238.987 141.643 C 216.076 164.579,170.767 209.386,170.321 209.548 C 170.097 209.629,168.493 208.283,166.757 206.557 C 165.021 204.831,163.600 203.547,163.600 203.703 C 163.600 204.213,169.446 210.000,169.962 210.000 C 170.921 210.000,254.002 127.869,253.525 127.392 C 253.442 127.308,246.899 133.721,238.987 141.643 M330.014 129.654 C 330.006 129.794,330.263 130.514,330.584 131.254 C 330.906 131.994,331.169 132.330,331.170 132.000 C 331.172 131.424,330.043 129.134,330.014 129.654 M331.882 136.421 C 332.008 137.399,332.175 138.275,332.255 138.367 C 332.581 138.742,332.360 135.755,332.021 135.221 C 331.784 134.846,331.735 135.270,331.882 136.421 M331.968 143.300 C 331.849 144.160,331.910 144.650,332.112 144.448 C 332.305 144.255,332.398 143.581,332.319 142.949 C 332.187 141.891,332.159 141.919,331.968 143.300 M300.505 181.100 C 286.665 194.905,277.785 203.825,280.771 200.923 C 292.091 189.922,326.189 156.008,325.934 156.004 C 325.788 156.002,314.345 167.295,300.505 181.100 M104.400 158.000 C 103.608 158.254,103.567 158.320,104.200 158.320 C 104.640 158.320,105.450 158.176,106.000 158.000 C 106.792 157.746,106.833 157.680,106.200 157.680 C 105.760 157.680,104.950 157.824,104.400 158.000 M110.800 158.005 C 111.130 158.216,111.925 158.391,112.567 158.394 C 114.114 158.402,113.777 158.171,111.800 157.868 C 110.710 157.701,110.391 157.745,110.800 158.005 M114.800 158.800 C 115.130 159.013,115.670 159.188,116.000 159.188 C 116.533 159.188,116.533 159.145,116.000 158.800 C 115.670 158.587,115.130 158.412,114.800 158.412 C 114.267 158.412,114.267 158.455,114.800 158.800 M95.200 161.789 C 89.042 165.930,68.800 188.268,68.800 190.922 C 68.800 191.173,69.529 189.943,70.420 188.189 C 72.008 185.063,93.640 162.400,95.035 162.400 C 95.278 162.400,95.802 162.040,96.200 161.600 C 97.118 160.585,96.939 160.619,95.200 161.789 M121.089 161.630 C 121.578 162.139,122.078 162.455,122.201 162.332 C 122.324 162.209,121.924 161.792,121.312 161.406 L 120.200 160.704 121.089 161.630 M122.833 162.571 C 122.925 162.665,131.595 171.376,142.100 181.929 C 152.605 192.481,161.200 201.314,161.200 201.558 C 161.200 201.801,161.411 202.000,161.669 202.000 C 161.926 202.000,162.511 202.308,162.969 202.684 C 163.426 203.060,154.622 194.150,143.405 182.884 C 132.188 171.618,122.933 162.400,122.838 162.400 C 122.744 162.400,122.742 162.477,122.833 162.571 M67.320 198.800 C 67.320 200.010,67.395 200.505,67.487 199.900 C 67.578 199.295,67.578 198.305,67.487 197.700 C 67.395 197.095,67.320 197.590,67.320 198.800 M67.635 202.016 C 67.527 203.907,69.761 209.610,71.687 212.360 C 71.974 212.770,86.446 227.481,103.847 245.052 C 121.248 262.624,139.606 281.206,144.642 286.346 C 153.709 295.600,157.401 298.888,159.247 299.352 C 160.083 299.563,160.069 299.530,159.129 299.088 C 158.540 298.810,157.506 298.092,156.832 297.492 C 156.158 296.891,155.468 296.400,155.298 296.400 C 154.889 296.400,143.600 285.082,143.600 284.671 C 143.600 284.496,127.625 268.332,108.100 248.750 C 88.575 229.168,72.478 212.817,72.328 212.414 C 72.178 212.011,71.875 211.570,71.654 211.433 C 70.952 211.000,69.043 206.716,68.344 204.009 C 67.973 202.574,67.655 201.677,67.635 202.016 M216.597 264.500 L 207.800 273.400 216.700 264.603 C 224.970 256.430,225.780 255.600,225.497 255.600 C 225.440 255.600,221.435 259.605,216.597 264.500 M205.404 276.035 C 204.746 276.924,199.774 282.044,194.355 287.412 C 188.937 292.781,184.795 297.012,185.152 296.814 C 186.261 296.201,206.800 275.393,206.800 274.883 C 206.800 274.187,206.726 274.248,205.404 276.035 M165.200 301.594 C 165.530 301.811,166.235 301.991,166.767 301.994 C 168.051 302.002,167.725 301.775,166.000 301.458 C 165.015 301.277,164.778 301.318,165.200 301.594 " stroke="none" fill="#8b74bc" fill-rule="evenodd"></path><path id="path4" d="M294.400 99.594 C 294.730 99.811,295.435 99.991,295.967 99.994 C 297.251 100.002,296.925 99.775,295.200 99.458 C 294.215 99.277,293.978 99.318,294.400 99.594 M300.000 100.958 C 300.000 101.070,300.675 101.474,301.500 101.855 C 302.325 102.235,303.810 103.066,304.800 103.702 C 306.376 104.713,306.453 104.732,305.422 103.851 C 304.441 103.013,303.291 102.351,300.300 100.898 C 300.135 100.818,300.000 100.845,300.000 100.958 M318.200 116.800 C 320.612 119.220,322.676 121.200,322.786 121.200 C 322.896 121.200,321.012 119.220,318.600 116.800 C 316.188 114.380,314.124 112.400,314.014 112.400 C 313.904 112.400,315.788 114.380,318.200 116.800 M332.114 140.200 C 332.117 141.300,332.195 141.703,332.287 141.095 C 332.379 140.486,332.377 139.586,332.282 139.095 C 332.187 138.603,332.111 139.100,332.114 140.200 M232.200 148.800 C 231.568 149.460,231.187 150.000,231.354 150.000 C 231.671 150.000,232.223 149.477,233.149 148.298 C 234.021 147.190,233.458 147.487,232.200 148.800 M300.292 180.900 L 274.918 206.200 297.159 184.230 C 309.391 172.146,320.929 160.761,322.797 158.930 C 324.666 157.098,326.076 155.600,325.931 155.600 C 325.786 155.600,314.248 166.985,300.292 180.900 M107.705 157.887 C 108.314 157.979,109.214 157.977,109.705 157.882 C 110.197 157.787,109.700 157.711,108.600 157.714 C 107.500 157.717,107.097 157.795,107.705 157.887 M83.200 173.800 C 76.933 180.070,71.895 185.200,72.005 185.200 C 72.115 185.200,77.333 180.070,83.600 173.800 C 89.867 167.530,94.905 162.400,94.795 162.400 C 94.685 162.400,89.467 167.530,83.200 173.800 M122.049 162.500 C 122.149 162.555,129.424 169.710,138.216 178.400 L 154.200 194.200 138.402 178.300 C 129.713 169.555,122.438 162.400,122.235 162.400 C 122.033 162.400,121.949 162.445,122.049 162.500 M215.381 165.681 C 214.512 166.606,214.159 167.101,214.598 166.781 C 215.539 166.096,216.004 165.647,216.749 164.698 C 217.749 163.427,216.987 163.974,215.381 165.681 M199.000 182.000 C 197.250 183.760,195.940 185.200,196.089 185.200 C 196.366 185.200,200.960 180.720,201.949 179.485 C 203.128 178.014,202.044 178.938,199.000 182.000 M69.752 189.500 C 69.374 190.325,68.995 191.135,68.909 191.300 C 68.823 191.465,68.845 191.600,68.958 191.600 C 69.070 191.600,69.471 190.925,69.848 190.100 C 70.226 189.275,70.605 188.465,70.691 188.300 C 70.777 188.135,70.755 188.000,70.642 188.000 C 70.530 188.000,70.129 188.675,69.752 189.500 M67.734 198.800 C 67.734 200.450,67.805 201.125,67.891 200.300 C 67.978 199.475,67.978 198.125,67.891 197.300 C 67.805 196.475,67.734 197.150,67.734 198.800 M177.947 202.911 C 174.092 206.700,173.025 207.775,175.575 205.300 C 178.125 202.825,180.344 200.800,180.506 200.800 C 180.889 200.800,185.294 196.361,185.102 196.169 C 185.021 196.088,181.802 199.122,177.947 202.911 M161.593 202.296 C 162.340 202.589,163.200 203.437,163.200 203.881 C 163.200 204.068,164.584 205.566,166.276 207.210 C 169.732 210.569,169.449 209.913,165.900 206.340 C 164.635 205.067,163.600 203.867,163.600 203.674 C 163.600 203.128,162.201 201.996,161.569 202.032 C 161.100 202.058,161.105 202.104,161.593 202.296 M70.800 210.307 C 70.800 210.510,71.160 211.002,71.600 211.400 C 72.040 211.798,72.400 212.327,72.400 212.575 C 72.400 212.822,73.525 214.099,74.900 215.413 L 77.400 217.800 75.100 215.388 C 73.835 214.062,72.800 212.828,72.800 212.646 C 72.800 212.464,72.350 211.781,71.800 211.127 C 71.250 210.473,70.800 210.105,70.800 210.307 M265.381 215.700 L 263.800 217.400 265.500 215.819 C 267.081 214.348,267.384 214.000,267.081 214.000 C 267.016 214.000,266.251 214.765,265.381 215.700 M88.600 229.200 C 91.233 231.840,93.477 234.000,93.587 234.000 C 93.697 234.000,91.633 231.840,89.000 229.200 C 86.367 226.560,84.123 224.400,84.013 224.400 C 83.903 224.400,85.967 226.560,88.600 229.200 M248.575 232.500 L 247.400 233.800 248.700 232.625 C 249.415 231.979,250.000 231.394,250.000 231.325 C 250.000 231.016,249.670 231.288,248.575 232.500 M104.600 245.200 C 106.571 247.180,108.273 248.800,108.383 248.800 C 108.493 248.800,106.971 247.180,105.000 245.200 C 103.029 243.220,101.327 241.600,101.217 241.600 C 101.107 241.600,102.629 243.220,104.600 245.200 M232.175 248.900 L 231.000 250.200 232.300 249.025 C 233.512 247.930,233.784 247.600,233.475 247.600 C 233.406 247.600,232.821 248.185,232.175 248.900 M221.791 258.900 L 218.600 262.200 221.900 259.009 C 224.965 256.046,225.382 255.600,225.091 255.600 C 225.030 255.600,223.545 257.085,221.791 258.900 M120.444 261.053 C 121.280 262.060,123.410 264.151,124.247 264.785 C 124.661 265.099,123.926 264.240,122.613 262.878 C 120.370 260.550,119.233 259.593,120.444 261.053 M215.200 265.400 C 213.561 267.050,212.310 268.400,212.420 268.400 C 212.530 268.400,213.961 267.050,215.600 265.400 C 217.239 263.750,218.490 262.400,218.380 262.400 C 218.270 262.400,216.839 263.750,215.200 265.400 M209.785 270.900 L 207.800 273.000 209.900 271.015 C 211.851 269.171,212.183 268.800,211.885 268.800 C 211.822 268.800,210.877 269.745,209.785 270.900 M134.000 274.548 C 134.000 274.707,134.450 275.286,135.000 275.836 C 135.550 276.386,136.000 276.680,136.000 276.488 C 136.000 276.296,135.550 275.717,135.000 275.200 C 134.450 274.683,134.000 274.390,134.000 274.548 M195.197 286.300 L 185.800 295.800 195.300 286.403 C 200.525 281.235,204.800 276.960,204.800 276.903 C 204.800 276.620,203.929 277.472,195.197 286.300 M143.600 284.774 C 143.600 285.134,154.964 296.400,155.327 296.400 C 155.501 296.400,156.219 296.939,156.922 297.598 C 157.625 298.257,158.336 298.797,158.501 298.798 C 158.667 298.799,158.105 298.170,157.253 297.400 C 156.400 296.630,155.537 296.000,155.334 296.000 C 155.131 296.000,152.407 293.421,149.282 290.269 C 146.157 287.117,143.600 284.644,143.600 284.774 M183.800 297.044 L 182.200 298.476 183.900 297.204 C 185.363 296.110,185.891 295.583,185.500 295.606 C 185.445 295.609,184.680 296.256,183.800 297.044 M175.045 301.128 C 174.933 301.308,175.373 301.377,176.021 301.282 C 176.670 301.187,177.200 301.040,177.200 300.955 C 177.200 300.650,175.243 300.807,175.045 301.128 M168.900 301.891 C 169.725 301.978,171.075 301.978,171.900 301.891 C 172.725 301.805,172.050 301.734,170.400 301.734 C 168.750 301.734,168.075 301.805,168.900 301.891 " stroke="none" fill="#9c84c4" fill-rule="evenodd"></path></g></svg>