<svg xmlns="http://www.w3.org/2000/svg" viewBox="0 0 300 300"><defs><style>.cls-1,.cls-2{fill:#fff;stroke:#443c99;stroke-miterlimit:10;stroke-width:3px;}.cls-1{opacity:0.47;}.cls-3{fill:#443c99;}</style></defs><title>Artboard 19</title><g id="pressure_shit" data-name="pressure shit"><path class="cls-1" d="M226.59,95.59v173A14.6,14.6,0,0,1,212,283.15H59.75a14.59,14.59,0,0,1-14.59-14.59V59.33a14.6,14.6,0,0,1,14.59-14.6H173Z"/><path class="cls-2" d="M248.19,71.41v173A14.6,14.6,0,0,1,233.59,259H81.35a14.59,14.59,0,0,1-14.59-14.59V35.16a14.59,14.59,0,0,1,14.59-14.6H194.57Z"/><path class="cls-2" d="M248.19,78.37H202.25a11.68,11.68,0,0,1-11.68-11.69V20.56h4l53.62,50.85Z"/><polygon class="cls-3" points="186.24 137.78 162.16 137.78 162.16 113.71 152.79 113.71 152.79 137.78 128.71 137.78 128.71 147.16 152.79 147.16 152.79 171.23 162.16 171.23 162.16 147.16 186.24 147.16 186.24 137.78"/></g></svg>