<svg width="17" height="16" viewBox="0 0 17 16" fill="none" xmlns="http://www.w3.org/2000/svg">
<path d="M11.9476 2.66406H4.94878C4.8994 2.66406 4.85938 2.70504 4.85938 2.7556V4.71206C4.85938 4.76261 4.8994 4.80359 4.94878 4.80359H11.9476C11.997 4.80359 12.037 4.76261 12.037 4.71206V2.7556C12.037 2.70504 11.997 2.66406 11.9476 2.66406Z" fill="#4B4B4B"/>
<path d="M11.961 9.10492C11.9752 9.10364 11.9884 9.097 11.998 9.08628C12.0077 9.07557 12.0131 9.06155 12.0132 9.04696V5.67469C12.0132 5.63251 11.9969 5.59205 11.9677 5.56222C11.9386 5.53238 11.8991 5.51563 11.8579 5.51563H4.99139C4.95018 5.51562 4.91065 5.53238 4.8815 5.56221C4.85235 5.59204 4.83596 5.6325 4.83594 5.67469V9.09794C4.84357 9.09794 4.85102 9.09682 4.85865 9.09682C5.15986 9.09682 5.44873 9.21933 5.66172 9.4374C5.8747 9.65546 5.99436 9.95122 5.99436 10.2596C5.99436 10.568 5.8747 10.8638 5.66172 11.0818C5.44873 11.2999 5.15986 11.4224 4.85865 11.4224C4.85102 11.4224 4.84357 11.4214 4.83594 11.4212V13.17C4.83589 13.191 4.83988 13.2117 4.84767 13.231C4.85546 13.2504 4.8669 13.268 4.88134 13.2828C4.89578 13.2976 4.91293 13.3094 4.93182 13.3174C4.9507 13.3254 4.97095 13.3296 4.99139 13.3296H11.8582C11.8786 13.3296 11.8988 13.3254 11.9177 13.3174C11.9366 13.3094 11.9537 13.2977 11.9681 13.2829C11.9825 13.2682 11.994 13.2506 12.0018 13.2313C12.0096 13.212 12.0136 13.1913 12.0136 13.1704V11.4651C12.0135 11.4525 12.0088 11.4404 12.0004 11.4312C11.9919 11.422 11.9804 11.4163 11.9682 11.4154C11.6887 11.3871 11.4295 11.2536 11.2406 11.0408C11.0518 10.828 10.9467 10.551 10.9458 10.2635C10.9449 9.97602 11.0482 9.69838 11.2357 9.48435C11.4232 9.27033 11.6816 9.13513 11.9609 9.10492H11.961ZM10.4687 7.69971C10.4687 7.72078 10.4605 7.74099 10.4459 7.75589C10.4314 7.77078 10.4117 7.77915 10.3911 7.77915H6.45781C6.44762 7.77917 6.43752 7.77712 6.42809 7.77313C6.41867 7.76915 6.4101 7.7633 6.40289 7.75592C6.39568 7.74854 6.38995 7.73978 6.38605 7.73013C6.38214 7.72049 6.38013 7.71015 6.38013 7.69971V6.2773C6.38013 6.2562 6.38832 6.23597 6.40288 6.22106C6.41745 6.20614 6.43721 6.19776 6.45781 6.19776H10.3911C10.4013 6.19776 10.4114 6.19982 10.4208 6.20382C10.4302 6.20782 10.4388 6.21368 10.446 6.22106C10.4532 6.22845 10.4589 6.23722 10.4628 6.24687C10.4667 6.25652 10.4687 6.26686 10.4687 6.2773V7.69971Z" fill="#4B4B4B"/>
</svg>
