<svg width="16" height="16" viewBox="0 0 16 16" fill="none" xmlns="http://www.w3.org/2000/svg">
<path d="M3.28628 10.0455H2.77529C2.76021 10.0455 2.74528 10.0424 2.73142 10.0363C2.71756 10.0303 2.70506 10.0214 2.69467 10.0103C2.68428 9.99914 2.67622 9.98598 2.67098 9.97158C2.66574 9.95719 2.66344 9.94186 2.66421 9.92653L2.96692 3.84182C2.96837 3.81282 2.98072 3.7855 3.00141 3.7655C3.0221 3.7455 3.04955 3.73436 3.07809 3.73438H3.17504C3.18965 3.73436 3.20412 3.73729 3.21763 3.74297C3.23113 3.74866 3.24339 3.75699 3.25373 3.76751C3.26406 3.77802 3.27225 3.7905 3.27784 3.80424C3.28342 3.81798 3.28629 3.83271 3.28628 3.84758V10.0455Z" fill="#4B4B4B"/>
<path d="M4.08802 9.24219H3.55469V10.0422H4.08802V9.24219Z" fill="#4B4B4B"/>
<path d="M12.7113 9.9566H13.222C13.2371 9.9566 13.252 9.95352 13.2658 9.94755C13.2797 9.94158 13.2922 9.93284 13.3026 9.92187C13.313 9.9109 13.321 9.89793 13.3262 9.88374C13.3315 9.86954 13.3338 9.85443 13.333 9.83932L13.0302 3.84031C13.0287 3.81172 13.0164 3.7848 12.9957 3.76508C12.975 3.74537 12.9476 3.73438 12.9191 3.73438H12.8222C12.8076 3.73436 12.7931 3.73724 12.7796 3.74285C12.7661 3.74845 12.7539 3.75667 12.7435 3.76704C12.7332 3.7774 12.725 3.78971 12.7194 3.80325C12.7138 3.8168 12.7109 3.83132 12.7109 3.84598L12.7113 9.9566Z" fill="#4B4B4B"/>
<path d="M11.912 9.95312H12.4453V9.24201H11.912V9.95312Z" fill="#4B4B4B"/>
<path d="M11.3609 6.84375H4.6312C4.59448 6.84374 4.55812 6.85077 4.52419 6.86444C4.49027 6.87811 4.45944 6.89815 4.43347 6.92342C4.4075 6.94869 4.3869 6.9787 4.37285 7.01172C4.3588 7.04474 4.35156 7.08013 4.35156 7.11587V12.0827C4.35158 12.1549 4.38106 12.2241 4.4335 12.2752C4.48594 12.3262 4.55705 12.3549 4.6312 12.3549H11.3609C11.435 12.3549 11.5061 12.3262 11.5586 12.2752C11.611 12.2241 11.6405 12.1549 11.6405 12.0827V7.11587C11.6405 7.0437 11.611 6.97448 11.5586 6.92345C11.5061 6.87242 11.435 6.84375 11.3609 6.84375ZM7.10766 7.88862L7.43587 8.58239C7.2308 8.67972 7.06292 8.83812 6.9566 9.03462L6.17356 8.81689C6.38435 8.39684 6.65891 8.0649 7.10766 7.88862ZM9.77677 9.88676H6.83442C6.8609 10.0918 6.93376 10.2886 7.04776 10.463C7.14084 10.5984 7.26678 10.7094 7.41443 10.7862C7.56209 10.8629 7.7269 10.9031 7.8943 10.9031C8.0617 10.9031 8.22652 10.8629 8.37417 10.7862C8.52183 10.7094 8.64777 10.5984 8.74085 10.463H9.64934C9.38735 11.1407 8.75578 11.6097 7.91121 11.6051C6.91984 11.5994 6.08141 10.928 6.01035 9.88964C6.00757 9.84906 6.00609 9.80881 6.00543 9.76871C6.0025 9.59296 6.02076 9.41748 6.05983 9.24588H8.93548C8.86299 8.98596 8.68978 8.76354 8.45228 8.62538C8.21479 8.48723 7.9315 8.4441 7.66201 8.50507L7.57651 7.77169C7.72598 7.74675 7.87779 7.73759 8.02928 7.74438C8.32061 7.75604 8.60396 7.84051 8.85203 7.98966C9.07938 8.1292 9.27491 8.31264 9.42653 8.52866C9.57815 8.74468 9.68264 8.98867 9.73353 9.24556H9.73763C9.74953 9.30394 9.75971 9.4057 9.76676 9.46544C9.78338 9.60528 9.78673 9.74632 9.77677 9.88676Z" fill="#4B4B4B"/>
</svg>
