<svg id="Component_72_2" data-name="Component 72 – 2" xmlns="http://www.w3.org/2000/svg" width="39" height="21" viewBox="0 0 39 21">
    <g id="Path_2007" data-name="Path 2007" fill="rgba(255,255,255,0.75)">
        <path d="M 36 20.5 L 3 20.5 C 1.621500015258789 20.5 0.5 19.37849998474121 0.5 18 L 0.5 3 C 0.5 1.621500015258789 1.621500015258789 0.5 3 0.5 L 36 0.5 C 37.37850189208984 0.5 38.5 1.621500015258789 38.5 3 L 38.5 18 C 38.5 19.37849998474121 37.37850189208984 20.5 36 20.5 Z" stroke="none"/>
        <path d="M 3 1 C 1.897201538085938 1 1 1.897199630737305 1 3 L 1 18 C 1 19.1028003692627 1.897201538085938 20 3 20 L 36 20 C 37.10279846191406 20 38 19.1028003692627 38 18 L 38 3 C 38 1.897199630737305 37.10279846191406 1 36 1 L 3 1 M 3 0 L 36 0 C 37.6568489074707 0 39 1.343149185180664 39 3 L 39 18 C 39 19.65685081481934 37.6568489074707 21 36 21 L 3 21 C 1.343151092529297 21 0 19.65685081481934 0 18 L 0 3 C 0 1.343149185180664 1.343151092529297 0 3 0 Z" stroke="none" fill="#3491ff"/>
    </g>
    <text id="Part_5" data-name="Part 5" transform="translate(2 15)" fill="#3491fe" font-size="13" font-family="HelveticaNeue, Helvetica Neue"><tspan x="0" y="0">Part 5</tspan></text>
</svg>