<svg xmlns="http://www.w3.org/2000/svg" width="10.608" height="10.608" viewBox="0 0 10.608 10.608">
	<path id="Icon_ionic-md-settings" data-name="Icon ionic-md-settings" d="M12.707,9.209a3.317,3.317,0,0,0,.027-.53c0-.186-.027-.345-.027-.53l1.139-.875a.244.244,0,0,0,.054-.345L12.815,5.1a.264.264,0,0,0-.326-.106l-1.356.53a3.948,3.948,0,0,0-.922-.53l-.19-1.405a.291.291,0,0,0-.271-.212H7.58a.291.291,0,0,0-.271.212L7.092,4.993a4.593,4.593,0,0,0-.922.53l-1.356-.53a.254.254,0,0,0-.326.106L3.4,6.929a.32.32,0,0,0,.054.345l1.166.875c0,.186-.027.345-.027.53s.027.345.027.53l-1.139.875a.244.244,0,0,0-.054.345l1.085,1.83a.264.264,0,0,0,.326.106l1.356-.53a3.947,3.947,0,0,0,.922.53l.217,1.405a.263.263,0,0,0,.271.212h2.17a.291.291,0,0,0,.271-.212l.217-1.405a4.59,4.59,0,0,0,.922-.53l1.356.53a.254.254,0,0,0,.326-.106l1.085-1.83a.32.32,0,0,0-.054-.345ZM8.665,10.535a1.857,1.857,0,1,1,1.9-1.856A1.866,1.866,0,0,1,8.665,10.535Z" transform="translate(-3.375 -3.375)" fill="#3585e5" />
</svg>
