<svg width="21" height="21" viewBox="0 0 21 21" fill="none" xmlns="http://www.w3.org/2000/svg">
<path d="M5.83333 16.3333C5.19167 16.3333 4.66667 15.8083 4.66667 15.1667V9.33333C4.66667 8.69167 5.19167 8.16667 5.83333 8.16667C6.475 8.16667 7 8.69167 7 9.33333V15.1667C7 15.8083 6.475 16.3333 5.83333 16.3333ZM10.5 16.3333C9.85833 16.3333 9.33333 15.8083 9.33333 15.1667V5.83333C9.33333 5.19167 9.85833 4.66667 10.5 4.66667C11.1417 4.66667 11.6667 5.19167 11.6667 5.83333V15.1667C11.6667 15.8083 11.1417 16.3333 10.5 16.3333ZM15.1667 16.3333C14.525 16.3333 14 15.8083 14 15.1667V12.8333C14 12.1917 14.525 11.6667 15.1667 11.6667C15.8083 11.6667 16.3333 12.1917 16.3333 12.8333V15.1667C16.3333 15.8083 15.8083 16.3333 15.1667 16.3333ZM17.5 18.6667H3.5C2.85833 18.6667 2.33333 18.1417 2.33333 17.5V3.5C2.33333 2.85833 2.85833 2.33333 3.5 2.33333H17.5C18.1417 2.33333 18.6667 2.85833 18.6667 3.5V17.5C18.6667 18.1417 18.1417 18.6667 17.5 18.6667ZM18.6667 0H2.33333C1.05 0 0 1.05 0 2.33333V18.6667C0 19.95 1.05 21 2.33333 21H18.6667C19.95 21 21 19.95 21 18.6667V2.33333C21 1.05 19.95 0 18.6667 0Z" fill="white"/>
</svg>
